G04 Layer_Color=8388736*
%FSLAX44Y44*%
%MOMM*%
G71*
G01*
G75*
%ADD18C,1.8796*%
%ADD32R,2.5432X2.2032*%
%ADD33O,0.8032X2.4032*%
G04:AMPARAMS|DCode=34|XSize=1.2032mm|YSize=1.1032mm|CornerRadius=0.2141mm|HoleSize=0mm|Usage=FLASHONLY|Rotation=0.000|XOffset=0mm|YOffset=0mm|HoleType=Round|Shape=RoundedRectangle|*
%AMROUNDEDRECTD34*
21,1,1.2032,0.6750,0,0,0.0*
21,1,0.7750,1.1032,0,0,0.0*
1,1,0.4282,0.3875,-0.3375*
1,1,0.4282,-0.3875,-0.3375*
1,1,0.4282,-0.3875,0.3375*
1,1,0.4282,0.3875,0.3375*
%
%ADD34ROUNDEDRECTD34*%
%ADD35R,2.7032X4.2032*%
%ADD36C,1.8032*%
%ADD37C,2.0832*%
%ADD38C,2.7432*%
%ADD39C,2.0828*%
%ADD40C,3.4036*%
%ADD41C,1.8792*%
%ADD42C,1.4732*%
%ADD43C,1.0032*%
D18*
X164700Y215900D02*
D03*
X190100D02*
D03*
X215500D02*
D03*
X240900D02*
D03*
X266300D02*
D03*
X291700D02*
D03*
X317100D02*
D03*
X342500D02*
D03*
X367900D02*
D03*
X393300D02*
D03*
X418700D02*
D03*
X444100D02*
D03*
Y12700D02*
D03*
X418700D02*
D03*
X393300D02*
D03*
X367900D02*
D03*
X342500D02*
D03*
X317100D02*
D03*
X291700D02*
D03*
X266300D02*
D03*
X240900D02*
D03*
X215500D02*
D03*
X190100D02*
D03*
X164700D02*
D03*
X139300D02*
D03*
X113900D02*
D03*
X88500D02*
D03*
X63100D02*
D03*
D32*
X452000Y187400D02*
D03*
X269500D02*
D03*
D33*
X171050Y122900D02*
D03*
X158350D02*
D03*
X145650D02*
D03*
X132950D02*
D03*
X171050Y54900D02*
D03*
X158350D02*
D03*
X145650D02*
D03*
X132950D02*
D03*
D34*
X192100Y84700D02*
D03*
Y67700D02*
D03*
D35*
X246720Y59930D02*
D03*
X451720D02*
D03*
Y132670D02*
D03*
X246720D02*
D03*
D36*
X152000Y152400D02*
D03*
X177400D02*
D03*
X152000Y177800D02*
D03*
D37*
X25400Y76200D02*
D03*
Y101600D02*
D03*
Y127000D02*
D03*
Y152400D02*
D03*
D38*
X482200Y25400D02*
D03*
Y203200D02*
D03*
D39*
X75800Y50800D02*
D03*
Y76200D02*
D03*
Y101600D02*
D03*
Y127000D02*
D03*
Y152400D02*
D03*
Y177800D02*
D03*
X486000Y101400D02*
D03*
Y126800D02*
D03*
D40*
X25000Y25400D02*
D03*
Y203200D02*
D03*
D41*
X400050Y177800D02*
D03*
Y152400D02*
D03*
Y127000D02*
D03*
Y101600D02*
D03*
Y76200D02*
D03*
Y50800D02*
D03*
X374650D02*
D03*
Y76200D02*
D03*
Y101600D02*
D03*
Y127000D02*
D03*
Y152400D02*
D03*
Y177800D02*
D03*
X425450Y50800D02*
D03*
Y76200D02*
D03*
Y101600D02*
D03*
Y127000D02*
D03*
Y152400D02*
D03*
Y177800D02*
D03*
D42*
X322500Y155000D02*
D03*
D43*
X302500Y182500D02*
D03*
X222500Y152500D02*
D03*
M02*
