G04 Layer_Color=32896*
%FSLAX44Y44*%
%MOMM*%
G71*
G01*
G75*
%ADD29C,0.1270*%
%ADD30C,0.2540*%
%ADD31C,0.1500*%
G36*
X296825Y38664D02*
X293771Y37563D01*
Y33342D01*
X296825Y32176D01*
Y30669D01*
X286746Y34771D01*
Y36226D01*
X296825Y40066D01*
Y38664D01*
D02*
G37*
G36*
X294426Y30053D02*
X294649Y30000D01*
X294846Y29948D01*
X295042Y29869D01*
X295226Y29804D01*
X295396Y29712D01*
X295553Y29633D01*
X295684Y29542D01*
X295815Y29463D01*
X295920Y29371D01*
X296012Y29306D01*
X296091Y29227D01*
X296156Y29175D01*
X296196Y29135D01*
X296222Y29109D01*
X296235Y29096D01*
X296366Y28926D01*
X296484Y28755D01*
X296589Y28572D01*
X296667Y28375D01*
X296746Y28192D01*
X296812Y28008D01*
X296903Y27654D01*
X296929Y27484D01*
X296956Y27340D01*
X296969Y27195D01*
X296982Y27078D01*
X296995Y26986D01*
Y26920D01*
Y26868D01*
Y26855D01*
X296982Y26553D01*
X296943Y26265D01*
X296877Y25990D01*
X296798Y25728D01*
X296707Y25492D01*
X296615Y25282D01*
X296497Y25085D01*
X296379Y24902D01*
X296274Y24745D01*
X296156Y24601D01*
X296064Y24483D01*
X295960Y24391D01*
X295894Y24312D01*
X295828Y24247D01*
X295789Y24220D01*
X295776Y24207D01*
X295579Y24063D01*
X295383Y23945D01*
X295186Y23840D01*
X294990Y23749D01*
X294793Y23670D01*
X294597Y23604D01*
X294216Y23513D01*
X294059Y23473D01*
X293902Y23447D01*
X293758Y23434D01*
X293640Y23421D01*
X293548Y23408D01*
X293417D01*
X293155Y23421D01*
X292906Y23447D01*
X292670Y23486D01*
X292434Y23552D01*
X292224Y23617D01*
X292041Y23696D01*
X291857Y23775D01*
X291700Y23867D01*
X291556Y23945D01*
X291425Y24037D01*
X291320Y24116D01*
X291228Y24181D01*
X291150Y24247D01*
X291097Y24286D01*
X291071Y24312D01*
X291058Y24325D01*
X290900Y24496D01*
X290756Y24679D01*
X290638Y24863D01*
X290520Y25046D01*
X290442Y25243D01*
X290363Y25426D01*
X290298Y25596D01*
X290258Y25767D01*
X290219Y25937D01*
X290193Y26082D01*
X290167Y26212D01*
X290153Y26317D01*
X290140Y26409D01*
Y26488D01*
Y26527D01*
Y26540D01*
X290153Y26724D01*
X290167Y26907D01*
X290245Y27261D01*
X290337Y27576D01*
X290455Y27864D01*
X290520Y27995D01*
X290573Y28100D01*
X290638Y28205D01*
X290678Y28283D01*
X290717Y28349D01*
X290756Y28401D01*
X290769Y28428D01*
X290783Y28441D01*
X288056Y27903D01*
Y23880D01*
X286877D01*
Y28886D01*
X292054Y29856D01*
X292224Y28690D01*
X292067Y28585D01*
X291936Y28467D01*
X291805Y28336D01*
X291713Y28218D01*
X291621Y28113D01*
X291569Y28034D01*
X291530Y27982D01*
X291516Y27956D01*
X291425Y27772D01*
X291346Y27576D01*
X291294Y27392D01*
X291268Y27235D01*
X291241Y27078D01*
X291228Y26973D01*
Y26894D01*
Y26868D01*
Y26684D01*
X291254Y26527D01*
X291320Y26212D01*
X291425Y25950D01*
X291530Y25728D01*
X291648Y25544D01*
X291752Y25413D01*
X291792Y25374D01*
X291818Y25334D01*
X291831Y25308D01*
X291844D01*
X291962Y25203D01*
X292093Y25112D01*
X292368Y24967D01*
X292644Y24863D01*
X292919Y24797D01*
X293155Y24745D01*
X293260Y24732D01*
X293351D01*
X293417Y24718D01*
X293731D01*
X293915Y24745D01*
X294269Y24810D01*
X294570Y24915D01*
X294832Y25020D01*
X294937Y25085D01*
X295029Y25138D01*
X295121Y25190D01*
X295186Y25243D01*
X295239Y25282D01*
X295278Y25308D01*
X295291Y25321D01*
X295304Y25334D01*
X295422Y25452D01*
X295527Y25570D01*
X295619Y25701D01*
X295684Y25833D01*
X295815Y26082D01*
X295894Y26330D01*
X295933Y26540D01*
X295947Y26632D01*
X295960Y26697D01*
X295973Y26763D01*
Y26815D01*
Y26842D01*
Y26855D01*
X295947Y27130D01*
X295894Y27366D01*
X295828Y27589D01*
X295737Y27772D01*
X295658Y27916D01*
X295579Y28034D01*
X295527Y28100D01*
X295514Y28126D01*
X295317Y28296D01*
X295095Y28441D01*
X294859Y28559D01*
X294623Y28650D01*
X294426Y28703D01*
X294334Y28729D01*
X294256Y28755D01*
X294190Y28768D01*
X294138D01*
X294112Y28781D01*
X294098D01*
X294190Y30079D01*
X294426Y30053D01*
D02*
G37*
G36*
X267658Y26062D02*
X270069D01*
Y24830D01*
X267658D01*
Y23467D01*
X266518D01*
Y24830D01*
X259991D01*
Y25839D01*
X266518Y30439D01*
X267658D01*
Y26062D01*
D02*
G37*
G36*
X341209Y201416D02*
X341458Y201390D01*
X341707Y201351D01*
X341930Y201298D01*
X342140Y201233D01*
X342336Y201154D01*
X342520Y201075D01*
X342677Y200997D01*
X342821Y200918D01*
X342952Y200840D01*
X343070Y200761D01*
X343149Y200695D01*
X343227Y200643D01*
X343280Y200604D01*
X343306Y200578D01*
X343319Y200564D01*
X343476Y200394D01*
X343621Y200224D01*
X343739Y200053D01*
X343843Y199870D01*
X343935Y199686D01*
X344001Y199516D01*
X344066Y199345D01*
X344105Y199188D01*
X344145Y199031D01*
X344171Y198900D01*
X344197Y198769D01*
X344210Y198664D01*
X344224Y198572D01*
Y198507D01*
Y198467D01*
Y198454D01*
X344210Y198179D01*
X344171Y197917D01*
X344105Y197681D01*
X344040Y197484D01*
X343974Y197301D01*
X343909Y197183D01*
X343896Y197131D01*
X343870Y197091D01*
X343857Y197078D01*
Y197065D01*
X343712Y196842D01*
X343555Y196632D01*
X343398Y196462D01*
X343241Y196318D01*
X343109Y196200D01*
X342991Y196108D01*
X342926Y196056D01*
X342900Y196043D01*
X343149D01*
X343437Y196056D01*
X343712Y196069D01*
X343974Y196095D01*
X344197Y196134D01*
X344394Y196174D01*
X344473Y196187D01*
X344538Y196200D01*
X344590Y196213D01*
X344630D01*
X344656Y196226D01*
X344669D01*
X344931Y196292D01*
X345167Y196370D01*
X345364Y196449D01*
X345534Y196528D01*
X345665Y196593D01*
X345770Y196632D01*
X345822Y196672D01*
X345849Y196685D01*
X346006Y196790D01*
X346137Y196908D01*
X346255Y197026D01*
X346360Y197144D01*
X346438Y197235D01*
X346491Y197314D01*
X346530Y197379D01*
X346543Y197393D01*
X346622Y197563D01*
X346688Y197733D01*
X346727Y197904D01*
X346766Y198048D01*
X346779Y198192D01*
X346792Y198297D01*
Y198363D01*
Y198376D01*
Y198389D01*
X346779Y198625D01*
X346740Y198847D01*
X346674Y199031D01*
X346609Y199188D01*
X346543Y199319D01*
X346478Y199411D01*
X346438Y199463D01*
X346425Y199490D01*
X346268Y199634D01*
X346085Y199752D01*
X345888Y199857D01*
X345678Y199922D01*
X345508Y199988D01*
X345351Y200027D01*
X345298Y200040D01*
X345259D01*
X345233Y200053D01*
X345220D01*
X345311Y201246D01*
X345534Y201207D01*
X345731Y201167D01*
X345927Y201115D01*
X346098Y201049D01*
X346268Y200971D01*
X346425Y200905D01*
X346556Y200826D01*
X346688Y200748D01*
X346792Y200669D01*
X346884Y200604D01*
X346976Y200538D01*
X347041Y200473D01*
X347094Y200420D01*
X347133Y200381D01*
X347146Y200368D01*
X347159Y200355D01*
X347277Y200210D01*
X347369Y200053D01*
X347461Y199896D01*
X347539Y199739D01*
X347657Y199411D01*
X347736Y199109D01*
X347762Y198965D01*
X347775Y198834D01*
X347788Y198729D01*
X347802Y198625D01*
X347815Y198546D01*
Y198480D01*
Y198441D01*
Y198428D01*
X347802Y198218D01*
X347788Y198022D01*
X347723Y197655D01*
X347631Y197327D01*
X347513Y197039D01*
X347461Y196921D01*
X347408Y196803D01*
X347356Y196711D01*
X347317Y196632D01*
X347277Y196567D01*
X347251Y196528D01*
X347225Y196501D01*
Y196488D01*
X346976Y196187D01*
X346701Y195938D01*
X346412Y195715D01*
X346124Y195545D01*
X345875Y195400D01*
X345770Y195348D01*
X345665Y195309D01*
X345587Y195269D01*
X345534Y195243D01*
X345495Y195230D01*
X345482D01*
X345259Y195151D01*
X345023Y195086D01*
X344525Y194981D01*
X344001Y194916D01*
X343752Y194889D01*
X343516Y194863D01*
X343280Y194850D01*
X343070Y194837D01*
X342887Y194824D01*
X342716Y194811D01*
X342061D01*
X341746Y194824D01*
X341458Y194850D01*
X341183Y194876D01*
X340921Y194916D01*
X340698Y194942D01*
X340488Y194981D01*
X340292Y195020D01*
X340121Y195073D01*
X339977Y195112D01*
X339859Y195138D01*
X339754Y195178D01*
X339676Y195204D01*
X339610Y195230D01*
X339584Y195243D01*
X339571D01*
X339217Y195413D01*
X338915Y195610D01*
X338666Y195820D01*
X338444Y196016D01*
X338286Y196200D01*
X338155Y196344D01*
X338116Y196397D01*
X338090Y196436D01*
X338064Y196462D01*
Y196475D01*
X337880Y196790D01*
X337749Y197104D01*
X337657Y197406D01*
X337592Y197681D01*
X337552Y197917D01*
X337539Y198022D01*
Y198100D01*
X337526Y198179D01*
Y198231D01*
Y198258D01*
Y198271D01*
X337539Y198520D01*
X337565Y198756D01*
X337618Y198992D01*
X337670Y199201D01*
X337749Y199398D01*
X337828Y199581D01*
X337906Y199765D01*
X337998Y199909D01*
X338090Y200053D01*
X338168Y200184D01*
X338247Y200289D01*
X338326Y200381D01*
X338378Y200446D01*
X338430Y200499D01*
X338457Y200525D01*
X338470Y200538D01*
X338653Y200695D01*
X338837Y200826D01*
X339047Y200944D01*
X339243Y201049D01*
X339453Y201141D01*
X339663Y201207D01*
X340056Y201311D01*
X340226Y201351D01*
X340396Y201377D01*
X340554Y201403D01*
X340685Y201416D01*
X340790Y201429D01*
X340934D01*
X341209Y201416D01*
D02*
G37*
G36*
X92477Y38711D02*
X92699Y38658D01*
X92896Y38606D01*
X93092Y38527D01*
X93276Y38449D01*
X93446Y38370D01*
X93604Y38278D01*
X93748Y38200D01*
X93866Y38108D01*
X93984Y38029D01*
X94075Y37951D01*
X94154Y37885D01*
X94220Y37820D01*
X94259Y37780D01*
X94285Y37754D01*
X94298Y37741D01*
X94442Y37571D01*
X94560Y37400D01*
X94665Y37217D01*
X94757Y37020D01*
X94823Y36837D01*
X94888Y36653D01*
X94980Y36312D01*
X95019Y36155D01*
X95045Y35998D01*
X95058Y35867D01*
X95071Y35762D01*
X95085Y35670D01*
Y35591D01*
Y35552D01*
Y35539D01*
X95071Y35264D01*
X95045Y35015D01*
X95006Y34766D01*
X94941Y34543D01*
X94875Y34320D01*
X94796Y34124D01*
X94718Y33940D01*
X94626Y33770D01*
X94547Y33626D01*
X94469Y33495D01*
X94390Y33377D01*
X94325Y33285D01*
X94259Y33206D01*
X94220Y33154D01*
X94193Y33128D01*
X94180Y33114D01*
X94010Y32944D01*
X93826Y32800D01*
X93630Y32669D01*
X93446Y32551D01*
X93250Y32459D01*
X93066Y32380D01*
X92883Y32315D01*
X92712Y32262D01*
X92555Y32223D01*
X92411Y32197D01*
X92280Y32171D01*
X92162Y32158D01*
X92070Y32144D01*
X91939D01*
X91585Y32171D01*
X91284Y32223D01*
X91009Y32302D01*
X90773Y32394D01*
X90576Y32485D01*
X90511Y32525D01*
X90445Y32564D01*
X90393Y32590D01*
X90353Y32616D01*
X90340Y32643D01*
X90327D01*
X90104Y32839D01*
X89921Y33075D01*
X89763Y33298D01*
X89646Y33521D01*
X89567Y33717D01*
X89528Y33809D01*
X89501Y33888D01*
X89488Y33940D01*
X89475Y33993D01*
X89462Y34019D01*
Y34032D01*
X89331Y33796D01*
X89200Y33586D01*
X89056Y33403D01*
X88912Y33259D01*
X88794Y33141D01*
X88702Y33062D01*
X88636Y33010D01*
X88610Y32996D01*
X88400Y32878D01*
X88191Y32787D01*
X87994Y32734D01*
X87811Y32682D01*
X87653Y32656D01*
X87522Y32643D01*
X87417D01*
X87168Y32656D01*
X86932Y32695D01*
X86710Y32761D01*
X86513Y32826D01*
X86356Y32905D01*
X86225Y32957D01*
X86146Y33010D01*
X86133Y33023D01*
X86120D01*
X85897Y33167D01*
X85714Y33337D01*
X85543Y33521D01*
X85399Y33691D01*
X85294Y33848D01*
X85216Y33966D01*
X85189Y34019D01*
X85163Y34058D01*
X85150Y34071D01*
Y34084D01*
X85032Y34346D01*
X84940Y34609D01*
X84888Y34857D01*
X84835Y35094D01*
X84809Y35290D01*
Y35382D01*
X84796Y35447D01*
Y35513D01*
Y35552D01*
Y35578D01*
Y35591D01*
X84809Y35814D01*
X84822Y36024D01*
X84901Y36417D01*
X85019Y36758D01*
X85084Y36902D01*
X85137Y37046D01*
X85202Y37164D01*
X85268Y37282D01*
X85333Y37374D01*
X85386Y37453D01*
X85425Y37518D01*
X85464Y37557D01*
X85478Y37584D01*
X85491Y37597D01*
X85622Y37741D01*
X85766Y37872D01*
X86081Y38095D01*
X86395Y38265D01*
X86697Y38409D01*
X86841Y38462D01*
X86972Y38501D01*
X87103Y38540D01*
X87195Y38567D01*
X87286Y38593D01*
X87352Y38606D01*
X87391Y38619D01*
X87404D01*
X87627Y37387D01*
X87313Y37322D01*
X87037Y37243D01*
X86801Y37138D01*
X86618Y37033D01*
X86461Y36941D01*
X86356Y36863D01*
X86303Y36810D01*
X86277Y36784D01*
X86120Y36588D01*
X86015Y36391D01*
X85936Y36181D01*
X85871Y35998D01*
X85845Y35827D01*
X85831Y35683D01*
X85818Y35631D01*
Y35591D01*
Y35578D01*
Y35565D01*
X85831Y35303D01*
X85884Y35080D01*
X85963Y34871D01*
X86041Y34700D01*
X86133Y34569D01*
X86199Y34464D01*
X86251Y34412D01*
X86277Y34386D01*
X86447Y34228D01*
X86644Y34111D01*
X86828Y34032D01*
X86998Y33966D01*
X87155Y33940D01*
X87273Y33927D01*
X87365Y33914D01*
X87391D01*
X87549Y33927D01*
X87693Y33940D01*
X87955Y34019D01*
X88178Y34111D01*
X88361Y34228D01*
X88492Y34346D01*
X88597Y34451D01*
X88649Y34530D01*
X88676Y34543D01*
Y34556D01*
X88807Y34792D01*
X88912Y35041D01*
X88977Y35277D01*
X89030Y35500D01*
X89056Y35683D01*
X89069Y35840D01*
X89082Y35893D01*
Y35932D01*
Y35958D01*
Y35972D01*
Y36037D01*
X89069Y36103D01*
X89056Y36142D01*
Y36168D01*
X90143Y36312D01*
X90104Y36129D01*
X90065Y35958D01*
X90039Y35801D01*
X90026Y35670D01*
X90013Y35578D01*
Y35500D01*
Y35447D01*
Y35434D01*
X90039Y35120D01*
X90104Y34844D01*
X90183Y34609D01*
X90288Y34399D01*
X90393Y34241D01*
X90471Y34124D01*
X90537Y34045D01*
X90563Y34019D01*
X90668Y33914D01*
X90786Y33835D01*
X91009Y33691D01*
X91244Y33586D01*
X91467Y33521D01*
X91664Y33481D01*
X91756Y33468D01*
X91821D01*
X91887Y33455D01*
X92123D01*
X92280Y33481D01*
X92568Y33547D01*
X92830Y33652D01*
X93040Y33757D01*
X93223Y33861D01*
X93355Y33966D01*
X93394Y34006D01*
X93433Y34032D01*
X93446Y34045D01*
X93460Y34058D01*
X93564Y34176D01*
X93656Y34294D01*
X93813Y34543D01*
X93918Y34792D01*
X93984Y35028D01*
X94036Y35224D01*
X94049Y35316D01*
Y35395D01*
X94062Y35447D01*
Y35500D01*
Y35526D01*
Y35539D01*
X94036Y35801D01*
X93984Y36050D01*
X93918Y36260D01*
X93826Y36443D01*
X93748Y36601D01*
X93669Y36706D01*
X93617Y36771D01*
X93604Y36797D01*
X93512Y36889D01*
X93407Y36968D01*
X93158Y37112D01*
X92909Y37243D01*
X92660Y37335D01*
X92424Y37413D01*
X92332Y37439D01*
X92241Y37466D01*
X92175Y37479D01*
X92123Y37492D01*
X92083Y37505D01*
X92070D01*
X92241Y38737D01*
X92477Y38711D01*
D02*
G37*
G36*
X116795Y34295D02*
X113752D01*
X113522Y34284D01*
X113301Y34274D01*
X113112Y34242D01*
X112934Y34211D01*
X112798Y34190D01*
X112693Y34158D01*
X112651Y34148D01*
X112619D01*
X112609Y34137D01*
X112598D01*
X112473Y34085D01*
X112368Y34032D01*
X112273Y33969D01*
X112200Y33906D01*
X112137Y33854D01*
X112085Y33812D01*
X112064Y33781D01*
X112053Y33770D01*
X111990Y33665D01*
X111938Y33571D01*
X111906Y33466D01*
X111875Y33382D01*
X111864Y33298D01*
X111854Y33235D01*
Y33193D01*
Y33183D01*
X111864Y33046D01*
X111885Y32910D01*
X111917Y32784D01*
X111959Y32679D01*
X112001Y32585D01*
X112032Y32511D01*
X112053Y32469D01*
X112064Y32448D01*
X111151Y32102D01*
X111046Y32301D01*
X110962Y32480D01*
X110910Y32658D01*
X110868Y32815D01*
X110847Y32941D01*
X110826Y33046D01*
Y33109D01*
Y33120D01*
Y33130D01*
X110836Y33256D01*
X110857Y33371D01*
X110889Y33487D01*
X110920Y33581D01*
X110962Y33655D01*
X110993Y33718D01*
X111014Y33760D01*
X111025Y33770D01*
X111119Y33875D01*
X111235Y33990D01*
X111371Y34095D01*
X111518Y34190D01*
X111644Y34263D01*
X111749Y34337D01*
X111791Y34358D01*
X111822Y34378D01*
X111843Y34389D01*
X110952D01*
Y35281D01*
X116795D01*
Y34295D01*
D02*
G37*
G36*
X424458Y206027D02*
X424812Y205988D01*
X425126Y205922D01*
X425401Y205870D01*
X425519Y205830D01*
X425624Y205804D01*
X425716Y205765D01*
X425794Y205739D01*
X425860Y205726D01*
X425899Y205699D01*
X425926Y205686D01*
X425939D01*
X426227Y205542D01*
X426489Y205385D01*
X426699Y205215D01*
X426882Y205057D01*
X427013Y204913D01*
X427118Y204782D01*
X427171Y204703D01*
X427197Y204690D01*
Y204677D01*
X427341Y204428D01*
X427446Y204179D01*
X427525Y203943D01*
X427577Y203720D01*
X427603Y203524D01*
X427616Y203380D01*
X427629Y203327D01*
Y203288D01*
Y203262D01*
Y203249D01*
X427616Y202999D01*
X427577Y202764D01*
X427525Y202541D01*
X427459Y202357D01*
X427393Y202200D01*
X427341Y202095D01*
X427302Y202017D01*
X427289Y202003D01*
Y201990D01*
X427145Y201794D01*
X426974Y201610D01*
X426791Y201453D01*
X426620Y201322D01*
X426463Y201204D01*
X426332Y201125D01*
X426279Y201099D01*
X426240Y201073D01*
X426227Y201060D01*
X426214D01*
X426096Y201007D01*
X425965Y200942D01*
X425677Y200837D01*
X425349Y200719D01*
X425034Y200627D01*
X424733Y200536D01*
X424615Y200509D01*
X424497Y200470D01*
X424405Y200457D01*
X424340Y200431D01*
X424287Y200417D01*
X424274D01*
X424025Y200352D01*
X423802Y200300D01*
X423593Y200247D01*
X423409Y200208D01*
X423239Y200155D01*
X423095Y200116D01*
X422963Y200090D01*
X422859Y200051D01*
X422754Y200024D01*
X422675Y199998D01*
X422610Y199985D01*
X422557Y199959D01*
X422505Y199946D01*
X422479Y199933D01*
X422256Y199841D01*
X422072Y199736D01*
X421915Y199644D01*
X421784Y199552D01*
X421692Y199474D01*
X421627Y199408D01*
X421587Y199356D01*
X421574Y199343D01*
X421483Y199212D01*
X421404Y199068D01*
X421352Y198923D01*
X421325Y198792D01*
X421299Y198687D01*
X421286Y198596D01*
Y198543D01*
Y198517D01*
X421299Y198347D01*
X421325Y198189D01*
X421378Y198045D01*
X421430Y197914D01*
X421483Y197809D01*
X421535Y197718D01*
X421561Y197665D01*
X421574Y197652D01*
X421692Y197508D01*
X421836Y197390D01*
X421981Y197285D01*
X422125Y197193D01*
X422256Y197128D01*
X422361Y197075D01*
X422426Y197049D01*
X422439Y197036D01*
X422452D01*
X422675Y196957D01*
X422898Y196905D01*
X423134Y196866D01*
X423330Y196840D01*
X423514Y196826D01*
X423658Y196813D01*
X423789D01*
X424104Y196826D01*
X424392Y196853D01*
X424654Y196905D01*
X424877Y196957D01*
X425074Y197010D01*
X425152Y197036D01*
X425218Y197062D01*
X425270Y197075D01*
X425310Y197089D01*
X425323Y197102D01*
X425336D01*
X425572Y197220D01*
X425781Y197351D01*
X425952Y197482D01*
X426096Y197613D01*
X426201Y197718D01*
X426279Y197809D01*
X426332Y197862D01*
X426345Y197888D01*
X426450Y198085D01*
X426542Y198294D01*
X426620Y198504D01*
X426673Y198701D01*
X426712Y198884D01*
X426738Y199015D01*
Y199068D01*
X426751Y199107D01*
Y199133D01*
Y199146D01*
X428009Y199041D01*
X427983Y198674D01*
X427918Y198321D01*
X427826Y198019D01*
X427721Y197744D01*
X427669Y197626D01*
X427629Y197521D01*
X427577Y197442D01*
X427538Y197364D01*
X427511Y197298D01*
X427485Y197259D01*
X427459Y197233D01*
Y197220D01*
X427249Y196944D01*
X427013Y196695D01*
X426777Y196486D01*
X426542Y196315D01*
X426332Y196184D01*
X426240Y196132D01*
X426175Y196092D01*
X426109Y196053D01*
X426057Y196027D01*
X426030Y196014D01*
X426017D01*
X425650Y195883D01*
X425270Y195791D01*
X424877Y195712D01*
X424523Y195673D01*
X424353Y195660D01*
X424209Y195647D01*
X424064Y195634D01*
X423946D01*
X423855Y195621D01*
X423724D01*
X423330Y195634D01*
X422963Y195686D01*
X422636Y195752D01*
X422361Y195817D01*
X422230Y195856D01*
X422125Y195896D01*
X422033Y195922D01*
X421941Y195948D01*
X421889Y195975D01*
X421836Y196001D01*
X421810Y196014D01*
X421797D01*
X421496Y196171D01*
X421220Y196355D01*
X420998Y196538D01*
X420814Y196708D01*
X420670Y196866D01*
X420552Y196997D01*
X420526Y197049D01*
X420499Y197089D01*
X420473Y197102D01*
Y197115D01*
X420316Y197377D01*
X420198Y197652D01*
X420120Y197901D01*
X420054Y198137D01*
X420028Y198334D01*
X420015Y198412D01*
Y198491D01*
X420001Y198543D01*
Y198583D01*
Y198609D01*
Y198622D01*
X420015Y198923D01*
X420067Y199186D01*
X420133Y199435D01*
X420211Y199644D01*
X420303Y199815D01*
X420368Y199946D01*
X420395Y199985D01*
X420421Y200024D01*
X420434Y200037D01*
Y200051D01*
X420604Y200273D01*
X420814Y200483D01*
X421024Y200653D01*
X421233Y200811D01*
X421430Y200929D01*
X421587Y201007D01*
X421653Y201047D01*
X421692Y201073D01*
X421718Y201086D01*
X421731D01*
X421850Y201138D01*
X421994Y201191D01*
X422164Y201243D01*
X422334Y201309D01*
X422701Y201414D01*
X423068Y201505D01*
X423252Y201558D01*
X423409Y201597D01*
X423566Y201636D01*
X423698Y201663D01*
X423802Y201689D01*
X423894Y201715D01*
X423946Y201728D01*
X423960D01*
X424248Y201794D01*
X424510Y201859D01*
X424746Y201925D01*
X424956Y201990D01*
X425139Y202056D01*
X425297Y202108D01*
X425441Y202174D01*
X425572Y202226D01*
X425663Y202265D01*
X425755Y202305D01*
X425821Y202344D01*
X425873Y202383D01*
X425913Y202397D01*
X425939Y202423D01*
X425965Y202436D01*
X426096Y202580D01*
X426188Y202724D01*
X426253Y202868D01*
X426293Y203013D01*
X426319Y203144D01*
X426345Y203235D01*
Y203301D01*
Y203327D01*
X426319Y203550D01*
X426253Y203760D01*
X426175Y203943D01*
X426070Y204100D01*
X425965Y204231D01*
X425886Y204323D01*
X425821Y204376D01*
X425794Y204402D01*
X425690Y204480D01*
X425559Y204546D01*
X425283Y204664D01*
X424995Y204743D01*
X424707Y204795D01*
X424445Y204821D01*
X424340Y204834D01*
X424235Y204848D01*
X423829D01*
X423632Y204821D01*
X423448Y204808D01*
X423278Y204769D01*
X423121Y204729D01*
X422977Y204690D01*
X422846Y204651D01*
X422728Y204612D01*
X422636Y204559D01*
X422544Y204520D01*
X422466Y204480D01*
X422400Y204441D01*
X422361Y204402D01*
X422321Y204389D01*
X422295Y204363D01*
X422085Y204166D01*
X421928Y203930D01*
X421810Y203694D01*
X421718Y203471D01*
X421653Y203262D01*
X421627Y203170D01*
X421614Y203091D01*
X421600Y203026D01*
X421587Y202973D01*
Y202947D01*
Y202934D01*
X420303Y203026D01*
X420329Y203340D01*
X420395Y203642D01*
X420473Y203904D01*
X420565Y204140D01*
X420657Y204336D01*
X420696Y204415D01*
X420722Y204480D01*
X420762Y204533D01*
X420775Y204572D01*
X420801Y204585D01*
Y204599D01*
X420984Y204848D01*
X421207Y205070D01*
X421417Y205254D01*
X421640Y205398D01*
X421823Y205516D01*
X421981Y205608D01*
X422046Y205634D01*
X422085Y205660D01*
X422112Y205673D01*
X422125D01*
X422452Y205791D01*
X422793Y205883D01*
X423121Y205948D01*
X423422Y206001D01*
X423566Y206014D01*
X423698Y206027D01*
X423802D01*
X423907Y206040D01*
X424091D01*
X424458Y206027D01*
D02*
G37*
G36*
X94914Y27544D02*
Y26155D01*
X84835Y22223D01*
Y23573D01*
X92162Y26299D01*
X92463Y26417D01*
X92765Y26522D01*
X93053Y26614D01*
X93302Y26692D01*
X93512Y26758D01*
X93590Y26784D01*
X93669Y26810D01*
X93735Y26823D01*
X93774Y26836D01*
X93800Y26850D01*
X93813D01*
X93525Y26928D01*
X93223Y27020D01*
X92948Y27112D01*
X92699Y27190D01*
X92477Y27269D01*
X92385Y27295D01*
X92306Y27321D01*
X92254Y27348D01*
X92201Y27361D01*
X92175Y27374D01*
X92162D01*
X84835Y29995D01*
Y31450D01*
X94914Y27544D01*
D02*
G37*
G36*
X116795Y42414D02*
X114350Y41533D01*
Y38155D01*
X116795Y37221D01*
Y36015D01*
X108728Y39298D01*
Y40463D01*
X116795Y43536D01*
Y42414D01*
D02*
G37*
G36*
X219289Y38572D02*
X216235Y37471D01*
Y33251D01*
X219289Y32084D01*
Y30577D01*
X209210Y34679D01*
Y36134D01*
X219289Y39974D01*
Y38572D01*
D02*
G37*
G36*
Y23500D02*
X218096D01*
Y28454D01*
X217861Y28283D01*
X217743Y28192D01*
X217651Y28113D01*
X217559Y28034D01*
X217493Y27982D01*
X217454Y27943D01*
X217441Y27929D01*
X217376Y27864D01*
X217284Y27772D01*
X217192Y27680D01*
X217100Y27576D01*
X216891Y27340D01*
X216681Y27091D01*
X216484Y26868D01*
X216393Y26763D01*
X216314Y26684D01*
X216262Y26606D01*
X216209Y26553D01*
X216183Y26514D01*
X216170Y26501D01*
X215960Y26265D01*
X215763Y26029D01*
X215593Y25833D01*
X215423Y25636D01*
X215265Y25466D01*
X215108Y25308D01*
X214977Y25164D01*
X214859Y25046D01*
X214754Y24928D01*
X214662Y24836D01*
X214584Y24758D01*
X214518Y24692D01*
X214466Y24653D01*
X214427Y24614D01*
X214414Y24587D01*
X214400D01*
X214165Y24391D01*
X213929Y24220D01*
X213719Y24076D01*
X213535Y23958D01*
X213391Y23867D01*
X213273Y23814D01*
X213195Y23775D01*
X213168Y23762D01*
X212946Y23683D01*
X212736Y23617D01*
X212526Y23578D01*
X212356Y23539D01*
X212199Y23526D01*
X212081Y23513D01*
X211976D01*
X211753Y23526D01*
X211543Y23552D01*
X211347Y23591D01*
X211163Y23644D01*
X210822Y23788D01*
X210665Y23853D01*
X210534Y23932D01*
X210403Y24024D01*
X210298Y24089D01*
X210206Y24168D01*
X210128Y24234D01*
X210062Y24286D01*
X210023Y24325D01*
X209997Y24351D01*
X209984Y24365D01*
X209839Y24535D01*
X209721Y24705D01*
X209603Y24889D01*
X209512Y25085D01*
X209433Y25282D01*
X209368Y25466D01*
X209276Y25833D01*
X209237Y26003D01*
X209210Y26160D01*
X209197Y26304D01*
X209184Y26435D01*
X209171Y26527D01*
Y26606D01*
Y26658D01*
Y26671D01*
X209184Y26933D01*
X209197Y27182D01*
X209237Y27418D01*
X209289Y27628D01*
X209341Y27838D01*
X209407Y28021D01*
X209472Y28192D01*
X209538Y28349D01*
X209617Y28493D01*
X209682Y28611D01*
X209748Y28716D01*
X209800Y28808D01*
X209853Y28873D01*
X209892Y28926D01*
X209905Y28952D01*
X209918Y28965D01*
X210062Y29122D01*
X210219Y29253D01*
X210390Y29371D01*
X210573Y29476D01*
X210744Y29568D01*
X210927Y29646D01*
X211281Y29764D01*
X211438Y29817D01*
X211596Y29856D01*
X211727Y29882D01*
X211845Y29909D01*
X211950Y29922D01*
X212015D01*
X212067Y29935D01*
X212081D01*
X212212Y28663D01*
X211871Y28637D01*
X211583Y28585D01*
X211334Y28493D01*
X211111Y28388D01*
X210953Y28296D01*
X210822Y28205D01*
X210757Y28152D01*
X210731Y28126D01*
X210547Y27916D01*
X210416Y27680D01*
X210324Y27431D01*
X210259Y27209D01*
X210219Y27012D01*
X210206Y26920D01*
Y26842D01*
X210193Y26789D01*
Y26737D01*
Y26711D01*
Y26697D01*
X210219Y26396D01*
X210272Y26121D01*
X210350Y25885D01*
X210442Y25688D01*
X210547Y25531D01*
X210626Y25413D01*
X210678Y25347D01*
X210704Y25321D01*
X210901Y25138D01*
X211111Y25007D01*
X211307Y24915D01*
X211504Y24850D01*
X211674Y24810D01*
X211818Y24797D01*
X211871Y24784D01*
X212067D01*
X212199Y24810D01*
X212474Y24876D01*
X212723Y24967D01*
X212946Y25072D01*
X213142Y25190D01*
X213221Y25243D01*
X213299Y25282D01*
X213352Y25321D01*
X213391Y25347D01*
X213417Y25361D01*
X213431Y25374D01*
X213588Y25492D01*
X213745Y25636D01*
X213915Y25793D01*
X214099Y25963D01*
X214453Y26330D01*
X214794Y26697D01*
X214951Y26868D01*
X215095Y27038D01*
X215226Y27195D01*
X215344Y27327D01*
X215436Y27431D01*
X215501Y27523D01*
X215554Y27576D01*
X215567Y27589D01*
X215881Y27969D01*
X216170Y28296D01*
X216432Y28572D01*
X216655Y28795D01*
X216838Y28978D01*
X216982Y29109D01*
X217035Y29148D01*
X217074Y29188D01*
X217087Y29201D01*
X217100Y29214D01*
X217349Y29411D01*
X217585Y29581D01*
X217808Y29712D01*
X218018Y29830D01*
X218188Y29922D01*
X218319Y29974D01*
X218372Y30000D01*
X218411Y30013D01*
X218424Y30027D01*
X218437D01*
X218594Y30079D01*
X218739Y30118D01*
X218883Y30145D01*
X219014Y30158D01*
X219132Y30171D01*
X219289D01*
Y23500D01*
D02*
G37*
G36*
X187414Y26633D02*
X187310Y26411D01*
X187205Y26188D01*
X187100Y25991D01*
X187008Y25821D01*
X186930Y25677D01*
X186903Y25624D01*
X186877Y25585D01*
X186864Y25572D01*
Y25559D01*
X186707Y25296D01*
X186549Y25074D01*
X186405Y24864D01*
X186274Y24694D01*
X186169Y24562D01*
X186078Y24458D01*
X186025Y24405D01*
X186012Y24379D01*
X193889D01*
Y23147D01*
X183771D01*
Y23946D01*
X184020Y24091D01*
X184256Y24261D01*
X184492Y24444D01*
X184688Y24615D01*
X184872Y24785D01*
X185003Y24916D01*
X185055Y24969D01*
X185095Y25008D01*
X185108Y25034D01*
X185121Y25047D01*
X185370Y25349D01*
X185593Y25650D01*
X185802Y25965D01*
X185973Y26240D01*
X186104Y26489D01*
X186169Y26594D01*
X186209Y26686D01*
X186248Y26751D01*
X186274Y26804D01*
X186301Y26843D01*
Y26856D01*
X187506D01*
X187414Y26633D01*
D02*
G37*
G36*
X289014Y201124D02*
X288910Y200901D01*
X288805Y200678D01*
X288700Y200482D01*
X288608Y200311D01*
X288530Y200167D01*
X288503Y200115D01*
X288477Y200075D01*
X288464Y200062D01*
Y200049D01*
X288307Y199787D01*
X288150Y199564D01*
X288005Y199355D01*
X287874Y199184D01*
X287769Y199053D01*
X287678Y198948D01*
X287625Y198896D01*
X287612Y198870D01*
X295489D01*
Y197638D01*
X285371D01*
Y198437D01*
X285620Y198581D01*
X285856Y198752D01*
X286092Y198935D01*
X286288Y199106D01*
X286472Y199276D01*
X286603Y199407D01*
X286655Y199459D01*
X286695Y199499D01*
X286708Y199525D01*
X286721Y199538D01*
X286970Y199840D01*
X287193Y200141D01*
X287402Y200456D01*
X287573Y200731D01*
X287704Y200980D01*
X287769Y201085D01*
X287809Y201176D01*
X287848Y201242D01*
X287874Y201294D01*
X287901Y201334D01*
Y201347D01*
X289106D01*
X289014Y201124D01*
D02*
G37*
G36*
X316518Y195410D02*
X317003Y195383D01*
X317435Y195331D01*
X317842Y195265D01*
X318222Y195200D01*
X318550Y195108D01*
X318851Y195016D01*
X319126Y194925D01*
X319362Y194833D01*
X319559Y194754D01*
X319729Y194663D01*
X319873Y194597D01*
X319978Y194531D01*
X320044Y194479D01*
X320096Y194453D01*
X320109Y194440D01*
X320293Y194269D01*
X320450Y194099D01*
X320594Y193916D01*
X320712Y193732D01*
X320804Y193535D01*
X320896Y193339D01*
X320961Y193155D01*
X321014Y192972D01*
X321053Y192801D01*
X321092Y192644D01*
X321118Y192513D01*
X321132Y192382D01*
Y192290D01*
X321145Y192212D01*
Y192159D01*
Y192146D01*
X321132Y191950D01*
X321118Y191753D01*
X321053Y191399D01*
X320961Y191084D01*
X320843Y190822D01*
X320791Y190704D01*
X320738Y190613D01*
X320686Y190521D01*
X320647Y190455D01*
X320607Y190403D01*
X320581Y190350D01*
X320555Y190337D01*
Y190324D01*
X320319Y190062D01*
X320044Y189839D01*
X319769Y189656D01*
X319493Y189499D01*
X319257Y189381D01*
X319153Y189328D01*
X319061Y189289D01*
X318982Y189263D01*
X318930Y189237D01*
X318890Y189223D01*
X318877D01*
X318668Y189158D01*
X318445Y189105D01*
X317973Y189014D01*
X317488Y188948D01*
X317029Y188896D01*
X316819Y188883D01*
X316623Y188869D01*
X316453D01*
X316308Y188856D01*
X315732D01*
X315470Y188869D01*
X315234Y188883D01*
X315011Y188896D01*
X314788Y188909D01*
X314605Y188935D01*
X314421Y188948D01*
X314264Y188974D01*
X314120Y189001D01*
X313989Y189014D01*
X313884Y189040D01*
X313792Y189053D01*
X313726Y189066D01*
X313674Y189079D01*
X313648Y189092D01*
X313635D01*
X313320Y189184D01*
X313019Y189276D01*
X312770Y189381D01*
X312547Y189485D01*
X312363Y189577D01*
X312232Y189643D01*
X312193Y189669D01*
X312154Y189695D01*
X312141Y189708D01*
X312127D01*
X311905Y189866D01*
X311721Y190036D01*
X311564Y190206D01*
X311420Y190364D01*
X311315Y190508D01*
X311249Y190613D01*
X311197Y190691D01*
X311184Y190704D01*
Y190718D01*
X311079Y190953D01*
X311000Y191203D01*
X310935Y191438D01*
X310895Y191661D01*
X310869Y191858D01*
Y191936D01*
X310856Y192015D01*
Y192068D01*
Y192107D01*
Y192133D01*
Y192146D01*
Y192343D01*
X310882Y192539D01*
X310948Y192893D01*
X311040Y193208D01*
X311145Y193470D01*
X311210Y193588D01*
X311262Y193680D01*
X311315Y193771D01*
X311354Y193837D01*
X311394Y193889D01*
X311420Y193929D01*
X311433Y193955D01*
X311446Y193968D01*
X311682Y194217D01*
X311957Y194440D01*
X312245Y194623D01*
X312507Y194781D01*
X312757Y194898D01*
X312861Y194951D01*
X312953Y194990D01*
X313032Y195016D01*
X313084Y195043D01*
X313123Y195056D01*
X313137D01*
X313346Y195121D01*
X313569Y195174D01*
X314041Y195265D01*
X314526Y195331D01*
X314985Y195370D01*
X315194Y195396D01*
X315391D01*
X315561Y195410D01*
X315706Y195423D01*
X316007D01*
X316518Y195410D01*
D02*
G37*
G36*
X270069Y38605D02*
X267016Y37504D01*
Y33283D01*
X270069Y32117D01*
Y30610D01*
X259991Y34712D01*
Y36167D01*
X270069Y40007D01*
Y38605D01*
D02*
G37*
G36*
X314500Y202081D02*
X314395Y201858D01*
X314290Y201635D01*
X314185Y201439D01*
X314093Y201268D01*
X314015Y201124D01*
X313989Y201072D01*
X313962Y201032D01*
X313949Y201019D01*
Y201006D01*
X313792Y200744D01*
X313635Y200521D01*
X313491Y200311D01*
X313359Y200141D01*
X313255Y200010D01*
X313163Y199905D01*
X313110Y199853D01*
X313097Y199827D01*
X320974D01*
Y198594D01*
X310856D01*
Y199394D01*
X311105Y199538D01*
X311341Y199708D01*
X311577Y199892D01*
X311774Y200062D01*
X311957Y200233D01*
X312088Y200364D01*
X312141Y200416D01*
X312180Y200456D01*
X312193Y200482D01*
X312206Y200495D01*
X312455Y200796D01*
X312678Y201098D01*
X312888Y201412D01*
X313058Y201688D01*
X313189Y201937D01*
X313255Y202041D01*
X313294Y202133D01*
X313333Y202199D01*
X313359Y202251D01*
X313386Y202290D01*
Y202304D01*
X314591D01*
X314500Y202081D01*
D02*
G37*
G36*
X246044Y38624D02*
X242990Y37523D01*
Y33303D01*
X246044Y32137D01*
Y30629D01*
X235965Y34732D01*
Y36186D01*
X246044Y40027D01*
Y38624D01*
D02*
G37*
G36*
X243606Y30013D02*
X243829Y29961D01*
X244026Y29909D01*
X244223Y29830D01*
X244406Y29751D01*
X244576Y29673D01*
X244734Y29581D01*
X244878Y29502D01*
X244996Y29411D01*
X245114Y29332D01*
X245205Y29253D01*
X245284Y29188D01*
X245350Y29122D01*
X245389Y29083D01*
X245415Y29057D01*
X245428Y29044D01*
X245572Y28873D01*
X245690Y28703D01*
X245795Y28519D01*
X245887Y28323D01*
X245952Y28139D01*
X246018Y27956D01*
X246110Y27615D01*
X246149Y27458D01*
X246175Y27300D01*
X246188Y27169D01*
X246201Y27064D01*
X246215Y26973D01*
Y26894D01*
Y26855D01*
Y26842D01*
X246201Y26566D01*
X246175Y26317D01*
X246136Y26068D01*
X246070Y25846D01*
X246005Y25623D01*
X245926Y25426D01*
X245848Y25243D01*
X245756Y25072D01*
X245677Y24928D01*
X245599Y24797D01*
X245520Y24679D01*
X245455Y24587D01*
X245389Y24509D01*
X245350Y24456D01*
X245323Y24430D01*
X245310Y24417D01*
X245140Y24247D01*
X244956Y24102D01*
X244760Y23971D01*
X244576Y23853D01*
X244380Y23762D01*
X244196Y23683D01*
X244013Y23617D01*
X243842Y23565D01*
X243685Y23526D01*
X243541Y23500D01*
X243410Y23473D01*
X243292Y23460D01*
X243200Y23447D01*
X243069D01*
X242715Y23473D01*
X242414Y23526D01*
X242139Y23604D01*
X241903Y23696D01*
X241706Y23788D01*
X241640Y23827D01*
X241575Y23867D01*
X241523Y23893D01*
X241483Y23919D01*
X241470Y23945D01*
X241457D01*
X241234Y24142D01*
X241051Y24378D01*
X240893Y24601D01*
X240776Y24823D01*
X240697Y25020D01*
X240658Y25112D01*
X240631Y25190D01*
X240618Y25243D01*
X240605Y25295D01*
X240592Y25321D01*
Y25334D01*
X240461Y25099D01*
X240330Y24889D01*
X240186Y24705D01*
X240042Y24561D01*
X239924Y24443D01*
X239832Y24365D01*
X239766Y24312D01*
X239740Y24299D01*
X239530Y24181D01*
X239321Y24089D01*
X239124Y24037D01*
X238941Y23984D01*
X238783Y23958D01*
X238652Y23945D01*
X238547D01*
X238298Y23958D01*
X238062Y23998D01*
X237840Y24063D01*
X237643Y24129D01*
X237486Y24207D01*
X237355Y24260D01*
X237276Y24312D01*
X237263Y24325D01*
X237250D01*
X237027Y24469D01*
X236844Y24640D01*
X236673Y24823D01*
X236529Y24994D01*
X236424Y25151D01*
X236346Y25269D01*
X236319Y25321D01*
X236293Y25361D01*
X236280Y25374D01*
Y25387D01*
X236162Y25649D01*
X236070Y25911D01*
X236018Y26160D01*
X235965Y26396D01*
X235939Y26593D01*
Y26684D01*
X235926Y26750D01*
Y26815D01*
Y26855D01*
Y26881D01*
Y26894D01*
X235939Y27117D01*
X235952Y27327D01*
X236031Y27720D01*
X236149Y28061D01*
X236215Y28205D01*
X236267Y28349D01*
X236332Y28467D01*
X236398Y28585D01*
X236464Y28677D01*
X236516Y28755D01*
X236555Y28821D01*
X236595Y28860D01*
X236608Y28886D01*
X236621Y28899D01*
X236752Y29044D01*
X236896Y29175D01*
X237211Y29397D01*
X237525Y29568D01*
X237826Y29712D01*
X237971Y29764D01*
X238102Y29804D01*
X238233Y29843D01*
X238325Y29869D01*
X238416Y29895D01*
X238482Y29909D01*
X238521Y29922D01*
X238534D01*
X238757Y28690D01*
X238443Y28624D01*
X238167Y28545D01*
X237931Y28441D01*
X237748Y28336D01*
X237591Y28244D01*
X237486Y28165D01*
X237433Y28113D01*
X237407Y28087D01*
X237250Y27890D01*
X237145Y27694D01*
X237066Y27484D01*
X237001Y27300D01*
X236975Y27130D01*
X236961Y26986D01*
X236948Y26933D01*
Y26894D01*
Y26881D01*
Y26868D01*
X236961Y26606D01*
X237014Y26383D01*
X237093Y26173D01*
X237171Y26003D01*
X237263Y25872D01*
X237328Y25767D01*
X237381Y25714D01*
X237407Y25688D01*
X237577Y25531D01*
X237774Y25413D01*
X237958Y25334D01*
X238128Y25269D01*
X238285Y25243D01*
X238403Y25230D01*
X238495Y25217D01*
X238521D01*
X238678Y25230D01*
X238823Y25243D01*
X239085Y25321D01*
X239308Y25413D01*
X239491Y25531D01*
X239622Y25649D01*
X239727Y25754D01*
X239779Y25833D01*
X239806Y25846D01*
Y25859D01*
X239937Y26095D01*
X240042Y26344D01*
X240107Y26579D01*
X240159Y26802D01*
X240186Y26986D01*
X240199Y27143D01*
X240212Y27195D01*
Y27235D01*
Y27261D01*
Y27274D01*
Y27340D01*
X240199Y27405D01*
X240186Y27445D01*
Y27471D01*
X241273Y27615D01*
X241234Y27431D01*
X241195Y27261D01*
X241169Y27104D01*
X241156Y26973D01*
X241143Y26881D01*
Y26802D01*
Y26750D01*
Y26737D01*
X241169Y26422D01*
X241234Y26147D01*
X241313Y25911D01*
X241418Y25701D01*
X241523Y25544D01*
X241601Y25426D01*
X241667Y25347D01*
X241693Y25321D01*
X241798Y25217D01*
X241916Y25138D01*
X242139Y24994D01*
X242374Y24889D01*
X242597Y24823D01*
X242794Y24784D01*
X242886Y24771D01*
X242951D01*
X243017Y24758D01*
X243253D01*
X243410Y24784D01*
X243698Y24850D01*
X243960Y24954D01*
X244170Y25059D01*
X244354Y25164D01*
X244485Y25269D01*
X244524Y25308D01*
X244563Y25334D01*
X244576Y25347D01*
X244590Y25361D01*
X244694Y25479D01*
X244786Y25596D01*
X244943Y25846D01*
X245048Y26095D01*
X245114Y26330D01*
X245166Y26527D01*
X245179Y26619D01*
Y26697D01*
X245192Y26750D01*
Y26802D01*
Y26828D01*
Y26842D01*
X245166Y27104D01*
X245114Y27353D01*
X245048Y27562D01*
X244956Y27746D01*
X244878Y27903D01*
X244799Y28008D01*
X244747Y28074D01*
X244734Y28100D01*
X244642Y28192D01*
X244537Y28270D01*
X244288Y28414D01*
X244039Y28545D01*
X243790Y28637D01*
X243554Y28716D01*
X243462Y28742D01*
X243371Y28768D01*
X243305Y28781D01*
X243253Y28795D01*
X243213Y28808D01*
X243200D01*
X243371Y30040D01*
X243606Y30013D01*
D02*
G37*
G36*
X114193Y31840D02*
X114434Y31819D01*
X114655Y31777D01*
X114875Y31735D01*
X115064Y31683D01*
X115253Y31620D01*
X115410Y31546D01*
X115567Y31473D01*
X115693Y31410D01*
X115808Y31336D01*
X115903Y31273D01*
X115987Y31221D01*
X116050Y31179D01*
X116092Y31137D01*
X116123Y31116D01*
X116134Y31105D01*
X116270Y30959D01*
X116396Y30801D01*
X116501Y30633D01*
X116585Y30466D01*
X116669Y30298D01*
X116732Y30130D01*
X116784Y29962D01*
X116826Y29805D01*
X116858Y29658D01*
X116878Y29511D01*
X116899Y29385D01*
X116910Y29280D01*
Y29196D01*
X116920Y29123D01*
Y29081D01*
Y29070D01*
X116910Y28882D01*
X116899Y28703D01*
X116847Y28378D01*
X116805Y28231D01*
X116763Y28095D01*
X116721Y27969D01*
X116669Y27854D01*
X116627Y27749D01*
X116585Y27665D01*
X116543Y27581D01*
X116501Y27518D01*
X116469Y27465D01*
X116448Y27434D01*
X116427Y27413D01*
Y27403D01*
X116228Y27182D01*
X115997Y26993D01*
X115767Y26836D01*
X115546Y26710D01*
X115347Y26626D01*
X115253Y26584D01*
X115179Y26563D01*
X115116Y26532D01*
X115074Y26521D01*
X115043Y26511D01*
X115032D01*
X114896Y27539D01*
X115116Y27623D01*
X115305Y27728D01*
X115473Y27833D01*
X115599Y27927D01*
X115693Y28011D01*
X115767Y28084D01*
X115808Y28126D01*
X115819Y28147D01*
X115913Y28294D01*
X115987Y28451D01*
X116029Y28609D01*
X116071Y28745D01*
X116092Y28882D01*
X116102Y28976D01*
Y29018D01*
Y29049D01*
Y29060D01*
Y29070D01*
X116092Y29207D01*
X116081Y29333D01*
X116018Y29574D01*
X115945Y29784D01*
X115850Y29962D01*
X115756Y30099D01*
X115672Y30214D01*
X115641Y30245D01*
X115620Y30277D01*
X115609Y30287D01*
X115599Y30298D01*
X115494Y30382D01*
X115389Y30455D01*
X115158Y30581D01*
X114917Y30675D01*
X114676Y30749D01*
X114466Y30791D01*
X114371Y30801D01*
X114288Y30812D01*
X114225Y30822D01*
X114172Y30833D01*
X114130D01*
Y26479D01*
X114015Y26469D01*
X113868D01*
X113606Y26479D01*
X113354Y26500D01*
X113123Y26542D01*
X112903Y26584D01*
X112703Y26637D01*
X112525Y26700D01*
X112357Y26773D01*
X112200Y26836D01*
X112064Y26909D01*
X111948Y26983D01*
X111854Y27046D01*
X111770Y27098D01*
X111707Y27140D01*
X111665Y27182D01*
X111633Y27203D01*
X111623Y27214D01*
X111487Y27360D01*
X111361Y27507D01*
X111256Y27665D01*
X111161Y27833D01*
X111088Y27990D01*
X111025Y28147D01*
X110962Y28305D01*
X110920Y28451D01*
X110889Y28588D01*
X110868Y28724D01*
X110847Y28840D01*
X110836Y28934D01*
X110826Y29018D01*
Y29081D01*
Y29123D01*
Y29133D01*
X110836Y29354D01*
X110857Y29564D01*
X110899Y29763D01*
X110952Y29952D01*
X111014Y30119D01*
X111088Y30287D01*
X111161Y30434D01*
X111235Y30570D01*
X111308Y30686D01*
X111382Y30791D01*
X111455Y30885D01*
X111518Y30959D01*
X111571Y31022D01*
X111613Y31064D01*
X111633Y31084D01*
X111644Y31095D01*
X111801Y31231D01*
X111969Y31347D01*
X112158Y31441D01*
X112347Y31536D01*
X112536Y31609D01*
X112724Y31662D01*
X112913Y31714D01*
X113092Y31756D01*
X113259Y31787D01*
X113417Y31808D01*
X113564Y31829D01*
X113689Y31840D01*
X113784D01*
X113868Y31850D01*
X113931D01*
X114193Y31840D01*
D02*
G37*
G36*
X454448Y207636D02*
X454802Y207597D01*
X455117Y207531D01*
X455392Y207479D01*
X455510Y207439D01*
X455615Y207413D01*
X455706Y207374D01*
X455785Y207348D01*
X455850Y207335D01*
X455890Y207308D01*
X455916Y207295D01*
X455929D01*
X456217Y207151D01*
X456480Y206994D01*
X456689Y206824D01*
X456873Y206666D01*
X457004Y206522D01*
X457109Y206391D01*
X457161Y206312D01*
X457187Y206299D01*
Y206286D01*
X457332Y206037D01*
X457436Y205788D01*
X457515Y205552D01*
X457567Y205329D01*
X457594Y205133D01*
X457607Y204989D01*
X457620Y204936D01*
Y204897D01*
Y204871D01*
Y204858D01*
X457607Y204608D01*
X457567Y204373D01*
X457515Y204150D01*
X457449Y203966D01*
X457384Y203809D01*
X457332Y203704D01*
X457292Y203626D01*
X457279Y203612D01*
Y203599D01*
X457135Y203403D01*
X456965Y203219D01*
X456781Y203062D01*
X456611Y202931D01*
X456453Y202813D01*
X456322Y202734D01*
X456270Y202708D01*
X456231Y202682D01*
X456217Y202669D01*
X456204D01*
X456087Y202616D01*
X455955Y202551D01*
X455667Y202446D01*
X455339Y202328D01*
X455025Y202236D01*
X454723Y202145D01*
X454605Y202118D01*
X454487Y202079D01*
X454396Y202066D01*
X454330Y202040D01*
X454278Y202027D01*
X454265D01*
X454016Y201961D01*
X453793Y201909D01*
X453583Y201856D01*
X453400Y201817D01*
X453229Y201764D01*
X453085Y201725D01*
X452954Y201699D01*
X452849Y201660D01*
X452744Y201633D01*
X452666Y201607D01*
X452600Y201594D01*
X452548Y201568D01*
X452495Y201555D01*
X452469Y201542D01*
X452246Y201450D01*
X452063Y201345D01*
X451906Y201253D01*
X451774Y201161D01*
X451683Y201083D01*
X451617Y201017D01*
X451578Y200965D01*
X451565Y200952D01*
X451473Y200821D01*
X451394Y200677D01*
X451342Y200532D01*
X451316Y200401D01*
X451289Y200296D01*
X451276Y200205D01*
Y200152D01*
Y200126D01*
X451289Y199956D01*
X451316Y199799D01*
X451368Y199654D01*
X451421Y199523D01*
X451473Y199418D01*
X451525Y199327D01*
X451552Y199274D01*
X451565Y199261D01*
X451683Y199117D01*
X451827Y198999D01*
X451971Y198894D01*
X452115Y198802D01*
X452246Y198737D01*
X452351Y198684D01*
X452417Y198658D01*
X452430Y198645D01*
X452443D01*
X452666Y198566D01*
X452888Y198514D01*
X453124Y198475D01*
X453321Y198449D01*
X453504Y198435D01*
X453649Y198422D01*
X453780D01*
X454094Y198435D01*
X454383Y198462D01*
X454645Y198514D01*
X454868Y198566D01*
X455064Y198619D01*
X455143Y198645D01*
X455208Y198671D01*
X455261Y198684D01*
X455300Y198697D01*
X455313Y198711D01*
X455326D01*
X455562Y198829D01*
X455772Y198960D01*
X455942Y199091D01*
X456087Y199222D01*
X456191Y199327D01*
X456270Y199418D01*
X456322Y199471D01*
X456335Y199497D01*
X456440Y199694D01*
X456532Y199903D01*
X456611Y200113D01*
X456663Y200310D01*
X456702Y200493D01*
X456729Y200624D01*
Y200677D01*
X456742Y200716D01*
Y200742D01*
Y200755D01*
X458000Y200650D01*
X457974Y200283D01*
X457908Y199930D01*
X457817Y199628D01*
X457712Y199353D01*
X457659Y199235D01*
X457620Y199130D01*
X457567Y199051D01*
X457528Y198973D01*
X457502Y198907D01*
X457476Y198868D01*
X457449Y198842D01*
Y198829D01*
X457240Y198553D01*
X457004Y198304D01*
X456768Y198095D01*
X456532Y197924D01*
X456322Y197793D01*
X456231Y197741D01*
X456165Y197701D01*
X456100Y197662D01*
X456047Y197636D01*
X456021Y197623D01*
X456008D01*
X455641Y197492D01*
X455261Y197400D01*
X454868Y197321D01*
X454514Y197282D01*
X454343Y197269D01*
X454199Y197256D01*
X454055Y197243D01*
X453937D01*
X453845Y197230D01*
X453714D01*
X453321Y197243D01*
X452954Y197295D01*
X452626Y197361D01*
X452351Y197426D01*
X452220Y197465D01*
X452115Y197505D01*
X452024Y197531D01*
X451932Y197557D01*
X451879Y197584D01*
X451827Y197610D01*
X451801Y197623D01*
X451788D01*
X451486Y197780D01*
X451211Y197964D01*
X450988Y198147D01*
X450805Y198318D01*
X450660Y198475D01*
X450542Y198606D01*
X450516Y198658D01*
X450490Y198697D01*
X450464Y198711D01*
Y198724D01*
X450307Y198986D01*
X450189Y199261D01*
X450110Y199510D01*
X450044Y199746D01*
X450018Y199943D01*
X450005Y200021D01*
Y200100D01*
X449992Y200152D01*
Y200192D01*
Y200218D01*
Y200231D01*
X450005Y200532D01*
X450057Y200795D01*
X450123Y201044D01*
X450202Y201253D01*
X450293Y201424D01*
X450359Y201555D01*
X450385Y201594D01*
X450411Y201633D01*
X450424Y201646D01*
Y201660D01*
X450595Y201882D01*
X450805Y202092D01*
X451014Y202262D01*
X451224Y202420D01*
X451421Y202538D01*
X451578Y202616D01*
X451643Y202656D01*
X451683Y202682D01*
X451709Y202695D01*
X451722D01*
X451840Y202747D01*
X451984Y202800D01*
X452155Y202852D01*
X452325Y202918D01*
X452692Y203023D01*
X453059Y203114D01*
X453242Y203167D01*
X453400Y203206D01*
X453557Y203246D01*
X453688Y203272D01*
X453793Y203298D01*
X453885Y203324D01*
X453937Y203337D01*
X453950D01*
X454239Y203403D01*
X454501Y203468D01*
X454737Y203534D01*
X454946Y203599D01*
X455130Y203665D01*
X455287Y203717D01*
X455431Y203783D01*
X455562Y203835D01*
X455654Y203875D01*
X455746Y203914D01*
X455811Y203953D01*
X455864Y203993D01*
X455903Y204006D01*
X455929Y204032D01*
X455955Y204045D01*
X456087Y204189D01*
X456178Y204333D01*
X456244Y204478D01*
X456283Y204622D01*
X456309Y204753D01*
X456335Y204844D01*
Y204910D01*
Y204936D01*
X456309Y205159D01*
X456244Y205369D01*
X456165Y205552D01*
X456060Y205709D01*
X455955Y205840D01*
X455877Y205932D01*
X455811Y205985D01*
X455785Y206011D01*
X455680Y206090D01*
X455549Y206155D01*
X455274Y206273D01*
X454986Y206352D01*
X454697Y206404D01*
X454435Y206430D01*
X454330Y206443D01*
X454225Y206457D01*
X453819D01*
X453623Y206430D01*
X453439Y206417D01*
X453269Y206378D01*
X453111Y206339D01*
X452967Y206299D01*
X452836Y206260D01*
X452718Y206221D01*
X452626Y206168D01*
X452535Y206129D01*
X452456Y206090D01*
X452391Y206050D01*
X452351Y206011D01*
X452312Y205998D01*
X452286Y205972D01*
X452076Y205775D01*
X451919Y205539D01*
X451801Y205303D01*
X451709Y205080D01*
X451643Y204871D01*
X451617Y204779D01*
X451604Y204700D01*
X451591Y204635D01*
X451578Y204582D01*
Y204556D01*
Y204543D01*
X450293Y204635D01*
X450320Y204949D01*
X450385Y205251D01*
X450464Y205513D01*
X450556Y205749D01*
X450647Y205945D01*
X450687Y206024D01*
X450713Y206090D01*
X450752Y206142D01*
X450765Y206181D01*
X450792Y206194D01*
Y206208D01*
X450975Y206457D01*
X451198Y206679D01*
X451408Y206863D01*
X451630Y207007D01*
X451814Y207125D01*
X451971Y207217D01*
X452037Y207243D01*
X452076Y207269D01*
X452102Y207282D01*
X452115D01*
X452443Y207400D01*
X452784Y207492D01*
X453111Y207558D01*
X453413Y207610D01*
X453557Y207623D01*
X453688Y207636D01*
X453793D01*
X453898Y207649D01*
X454081D01*
X454448Y207636D01*
D02*
G37*
G36*
X439101Y197400D02*
X437698D01*
X436597Y200454D01*
X432377D01*
X431211Y197400D01*
X429703D01*
X433806Y207479D01*
X435260D01*
X439101Y197400D01*
D02*
G37*
G36*
X414300Y206014D02*
X414759Y205948D01*
X415178Y205844D01*
X415362Y205791D01*
X415545Y205739D01*
X415703Y205673D01*
X415847Y205621D01*
X415965Y205568D01*
X416070Y205516D01*
X416148Y205477D01*
X416214Y205450D01*
X416253Y205437D01*
X416266Y205424D01*
X416463Y205306D01*
X416659Y205175D01*
X417000Y204887D01*
X417302Y204599D01*
X417537Y204310D01*
X417642Y204166D01*
X417734Y204048D01*
X417813Y203930D01*
X417865Y203838D01*
X417918Y203760D01*
X417957Y203694D01*
X417970Y203655D01*
X417983Y203642D01*
X418088Y203419D01*
X418180Y203183D01*
X418324Y202724D01*
X418429Y202265D01*
X418468Y202043D01*
X418494Y201833D01*
X418521Y201636D01*
X418547Y201466D01*
X418560Y201309D01*
Y201165D01*
X418573Y201060D01*
Y200968D01*
Y200916D01*
Y200903D01*
X418547Y200378D01*
X418494Y199867D01*
X418455Y199644D01*
X418402Y199421D01*
X418363Y199212D01*
X418311Y199015D01*
X418258Y198832D01*
X418219Y198674D01*
X418167Y198543D01*
X418127Y198425D01*
X418101Y198334D01*
X418075Y198255D01*
X418049Y198216D01*
Y198202D01*
X417944Y197980D01*
X417826Y197757D01*
X417708Y197560D01*
X417577Y197377D01*
X417446Y197193D01*
X417315Y197036D01*
X417197Y196892D01*
X417066Y196774D01*
X416948Y196656D01*
X416843Y196551D01*
X416738Y196472D01*
X416659Y196407D01*
X416581Y196341D01*
X416528Y196302D01*
X416502Y196289D01*
X416489Y196276D01*
X416292Y196158D01*
X416083Y196066D01*
X415860Y195975D01*
X415637Y195896D01*
X415191Y195778D01*
X414772Y195699D01*
X414575Y195673D01*
X414405Y195660D01*
X414235Y195647D01*
X414104Y195634D01*
X413986Y195621D01*
X413828D01*
X413540Y195634D01*
X413265Y195660D01*
X413003Y195699D01*
X412754Y195752D01*
X412518Y195817D01*
X412295Y195896D01*
X412098Y195961D01*
X411902Y196053D01*
X411744Y196132D01*
X411600Y196197D01*
X411469Y196276D01*
X411364Y196341D01*
X411273Y196394D01*
X411220Y196433D01*
X411181Y196459D01*
X411168Y196472D01*
X410971Y196643D01*
X410788Y196826D01*
X410617Y197023D01*
X410473Y197233D01*
X410329Y197442D01*
X410211Y197639D01*
X410093Y197849D01*
X410001Y198045D01*
X409910Y198242D01*
X409844Y198412D01*
X409779Y198570D01*
X409726Y198701D01*
X409700Y198819D01*
X409674Y198910D01*
X409647Y198963D01*
Y198976D01*
X410984Y199317D01*
X411050Y199081D01*
X411115Y198871D01*
X411194Y198674D01*
X411273Y198478D01*
X411364Y198307D01*
X411443Y198150D01*
X411535Y198006D01*
X411627Y197888D01*
X411705Y197770D01*
X411784Y197678D01*
X411862Y197586D01*
X411915Y197521D01*
X411967Y197469D01*
X412007Y197429D01*
X412033Y197416D01*
X412046Y197403D01*
X412190Y197285D01*
X412347Y197193D01*
X412505Y197102D01*
X412675Y197036D01*
X412990Y196918D01*
X413291Y196840D01*
X413422Y196813D01*
X413553Y196800D01*
X413658Y196787D01*
X413763Y196774D01*
X413842Y196761D01*
X413946D01*
X414287Y196787D01*
X414602Y196840D01*
X414890Y196905D01*
X415152Y196997D01*
X415362Y197089D01*
X415454Y197128D01*
X415519Y197154D01*
X415585Y197193D01*
X415624Y197206D01*
X415650Y197233D01*
X415663D01*
X415938Y197429D01*
X416174Y197652D01*
X416371Y197888D01*
X416541Y198124D01*
X416673Y198334D01*
X416712Y198425D01*
X416751Y198504D01*
X416790Y198570D01*
X416817Y198622D01*
X416830Y198648D01*
Y198661D01*
X416948Y199028D01*
X417039Y199421D01*
X417105Y199788D01*
X417144Y200142D01*
X417170Y200300D01*
Y200444D01*
X417184Y200575D01*
X417197Y200693D01*
Y200784D01*
Y200850D01*
Y200889D01*
Y200903D01*
X417184Y201269D01*
X417144Y201623D01*
X417092Y201951D01*
X417039Y202252D01*
X417013Y202370D01*
X416987Y202488D01*
X416961Y202593D01*
X416935Y202685D01*
X416908Y202750D01*
X416895Y202803D01*
X416882Y202829D01*
Y202842D01*
X416751Y203183D01*
X416581Y203471D01*
X416397Y203734D01*
X416214Y203943D01*
X416057Y204114D01*
X415925Y204231D01*
X415873Y204284D01*
X415834Y204310D01*
X415807Y204336D01*
X415794D01*
X415637Y204441D01*
X415480Y204520D01*
X415152Y204664D01*
X414824Y204769D01*
X414523Y204834D01*
X414379Y204848D01*
X414248Y204874D01*
X414130Y204887D01*
X414038D01*
X413959Y204900D01*
X413842D01*
X413475Y204874D01*
X413147Y204821D01*
X412859Y204743D01*
X412609Y204651D01*
X412413Y204546D01*
X412334Y204507D01*
X412269Y204467D01*
X412216Y204441D01*
X412177Y204415D01*
X412164Y204389D01*
X412151D01*
X412033Y204284D01*
X411915Y204179D01*
X411705Y203930D01*
X411535Y203668D01*
X411391Y203406D01*
X411273Y203170D01*
X411233Y203065D01*
X411194Y202973D01*
X411168Y202895D01*
X411142Y202842D01*
X411129Y202803D01*
Y202790D01*
X409818Y203104D01*
X409897Y203353D01*
X410001Y203602D01*
X410106Y203825D01*
X410224Y204035D01*
X410342Y204218D01*
X410460Y204402D01*
X410578Y204559D01*
X410696Y204703D01*
X410814Y204834D01*
X410919Y204952D01*
X411024Y205044D01*
X411102Y205123D01*
X411168Y205188D01*
X411233Y205228D01*
X411259Y205254D01*
X411273Y205267D01*
X411469Y205398D01*
X411679Y205529D01*
X411889Y205621D01*
X412098Y205713D01*
X412321Y205791D01*
X412531Y205857D01*
X412924Y205948D01*
X413107Y205975D01*
X413278Y206001D01*
X413435Y206014D01*
X413566Y206027D01*
X413671Y206040D01*
X414064D01*
X414300Y206014D01*
D02*
G37*
G36*
X367541Y201436D02*
X367973Y201410D01*
X368380Y201357D01*
X368760Y201292D01*
X369087Y201226D01*
X369402Y201148D01*
X369677Y201056D01*
X369926Y200964D01*
X370136Y200872D01*
X370320Y200781D01*
X370477Y200702D01*
X370595Y200636D01*
X370700Y200571D01*
X370765Y200518D01*
X370804Y200492D01*
X370817Y200479D01*
X371014Y200283D01*
X371185Y200086D01*
X371342Y199876D01*
X371473Y199667D01*
X371578Y199457D01*
X371669Y199247D01*
X371748Y199037D01*
X371800Y198841D01*
X371853Y198657D01*
X371879Y198487D01*
X371905Y198343D01*
X371931Y198212D01*
Y198094D01*
X371945Y198015D01*
Y197963D01*
Y197950D01*
X371931Y197622D01*
X371879Y197320D01*
X371814Y197045D01*
X371722Y196809D01*
X371643Y196613D01*
X371617Y196534D01*
X371578Y196455D01*
X371552Y196403D01*
X371525Y196364D01*
X371512Y196351D01*
Y196338D01*
X371329Y196075D01*
X371132Y195853D01*
X370922Y195669D01*
X370726Y195499D01*
X370542Y195381D01*
X370398Y195289D01*
X370346Y195250D01*
X370306Y195224D01*
X370280Y195210D01*
X370267D01*
X369953Y195066D01*
X369651Y194961D01*
X369350Y194896D01*
X369087Y194843D01*
X368852Y194817D01*
X368760Y194804D01*
X368668Y194791D01*
X368511D01*
X368249Y194804D01*
X368000Y194830D01*
X367764Y194870D01*
X367528Y194922D01*
X367318Y195001D01*
X367135Y195066D01*
X366951Y195145D01*
X366794Y195224D01*
X366650Y195315D01*
X366519Y195394D01*
X366414Y195459D01*
X366322Y195525D01*
X366243Y195590D01*
X366191Y195630D01*
X366165Y195656D01*
X366152Y195669D01*
X365994Y195840D01*
X365850Y196010D01*
X365732Y196180D01*
X365614Y196364D01*
X365536Y196547D01*
X365457Y196718D01*
X365391Y196888D01*
X365352Y197045D01*
X365313Y197203D01*
X365287Y197334D01*
X365260Y197465D01*
X365247Y197570D01*
X365234Y197661D01*
Y197727D01*
Y197766D01*
Y197779D01*
X365247Y198041D01*
X365287Y198290D01*
X365339Y198513D01*
X365405Y198723D01*
X365470Y198893D01*
X365522Y199011D01*
X365549Y199064D01*
X365562Y199103D01*
X365575Y199116D01*
Y199129D01*
X365706Y199365D01*
X365876Y199575D01*
X366034Y199758D01*
X366204Y199916D01*
X366348Y200047D01*
X366466Y200138D01*
X366558Y200191D01*
X366571Y200217D01*
X366309D01*
X366047Y200204D01*
X365798Y200178D01*
X365575Y200152D01*
X365365Y200125D01*
X365182Y200099D01*
X364998Y200073D01*
X364841Y200047D01*
X364710Y200007D01*
X364592Y199981D01*
X364487Y199955D01*
X364395Y199929D01*
X364330Y199902D01*
X364291Y199889D01*
X364264Y199876D01*
X364251D01*
X363963Y199732D01*
X363714Y199588D01*
X363504Y199431D01*
X363334Y199286D01*
X363190Y199155D01*
X363098Y199051D01*
X363032Y198985D01*
X363019Y198959D01*
X362901Y198775D01*
X362823Y198605D01*
X362757Y198421D01*
X362718Y198264D01*
X362691Y198120D01*
X362678Y198015D01*
Y197936D01*
Y197910D01*
X362705Y197648D01*
X362757Y197399D01*
X362849Y197189D01*
X362940Y197006D01*
X363032Y196862D01*
X363124Y196757D01*
X363176Y196691D01*
X363203Y196665D01*
X363347Y196560D01*
X363504Y196469D01*
X363675Y196377D01*
X363845Y196311D01*
X364002Y196259D01*
X364133Y196220D01*
X364186Y196206D01*
X364225D01*
X364238Y196193D01*
X364251D01*
X364159Y194961D01*
X363950Y195001D01*
X363740Y195040D01*
X363386Y195171D01*
X363216Y195250D01*
X363072Y195315D01*
X362927Y195394D01*
X362809Y195473D01*
X362691Y195551D01*
X362600Y195630D01*
X362521Y195695D01*
X362443Y195761D01*
X362390Y195813D01*
X362351Y195840D01*
X362338Y195866D01*
X362324Y195879D01*
X362207Y196023D01*
X362102Y196180D01*
X362010Y196338D01*
X361931Y196508D01*
X361813Y196836D01*
X361735Y197137D01*
X361708Y197281D01*
X361695Y197412D01*
X361682Y197530D01*
X361669Y197635D01*
X361656Y197714D01*
Y197779D01*
Y197819D01*
Y197832D01*
X361669Y198120D01*
X361708Y198395D01*
X361761Y198657D01*
X361840Y198906D01*
X361931Y199129D01*
X362023Y199339D01*
X362128Y199536D01*
X362233Y199706D01*
X362351Y199850D01*
X362456Y199994D01*
X362547Y200112D01*
X362639Y200204D01*
X362718Y200283D01*
X362770Y200335D01*
X362809Y200361D01*
X362823Y200374D01*
X363085Y200558D01*
X363386Y200728D01*
X363701Y200872D01*
X364041Y200990D01*
X364395Y201095D01*
X364749Y201187D01*
X365103Y201252D01*
X365444Y201318D01*
X365771Y201357D01*
X366073Y201397D01*
X366348Y201410D01*
X366597Y201436D01*
X366794D01*
X366872Y201449D01*
X367069D01*
X367541Y201436D01*
D02*
G37*
G36*
X448170Y197400D02*
X444540D01*
X444212Y197413D01*
X443898Y197426D01*
X443622Y197452D01*
X443386Y197492D01*
X443190Y197518D01*
X443111Y197531D01*
X443046Y197544D01*
X442993Y197557D01*
X442954D01*
X442941Y197570D01*
X442928D01*
X442679Y197636D01*
X442443Y197715D01*
X442233Y197806D01*
X442063Y197885D01*
X441918Y197950D01*
X441814Y198016D01*
X441748Y198055D01*
X441722Y198068D01*
X441538Y198213D01*
X441355Y198357D01*
X441198Y198514D01*
X441067Y198658D01*
X440949Y198789D01*
X440870Y198894D01*
X440804Y198960D01*
X440791Y198986D01*
X440647Y199209D01*
X440503Y199458D01*
X440385Y199707D01*
X440293Y199943D01*
X440215Y200139D01*
X440188Y200231D01*
X440162Y200310D01*
X440136Y200362D01*
X440123Y200415D01*
X440110Y200441D01*
Y200454D01*
X440018Y200795D01*
X439953Y201148D01*
X439900Y201489D01*
X439874Y201804D01*
X439861Y201948D01*
X439848Y202079D01*
Y202197D01*
X439835Y202289D01*
Y202380D01*
Y202433D01*
Y202472D01*
Y202485D01*
X439848Y202970D01*
X439900Y203429D01*
X439926Y203639D01*
X439966Y203835D01*
X440005Y204019D01*
X440031Y204189D01*
X440070Y204346D01*
X440110Y204478D01*
X440149Y204595D01*
X440175Y204700D01*
X440201Y204779D01*
X440228Y204831D01*
X440241Y204871D01*
Y204884D01*
X440398Y205264D01*
X440595Y205592D01*
X440791Y205893D01*
X440988Y206142D01*
X441080Y206247D01*
X441158Y206339D01*
X441237Y206417D01*
X441302Y206483D01*
X441355Y206535D01*
X441394Y206574D01*
X441420Y206588D01*
X441433Y206601D01*
X441669Y206784D01*
X441918Y206942D01*
X442168Y207059D01*
X442403Y207164D01*
X442600Y207230D01*
X442692Y207256D01*
X442770Y207282D01*
X442823Y207295D01*
X442875Y207308D01*
X442901Y207322D01*
X442915D01*
X443164Y207374D01*
X443452Y207413D01*
X443753Y207439D01*
X444042Y207466D01*
X444291D01*
X444409Y207479D01*
X448170D01*
Y197400D01*
D02*
G37*
G36*
X157939Y206286D02*
X154623D01*
Y197400D01*
X153287D01*
Y206286D01*
X149971D01*
Y207479D01*
X157939D01*
Y206286D01*
D02*
G37*
G36*
X434106Y225520D02*
X434329Y225468D01*
X434526Y225415D01*
X434723Y225337D01*
X434906Y225258D01*
X435076Y225179D01*
X435234Y225088D01*
X435378Y225009D01*
X435496Y224917D01*
X435614Y224839D01*
X435705Y224760D01*
X435784Y224694D01*
X435850Y224629D01*
X435889Y224590D01*
X435915Y224563D01*
X435928Y224550D01*
X436072Y224380D01*
X436190Y224209D01*
X436295Y224026D01*
X436387Y223829D01*
X436452Y223646D01*
X436518Y223462D01*
X436610Y223122D01*
X436649Y222964D01*
X436675Y222807D01*
X436688Y222676D01*
X436702Y222571D01*
X436715Y222479D01*
Y222401D01*
Y222361D01*
Y222348D01*
X436702Y222073D01*
X436675Y221824D01*
X436636Y221575D01*
X436571Y221352D01*
X436505Y221129D01*
X436426Y220933D01*
X436348Y220749D01*
X436256Y220579D01*
X436177Y220435D01*
X436099Y220304D01*
X436020Y220186D01*
X435955Y220094D01*
X435889Y220015D01*
X435850Y219963D01*
X435823Y219937D01*
X435810Y219924D01*
X435640Y219753D01*
X435456Y219609D01*
X435260Y219478D01*
X435076Y219360D01*
X434880Y219268D01*
X434696Y219190D01*
X434513Y219124D01*
X434342Y219072D01*
X434185Y219032D01*
X434041Y219006D01*
X433910Y218980D01*
X433792Y218967D01*
X433700Y218954D01*
X433569D01*
X433215Y218980D01*
X432914Y219032D01*
X432639Y219111D01*
X432403Y219203D01*
X432206Y219294D01*
X432141Y219334D01*
X432075Y219373D01*
X432023Y219399D01*
X431983Y219426D01*
X431970Y219452D01*
X431957D01*
X431734Y219648D01*
X431551Y219884D01*
X431393Y220107D01*
X431275Y220330D01*
X431197Y220527D01*
X431157Y220618D01*
X431131Y220697D01*
X431118Y220749D01*
X431105Y220802D01*
X431092Y220828D01*
Y220841D01*
X430961Y220605D01*
X430830Y220395D01*
X430686Y220212D01*
X430541Y220068D01*
X430424Y219950D01*
X430332Y219871D01*
X430266Y219819D01*
X430240Y219806D01*
X430030Y219688D01*
X429821Y219596D01*
X429624Y219543D01*
X429441Y219491D01*
X429283Y219465D01*
X429152Y219452D01*
X429047D01*
X428798Y219465D01*
X428563Y219504D01*
X428340Y219570D01*
X428143Y219635D01*
X427986Y219714D01*
X427855Y219766D01*
X427776Y219819D01*
X427763Y219832D01*
X427750D01*
X427527Y219976D01*
X427344Y220146D01*
X427173Y220330D01*
X427029Y220500D01*
X426924Y220658D01*
X426846Y220776D01*
X426819Y220828D01*
X426793Y220867D01*
X426780Y220880D01*
Y220893D01*
X426662Y221156D01*
X426570Y221418D01*
X426518Y221667D01*
X426465Y221903D01*
X426439Y222099D01*
Y222191D01*
X426426Y222257D01*
Y222322D01*
Y222361D01*
Y222388D01*
Y222401D01*
X426439Y222624D01*
X426452Y222833D01*
X426531Y223226D01*
X426649Y223567D01*
X426715Y223711D01*
X426767Y223855D01*
X426832Y223974D01*
X426898Y224091D01*
X426964Y224183D01*
X427016Y224262D01*
X427055Y224327D01*
X427094Y224367D01*
X427108Y224393D01*
X427121Y224406D01*
X427252Y224550D01*
X427396Y224681D01*
X427710Y224904D01*
X428025Y225074D01*
X428326Y225219D01*
X428471Y225271D01*
X428602Y225310D01*
X428733Y225350D01*
X428825Y225376D01*
X428916Y225402D01*
X428982Y225415D01*
X429021Y225428D01*
X429034D01*
X429257Y224196D01*
X428943Y224131D01*
X428667Y224052D01*
X428431Y223947D01*
X428248Y223842D01*
X428091Y223751D01*
X427986Y223672D01*
X427933Y223620D01*
X427907Y223593D01*
X427750Y223397D01*
X427645Y223200D01*
X427566Y222990D01*
X427501Y222807D01*
X427475Y222637D01*
X427462Y222493D01*
X427448Y222440D01*
Y222401D01*
Y222388D01*
Y222374D01*
X427462Y222112D01*
X427514Y221890D01*
X427593Y221680D01*
X427671Y221509D01*
X427763Y221378D01*
X427828Y221274D01*
X427881Y221221D01*
X427907Y221195D01*
X428078Y221038D01*
X428274Y220920D01*
X428458Y220841D01*
X428628Y220776D01*
X428785Y220749D01*
X428903Y220736D01*
X428995Y220723D01*
X429021D01*
X429179Y220736D01*
X429323Y220749D01*
X429585Y220828D01*
X429808Y220920D01*
X429991Y221038D01*
X430122Y221156D01*
X430227Y221261D01*
X430279Y221339D01*
X430306Y221352D01*
Y221365D01*
X430437Y221601D01*
X430541Y221850D01*
X430607Y222086D01*
X430659Y222309D01*
X430686Y222493D01*
X430699Y222650D01*
X430712Y222702D01*
Y222742D01*
Y222768D01*
Y222781D01*
Y222846D01*
X430699Y222912D01*
X430686Y222951D01*
Y222977D01*
X431773Y223122D01*
X431734Y222938D01*
X431695Y222768D01*
X431669Y222610D01*
X431656Y222479D01*
X431642Y222388D01*
Y222309D01*
Y222257D01*
Y222243D01*
X431669Y221929D01*
X431734Y221654D01*
X431813Y221418D01*
X431918Y221208D01*
X432023Y221051D01*
X432101Y220933D01*
X432167Y220854D01*
X432193Y220828D01*
X432298Y220723D01*
X432416Y220644D01*
X432639Y220500D01*
X432874Y220395D01*
X433097Y220330D01*
X433294Y220291D01*
X433386Y220278D01*
X433451D01*
X433517Y220264D01*
X433753D01*
X433910Y220291D01*
X434198Y220356D01*
X434460Y220461D01*
X434670Y220566D01*
X434854Y220671D01*
X434985Y220776D01*
X435024Y220815D01*
X435063Y220841D01*
X435076Y220854D01*
X435089Y220867D01*
X435194Y220985D01*
X435286Y221103D01*
X435443Y221352D01*
X435548Y221601D01*
X435614Y221837D01*
X435666Y222034D01*
X435679Y222125D01*
Y222204D01*
X435692Y222257D01*
Y222309D01*
Y222335D01*
Y222348D01*
X435666Y222610D01*
X435614Y222859D01*
X435548Y223069D01*
X435456Y223253D01*
X435378Y223410D01*
X435299Y223515D01*
X435247Y223580D01*
X435234Y223606D01*
X435142Y223698D01*
X435037Y223777D01*
X434788Y223921D01*
X434539Y224052D01*
X434290Y224144D01*
X434054Y224223D01*
X433962Y224249D01*
X433871Y224275D01*
X433805Y224288D01*
X433753Y224301D01*
X433713Y224314D01*
X433700D01*
X433871Y225546D01*
X434106Y225520D01*
D02*
G37*
G36*
X176000Y197400D02*
X172173D01*
X171819Y197413D01*
X171504Y197426D01*
X171229Y197452D01*
X170993Y197479D01*
X170810Y197505D01*
X170731Y197518D01*
X170666Y197531D01*
X170613Y197544D01*
X170574Y197557D01*
X170548D01*
X170312Y197623D01*
X170089Y197701D01*
X169905Y197793D01*
X169748Y197872D01*
X169617Y197937D01*
X169525Y198003D01*
X169460Y198042D01*
X169447Y198055D01*
X169289Y198200D01*
X169145Y198344D01*
X169014Y198501D01*
X168909Y198658D01*
X168818Y198789D01*
X168752Y198894D01*
X168713Y198973D01*
X168700Y198999D01*
X168595Y199235D01*
X168529Y199458D01*
X168477Y199681D01*
X168438Y199877D01*
X168411Y200061D01*
X168398Y200192D01*
Y200244D01*
Y200283D01*
Y200296D01*
Y200310D01*
X168424Y200624D01*
X168477Y200912D01*
X168556Y201175D01*
X168647Y201397D01*
X168739Y201581D01*
X168818Y201712D01*
X168844Y201764D01*
X168870Y201804D01*
X168896Y201817D01*
Y201830D01*
X169093Y202053D01*
X169316Y202249D01*
X169552Y202407D01*
X169774Y202538D01*
X169984Y202643D01*
X170076Y202682D01*
X170141Y202708D01*
X170207Y202734D01*
X170259Y202747D01*
X170286Y202761D01*
X170299D01*
X170050Y202892D01*
X169840Y203049D01*
X169657Y203193D01*
X169499Y203337D01*
X169381Y203468D01*
X169303Y203573D01*
X169250Y203639D01*
X169237Y203665D01*
X169119Y203888D01*
X169027Y204097D01*
X168975Y204307D01*
X168923Y204504D01*
X168896Y204661D01*
X168883Y204792D01*
Y204831D01*
Y204871D01*
Y204884D01*
Y204897D01*
X168896Y205159D01*
X168949Y205395D01*
X169014Y205618D01*
X169080Y205814D01*
X169158Y205985D01*
X169224Y206116D01*
X169276Y206194D01*
X169289Y206208D01*
Y206221D01*
X169447Y206443D01*
X169630Y206640D01*
X169801Y206797D01*
X169984Y206928D01*
X170141Y207033D01*
X170259Y207112D01*
X170312Y207138D01*
X170351Y207151D01*
X170364Y207164D01*
X170377D01*
X170653Y207269D01*
X170954Y207348D01*
X171269Y207400D01*
X171557Y207439D01*
X171819Y207466D01*
X171937D01*
X172029Y207479D01*
X176000D01*
Y197400D01*
D02*
G37*
G36*
X167664D02*
X166262D01*
X165161Y200454D01*
X160941D01*
X159774Y197400D01*
X158267D01*
X162369Y207479D01*
X163824D01*
X167664Y197400D01*
D02*
G37*
G36*
X68310Y46328D02*
X63840D01*
Y44782D01*
Y44598D01*
X63854Y44454D01*
Y44323D01*
X63867Y44218D01*
X63880Y44139D01*
Y44087D01*
X63893Y44061D01*
Y44048D01*
X63972Y43825D01*
X64011Y43720D01*
X64063Y43628D01*
X64103Y43550D01*
X64142Y43497D01*
X64155Y43458D01*
X64168Y43445D01*
X64260Y43327D01*
X64352Y43209D01*
X64470Y43091D01*
X64588Y42986D01*
X64679Y42894D01*
X64771Y42829D01*
X64823Y42776D01*
X64850Y42763D01*
X65046Y42606D01*
X65269Y42449D01*
X65492Y42291D01*
X65715Y42134D01*
X65911Y42003D01*
X66003Y41938D01*
X66082Y41885D01*
X66134Y41846D01*
X66187Y41820D01*
X66213Y41793D01*
X66226D01*
X68310Y40470D01*
Y38792D01*
X65584Y40535D01*
X65295Y40732D01*
X65033Y40928D01*
X64797Y41112D01*
X64614Y41282D01*
X64457Y41439D01*
X64339Y41544D01*
X64273Y41623D01*
X64247Y41636D01*
Y41649D01*
X64155Y41767D01*
X64063Y41885D01*
X63893Y42147D01*
X63827Y42265D01*
X63775Y42357D01*
X63749Y42422D01*
X63736Y42449D01*
X63696Y42187D01*
X63644Y41938D01*
X63578Y41715D01*
X63513Y41505D01*
X63434Y41308D01*
X63356Y41125D01*
X63277Y40968D01*
X63198Y40823D01*
X63120Y40706D01*
X63041Y40601D01*
X62976Y40509D01*
X62923Y40430D01*
X62871Y40378D01*
X62831Y40325D01*
X62818Y40312D01*
X62805Y40299D01*
X62661Y40181D01*
X62517Y40063D01*
X62359Y39972D01*
X62215Y39893D01*
X61914Y39775D01*
X61625Y39696D01*
X61377Y39644D01*
X61272Y39631D01*
X61180Y39618D01*
X61101Y39605D01*
X60996D01*
X60695Y39618D01*
X60407Y39670D01*
X60145Y39736D01*
X59922Y39814D01*
X59738Y39893D01*
X59594Y39959D01*
X59542Y39985D01*
X59502Y40011D01*
X59489Y40024D01*
X59476D01*
X59240Y40194D01*
X59030Y40378D01*
X58860Y40561D01*
X58729Y40745D01*
X58624Y40902D01*
X58559Y41033D01*
X58532Y41086D01*
X58519Y41125D01*
X58506Y41138D01*
Y41151D01*
X58454Y41282D01*
X58415Y41439D01*
X58349Y41767D01*
X58296Y42108D01*
X58270Y42436D01*
X58257Y42593D01*
X58244Y42737D01*
Y42855D01*
X58231Y42973D01*
Y43065D01*
Y43130D01*
Y43183D01*
Y43196D01*
Y47665D01*
X68310D01*
Y46328D01*
D02*
G37*
G36*
X65426Y37927D02*
X65780Y37861D01*
X66082Y37770D01*
X66357Y37665D01*
X66475Y37613D01*
X66580Y37573D01*
X66658Y37521D01*
X66737Y37481D01*
X66803Y37455D01*
X66842Y37429D01*
X66868Y37403D01*
X66881D01*
X67156Y37193D01*
X67406Y36957D01*
X67615Y36721D01*
X67786Y36485D01*
X67917Y36276D01*
X67969Y36184D01*
X68008Y36118D01*
X68048Y36053D01*
X68074Y36000D01*
X68087Y35974D01*
Y35961D01*
X68218Y35594D01*
X68310Y35214D01*
X68388Y34821D01*
X68428Y34467D01*
X68441Y34297D01*
X68454Y34152D01*
X68467Y34008D01*
Y33890D01*
X68480Y33798D01*
Y33733D01*
Y33681D01*
Y33667D01*
X68467Y33274D01*
X68415Y32907D01*
X68349Y32580D01*
X68284Y32304D01*
X68244Y32173D01*
X68205Y32069D01*
X68179Y31977D01*
X68152Y31885D01*
X68126Y31832D01*
X68100Y31780D01*
X68087Y31754D01*
Y31741D01*
X67930Y31439D01*
X67746Y31164D01*
X67563Y30941D01*
X67392Y30758D01*
X67235Y30614D01*
X67104Y30496D01*
X67052Y30470D01*
X67012Y30443D01*
X66999Y30417D01*
X66986D01*
X66724Y30260D01*
X66449Y30142D01*
X66200Y30063D01*
X65964Y29998D01*
X65767Y29971D01*
X65689Y29958D01*
X65610D01*
X65557Y29945D01*
X65479D01*
X65177Y29958D01*
X64915Y30011D01*
X64666Y30076D01*
X64457Y30155D01*
X64286Y30247D01*
X64155Y30312D01*
X64116Y30338D01*
X64076Y30365D01*
X64063Y30378D01*
X64050D01*
X63827Y30548D01*
X63618Y30758D01*
X63447Y30968D01*
X63290Y31177D01*
X63172Y31374D01*
X63093Y31531D01*
X63054Y31597D01*
X63028Y31636D01*
X63015Y31662D01*
Y31675D01*
X62962Y31793D01*
X62910Y31937D01*
X62857Y32108D01*
X62792Y32278D01*
X62687Y32645D01*
X62595Y33012D01*
X62543Y33196D01*
X62504Y33353D01*
X62464Y33510D01*
X62438Y33641D01*
X62412Y33746D01*
X62386Y33838D01*
X62373Y33890D01*
Y33903D01*
X62307Y34192D01*
X62242Y34454D01*
X62176Y34690D01*
X62111Y34899D01*
X62045Y35083D01*
X61993Y35240D01*
X61927Y35384D01*
X61875Y35515D01*
X61835Y35607D01*
X61796Y35699D01*
X61757Y35765D01*
X61717Y35817D01*
X61704Y35856D01*
X61678Y35882D01*
X61665Y35909D01*
X61521Y36040D01*
X61377Y36131D01*
X61232Y36197D01*
X61088Y36236D01*
X60957Y36263D01*
X60865Y36289D01*
X60774D01*
X60551Y36263D01*
X60341Y36197D01*
X60158Y36118D01*
X60000Y36014D01*
X59869Y35909D01*
X59777Y35830D01*
X59725Y35765D01*
X59699Y35738D01*
X59620Y35633D01*
X59555Y35502D01*
X59437Y35227D01*
X59358Y34939D01*
X59306Y34650D01*
X59279Y34388D01*
X59266Y34283D01*
X59253Y34179D01*
Y34100D01*
Y34034D01*
Y33995D01*
Y33982D01*
Y33772D01*
X59279Y33576D01*
X59293Y33392D01*
X59332Y33222D01*
X59371Y33065D01*
X59411Y32920D01*
X59450Y32789D01*
X59489Y32671D01*
X59542Y32580D01*
X59581Y32488D01*
X59620Y32409D01*
X59660Y32344D01*
X59699Y32304D01*
X59712Y32265D01*
X59738Y32239D01*
X59935Y32029D01*
X60171Y31872D01*
X60407Y31754D01*
X60629Y31662D01*
X60839Y31597D01*
X60931Y31570D01*
X61009Y31557D01*
X61075Y31544D01*
X61128Y31531D01*
X61167D01*
X61075Y30247D01*
X60760Y30273D01*
X60459Y30338D01*
X60197Y30417D01*
X59961Y30509D01*
X59764Y30601D01*
X59686Y30640D01*
X59620Y30666D01*
X59568Y30705D01*
X59528Y30719D01*
X59515Y30745D01*
X59502D01*
X59253Y30928D01*
X59030Y31151D01*
X58847Y31361D01*
X58703Y31583D01*
X58585Y31767D01*
X58493Y31924D01*
X58467Y31990D01*
X58441Y32029D01*
X58428Y32055D01*
Y32069D01*
X58310Y32396D01*
X58218Y32737D01*
X58152Y33065D01*
X58100Y33366D01*
X58087Y33510D01*
X58074Y33641D01*
Y33746D01*
X58061Y33851D01*
Y33930D01*
Y33982D01*
Y34021D01*
Y34034D01*
X58074Y34401D01*
X58113Y34755D01*
X58179Y35070D01*
X58231Y35345D01*
X58270Y35463D01*
X58296Y35568D01*
X58336Y35660D01*
X58362Y35738D01*
X58375Y35804D01*
X58401Y35843D01*
X58415Y35869D01*
Y35882D01*
X58559Y36171D01*
X58716Y36433D01*
X58886Y36643D01*
X59044Y36826D01*
X59188Y36957D01*
X59319Y37062D01*
X59397Y37114D01*
X59411Y37141D01*
X59424D01*
X59673Y37285D01*
X59922Y37390D01*
X60158Y37468D01*
X60380Y37521D01*
X60577Y37547D01*
X60721Y37560D01*
X60774Y37573D01*
X60852D01*
X61101Y37560D01*
X61337Y37521D01*
X61560Y37468D01*
X61743Y37403D01*
X61901Y37337D01*
X62006Y37285D01*
X62084Y37246D01*
X62097Y37232D01*
X62111D01*
X62307Y37088D01*
X62491Y36918D01*
X62648Y36734D01*
X62779Y36564D01*
X62897Y36407D01*
X62976Y36276D01*
X63002Y36223D01*
X63028Y36184D01*
X63041Y36171D01*
Y36158D01*
X63093Y36040D01*
X63159Y35909D01*
X63264Y35620D01*
X63382Y35293D01*
X63474Y34978D01*
X63565Y34677D01*
X63591Y34559D01*
X63631Y34441D01*
X63644Y34349D01*
X63670Y34283D01*
X63683Y34231D01*
Y34218D01*
X63749Y33969D01*
X63801Y33746D01*
X63854Y33536D01*
X63893Y33353D01*
X63945Y33182D01*
X63985Y33038D01*
X64011Y32907D01*
X64050Y32802D01*
X64076Y32698D01*
X64103Y32619D01*
X64116Y32553D01*
X64142Y32501D01*
X64155Y32449D01*
X64168Y32422D01*
X64260Y32199D01*
X64365Y32016D01*
X64457Y31859D01*
X64548Y31728D01*
X64627Y31636D01*
X64692Y31570D01*
X64745Y31531D01*
X64758Y31518D01*
X64889Y31426D01*
X65033Y31348D01*
X65177Y31295D01*
X65308Y31269D01*
X65413Y31243D01*
X65505Y31230D01*
X65584D01*
X65754Y31243D01*
X65911Y31269D01*
X66055Y31321D01*
X66187Y31374D01*
X66291Y31426D01*
X66383Y31479D01*
X66436Y31505D01*
X66449Y31518D01*
X66593Y31636D01*
X66711Y31780D01*
X66816Y31924D01*
X66907Y32069D01*
X66973Y32199D01*
X67025Y32304D01*
X67052Y32370D01*
X67065Y32383D01*
Y32396D01*
X67143Y32619D01*
X67196Y32842D01*
X67235Y33078D01*
X67261Y33274D01*
X67274Y33458D01*
X67288Y33602D01*
Y33654D01*
Y33694D01*
Y33720D01*
Y33733D01*
X67274Y34048D01*
X67248Y34336D01*
X67196Y34598D01*
X67143Y34821D01*
X67091Y35017D01*
X67065Y35096D01*
X67038Y35162D01*
X67025Y35214D01*
X67012Y35253D01*
X66999Y35266D01*
Y35280D01*
X66881Y35515D01*
X66750Y35725D01*
X66619Y35896D01*
X66488Y36040D01*
X66383Y36145D01*
X66291Y36223D01*
X66239Y36276D01*
X66213Y36289D01*
X66016Y36394D01*
X65806Y36485D01*
X65597Y36564D01*
X65400Y36616D01*
X65217Y36656D01*
X65086Y36682D01*
X65033D01*
X64994Y36695D01*
X64955D01*
X65059Y37953D01*
X65426Y37927D01*
D02*
G37*
G36*
X111717Y25021D02*
X116795D01*
Y24035D01*
X111717D01*
Y22902D01*
X110952D01*
Y24035D01*
X110417D01*
X110238Y24025D01*
X110081Y24004D01*
X109955Y23972D01*
X109861Y23941D01*
X109787Y23909D01*
X109745Y23878D01*
X109714Y23857D01*
X109703Y23846D01*
X109640Y23762D01*
X109588Y23668D01*
X109556Y23563D01*
X109525Y23458D01*
X109514Y23364D01*
X109504Y23280D01*
Y23227D01*
Y23206D01*
X109514Y22997D01*
X109525Y22902D01*
X109535Y22818D01*
X109546Y22745D01*
X109556Y22682D01*
X109567Y22640D01*
Y22629D01*
X108696Y22483D01*
X108665Y22671D01*
X108633Y22839D01*
X108612Y22997D01*
X108602Y23133D01*
X108591Y23248D01*
Y23332D01*
Y23385D01*
Y23406D01*
X108602Y23637D01*
X108633Y23836D01*
X108665Y24014D01*
X108707Y24161D01*
X108759Y24276D01*
X108791Y24360D01*
X108822Y24402D01*
X108833Y24423D01*
X108927Y24549D01*
X109032Y24654D01*
X109137Y24738D01*
X109242Y24801D01*
X109326Y24853D01*
X109399Y24885D01*
X109441Y24906D01*
X109462Y24916D01*
X109577Y24948D01*
X109714Y24979D01*
X109861Y25000D01*
X110007Y25011D01*
X110133D01*
X110238Y25021D01*
X110952D01*
Y25892D01*
X111717D01*
Y25021D01*
D02*
G37*
G36*
X408062Y195791D02*
X401771D01*
Y196984D01*
X406725D01*
Y205870D01*
X408062D01*
Y195791D01*
D02*
G37*
G36*
X59424Y25568D02*
X68310D01*
Y24231D01*
X59424D01*
Y20915D01*
X58231D01*
Y28884D01*
X59424D01*
Y25568D01*
D02*
G37*
G36*
X195139Y195632D02*
X193947D01*
Y201805D01*
X190513D01*
Y196248D01*
X189320D01*
Y201805D01*
X186253D01*
Y195868D01*
X185061D01*
Y203142D01*
X195139D01*
Y195632D01*
D02*
G37*
G36*
Y192710D02*
X191168D01*
X190919Y192697D01*
X190683Y192684D01*
X190473Y192657D01*
X190277Y192618D01*
X190107Y192579D01*
X189949Y192526D01*
X189818Y192474D01*
X189687Y192421D01*
X189582Y192369D01*
X189504Y192330D01*
X189425Y192277D01*
X189373Y192238D01*
X189320Y192199D01*
X189294Y192172D01*
X189268Y192146D01*
X189097Y191923D01*
X188966Y191687D01*
X188875Y191451D01*
X188822Y191242D01*
X188783Y191058D01*
X188770Y190901D01*
X188757Y190849D01*
Y190809D01*
Y190783D01*
Y190770D01*
X188770Y190600D01*
X188796Y190429D01*
X188835Y190285D01*
X188875Y190167D01*
X188914Y190062D01*
X188953Y189984D01*
X188979Y189931D01*
X188993Y189918D01*
X189084Y189787D01*
X189176Y189682D01*
X189281Y189590D01*
X189373Y189525D01*
X189464Y189472D01*
X189530Y189433D01*
X189582Y189407D01*
X189595D01*
X189753Y189354D01*
X189923Y189315D01*
X190107Y189289D01*
X190290Y189263D01*
X190447D01*
X190592Y189250D01*
X195139D01*
Y188018D01*
X190356D01*
X190107Y188031D01*
X189910Y188044D01*
X189740Y188057D01*
X189622Y188070D01*
X189530Y188083D01*
X189477Y188096D01*
X189464D01*
X189268Y188149D01*
X189097Y188201D01*
X188940Y188267D01*
X188809Y188319D01*
X188691Y188385D01*
X188612Y188437D01*
X188560Y188463D01*
X188547Y188476D01*
X188416Y188594D01*
X188285Y188725D01*
X188180Y188856D01*
X188101Y188988D01*
X188023Y189118D01*
X187970Y189210D01*
X187944Y189276D01*
X187931Y189302D01*
X187852Y189512D01*
X187787Y189721D01*
X187747Y189931D01*
X187708Y190115D01*
X187695Y190285D01*
X187682Y190403D01*
Y190455D01*
Y190495D01*
Y190508D01*
Y190521D01*
X187695Y190796D01*
X187734Y191058D01*
X187787Y191294D01*
X187865Y191517D01*
X187957Y191727D01*
X188062Y191910D01*
X188167Y192081D01*
X188285Y192238D01*
X188403Y192382D01*
X188508Y192500D01*
X188612Y192592D01*
X188704Y192684D01*
X188770Y192749D01*
X188835Y192788D01*
X188875Y192815D01*
X188888Y192828D01*
X187839D01*
Y193942D01*
X195139D01*
Y192710D01*
D02*
G37*
G36*
X463129Y218901D02*
X461936D01*
Y223855D01*
X461701Y223685D01*
X461582Y223593D01*
X461491Y223515D01*
X461399Y223436D01*
X461334Y223384D01*
X461294Y223344D01*
X461281Y223331D01*
X461216Y223266D01*
X461124Y223174D01*
X461032Y223082D01*
X460940Y222977D01*
X460731Y222742D01*
X460521Y222493D01*
X460324Y222270D01*
X460233Y222165D01*
X460154Y222086D01*
X460102Y222008D01*
X460049Y221955D01*
X460023Y221916D01*
X460010Y221903D01*
X459800Y221667D01*
X459603Y221431D01*
X459433Y221234D01*
X459263Y221038D01*
X459105Y220867D01*
X458948Y220710D01*
X458817Y220566D01*
X458699Y220448D01*
X458594Y220330D01*
X458503Y220238D01*
X458424Y220159D01*
X458358Y220094D01*
X458306Y220055D01*
X458267Y220015D01*
X458254Y219989D01*
X458240D01*
X458004Y219792D01*
X457769Y219622D01*
X457559Y219478D01*
X457375Y219360D01*
X457231Y219268D01*
X457113Y219216D01*
X457035Y219177D01*
X457008Y219163D01*
X456786Y219085D01*
X456576Y219019D01*
X456366Y218980D01*
X456196Y218941D01*
X456039Y218927D01*
X455921Y218914D01*
X455816D01*
X455593Y218927D01*
X455383Y218954D01*
X455187Y218993D01*
X455003Y219046D01*
X454662Y219190D01*
X454505Y219255D01*
X454374Y219334D01*
X454243Y219426D01*
X454138Y219491D01*
X454046Y219570D01*
X453968Y219635D01*
X453902Y219688D01*
X453863Y219727D01*
X453837Y219753D01*
X453824Y219766D01*
X453679Y219937D01*
X453561Y220107D01*
X453443Y220291D01*
X453352Y220487D01*
X453273Y220684D01*
X453208Y220867D01*
X453116Y221234D01*
X453077Y221405D01*
X453050Y221562D01*
X453037Y221706D01*
X453024Y221837D01*
X453011Y221929D01*
Y222008D01*
Y222060D01*
Y222073D01*
X453024Y222335D01*
X453037Y222584D01*
X453077Y222820D01*
X453129Y223030D01*
X453181Y223239D01*
X453247Y223423D01*
X453312Y223593D01*
X453378Y223751D01*
X453456Y223895D01*
X453522Y224013D01*
X453588Y224118D01*
X453640Y224209D01*
X453693Y224275D01*
X453732Y224327D01*
X453745Y224354D01*
X453758Y224367D01*
X453902Y224524D01*
X454059Y224655D01*
X454230Y224773D01*
X454413Y224878D01*
X454584Y224970D01*
X454767Y225048D01*
X455121Y225166D01*
X455278Y225219D01*
X455436Y225258D01*
X455567Y225284D01*
X455685Y225310D01*
X455789Y225324D01*
X455855D01*
X455907Y225337D01*
X455921D01*
X456052Y224065D01*
X455711Y224039D01*
X455423Y223987D01*
X455173Y223895D01*
X454951Y223790D01*
X454793Y223698D01*
X454662Y223606D01*
X454597Y223554D01*
X454571Y223528D01*
X454387Y223318D01*
X454256Y223082D01*
X454164Y222833D01*
X454099Y222610D01*
X454059Y222414D01*
X454046Y222322D01*
Y222243D01*
X454033Y222191D01*
Y222139D01*
Y222112D01*
Y222099D01*
X454059Y221798D01*
X454112Y221523D01*
X454190Y221287D01*
X454282Y221090D01*
X454387Y220933D01*
X454466Y220815D01*
X454518Y220749D01*
X454544Y220723D01*
X454741Y220540D01*
X454951Y220409D01*
X455147Y220317D01*
X455344Y220251D01*
X455514Y220212D01*
X455658Y220199D01*
X455711Y220186D01*
X455907D01*
X456039Y220212D01*
X456314Y220278D01*
X456563Y220369D01*
X456786Y220474D01*
X456982Y220592D01*
X457061Y220644D01*
X457139Y220684D01*
X457192Y220723D01*
X457231Y220749D01*
X457257Y220762D01*
X457271Y220776D01*
X457428Y220893D01*
X457585Y221038D01*
X457755Y221195D01*
X457939Y221365D01*
X458293Y221732D01*
X458634Y222099D01*
X458791Y222270D01*
X458935Y222440D01*
X459066Y222597D01*
X459184Y222728D01*
X459276Y222833D01*
X459341Y222925D01*
X459394Y222977D01*
X459407Y222990D01*
X459721Y223371D01*
X460010Y223698D01*
X460272Y223974D01*
X460495Y224196D01*
X460678Y224380D01*
X460822Y224511D01*
X460875Y224550D01*
X460914Y224590D01*
X460927Y224603D01*
X460940Y224616D01*
X461189Y224812D01*
X461425Y224983D01*
X461648Y225114D01*
X461858Y225232D01*
X462028Y225324D01*
X462159Y225376D01*
X462212Y225402D01*
X462251Y225415D01*
X462264Y225428D01*
X462277D01*
X462434Y225481D01*
X462579Y225520D01*
X462723Y225546D01*
X462854Y225559D01*
X462972Y225572D01*
X463129D01*
Y218901D01*
D02*
G37*
G36*
X384140Y204028D02*
X384009Y203871D01*
X383891Y203727D01*
X383786Y203596D01*
X383708Y203478D01*
X383655Y203386D01*
X383616Y203334D01*
X383603Y203307D01*
X383511Y203137D01*
X383445Y202967D01*
X383406Y202809D01*
X383380Y202678D01*
X383354Y202560D01*
X383341Y202469D01*
Y202416D01*
Y202390D01*
X383354Y202220D01*
X383367Y202062D01*
X383380Y202010D01*
Y201957D01*
X383393Y201931D01*
Y201918D01*
X383419Y201826D01*
X383459Y201709D01*
X383550Y201473D01*
X383590Y201368D01*
X383629Y201289D01*
X383642Y201237D01*
X383655Y201210D01*
X383773Y200909D01*
X383878Y200660D01*
X383957Y200437D01*
X384022Y200254D01*
X384075Y200096D01*
X384101Y200005D01*
X384127Y199939D01*
Y199913D01*
X384206Y199585D01*
X384232Y199441D01*
X384245Y199310D01*
X384258Y199205D01*
Y199127D01*
Y199061D01*
Y199048D01*
X384245Y198838D01*
X384219Y198629D01*
X384179Y198432D01*
X384127Y198248D01*
X383996Y197934D01*
X383930Y197790D01*
X383852Y197659D01*
X383773Y197541D01*
X383708Y197436D01*
X383629Y197357D01*
X383577Y197278D01*
X383524Y197226D01*
X383485Y197187D01*
X383459Y197161D01*
X383445Y197148D01*
X382030D01*
X382213Y197357D01*
X382384Y197541D01*
X382502Y197698D01*
X382607Y197842D01*
X382672Y197960D01*
X382725Y198039D01*
X382751Y198091D01*
X382764Y198104D01*
X382829Y198248D01*
X382882Y198406D01*
X382908Y198537D01*
X382934Y198668D01*
X382947Y198773D01*
X382961Y198851D01*
Y198917D01*
Y198930D01*
X382947Y199153D01*
X382908Y199376D01*
X382842Y199598D01*
X382777Y199821D01*
X382711Y200005D01*
X382646Y200162D01*
X382633Y200214D01*
X382607Y200254D01*
X382593Y200280D01*
Y200293D01*
X382462Y200581D01*
X382371Y200817D01*
X382292Y201027D01*
X382226Y201184D01*
X382187Y201315D01*
X382161Y201407D01*
X382135Y201460D01*
Y201473D01*
X382082Y201761D01*
X382069Y201892D01*
X382056Y202010D01*
X382043Y202115D01*
Y202193D01*
Y202246D01*
Y202259D01*
X382056Y202469D01*
X382069Y202652D01*
X382095Y202823D01*
X382135Y202980D01*
X382174Y203098D01*
X382200Y203190D01*
X382213Y203242D01*
X382226Y203268D01*
X382305Y203439D01*
X382397Y203609D01*
X382502Y203753D01*
X382593Y203897D01*
X382685Y204002D01*
X382764Y204094D01*
X382816Y204159D01*
X382829Y204172D01*
X384284D01*
X384140Y204028D01*
D02*
G37*
G36*
X193889Y36384D02*
X190835Y35284D01*
Y31063D01*
X193889Y29897D01*
Y28389D01*
X183810Y32492D01*
Y33947D01*
X193889Y37787D01*
Y36384D01*
D02*
G37*
G36*
X427475Y31787D02*
X424159D01*
Y22901D01*
X422822D01*
Y31787D01*
X419506D01*
Y32979D01*
X427475D01*
Y31787D01*
D02*
G37*
G36*
X388190Y28130D02*
X392082Y22901D01*
X390483D01*
X387928Y26387D01*
X387862Y26479D01*
X387797Y26583D01*
X387639Y26832D01*
X387561Y26937D01*
X387508Y27029D01*
X387469Y27081D01*
X387456Y27108D01*
X387299Y26885D01*
X387233Y26780D01*
X387168Y26688D01*
X387115Y26610D01*
X387076Y26544D01*
X387050Y26505D01*
X387037Y26492D01*
X384494Y22901D01*
X382855D01*
X386617Y28182D01*
X383131Y32979D01*
X384586D01*
X386591Y30293D01*
X386761Y30070D01*
X386905Y29873D01*
X387050Y29677D01*
X387168Y29506D01*
X387259Y29362D01*
X387325Y29257D01*
X387377Y29192D01*
X387390Y29165D01*
X387495Y29336D01*
X387613Y29532D01*
X387744Y29742D01*
X387875Y29939D01*
X387993Y30122D01*
X388098Y30266D01*
X388137Y30319D01*
X388164Y30358D01*
X388177Y30384D01*
X388190Y30397D01*
X390025Y32979D01*
X391624D01*
X388190Y28130D01*
D02*
G37*
G36*
X143240Y24100D02*
X143227Y23772D01*
X143214Y23458D01*
X143187Y23182D01*
X143148Y22946D01*
X143122Y22750D01*
X143109Y22671D01*
X143096Y22606D01*
X143083Y22553D01*
Y22514D01*
X143069Y22501D01*
Y22488D01*
X143004Y22239D01*
X142925Y22003D01*
X142833Y21793D01*
X142755Y21623D01*
X142689Y21479D01*
X142624Y21374D01*
X142584Y21308D01*
X142571Y21282D01*
X142427Y21098D01*
X142283Y20915D01*
X142126Y20758D01*
X141982Y20627D01*
X141851Y20509D01*
X141746Y20430D01*
X141680Y20364D01*
X141654Y20351D01*
X141431Y20207D01*
X141182Y20063D01*
X140933Y19945D01*
X140697Y19853D01*
X140501Y19775D01*
X140409Y19748D01*
X140330Y19722D01*
X140278Y19696D01*
X140225Y19683D01*
X140199Y19670D01*
X140186D01*
X139845Y19578D01*
X139491Y19512D01*
X139151Y19460D01*
X138836Y19434D01*
X138692Y19421D01*
X138561Y19408D01*
X138443D01*
X138351Y19395D01*
X138154D01*
X137670Y19408D01*
X137211Y19460D01*
X137001Y19486D01*
X136805Y19526D01*
X136621Y19565D01*
X136451Y19591D01*
X136293Y19631D01*
X136162Y19670D01*
X136044Y19709D01*
X135940Y19735D01*
X135861Y19762D01*
X135808Y19788D01*
X135769Y19801D01*
X135756D01*
X135376Y19958D01*
X135048Y20155D01*
X134747Y20351D01*
X134498Y20548D01*
X134393Y20640D01*
X134301Y20718D01*
X134223Y20797D01*
X134157Y20863D01*
X134105Y20915D01*
X134065Y20954D01*
X134052Y20981D01*
X134039Y20994D01*
X133856Y21230D01*
X133698Y21479D01*
X133580Y21727D01*
X133476Y21963D01*
X133410Y22160D01*
X133384Y22252D01*
X133358Y22330D01*
X133344Y22383D01*
X133331Y22435D01*
X133318Y22462D01*
Y22475D01*
X133266Y22724D01*
X133226Y23012D01*
X133200Y23313D01*
X133174Y23602D01*
Y23851D01*
X133161Y23969D01*
Y24060D01*
Y24139D01*
Y24205D01*
Y24244D01*
Y24257D01*
Y27730D01*
X143240D01*
Y24100D01*
D02*
G37*
G36*
X415260Y28130D02*
X419152Y22901D01*
X417553D01*
X414997Y26387D01*
X414932Y26479D01*
X414866Y26583D01*
X414709Y26832D01*
X414631Y26937D01*
X414578Y27029D01*
X414539Y27081D01*
X414526Y27108D01*
X414368Y26885D01*
X414303Y26780D01*
X414237Y26688D01*
X414185Y26610D01*
X414146Y26544D01*
X414119Y26505D01*
X414106Y26492D01*
X411564Y22901D01*
X409925D01*
X413687Y28182D01*
X410201Y32979D01*
X411655D01*
X413661Y30293D01*
X413831Y30070D01*
X413975Y29873D01*
X414119Y29677D01*
X414237Y29506D01*
X414329Y29362D01*
X414394Y29257D01*
X414447Y29192D01*
X414460Y29165D01*
X414565Y29336D01*
X414683Y29532D01*
X414814Y29742D01*
X414945Y29939D01*
X415063Y30122D01*
X415168Y30266D01*
X415207Y30319D01*
X415233Y30358D01*
X415247Y30384D01*
X415260Y30397D01*
X417094Y32979D01*
X418693D01*
X415260Y28130D01*
D02*
G37*
G36*
X401204Y22901D02*
X399868D01*
Y27370D01*
X398138D01*
X397993Y27357D01*
X397862D01*
X397757Y27344D01*
X397679Y27331D01*
X397626D01*
X397600Y27317D01*
X397587D01*
X397364Y27239D01*
X397259Y27199D01*
X397168Y27147D01*
X397089Y27108D01*
X397037Y27068D01*
X396997Y27055D01*
X396984Y27042D01*
X396866Y26951D01*
X396748Y26859D01*
X396630Y26741D01*
X396525Y26623D01*
X396434Y26531D01*
X396368Y26439D01*
X396316Y26387D01*
X396303Y26361D01*
X396145Y26164D01*
X395988Y25941D01*
X395831Y25719D01*
X395674Y25496D01*
X395542Y25299D01*
X395477Y25207D01*
X395425Y25129D01*
X395385Y25076D01*
X395359Y25024D01*
X395333Y24998D01*
Y24985D01*
X394009Y22901D01*
X392331D01*
X394075Y25627D01*
X394271Y25915D01*
X394468Y26177D01*
X394651Y26413D01*
X394822Y26597D01*
X394979Y26754D01*
X395084Y26872D01*
X395162Y26937D01*
X395176Y26964D01*
X395189D01*
X395307Y27055D01*
X395425Y27147D01*
X395687Y27317D01*
X395805Y27383D01*
X395896Y27435D01*
X395962Y27462D01*
X395988Y27475D01*
X395726Y27514D01*
X395477Y27566D01*
X395254Y27632D01*
X395045Y27698D01*
X394848Y27776D01*
X394664Y27855D01*
X394507Y27933D01*
X394363Y28012D01*
X394245Y28091D01*
X394140Y28169D01*
X394048Y28235D01*
X393970Y28287D01*
X393917Y28340D01*
X393865Y28379D01*
X393852Y28392D01*
X393839Y28405D01*
X393721Y28549D01*
X393603Y28694D01*
X393511Y28851D01*
X393432Y28995D01*
X393314Y29297D01*
X393236Y29585D01*
X393183Y29834D01*
X393170Y29939D01*
X393157Y30031D01*
X393144Y30109D01*
Y30161D01*
Y30201D01*
Y30214D01*
X393157Y30515D01*
X393210Y30804D01*
X393275Y31066D01*
X393354Y31289D01*
X393432Y31472D01*
X393498Y31616D01*
X393524Y31669D01*
X393550Y31708D01*
X393563Y31721D01*
Y31734D01*
X393734Y31970D01*
X393917Y32180D01*
X394101Y32350D01*
X394284Y32481D01*
X394442Y32586D01*
X394573Y32652D01*
X394625Y32678D01*
X394664Y32691D01*
X394678Y32704D01*
X394691D01*
X394822Y32757D01*
X394979Y32796D01*
X395307Y32861D01*
X395647Y32914D01*
X395975Y32940D01*
X396132Y32953D01*
X396277Y32966D01*
X396394D01*
X396512Y32979D01*
X401204D01*
Y22901D01*
D02*
G37*
G36*
X406360Y9620D02*
X406596Y9607D01*
X406819Y9594D01*
X407042Y9581D01*
X407225Y9554D01*
X407409Y9541D01*
X407566Y9515D01*
X407710Y9489D01*
X407841Y9476D01*
X407946Y9450D01*
X408038Y9437D01*
X408104Y9423D01*
X408156Y9410D01*
X408182Y9397D01*
X408195D01*
X408510Y9305D01*
X408811Y9214D01*
X409060Y9109D01*
X409283Y9004D01*
X409467Y8912D01*
X409598Y8847D01*
X409637Y8821D01*
X409676Y8794D01*
X409689Y8781D01*
X409703D01*
X409925Y8624D01*
X410109Y8454D01*
X410266Y8283D01*
X410410Y8126D01*
X410515Y7982D01*
X410581Y7877D01*
X410633Y7798D01*
X410646Y7785D01*
Y7772D01*
X410751Y7536D01*
X410830Y7287D01*
X410895Y7051D01*
X410935Y6828D01*
X410961Y6632D01*
Y6553D01*
X410974Y6474D01*
Y6422D01*
Y6383D01*
Y6357D01*
Y6343D01*
Y6147D01*
X410948Y5950D01*
X410882Y5596D01*
X410790Y5282D01*
X410686Y5020D01*
X410620Y4902D01*
X410568Y4810D01*
X410515Y4718D01*
X410476Y4653D01*
X410437Y4600D01*
X410410Y4561D01*
X410397Y4535D01*
X410384Y4522D01*
X410148Y4273D01*
X409873Y4050D01*
X409585Y3866D01*
X409323Y3709D01*
X409073Y3591D01*
X408969Y3539D01*
X408877Y3499D01*
X408798Y3473D01*
X408746Y3447D01*
X408707Y3434D01*
X408693D01*
X408484Y3368D01*
X408261Y3316D01*
X407789Y3224D01*
X407304Y3159D01*
X406845Y3119D01*
X406636Y3093D01*
X406439D01*
X406269Y3080D01*
X406124Y3067D01*
X405823D01*
X405312Y3080D01*
X404827Y3106D01*
X404394Y3159D01*
X403988Y3224D01*
X403608Y3290D01*
X403280Y3381D01*
X402979Y3473D01*
X402704Y3565D01*
X402468Y3657D01*
X402271Y3735D01*
X402101Y3827D01*
X401957Y3893D01*
X401852Y3958D01*
X401786Y4011D01*
X401734Y4037D01*
X401721Y4050D01*
X401537Y4220D01*
X401380Y4391D01*
X401236Y4574D01*
X401118Y4758D01*
X401026Y4954D01*
X400934Y5151D01*
X400869Y5334D01*
X400816Y5518D01*
X400777Y5688D01*
X400738Y5845D01*
X400712Y5976D01*
X400699Y6108D01*
Y6199D01*
X400685Y6278D01*
Y6330D01*
Y6343D01*
X400699Y6540D01*
X400712Y6737D01*
X400777Y7090D01*
X400869Y7405D01*
X400987Y7667D01*
X401039Y7785D01*
X401092Y7877D01*
X401144Y7969D01*
X401183Y8034D01*
X401223Y8087D01*
X401249Y8139D01*
X401275Y8152D01*
Y8165D01*
X401511Y8427D01*
X401786Y8650D01*
X402062Y8834D01*
X402337Y8991D01*
X402573Y9109D01*
X402677Y9161D01*
X402769Y9201D01*
X402848Y9227D01*
X402900Y9253D01*
X402940Y9266D01*
X402953D01*
X403162Y9332D01*
X403385Y9384D01*
X403857Y9476D01*
X404342Y9541D01*
X404801Y9594D01*
X405010Y9607D01*
X405207Y9620D01*
X405377D01*
X405522Y9633D01*
X406098D01*
X406360Y9620D01*
D02*
G37*
G36*
X369924Y50722D02*
X362404D01*
X369924Y48173D01*
Y47128D01*
X362530Y44545D01*
X369924D01*
Y43420D01*
X361095D01*
Y44993D01*
X367237Y47117D01*
X367570Y47232D01*
X367857Y47323D01*
X368098Y47404D01*
X368305Y47473D01*
X368454Y47519D01*
X368569Y47553D01*
X368638Y47576D01*
X368661Y47587D01*
X368477Y47645D01*
X368270Y47714D01*
X368052Y47783D01*
X367846Y47852D01*
X367650Y47909D01*
X367570Y47943D01*
X367490Y47966D01*
X367432Y47989D01*
X367386Y48001D01*
X367363Y48012D01*
X367352D01*
X361095Y50102D01*
Y51847D01*
X369924D01*
Y50722D01*
D02*
G37*
G36*
X427444Y5442D02*
X427340Y5219D01*
X427235Y4996D01*
X427130Y4800D01*
X427038Y4629D01*
X426960Y4485D01*
X426933Y4433D01*
X426907Y4393D01*
X426894Y4380D01*
Y4367D01*
X426737Y4105D01*
X426580Y3882D01*
X426435Y3672D01*
X426304Y3502D01*
X426199Y3371D01*
X426108Y3266D01*
X426055Y3214D01*
X426042Y3187D01*
X433919D01*
Y1955D01*
X423801D01*
Y2755D01*
X424050Y2899D01*
X424286Y3070D01*
X424522Y3253D01*
X424718Y3423D01*
X424902Y3594D01*
X425033Y3725D01*
X425085Y3777D01*
X425125Y3817D01*
X425138Y3843D01*
X425151Y3856D01*
X425400Y4157D01*
X425623Y4459D01*
X425832Y4773D01*
X426003Y5049D01*
X426134Y5298D01*
X426199Y5402D01*
X426239Y5494D01*
X426278Y5560D01*
X426304Y5612D01*
X426330Y5651D01*
Y5665D01*
X427536D01*
X427444Y5442D01*
D02*
G37*
G36*
X217826Y195577D02*
X218180Y195512D01*
X218482Y195420D01*
X218757Y195315D01*
X218875Y195263D01*
X218980Y195224D01*
X219058Y195171D01*
X219137Y195132D01*
X219203Y195106D01*
X219242Y195079D01*
X219268Y195053D01*
X219281D01*
X219556Y194844D01*
X219806Y194608D01*
X220015Y194372D01*
X220186Y194136D01*
X220317Y193926D01*
X220369Y193834D01*
X220408Y193769D01*
X220448Y193703D01*
X220474Y193651D01*
X220487Y193625D01*
Y193611D01*
X220618Y193244D01*
X220710Y192864D01*
X220788Y192471D01*
X220828Y192117D01*
X220841Y191947D01*
X220854Y191803D01*
X220867Y191659D01*
Y191541D01*
X220880Y191449D01*
Y191383D01*
Y191331D01*
Y191318D01*
X220867Y190925D01*
X220815Y190558D01*
X220749Y190230D01*
X220684Y189955D01*
X220644Y189824D01*
X220605Y189719D01*
X220579Y189627D01*
X220553Y189535D01*
X220526Y189483D01*
X220500Y189431D01*
X220487Y189404D01*
Y189391D01*
X220330Y189090D01*
X220146Y188815D01*
X219963Y188592D01*
X219792Y188408D01*
X219635Y188264D01*
X219504Y188146D01*
X219452Y188120D01*
X219412Y188094D01*
X219399Y188067D01*
X219386D01*
X219124Y187910D01*
X218849Y187792D01*
X218600Y187714D01*
X218364Y187648D01*
X218167Y187622D01*
X218088Y187609D01*
X218010D01*
X217957Y187596D01*
X217879D01*
X217577Y187609D01*
X217315Y187661D01*
X217066Y187727D01*
X216856Y187805D01*
X216686Y187897D01*
X216555Y187963D01*
X216516Y187989D01*
X216476Y188015D01*
X216463Y188028D01*
X216450D01*
X216227Y188199D01*
X216018Y188408D01*
X215847Y188618D01*
X215690Y188828D01*
X215572Y189024D01*
X215493Y189181D01*
X215454Y189247D01*
X215428Y189286D01*
X215415Y189313D01*
Y189326D01*
X215362Y189444D01*
X215310Y189588D01*
X215257Y189758D01*
X215192Y189929D01*
X215087Y190296D01*
X214995Y190662D01*
X214943Y190846D01*
X214904Y191003D01*
X214864Y191161D01*
X214838Y191292D01*
X214812Y191397D01*
X214786Y191488D01*
X214773Y191541D01*
Y191554D01*
X214707Y191842D01*
X214641Y192104D01*
X214576Y192340D01*
X214510Y192550D01*
X214445Y192733D01*
X214393Y192891D01*
X214327Y193035D01*
X214275Y193166D01*
X214235Y193258D01*
X214196Y193349D01*
X214157Y193415D01*
X214117Y193467D01*
X214104Y193507D01*
X214078Y193533D01*
X214065Y193559D01*
X213921Y193690D01*
X213776Y193782D01*
X213632Y193847D01*
X213488Y193887D01*
X213357Y193913D01*
X213265Y193939D01*
X213174D01*
X212951Y193913D01*
X212741Y193847D01*
X212558Y193769D01*
X212400Y193664D01*
X212269Y193559D01*
X212178Y193480D01*
X212125Y193415D01*
X212099Y193389D01*
X212020Y193284D01*
X211955Y193153D01*
X211837Y192878D01*
X211758Y192589D01*
X211706Y192301D01*
X211679Y192039D01*
X211666Y191934D01*
X211653Y191829D01*
Y191750D01*
Y191685D01*
Y191646D01*
Y191632D01*
Y191423D01*
X211679Y191226D01*
X211693Y191043D01*
X211732Y190872D01*
X211771Y190715D01*
X211810Y190571D01*
X211850Y190440D01*
X211889Y190322D01*
X211942Y190230D01*
X211981Y190138D01*
X212020Y190060D01*
X212060Y189994D01*
X212099Y189955D01*
X212112Y189915D01*
X212138Y189889D01*
X212335Y189680D01*
X212571Y189522D01*
X212807Y189404D01*
X213029Y189313D01*
X213239Y189247D01*
X213331Y189221D01*
X213410Y189208D01*
X213475Y189195D01*
X213528Y189181D01*
X213567D01*
X213475Y187897D01*
X213160Y187923D01*
X212859Y187989D01*
X212597Y188067D01*
X212361Y188159D01*
X212164Y188251D01*
X212086Y188290D01*
X212020Y188316D01*
X211968Y188356D01*
X211929Y188369D01*
X211915Y188395D01*
X211902D01*
X211653Y188579D01*
X211430Y188801D01*
X211247Y189011D01*
X211103Y189234D01*
X210985Y189417D01*
X210893Y189575D01*
X210867Y189640D01*
X210841Y189680D01*
X210828Y189706D01*
Y189719D01*
X210710Y190047D01*
X210618Y190387D01*
X210552Y190715D01*
X210500Y191016D01*
X210487Y191161D01*
X210474Y191292D01*
Y191397D01*
X210461Y191501D01*
Y191580D01*
Y191632D01*
Y191672D01*
Y191685D01*
X210474Y192052D01*
X210513Y192406D01*
X210578Y192720D01*
X210631Y192995D01*
X210670Y193113D01*
X210697Y193218D01*
X210736Y193310D01*
X210762Y193389D01*
X210775Y193454D01*
X210801Y193493D01*
X210814Y193520D01*
Y193533D01*
X210959Y193821D01*
X211116Y194083D01*
X211286Y194293D01*
X211444Y194477D01*
X211588Y194608D01*
X211719Y194712D01*
X211797Y194765D01*
X211810Y194791D01*
X211824D01*
X212073Y194935D01*
X212322Y195040D01*
X212558Y195119D01*
X212780Y195171D01*
X212977Y195197D01*
X213121Y195210D01*
X213174Y195224D01*
X213252D01*
X213501Y195210D01*
X213737Y195171D01*
X213960Y195119D01*
X214144Y195053D01*
X214301Y194988D01*
X214406Y194935D01*
X214484Y194896D01*
X214497Y194883D01*
X214510D01*
X214707Y194739D01*
X214891Y194568D01*
X215048Y194385D01*
X215179Y194214D01*
X215297Y194057D01*
X215375Y193926D01*
X215402Y193874D01*
X215428Y193834D01*
X215441Y193821D01*
Y193808D01*
X215493Y193690D01*
X215559Y193559D01*
X215664Y193271D01*
X215782Y192943D01*
X215874Y192628D01*
X215965Y192327D01*
X215991Y192209D01*
X216031Y192091D01*
X216044Y191999D01*
X216070Y191934D01*
X216083Y191881D01*
Y191868D01*
X216149Y191619D01*
X216201Y191397D01*
X216254Y191187D01*
X216293Y191003D01*
X216345Y190833D01*
X216385Y190689D01*
X216411Y190558D01*
X216450Y190453D01*
X216476Y190348D01*
X216503Y190269D01*
X216516Y190204D01*
X216542Y190151D01*
X216555Y190099D01*
X216568Y190073D01*
X216660Y189850D01*
X216765Y189666D01*
X216856Y189509D01*
X216948Y189378D01*
X217027Y189286D01*
X217092Y189221D01*
X217145Y189181D01*
X217158Y189168D01*
X217289Y189077D01*
X217433Y188998D01*
X217577Y188946D01*
X217708Y188919D01*
X217813Y188893D01*
X217905Y188880D01*
X217984D01*
X218154Y188893D01*
X218311Y188919D01*
X218456Y188972D01*
X218587Y189024D01*
X218691Y189077D01*
X218783Y189129D01*
X218836Y189155D01*
X218849Y189168D01*
X218993Y189286D01*
X219111Y189431D01*
X219216Y189575D01*
X219307Y189719D01*
X219373Y189850D01*
X219425Y189955D01*
X219452Y190020D01*
X219465Y190033D01*
Y190047D01*
X219543Y190269D01*
X219596Y190492D01*
X219635Y190728D01*
X219661Y190925D01*
X219674Y191108D01*
X219688Y191252D01*
Y191305D01*
Y191344D01*
Y191370D01*
Y191383D01*
X219674Y191698D01*
X219648Y191986D01*
X219596Y192248D01*
X219543Y192471D01*
X219491Y192668D01*
X219465Y192746D01*
X219438Y192812D01*
X219425Y192864D01*
X219412Y192904D01*
X219399Y192917D01*
Y192930D01*
X219281Y193166D01*
X219150Y193375D01*
X219019Y193546D01*
X218888Y193690D01*
X218783Y193795D01*
X218691Y193874D01*
X218639Y193926D01*
X218613Y193939D01*
X218416Y194044D01*
X218207Y194136D01*
X217997Y194214D01*
X217800Y194267D01*
X217617Y194306D01*
X217486Y194332D01*
X217433D01*
X217394Y194345D01*
X217355D01*
X217459Y195604D01*
X217826Y195577D01*
D02*
G37*
G36*
X307867Y200153D02*
X307696Y199969D01*
X307578Y199812D01*
X307473Y199668D01*
X307408Y199550D01*
X307355Y199471D01*
X307329Y199419D01*
X307316Y199406D01*
X307251Y199262D01*
X307198Y199104D01*
X307172Y198973D01*
X307146Y198842D01*
X307133Y198737D01*
X307120Y198659D01*
Y198593D01*
Y198580D01*
X307133Y198357D01*
X307172Y198134D01*
X307237Y197912D01*
X307303Y197689D01*
X307369Y197505D01*
X307434Y197348D01*
X307447Y197296D01*
X307473Y197256D01*
X307486Y197230D01*
Y197217D01*
X307618Y196929D01*
X307709Y196693D01*
X307788Y196483D01*
X307854Y196326D01*
X307893Y196195D01*
X307919Y196103D01*
X307945Y196050D01*
Y196037D01*
X307998Y195749D01*
X308011Y195618D01*
X308024Y195500D01*
X308037Y195395D01*
Y195317D01*
Y195264D01*
Y195251D01*
X308024Y195041D01*
X308011Y194858D01*
X307985Y194687D01*
X307945Y194530D01*
X307906Y194412D01*
X307880Y194321D01*
X307867Y194268D01*
X307854Y194242D01*
X307775Y194071D01*
X307683Y193901D01*
X307578Y193757D01*
X307486Y193613D01*
X307395Y193508D01*
X307316Y193416D01*
X307264Y193351D01*
X307251Y193337D01*
X305796D01*
X305940Y193482D01*
X306071Y193639D01*
X306189Y193783D01*
X306294Y193914D01*
X306373Y194032D01*
X306425Y194124D01*
X306464Y194176D01*
X306477Y194202D01*
X306569Y194373D01*
X306635Y194543D01*
X306674Y194701D01*
X306700Y194832D01*
X306726Y194950D01*
X306739Y195041D01*
Y195094D01*
Y195120D01*
X306726Y195290D01*
X306713Y195448D01*
X306700Y195500D01*
Y195553D01*
X306687Y195579D01*
Y195592D01*
X306661Y195683D01*
X306621Y195802D01*
X306530Y196037D01*
X306490Y196142D01*
X306451Y196221D01*
X306438Y196273D01*
X306425Y196299D01*
X306307Y196601D01*
X306202Y196850D01*
X306123Y197073D01*
X306058Y197256D01*
X306005Y197414D01*
X305979Y197505D01*
X305953Y197571D01*
Y197597D01*
X305874Y197925D01*
X305848Y198069D01*
X305835Y198200D01*
X305822Y198305D01*
Y198383D01*
Y198449D01*
Y198462D01*
X305835Y198672D01*
X305861Y198881D01*
X305901Y199078D01*
X305953Y199262D01*
X306084Y199576D01*
X306150Y199720D01*
X306228Y199851D01*
X306307Y199969D01*
X306373Y200074D01*
X306451Y200153D01*
X306504Y200231D01*
X306556Y200284D01*
X306595Y200323D01*
X306621Y200349D01*
X306635Y200362D01*
X308050D01*
X307867Y200153D01*
D02*
G37*
G36*
X447724Y22730D02*
X446440D01*
Y30633D01*
X441158Y22730D01*
X439781D01*
Y32809D01*
X441066D01*
Y24893D01*
X446361Y32809D01*
X447724D01*
Y22730D01*
D02*
G37*
G36*
X334537Y201423D02*
X334366Y201239D01*
X334248Y201082D01*
X334143Y200938D01*
X334078Y200820D01*
X334025Y200741D01*
X333999Y200689D01*
X333986Y200676D01*
X333921Y200532D01*
X333868Y200374D01*
X333842Y200243D01*
X333816Y200112D01*
X333803Y200007D01*
X333789Y199929D01*
Y199863D01*
Y199850D01*
X333803Y199627D01*
X333842Y199404D01*
X333908Y199182D01*
X333973Y198959D01*
X334039Y198775D01*
X334104Y198618D01*
X334117Y198566D01*
X334143Y198526D01*
X334156Y198500D01*
Y198487D01*
X334288Y198199D01*
X334379Y197963D01*
X334458Y197753D01*
X334524Y197596D01*
X334563Y197465D01*
X334589Y197373D01*
X334615Y197320D01*
Y197307D01*
X334668Y197019D01*
X334681Y196888D01*
X334694Y196770D01*
X334707Y196665D01*
Y196587D01*
Y196534D01*
Y196521D01*
X334694Y196311D01*
X334681Y196128D01*
X334655Y195957D01*
X334615Y195800D01*
X334576Y195682D01*
X334550Y195590D01*
X334537Y195538D01*
X334524Y195512D01*
X334445Y195341D01*
X334353Y195171D01*
X334248Y195027D01*
X334156Y194883D01*
X334065Y194778D01*
X333986Y194686D01*
X333934Y194621D01*
X333921Y194608D01*
X332466D01*
X332610Y194752D01*
X332741Y194909D01*
X332859Y195053D01*
X332964Y195184D01*
X333042Y195302D01*
X333095Y195394D01*
X333134Y195446D01*
X333147Y195473D01*
X333239Y195643D01*
X333305Y195813D01*
X333344Y195971D01*
X333370Y196102D01*
X333396Y196220D01*
X333409Y196311D01*
Y196364D01*
Y196390D01*
X333396Y196560D01*
X333383Y196718D01*
X333370Y196770D01*
Y196822D01*
X333357Y196849D01*
Y196862D01*
X333331Y196954D01*
X333292Y197071D01*
X333200Y197307D01*
X333160Y197412D01*
X333121Y197491D01*
X333108Y197543D01*
X333095Y197570D01*
X332977Y197871D01*
X332872Y198120D01*
X332793Y198343D01*
X332728Y198526D01*
X332676Y198684D01*
X332649Y198775D01*
X332623Y198841D01*
Y198867D01*
X332544Y199195D01*
X332518Y199339D01*
X332505Y199470D01*
X332492Y199575D01*
Y199653D01*
Y199719D01*
Y199732D01*
X332505Y199942D01*
X332531Y200152D01*
X332571Y200348D01*
X332623Y200532D01*
X332754Y200846D01*
X332820Y200990D01*
X332898Y201121D01*
X332977Y201239D01*
X333042Y201344D01*
X333121Y201423D01*
X333173Y201502D01*
X333226Y201554D01*
X333265Y201593D01*
X333292Y201619D01*
X333305Y201632D01*
X334720D01*
X334537Y201423D01*
D02*
G37*
G36*
X282467Y200153D02*
X282296Y199969D01*
X282178Y199812D01*
X282073Y199668D01*
X282008Y199550D01*
X281955Y199471D01*
X281929Y199419D01*
X281916Y199406D01*
X281851Y199262D01*
X281798Y199104D01*
X281772Y198973D01*
X281746Y198842D01*
X281733Y198737D01*
X281719Y198659D01*
Y198593D01*
Y198580D01*
X281733Y198357D01*
X281772Y198134D01*
X281838Y197912D01*
X281903Y197689D01*
X281968Y197505D01*
X282034Y197348D01*
X282047Y197296D01*
X282073Y197256D01*
X282087Y197230D01*
Y197217D01*
X282218Y196929D01*
X282309Y196693D01*
X282388Y196483D01*
X282453Y196326D01*
X282493Y196195D01*
X282519Y196103D01*
X282545Y196050D01*
Y196037D01*
X282598Y195749D01*
X282611Y195618D01*
X282624Y195500D01*
X282637Y195395D01*
Y195317D01*
Y195264D01*
Y195251D01*
X282624Y195041D01*
X282611Y194858D01*
X282585Y194687D01*
X282545Y194530D01*
X282506Y194412D01*
X282480Y194321D01*
X282467Y194268D01*
X282453Y194242D01*
X282375Y194071D01*
X282283Y193901D01*
X282178Y193757D01*
X282087Y193613D01*
X281995Y193508D01*
X281916Y193416D01*
X281864Y193351D01*
X281851Y193337D01*
X280396D01*
X280540Y193482D01*
X280671Y193639D01*
X280789Y193783D01*
X280894Y193914D01*
X280972Y194032D01*
X281025Y194124D01*
X281064Y194176D01*
X281077Y194202D01*
X281169Y194373D01*
X281235Y194543D01*
X281274Y194701D01*
X281300Y194832D01*
X281326Y194950D01*
X281339Y195041D01*
Y195094D01*
Y195120D01*
X281326Y195290D01*
X281313Y195448D01*
X281300Y195500D01*
Y195553D01*
X281287Y195579D01*
Y195592D01*
X281261Y195683D01*
X281222Y195802D01*
X281130Y196037D01*
X281090Y196142D01*
X281051Y196221D01*
X281038Y196273D01*
X281025Y196299D01*
X280907Y196601D01*
X280802Y196850D01*
X280723Y197073D01*
X280658Y197256D01*
X280606Y197414D01*
X280579Y197505D01*
X280553Y197571D01*
Y197597D01*
X280474Y197925D01*
X280448Y198069D01*
X280435Y198200D01*
X280422Y198305D01*
Y198383D01*
Y198449D01*
Y198462D01*
X280435Y198672D01*
X280461Y198881D01*
X280501Y199078D01*
X280553Y199262D01*
X280684Y199576D01*
X280750Y199720D01*
X280828Y199851D01*
X280907Y199969D01*
X280972Y200074D01*
X281051Y200153D01*
X281103Y200231D01*
X281156Y200284D01*
X281195Y200323D01*
X281222Y200349D01*
X281235Y200362D01*
X282650D01*
X282467Y200153D01*
D02*
G37*
G36*
X220710Y181999D02*
X220697Y181645D01*
X220684Y181331D01*
X220657Y181056D01*
X220631Y180820D01*
X220605Y180636D01*
X220592Y180557D01*
X220579Y180492D01*
X220566Y180439D01*
X220553Y180400D01*
Y180387D01*
Y180374D01*
X220487Y180138D01*
X220408Y179915D01*
X220317Y179732D01*
X220238Y179575D01*
X220172Y179443D01*
X220107Y179352D01*
X220068Y179286D01*
X220054Y179273D01*
X219910Y179116D01*
X219766Y178972D01*
X219609Y178841D01*
X219452Y178736D01*
X219321Y178644D01*
X219216Y178578D01*
X219137Y178539D01*
X219111Y178526D01*
X218875Y178421D01*
X218652Y178356D01*
X218429Y178303D01*
X218233Y178264D01*
X218049Y178238D01*
X217918Y178225D01*
X217800D01*
X217486Y178251D01*
X217197Y178303D01*
X216935Y178382D01*
X216712Y178474D01*
X216529Y178565D01*
X216398Y178644D01*
X216345Y178670D01*
X216306Y178696D01*
X216293Y178723D01*
X216280D01*
X216057Y178919D01*
X215860Y179142D01*
X215703Y179378D01*
X215572Y179601D01*
X215467Y179810D01*
X215428Y179902D01*
X215402Y179968D01*
X215375Y180033D01*
X215362Y180086D01*
X215349Y180112D01*
Y180125D01*
X215218Y179876D01*
X215061Y179666D01*
X214917Y179483D01*
X214773Y179326D01*
X214641Y179207D01*
X214537Y179129D01*
X214471Y179076D01*
X214445Y179063D01*
X214222Y178945D01*
X214012Y178854D01*
X213803Y178801D01*
X213606Y178749D01*
X213449Y178723D01*
X213318Y178710D01*
X213213D01*
X212951Y178723D01*
X212715Y178775D01*
X212492Y178841D01*
X212295Y178906D01*
X212125Y178985D01*
X211994Y179050D01*
X211915Y179103D01*
X211902Y179116D01*
X211889D01*
X211666Y179273D01*
X211470Y179457D01*
X211313Y179627D01*
X211181Y179810D01*
X211077Y179968D01*
X210998Y180086D01*
X210972Y180138D01*
X210959Y180177D01*
X210945Y180191D01*
Y180204D01*
X210841Y180479D01*
X210762Y180780D01*
X210710Y181095D01*
X210670Y181383D01*
X210644Y181645D01*
Y181763D01*
X210631Y181855D01*
Y181934D01*
Y181999D01*
Y182038D01*
Y182052D01*
Y185826D01*
X220710D01*
Y181999D01*
D02*
G37*
G36*
X138535Y49172D02*
X138797Y49159D01*
X139308Y49094D01*
X139544Y49041D01*
X139754Y48989D01*
X139963Y48936D01*
X140160Y48871D01*
X140330Y48818D01*
X140487Y48766D01*
X140618Y48714D01*
X140737Y48661D01*
X140828Y48622D01*
X140894Y48596D01*
X140933Y48569D01*
X140946D01*
X141169Y48451D01*
X141366Y48320D01*
X141562Y48176D01*
X141733Y48019D01*
X141903Y47875D01*
X142047Y47717D01*
X142191Y47573D01*
X142309Y47429D01*
X142414Y47285D01*
X142519Y47167D01*
X142598Y47049D01*
X142663Y46944D01*
X142716Y46866D01*
X142755Y46800D01*
X142768Y46761D01*
X142781Y46748D01*
X142886Y46512D01*
X142991Y46276D01*
X143148Y45817D01*
X143253Y45358D01*
X143292Y45149D01*
X143331Y44939D01*
X143358Y44756D01*
X143371Y44585D01*
X143397Y44428D01*
Y44297D01*
X143410Y44192D01*
Y44113D01*
Y44061D01*
Y44048D01*
X143397Y43641D01*
X143345Y43248D01*
X143279Y42881D01*
X143214Y42554D01*
X143174Y42422D01*
X143135Y42291D01*
X143109Y42174D01*
X143083Y42082D01*
X143056Y42003D01*
X143030Y41951D01*
X143017Y41911D01*
Y41898D01*
X142860Y41505D01*
X142663Y41138D01*
X142480Y40797D01*
X142283Y40483D01*
X142191Y40352D01*
X142113Y40234D01*
X142047Y40129D01*
X141982Y40037D01*
X141929Y39959D01*
X141890Y39906D01*
X141864Y39880D01*
X141851Y39867D01*
X138102D01*
Y44139D01*
X139295D01*
Y41177D01*
X141182D01*
X141326Y41361D01*
X141457Y41557D01*
X141575Y41767D01*
X141680Y41964D01*
X141772Y42147D01*
X141837Y42305D01*
X141851Y42357D01*
X141877Y42396D01*
X141890Y42422D01*
Y42436D01*
X141995Y42750D01*
X142073Y43052D01*
X142139Y43327D01*
X142178Y43589D01*
X142204Y43812D01*
Y43903D01*
X142218Y43982D01*
Y44035D01*
Y44087D01*
Y44113D01*
Y44126D01*
X142204Y44493D01*
X142152Y44847D01*
X142086Y45162D01*
X141995Y45437D01*
X141955Y45568D01*
X141916Y45673D01*
X141890Y45778D01*
X141851Y45856D01*
X141824Y45922D01*
X141798Y45974D01*
X141785Y46001D01*
Y46014D01*
X141601Y46328D01*
X141392Y46590D01*
X141156Y46826D01*
X140946Y47010D01*
X140750Y47154D01*
X140658Y47220D01*
X140579Y47259D01*
X140527Y47298D01*
X140474Y47324D01*
X140448Y47351D01*
X140435D01*
X140081Y47508D01*
X139701Y47613D01*
X139321Y47691D01*
X138967Y47757D01*
X138810Y47770D01*
X138653Y47783D01*
X138521Y47796D01*
X138404D01*
X138312Y47809D01*
X138181D01*
X137774Y47796D01*
X137394Y47744D01*
X137054Y47691D01*
X136752Y47613D01*
X136621Y47586D01*
X136503Y47547D01*
X136398Y47521D01*
X136306Y47482D01*
X136241Y47469D01*
X136189Y47442D01*
X136162Y47429D01*
X136149D01*
X135953Y47337D01*
X135756Y47233D01*
X135586Y47128D01*
X135442Y47036D01*
X135323Y46944D01*
X135232Y46866D01*
X135179Y46813D01*
X135153Y46800D01*
X134996Y46643D01*
X134839Y46459D01*
X134721Y46276D01*
X134616Y46105D01*
X134524Y45961D01*
X134472Y45830D01*
X134432Y45752D01*
X134419Y45738D01*
Y45725D01*
X134327Y45463D01*
X134249Y45201D01*
X134196Y44926D01*
X134170Y44677D01*
X134144Y44467D01*
Y44375D01*
X134131Y44297D01*
Y44231D01*
Y44179D01*
Y44153D01*
Y44139D01*
X134144Y43864D01*
X134170Y43602D01*
X134223Y43366D01*
X134262Y43170D01*
X134314Y42999D01*
X134367Y42868D01*
X134393Y42790D01*
X134406Y42776D01*
Y42763D01*
X134511Y42540D01*
X134629Y42344D01*
X134747Y42174D01*
X134852Y42042D01*
X134957Y41938D01*
X135035Y41859D01*
X135088Y41807D01*
X135114Y41793D01*
X135284Y41676D01*
X135481Y41557D01*
X135690Y41466D01*
X135874Y41387D01*
X136058Y41322D01*
X136189Y41269D01*
X136241Y41256D01*
X136280Y41243D01*
X136306Y41230D01*
X136320D01*
X135992Y40024D01*
X135625Y40129D01*
X135297Y40260D01*
X135022Y40378D01*
X134786Y40509D01*
X134590Y40627D01*
X134511Y40666D01*
X134459Y40719D01*
X134406Y40745D01*
X134367Y40771D01*
X134354Y40797D01*
X134340D01*
X134118Y40994D01*
X133921Y41217D01*
X133751Y41453D01*
X133607Y41676D01*
X133502Y41872D01*
X133462Y41951D01*
X133423Y42029D01*
X133397Y42095D01*
X133371Y42134D01*
X133358Y42160D01*
Y42174D01*
X133240Y42514D01*
X133148Y42855D01*
X133082Y43183D01*
X133030Y43497D01*
X133017Y43628D01*
X133004Y43759D01*
Y43864D01*
X132991Y43969D01*
Y44048D01*
Y44100D01*
Y44139D01*
Y44153D01*
X133004Y44428D01*
X133017Y44690D01*
X133082Y45201D01*
X133135Y45437D01*
X133187Y45647D01*
X133240Y45856D01*
X133305Y46040D01*
X133358Y46210D01*
X133423Y46368D01*
X133476Y46499D01*
X133515Y46603D01*
X133567Y46695D01*
X133594Y46761D01*
X133607Y46800D01*
X133620Y46813D01*
X133738Y47023D01*
X133882Y47220D01*
X134170Y47573D01*
X134327Y47731D01*
X134485Y47875D01*
X134642Y48006D01*
X134799Y48124D01*
X134943Y48229D01*
X135075Y48320D01*
X135192Y48399D01*
X135297Y48465D01*
X135389Y48517D01*
X135455Y48556D01*
X135494Y48569D01*
X135507Y48583D01*
X135743Y48687D01*
X135992Y48779D01*
X136477Y48936D01*
X136936Y49041D01*
X137158Y49081D01*
X137355Y49107D01*
X137552Y49133D01*
X137722Y49159D01*
X137879Y49172D01*
X138010D01*
X138115Y49185D01*
X138259D01*
X138535Y49172D01*
D02*
G37*
G36*
X143240Y36630D02*
X135337D01*
X143240Y31348D01*
Y29971D01*
X133161D01*
Y31256D01*
X141077D01*
X133161Y36551D01*
Y37914D01*
X143240D01*
Y36630D01*
D02*
G37*
G36*
X454238Y32966D02*
X454500Y32953D01*
X455011Y32888D01*
X455247Y32835D01*
X455457Y32783D01*
X455666Y32730D01*
X455850Y32665D01*
X456020Y32612D01*
X456177Y32547D01*
X456309Y32494D01*
X456413Y32455D01*
X456505Y32403D01*
X456571Y32376D01*
X456610Y32363D01*
X456623Y32350D01*
X456833Y32232D01*
X457029Y32088D01*
X457383Y31800D01*
X457541Y31643D01*
X457685Y31485D01*
X457816Y31328D01*
X457934Y31171D01*
X458039Y31027D01*
X458130Y30896D01*
X458209Y30777D01*
X458275Y30673D01*
X458327Y30581D01*
X458366Y30515D01*
X458379Y30476D01*
X458392Y30463D01*
X458497Y30227D01*
X458589Y29978D01*
X458746Y29493D01*
X458851Y29034D01*
X458891Y28812D01*
X458917Y28615D01*
X458943Y28418D01*
X458969Y28248D01*
X458982Y28091D01*
Y27960D01*
X458995Y27855D01*
Y27776D01*
Y27724D01*
Y27711D01*
X458982Y27435D01*
X458969Y27173D01*
X458904Y26662D01*
X458851Y26426D01*
X458799Y26216D01*
X458746Y26007D01*
X458681Y25810D01*
X458628Y25640D01*
X458576Y25482D01*
X458524Y25352D01*
X458471Y25234D01*
X458432Y25142D01*
X458406Y25076D01*
X458379Y25037D01*
Y25024D01*
X458261Y24801D01*
X458130Y24604D01*
X457986Y24408D01*
X457829Y24237D01*
X457685Y24067D01*
X457528Y23923D01*
X457383Y23779D01*
X457239Y23661D01*
X457095Y23556D01*
X456977Y23451D01*
X456859Y23372D01*
X456754Y23307D01*
X456676Y23254D01*
X456610Y23215D01*
X456571Y23202D01*
X456558Y23189D01*
X456322Y23084D01*
X456086Y22979D01*
X455627Y22822D01*
X455168Y22717D01*
X454959Y22678D01*
X454749Y22638D01*
X454566Y22612D01*
X454395Y22599D01*
X454238Y22573D01*
X454107D01*
X454002Y22560D01*
X453858D01*
X453451Y22573D01*
X453058Y22625D01*
X452691Y22691D01*
X452364Y22756D01*
X452233Y22796D01*
X452102Y22835D01*
X451983Y22861D01*
X451892Y22887D01*
X451813Y22914D01*
X451761Y22940D01*
X451721Y22953D01*
X451708D01*
X451315Y23110D01*
X450948Y23307D01*
X450607Y23490D01*
X450293Y23687D01*
X450162Y23779D01*
X450044Y23857D01*
X449939Y23923D01*
X449847Y23988D01*
X449768Y24041D01*
X449716Y24080D01*
X449690Y24106D01*
X449677Y24120D01*
Y27868D01*
X453950D01*
Y26675D01*
X450987D01*
Y24788D01*
X451171Y24644D01*
X451367Y24513D01*
X451577Y24395D01*
X451774Y24290D01*
X451957Y24198D01*
X452115Y24133D01*
X452167Y24120D01*
X452206Y24093D01*
X452233Y24080D01*
X452246D01*
X452560Y23975D01*
X452862Y23897D01*
X453137Y23831D01*
X453399Y23792D01*
X453622Y23766D01*
X453713D01*
X453792Y23753D01*
X453936D01*
X454303Y23766D01*
X454657Y23818D01*
X454972Y23884D01*
X455247Y23975D01*
X455378Y24015D01*
X455483Y24054D01*
X455588Y24080D01*
X455666Y24120D01*
X455732Y24146D01*
X455784Y24172D01*
X455811Y24185D01*
X455824D01*
X456138Y24369D01*
X456400Y24578D01*
X456636Y24814D01*
X456820Y25024D01*
X456964Y25220D01*
X457029Y25312D01*
X457069Y25391D01*
X457108Y25443D01*
X457134Y25496D01*
X457160Y25522D01*
Y25535D01*
X457318Y25889D01*
X457423Y26269D01*
X457501Y26649D01*
X457567Y27003D01*
X457580Y27160D01*
X457593Y27317D01*
X457606Y27448D01*
Y27566D01*
X457619Y27658D01*
Y27724D01*
Y27776D01*
Y27789D01*
X457606Y28196D01*
X457554Y28576D01*
X457501Y28916D01*
X457423Y29218D01*
X457396Y29349D01*
X457357Y29467D01*
X457331Y29572D01*
X457292Y29664D01*
X457279Y29729D01*
X457252Y29781D01*
X457239Y29808D01*
Y29821D01*
X457147Y30017D01*
X457043Y30214D01*
X456938Y30384D01*
X456846Y30529D01*
X456754Y30647D01*
X456676Y30738D01*
X456623Y30791D01*
X456610Y30817D01*
X456453Y30974D01*
X456269Y31131D01*
X456086Y31249D01*
X455915Y31354D01*
X455771Y31446D01*
X455640Y31498D01*
X455561Y31538D01*
X455548Y31551D01*
X455535D01*
X455273Y31643D01*
X455011Y31721D01*
X454736Y31774D01*
X454487Y31800D01*
X454277Y31826D01*
X454185D01*
X454107Y31839D01*
X453950D01*
X453674Y31826D01*
X453412Y31800D01*
X453176Y31747D01*
X452980Y31708D01*
X452809Y31656D01*
X452678Y31603D01*
X452599Y31577D01*
X452586Y31564D01*
X452573D01*
X452351Y31459D01*
X452154Y31341D01*
X451983Y31223D01*
X451852Y31118D01*
X451748Y31014D01*
X451669Y30935D01*
X451617Y30882D01*
X451603Y30856D01*
X451485Y30686D01*
X451367Y30489D01*
X451276Y30280D01*
X451197Y30096D01*
X451132Y29913D01*
X451079Y29781D01*
X451066Y29729D01*
X451053Y29690D01*
X451040Y29664D01*
Y29650D01*
X449834Y29978D01*
X449939Y30345D01*
X450070Y30673D01*
X450188Y30948D01*
X450319Y31184D01*
X450437Y31380D01*
X450476Y31459D01*
X450529Y31511D01*
X450555Y31564D01*
X450581Y31603D01*
X450607Y31616D01*
Y31630D01*
X450804Y31852D01*
X451027Y32049D01*
X451263Y32219D01*
X451485Y32363D01*
X451682Y32468D01*
X451761Y32508D01*
X451839Y32547D01*
X451905Y32573D01*
X451944Y32599D01*
X451970Y32612D01*
X451983D01*
X452324Y32730D01*
X452665Y32822D01*
X452993Y32888D01*
X453307Y32940D01*
X453438Y32953D01*
X453569Y32966D01*
X453674D01*
X453779Y32979D01*
X453963D01*
X454238Y32966D01*
D02*
G37*
G36*
X437540Y22730D02*
X433910D01*
X433582Y22743D01*
X433268Y22756D01*
X432992Y22783D01*
X432756Y22822D01*
X432560Y22848D01*
X432481Y22861D01*
X432416Y22874D01*
X432363Y22887D01*
X432324D01*
X432311Y22901D01*
X432298D01*
X432049Y22966D01*
X431813Y23045D01*
X431603Y23136D01*
X431433Y23215D01*
X431288Y23281D01*
X431184Y23346D01*
X431118Y23386D01*
X431092Y23399D01*
X430908Y23543D01*
X430725Y23687D01*
X430568Y23844D01*
X430437Y23988D01*
X430319Y24120D01*
X430240Y24224D01*
X430174Y24290D01*
X430161Y24316D01*
X430017Y24539D01*
X429873Y24788D01*
X429755Y25037D01*
X429663Y25273D01*
X429585Y25469D01*
X429558Y25561D01*
X429532Y25640D01*
X429506Y25692D01*
X429493Y25745D01*
X429480Y25771D01*
Y25784D01*
X429388Y26125D01*
X429323Y26479D01*
X429270Y26819D01*
X429244Y27134D01*
X429231Y27278D01*
X429218Y27409D01*
Y27527D01*
X429205Y27619D01*
Y27711D01*
Y27763D01*
Y27802D01*
Y27815D01*
X429218Y28300D01*
X429270Y28759D01*
X429296Y28969D01*
X429336Y29165D01*
X429375Y29349D01*
X429401Y29519D01*
X429440Y29677D01*
X429480Y29808D01*
X429519Y29926D01*
X429545Y30031D01*
X429572Y30109D01*
X429598Y30161D01*
X429611Y30201D01*
Y30214D01*
X429768Y30594D01*
X429965Y30922D01*
X430161Y31223D01*
X430358Y31472D01*
X430450Y31577D01*
X430528Y31669D01*
X430607Y31747D01*
X430672Y31813D01*
X430725Y31865D01*
X430764Y31905D01*
X430790Y31918D01*
X430804Y31931D01*
X431040Y32114D01*
X431288Y32272D01*
X431538Y32390D01*
X431773Y32494D01*
X431970Y32560D01*
X432062Y32586D01*
X432140Y32612D01*
X432193Y32626D01*
X432245Y32639D01*
X432271Y32652D01*
X432285D01*
X432534Y32704D01*
X432822Y32743D01*
X433123Y32770D01*
X433412Y32796D01*
X433661D01*
X433779Y32809D01*
X437540D01*
Y22730D01*
D02*
G37*
G36*
X369924Y40171D02*
X361095D01*
Y41342D01*
X369924D01*
Y40171D01*
D02*
G37*
G36*
X318156Y49676D02*
X318510Y49610D01*
X318812Y49518D01*
X319087Y49413D01*
X319205Y49361D01*
X319310Y49322D01*
X319388Y49269D01*
X319467Y49230D01*
X319533Y49204D01*
X319572Y49177D01*
X319598Y49151D01*
X319611D01*
X319886Y48942D01*
X320135Y48706D01*
X320345Y48470D01*
X320516Y48234D01*
X320647Y48024D01*
X320699Y47932D01*
X320738Y47867D01*
X320778Y47801D01*
X320804Y47749D01*
X320817Y47723D01*
Y47710D01*
X320948Y47343D01*
X321040Y46963D01*
X321118Y46569D01*
X321158Y46216D01*
X321171Y46045D01*
X321184Y45901D01*
X321197Y45757D01*
Y45639D01*
X321210Y45547D01*
Y45482D01*
Y45429D01*
Y45416D01*
X321197Y45023D01*
X321145Y44656D01*
X321079Y44328D01*
X321014Y44053D01*
X320974Y43922D01*
X320935Y43817D01*
X320909Y43725D01*
X320882Y43633D01*
X320856Y43581D01*
X320830Y43529D01*
X320817Y43502D01*
Y43489D01*
X320660Y43188D01*
X320476Y42913D01*
X320293Y42690D01*
X320122Y42506D01*
X319965Y42362D01*
X319834Y42244D01*
X319782Y42218D01*
X319742Y42192D01*
X319729Y42166D01*
X319716D01*
X319454Y42008D01*
X319179Y41890D01*
X318930Y41812D01*
X318694Y41746D01*
X318497Y41720D01*
X318419Y41707D01*
X318340D01*
X318288Y41694D01*
X318209D01*
X317907Y41707D01*
X317645Y41759D01*
X317396Y41825D01*
X317187Y41904D01*
X317016Y41995D01*
X316885Y42061D01*
X316846Y42087D01*
X316806Y42113D01*
X316793Y42126D01*
X316780D01*
X316557Y42297D01*
X316348Y42506D01*
X316177Y42716D01*
X316020Y42926D01*
X315902Y43122D01*
X315823Y43280D01*
X315784Y43345D01*
X315758Y43384D01*
X315745Y43411D01*
Y43424D01*
X315692Y43542D01*
X315640Y43686D01*
X315588Y43856D01*
X315522Y44027D01*
X315417Y44394D01*
X315325Y44761D01*
X315273Y44944D01*
X315234Y45101D01*
X315194Y45259D01*
X315168Y45390D01*
X315142Y45495D01*
X315116Y45586D01*
X315103Y45639D01*
Y45652D01*
X315037Y45940D01*
X314972Y46202D01*
X314906Y46438D01*
X314841Y46648D01*
X314775Y46831D01*
X314722Y46989D01*
X314657Y47133D01*
X314605Y47264D01*
X314565Y47356D01*
X314526Y47448D01*
X314487Y47513D01*
X314447Y47565D01*
X314434Y47605D01*
X314408Y47631D01*
X314395Y47657D01*
X314251Y47788D01*
X314107Y47880D01*
X313962Y47945D01*
X313818Y47985D01*
X313687Y48011D01*
X313595Y48037D01*
X313504D01*
X313281Y48011D01*
X313071Y47945D01*
X312888Y47867D01*
X312730Y47762D01*
X312599Y47657D01*
X312507Y47579D01*
X312455Y47513D01*
X312429Y47487D01*
X312350Y47382D01*
X312285Y47251D01*
X312167Y46976D01*
X312088Y46687D01*
X312036Y46399D01*
X312010Y46137D01*
X311996Y46032D01*
X311983Y45927D01*
Y45848D01*
Y45783D01*
Y45744D01*
Y45731D01*
Y45521D01*
X312010Y45324D01*
X312023Y45141D01*
X312062Y44970D01*
X312101Y44813D01*
X312141Y44669D01*
X312180Y44538D01*
X312219Y44420D01*
X312272Y44328D01*
X312311Y44236D01*
X312350Y44158D01*
X312390Y44092D01*
X312429Y44053D01*
X312442Y44014D01*
X312468Y43987D01*
X312665Y43778D01*
X312901Y43620D01*
X313137Y43502D01*
X313359Y43411D01*
X313569Y43345D01*
X313661Y43319D01*
X313739Y43306D01*
X313805Y43293D01*
X313857Y43280D01*
X313897D01*
X313805Y41995D01*
X313491Y42021D01*
X313189Y42087D01*
X312927Y42166D01*
X312691Y42257D01*
X312494Y42349D01*
X312416Y42388D01*
X312350Y42415D01*
X312298Y42454D01*
X312258Y42467D01*
X312245Y42493D01*
X312232D01*
X311983Y42677D01*
X311761Y42900D01*
X311577Y43109D01*
X311433Y43332D01*
X311315Y43516D01*
X311223Y43673D01*
X311197Y43738D01*
X311171Y43778D01*
X311158Y43804D01*
Y43817D01*
X311040Y44145D01*
X310948Y44486D01*
X310882Y44813D01*
X310830Y45115D01*
X310817Y45259D01*
X310804Y45390D01*
Y45495D01*
X310791Y45599D01*
Y45678D01*
Y45731D01*
Y45770D01*
Y45783D01*
X310804Y46150D01*
X310843Y46504D01*
X310909Y46818D01*
X310961Y47094D01*
X311000Y47212D01*
X311026Y47316D01*
X311066Y47408D01*
X311092Y47487D01*
X311105Y47552D01*
X311131Y47592D01*
X311145Y47618D01*
Y47631D01*
X311289Y47919D01*
X311446Y48182D01*
X311616Y48391D01*
X311774Y48575D01*
X311918Y48706D01*
X312049Y48811D01*
X312127Y48863D01*
X312141Y48889D01*
X312154D01*
X312403Y49033D01*
X312652Y49138D01*
X312888Y49217D01*
X313110Y49269D01*
X313307Y49296D01*
X313451Y49309D01*
X313504Y49322D01*
X313582D01*
X313831Y49309D01*
X314067Y49269D01*
X314290Y49217D01*
X314473Y49151D01*
X314631Y49086D01*
X314736Y49033D01*
X314814Y48994D01*
X314827Y48981D01*
X314841D01*
X315037Y48837D01*
X315221Y48666D01*
X315378Y48483D01*
X315509Y48313D01*
X315627Y48155D01*
X315706Y48024D01*
X315732Y47972D01*
X315758Y47932D01*
X315771Y47919D01*
Y47906D01*
X315823Y47788D01*
X315889Y47657D01*
X315994Y47369D01*
X316112Y47041D01*
X316203Y46727D01*
X316295Y46425D01*
X316322Y46307D01*
X316361Y46189D01*
X316374Y46097D01*
X316400Y46032D01*
X316413Y45980D01*
Y45967D01*
X316479Y45718D01*
X316531Y45495D01*
X316584Y45285D01*
X316623Y45101D01*
X316675Y44931D01*
X316715Y44787D01*
X316741Y44656D01*
X316780Y44551D01*
X316806Y44446D01*
X316833Y44367D01*
X316846Y44302D01*
X316872Y44250D01*
X316885Y44197D01*
X316898Y44171D01*
X316990Y43948D01*
X317095Y43765D01*
X317187Y43607D01*
X317278Y43476D01*
X317357Y43384D01*
X317422Y43319D01*
X317475Y43280D01*
X317488Y43267D01*
X317619Y43175D01*
X317763Y43096D01*
X317907Y43044D01*
X318038Y43018D01*
X318143Y42991D01*
X318235Y42978D01*
X318314D01*
X318484Y42991D01*
X318641Y43018D01*
X318785Y43070D01*
X318917Y43122D01*
X319021Y43175D01*
X319113Y43227D01*
X319166Y43253D01*
X319179Y43267D01*
X319323Y43384D01*
X319441Y43529D01*
X319546Y43673D01*
X319637Y43817D01*
X319703Y43948D01*
X319755Y44053D01*
X319782Y44118D01*
X319795Y44132D01*
Y44145D01*
X319873Y44367D01*
X319926Y44590D01*
X319965Y44826D01*
X319991Y45023D01*
X320004Y45206D01*
X320018Y45350D01*
Y45403D01*
Y45442D01*
Y45468D01*
Y45482D01*
X320004Y45796D01*
X319978Y46084D01*
X319926Y46347D01*
X319873Y46569D01*
X319821Y46766D01*
X319795Y46845D01*
X319769Y46910D01*
X319755Y46963D01*
X319742Y47002D01*
X319729Y47015D01*
Y47028D01*
X319611Y47264D01*
X319480Y47474D01*
X319349Y47644D01*
X319218Y47788D01*
X319113Y47893D01*
X319021Y47972D01*
X318969Y48024D01*
X318943Y48037D01*
X318746Y48142D01*
X318536Y48234D01*
X318327Y48313D01*
X318130Y48365D01*
X317947Y48404D01*
X317816Y48431D01*
X317763D01*
X317724Y48444D01*
X317685D01*
X317789Y49702D01*
X318156Y49676D01*
D02*
G37*
G36*
X395961Y201429D02*
X396183Y201377D01*
X396380Y201325D01*
X396577Y201246D01*
X396760Y201180D01*
X396931Y201089D01*
X397088Y201010D01*
X397219Y200918D01*
X397350Y200840D01*
X397455Y200748D01*
X397547Y200682D01*
X397625Y200604D01*
X397691Y200551D01*
X397730Y200512D01*
X397756Y200486D01*
X397769Y200473D01*
X397900Y200302D01*
X398018Y200132D01*
X398123Y199948D01*
X398202Y199752D01*
X398280Y199568D01*
X398346Y199385D01*
X398438Y199031D01*
X398464Y198860D01*
X398490Y198716D01*
X398503Y198572D01*
X398516Y198454D01*
X398530Y198363D01*
Y198297D01*
Y198244D01*
Y198231D01*
X398516Y197930D01*
X398477Y197642D01*
X398411Y197366D01*
X398333Y197104D01*
X398241Y196868D01*
X398149Y196659D01*
X398031Y196462D01*
X397914Y196279D01*
X397809Y196121D01*
X397691Y195977D01*
X397599Y195859D01*
X397494Y195767D01*
X397429Y195689D01*
X397363Y195623D01*
X397324Y195597D01*
X397311Y195584D01*
X397114Y195440D01*
X396917Y195322D01*
X396721Y195217D01*
X396524Y195125D01*
X396328Y195047D01*
X396131Y194981D01*
X395751Y194889D01*
X395594Y194850D01*
X395436Y194824D01*
X395292Y194811D01*
X395174Y194797D01*
X395083Y194784D01*
X394951D01*
X394689Y194797D01*
X394440Y194824D01*
X394204Y194863D01*
X393968Y194929D01*
X393759Y194994D01*
X393575Y195073D01*
X393392Y195151D01*
X393234Y195243D01*
X393090Y195322D01*
X392959Y195413D01*
X392854Y195492D01*
X392763Y195558D01*
X392684Y195623D01*
X392632Y195662D01*
X392605Y195689D01*
X392592Y195702D01*
X392435Y195872D01*
X392291Y196056D01*
X392173Y196239D01*
X392055Y196423D01*
X391976Y196619D01*
X391898Y196803D01*
X391832Y196973D01*
X391793Y197144D01*
X391753Y197314D01*
X391727Y197458D01*
X391701Y197589D01*
X391688Y197694D01*
X391675Y197786D01*
Y197864D01*
Y197904D01*
Y197917D01*
X391688Y198100D01*
X391701Y198284D01*
X391780Y198638D01*
X391871Y198952D01*
X391989Y199241D01*
X392055Y199372D01*
X392107Y199477D01*
X392173Y199581D01*
X392212Y199660D01*
X392252Y199725D01*
X392291Y199778D01*
X392304Y199804D01*
X392317Y199817D01*
X389591Y199280D01*
Y195256D01*
X388411D01*
Y200263D01*
X393588Y201233D01*
X393759Y200066D01*
X393601Y199961D01*
X393470Y199844D01*
X393339Y199712D01*
X393248Y199594D01*
X393156Y199490D01*
X393103Y199411D01*
X393064Y199359D01*
X393051Y199332D01*
X392959Y199149D01*
X392881Y198952D01*
X392828Y198769D01*
X392802Y198612D01*
X392776Y198454D01*
X392763Y198349D01*
Y198271D01*
Y198244D01*
Y198061D01*
X392789Y197904D01*
X392854Y197589D01*
X392959Y197327D01*
X393064Y197104D01*
X393182Y196921D01*
X393287Y196790D01*
X393326Y196750D01*
X393352Y196711D01*
X393366Y196685D01*
X393379D01*
X393497Y196580D01*
X393628Y196488D01*
X393903Y196344D01*
X394178Y196239D01*
X394453Y196174D01*
X394689Y196121D01*
X394794Y196108D01*
X394886D01*
X394951Y196095D01*
X395266D01*
X395449Y196121D01*
X395803Y196187D01*
X396105Y196292D01*
X396367Y196397D01*
X396472Y196462D01*
X396563Y196514D01*
X396655Y196567D01*
X396721Y196619D01*
X396773Y196659D01*
X396813Y196685D01*
X396826Y196698D01*
X396839Y196711D01*
X396957Y196829D01*
X397062Y196947D01*
X397153Y197078D01*
X397219Y197209D01*
X397350Y197458D01*
X397429Y197707D01*
X397468Y197917D01*
X397481Y198009D01*
X397494Y198074D01*
X397507Y198140D01*
Y198192D01*
Y198218D01*
Y198231D01*
X397481Y198507D01*
X397429Y198743D01*
X397363Y198965D01*
X397271Y199149D01*
X397193Y199293D01*
X397114Y199411D01*
X397062Y199477D01*
X397048Y199503D01*
X396852Y199673D01*
X396629Y199817D01*
X396393Y199935D01*
X396157Y200027D01*
X395961Y200079D01*
X395869Y200106D01*
X395790Y200132D01*
X395725Y200145D01*
X395672D01*
X395646Y200158D01*
X395633D01*
X395725Y201456D01*
X395961Y201429D01*
D02*
G37*
G36*
X347064Y22089D02*
X338235D01*
Y23260D01*
X347064D01*
Y22089D01*
D02*
G37*
G36*
X165388Y30013D02*
X165873Y29987D01*
X166306Y29935D01*
X166712Y29869D01*
X167092Y29804D01*
X167420Y29712D01*
X167721Y29620D01*
X167996Y29529D01*
X168232Y29437D01*
X168429Y29358D01*
X168599Y29266D01*
X168743Y29201D01*
X168848Y29135D01*
X168914Y29083D01*
X168966Y29057D01*
X168979Y29044D01*
X169163Y28873D01*
X169320Y28703D01*
X169464Y28519D01*
X169582Y28336D01*
X169674Y28139D01*
X169766Y27943D01*
X169831Y27759D01*
X169884Y27576D01*
X169923Y27405D01*
X169962Y27248D01*
X169988Y27117D01*
X170002Y26986D01*
Y26894D01*
X170015Y26815D01*
Y26763D01*
Y26750D01*
X170002Y26553D01*
X169988Y26357D01*
X169923Y26003D01*
X169831Y25688D01*
X169713Y25426D01*
X169661Y25308D01*
X169608Y25217D01*
X169556Y25125D01*
X169517Y25059D01*
X169477Y25007D01*
X169451Y24954D01*
X169425Y24941D01*
Y24928D01*
X169189Y24666D01*
X168914Y24443D01*
X168638Y24260D01*
X168363Y24102D01*
X168127Y23984D01*
X168022Y23932D01*
X167931Y23893D01*
X167852Y23867D01*
X167800Y23840D01*
X167760Y23827D01*
X167747D01*
X167537Y23762D01*
X167315Y23709D01*
X166843Y23617D01*
X166358Y23552D01*
X165899Y23500D01*
X165690Y23486D01*
X165493Y23473D01*
X165323D01*
X165178Y23460D01*
X164602D01*
X164340Y23473D01*
X164104Y23486D01*
X163881Y23500D01*
X163658Y23513D01*
X163475Y23539D01*
X163291Y23552D01*
X163134Y23578D01*
X162990Y23604D01*
X162859Y23617D01*
X162754Y23644D01*
X162662Y23657D01*
X162596Y23670D01*
X162544Y23683D01*
X162518Y23696D01*
X162505D01*
X162190Y23788D01*
X161889Y23880D01*
X161640Y23984D01*
X161417Y24089D01*
X161233Y24181D01*
X161102Y24247D01*
X161063Y24273D01*
X161024Y24299D01*
X161010Y24312D01*
X160997D01*
X160775Y24469D01*
X160591Y24640D01*
X160434Y24810D01*
X160290Y24967D01*
X160185Y25112D01*
X160119Y25217D01*
X160067Y25295D01*
X160054Y25308D01*
Y25321D01*
X159949Y25557D01*
X159870Y25806D01*
X159805Y26042D01*
X159765Y26265D01*
X159739Y26462D01*
Y26540D01*
X159726Y26619D01*
Y26671D01*
Y26711D01*
Y26737D01*
Y26750D01*
Y26946D01*
X159752Y27143D01*
X159818Y27497D01*
X159910Y27812D01*
X160014Y28074D01*
X160080Y28192D01*
X160132Y28283D01*
X160185Y28375D01*
X160224Y28441D01*
X160264Y28493D01*
X160290Y28532D01*
X160303Y28559D01*
X160316Y28572D01*
X160552Y28821D01*
X160827Y29044D01*
X161115Y29227D01*
X161378Y29384D01*
X161627Y29502D01*
X161731Y29555D01*
X161823Y29594D01*
X161902Y29620D01*
X161954Y29646D01*
X161994Y29660D01*
X162007D01*
X162216Y29725D01*
X162439Y29778D01*
X162911Y29869D01*
X163396Y29935D01*
X163855Y29974D01*
X164064Y30000D01*
X164261D01*
X164431Y30013D01*
X164576Y30027D01*
X164877D01*
X165388Y30013D01*
D02*
G37*
G36*
X238300Y202094D02*
X238195Y201871D01*
X238090Y201648D01*
X237985Y201452D01*
X237893Y201281D01*
X237815Y201137D01*
X237789Y201085D01*
X237762Y201045D01*
X237749Y201032D01*
Y201019D01*
X237592Y200757D01*
X237435Y200534D01*
X237290Y200324D01*
X237159Y200154D01*
X237055Y200023D01*
X236963Y199918D01*
X236910Y199866D01*
X236897Y199840D01*
X244774D01*
Y198608D01*
X234656D01*
Y199407D01*
X234905Y199551D01*
X235141Y199722D01*
X235377Y199905D01*
X235574Y200075D01*
X235757Y200246D01*
X235888Y200377D01*
X235940Y200429D01*
X235980Y200469D01*
X235993Y200495D01*
X236006Y200508D01*
X236255Y200809D01*
X236478Y201111D01*
X236688Y201425D01*
X236858Y201701D01*
X236989Y201950D01*
X237055Y202055D01*
X237094Y202146D01*
X237133Y202212D01*
X237159Y202264D01*
X237186Y202304D01*
Y202317D01*
X238391D01*
X238300Y202094D01*
D02*
G37*
G36*
X169844Y38611D02*
X166791Y37510D01*
Y33290D01*
X169844Y32123D01*
Y30616D01*
X159765Y34719D01*
Y36173D01*
X169844Y40014D01*
Y38611D01*
D02*
G37*
G36*
X316453Y40239D02*
X316964Y40187D01*
X317187Y40147D01*
X317409Y40095D01*
X317619Y40055D01*
X317816Y40003D01*
X317999Y39951D01*
X318156Y39911D01*
X318288Y39859D01*
X318405Y39820D01*
X318497Y39793D01*
X318576Y39767D01*
X318615Y39741D01*
X318628D01*
X318851Y39636D01*
X319074Y39518D01*
X319270Y39400D01*
X319454Y39269D01*
X319637Y39138D01*
X319795Y39007D01*
X319939Y38889D01*
X320057Y38758D01*
X320175Y38640D01*
X320280Y38535D01*
X320358Y38430D01*
X320424Y38352D01*
X320489Y38273D01*
X320529Y38221D01*
X320542Y38194D01*
X320555Y38181D01*
X320673Y37985D01*
X320765Y37775D01*
X320856Y37552D01*
X320935Y37329D01*
X321053Y36884D01*
X321132Y36464D01*
X321158Y36268D01*
X321171Y36097D01*
X321184Y35927D01*
X321197Y35796D01*
X321210Y35678D01*
Y35586D01*
Y35534D01*
Y35521D01*
X321197Y35232D01*
X321171Y34957D01*
X321132Y34695D01*
X321079Y34446D01*
X321014Y34210D01*
X320935Y33987D01*
X320869Y33791D01*
X320778Y33594D01*
X320699Y33437D01*
X320634Y33293D01*
X320555Y33161D01*
X320489Y33057D01*
X320437Y32965D01*
X320398Y32912D01*
X320371Y32873D01*
X320358Y32860D01*
X320188Y32664D01*
X320004Y32480D01*
X319808Y32310D01*
X319598Y32165D01*
X319388Y32021D01*
X319192Y31903D01*
X318982Y31785D01*
X318785Y31694D01*
X318589Y31602D01*
X318419Y31536D01*
X318261Y31471D01*
X318130Y31418D01*
X318012Y31392D01*
X317920Y31366D01*
X317868Y31340D01*
X317855D01*
X317514Y32677D01*
X317750Y32742D01*
X317960Y32808D01*
X318156Y32886D01*
X318353Y32965D01*
X318523Y33057D01*
X318681Y33135D01*
X318825Y33227D01*
X318943Y33319D01*
X319061Y33397D01*
X319153Y33476D01*
X319244Y33555D01*
X319310Y33607D01*
X319362Y33660D01*
X319401Y33699D01*
X319415Y33725D01*
X319428Y33738D01*
X319546Y33882D01*
X319637Y34040D01*
X319729Y34197D01*
X319795Y34367D01*
X319913Y34682D01*
X319991Y34983D01*
X320018Y35114D01*
X320031Y35245D01*
X320044Y35350D01*
X320057Y35455D01*
X320070Y35534D01*
Y35586D01*
Y35626D01*
Y35639D01*
X320044Y35979D01*
X319991Y36294D01*
X319926Y36582D01*
X319834Y36844D01*
X319742Y37054D01*
X319703Y37146D01*
X319677Y37211D01*
X319637Y37277D01*
X319624Y37316D01*
X319598Y37343D01*
Y37356D01*
X319401Y37631D01*
X319179Y37867D01*
X318943Y38063D01*
X318707Y38234D01*
X318497Y38365D01*
X318405Y38404D01*
X318327Y38443D01*
X318261Y38483D01*
X318209Y38509D01*
X318183Y38522D01*
X318169D01*
X317803Y38640D01*
X317409Y38732D01*
X317042Y38797D01*
X316688Y38837D01*
X316531Y38863D01*
X316387D01*
X316256Y38876D01*
X316138Y38889D01*
X315928D01*
X315561Y38876D01*
X315207Y38837D01*
X314880Y38784D01*
X314578Y38732D01*
X314460Y38705D01*
X314342Y38679D01*
X314238Y38653D01*
X314146Y38627D01*
X314080Y38601D01*
X314028Y38588D01*
X314002Y38575D01*
X313989D01*
X313648Y38443D01*
X313359Y38273D01*
X313097Y38089D01*
X312888Y37906D01*
X312717Y37749D01*
X312599Y37618D01*
X312547Y37565D01*
X312521Y37526D01*
X312494Y37500D01*
Y37487D01*
X312390Y37329D01*
X312311Y37172D01*
X312167Y36844D01*
X312062Y36517D01*
X311996Y36215D01*
X311983Y36071D01*
X311957Y35940D01*
X311944Y35822D01*
Y35730D01*
X311931Y35652D01*
Y35586D01*
Y35547D01*
Y35534D01*
X311957Y35167D01*
X312010Y34839D01*
X312088Y34551D01*
X312180Y34302D01*
X312285Y34105D01*
X312324Y34027D01*
X312363Y33961D01*
X312390Y33909D01*
X312416Y33869D01*
X312442Y33856D01*
Y33843D01*
X312547Y33725D01*
X312652Y33607D01*
X312901Y33397D01*
X313163Y33227D01*
X313425Y33083D01*
X313661Y32965D01*
X313766Y32926D01*
X313857Y32886D01*
X313936Y32860D01*
X313989Y32834D01*
X314028Y32821D01*
X314041D01*
X313726Y31510D01*
X313477Y31589D01*
X313228Y31694D01*
X313006Y31799D01*
X312796Y31916D01*
X312612Y32034D01*
X312429Y32152D01*
X312272Y32270D01*
X312127Y32388D01*
X311996Y32506D01*
X311878Y32611D01*
X311787Y32716D01*
X311708Y32794D01*
X311642Y32860D01*
X311603Y32926D01*
X311577Y32952D01*
X311564Y32965D01*
X311433Y33161D01*
X311302Y33371D01*
X311210Y33581D01*
X311118Y33791D01*
X311040Y34013D01*
X310974Y34223D01*
X310882Y34616D01*
X310856Y34800D01*
X310830Y34970D01*
X310817Y35127D01*
X310804Y35259D01*
X310791Y35363D01*
Y35442D01*
Y35494D01*
Y35508D01*
Y35757D01*
X310817Y35993D01*
X310882Y36451D01*
X310987Y36871D01*
X311040Y37054D01*
X311092Y37238D01*
X311158Y37395D01*
X311210Y37539D01*
X311262Y37657D01*
X311315Y37762D01*
X311354Y37840D01*
X311380Y37906D01*
X311394Y37945D01*
X311407Y37959D01*
X311525Y38155D01*
X311656Y38352D01*
X311944Y38692D01*
X312232Y38994D01*
X312521Y39230D01*
X312665Y39335D01*
X312783Y39426D01*
X312901Y39505D01*
X312992Y39557D01*
X313071Y39610D01*
X313137Y39649D01*
X313176Y39662D01*
X313189Y39675D01*
X313412Y39780D01*
X313648Y39872D01*
X314107Y40016D01*
X314565Y40121D01*
X314788Y40160D01*
X314998Y40187D01*
X315194Y40213D01*
X315365Y40239D01*
X315522Y40252D01*
X315666D01*
X315771Y40265D01*
X315928D01*
X316453Y40239D01*
D02*
G37*
G36*
X321040Y28417D02*
X317554D01*
X315968Y26779D01*
X321040Y23188D01*
Y21418D01*
X315063Y25835D01*
X310961Y21602D01*
Y23410D01*
X315954Y28417D01*
X310961D01*
Y29754D01*
X321040D01*
Y28417D01*
D02*
G37*
G36*
X344538Y32043D02*
X344848Y31985D01*
X345112Y31905D01*
X345353Y31813D01*
X345456Y31767D01*
X345548Y31732D01*
X345617Y31687D01*
X345686Y31652D01*
X345743Y31629D01*
X345778Y31606D01*
X345801Y31583D01*
X345812D01*
X346053Y31400D01*
X346271Y31193D01*
X346455Y30986D01*
X346604Y30780D01*
X346719Y30596D01*
X346765Y30516D01*
X346800Y30458D01*
X346834Y30401D01*
X346857Y30355D01*
X346868Y30332D01*
Y30320D01*
X346983Y29999D01*
X347064Y29666D01*
X347132Y29322D01*
X347167Y29012D01*
X347178Y28862D01*
X347190Y28736D01*
X347201Y28610D01*
Y28506D01*
X347213Y28426D01*
Y28369D01*
Y28323D01*
Y28311D01*
X347201Y27967D01*
X347155Y27645D01*
X347098Y27358D01*
X347041Y27117D01*
X347006Y27002D01*
X346972Y26911D01*
X346949Y26830D01*
X346926Y26750D01*
X346903Y26704D01*
X346880Y26658D01*
X346868Y26635D01*
Y26624D01*
X346731Y26360D01*
X346570Y26118D01*
X346409Y25923D01*
X346260Y25763D01*
X346122Y25636D01*
X346007Y25533D01*
X345961Y25510D01*
X345927Y25487D01*
X345915Y25464D01*
X345904D01*
X345674Y25326D01*
X345433Y25223D01*
X345215Y25154D01*
X345009Y25097D01*
X344836Y25074D01*
X344767Y25062D01*
X344699D01*
X344653Y25051D01*
X344584D01*
X344320Y25062D01*
X344090Y25108D01*
X343872Y25166D01*
X343688Y25234D01*
X343539Y25315D01*
X343424Y25372D01*
X343390Y25395D01*
X343355Y25418D01*
X343344Y25430D01*
X343332D01*
X343137Y25579D01*
X342953Y25763D01*
X342804Y25946D01*
X342667Y26130D01*
X342563Y26302D01*
X342494Y26440D01*
X342460Y26497D01*
X342437Y26532D01*
X342425Y26555D01*
Y26566D01*
X342379Y26669D01*
X342333Y26796D01*
X342288Y26945D01*
X342230Y27094D01*
X342138Y27416D01*
X342058Y27737D01*
X342012Y27898D01*
X341978Y28036D01*
X341943Y28173D01*
X341920Y28288D01*
X341897Y28380D01*
X341874Y28461D01*
X341863Y28506D01*
Y28518D01*
X341805Y28770D01*
X341748Y29000D01*
X341691Y29207D01*
X341633Y29390D01*
X341576Y29551D01*
X341530Y29689D01*
X341473Y29815D01*
X341427Y29930D01*
X341392Y30010D01*
X341358Y30091D01*
X341323Y30148D01*
X341289Y30194D01*
X341277Y30229D01*
X341254Y30252D01*
X341243Y30275D01*
X341117Y30389D01*
X340990Y30470D01*
X340864Y30527D01*
X340738Y30561D01*
X340623Y30584D01*
X340542Y30607D01*
X340462D01*
X340267Y30584D01*
X340083Y30527D01*
X339923Y30458D01*
X339785Y30366D01*
X339670Y30275D01*
X339590Y30206D01*
X339544Y30148D01*
X339521Y30125D01*
X339452Y30033D01*
X339394Y29919D01*
X339291Y29678D01*
X339222Y29425D01*
X339176Y29172D01*
X339153Y28943D01*
X339142Y28851D01*
X339130Y28759D01*
Y28690D01*
Y28633D01*
Y28598D01*
Y28587D01*
Y28403D01*
X339153Y28231D01*
X339165Y28070D01*
X339199Y27921D01*
X339234Y27783D01*
X339268Y27657D01*
X339303Y27542D01*
X339337Y27439D01*
X339383Y27358D01*
X339417Y27278D01*
X339452Y27209D01*
X339486Y27152D01*
X339521Y27117D01*
X339532Y27083D01*
X339555Y27060D01*
X339727Y26876D01*
X339934Y26738D01*
X340141Y26635D01*
X340336Y26555D01*
X340520Y26497D01*
X340600Y26474D01*
X340669Y26463D01*
X340726Y26451D01*
X340772Y26440D01*
X340807D01*
X340726Y25315D01*
X340451Y25338D01*
X340187Y25395D01*
X339957Y25464D01*
X339750Y25544D01*
X339578Y25625D01*
X339509Y25659D01*
X339452Y25682D01*
X339406Y25717D01*
X339371Y25728D01*
X339360Y25751D01*
X339348D01*
X339130Y25912D01*
X338935Y26107D01*
X338774Y26291D01*
X338648Y26486D01*
X338545Y26646D01*
X338465Y26784D01*
X338442Y26842D01*
X338419Y26876D01*
X338407Y26899D01*
Y26911D01*
X338304Y27198D01*
X338223Y27496D01*
X338166Y27783D01*
X338120Y28047D01*
X338109Y28173D01*
X338097Y28288D01*
Y28380D01*
X338086Y28472D01*
Y28541D01*
Y28587D01*
Y28621D01*
Y28633D01*
X338097Y28954D01*
X338132Y29264D01*
X338189Y29540D01*
X338235Y29781D01*
X338269Y29884D01*
X338292Y29976D01*
X338327Y30056D01*
X338350Y30125D01*
X338361Y30183D01*
X338384Y30217D01*
X338396Y30240D01*
Y30252D01*
X338522Y30504D01*
X338660Y30734D01*
X338809Y30917D01*
X338947Y31078D01*
X339073Y31193D01*
X339188Y31285D01*
X339257Y31331D01*
X339268Y31354D01*
X339280D01*
X339498Y31480D01*
X339716Y31572D01*
X339923Y31641D01*
X340118Y31687D01*
X340290Y31710D01*
X340416Y31721D01*
X340462Y31732D01*
X340531D01*
X340749Y31721D01*
X340956Y31687D01*
X341151Y31641D01*
X341312Y31583D01*
X341450Y31526D01*
X341541Y31480D01*
X341610Y31446D01*
X341622Y31434D01*
X341633D01*
X341805Y31308D01*
X341966Y31158D01*
X342104Y30998D01*
X342219Y30849D01*
X342322Y30711D01*
X342391Y30596D01*
X342414Y30550D01*
X342437Y30516D01*
X342448Y30504D01*
Y30493D01*
X342494Y30389D01*
X342552Y30275D01*
X342644Y30022D01*
X342747Y29735D01*
X342827Y29459D01*
X342908Y29195D01*
X342930Y29092D01*
X342965Y28989D01*
X342976Y28908D01*
X342999Y28851D01*
X343011Y28805D01*
Y28793D01*
X343068Y28575D01*
X343114Y28380D01*
X343160Y28196D01*
X343195Y28036D01*
X343241Y27887D01*
X343275Y27760D01*
X343298Y27645D01*
X343332Y27554D01*
X343355Y27462D01*
X343378Y27393D01*
X343390Y27335D01*
X343413Y27290D01*
X343424Y27243D01*
X343436Y27221D01*
X343516Y27025D01*
X343608Y26865D01*
X343688Y26727D01*
X343769Y26612D01*
X343838Y26532D01*
X343895Y26474D01*
X343941Y26440D01*
X343952Y26428D01*
X344067Y26348D01*
X344193Y26279D01*
X344320Y26233D01*
X344435Y26210D01*
X344526Y26187D01*
X344607Y26176D01*
X344676D01*
X344825Y26187D01*
X344963Y26210D01*
X345089Y26256D01*
X345204Y26302D01*
X345296Y26348D01*
X345376Y26394D01*
X345422Y26417D01*
X345433Y26428D01*
X345560Y26532D01*
X345663Y26658D01*
X345755Y26784D01*
X345835Y26911D01*
X345893Y27025D01*
X345938Y27117D01*
X345961Y27175D01*
X345973Y27186D01*
Y27198D01*
X346042Y27393D01*
X346088Y27588D01*
X346122Y27795D01*
X346145Y27967D01*
X346157Y28128D01*
X346168Y28254D01*
Y28300D01*
Y28334D01*
Y28357D01*
Y28369D01*
X346157Y28644D01*
X346134Y28897D01*
X346088Y29126D01*
X346042Y29322D01*
X345996Y29494D01*
X345973Y29563D01*
X345950Y29620D01*
X345938Y29666D01*
X345927Y29700D01*
X345915Y29712D01*
Y29723D01*
X345812Y29930D01*
X345697Y30114D01*
X345583Y30263D01*
X345468Y30389D01*
X345376Y30481D01*
X345296Y30550D01*
X345250Y30596D01*
X345227Y30607D01*
X345055Y30699D01*
X344871Y30780D01*
X344687Y30849D01*
X344515Y30894D01*
X344354Y30929D01*
X344239Y30952D01*
X344193D01*
X344159Y30963D01*
X344124D01*
X344216Y32065D01*
X344538Y32043D01*
D02*
G37*
G36*
X365848Y30240D02*
X366055Y30229D01*
X366468Y30171D01*
X366835Y30091D01*
X367007Y30045D01*
X367168Y29999D01*
X367306Y29953D01*
X367444Y29907D01*
X367559Y29861D01*
X367650Y29827D01*
X367731Y29792D01*
X367788Y29769D01*
X367823Y29746D01*
X367834D01*
X368201Y29540D01*
X368534Y29299D01*
X368672Y29184D01*
X368810Y29058D01*
X368936Y28931D01*
X369051Y28816D01*
X369143Y28702D01*
X369235Y28598D01*
X369304Y28506D01*
X369361Y28426D01*
X369418Y28357D01*
X369453Y28311D01*
X369464Y28277D01*
X369476Y28265D01*
X369579Y28082D01*
X369671Y27887D01*
X369751Y27703D01*
X369820Y27508D01*
X369924Y27129D01*
X369992Y26784D01*
X370027Y26624D01*
X370038Y26486D01*
X370050Y26360D01*
X370061Y26245D01*
X370073Y26164D01*
Y26095D01*
Y26049D01*
Y26038D01*
X370061Y25820D01*
X370050Y25613D01*
X369992Y25223D01*
X369901Y24855D01*
X369855Y24695D01*
X369797Y24534D01*
X369751Y24396D01*
X369706Y24270D01*
X369660Y24167D01*
X369614Y24075D01*
X369579Y24006D01*
X369556Y23949D01*
X369533Y23914D01*
Y23903D01*
X369430Y23719D01*
X369315Y23547D01*
X369051Y23237D01*
X368787Y22973D01*
X368661Y22858D01*
X368534Y22754D01*
X368408Y22663D01*
X368305Y22582D01*
X368201Y22525D01*
X368110Y22468D01*
X368041Y22422D01*
X367983Y22387D01*
X367949Y22376D01*
X367937Y22364D01*
X367731Y22272D01*
X367524Y22181D01*
X367111Y22043D01*
X366709Y21951D01*
X366514Y21916D01*
X366330Y21882D01*
X366158Y21859D01*
X366009Y21836D01*
X365871Y21825D01*
X365756D01*
X365653Y21813D01*
X365285D01*
X365044Y21836D01*
X364596Y21893D01*
X364390Y21928D01*
X364195Y21974D01*
X364011Y22020D01*
X363850Y22066D01*
X363701Y22123D01*
X363563Y22169D01*
X363448Y22215D01*
X363345Y22249D01*
X363265Y22284D01*
X363207Y22307D01*
X363173Y22318D01*
X363161Y22330D01*
X362794Y22548D01*
X362622Y22663D01*
X362461Y22778D01*
X362323Y22904D01*
X362186Y23030D01*
X362059Y23156D01*
X361956Y23271D01*
X361853Y23386D01*
X361772Y23489D01*
X361703Y23593D01*
X361634Y23673D01*
X361589Y23742D01*
X361554Y23788D01*
X361543Y23822D01*
X361531Y23834D01*
X361428Y24017D01*
X361336Y24213D01*
X361256Y24396D01*
X361187Y24592D01*
X361083Y24959D01*
X361015Y25292D01*
X360992Y25452D01*
X360980Y25590D01*
X360969Y25717D01*
X360957Y25820D01*
X360946Y25912D01*
Y25969D01*
Y26015D01*
Y26027D01*
X360957Y26371D01*
X361003Y26693D01*
X361060Y27002D01*
X361141Y27290D01*
X361233Y27565D01*
X361336Y27818D01*
X361451Y28047D01*
X361566Y28254D01*
X361692Y28438D01*
X361795Y28610D01*
X361910Y28747D01*
X362002Y28862D01*
X362082Y28954D01*
X362140Y29023D01*
X362186Y29069D01*
X362197Y29081D01*
X362438Y29287D01*
X362702Y29471D01*
X362978Y29620D01*
X363253Y29758D01*
X363540Y29873D01*
X363827Y29964D01*
X364103Y30045D01*
X364378Y30102D01*
X364631Y30148D01*
X364872Y30194D01*
X365079Y30217D01*
X365262Y30229D01*
X365423Y30240D01*
X365538Y30252D01*
X365630D01*
X365848Y30240D01*
D02*
G37*
G36*
X217027Y205302D02*
X217289Y205276D01*
X217538Y205250D01*
X217761Y205224D01*
X217971Y205198D01*
X218154Y205158D01*
X218324Y205119D01*
X218482Y205093D01*
X218613Y205053D01*
X218731Y205027D01*
X218822Y204988D01*
X218901Y204975D01*
X218953Y204949D01*
X218980Y204935D01*
X218993D01*
X219321Y204765D01*
X219596Y204568D01*
X219845Y204359D01*
X220041Y204149D01*
X220199Y203952D01*
X220303Y203795D01*
X220343Y203743D01*
X220369Y203690D01*
X220395Y203664D01*
Y203651D01*
X220553Y203297D01*
X220671Y202904D01*
X220762Y202524D01*
X220815Y202157D01*
X220841Y201986D01*
X220854Y201829D01*
X220867Y201685D01*
Y201567D01*
X220880Y201462D01*
Y201397D01*
Y201344D01*
Y201331D01*
X220867Y201069D01*
X220854Y200807D01*
X220828Y200571D01*
X220788Y200348D01*
X220749Y200138D01*
X220710Y199955D01*
X220657Y199771D01*
X220605Y199614D01*
X220553Y199470D01*
X220500Y199339D01*
X220461Y199234D01*
X220422Y199142D01*
X220382Y199077D01*
X220356Y199024D01*
X220330Y198998D01*
Y198985D01*
X220225Y198828D01*
X220107Y198671D01*
X219858Y198408D01*
X219622Y198199D01*
X219386Y198028D01*
X219189Y197897D01*
X219098Y197845D01*
X219019Y197806D01*
X218967Y197779D01*
X218914Y197753D01*
X218888Y197740D01*
X218875D01*
X218704Y197674D01*
X218521Y197622D01*
X218128Y197530D01*
X217722Y197478D01*
X217328Y197425D01*
X217158Y197412D01*
X216988Y197399D01*
X216843D01*
X216712Y197386D01*
X210631D01*
Y198723D01*
X216450D01*
X216791Y198736D01*
X217106Y198749D01*
X217394Y198775D01*
X217656Y198815D01*
X217892Y198867D01*
X218102Y198920D01*
X218285Y198972D01*
X218442Y199037D01*
X218587Y199090D01*
X218704Y199156D01*
X218809Y199208D01*
X218888Y199247D01*
X218940Y199300D01*
X218980Y199326D01*
X219006Y199339D01*
X219019Y199352D01*
X219137Y199483D01*
X219229Y199627D01*
X219321Y199785D01*
X219399Y199942D01*
X219517Y200296D01*
X219596Y200637D01*
X219622Y200794D01*
X219635Y200951D01*
X219648Y201095D01*
X219661Y201213D01*
X219674Y201305D01*
Y201383D01*
Y201436D01*
Y201449D01*
X219661Y201764D01*
X219622Y202039D01*
X219569Y202288D01*
X219504Y202498D01*
X219452Y202668D01*
X219399Y202799D01*
X219360Y202878D01*
X219347Y202891D01*
Y202904D01*
X219203Y203114D01*
X219058Y203284D01*
X218888Y203428D01*
X218744Y203546D01*
X218600Y203638D01*
X218495Y203690D01*
X218416Y203730D01*
X218403Y203743D01*
X218390D01*
X218259Y203782D01*
X218128Y203821D01*
X217826Y203874D01*
X217499Y203926D01*
X217184Y203952D01*
X217040D01*
X216896Y203965D01*
X216778D01*
X216660Y203979D01*
X210631D01*
Y205315D01*
X216752D01*
X217027Y205302D01*
D02*
G37*
G36*
X367398Y38483D02*
X367708Y38426D01*
X367972Y38345D01*
X368213Y38254D01*
X368316Y38208D01*
X368408Y38173D01*
X368477Y38127D01*
X368546Y38093D01*
X368603Y38070D01*
X368638Y38047D01*
X368661Y38024D01*
X368672D01*
X368913Y37840D01*
X369131Y37634D01*
X369315Y37427D01*
X369464Y37220D01*
X369579Y37037D01*
X369625Y36956D01*
X369660Y36899D01*
X369694Y36841D01*
X369717Y36796D01*
X369728Y36773D01*
Y36761D01*
X369843Y36440D01*
X369924Y36107D01*
X369992Y35762D01*
X370027Y35452D01*
X370038Y35303D01*
X370050Y35177D01*
X370061Y35050D01*
Y34947D01*
X370073Y34867D01*
Y34809D01*
Y34764D01*
Y34752D01*
X370061Y34408D01*
X370015Y34086D01*
X369958Y33799D01*
X369901Y33558D01*
X369866Y33443D01*
X369832Y33351D01*
X369809Y33271D01*
X369786Y33191D01*
X369763Y33145D01*
X369740Y33099D01*
X369728Y33076D01*
Y33064D01*
X369591Y32800D01*
X369430Y32559D01*
X369269Y32364D01*
X369120Y32203D01*
X368982Y32077D01*
X368867Y31974D01*
X368821Y31951D01*
X368787Y31928D01*
X368775Y31905D01*
X368764D01*
X368534Y31767D01*
X368293Y31664D01*
X368075Y31595D01*
X367869Y31537D01*
X367696Y31514D01*
X367627Y31503D01*
X367559D01*
X367513Y31491D01*
X367444D01*
X367180Y31503D01*
X366950Y31549D01*
X366732Y31606D01*
X366548Y31675D01*
X366399Y31755D01*
X366284Y31813D01*
X366250Y31836D01*
X366215Y31859D01*
X366204Y31870D01*
X366192D01*
X365997Y32020D01*
X365813Y32203D01*
X365664Y32387D01*
X365527Y32571D01*
X365423Y32743D01*
X365354Y32881D01*
X365320Y32938D01*
X365297Y32973D01*
X365285Y32995D01*
Y33007D01*
X365239Y33110D01*
X365193Y33236D01*
X365148Y33386D01*
X365090Y33535D01*
X364998Y33856D01*
X364918Y34178D01*
X364872Y34339D01*
X364838Y34476D01*
X364803Y34614D01*
X364780Y34729D01*
X364757Y34821D01*
X364734Y34901D01*
X364723Y34947D01*
Y34959D01*
X364665Y35211D01*
X364608Y35441D01*
X364551Y35647D01*
X364493Y35831D01*
X364436Y35992D01*
X364390Y36130D01*
X364333Y36256D01*
X364286Y36371D01*
X364252Y36451D01*
X364218Y36532D01*
X364183Y36589D01*
X364149Y36635D01*
X364137Y36669D01*
X364114Y36692D01*
X364103Y36715D01*
X363977Y36830D01*
X363850Y36910D01*
X363724Y36968D01*
X363598Y37002D01*
X363483Y37025D01*
X363402Y37048D01*
X363322D01*
X363127Y37025D01*
X362943Y36968D01*
X362783Y36899D01*
X362645Y36807D01*
X362530Y36715D01*
X362450Y36646D01*
X362404Y36589D01*
X362381Y36566D01*
X362312Y36474D01*
X362254Y36359D01*
X362151Y36118D01*
X362082Y35866D01*
X362036Y35613D01*
X362013Y35383D01*
X362002Y35292D01*
X361990Y35200D01*
Y35131D01*
Y35073D01*
Y35039D01*
Y35027D01*
Y34844D01*
X362013Y34672D01*
X362025Y34511D01*
X362059Y34362D01*
X362094Y34224D01*
X362128Y34098D01*
X362163Y33983D01*
X362197Y33879D01*
X362243Y33799D01*
X362277Y33719D01*
X362312Y33650D01*
X362346Y33592D01*
X362381Y33558D01*
X362392Y33523D01*
X362415Y33501D01*
X362587Y33317D01*
X362794Y33179D01*
X363001Y33076D01*
X363196Y32995D01*
X363380Y32938D01*
X363460Y32915D01*
X363529Y32904D01*
X363586Y32892D01*
X363632Y32881D01*
X363667D01*
X363586Y31755D01*
X363311Y31778D01*
X363047Y31836D01*
X362817Y31905D01*
X362610Y31985D01*
X362438Y32065D01*
X362369Y32100D01*
X362312Y32123D01*
X362266Y32157D01*
X362231Y32169D01*
X362220Y32192D01*
X362209D01*
X361990Y32352D01*
X361795Y32548D01*
X361634Y32731D01*
X361508Y32926D01*
X361405Y33087D01*
X361325Y33225D01*
X361301Y33282D01*
X361279Y33317D01*
X361267Y33340D01*
Y33351D01*
X361164Y33638D01*
X361083Y33937D01*
X361026Y34224D01*
X360980Y34488D01*
X360969Y34614D01*
X360957Y34729D01*
Y34821D01*
X360946Y34913D01*
Y34982D01*
Y35027D01*
Y35062D01*
Y35073D01*
X360957Y35395D01*
X360992Y35705D01*
X361049Y35980D01*
X361095Y36221D01*
X361129Y36325D01*
X361152Y36417D01*
X361187Y36497D01*
X361210Y36566D01*
X361221Y36623D01*
X361244Y36658D01*
X361256Y36681D01*
Y36692D01*
X361382Y36945D01*
X361520Y37174D01*
X361669Y37358D01*
X361807Y37519D01*
X361933Y37634D01*
X362048Y37726D01*
X362117Y37771D01*
X362128Y37794D01*
X362140D01*
X362358Y37921D01*
X362576Y38012D01*
X362783Y38081D01*
X362978Y38127D01*
X363150Y38150D01*
X363276Y38162D01*
X363322Y38173D01*
X363391D01*
X363609Y38162D01*
X363816Y38127D01*
X364011Y38081D01*
X364172Y38024D01*
X364310Y37967D01*
X364401Y37921D01*
X364470Y37886D01*
X364482Y37875D01*
X364493D01*
X364665Y37748D01*
X364826Y37599D01*
X364964Y37438D01*
X365079Y37289D01*
X365182Y37152D01*
X365251Y37037D01*
X365274Y36991D01*
X365297Y36956D01*
X365308Y36945D01*
Y36933D01*
X365354Y36830D01*
X365412Y36715D01*
X365504Y36463D01*
X365607Y36176D01*
X365687Y35900D01*
X365768Y35636D01*
X365790Y35533D01*
X365825Y35429D01*
X365836Y35349D01*
X365859Y35292D01*
X365871Y35246D01*
Y35234D01*
X365928Y35016D01*
X365974Y34821D01*
X366020Y34637D01*
X366055Y34476D01*
X366101Y34327D01*
X366135Y34201D01*
X366158Y34086D01*
X366192Y33994D01*
X366215Y33902D01*
X366238Y33833D01*
X366250Y33776D01*
X366273Y33730D01*
X366284Y33684D01*
X366296Y33661D01*
X366376Y33466D01*
X366468Y33305D01*
X366548Y33168D01*
X366629Y33053D01*
X366698Y32973D01*
X366755Y32915D01*
X366801Y32881D01*
X366812Y32869D01*
X366927Y32789D01*
X367053Y32720D01*
X367180Y32674D01*
X367295Y32651D01*
X367386Y32628D01*
X367467Y32617D01*
X367536D01*
X367685Y32628D01*
X367823Y32651D01*
X367949Y32697D01*
X368064Y32743D01*
X368156Y32789D01*
X368236Y32835D01*
X368282Y32858D01*
X368293Y32869D01*
X368420Y32973D01*
X368523Y33099D01*
X368615Y33225D01*
X368695Y33351D01*
X368753Y33466D01*
X368798Y33558D01*
X368821Y33615D01*
X368833Y33627D01*
Y33638D01*
X368902Y33833D01*
X368948Y34029D01*
X368982Y34235D01*
X369005Y34408D01*
X369017Y34568D01*
X369028Y34695D01*
Y34741D01*
Y34775D01*
Y34798D01*
Y34809D01*
X369017Y35085D01*
X368994Y35338D01*
X368948Y35567D01*
X368902Y35762D01*
X368856Y35935D01*
X368833Y36003D01*
X368810Y36061D01*
X368798Y36107D01*
X368787Y36141D01*
X368775Y36153D01*
Y36164D01*
X368672Y36371D01*
X368557Y36555D01*
X368443Y36704D01*
X368328Y36830D01*
X368236Y36922D01*
X368156Y36991D01*
X368110Y37037D01*
X368087Y37048D01*
X367915Y37140D01*
X367731Y37220D01*
X367547Y37289D01*
X367375Y37335D01*
X367214Y37370D01*
X367099Y37393D01*
X367053D01*
X367019Y37404D01*
X366984D01*
X367076Y38506D01*
X367398Y38483D01*
D02*
G37*
G36*
X347064Y50446D02*
X339544D01*
X347064Y47898D01*
Y46853D01*
X339670Y44270D01*
X347064D01*
Y43144D01*
X338235D01*
Y44717D01*
X344377Y46841D01*
X344710Y46956D01*
X344997Y47048D01*
X345238Y47128D01*
X345445Y47197D01*
X345594Y47243D01*
X345709Y47277D01*
X345778Y47301D01*
X345801Y47312D01*
X345617Y47369D01*
X345410Y47438D01*
X345192Y47507D01*
X344986Y47576D01*
X344790Y47633D01*
X344710Y47668D01*
X344630Y47691D01*
X344572Y47714D01*
X344526Y47725D01*
X344503Y47737D01*
X344492D01*
X338235Y49826D01*
Y51571D01*
X347064D01*
Y50446D01*
D02*
G37*
G36*
X342988Y41606D02*
X343195Y41595D01*
X343608Y41537D01*
X343975Y41457D01*
X344147Y41411D01*
X344308Y41365D01*
X344446Y41319D01*
X344584Y41273D01*
X344699Y41227D01*
X344790Y41193D01*
X344871Y41158D01*
X344928Y41135D01*
X344963Y41112D01*
X344974D01*
X345341Y40906D01*
X345674Y40665D01*
X345812Y40550D01*
X345950Y40423D01*
X346076Y40297D01*
X346191Y40182D01*
X346283Y40068D01*
X346375Y39964D01*
X346444Y39872D01*
X346501Y39792D01*
X346558Y39723D01*
X346593Y39677D01*
X346604Y39643D01*
X346616Y39631D01*
X346719Y39448D01*
X346811Y39252D01*
X346891Y39069D01*
X346960Y38874D01*
X347064Y38495D01*
X347132Y38150D01*
X347167Y37990D01*
X347178Y37852D01*
X347190Y37726D01*
X347201Y37611D01*
X347213Y37530D01*
Y37461D01*
Y37415D01*
Y37404D01*
X347201Y37186D01*
X347190Y36979D01*
X347132Y36589D01*
X347041Y36221D01*
X346995Y36061D01*
X346937Y35900D01*
X346891Y35762D01*
X346846Y35636D01*
X346800Y35533D01*
X346754Y35441D01*
X346719Y35372D01*
X346696Y35315D01*
X346673Y35280D01*
Y35269D01*
X346570Y35085D01*
X346455Y34913D01*
X346191Y34603D01*
X345927Y34339D01*
X345801Y34224D01*
X345674Y34121D01*
X345548Y34029D01*
X345445Y33948D01*
X345341Y33891D01*
X345250Y33833D01*
X345181Y33788D01*
X345123Y33753D01*
X345089Y33742D01*
X345077Y33730D01*
X344871Y33638D01*
X344664Y33547D01*
X344251Y33409D01*
X343849Y33317D01*
X343654Y33282D01*
X343470Y33248D01*
X343298Y33225D01*
X343149Y33202D01*
X343011Y33191D01*
X342896D01*
X342793Y33179D01*
X342425D01*
X342184Y33202D01*
X341736Y33259D01*
X341530Y33294D01*
X341335Y33340D01*
X341151Y33386D01*
X340990Y33432D01*
X340841Y33489D01*
X340703Y33535D01*
X340588Y33581D01*
X340485Y33615D01*
X340405Y33650D01*
X340347Y33673D01*
X340313Y33684D01*
X340301Y33696D01*
X339934Y33914D01*
X339762Y34029D01*
X339601Y34144D01*
X339463Y34270D01*
X339326Y34396D01*
X339199Y34522D01*
X339096Y34637D01*
X338993Y34752D01*
X338912Y34855D01*
X338843Y34959D01*
X338774Y35039D01*
X338729Y35108D01*
X338694Y35154D01*
X338683Y35188D01*
X338671Y35200D01*
X338568Y35383D01*
X338476Y35579D01*
X338396Y35762D01*
X338327Y35958D01*
X338223Y36325D01*
X338154Y36658D01*
X338132Y36818D01*
X338120Y36956D01*
X338109Y37083D01*
X338097Y37186D01*
X338086Y37278D01*
Y37335D01*
Y37381D01*
Y37393D01*
X338097Y37737D01*
X338143Y38058D01*
X338200Y38368D01*
X338281Y38655D01*
X338373Y38931D01*
X338476Y39184D01*
X338591Y39413D01*
X338706Y39620D01*
X338832Y39804D01*
X338935Y39976D01*
X339050Y40114D01*
X339142Y40228D01*
X339222Y40320D01*
X339280Y40389D01*
X339326Y40435D01*
X339337Y40447D01*
X339578Y40653D01*
X339842Y40837D01*
X340118Y40986D01*
X340393Y41124D01*
X340680Y41239D01*
X340967Y41330D01*
X341243Y41411D01*
X341518Y41468D01*
X341771Y41514D01*
X342012Y41560D01*
X342219Y41583D01*
X342402Y41595D01*
X342563Y41606D01*
X342678Y41617D01*
X342770D01*
X342988Y41606D01*
D02*
G37*
G36*
X242337Y195410D02*
X242559Y195357D01*
X242756Y195305D01*
X242952Y195226D01*
X243136Y195147D01*
X243306Y195069D01*
X243464Y194977D01*
X243608Y194898D01*
X243726Y194807D01*
X243844Y194728D01*
X243936Y194649D01*
X244014Y194584D01*
X244080Y194518D01*
X244119Y194479D01*
X244145Y194453D01*
X244158Y194440D01*
X244302Y194269D01*
X244420Y194099D01*
X244525Y193916D01*
X244617Y193719D01*
X244683Y193535D01*
X244748Y193352D01*
X244840Y193011D01*
X244879Y192854D01*
X244905Y192697D01*
X244918Y192565D01*
X244932Y192461D01*
X244945Y192369D01*
Y192290D01*
Y192251D01*
Y192238D01*
X244932Y191963D01*
X244905Y191714D01*
X244866Y191465D01*
X244800Y191242D01*
X244735Y191019D01*
X244656Y190822D01*
X244578Y190639D01*
X244486Y190469D01*
X244407Y190324D01*
X244329Y190193D01*
X244250Y190075D01*
X244184Y189984D01*
X244119Y189905D01*
X244080Y189853D01*
X244053Y189826D01*
X244040Y189813D01*
X243870Y189643D01*
X243686Y189499D01*
X243490Y189368D01*
X243306Y189250D01*
X243110Y189158D01*
X242926Y189079D01*
X242743Y189014D01*
X242572Y188961D01*
X242415Y188922D01*
X242271Y188896D01*
X242140Y188869D01*
X242022Y188856D01*
X241930Y188843D01*
X241799D01*
X241445Y188869D01*
X241144Y188922D01*
X240869Y189001D01*
X240633Y189092D01*
X240436Y189184D01*
X240371Y189223D01*
X240305Y189263D01*
X240253Y189289D01*
X240213Y189315D01*
X240200Y189341D01*
X240187D01*
X239964Y189538D01*
X239781Y189774D01*
X239623Y189997D01*
X239506Y190219D01*
X239427Y190416D01*
X239387Y190508D01*
X239361Y190586D01*
X239348Y190639D01*
X239335Y190691D01*
X239322Y190718D01*
Y190731D01*
X239191Y190495D01*
X239060Y190285D01*
X238916Y190102D01*
X238771Y189957D01*
X238654Y189839D01*
X238562Y189761D01*
X238496Y189708D01*
X238470Y189695D01*
X238260Y189577D01*
X238051Y189485D01*
X237854Y189433D01*
X237671Y189381D01*
X237513Y189354D01*
X237382Y189341D01*
X237277D01*
X237028Y189354D01*
X236793Y189394D01*
X236570Y189459D01*
X236373Y189525D01*
X236216Y189604D01*
X236085Y189656D01*
X236006Y189708D01*
X235993Y189721D01*
X235980D01*
X235757Y189866D01*
X235574Y190036D01*
X235403Y190219D01*
X235259Y190390D01*
X235154Y190547D01*
X235075Y190665D01*
X235049Y190718D01*
X235023Y190757D01*
X235010Y190770D01*
Y190783D01*
X234892Y191045D01*
X234800Y191307D01*
X234748Y191556D01*
X234695Y191792D01*
X234669Y191989D01*
Y192081D01*
X234656Y192146D01*
Y192212D01*
Y192251D01*
Y192277D01*
Y192290D01*
X234669Y192513D01*
X234682Y192723D01*
X234761Y193116D01*
X234879Y193457D01*
X234944Y193601D01*
X234997Y193745D01*
X235062Y193863D01*
X235128Y193981D01*
X235194Y194073D01*
X235246Y194151D01*
X235285Y194217D01*
X235324Y194256D01*
X235338Y194282D01*
X235351Y194296D01*
X235482Y194440D01*
X235626Y194571D01*
X235940Y194794D01*
X236255Y194964D01*
X236556Y195108D01*
X236701Y195161D01*
X236832Y195200D01*
X236963Y195239D01*
X237055Y195265D01*
X237146Y195292D01*
X237212Y195305D01*
X237251Y195318D01*
X237264D01*
X237487Y194086D01*
X237173Y194020D01*
X236897Y193942D01*
X236661Y193837D01*
X236478Y193732D01*
X236321Y193640D01*
X236216Y193562D01*
X236163Y193509D01*
X236137Y193483D01*
X235980Y193286D01*
X235875Y193090D01*
X235796Y192880D01*
X235731Y192697D01*
X235705Y192526D01*
X235692Y192382D01*
X235678Y192330D01*
Y192290D01*
Y192277D01*
Y192264D01*
X235692Y192002D01*
X235744Y191779D01*
X235823Y191569D01*
X235901Y191399D01*
X235993Y191268D01*
X236059Y191163D01*
X236111Y191111D01*
X236137Y191084D01*
X236308Y190927D01*
X236504Y190809D01*
X236688Y190731D01*
X236858Y190665D01*
X237015Y190639D01*
X237133Y190626D01*
X237225Y190613D01*
X237251D01*
X237409Y190626D01*
X237553Y190639D01*
X237815Y190718D01*
X238038Y190809D01*
X238221Y190927D01*
X238352Y191045D01*
X238457Y191150D01*
X238509Y191229D01*
X238536Y191242D01*
Y191255D01*
X238667Y191491D01*
X238771Y191740D01*
X238837Y191976D01*
X238890Y192199D01*
X238916Y192382D01*
X238929Y192539D01*
X238942Y192592D01*
Y192631D01*
Y192657D01*
Y192670D01*
Y192736D01*
X238929Y192801D01*
X238916Y192841D01*
Y192867D01*
X240004Y193011D01*
X239964Y192828D01*
X239925Y192657D01*
X239899Y192500D01*
X239886Y192369D01*
X239872Y192277D01*
Y192199D01*
Y192146D01*
Y192133D01*
X239899Y191819D01*
X239964Y191543D01*
X240043Y191307D01*
X240148Y191098D01*
X240253Y190940D01*
X240331Y190822D01*
X240397Y190744D01*
X240423Y190718D01*
X240528Y190613D01*
X240646Y190534D01*
X240869Y190390D01*
X241105Y190285D01*
X241327Y190219D01*
X241524Y190180D01*
X241616Y190167D01*
X241681D01*
X241747Y190154D01*
X241983D01*
X242140Y190180D01*
X242428Y190246D01*
X242690Y190350D01*
X242900Y190455D01*
X243083Y190560D01*
X243215Y190665D01*
X243254Y190704D01*
X243293Y190731D01*
X243306Y190744D01*
X243319Y190757D01*
X243424Y190875D01*
X243516Y190993D01*
X243673Y191242D01*
X243778Y191491D01*
X243844Y191727D01*
X243896Y191923D01*
X243909Y192015D01*
Y192094D01*
X243922Y192146D01*
Y192199D01*
Y192225D01*
Y192238D01*
X243896Y192500D01*
X243844Y192749D01*
X243778Y192959D01*
X243686Y193142D01*
X243608Y193300D01*
X243529Y193404D01*
X243477Y193470D01*
X243464Y193496D01*
X243372Y193588D01*
X243267Y193666D01*
X243018Y193811D01*
X242769Y193942D01*
X242520Y194033D01*
X242284Y194112D01*
X242192Y194138D01*
X242101Y194165D01*
X242035Y194178D01*
X241983Y194191D01*
X241943Y194204D01*
X241930D01*
X242101Y195436D01*
X242337Y195410D01*
D02*
G37*
G36*
X289014Y193300D02*
X288910Y193077D01*
X288805Y192854D01*
X288700Y192657D01*
X288608Y192487D01*
X288530Y192343D01*
X288503Y192290D01*
X288477Y192251D01*
X288464Y192238D01*
Y192225D01*
X288307Y191963D01*
X288150Y191740D01*
X288005Y191530D01*
X287874Y191360D01*
X287769Y191229D01*
X287678Y191124D01*
X287625Y191071D01*
X287612Y191045D01*
X295489D01*
Y189813D01*
X285371D01*
Y190613D01*
X285620Y190757D01*
X285856Y190927D01*
X286092Y191111D01*
X286288Y191281D01*
X286472Y191451D01*
X286603Y191583D01*
X286655Y191635D01*
X286695Y191674D01*
X286708Y191700D01*
X286721Y191714D01*
X286970Y192015D01*
X287193Y192316D01*
X287402Y192631D01*
X287573Y192906D01*
X287704Y193155D01*
X287769Y193260D01*
X287809Y193352D01*
X287848Y193417D01*
X287874Y193470D01*
X287901Y193509D01*
Y193522D01*
X289106D01*
X289014Y193300D01*
D02*
G37*
%LPC*%
G36*
X446833Y206286D02*
X444500D01*
X444304Y206273D01*
X444120D01*
X443950Y206260D01*
X443793Y206234D01*
X443648Y206221D01*
X443517Y206208D01*
X443413Y206181D01*
X443308Y206168D01*
X443229Y206142D01*
X443150Y206129D01*
X443098Y206116D01*
X443046Y206103D01*
X443019Y206090D01*
X442993Y206076D01*
X442862Y206011D01*
X442731Y205945D01*
X442482Y205775D01*
X442272Y205592D01*
X442089Y205395D01*
X441945Y205224D01*
X441827Y205080D01*
X441787Y205015D01*
X441761Y204975D01*
X441735Y204949D01*
Y204936D01*
X441643Y204766D01*
X441565Y204582D01*
X441433Y204202D01*
X441342Y203796D01*
X441276Y203403D01*
X441250Y203219D01*
X441237Y203049D01*
X441224Y202905D01*
Y202774D01*
X441211Y202669D01*
Y202577D01*
Y202525D01*
Y202512D01*
X441224Y202105D01*
X441250Y201725D01*
X441302Y201397D01*
X441329Y201253D01*
X441342Y201109D01*
X441368Y200991D01*
X441394Y200886D01*
X441420Y200795D01*
X441447Y200716D01*
X441460Y200650D01*
X441473Y200611D01*
X441486Y200585D01*
Y200572D01*
X441591Y200283D01*
X441709Y200034D01*
X441827Y199812D01*
X441945Y199628D01*
X442063Y199484D01*
X442141Y199379D01*
X442194Y199314D01*
X442220Y199287D01*
X442351Y199169D01*
X442508Y199065D01*
X442652Y198986D01*
X442797Y198907D01*
X442928Y198855D01*
X443032Y198815D01*
X443098Y198789D01*
X443111Y198776D01*
X443124D01*
X443347Y198711D01*
X443609Y198671D01*
X443871Y198632D01*
X444120Y198619D01*
X444343Y198606D01*
X444435Y198593D01*
X446833D01*
Y206286D01*
D02*
G37*
G36*
X214864Y184489D02*
X211824D01*
Y182484D01*
Y182288D01*
Y182104D01*
X211837Y181934D01*
X211850Y181789D01*
X211863Y181645D01*
Y181514D01*
X211876Y181409D01*
X211889Y181304D01*
X211915Y181147D01*
X211942Y181042D01*
X211955Y180977D01*
X211968Y180951D01*
X212033Y180793D01*
X212112Y180649D01*
X212191Y180544D01*
X212282Y180439D01*
X212361Y180361D01*
X212426Y180308D01*
X212479Y180282D01*
X212492Y180269D01*
X212636Y180191D01*
X212794Y180125D01*
X212938Y180086D01*
X213069Y180046D01*
X213187Y180033D01*
X213292Y180020D01*
X213370D01*
X213567Y180033D01*
X213737Y180059D01*
X213895Y180099D01*
X214012Y180151D01*
X214117Y180204D01*
X214196Y180243D01*
X214248Y180269D01*
X214261Y180282D01*
X214379Y180387D01*
X214484Y180518D01*
X214563Y180636D01*
X214641Y180767D01*
X214694Y180885D01*
X214733Y180977D01*
X214746Y181029D01*
X214760Y181056D01*
X214799Y181213D01*
X214825Y181409D01*
X214838Y181619D01*
X214851Y181829D01*
X214864Y182012D01*
Y182170D01*
Y182235D01*
Y182274D01*
Y182301D01*
Y182314D01*
Y184489D01*
D02*
G37*
G36*
X341065Y200158D02*
X340973D01*
X340776Y200145D01*
X340593Y200132D01*
X340252Y200066D01*
X339951Y199961D01*
X339702Y199857D01*
X339597Y199804D01*
X339492Y199752D01*
X339413Y199699D01*
X339348Y199647D01*
X339296Y199608D01*
X339256Y199581D01*
X339243Y199555D01*
X339230D01*
X339112Y199437D01*
X339007Y199319D01*
X338915Y199201D01*
X338837Y199083D01*
X338719Y198834D01*
X338627Y198612D01*
X338588Y198415D01*
X338575Y198336D01*
X338562Y198271D01*
X338548Y198205D01*
Y198166D01*
Y198140D01*
Y198127D01*
X338562Y197982D01*
X338575Y197838D01*
X338640Y197563D01*
X338745Y197327D01*
X338863Y197131D01*
X338981Y196973D01*
X339073Y196855D01*
X339151Y196777D01*
X339164Y196750D01*
X339178D01*
X339296Y196646D01*
X339427Y196567D01*
X339702Y196423D01*
X339990Y196318D01*
X340252Y196252D01*
X340501Y196213D01*
X340606Y196200D01*
X340698D01*
X340763Y196187D01*
X341065D01*
X341248Y196213D01*
X341589Y196279D01*
X341877Y196370D01*
X342113Y196462D01*
X342297Y196567D01*
X342375Y196619D01*
X342428Y196659D01*
X342480Y196698D01*
X342520Y196724D01*
X342533Y196737D01*
X342546Y196750D01*
X342651Y196855D01*
X342743Y196973D01*
X342887Y197196D01*
X342991Y197432D01*
X343057Y197655D01*
X343109Y197851D01*
X343123Y197943D01*
Y198009D01*
X343136Y198074D01*
Y198113D01*
Y198140D01*
Y198153D01*
X343123Y198310D01*
X343109Y198467D01*
X343044Y198743D01*
X342952Y198992D01*
X342834Y199201D01*
X342729Y199372D01*
X342638Y199490D01*
X342572Y199568D01*
X342546Y199581D01*
Y199594D01*
X342428Y199699D01*
X342310Y199778D01*
X342048Y199922D01*
X341786Y200014D01*
X341537Y200093D01*
X341314Y200132D01*
X341222Y200145D01*
X341130D01*
X341065Y200158D01*
D02*
G37*
G36*
X316243Y194151D02*
X316007D01*
X315561Y194138D01*
X315155Y194125D01*
X314775Y194099D01*
X314434Y194047D01*
X314120Y194007D01*
X313844Y193955D01*
X313595Y193889D01*
X313386Y193837D01*
X313189Y193771D01*
X313032Y193719D01*
X312901Y193666D01*
X312796Y193614D01*
X312717Y193575D01*
X312652Y193549D01*
X312626Y193535D01*
X312612Y193522D01*
X312481Y193417D01*
X312363Y193313D01*
X312272Y193208D01*
X312193Y193090D01*
X312062Y192867D01*
X311970Y192644D01*
X311918Y192461D01*
X311891Y192303D01*
X311878Y192238D01*
Y192199D01*
Y192172D01*
Y192159D01*
X311891Y192002D01*
X311918Y191845D01*
X311957Y191700D01*
X312010Y191569D01*
X312141Y191320D01*
X312285Y191111D01*
X312442Y190940D01*
X312573Y190822D01*
X312626Y190770D01*
X312665Y190744D01*
X312691Y190718D01*
X312704D01*
X312875Y190613D01*
X313084Y190521D01*
X313307Y190442D01*
X313556Y190377D01*
X313831Y190324D01*
X314107Y190272D01*
X314657Y190206D01*
X314919Y190180D01*
X315181Y190154D01*
X315404Y190141D01*
X315601D01*
X315771Y190128D01*
X316453D01*
X316859Y190154D01*
X317226Y190180D01*
X317567Y190219D01*
X317868Y190259D01*
X318143Y190311D01*
X318379Y190364D01*
X318589Y190416D01*
X318772Y190482D01*
X318917Y190534D01*
X319048Y190586D01*
X319139Y190626D01*
X319218Y190665D01*
X319270Y190691D01*
X319297Y190704D01*
X319310Y190718D01*
X319454Y190822D01*
X319572Y190940D01*
X319690Y191058D01*
X319782Y191189D01*
X319860Y191307D01*
X319926Y191425D01*
X320018Y191648D01*
X320083Y191845D01*
X320096Y191936D01*
X320109Y192002D01*
X320122Y192068D01*
Y192107D01*
Y192133D01*
Y192146D01*
X320109Y192303D01*
X320083Y192448D01*
X320044Y192592D01*
X319991Y192723D01*
X319860Y192972D01*
X319716Y193181D01*
X319572Y193352D01*
X319441Y193470D01*
X319388Y193509D01*
X319349Y193549D01*
X319323Y193562D01*
X319310Y193575D01*
X319139Y193680D01*
X318930Y193758D01*
X318707Y193837D01*
X318445Y193902D01*
X318183Y193968D01*
X317907Y194007D01*
X317357Y194073D01*
X317082Y194099D01*
X316833Y194125D01*
X316610Y194138D01*
X316413D01*
X316243Y194151D01*
D02*
G37*
G36*
X219517Y184489D02*
X216057D01*
Y182170D01*
X216070Y181829D01*
X216083Y181541D01*
X216109Y181278D01*
X216136Y181082D01*
X216175Y180911D01*
X216201Y180793D01*
X216214Y180728D01*
X216227Y180702D01*
X216306Y180518D01*
X216385Y180361D01*
X216490Y180230D01*
X216581Y180112D01*
X216673Y180020D01*
X216752Y179955D01*
X216804Y179915D01*
X216817Y179902D01*
X216975Y179797D01*
X217145Y179732D01*
X217302Y179679D01*
X217459Y179640D01*
X217591Y179614D01*
X217695Y179601D01*
X217787D01*
X217957Y179614D01*
X218128Y179627D01*
X218272Y179666D01*
X218390Y179706D01*
X218495Y179745D01*
X218573Y179771D01*
X218626Y179797D01*
X218639Y179810D01*
X218770Y179889D01*
X218875Y179968D01*
X218980Y180059D01*
X219058Y180138D01*
X219124Y180217D01*
X219163Y180269D01*
X219189Y180308D01*
X219203Y180322D01*
X219268Y180439D01*
X219334Y180571D01*
X219373Y180688D01*
X219412Y180820D01*
X219438Y180924D01*
X219465Y181003D01*
X219478Y181056D01*
Y181082D01*
X219491Y181200D01*
X219504Y181331D01*
X219517Y181632D01*
Y181763D01*
Y181881D01*
Y181960D01*
Y181973D01*
Y181986D01*
Y184489D01*
D02*
G37*
G36*
X165113Y28755D02*
X164877D01*
X164431Y28742D01*
X164025Y28729D01*
X163645Y28703D01*
X163304Y28650D01*
X162990Y28611D01*
X162714Y28559D01*
X162465Y28493D01*
X162256Y28441D01*
X162059Y28375D01*
X161902Y28323D01*
X161771Y28270D01*
X161666Y28218D01*
X161587Y28179D01*
X161522Y28152D01*
X161495Y28139D01*
X161482Y28126D01*
X161351Y28021D01*
X161233Y27916D01*
X161142Y27812D01*
X161063Y27694D01*
X160932Y27471D01*
X160840Y27248D01*
X160788Y27064D01*
X160762Y26907D01*
X160748Y26842D01*
Y26802D01*
Y26776D01*
Y26763D01*
X160762Y26606D01*
X160788Y26449D01*
X160827Y26304D01*
X160879Y26173D01*
X161010Y25924D01*
X161155Y25714D01*
X161312Y25544D01*
X161443Y25426D01*
X161495Y25374D01*
X161535Y25347D01*
X161561Y25321D01*
X161574D01*
X161744Y25217D01*
X161954Y25125D01*
X162177Y25046D01*
X162426Y24980D01*
X162701Y24928D01*
X162976Y24876D01*
X163527Y24810D01*
X163789Y24784D01*
X164051Y24758D01*
X164274Y24745D01*
X164471D01*
X164641Y24732D01*
X165323D01*
X165729Y24758D01*
X166096Y24784D01*
X166437Y24823D01*
X166738Y24863D01*
X167013Y24915D01*
X167249Y24967D01*
X167459Y25020D01*
X167642Y25085D01*
X167787Y25138D01*
X167918Y25190D01*
X168009Y25230D01*
X168088Y25269D01*
X168140Y25295D01*
X168167Y25308D01*
X168180Y25321D01*
X168324Y25426D01*
X168442Y25544D01*
X168560Y25662D01*
X168652Y25793D01*
X168730Y25911D01*
X168796Y26029D01*
X168888Y26252D01*
X168953Y26449D01*
X168966Y26540D01*
X168979Y26606D01*
X168992Y26671D01*
Y26711D01*
Y26737D01*
Y26750D01*
X168979Y26907D01*
X168953Y27051D01*
X168914Y27195D01*
X168861Y27327D01*
X168730Y27576D01*
X168586Y27785D01*
X168442Y27956D01*
X168311Y28074D01*
X168258Y28113D01*
X168219Y28152D01*
X168193Y28165D01*
X168180Y28179D01*
X168009Y28283D01*
X167800Y28362D01*
X167577Y28441D01*
X167315Y28506D01*
X167053Y28572D01*
X166777Y28611D01*
X166227Y28677D01*
X165952Y28703D01*
X165703Y28729D01*
X165480Y28742D01*
X165283D01*
X165113Y28755D01*
D02*
G37*
G36*
X165703Y37130D02*
X162754Y36029D01*
X162400Y35898D01*
X162046Y35793D01*
X161718Y35702D01*
X161430Y35623D01*
X161299Y35584D01*
X161181Y35557D01*
X161076Y35531D01*
X160984Y35518D01*
X160906Y35505D01*
X160853Y35492D01*
X160827Y35479D01*
X160814D01*
X161142Y35374D01*
X161495Y35269D01*
X161849Y35151D01*
X162177Y35033D01*
X162334Y34981D01*
X162479Y34928D01*
X162610Y34876D01*
X162714Y34837D01*
X162806Y34810D01*
X162872Y34784D01*
X162911Y34758D01*
X162924D01*
X165703Y33709D01*
Y37130D01*
D02*
G37*
G36*
X189747Y34903D02*
X186798Y33802D01*
X186445Y33671D01*
X186091Y33567D01*
X185763Y33475D01*
X185475Y33396D01*
X185344Y33357D01*
X185226Y33331D01*
X185121Y33304D01*
X185029Y33291D01*
X184951Y33278D01*
X184898Y33265D01*
X184872Y33252D01*
X184859D01*
X185186Y33147D01*
X185540Y33042D01*
X185894Y32924D01*
X186222Y32806D01*
X186379Y32754D01*
X186523Y32701D01*
X186654Y32649D01*
X186759Y32610D01*
X186851Y32584D01*
X186917Y32557D01*
X186956Y32531D01*
X186969D01*
X189747Y31483D01*
Y34903D01*
D02*
G37*
G36*
X241903Y37143D02*
X238954Y36042D01*
X238600Y35911D01*
X238246Y35806D01*
X237918Y35715D01*
X237630Y35636D01*
X237499Y35597D01*
X237381Y35570D01*
X237276Y35544D01*
X237184Y35531D01*
X237106Y35518D01*
X237053Y35505D01*
X237027Y35492D01*
X237014D01*
X237342Y35387D01*
X237696Y35282D01*
X238049Y35164D01*
X238377Y35046D01*
X238534Y34994D01*
X238678Y34941D01*
X238810Y34889D01*
X238914Y34850D01*
X239006Y34824D01*
X239072Y34797D01*
X239111Y34771D01*
X239124D01*
X241903Y33723D01*
Y37143D01*
D02*
G37*
G36*
X215147Y37091D02*
X212199Y35990D01*
X211845Y35859D01*
X211491Y35754D01*
X211163Y35662D01*
X210875Y35584D01*
X210744Y35544D01*
X210626Y35518D01*
X210521Y35492D01*
X210429Y35479D01*
X210350Y35466D01*
X210298Y35453D01*
X210272Y35440D01*
X210259D01*
X210586Y35335D01*
X210940Y35230D01*
X211294Y35112D01*
X211622Y34994D01*
X211779Y34941D01*
X211923Y34889D01*
X212054Y34837D01*
X212159Y34797D01*
X212251Y34771D01*
X212316Y34745D01*
X212356Y34719D01*
X212369D01*
X215147Y33670D01*
Y37091D01*
D02*
G37*
G36*
X342862Y40412D02*
X342793D01*
X342437Y40401D01*
X342104Y40378D01*
X341794Y40332D01*
X341507Y40274D01*
X341254Y40205D01*
X341025Y40136D01*
X340818Y40056D01*
X340634Y39964D01*
X340474Y39884D01*
X340336Y39804D01*
X340210Y39735D01*
X340118Y39666D01*
X340049Y39608D01*
X339991Y39562D01*
X339968Y39539D01*
X339957Y39528D01*
X339808Y39356D01*
X339670Y39184D01*
X339555Y39000D01*
X339463Y38816D01*
X339371Y38633D01*
X339303Y38460D01*
X339245Y38288D01*
X339199Y38127D01*
X339165Y37967D01*
X339142Y37829D01*
X339119Y37703D01*
X339107Y37599D01*
X339096Y37507D01*
Y37450D01*
Y37404D01*
Y37393D01*
X339119Y37071D01*
X339165Y36773D01*
X339234Y36509D01*
X339314Y36279D01*
X339360Y36176D01*
X339406Y36084D01*
X339440Y36003D01*
X339475Y35946D01*
X339498Y35889D01*
X339521Y35854D01*
X339544Y35831D01*
Y35820D01*
X339727Y35567D01*
X339923Y35361D01*
X340129Y35177D01*
X340324Y35027D01*
X340508Y34901D01*
X340588Y34855D01*
X340646Y34821D01*
X340703Y34786D01*
X340749Y34764D01*
X340772Y34752D01*
X340784D01*
X341094Y34626D01*
X341415Y34534D01*
X341736Y34476D01*
X342024Y34430D01*
X342161Y34419D01*
X342288Y34408D01*
X342391Y34396D01*
X342483Y34385D01*
X342667D01*
X342976Y34396D01*
X343264Y34419D01*
X343539Y34465D01*
X343792Y34522D01*
X344033Y34580D01*
X344239Y34660D01*
X344446Y34729D01*
X344618Y34809D01*
X344779Y34890D01*
X344917Y34970D01*
X345032Y35050D01*
X345123Y35108D01*
X345204Y35165D01*
X345250Y35211D01*
X345284Y35234D01*
X345296Y35246D01*
X345456Y35406D01*
X345594Y35579D01*
X345720Y35762D01*
X345824Y35946D01*
X345915Y36130D01*
X345984Y36302D01*
X346053Y36486D01*
X346099Y36646D01*
X346134Y36807D01*
X346168Y36956D01*
X346191Y37083D01*
X346203Y37197D01*
Y37289D01*
X346214Y37358D01*
Y37404D01*
Y37415D01*
X346203Y37657D01*
X346180Y37875D01*
X346134Y38093D01*
X346076Y38288D01*
X346007Y38483D01*
X345927Y38655D01*
X345847Y38828D01*
X345755Y38965D01*
X345674Y39103D01*
X345594Y39218D01*
X345514Y39321D01*
X345445Y39402D01*
X345387Y39471D01*
X345341Y39528D01*
X345318Y39551D01*
X345307Y39562D01*
X345123Y39712D01*
X344940Y39838D01*
X344733Y39953D01*
X344526Y40056D01*
X344320Y40136D01*
X344113Y40205D01*
X343906Y40263D01*
X343700Y40309D01*
X343516Y40343D01*
X343344Y40366D01*
X343195Y40389D01*
X343057Y40401D01*
X342942D01*
X342862Y40412D01*
D02*
G37*
G36*
X142047Y26393D02*
X134354D01*
Y24283D01*
Y24060D01*
X134367Y23864D01*
Y23680D01*
X134380Y23510D01*
X134406Y23353D01*
X134419Y23208D01*
X134432Y23077D01*
X134459Y22973D01*
X134472Y22868D01*
X134498Y22789D01*
X134511Y22710D01*
X134524Y22658D01*
X134537Y22606D01*
X134550Y22579D01*
X134563Y22553D01*
X134629Y22422D01*
X134694Y22291D01*
X134865Y22042D01*
X135048Y21832D01*
X135245Y21649D01*
X135415Y21505D01*
X135559Y21387D01*
X135625Y21347D01*
X135664Y21321D01*
X135690Y21295D01*
X135704D01*
X135874Y21203D01*
X136058Y21125D01*
X136438Y20994D01*
X136844Y20902D01*
X137237Y20836D01*
X137421Y20810D01*
X137591Y20797D01*
X137735Y20784D01*
X137866D01*
X137971Y20771D01*
X138128D01*
X138535Y20784D01*
X138915Y20810D01*
X139242Y20863D01*
X139387Y20889D01*
X139531Y20902D01*
X139649Y20928D01*
X139754Y20954D01*
X139845Y20981D01*
X139924Y21007D01*
X139989Y21020D01*
X140029Y21033D01*
X140055Y21046D01*
X140068D01*
X140356Y21151D01*
X140605Y21269D01*
X140828Y21387D01*
X141012Y21505D01*
X141156Y21623D01*
X141261Y21701D01*
X141326Y21754D01*
X141353Y21780D01*
X141470Y21911D01*
X141575Y22068D01*
X141654Y22213D01*
X141733Y22357D01*
X141785Y22488D01*
X141824Y22592D01*
X141851Y22658D01*
X141864Y22671D01*
Y22684D01*
X141929Y22907D01*
X141968Y23169D01*
X142008Y23431D01*
X142021Y23680D01*
X142034Y23903D01*
X142047Y23995D01*
Y24074D01*
Y24152D01*
Y24205D01*
Y24231D01*
Y24244D01*
Y26393D01*
D02*
G37*
G36*
X436203Y31616D02*
X433871D01*
X433674Y31603D01*
X433490D01*
X433320Y31590D01*
X433163Y31564D01*
X433018Y31551D01*
X432887Y31538D01*
X432783Y31511D01*
X432678Y31498D01*
X432599Y31472D01*
X432520Y31459D01*
X432468Y31446D01*
X432416Y31433D01*
X432389Y31420D01*
X432363Y31407D01*
X432232Y31341D01*
X432101Y31276D01*
X431852Y31105D01*
X431642Y30922D01*
X431459Y30725D01*
X431315Y30555D01*
X431197Y30411D01*
X431157Y30345D01*
X431131Y30306D01*
X431105Y30280D01*
Y30266D01*
X431013Y30096D01*
X430935Y29913D01*
X430804Y29532D01*
X430712Y29126D01*
X430646Y28733D01*
X430620Y28549D01*
X430607Y28379D01*
X430594Y28235D01*
Y28104D01*
X430581Y27999D01*
Y27907D01*
Y27855D01*
Y27842D01*
X430594Y27435D01*
X430620Y27055D01*
X430672Y26728D01*
X430699Y26583D01*
X430712Y26439D01*
X430738Y26321D01*
X430764Y26216D01*
X430790Y26125D01*
X430817Y26046D01*
X430830Y25981D01*
X430843Y25941D01*
X430856Y25915D01*
Y25902D01*
X430961Y25614D01*
X431079Y25365D01*
X431197Y25142D01*
X431315Y24958D01*
X431433Y24814D01*
X431511Y24709D01*
X431564Y24644D01*
X431590Y24618D01*
X431721Y24500D01*
X431878Y24395D01*
X432023Y24316D01*
X432167Y24237D01*
X432298Y24185D01*
X432402Y24146D01*
X432468Y24120D01*
X432481Y24106D01*
X432494D01*
X432717Y24041D01*
X432979Y24002D01*
X433241Y23962D01*
X433490Y23949D01*
X433713Y23936D01*
X433805Y23923D01*
X436203D01*
Y31616D01*
D02*
G37*
G36*
X399868Y31865D02*
X396486D01*
X396290Y31839D01*
X396119Y31826D01*
X395962Y31787D01*
X395805Y31760D01*
X395674Y31721D01*
X395556Y31669D01*
X395451Y31630D01*
X395267Y31538D01*
X395149Y31472D01*
X395071Y31420D01*
X395045Y31393D01*
X394874Y31210D01*
X394743Y31014D01*
X394651Y30817D01*
X394586Y30633D01*
X394546Y30463D01*
X394533Y30332D01*
X394520Y30280D01*
Y30240D01*
Y30227D01*
Y30214D01*
X394533Y30031D01*
X394560Y29873D01*
X394612Y29716D01*
X394651Y29585D01*
X394704Y29467D01*
X394756Y29388D01*
X394782Y29323D01*
X394795Y29310D01*
X394900Y29165D01*
X395031Y29034D01*
X395162Y28930D01*
X395280Y28851D01*
X395398Y28785D01*
X395490Y28746D01*
X395556Y28720D01*
X395582Y28707D01*
X395792Y28641D01*
X396014Y28602D01*
X396263Y28563D01*
X396486Y28549D01*
X396696Y28536D01*
X396788Y28523D01*
X399868D01*
Y31865D01*
D02*
G37*
G36*
X365722Y29046D02*
X365653D01*
X365297Y29035D01*
X364964Y29012D01*
X364654Y28966D01*
X364367Y28908D01*
X364114Y28839D01*
X363885Y28770D01*
X363678Y28690D01*
X363494Y28598D01*
X363334Y28518D01*
X363196Y28438D01*
X363070Y28369D01*
X362978Y28300D01*
X362909Y28242D01*
X362851Y28196D01*
X362828Y28173D01*
X362817Y28162D01*
X362668Y27990D01*
X362530Y27818D01*
X362415Y27634D01*
X362323Y27450D01*
X362231Y27266D01*
X362163Y27094D01*
X362105Y26922D01*
X362059Y26761D01*
X362025Y26601D01*
X362002Y26463D01*
X361979Y26337D01*
X361967Y26233D01*
X361956Y26141D01*
Y26084D01*
Y26038D01*
Y26027D01*
X361979Y25705D01*
X362025Y25407D01*
X362094Y25143D01*
X362174Y24913D01*
X362220Y24810D01*
X362266Y24718D01*
X362300Y24637D01*
X362335Y24580D01*
X362358Y24523D01*
X362381Y24488D01*
X362404Y24465D01*
Y24454D01*
X362587Y24201D01*
X362783Y23995D01*
X362989Y23811D01*
X363184Y23661D01*
X363368Y23535D01*
X363448Y23489D01*
X363506Y23455D01*
X363563Y23420D01*
X363609Y23398D01*
X363632Y23386D01*
X363644D01*
X363954Y23260D01*
X364275Y23168D01*
X364596Y23110D01*
X364883Y23064D01*
X365021Y23053D01*
X365148Y23042D01*
X365251Y23030D01*
X365343Y23019D01*
X365527D01*
X365836Y23030D01*
X366124Y23053D01*
X366399Y23099D01*
X366652Y23156D01*
X366893Y23214D01*
X367099Y23294D01*
X367306Y23363D01*
X367478Y23443D01*
X367639Y23524D01*
X367777Y23604D01*
X367892Y23684D01*
X367983Y23742D01*
X368064Y23799D01*
X368110Y23845D01*
X368144Y23868D01*
X368156Y23880D01*
X368316Y24040D01*
X368454Y24213D01*
X368580Y24396D01*
X368684Y24580D01*
X368775Y24764D01*
X368844Y24936D01*
X368913Y25120D01*
X368959Y25280D01*
X368994Y25441D01*
X369028Y25590D01*
X369051Y25717D01*
X369063Y25831D01*
Y25923D01*
X369074Y25992D01*
Y26038D01*
Y26049D01*
X369063Y26291D01*
X369040Y26509D01*
X368994Y26727D01*
X368936Y26922D01*
X368867Y27117D01*
X368787Y27290D01*
X368707Y27462D01*
X368615Y27599D01*
X368534Y27737D01*
X368454Y27852D01*
X368374Y27955D01*
X368305Y28036D01*
X368247Y28105D01*
X368201Y28162D01*
X368178Y28185D01*
X368167Y28196D01*
X367983Y28346D01*
X367800Y28472D01*
X367593Y28587D01*
X367386Y28690D01*
X367180Y28770D01*
X366973Y28839D01*
X366766Y28897D01*
X366560Y28943D01*
X366376Y28977D01*
X366204Y29000D01*
X366055Y29023D01*
X365917Y29035D01*
X365802D01*
X365722Y29046D01*
D02*
G37*
G36*
X406059Y8362D02*
X405377D01*
X404971Y8336D01*
X404604Y8309D01*
X404263Y8270D01*
X403962Y8231D01*
X403687Y8178D01*
X403451Y8126D01*
X403241Y8073D01*
X403058Y8008D01*
X402913Y7955D01*
X402782Y7903D01*
X402691Y7864D01*
X402612Y7825D01*
X402560Y7798D01*
X402533Y7785D01*
X402520Y7772D01*
X402376Y7667D01*
X402258Y7549D01*
X402140Y7431D01*
X402048Y7300D01*
X401970Y7182D01*
X401904Y7064D01*
X401813Y6841D01*
X401747Y6645D01*
X401734Y6553D01*
X401721Y6488D01*
X401708Y6422D01*
Y6383D01*
Y6357D01*
Y6343D01*
X401721Y6186D01*
X401747Y6042D01*
X401786Y5898D01*
X401839Y5767D01*
X401970Y5518D01*
X402114Y5308D01*
X402258Y5138D01*
X402389Y5020D01*
X402442Y4980D01*
X402481Y4941D01*
X402507Y4928D01*
X402520Y4915D01*
X402691Y4810D01*
X402900Y4731D01*
X403123Y4653D01*
X403385Y4587D01*
X403647Y4522D01*
X403923Y4482D01*
X404473Y4417D01*
X404748Y4391D01*
X404997Y4364D01*
X405220Y4351D01*
X405417D01*
X405587Y4338D01*
X405823D01*
X406269Y4351D01*
X406675Y4364D01*
X407055Y4391D01*
X407396Y4443D01*
X407710Y4482D01*
X407986Y4535D01*
X408235Y4600D01*
X408444Y4653D01*
X408641Y4718D01*
X408798Y4771D01*
X408929Y4823D01*
X409034Y4875D01*
X409113Y4915D01*
X409178Y4941D01*
X409204Y4954D01*
X409218Y4967D01*
X409349Y5072D01*
X409467Y5177D01*
X409558Y5282D01*
X409637Y5400D01*
X409768Y5623D01*
X409860Y5845D01*
X409912Y6029D01*
X409939Y6186D01*
X409952Y6252D01*
Y6291D01*
Y6317D01*
Y6330D01*
X409939Y6488D01*
X409912Y6645D01*
X409873Y6789D01*
X409821Y6920D01*
X409689Y7169D01*
X409545Y7379D01*
X409388Y7549D01*
X409257Y7667D01*
X409204Y7720D01*
X409165Y7746D01*
X409139Y7772D01*
X409126D01*
X408955Y7877D01*
X408746Y7969D01*
X408523Y8047D01*
X408274Y8113D01*
X407999Y8165D01*
X407724Y8218D01*
X407173Y8283D01*
X406911Y8309D01*
X406649Y8336D01*
X406426Y8349D01*
X406229D01*
X406059Y8362D01*
D02*
G37*
G36*
X174663Y206286D02*
X172278D01*
X172107Y206273D01*
X171963Y206260D01*
X171819Y206247D01*
X171688D01*
X171583Y206234D01*
X171478Y206221D01*
X171321Y206194D01*
X171216Y206168D01*
X171151Y206155D01*
X171124Y206142D01*
X170967Y206076D01*
X170823Y205998D01*
X170718Y205919D01*
X170613Y205827D01*
X170535Y205749D01*
X170482Y205683D01*
X170456Y205631D01*
X170443Y205618D01*
X170364Y205474D01*
X170299Y205316D01*
X170259Y205172D01*
X170220Y205041D01*
X170207Y204923D01*
X170194Y204818D01*
Y204766D01*
Y204740D01*
X170207Y204543D01*
X170233Y204373D01*
X170273Y204215D01*
X170325Y204097D01*
X170377Y203993D01*
X170417Y203914D01*
X170443Y203862D01*
X170456Y203848D01*
X170561Y203730D01*
X170692Y203626D01*
X170810Y203547D01*
X170941Y203468D01*
X171059Y203416D01*
X171151Y203377D01*
X171203Y203363D01*
X171229Y203350D01*
X171387Y203311D01*
X171583Y203285D01*
X171793Y203272D01*
X172003Y203259D01*
X172186Y203246D01*
X174663D01*
Y206286D01*
D02*
G37*
G36*
X368616Y200020D02*
X368511D01*
X368327Y200007D01*
X368157Y199994D01*
X367842Y199929D01*
X367580Y199837D01*
X367344Y199732D01*
X367161Y199627D01*
X367030Y199536D01*
X366990Y199496D01*
X366951Y199470D01*
X366938Y199444D01*
X366925D01*
X366820Y199339D01*
X366728Y199221D01*
X366571Y198985D01*
X366466Y198736D01*
X366401Y198513D01*
X366348Y198330D01*
X366335Y198238D01*
Y198172D01*
X366322Y198107D01*
Y198068D01*
Y198041D01*
Y198028D01*
Y197871D01*
X366348Y197727D01*
X366414Y197452D01*
X366519Y197216D01*
X366623Y197006D01*
X366728Y196849D01*
X366833Y196731D01*
X366899Y196652D01*
X366912Y196626D01*
X366925D01*
X367043Y196521D01*
X367174Y196442D01*
X367436Y196298D01*
X367711Y196193D01*
X367973Y196128D01*
X368209Y196089D01*
X368314Y196075D01*
X368406D01*
X368471Y196062D01*
X368773D01*
X368956Y196089D01*
X369297Y196154D01*
X369599Y196246D01*
X369848Y196338D01*
X369939Y196390D01*
X370031Y196442D01*
X370110Y196495D01*
X370175Y196534D01*
X370228Y196573D01*
X370267Y196600D01*
X370280Y196613D01*
X370293Y196626D01*
X370398Y196731D01*
X370503Y196849D01*
X370660Y197071D01*
X370765Y197294D01*
X370844Y197517D01*
X370883Y197701D01*
X370909Y197845D01*
X370922Y197897D01*
Y197936D01*
Y197963D01*
Y197976D01*
X370909Y198172D01*
X370870Y198356D01*
X370831Y198539D01*
X370765Y198684D01*
X370713Y198815D01*
X370673Y198920D01*
X370634Y198972D01*
X370621Y198998D01*
X370490Y199168D01*
X370359Y199326D01*
X370215Y199457D01*
X370070Y199562D01*
X369939Y199640D01*
X369835Y199706D01*
X369769Y199745D01*
X369743Y199758D01*
X369520Y199850D01*
X369297Y199916D01*
X369087Y199955D01*
X368904Y199981D01*
X368747Y200007D01*
X368616Y200020D01*
D02*
G37*
G36*
X163130Y206430D02*
X163025Y206103D01*
X162920Y205749D01*
X162802Y205395D01*
X162684Y205067D01*
X162631Y204910D01*
X162579Y204766D01*
X162527Y204635D01*
X162487Y204530D01*
X162461Y204438D01*
X162435Y204373D01*
X162409Y204333D01*
Y204320D01*
X161360Y201542D01*
X164781D01*
X163680Y204491D01*
X163549Y204844D01*
X163444Y205198D01*
X163352Y205526D01*
X163274Y205814D01*
X163234Y205945D01*
X163208Y206063D01*
X163182Y206168D01*
X163169Y206260D01*
X163156Y206339D01*
X163143Y206391D01*
X163130Y206417D01*
Y206430D01*
D02*
G37*
G36*
X434566D02*
X434461Y206103D01*
X434356Y205749D01*
X434238Y205395D01*
X434120Y205067D01*
X434068Y204910D01*
X434015Y204766D01*
X433963Y204635D01*
X433923Y204530D01*
X433897Y204438D01*
X433871Y204373D01*
X433845Y204333D01*
Y204320D01*
X432796Y201542D01*
X436217D01*
X435116Y204491D01*
X434985Y204844D01*
X434880Y205198D01*
X434789Y205526D01*
X434710Y205814D01*
X434671Y205945D01*
X434644Y206063D01*
X434618Y206168D01*
X434605Y206260D01*
X434592Y206339D01*
X434579Y206391D01*
X434566Y206417D01*
Y206430D01*
D02*
G37*
G36*
X174663Y202053D02*
X172343D01*
X172003Y202040D01*
X171714Y202027D01*
X171452Y202000D01*
X171255Y201974D01*
X171085Y201935D01*
X170967Y201909D01*
X170902Y201896D01*
X170875Y201882D01*
X170692Y201804D01*
X170535Y201725D01*
X170404Y201620D01*
X170286Y201528D01*
X170194Y201437D01*
X170128Y201358D01*
X170089Y201306D01*
X170076Y201293D01*
X169971Y201135D01*
X169905Y200965D01*
X169853Y200808D01*
X169814Y200650D01*
X169788Y200519D01*
X169774Y200415D01*
Y200349D01*
Y200323D01*
X169788Y200152D01*
X169801Y199982D01*
X169840Y199838D01*
X169879Y199720D01*
X169919Y199615D01*
X169945Y199536D01*
X169971Y199484D01*
X169984Y199471D01*
X170063Y199340D01*
X170141Y199235D01*
X170233Y199130D01*
X170312Y199051D01*
X170390Y198986D01*
X170443Y198947D01*
X170482Y198920D01*
X170495Y198907D01*
X170613Y198842D01*
X170744Y198776D01*
X170862Y198737D01*
X170993Y198697D01*
X171098Y198671D01*
X171177Y198645D01*
X171229Y198632D01*
X171255D01*
X171373Y198619D01*
X171504Y198606D01*
X171806Y198593D01*
X174663D01*
Y202053D01*
D02*
G37*
G36*
X62687Y46328D02*
X59345D01*
Y43143D01*
Y42947D01*
X59371Y42750D01*
X59384Y42580D01*
X59424Y42422D01*
X59450Y42265D01*
X59489Y42134D01*
X59542Y42016D01*
X59581Y41911D01*
X59673Y41728D01*
X59738Y41610D01*
X59791Y41531D01*
X59817Y41505D01*
X60000Y41335D01*
X60197Y41204D01*
X60394Y41112D01*
X60577Y41046D01*
X60747Y41007D01*
X60879Y40994D01*
X60931Y40981D01*
X60996D01*
X61180Y40994D01*
X61337Y41020D01*
X61494Y41073D01*
X61625Y41112D01*
X61743Y41164D01*
X61822Y41217D01*
X61888Y41243D01*
X61901Y41256D01*
X62045Y41361D01*
X62176Y41492D01*
X62281Y41623D01*
X62359Y41741D01*
X62425Y41859D01*
X62464Y41951D01*
X62491Y42016D01*
X62504Y42042D01*
X62569Y42252D01*
X62608Y42475D01*
X62648Y42724D01*
X62661Y42947D01*
X62674Y43156D01*
X62687Y43248D01*
Y43314D01*
Y43379D01*
Y43432D01*
Y43458D01*
Y43471D01*
Y46328D01*
D02*
G37*
G36*
X266518Y29234D02*
X261970Y26062D01*
X266518D01*
Y29234D01*
D02*
G37*
G36*
X265928Y37124D02*
X262979Y36023D01*
X262625Y35892D01*
X262271Y35787D01*
X261943Y35695D01*
X261655Y35616D01*
X261524Y35577D01*
X261406Y35551D01*
X261301Y35525D01*
X261210Y35512D01*
X261131Y35498D01*
X261078Y35485D01*
X261052Y35472D01*
X261039D01*
X261367Y35367D01*
X261721Y35262D01*
X262075Y35145D01*
X262402Y35027D01*
X262559Y34974D01*
X262704Y34922D01*
X262835Y34869D01*
X262939Y34830D01*
X263031Y34804D01*
X263097Y34778D01*
X263136Y34751D01*
X263149D01*
X265928Y33703D01*
Y37124D01*
D02*
G37*
G36*
X292683Y37183D02*
X289734Y36082D01*
X289380Y35951D01*
X289026Y35846D01*
X288699Y35754D01*
X288410Y35675D01*
X288279Y35636D01*
X288161Y35610D01*
X288056Y35584D01*
X287965Y35570D01*
X287886Y35557D01*
X287834Y35544D01*
X287807Y35531D01*
X287794D01*
X288122Y35426D01*
X288476Y35322D01*
X288830Y35203D01*
X289157Y35086D01*
X289315Y35033D01*
X289459Y34981D01*
X289590Y34928D01*
X289695Y34889D01*
X289786Y34863D01*
X289852Y34837D01*
X289891Y34810D01*
X289904D01*
X292683Y33762D01*
Y37183D01*
D02*
G37*
G36*
X113312Y30780D02*
X113039Y30749D01*
X112808Y30686D01*
X112598Y30602D01*
X112420Y30508D01*
X112284Y30424D01*
X112189Y30350D01*
X112127Y30298D01*
X112106Y30277D01*
X112022Y30182D01*
X111948Y30088D01*
X111843Y29899D01*
X111759Y29700D01*
X111696Y29522D01*
X111665Y29364D01*
X111654Y29291D01*
Y29238D01*
X111644Y29186D01*
Y29154D01*
Y29133D01*
Y29123D01*
X111654Y28986D01*
X111665Y28850D01*
X111738Y28609D01*
X111822Y28399D01*
X111927Y28221D01*
X112043Y28084D01*
X112127Y27979D01*
X112168Y27948D01*
X112200Y27917D01*
X112210Y27896D01*
X112221D01*
X112368Y27791D01*
X112546Y27707D01*
X112724Y27644D01*
X112903Y27591D01*
X113060Y27560D01*
X113133Y27539D01*
X113196D01*
X113238Y27528D01*
X113280Y27518D01*
X113312D01*
Y30780D01*
D02*
G37*
G36*
X113480Y41229D02*
X111119Y40347D01*
X110836Y40243D01*
X110553Y40159D01*
X110291Y40085D01*
X110060Y40022D01*
X109955Y39991D01*
X109861Y39970D01*
X109777Y39949D01*
X109703Y39938D01*
X109640Y39928D01*
X109598Y39917D01*
X109577Y39907D01*
X109567D01*
X109829Y39823D01*
X110112Y39739D01*
X110396Y39644D01*
X110658Y39550D01*
X110784Y39508D01*
X110899Y39466D01*
X111004Y39424D01*
X111088Y39393D01*
X111161Y39372D01*
X111214Y39351D01*
X111245Y39330D01*
X111256D01*
X113480Y38491D01*
Y41229D01*
D02*
G37*
%LPD*%
D29*
X338690Y107950D02*
X346310D01*
X338690Y95250D02*
X346310D01*
X338690Y69850D02*
X346310D01*
X338690Y82550D02*
X346310D01*
D30*
X138309Y177800D02*
G03*
X138309Y177800I-11709J0D01*
G01*
D31*
X348564Y117062D02*
Y126059D01*
X344066D01*
X342566Y124560D01*
Y121560D01*
X344066Y120061D01*
X348564D01*
X345565D02*
X342566Y117062D01*
X339567D02*
X336568D01*
X338067D01*
Y126059D01*
X339567Y124560D01*
X350088Y51530D02*
Y60527D01*
X345589D01*
X344090Y59028D01*
Y56028D01*
X345589Y54529D01*
X350088D01*
X347089D02*
X344090Y51530D01*
X335093D02*
X341091D01*
X335093Y57528D01*
Y59028D01*
X336592Y60527D01*
X339591D01*
X341091Y59028D01*
X288210Y107288D02*
X289709Y108787D01*
X292708D01*
X294208Y107288D01*
Y105788D01*
X292708Y104289D01*
X289709D01*
X288210Y102789D01*
Y101290D01*
X289709Y99790D01*
X292708D01*
X294208Y101290D01*
Y141446D02*
Y150443D01*
X289709D01*
X288210Y148944D01*
Y145944D01*
X289709Y144445D01*
X294208D01*
X279213Y141446D02*
X285211D01*
X279213Y147444D01*
Y148944D01*
X280712Y150443D01*
X283711D01*
X285211Y148944D01*
X294208Y121126D02*
Y130123D01*
X289709D01*
X288210Y128624D01*
Y125625D01*
X289709Y124125D01*
X294208D01*
X285211Y121126D02*
X282212D01*
X283711D01*
Y130123D01*
X285211Y128624D01*
X294208Y88213D02*
Y79216D01*
X289709D01*
X288210Y80716D01*
Y82215D01*
X289709Y83715D01*
X294208D01*
X289709D01*
X288210Y85214D01*
Y86714D01*
X289709Y88213D01*
X294208D01*
M02*
