M48
;Layer_Color=9474304
;FILE_FORMAT=4:4
METRIC
;TYPE=PLATED
T1F00S00C0.4000
T2F00S00C0.6000
T3F00S00C0.7112
T4F00S00C1.0160
T5F00S00C2.5146
T6F00S00C2.5400
%
T01
X00106248Y00062960
X00254220Y00074930
Y00044930
X00444220
Y00074930
Y00117670
Y00147670
X00441000Y00179400
X00355422Y00155416
X00341960Y00127984
X00326000Y00131400
X00290000Y00135400
X00295732Y00093948
X00254220Y00117670
Y00147670
X00281000Y00181400
X00302500Y00182500
X00245440Y00200628
X00195720Y00181324
X00169240Y00191230
X00137490Y00138906
X00148780Y00106394
X00222500Y00152500
T02
X00152000Y00152400
X00177400
X00152000Y00177800
T03
X00322500Y00155000
T04
X00063100Y00012700
X00088500
X00113900
X00139300
X00164700
X00190100
X00215500
X00075800Y00050800
Y00076200
X00025400
X00240900Y00012700
X00266300
X00291700
X00317100
X00342500
X00367900
X00393300
X00418700
X00444100
X00425450Y00050800
X00400050
Y00076200
X00374650
Y00050800
X00425450Y00076200
Y00101600
X00400050
Y00127000
Y00152400
Y00177800
X00374650
Y00152400
Y00127000
Y00101600
X00425450Y00127000
Y00152400
Y00177800
X00418700Y00215900
X00393300
X00367900
X00342500
X00317100
X00291700
X00266300
X00240900
X00444100
X00486000Y00126800
Y00101400
X00215500Y00215900
X00190100
X00164700
X00075800Y00177800
Y00152400
Y00127000
Y00101600
X00025400
Y00127000
Y00152400
T05
X00025000Y00025400
Y00203200
T06
X00482200Y00025400
Y00203200
M30
