G04 Layer_Physical_Order=2*
G04 Layer_Color=16711680*
%FSLAX44Y44*%
%MOMM*%
G71*
G01*
G75*
%ADD10R,2.5000X4.0000*%
%ADD11R,2.3400X2.0000*%
%ADD16C,0.2200*%
%ADD17C,0.2500*%
%ADD18C,0.2032*%
%ADD19C,1.6760*%
%ADD20C,3.2004*%
%ADD21C,1.6764*%
%ADD22C,1.8796*%
%ADD23C,1.6000*%
%ADD24C,0.8000*%
%ADD25R,1.2700X0.6350*%
G04:AMPARAMS|DCode=26|XSize=1.3mm|YSize=0.8mm|CornerRadius=0.1mm|HoleSize=0mm|Usage=FLASHONLY|Rotation=270.000|XOffset=0mm|YOffset=0mm|HoleType=Round|Shape=RoundedRectangle|*
%AMROUNDEDRECTD26*
21,1,1.3000,0.6000,0,0,270.0*
21,1,1.1000,0.8000,0,0,270.0*
1,1,0.2000,-0.3000,-0.5500*
1,1,0.2000,-0.3000,0.5500*
1,1,0.2000,0.3000,0.5500*
1,1,0.2000,0.3000,-0.5500*
%
%ADD26ROUNDEDRECTD26*%
G36*
X192479Y44824D02*
X193410Y43610D01*
X195458Y42040D01*
X197443Y41217D01*
Y23535D01*
X196173Y23008D01*
X182746Y36435D01*
X182789Y36876D01*
X190825Y44911D01*
X192479Y44824D01*
D02*
G37*
G36*
X366158Y32966D02*
X367789Y30840D01*
X369916Y29208D01*
X372392Y28182D01*
X375050Y27832D01*
X377707Y28182D01*
X380184Y29208D01*
X382310Y30840D01*
X382773Y31443D01*
X384043Y31012D01*
Y19788D01*
X382773Y19357D01*
X382310Y19960D01*
X380184Y21592D01*
X377707Y22618D01*
X375050Y22968D01*
X372392Y22618D01*
X369916Y21592D01*
X367789Y19960D01*
X366158Y17834D01*
X365383Y15963D01*
X364113Y16216D01*
Y34584D01*
X365383Y34837D01*
X366158Y32966D01*
D02*
G37*
G36*
X157143Y52675D02*
Y44428D01*
X157368Y43297D01*
X158009Y42337D01*
X163281Y37065D01*
X162863Y35687D01*
X161737Y35464D01*
X159818Y34182D01*
X158537Y32263D01*
X158086Y30000D01*
X158537Y27737D01*
X159818Y25818D01*
X161043Y25000D01*
Y24658D01*
X161268Y23526D01*
X161909Y22567D01*
X179254Y5223D01*
X178966Y3778D01*
X179417Y1515D01*
X180698Y-404D01*
X182617Y-1685D01*
X184880Y-2136D01*
X187143Y-1685D01*
X187668Y-1335D01*
X188988Y-1973D01*
X189076Y-2742D01*
X186525Y-5293D01*
X183240D01*
X176856Y1091D01*
X175897Y1732D01*
X174766Y1957D01*
X144000D01*
X142868Y1732D01*
X141909Y1091D01*
X136209Y-4609D01*
X135569Y-5568D01*
X135343Y-6700D01*
Y-7300D01*
X134119Y-8119D01*
X132837Y-10037D01*
X132387Y-12300D01*
X132837Y-14563D01*
X134119Y-16482D01*
X136037Y-17764D01*
X138300Y-18214D01*
X140563Y-17764D01*
X142482Y-16482D01*
X143764Y-14563D01*
X144214Y-12300D01*
X143764Y-10037D01*
X142482Y-8119D01*
X142464Y-8106D01*
X142339Y-6842D01*
X145225Y-3957D01*
X173541D01*
X176806Y-7222D01*
X176320Y-8395D01*
X173500D01*
X172407Y-8612D01*
X171481Y-9231D01*
X170863Y-10157D01*
X170645Y-11250D01*
Y-22250D01*
X170863Y-23342D01*
X171481Y-24269D01*
X172407Y-24887D01*
X173500Y-25105D01*
X173543D01*
Y-26452D01*
X173591Y-26691D01*
X173712Y-27610D01*
X172676Y-28109D01*
X172658Y-28112D01*
X171731Y-28731D01*
X171112Y-29657D01*
X170895Y-30750D01*
Y-33293D01*
X122755D01*
X113290Y-23829D01*
X113578Y-22384D01*
X113127Y-20121D01*
X111846Y-18202D01*
X109927Y-16920D01*
X107664Y-16470D01*
X105401Y-16920D01*
X104841Y-17295D01*
X103721Y-16696D01*
Y6575D01*
X115617Y18472D01*
X117062Y18184D01*
X119325Y18635D01*
X121244Y19916D01*
X122526Y21835D01*
X122976Y24098D01*
X122526Y26361D01*
X121244Y28280D01*
X120019Y29098D01*
Y41482D01*
X121357Y41748D01*
X123276Y43030D01*
X124558Y44949D01*
X125008Y47212D01*
X124558Y49475D01*
X123276Y51394D01*
X121357Y52675D01*
X119094Y53126D01*
X116831Y52675D01*
X114912Y51394D01*
X113631Y49475D01*
X113180Y47212D01*
X113631Y44949D01*
X114105Y44239D01*
Y29098D01*
X112880Y28280D01*
X111599Y26361D01*
X111148Y24098D01*
X111436Y22653D01*
X100894Y12112D01*
X99721Y12598D01*
Y44993D01*
X112549Y57821D01*
X113190Y58780D01*
X113415Y59912D01*
Y64980D01*
X113756Y65121D01*
X115122Y66170D01*
X115129Y66179D01*
X115139Y66186D01*
X116187Y67552D01*
X116846Y69143D01*
X116903Y69580D01*
X110474D01*
Y70850D01*
X110458D01*
Y69564D01*
X104029D01*
X104086Y69127D01*
X104228Y68785D01*
X96808Y61366D01*
X95635Y61852D01*
Y69609D01*
X105079Y79053D01*
X130765D01*
X157143Y52675D01*
D02*
G37*
G36*
X284228Y76398D02*
X284148Y75775D01*
X283880Y74950D01*
X283099Y74429D01*
X280833Y72163D01*
X280192Y71203D01*
X279967Y70072D01*
Y57855D01*
X278697Y57229D01*
X278348Y57497D01*
X276757Y58156D01*
X276320Y58213D01*
Y51784D01*
X275050D01*
Y50514D01*
X268621D01*
X268678Y50077D01*
X269337Y48486D01*
X270386Y47120D01*
X271752Y46071D01*
X272093Y45930D01*
Y41555D01*
X270916Y40799D01*
X270823Y40811D01*
X270241Y41683D01*
X251796Y60127D01*
X252283Y61300D01*
X275500D01*
Y83117D01*
X277509D01*
X284228Y76398D01*
D02*
G37*
G36*
X159191Y109900D02*
X157838Y108862D01*
X156206Y106735D01*
X155180Y104258D01*
X154830Y101600D01*
X155180Y98942D01*
X156206Y96465D01*
X157838Y94338D01*
X159965Y92706D01*
X162442Y91680D01*
X165100Y91330D01*
X167758Y91680D01*
X169936Y92582D01*
X175540Y86979D01*
X175379Y86653D01*
X174857Y85865D01*
X172442Y85548D01*
X170058Y84560D01*
X168011Y82989D01*
X166440Y80942D01*
X165452Y78558D01*
X165115Y76000D01*
X165452Y73442D01*
X166440Y71058D01*
X168011Y69010D01*
X170058Y67440D01*
X172442Y66452D01*
X175000Y66115D01*
X177558Y66452D01*
X179942Y67440D01*
X181989Y69010D01*
X183560Y71058D01*
X184548Y73442D01*
X184748Y74962D01*
X186120Y75710D01*
X186282Y75632D01*
X186495Y75378D01*
Y49374D01*
X185951Y48967D01*
X184761Y49664D01*
X184884Y50600D01*
X184548Y53158D01*
X183560Y55542D01*
X181989Y57589D01*
X179942Y59160D01*
X177558Y60148D01*
X175000Y60484D01*
X172442Y60148D01*
X170254Y59241D01*
X139263Y90233D01*
X139931Y91361D01*
X142358Y91680D01*
X144835Y92706D01*
X146962Y94338D01*
X148594Y96465D01*
X149620Y98942D01*
X149970Y101600D01*
X149620Y104258D01*
X148594Y106735D01*
X146962Y108862D01*
X145609Y109900D01*
X146040Y111170D01*
X158760D01*
X159191Y109900D01*
D02*
G37*
G36*
X366158Y58366D02*
X367789Y56240D01*
X369916Y54608D01*
X372392Y53582D01*
X375050Y53232D01*
X377707Y53582D01*
X380184Y54608D01*
X382310Y56240D01*
X382773Y56843D01*
X384043Y56412D01*
Y45188D01*
X382773Y44757D01*
X382310Y45360D01*
X380184Y46992D01*
X377707Y48018D01*
X375050Y48368D01*
X372392Y48018D01*
X369916Y46992D01*
X367789Y45360D01*
X366158Y43234D01*
X365383Y41363D01*
X364113Y41616D01*
Y59984D01*
X365383Y60237D01*
X366158Y58366D01*
D02*
G37*
G36*
X81034Y93641D02*
X81372Y91939D01*
X82654Y90020D01*
X83879Y89202D01*
Y84296D01*
X84104Y83165D01*
X84745Y82205D01*
X87031Y79919D01*
X87991Y79278D01*
X89122Y79053D01*
X95056D01*
X95542Y77880D01*
X90587Y72925D01*
X89946Y71965D01*
X89721Y70834D01*
Y-17837D01*
X88451Y-18222D01*
X88182Y-17818D01*
X86263Y-16537D01*
X84000Y-16086D01*
X81737Y-16537D01*
X80141Y-17603D01*
X78871Y-17125D01*
Y93273D01*
X79708Y94110D01*
X81034Y93641D01*
D02*
G37*
G36*
X275060Y-19635D02*
X286431D01*
X287110Y-20905D01*
X286637Y-21613D01*
X286186Y-23876D01*
X286637Y-26139D01*
X287918Y-28058D01*
X289837Y-29339D01*
X292100Y-29790D01*
X294329Y-29346D01*
X294436Y-29444D01*
X295093Y-30379D01*
X293971Y-32059D01*
X293520Y-34322D01*
X293971Y-36585D01*
X295252Y-38504D01*
X297171Y-39785D01*
X299434Y-40236D01*
X301697Y-39785D01*
X303616Y-38504D01*
X304897Y-36585D01*
X305348Y-34322D01*
X305060Y-32877D01*
X309653Y-28285D01*
X309981Y-27793D01*
X311251Y-28178D01*
Y-45398D01*
X310131Y-45997D01*
X309571Y-45623D01*
X307308Y-45172D01*
X305045Y-45623D01*
X303126Y-46904D01*
X301845Y-48823D01*
X301394Y-51086D01*
X301682Y-52531D01*
X279898Y-74314D01*
X266020D01*
Y-62933D01*
X273098D01*
X273916Y-64158D01*
X275835Y-65440D01*
X278098Y-65890D01*
X280361Y-65440D01*
X282280Y-64158D01*
X283561Y-62239D01*
X284012Y-59976D01*
X283561Y-57713D01*
X282280Y-55794D01*
X280361Y-54513D01*
X278098Y-54062D01*
X275835Y-54513D01*
X273916Y-55794D01*
X273098Y-57019D01*
X266020D01*
Y-32570D01*
X258916D01*
X258431Y-31397D01*
X272211Y-17617D01*
X275060D01*
Y-19635D01*
D02*
G37*
G36*
X56371Y-78510D02*
X55532Y-79467D01*
X55298Y-79287D01*
X53707Y-78628D01*
X53270Y-78571D01*
Y-83730D01*
X58429D01*
X58372Y-83293D01*
X57713Y-81702D01*
X57415Y-81314D01*
X58252Y-80391D01*
X59212Y-81032D01*
X60343Y-81257D01*
X79550D01*
X82383Y-84091D01*
X83343Y-84732D01*
X84474Y-84957D01*
X111118D01*
X115719Y-89558D01*
X115570Y-89860D01*
Y-101600D01*
X114300D01*
Y-102870D01*
X103451D01*
X103659Y-104451D01*
X104760Y-107108D01*
X106510Y-109390D01*
X107175Y-109900D01*
X106744Y-111170D01*
X95240D01*
X94809Y-109900D01*
X96162Y-108862D01*
X97794Y-106735D01*
X98820Y-104258D01*
X99170Y-101600D01*
X98820Y-98942D01*
X97794Y-96465D01*
X96162Y-94338D01*
X94035Y-92706D01*
X91558Y-91680D01*
X88900Y-91330D01*
X86242Y-91680D01*
X83765Y-92706D01*
X81638Y-94338D01*
X80006Y-96465D01*
X78980Y-98942D01*
X78630Y-101600D01*
X78980Y-104258D01*
X80006Y-106735D01*
X81638Y-108862D01*
X82991Y-109900D01*
X82560Y-111170D01*
X69840D01*
X69409Y-109900D01*
X70762Y-108862D01*
X72394Y-106735D01*
X73420Y-104258D01*
X73770Y-101600D01*
X73420Y-98942D01*
X72394Y-96465D01*
X70762Y-94338D01*
X68635Y-92706D01*
X66158Y-91680D01*
X63500Y-91330D01*
X60842Y-91680D01*
X58365Y-92706D01*
X56238Y-94338D01*
X54606Y-96465D01*
X53580Y-98942D01*
X53230Y-101600D01*
X53580Y-104258D01*
X54606Y-106735D01*
X56238Y-108862D01*
X57591Y-109900D01*
X57160Y-111170D01*
X44440D01*
X44009Y-109900D01*
X45362Y-108862D01*
X46994Y-106735D01*
X48020Y-104258D01*
X48370Y-101600D01*
X48020Y-98942D01*
X46994Y-96465D01*
X45362Y-94338D01*
X43235Y-92706D01*
X41057Y-91804D01*
Y-83125D01*
X49225Y-74957D01*
X52818D01*
X56371Y-78510D01*
D02*
G37*
G36*
X99477Y-55505D02*
X100436Y-56146D01*
X101568Y-56371D01*
X138299D01*
X138684Y-57641D01*
X138026Y-58080D01*
X136744Y-59999D01*
X136294Y-62262D01*
X136744Y-64525D01*
X138026Y-66444D01*
X139945Y-67726D01*
X142208Y-68176D01*
X143653Y-67888D01*
X157634Y-81870D01*
X157148Y-83043D01*
X135621D01*
X135022Y-81923D01*
X135463Y-81263D01*
X135914Y-79000D01*
X135463Y-76737D01*
X134182Y-74818D01*
X132263Y-73537D01*
X130000Y-73086D01*
X128736Y-73338D01*
X127049Y-71651D01*
X126040Y-70977D01*
X124850Y-70740D01*
X102931D01*
X102253Y-69470D01*
X102842Y-68589D01*
X103292Y-66326D01*
X102842Y-64063D01*
X101560Y-62144D01*
X99641Y-60862D01*
X97378Y-60412D01*
X96857Y-60516D01*
X95635Y-59488D01*
Y-53322D01*
X96808Y-52836D01*
X99477Y-55505D01*
D02*
G37*
G36*
X200818Y13818D02*
X202737Y12536D01*
X205000Y12086D01*
X207263Y12536D01*
X209101Y13765D01*
X210025Y13563D01*
X210371Y13457D01*
Y-16079D01*
X203513Y-22938D01*
X202400Y-22343D01*
X202355Y-22250D01*
Y-11250D01*
X202138Y-10157D01*
X201519Y-9231D01*
X200592Y-8612D01*
X199500Y-8395D01*
X199457D01*
Y13570D01*
X200727Y13956D01*
X200818Y13818D01*
D02*
G37*
G36*
X275060Y-1174D02*
Y-11703D01*
X270986D01*
X269855Y-11928D01*
X268895Y-12569D01*
X249629Y-31835D01*
X249138Y-32570D01*
X243663D01*
X243137Y-31300D01*
X273790Y-648D01*
X275060Y-1174D01*
D02*
G37*
G36*
X218283Y43083D02*
X220484Y41393D01*
X220785Y41269D01*
Y-24461D01*
X204629Y-40617D01*
X203359Y-40091D01*
Y-37520D01*
X196750D01*
Y-34980D01*
X203359D01*
Y-30750D01*
X203287Y-30387D01*
X203858Y-29691D01*
X204379Y-29366D01*
X205315Y-29180D01*
X206275Y-28539D01*
X215419Y-19395D01*
X216060Y-18435D01*
X216285Y-17304D01*
Y43600D01*
X217555Y44031D01*
X218283Y43083D01*
D02*
G37*
G36*
X116079Y86140D02*
X115593Y84967D01*
X90347D01*
X89793Y85521D01*
Y89202D01*
X91018Y90020D01*
X92299Y91939D01*
X92750Y94202D01*
X92299Y96465D01*
X91925Y97025D01*
X92524Y98145D01*
X104073D01*
X116079Y86140D01*
D02*
G37*
G36*
X184591Y109900D02*
X183238Y108862D01*
X181606Y106735D01*
X180580Y104258D01*
X180230Y101600D01*
X180580Y98942D01*
X181606Y96465D01*
X183238Y94338D01*
X185365Y92706D01*
X187842Y91680D01*
X190500Y91330D01*
X193158Y91680D01*
X195336Y92582D01*
X200940Y86979D01*
X200779Y86653D01*
X200257Y85865D01*
X197842Y85548D01*
X195458Y84560D01*
X193410Y82989D01*
X191840Y80942D01*
X191721Y80654D01*
X190475Y80407D01*
X174118Y96764D01*
X175020Y98942D01*
X175370Y101600D01*
X175020Y104258D01*
X173994Y106735D01*
X172362Y108862D01*
X171009Y109900D01*
X171440Y111170D01*
X184160D01*
X184591Y109900D01*
D02*
G37*
G36*
X362391D02*
X361038Y108862D01*
X359406Y106735D01*
X358380Y104258D01*
X358030Y101600D01*
X358380Y98942D01*
X359406Y96465D01*
X361038Y94338D01*
X363165Y92706D01*
X365343Y91804D01*
Y90700D01*
X365568Y89569D01*
X366209Y88609D01*
X382942Y71877D01*
X382103Y70920D01*
X380184Y72392D01*
X377707Y73418D01*
X375050Y73768D01*
X372392Y73418D01*
X369916Y72392D01*
X367789Y70760D01*
X366158Y68634D01*
X365383Y66763D01*
X364113Y67016D01*
Y83344D01*
X363888Y84475D01*
X363247Y85435D01*
X351918Y96764D01*
X352820Y98942D01*
X353170Y101600D01*
X352820Y104258D01*
X351794Y106735D01*
X350162Y108862D01*
X348809Y109900D01*
X349240Y111170D01*
X361960D01*
X362391Y109900D01*
D02*
G37*
G36*
X209991D02*
X208638Y108862D01*
X207006Y106735D01*
X205980Y104258D01*
X205630Y101600D01*
X205980Y98942D01*
X207006Y96465D01*
X208638Y94338D01*
X210765Y92706D01*
X213242Y91680D01*
X215900Y91330D01*
X218558Y91680D01*
X221035Y92706D01*
X223162Y94338D01*
X224667Y96300D01*
X225380Y96588D01*
X226043Y96720D01*
X231493Y91269D01*
X231488Y91223D01*
X230920Y90047D01*
X206235D01*
X199518Y96764D01*
X200420Y98942D01*
X200770Y101600D01*
X200420Y104258D01*
X199394Y106735D01*
X197762Y108862D01*
X196409Y109900D01*
X196840Y111170D01*
X209560D01*
X209991Y109900D01*
D02*
G37*
G36*
X133791D02*
X132438Y108862D01*
X130806Y106735D01*
X129780Y104258D01*
X129430Y101600D01*
X129780Y98942D01*
X130806Y96465D01*
X132438Y94338D01*
X132658Y94169D01*
X132250Y92967D01*
X124235D01*
X110009Y107193D01*
X109050Y107834D01*
X107918Y108059D01*
X75936D01*
X74804Y107834D01*
X73845Y107193D01*
X26473Y59821D01*
X19164D01*
X18032Y59596D01*
X17073Y58955D01*
X6014Y47895D01*
X3323Y49010D01*
X400Y49395D01*
X-2524Y49010D01*
X-5247Y47881D01*
X-7587Y46087D01*
X-9382Y43747D01*
X-10510Y41023D01*
X-10895Y38100D01*
X-10510Y35177D01*
X-9382Y32453D01*
X-7587Y30113D01*
X-5247Y28319D01*
X-2524Y27190D01*
X400Y26805D01*
X3323Y27190D01*
X6047Y28319D01*
X8386Y30113D01*
X10181Y32453D01*
X11310Y35177D01*
X11694Y38100D01*
X11310Y41023D01*
X10195Y43714D01*
X20389Y53907D01*
X27698D01*
X28829Y54132D01*
X29788Y54773D01*
X47917Y72902D01*
X48874Y72062D01*
X48287Y71298D01*
X47628Y69707D01*
X47571Y69270D01*
X52730D01*
Y74429D01*
X52293Y74372D01*
X50702Y73713D01*
X49938Y73126D01*
X49098Y74083D01*
X76584Y101569D01*
X76940Y101502D01*
X77364Y100130D01*
X73823Y96589D01*
X73182Y95630D01*
X72957Y94498D01*
Y-35926D01*
X71732Y-36744D01*
X70451Y-38663D01*
X70000Y-40926D01*
X70451Y-43189D01*
X71732Y-45108D01*
X73651Y-46389D01*
X75914Y-46840D01*
X78177Y-46389D01*
X80096Y-45108D01*
X80620Y-44322D01*
X81890Y-44708D01*
Y-69131D01*
X82078Y-70073D01*
X81612Y-70944D01*
X81283Y-71343D01*
X63225D01*
X35595Y-43714D01*
X36710Y-41023D01*
X37094Y-38100D01*
X36710Y-35177D01*
X35581Y-32453D01*
X33786Y-30113D01*
X31447Y-28319D01*
X28723Y-27190D01*
X25800Y-26805D01*
X22877Y-27190D01*
X20152Y-28319D01*
X17813Y-30113D01*
X16018Y-32453D01*
X14890Y-35177D01*
X14505Y-38100D01*
X14890Y-41023D01*
X16018Y-43747D01*
X17813Y-46087D01*
X20152Y-47881D01*
X22877Y-49010D01*
X25800Y-49395D01*
X28723Y-49010D01*
X31414Y-47895D01*
X51388Y-67870D01*
X50902Y-69043D01*
X48000D01*
X46869Y-69268D01*
X45909Y-69909D01*
X36009Y-79809D01*
X35368Y-80768D01*
X35143Y-81900D01*
Y-91804D01*
X32965Y-92706D01*
X30838Y-94338D01*
X29206Y-96465D01*
X28180Y-98942D01*
X27830Y-101600D01*
X28180Y-104258D01*
X29206Y-106735D01*
X30838Y-108862D01*
X32191Y-109900D01*
X31760Y-111170D01*
X7162D01*
X6974Y-109900D01*
X8506Y-109435D01*
X12349Y-107381D01*
X15717Y-104617D01*
X18481Y-101249D01*
X20535Y-97406D01*
X21800Y-93236D01*
X22227Y-88900D01*
X21800Y-84564D01*
X20535Y-80394D01*
X18481Y-76551D01*
X15717Y-73183D01*
X12349Y-70419D01*
X8506Y-68365D01*
X4336Y-67100D01*
X0Y-66673D01*
X-4336Y-67100D01*
X-8506Y-68365D01*
X-12349Y-70419D01*
X-15717Y-73183D01*
X-18481Y-76551D01*
X-20535Y-80394D01*
X-20998Y-81919D01*
X-22268Y-81731D01*
Y-26599D01*
X-18187Y-22518D01*
X-18186Y-22518D01*
X-17756Y-21874D01*
X-17508Y-21503D01*
X-17508Y-21503D01*
X-17508Y-21503D01*
X-17433Y-21126D01*
X-17270Y-20305D01*
X-17270Y-20305D01*
Y20700D01*
X-17270Y20700D01*
X-17508Y21898D01*
X-18186Y22913D01*
X-22270Y26997D01*
Y81738D01*
X-21000Y81926D01*
X-20535Y80394D01*
X-18481Y76551D01*
X-15717Y73183D01*
X-12349Y70419D01*
X-8506Y68365D01*
X-4336Y67100D01*
X0Y66673D01*
X4336Y67100D01*
X8506Y68365D01*
X12349Y70419D01*
X15717Y73183D01*
X18481Y76551D01*
X20535Y80394D01*
X21800Y84564D01*
X22227Y88900D01*
X21800Y93236D01*
X20535Y97406D01*
X18481Y101249D01*
X15717Y104617D01*
X12349Y107381D01*
X8506Y109435D01*
X6974Y109900D01*
X7162Y111170D01*
X133360D01*
X133791Y109900D01*
D02*
G37*
G36*
X464025Y111161D02*
X464025Y111161D01*
Y111161D01*
X465233Y111018D01*
X466085Y110906D01*
X467948Y110134D01*
X469548Y108907D01*
X470775Y107307D01*
X471547Y105444D01*
X471795Y103564D01*
X471795Y103564D01*
X471795D01*
X471810Y103549D01*
X471829Y41105D01*
X470560Y40170D01*
X463118D01*
X462294Y41440D01*
X462634Y43148D01*
X462184Y45411D01*
X460902Y47330D01*
X458983Y48611D01*
X456720Y49062D01*
X454457Y48611D01*
X452539Y47330D01*
X451257Y45411D01*
X450807Y43148D01*
X451147Y41440D01*
X450323Y40170D01*
X442421D01*
Y-3430D01*
X470573D01*
X471020Y-3430D01*
X471844Y-4359D01*
X471852Y-31645D01*
X470582Y-32570D01*
X442421D01*
Y-69719D01*
X420004D01*
X419186Y-68494D01*
X417267Y-67213D01*
X415004Y-66762D01*
X412741Y-67213D01*
X410822Y-68494D01*
X410696Y-68684D01*
X409571Y-68082D01*
X410368Y-66157D01*
X410718Y-63500D01*
X410368Y-60842D01*
X409342Y-58366D01*
X407710Y-56240D01*
X405584Y-54608D01*
X403107Y-53582D01*
X400450Y-53232D01*
X397792Y-53582D01*
X395316Y-54608D01*
X393189Y-56240D01*
X391558Y-58366D01*
X390532Y-60842D01*
X390182Y-63500D01*
X390532Y-66157D01*
X391558Y-68634D01*
X393189Y-70760D01*
X395316Y-72392D01*
X397792Y-73418D01*
X400450Y-73768D01*
X403107Y-73418D01*
X405584Y-72392D01*
X407710Y-70760D01*
X408473Y-69767D01*
X409540Y-70413D01*
X409090Y-72676D01*
X409540Y-74939D01*
X410822Y-76858D01*
X412741Y-78140D01*
X415004Y-78590D01*
X417267Y-78140D01*
X419186Y-76858D01*
X420004Y-75633D01*
X442421D01*
Y-76170D01*
X452450D01*
X452836Y-77440D01*
X452539Y-77638D01*
X451257Y-79557D01*
X450807Y-81820D01*
X451257Y-84083D01*
X452539Y-86002D01*
X454457Y-87283D01*
X456720Y-87734D01*
X458983Y-87283D01*
X460902Y-86002D01*
X462184Y-84083D01*
X462634Y-81820D01*
X462184Y-79557D01*
X460902Y-77638D01*
X460605Y-77440D01*
X460991Y-76170D01*
X470596D01*
X471020Y-76170D01*
X471866Y-77090D01*
X471874Y-102310D01*
X471795Y-103564D01*
X471795D01*
X471795Y-103564D01*
X471547Y-105444D01*
X470775Y-107307D01*
X469548Y-108907D01*
X467948Y-110134D01*
X466085Y-110906D01*
X465233Y-111018D01*
X464025Y-111161D01*
X464025Y-111161D01*
X462762Y-111170D01*
X425440D01*
X425009Y-109900D01*
X426362Y-108862D01*
X427994Y-106735D01*
X429020Y-104258D01*
X429370Y-101600D01*
X429020Y-98942D01*
X427994Y-96465D01*
X426362Y-94338D01*
X424235Y-92706D01*
X421758Y-91680D01*
X419100Y-91330D01*
X416442Y-91680D01*
X413965Y-92706D01*
X411838Y-94338D01*
X410206Y-96465D01*
X409180Y-98942D01*
X408830Y-101600D01*
X409180Y-104258D01*
X410206Y-106735D01*
X411838Y-108862D01*
X413191Y-109900D01*
X412760Y-111170D01*
X400040D01*
X399609Y-109900D01*
X400962Y-108862D01*
X402594Y-106735D01*
X403620Y-104258D01*
X403970Y-101600D01*
X403620Y-98942D01*
X402594Y-96465D01*
X400962Y-94338D01*
X398835Y-92706D01*
X396358Y-91680D01*
X393700Y-91330D01*
X391042Y-91680D01*
X388565Y-92706D01*
X386438Y-94338D01*
X384806Y-96465D01*
X383780Y-98942D01*
X383430Y-101600D01*
X383780Y-104258D01*
X384806Y-106735D01*
X386438Y-108862D01*
X387791Y-109900D01*
X387360Y-111170D01*
X374640D01*
X374209Y-109900D01*
X375562Y-108862D01*
X377194Y-106735D01*
X378220Y-104258D01*
X378570Y-101600D01*
X378220Y-98942D01*
X377194Y-96465D01*
X375562Y-94338D01*
X373435Y-92706D01*
X370958Y-91680D01*
X368300Y-91330D01*
X365642Y-91680D01*
X363165Y-92706D01*
X361038Y-94338D01*
X359406Y-96465D01*
X358380Y-98942D01*
X358030Y-101600D01*
X358380Y-104258D01*
X359406Y-106735D01*
X361038Y-108862D01*
X362391Y-109900D01*
X361960Y-111170D01*
X349240D01*
X348809Y-109900D01*
X350162Y-108862D01*
X351794Y-106735D01*
X352820Y-104258D01*
X353170Y-101600D01*
X352820Y-98942D01*
X351794Y-96465D01*
X350162Y-94338D01*
X349929Y-94159D01*
X350226Y-93285D01*
X350446Y-92955D01*
X351567Y-92732D01*
X352527Y-92091D01*
X363247Y-81371D01*
X363888Y-80412D01*
X364113Y-79280D01*
Y-67016D01*
X365383Y-66763D01*
X366158Y-68634D01*
X367789Y-70760D01*
X369916Y-72392D01*
X372392Y-73418D01*
X375050Y-73768D01*
X377707Y-73418D01*
X380184Y-72392D01*
X382310Y-70760D01*
X383942Y-68634D01*
X384968Y-66157D01*
X385318Y-63500D01*
X384968Y-60842D01*
X383942Y-58366D01*
X382310Y-56240D01*
X380184Y-54608D01*
X377707Y-53582D01*
X375050Y-53232D01*
X372392Y-53582D01*
X369916Y-54608D01*
X367789Y-56240D01*
X366158Y-58366D01*
X365383Y-60237D01*
X364113Y-59984D01*
Y-41616D01*
X365383Y-41363D01*
X366158Y-43234D01*
X367789Y-45360D01*
X369916Y-46992D01*
X372392Y-48018D01*
X375050Y-48368D01*
X377707Y-48018D01*
X380184Y-46992D01*
X382310Y-45360D01*
X383942Y-43234D01*
X384968Y-40757D01*
X385318Y-38100D01*
X384968Y-35443D01*
X383942Y-32966D01*
X382310Y-30840D01*
X380184Y-29208D01*
X377707Y-28182D01*
X375050Y-27832D01*
X372392Y-28182D01*
X369916Y-29208D01*
X367789Y-30840D01*
X366158Y-32966D01*
X365383Y-34837D01*
X364113Y-34584D01*
Y-16216D01*
X365383Y-15963D01*
X366158Y-17834D01*
X367789Y-19960D01*
X369916Y-21592D01*
X372392Y-22618D01*
X375050Y-22968D01*
X377707Y-22618D01*
X380184Y-21592D01*
X382310Y-19960D01*
X383942Y-17834D01*
X384968Y-15358D01*
X385318Y-12700D01*
X384968Y-10043D01*
X383942Y-7566D01*
X383774Y-7348D01*
X384654Y-6408D01*
X384737Y-6464D01*
X387000Y-6914D01*
X389263Y-6464D01*
X391182Y-5182D01*
X392463Y-3263D01*
X392914Y-1000D01*
X392463Y1263D01*
X391182Y3182D01*
X389957Y4000D01*
Y8112D01*
X391227Y8365D01*
X391558Y7566D01*
X393189Y5440D01*
X395316Y3808D01*
X397792Y2782D01*
X400450Y2432D01*
X403107Y2782D01*
X405584Y3808D01*
X407710Y5440D01*
X409342Y7566D01*
X410368Y10043D01*
X410718Y12700D01*
X410368Y15358D01*
X409342Y17834D01*
X407710Y19960D01*
X405584Y21592D01*
X403107Y22618D01*
X400450Y22968D01*
X397792Y22618D01*
X395316Y21592D01*
X393189Y19960D01*
X391558Y17834D01*
X391227Y17035D01*
X389957Y17288D01*
Y33512D01*
X391227Y33765D01*
X391558Y32966D01*
X393189Y30840D01*
X395316Y29208D01*
X397792Y28182D01*
X400450Y27832D01*
X403107Y28182D01*
X405584Y29208D01*
X407710Y30840D01*
X409342Y32966D01*
X410368Y35443D01*
X410718Y38100D01*
X410368Y40757D01*
X409342Y43234D01*
X407710Y45360D01*
X405584Y46992D01*
X403107Y48018D01*
X400450Y48368D01*
X397792Y48018D01*
X395316Y46992D01*
X393189Y45360D01*
X391558Y43234D01*
X391227Y42435D01*
X389957Y42688D01*
Y58912D01*
X391227Y59165D01*
X391558Y58366D01*
X393189Y56240D01*
X395316Y54608D01*
X397792Y53582D01*
X400450Y53232D01*
X403107Y53582D01*
X405584Y54608D01*
X407710Y56240D01*
X409342Y58366D01*
X410368Y60842D01*
X410718Y63500D01*
X410368Y66157D01*
X409342Y68634D01*
X407710Y70760D01*
X405584Y72392D01*
X403107Y73418D01*
X400450Y73768D01*
X397792Y73418D01*
X395316Y72392D01*
X393189Y70760D01*
X391558Y68634D01*
X391227Y67835D01*
X389957Y68088D01*
Y72000D01*
X389732Y73132D01*
X389091Y74091D01*
X372150Y91031D01*
X372398Y92277D01*
X373435Y92706D01*
X375562Y94338D01*
X377194Y96465D01*
X378220Y98942D01*
X378570Y101600D01*
X378220Y104258D01*
X377194Y106735D01*
X375562Y108862D01*
X374209Y109900D01*
X374640Y111170D01*
X387360D01*
X387791Y109900D01*
X386438Y108862D01*
X384806Y106735D01*
X383780Y104258D01*
X383430Y101600D01*
X383780Y98942D01*
X384806Y96465D01*
X386438Y94338D01*
X388565Y92706D01*
X391042Y91680D01*
X393700Y91330D01*
X396358Y91680D01*
X398835Y92706D01*
X400962Y94338D01*
X402594Y96465D01*
X403620Y98942D01*
X403970Y101600D01*
X403620Y104258D01*
X402594Y106735D01*
X400962Y108862D01*
X399609Y109900D01*
X400040Y111170D01*
X412760D01*
X413191Y109900D01*
X411838Y108862D01*
X410206Y106735D01*
X409180Y104258D01*
X408830Y101600D01*
X409180Y98942D01*
X410206Y96465D01*
X411838Y94338D01*
X413965Y92706D01*
X416442Y91680D01*
X419100Y91330D01*
X421758Y91680D01*
X424235Y92706D01*
X426362Y94338D01*
X427994Y96465D01*
X429020Y98942D01*
X429370Y101600D01*
X429020Y104258D01*
X427994Y106735D01*
X426362Y108862D01*
X425009Y109900D01*
X425440Y111170D01*
X462762D01*
X464025Y111161D01*
D02*
G37*
G36*
X336991Y109900D02*
X335638Y108862D01*
X334006Y106735D01*
X332980Y104258D01*
X332630Y101600D01*
X332980Y98942D01*
X334006Y96465D01*
X335638Y94338D01*
X337765Y92706D01*
X340242Y91680D01*
X342900Y91330D01*
X345558Y91680D01*
X347736Y92582D01*
X358199Y82119D01*
Y71056D01*
X356997Y70648D01*
X356910Y70760D01*
X354784Y72392D01*
X352307Y73418D01*
X349650Y73768D01*
X346992Y73418D01*
X344516Y72392D01*
X342389Y70760D01*
X340758Y68634D01*
X339732Y66157D01*
X339382Y63500D01*
X339732Y60842D01*
X340758Y58366D01*
X342389Y56240D01*
X344516Y54608D01*
X346992Y53582D01*
X349650Y53232D01*
X352307Y53582D01*
X354784Y54608D01*
X356910Y56240D01*
X356997Y56352D01*
X358199Y55944D01*
Y45656D01*
X356997Y45248D01*
X356910Y45360D01*
X354784Y46992D01*
X352307Y48018D01*
X349650Y48368D01*
X346992Y48018D01*
X344516Y46992D01*
X342389Y45360D01*
X340758Y43234D01*
X339732Y40757D01*
X339382Y38100D01*
X339732Y35443D01*
X340758Y32966D01*
X342389Y30840D01*
X344516Y29208D01*
X346992Y28182D01*
X349650Y27832D01*
X352307Y28182D01*
X354784Y29208D01*
X356910Y30840D01*
X356997Y30952D01*
X358199Y30544D01*
Y20256D01*
X356997Y19848D01*
X356910Y19960D01*
X354784Y21592D01*
X352307Y22618D01*
X349650Y22968D01*
X346992Y22618D01*
X344516Y21592D01*
X342389Y19960D01*
X340758Y17834D01*
X339732Y15358D01*
X339382Y12700D01*
X339732Y10043D01*
X340758Y7566D01*
X342389Y5440D01*
X344516Y3808D01*
X346992Y2782D01*
X349650Y2432D01*
X352307Y2782D01*
X354784Y3808D01*
X356910Y5440D01*
X356997Y5552D01*
X358199Y5144D01*
Y-5144D01*
X356997Y-5552D01*
X356910Y-5440D01*
X354784Y-3808D01*
X352307Y-2782D01*
X349650Y-2432D01*
X346992Y-2782D01*
X344516Y-3808D01*
X342389Y-5440D01*
X340758Y-7566D01*
X339732Y-10043D01*
X339382Y-12700D01*
X339732Y-15358D01*
X340758Y-17834D01*
X342389Y-19960D01*
X344516Y-21592D01*
X346992Y-22618D01*
X349650Y-22968D01*
X352307Y-22618D01*
X354784Y-21592D01*
X356910Y-19960D01*
X356997Y-19848D01*
X358199Y-20256D01*
Y-30544D01*
X356997Y-30952D01*
X356910Y-30840D01*
X354784Y-29208D01*
X352307Y-28182D01*
X349650Y-27832D01*
X346992Y-28182D01*
X344516Y-29208D01*
X342389Y-30840D01*
X340758Y-32966D01*
X339732Y-35443D01*
X339382Y-38100D01*
X339732Y-40757D01*
X340758Y-43234D01*
X342389Y-45360D01*
X344516Y-46992D01*
X346992Y-48018D01*
X349650Y-48368D01*
X352307Y-48018D01*
X354784Y-46992D01*
X356910Y-45360D01*
X356997Y-45248D01*
X358199Y-45656D01*
Y-55944D01*
X356997Y-56352D01*
X356910Y-56240D01*
X354784Y-54608D01*
X352307Y-53582D01*
X349650Y-53232D01*
X346992Y-53582D01*
X344516Y-54608D01*
X342389Y-56240D01*
X340758Y-58366D01*
X339732Y-60842D01*
X339382Y-63500D01*
X339732Y-66157D01*
X340758Y-68634D01*
X342389Y-70760D01*
X344516Y-72392D01*
X346992Y-73418D01*
X349650Y-73768D01*
X352307Y-73418D01*
X354784Y-72392D01*
X356910Y-70760D01*
X356997Y-70648D01*
X358199Y-71056D01*
Y-78055D01*
X349211Y-87043D01*
X307926D01*
X307440Y-85870D01*
X313769Y-79540D01*
X315214Y-79828D01*
X317477Y-79377D01*
X319396Y-78096D01*
X320677Y-76177D01*
X321128Y-73914D01*
X320677Y-71651D01*
X319396Y-69732D01*
X317477Y-68450D01*
X317165Y-68388D01*
Y23119D01*
X318435Y23244D01*
X318536Y22737D01*
X319818Y20818D01*
X321043Y20000D01*
X321268Y18869D01*
X321909Y17910D01*
X323043Y16775D01*
Y-7000D01*
X321818Y-7818D01*
X320536Y-9737D01*
X320086Y-12000D01*
X320536Y-14263D01*
X321818Y-16182D01*
X323737Y-17464D01*
X324776Y-17670D01*
X324869Y-17732D01*
X326000Y-17957D01*
X327132Y-17732D01*
X327224Y-17670D01*
X328263Y-17464D01*
X330182Y-16182D01*
X331464Y-14263D01*
X331914Y-12000D01*
X331464Y-9737D01*
X330182Y-7818D01*
X328957Y-7000D01*
Y18000D01*
X328732Y19131D01*
X328488Y19496D01*
X328181Y20818D01*
X329463Y22737D01*
X329913Y25000D01*
X329463Y27263D01*
X328181Y29181D01*
X326262Y30463D01*
X323999Y30914D01*
X321736Y30463D01*
X319818Y29181D01*
X318536Y27263D01*
X318435Y26756D01*
X317165Y26881D01*
Y78000D01*
X316940Y79131D01*
X316299Y80091D01*
X316215Y80147D01*
X304091Y92271D01*
X303132Y92912D01*
X302000Y93137D01*
X299770D01*
X299489Y93962D01*
X299415Y94407D01*
X300994Y96465D01*
X302020Y98942D01*
X302370Y101600D01*
X302020Y104258D01*
X300994Y106735D01*
X299362Y108862D01*
X298009Y109900D01*
X298440Y111170D01*
X311160D01*
X311591Y109900D01*
X310238Y108862D01*
X308606Y106735D01*
X307580Y104258D01*
X307230Y101600D01*
X307580Y98942D01*
X308606Y96465D01*
X310238Y94338D01*
X312365Y92706D01*
X314842Y91680D01*
X317500Y91330D01*
X320158Y91680D01*
X322635Y92706D01*
X324762Y94338D01*
X326394Y96465D01*
X327420Y98942D01*
X327770Y101600D01*
X327420Y104258D01*
X326394Y106735D01*
X324762Y108862D01*
X323409Y109900D01*
X323840Y111170D01*
X336560D01*
X336991Y109900D01*
D02*
G37*
G36*
X218483Y83954D02*
X218714Y82863D01*
X217240Y80942D01*
X216252Y78558D01*
X215915Y76000D01*
X216252Y73442D01*
X217075Y71456D01*
X211237Y65619D01*
X210596Y64660D01*
X210371Y63528D01*
Y55454D01*
X209101Y55202D01*
X208960Y55542D01*
X207389Y57589D01*
X205342Y59160D01*
X202958Y60148D01*
X200400Y60484D01*
X197842Y60148D01*
X195458Y59160D01*
X193679Y57795D01*
X192409Y58201D01*
Y68399D01*
X193679Y68804D01*
X195458Y67440D01*
X197842Y66452D01*
X200400Y66115D01*
X202958Y66452D01*
X205342Y67440D01*
X207389Y69010D01*
X208960Y71058D01*
X209948Y73442D01*
X210284Y76000D01*
X209948Y78558D01*
X208960Y80942D01*
X207486Y82863D01*
X207717Y83954D01*
X207778Y84133D01*
X218422D01*
X218483Y83954D01*
D02*
G37*
G36*
X234530Y69193D02*
X234859Y68701D01*
X261477Y42084D01*
X260991Y40910D01*
X252990D01*
Y18370D01*
Y-4170D01*
X260245D01*
X260731Y-5343D01*
X238559Y-27515D01*
X234534Y-30563D01*
X234399Y-30716D01*
X234229Y-30830D01*
X234019Y-31144D01*
X233768Y-31426D01*
X233701Y-31619D01*
X233588Y-31789D01*
X233514Y-32159D01*
X233391Y-32516D01*
X233403Y-32720D01*
X233363Y-32920D01*
Y-66271D01*
X232093Y-66897D01*
X231298Y-66287D01*
X229707Y-65628D01*
X229270Y-65571D01*
Y-72000D01*
X228000D01*
Y-73270D01*
X221571D01*
X221628Y-73707D01*
X222287Y-75298D01*
X223336Y-76664D01*
X223830Y-77044D01*
X223399Y-78314D01*
X162442D01*
X147834Y-63707D01*
X148122Y-62262D01*
X147671Y-59999D01*
X146390Y-58080D01*
X145732Y-57641D01*
X146117Y-56371D01*
X180146D01*
X180287Y-56712D01*
X181336Y-58078D01*
X182702Y-59127D01*
X184293Y-59786D01*
X184730Y-59843D01*
Y-53414D01*
Y-46985D01*
X184293Y-47042D01*
X182702Y-47702D01*
X181336Y-48750D01*
X180287Y-50116D01*
X180146Y-50457D01*
X115638D01*
X115039Y-49337D01*
X115414Y-48777D01*
X115864Y-46514D01*
X115414Y-44251D01*
X114132Y-42332D01*
X112907Y-41514D01*
Y-34576D01*
X112682Y-33444D01*
X112551Y-33248D01*
X113537Y-32439D01*
X119439Y-38341D01*
X120398Y-38982D01*
X121530Y-39207D01*
X170895D01*
Y-41750D01*
X171112Y-42842D01*
X171731Y-43769D01*
X172658Y-44387D01*
X173750Y-44605D01*
X179750D01*
X180842Y-44387D01*
X181019Y-44269D01*
X181500Y-44750D01*
X191774D01*
X191888Y-44882D01*
X192094Y-46226D01*
X190046Y-48275D01*
X189298Y-47702D01*
X187707Y-47042D01*
X187270Y-46985D01*
Y-53414D01*
Y-59843D01*
X187707Y-59786D01*
X189298Y-59127D01*
X190664Y-58078D01*
X191713Y-56712D01*
X191854Y-56371D01*
X196014D01*
X197145Y-56146D01*
X198105Y-55505D01*
X225833Y-27777D01*
X226474Y-26818D01*
X226699Y-25686D01*
Y40087D01*
X228551Y40331D01*
X231115Y41393D01*
X233317Y43083D01*
X235007Y45284D01*
X236069Y47848D01*
X236264Y49330D01*
X225800D01*
Y50600D01*
X224530D01*
Y61064D01*
X223048Y60869D01*
X220484Y59806D01*
X218283Y58117D01*
X217555Y57168D01*
X216285Y57600D01*
Y62303D01*
X221256Y67274D01*
X223242Y66452D01*
X225800Y66115D01*
X228358Y66452D01*
X230742Y67440D01*
X232789Y69010D01*
X233077Y69385D01*
X234530Y69193D01*
D02*
G37*
%LPC*%
G36*
X49930Y-39370D02*
X39326D01*
X39569Y-41217D01*
X40772Y-44120D01*
X42685Y-46614D01*
X45179Y-48528D01*
X48083Y-49731D01*
X49930Y-49974D01*
Y-39370D01*
D02*
G37*
G36*
X26270Y-64571D02*
Y-69730D01*
X31429D01*
X31372Y-69293D01*
X30713Y-67702D01*
X29664Y-66336D01*
X28298Y-65287D01*
X26707Y-64628D01*
X26270Y-64571D01*
D02*
G37*
G36*
X23730D02*
X23293Y-64628D01*
X21702Y-65287D01*
X20336Y-66336D01*
X19287Y-67702D01*
X18628Y-69293D01*
X18571Y-69730D01*
X23730D01*
Y-64571D01*
D02*
G37*
G36*
X60429Y66730D02*
X55270D01*
Y61571D01*
X55707Y61628D01*
X57298Y62287D01*
X58664Y63336D01*
X59713Y64702D01*
X60372Y66293D01*
X60429Y66730D01*
D02*
G37*
G36*
X400Y-26805D02*
X-2524Y-27190D01*
X-5247Y-28319D01*
X-7587Y-30113D01*
X-9382Y-32453D01*
X-10510Y-35177D01*
X-10895Y-38100D01*
X-10510Y-41023D01*
X-9382Y-43747D01*
X-7587Y-46087D01*
X-5247Y-47881D01*
X-2524Y-49010D01*
X400Y-49395D01*
X3323Y-49010D01*
X6047Y-47881D01*
X8386Y-46087D01*
X10181Y-43747D01*
X11310Y-41023D01*
X11694Y-38100D01*
X11310Y-35177D01*
X10181Y-32453D01*
X8386Y-30113D01*
X6047Y-28319D01*
X3323Y-27190D01*
X400Y-26805D01*
D02*
G37*
G36*
X63074Y-39370D02*
X52470D01*
Y-49974D01*
X54316Y-49731D01*
X57220Y-48528D01*
X59714Y-46614D01*
X61628Y-44120D01*
X62831Y-41217D01*
X63074Y-39370D01*
D02*
G37*
G36*
X400450Y-27832D02*
X397792Y-28182D01*
X395316Y-29208D01*
X393189Y-30840D01*
X391558Y-32966D01*
X390532Y-35443D01*
X390182Y-38100D01*
X390532Y-40757D01*
X391558Y-43234D01*
X393189Y-45360D01*
X395316Y-46992D01*
X397792Y-48018D01*
X400450Y-48368D01*
X403107Y-48018D01*
X405584Y-46992D01*
X407710Y-45360D01*
X409342Y-43234D01*
X410368Y-40757D01*
X410718Y-38100D01*
X410368Y-35443D01*
X409342Y-32966D01*
X407710Y-30840D01*
X405584Y-29208D01*
X403107Y-28182D01*
X400450Y-27832D01*
D02*
G37*
G36*
X226730Y-65571D02*
X226293Y-65628D01*
X224702Y-66287D01*
X223336Y-67336D01*
X222287Y-68702D01*
X221628Y-70293D01*
X221571Y-70730D01*
X226730D01*
Y-65571D01*
D02*
G37*
G36*
X58429Y-86270D02*
X53270D01*
Y-91429D01*
X53707Y-91372D01*
X55298Y-90713D01*
X56664Y-89664D01*
X57713Y-88298D01*
X58372Y-86707D01*
X58429Y-86270D01*
D02*
G37*
G36*
X50730Y-78571D02*
X50293Y-78628D01*
X48702Y-79287D01*
X47336Y-80336D01*
X46287Y-81702D01*
X45628Y-83293D01*
X45571Y-83730D01*
X50730D01*
Y-78571D01*
D02*
G37*
G36*
X113030Y-90751D02*
X111449Y-90959D01*
X108792Y-92060D01*
X106510Y-93810D01*
X104760Y-96092D01*
X103659Y-98749D01*
X103451Y-100330D01*
X113030D01*
Y-90751D01*
D02*
G37*
G36*
X50730Y-86270D02*
X45571D01*
X45628Y-86707D01*
X46287Y-88298D01*
X47336Y-89664D01*
X48702Y-90713D01*
X50293Y-91372D01*
X50730Y-91429D01*
Y-86270D01*
D02*
G37*
G36*
X23730Y-72270D02*
X18571D01*
X18628Y-72707D01*
X19287Y-74298D01*
X20336Y-75664D01*
X21702Y-76713D01*
X23293Y-77372D01*
X23730Y-77429D01*
Y-72270D01*
D02*
G37*
G36*
X31429D02*
X26270D01*
Y-77429D01*
X26707Y-77372D01*
X28298Y-76713D01*
X29664Y-75664D01*
X30713Y-74298D01*
X31372Y-72707D01*
X31429Y-72270D01*
D02*
G37*
G36*
X52730Y66730D02*
X47571D01*
X47628Y66293D01*
X48287Y64702D01*
X49336Y63336D01*
X50702Y62287D01*
X52293Y61628D01*
X52730Y61571D01*
Y66730D01*
D02*
G37*
G36*
X438626Y94020D02*
X436363Y93569D01*
X434444Y92288D01*
X433162Y90369D01*
X432712Y88106D01*
X433097Y86170D01*
X432381Y84900D01*
X431000D01*
Y61300D01*
X458000D01*
Y84900D01*
X444871D01*
X444155Y86170D01*
X444540Y88106D01*
X444090Y90369D01*
X442808Y92288D01*
X440889Y93569D01*
X438626Y94020D01*
D02*
G37*
G36*
X109204Y77280D02*
X108767Y77222D01*
X107176Y76563D01*
X105810Y75515D01*
X105803Y75505D01*
X105794Y75498D01*
X104745Y74132D01*
X104086Y72541D01*
X104029Y72104D01*
X109204D01*
Y77280D01*
D02*
G37*
G36*
X250450Y40910D02*
X236680D01*
Y19640D01*
X250450D01*
Y40910D01*
D02*
G37*
G36*
X6858Y6429D02*
X6421Y6372D01*
X4830Y5713D01*
X3464Y4664D01*
X2415Y3298D01*
X1756Y1707D01*
X1699Y1270D01*
X6858D01*
Y6429D01*
D02*
G37*
G36*
X9398D02*
Y1270D01*
X14557D01*
X14500Y1707D01*
X13841Y3298D01*
X12792Y4664D01*
X11426Y5713D01*
X9835Y6372D01*
X9398Y6429D01*
D02*
G37*
G36*
X49930Y49974D02*
X48083Y49731D01*
X45179Y48528D01*
X42685Y46614D01*
X40772Y44120D01*
X39569Y41217D01*
X39326Y39370D01*
X49930D01*
Y49974D01*
D02*
G37*
G36*
X52470D02*
Y39370D01*
X63074D01*
X62831Y41217D01*
X61628Y44120D01*
X59714Y46614D01*
X57220Y48528D01*
X54316Y49731D01*
X52470Y49974D01*
D02*
G37*
G36*
X55270Y74429D02*
Y69270D01*
X60429D01*
X60372Y69707D01*
X59713Y71298D01*
X58664Y72664D01*
X57298Y73713D01*
X55707Y74372D01*
X55270Y74429D01*
D02*
G37*
G36*
X25800Y49395D02*
X22877Y49010D01*
X20152Y47881D01*
X17813Y46087D01*
X16018Y43747D01*
X14890Y41023D01*
X14505Y38100D01*
X14890Y35177D01*
X16018Y32453D01*
X17813Y30113D01*
X20152Y28319D01*
X22877Y27190D01*
X25800Y26805D01*
X28723Y27190D01*
X31447Y28319D01*
X33786Y30113D01*
X35581Y32453D01*
X36710Y35177D01*
X37094Y38100D01*
X36710Y41023D01*
X35581Y43747D01*
X33786Y46087D01*
X31447Y47881D01*
X28723Y49010D01*
X25800Y49395D01*
D02*
G37*
G36*
X227070Y61064D02*
Y51870D01*
X236264D01*
X236069Y53351D01*
X235007Y55915D01*
X233317Y58117D01*
X231115Y59806D01*
X228551Y60869D01*
X227070Y61064D01*
D02*
G37*
G36*
X400450Y-2432D02*
X397792Y-2782D01*
X395316Y-3808D01*
X393189Y-5440D01*
X391558Y-7566D01*
X390532Y-10043D01*
X390182Y-12700D01*
X390532Y-15358D01*
X391558Y-17834D01*
X393189Y-19960D01*
X395316Y-21592D01*
X397792Y-22618D01*
X400450Y-22968D01*
X403107Y-22618D01*
X405584Y-21592D01*
X407710Y-19960D01*
X409342Y-17834D01*
X410368Y-15358D01*
X410718Y-12700D01*
X410368Y-10043D01*
X409342Y-7566D01*
X407710Y-5440D01*
X405584Y-3808D01*
X403107Y-2782D01*
X400450Y-2432D01*
D02*
G37*
G36*
X273780Y58213D02*
X273343Y58156D01*
X271752Y57497D01*
X270386Y56448D01*
X269337Y55082D01*
X268678Y53491D01*
X268621Y53054D01*
X273780D01*
Y58213D01*
D02*
G37*
G36*
X63074Y36830D02*
X51200D01*
X39326D01*
X39569Y34983D01*
X40772Y32080D01*
X42685Y29586D01*
X45179Y27672D01*
X48083Y26469D01*
X48243Y26448D01*
Y-26448D01*
X48083Y-26469D01*
X45179Y-27672D01*
X42685Y-29586D01*
X40772Y-32080D01*
X39569Y-34983D01*
X39326Y-36830D01*
X51200D01*
X63074D01*
X62831Y-34983D01*
X61628Y-32080D01*
X59714Y-29586D01*
X57220Y-27672D01*
X54316Y-26469D01*
X54157Y-26448D01*
Y26448D01*
X54316Y26469D01*
X57220Y27672D01*
X59714Y29586D01*
X61628Y32080D01*
X62831Y34983D01*
X63074Y36830D01*
D02*
G37*
G36*
X14557Y-1270D02*
X9398D01*
Y-6429D01*
X9835Y-6372D01*
X11426Y-5713D01*
X12792Y-4664D01*
X13841Y-3298D01*
X14500Y-1707D01*
X14557Y-1270D01*
D02*
G37*
G36*
X250450Y17100D02*
X236680D01*
Y-4170D01*
X250450D01*
Y17100D01*
D02*
G37*
G36*
X111744Y77280D02*
Y72120D01*
X116903D01*
X116846Y72558D01*
X116187Y74149D01*
X115139Y75515D01*
X113772Y76563D01*
X112182Y77222D01*
X111744Y77280D01*
D02*
G37*
G36*
X6858Y-1270D02*
X1699D01*
X1756Y-1707D01*
X2415Y-3298D01*
X3464Y-4664D01*
X4830Y-5713D01*
X6421Y-6372D01*
X6858Y-6429D01*
Y-1270D01*
D02*
G37*
%LPD*%
D10*
X456720Y-54370D02*
D03*
X251720D02*
D03*
Y18370D02*
D03*
X456720D02*
D03*
D11*
X444500Y73100D02*
D03*
X262000D02*
D03*
D16*
X252720Y90180D02*
X302000D01*
X314208Y-74920D02*
Y78000D01*
X314180D02*
X314208D01*
X302000Y90180D02*
X314180Y78000D01*
X326000Y-12000D02*
Y18000D01*
Y-15000D02*
Y-12000D01*
X323999Y20001D02*
X326000Y18000D01*
X323999Y20001D02*
Y25000D01*
X117062Y24098D02*
Y45180D01*
X119094Y47212D01*
X200400Y22600D02*
X205000Y18000D01*
X200400Y22600D02*
Y50600D01*
X180699Y38967D02*
X189452Y47720D01*
X223742Y48542D02*
X225800Y50600D01*
X196500Y-16750D02*
Y18500D01*
X180033Y34967D02*
X196500Y18500D01*
X169561Y34967D02*
X180033D01*
X176000Y22000D02*
Y25000D01*
X164000Y24658D02*
X184880Y3778D01*
X164000Y24658D02*
Y30000D01*
X176000Y22000D02*
X187322Y10678D01*
X187738D01*
X192500Y5916D01*
Y-3500D02*
Y5916D01*
X187750Y-8250D02*
X192500Y-3500D01*
X182016Y-8250D02*
X187750D01*
X174766Y-1000D02*
X182016Y-8250D01*
X144000Y-1000D02*
X174766D01*
X138300Y-6700D02*
X144000Y-1000D01*
X138300Y-12300D02*
Y-6700D01*
X164100Y46085D02*
X171218Y38967D01*
X164100Y46085D02*
Y55557D01*
X133647Y86010D02*
X164100Y55557D01*
X171218Y38967D02*
X180699D01*
X160100Y44428D02*
X169561Y34967D01*
X160100Y44428D02*
Y53900D01*
X131990Y82010D02*
X160100Y53900D01*
X174714Y50600D02*
X175000D01*
X135304Y90010D02*
X174714Y50600D01*
X123010Y90010D02*
X135304D01*
X107918Y105102D02*
X123010Y90010D01*
X120390Y86010D02*
X133647D01*
X105298Y101102D02*
X120390Y86010D01*
X103854Y82010D02*
X131990D01*
X82518Y101102D02*
X105298D01*
X75936Y105102D02*
X107918D01*
X387000Y-1000D02*
Y72000D01*
X368300Y90700D02*
X387000Y72000D01*
X368300Y90700D02*
Y101600D01*
X92678Y-61626D02*
X97378Y-66326D01*
X88000Y-78000D02*
X114000D01*
X84474Y-82000D02*
X112343D01*
X84300Y-74300D02*
X88000Y-78000D01*
X114000D02*
X122000Y-86000D01*
X114300Y-101600D02*
Y-96300D01*
X112343Y-82000D02*
X120343Y-90000D01*
X80774Y-78300D02*
X84474Y-82000D01*
X62000Y-74300D02*
X84300D01*
X120343Y-90000D02*
X350436D01*
X60343Y-78300D02*
X80774D01*
X54043Y-72000D02*
X60343Y-78300D01*
X122000Y-86000D02*
X303128D01*
X25800Y-38100D02*
X62000Y-74300D01*
X48000Y-72000D02*
X54043D01*
X38100Y-81900D02*
X48000Y-72000D01*
X38100Y-101600D02*
Y-81900D01*
X350436Y-90000D02*
X361156Y-79280D01*
X303128Y-86000D02*
X314208Y-74920D01*
X438626Y73100D02*
Y88106D01*
X314208Y-74920D02*
X315214Y-73914D01*
X189088Y-53414D02*
X196014D01*
X101568D02*
X103050D01*
X110458Y70834D02*
X110474Y70850D01*
X96764Y57140D02*
X110458Y70834D01*
X96764Y46218D02*
X110458Y59912D01*
X96742Y46196D02*
X96764Y46218D01*
Y57140D01*
Y-47128D02*
Y46218D01*
X287242Y26670D02*
Y42894D01*
X251720Y-59976D02*
X278098D01*
X89122Y82010D02*
X103854D01*
X415004Y-72676D02*
X456720D01*
Y-81820D02*
Y-72676D01*
X109950Y-46514D02*
Y-34576D01*
X100764Y-25390D02*
X109950Y-34576D01*
X100764Y-25390D02*
Y7800D01*
X117062Y24098D01*
X294386Y83280D02*
X301212D01*
X307562Y76930D01*
Y-26194D02*
Y76930D01*
X299434Y-34322D02*
X307562Y-26194D01*
X241300Y101600D02*
X252720Y90180D01*
X142208Y-62262D02*
X161217Y-81271D01*
X290331D01*
X306334Y-65268D01*
X96764Y-47128D02*
X103050Y-53414D01*
X189088D01*
X196750Y-45752D01*
Y-36250D01*
X110458Y59912D02*
Y70834D01*
X96742Y-48588D02*
Y46196D01*
Y-48588D02*
X101568Y-53414D01*
X196014D02*
X223742Y-25686D01*
Y48542D01*
X275050Y36830D02*
Y51784D01*
Y36830D02*
X283210D01*
X75914Y-40926D02*
Y94498D01*
X82518Y101102D01*
X189452Y47720D02*
Y77248D01*
X165100Y101600D02*
X189452Y77248D01*
X121530Y-36250D02*
X176750D01*
X107664Y-22384D02*
X121530Y-36250D01*
X456720Y18370D02*
Y43148D01*
X289913Y62452D02*
X293249Y59117D01*
Y-2915D02*
Y59117D01*
X283210Y-5588D02*
X293249Y-2915D01*
X92678Y70834D02*
X103854Y82010D01*
X92678Y-61626D02*
Y70834D01*
X276066Y16510D02*
X283210D01*
X272510Y13176D02*
X276066Y16510D01*
X272510Y2254D02*
Y13176D01*
X240506Y-29750D02*
X272510Y2254D01*
X236320Y-32920D02*
X240506Y-29750D01*
X236320Y-77271D02*
Y-32920D01*
Y-77271D02*
X281123D01*
X307308Y-51086D01*
X456720Y-72676D02*
Y-54370D01*
X190500Y101600D02*
X205010Y87090D01*
X231362D01*
X236950Y81502D01*
Y70792D02*
Y81502D01*
Y70792D02*
X268150Y39592D01*
Y24426D02*
Y39592D01*
Y24426D02*
X276066Y16510D01*
X283210Y26670D02*
X287242D01*
X282924Y47212D02*
X287242Y42894D01*
X282924Y47212D02*
Y70072D01*
X285190Y72338D01*
X295390D01*
X297402Y70326D01*
Y-6532D02*
Y70326D01*
X289274Y-14660D02*
X297402Y-6532D01*
X283210Y-14660D02*
X289274D01*
X215900Y101600D02*
X225344D01*
X240870Y86074D01*
X278734D01*
X288470Y76338D01*
X297201D01*
X301910Y71629D01*
Y-14066D02*
Y71629D01*
X292100Y-23876D02*
X301910Y-14066D01*
X186658Y-23908D02*
Y-15780D01*
Y-23908D02*
X189198Y-26448D01*
X204184D01*
X213328Y-17304D01*
Y63528D01*
X225800Y76000D01*
X86836Y84296D02*
Y94202D01*
Y84296D02*
X89122Y82010D01*
X361156Y-79280D02*
Y83344D01*
X342900Y101600D02*
X361156Y83344D01*
X251720Y-59976D02*
Y-54370D01*
X27698Y56864D02*
X75936Y105102D01*
X19164Y56864D02*
X27698D01*
X400Y38100D02*
X19164Y56864D01*
X51200Y-38100D02*
Y38100D01*
X245332Y73100D02*
X262000D01*
X251720Y-54370D02*
Y-33926D01*
X270986Y-14660D01*
X283210D01*
X438626Y73100D02*
X444500D01*
X176500Y-26452D02*
Y-16750D01*
Y-26452D02*
X176750Y-26702D01*
Y-36250D02*
Y-26702D01*
X283210Y-5588D02*
Y6350D01*
D17*
X89719Y-73850D02*
X124850D01*
X85000Y-69131D02*
X89719Y-73850D01*
X124850D02*
X130000Y-79000D01*
X85000Y-69131D02*
Y-34000D01*
X84000Y-33000D02*
X85000Y-34000D01*
X84000Y-33000D02*
Y-22000D01*
D18*
X283210Y7620D02*
Y15240D01*
Y27940D02*
Y35560D01*
D19*
X400450Y63500D02*
D03*
Y38100D02*
D03*
Y12700D02*
D03*
Y-12700D02*
D03*
Y-38100D02*
D03*
X349650Y63500D02*
D03*
Y38100D02*
D03*
Y12700D02*
D03*
Y-12700D02*
D03*
Y-38100D02*
D03*
X375050D02*
D03*
Y-12700D02*
D03*
Y12700D02*
D03*
Y38100D02*
D03*
Y63500D02*
D03*
Y-63500D02*
D03*
X349650D02*
D03*
X400450D02*
D03*
D20*
X0Y88900D02*
D03*
Y-88900D02*
D03*
D21*
X38100Y-101600D02*
D03*
X63500D02*
D03*
X88900D02*
D03*
X114300D02*
D03*
X139700D02*
D03*
X165100D02*
D03*
X190500D02*
D03*
X215900D02*
D03*
X241300D02*
D03*
X266700D02*
D03*
X292100D02*
D03*
X317500D02*
D03*
X342900D02*
D03*
X368300D02*
D03*
X393700D02*
D03*
X419100D02*
D03*
Y101600D02*
D03*
X393700D02*
D03*
X368300D02*
D03*
X342900D02*
D03*
X317500D02*
D03*
X292100D02*
D03*
X266700D02*
D03*
X241300D02*
D03*
X215900D02*
D03*
X190500D02*
D03*
X165100D02*
D03*
X139700D02*
D03*
D22*
X400Y-38100D02*
D03*
X25800D02*
D03*
X51200D02*
D03*
X400Y38100D02*
D03*
X25800D02*
D03*
X51200D02*
D03*
D23*
X225800Y50600D02*
D03*
X200400D02*
D03*
Y76000D02*
D03*
X175000Y50600D02*
D03*
Y76000D02*
D03*
X225800D02*
D03*
D24*
X326000Y-12000D02*
D03*
X323999Y25000D02*
D03*
X117062Y24098D02*
D03*
X205000Y18000D02*
D03*
X176000Y27000D02*
D03*
X164000Y30000D02*
D03*
X387000Y-1000D02*
D03*
X138300Y-12300D02*
D03*
X54000Y68000D02*
D03*
X25000Y-71000D02*
D03*
X97378Y-66326D02*
D03*
X52000Y-85000D02*
D03*
X186000Y-53414D02*
D03*
X130000Y-79000D02*
D03*
X84000Y-22000D02*
D03*
X228000Y-72000D02*
D03*
X8128Y0D02*
D03*
X109950Y-46514D02*
D03*
X119094Y47212D02*
D03*
X294386Y83280D02*
D03*
X299434Y-34322D02*
D03*
X315214Y-73914D02*
D03*
X142208Y-62262D02*
D03*
X306334Y-65268D02*
D03*
X110474Y70850D02*
D03*
X110458Y70834D02*
D03*
X275050Y51784D02*
D03*
X75914Y-40926D02*
D03*
X107664Y-22384D02*
D03*
X289913Y62452D02*
D03*
X307308Y-51086D02*
D03*
X415004Y-72676D02*
D03*
X292100Y-23876D02*
D03*
X184880Y3778D02*
D03*
X186658Y-15780D02*
D03*
X86836Y94202D02*
D03*
X278098Y-59976D02*
D03*
X245332Y73100D02*
D03*
X456720Y-81820D02*
D03*
Y43148D02*
D03*
X438626Y88106D02*
D03*
X449220Y-69370D02*
D03*
Y-39370D02*
D03*
X259220Y-69370D02*
D03*
Y-39370D02*
D03*
Y33370D02*
D03*
Y3370D02*
D03*
X449220Y33370D02*
D03*
Y3370D02*
D03*
D25*
X283210Y-14660D02*
D03*
Y-5588D02*
D03*
Y16510D02*
D03*
Y6350D02*
D03*
Y26670D02*
D03*
Y36830D02*
D03*
D26*
X196750Y-36250D02*
D03*
X176750D02*
D03*
X176500Y-16750D02*
D03*
X196500D02*
D03*
M02*
