M48
;Layer_Color=9474304
;FILE_FORMAT=4:4
METRIC
;TYPE=PLATED
T1F00S00C0.4000
T2F00S00C0.6000
T3F00S00C1.0160
T4F00S00C2.5146
%
T01
X00025000Y-00071000
X00052000Y-00085000
X00097378Y-00066326
X00109950Y-00046514
X00107664Y-00022384
X00084000Y-00022000
X00075914Y-00040926
X00142208Y-00062262
X00130000Y-00079000
X00186000Y-00053414
X00228000Y-00072000
X00259220Y-00069370
X00278098Y-00059976
X00306334Y-00065268
X00307308Y-00051086
X00299434Y-00034322
X00292100Y-00023876
X00259220Y-00039370
X00315214Y-00073914
X00415004Y-00072676
X00449220Y-00069370
X00456720Y-00081820
X00449220Y-00039370
Y00003370
Y00033370
X00456720Y00043148
X00438626Y00088106
X00387000Y-00001000
X00326000Y-00012000
X00323999Y00025000
X00289913Y00062452
X00294386Y00083280
X00275050Y00051784
X00259220Y00033370
Y00003370
X00205000Y00018000
X00245332Y00073100
X00176000Y00027000
X00164000Y00030000
X00184880Y00003778
X00186658Y-00015780
X00138300Y-00012300
X00117062Y00024098
X00119094Y00047212
X00110474Y00070850
X00110458Y00070834
X00086836Y00094202
X00054000Y00068000
X00008128Y00000000
T02
X00225800Y00050600
Y00076000
X00200400
Y00050600
X00175000
Y00076000
T03
X00038100Y-00101600
X00063500
X00088900
X00114300
X00139700
X00165100
X00190500
X00051200Y-00038100
X00025800
X00000400
X00215900Y-00101600
X00241300
X00266700
X00292100
X00317500
X00342900
X00368300
X00393700
X00419100
X00400450Y-00063500
Y-00038100
X00375050
X00349650
Y-00063500
X00375050
Y-00012700
X00400450
Y00012700
Y00038100
Y00063500
X00375050
X00349650
Y00038100
Y00012700
Y-00012700
X00375050Y00012700
Y00038100
X00368300Y00101600
X00393700
X00419100
X00342900
X00317500
X00292100
X00266700
X00241300
X00215900
X00190500
X00165100
X00139700
X00051200Y00038100
X00025800
X00000400
T04
X00000000Y-00088900
Y00088900
M30
