G04 Layer_Color=8388736*
%FSLAX44Y44*%
%MOMM*%
G71*
G01*
G75*
%ADD22C,1.8796*%
%ADD33R,2.7032X4.2032*%
%ADD34R,2.5432X2.2032*%
%ADD35R,0.9652X1.8034*%
G04:AMPARAMS|DCode=36|XSize=1.2032mm|YSize=1.1032mm|CornerRadius=0.2141mm|HoleSize=0mm|Usage=FLASHONLY|Rotation=270.000|XOffset=0mm|YOffset=0mm|HoleType=Round|Shape=RoundedRectangle|*
%AMROUNDEDRECTD36*
21,1,1.2032,0.6750,0,0,270.0*
21,1,0.7750,1.1032,0,0,270.0*
1,1,0.4282,-0.3375,-0.3875*
1,1,0.4282,-0.3375,0.3875*
1,1,0.4282,0.3375,0.3875*
1,1,0.4282,0.3375,-0.3875*
%
%ADD36ROUNDEDRECTD36*%
%ADD37R,0.8382X1.4732*%
%ADD38O,2.4032X0.8032*%
%ADD39C,1.8792*%
%ADD40C,3.4036*%
%ADD41C,2.0828*%
%ADD42C,1.8032*%
D22*
X38100Y-101600D02*
D03*
X63500D02*
D03*
X88900D02*
D03*
X114300D02*
D03*
X139700D02*
D03*
X165100D02*
D03*
X190500D02*
D03*
X215900D02*
D03*
X241300D02*
D03*
X266700D02*
D03*
X292100D02*
D03*
X317500D02*
D03*
X342900D02*
D03*
X368300D02*
D03*
X393700D02*
D03*
X419100D02*
D03*
Y101600D02*
D03*
X393700D02*
D03*
X368300D02*
D03*
X342900D02*
D03*
X317500D02*
D03*
X292100D02*
D03*
X266700D02*
D03*
X241300D02*
D03*
X215900D02*
D03*
X190500D02*
D03*
X165100D02*
D03*
X139700D02*
D03*
D33*
X456720Y-54370D02*
D03*
X251720D02*
D03*
Y18370D02*
D03*
X456720D02*
D03*
D34*
X262000Y73100D02*
D03*
X444500D02*
D03*
D35*
X100000Y80400D02*
D03*
X87300D02*
D03*
Y29600D02*
D03*
X100000D02*
D03*
X144750Y80400D02*
D03*
X132051D02*
D03*
Y29600D02*
D03*
X144750D02*
D03*
D36*
X179500Y-79000D02*
D03*
X196500D02*
D03*
X24500Y-11000D02*
D03*
X41500D02*
D03*
Y11000D02*
D03*
X24500D02*
D03*
X80250Y-750D02*
D03*
X97250D02*
D03*
D37*
X8128Y-11000D02*
D03*
X0D02*
D03*
X-8128D02*
D03*
Y11000D02*
D03*
X0D02*
D03*
X8128D02*
D03*
X97378Y-60000D02*
D03*
X89250D02*
D03*
X81122D02*
D03*
Y-41000D02*
D03*
X89250D02*
D03*
X97378D02*
D03*
X97330Y-22250D02*
D03*
X87170D02*
D03*
D38*
X163000Y13100D02*
D03*
Y400D02*
D03*
Y-12300D02*
D03*
Y-25000D02*
D03*
Y-37700D02*
D03*
Y-50400D02*
D03*
Y-63100D02*
D03*
X211000Y13100D02*
D03*
Y400D02*
D03*
Y-12300D02*
D03*
Y-25000D02*
D03*
Y-37700D02*
D03*
Y-50400D02*
D03*
Y-63100D02*
D03*
D39*
X400450Y63500D02*
D03*
Y38100D02*
D03*
Y12700D02*
D03*
Y-12700D02*
D03*
Y-38100D02*
D03*
X349650Y63500D02*
D03*
Y38100D02*
D03*
Y12700D02*
D03*
Y-12700D02*
D03*
Y-38100D02*
D03*
X375050D02*
D03*
Y-12700D02*
D03*
Y12700D02*
D03*
Y38100D02*
D03*
Y63500D02*
D03*
Y-63500D02*
D03*
X349650D02*
D03*
X400450D02*
D03*
D40*
X0Y88900D02*
D03*
Y-88900D02*
D03*
D41*
X400Y-38100D02*
D03*
X25800D02*
D03*
X51200D02*
D03*
X400Y38100D02*
D03*
X25800D02*
D03*
X51200D02*
D03*
D42*
X225800Y50600D02*
D03*
X200400D02*
D03*
Y76000D02*
D03*
X175000Y50600D02*
D03*
Y76000D02*
D03*
X225800D02*
D03*
M02*
