G04 Layer_Physical_Order=2*
G04 Layer_Color=16711680*
%FSLAX44Y44*%
%MOMM*%
G71*
G01*
G75*
%ADD10R,2.3400X2.0000*%
%ADD13R,2.5000X4.0000*%
%ADD14C,0.2500*%
%ADD15C,1.6000*%
%ADD16C,1.8800*%
%ADD17C,2.5400*%
%ADD18C,1.8796*%
%ADD19C,1.6764*%
%ADD20C,3.2004*%
%ADD21C,1.6760*%
%ADD22C,1.2700*%
%ADD23C,0.8000*%
G04:AMPARAMS|DCode=24|XSize=1.3mm|YSize=0.8mm|CornerRadius=0.1mm|HoleSize=0mm|Usage=FLASHONLY|Rotation=90.000|XOffset=0mm|YOffset=0mm|HoleType=Round|Shape=RoundedRectangle|*
%AMROUNDEDRECTD24*
21,1,1.3000,0.6000,0,0,90.0*
21,1,1.1000,0.8000,0,0,90.0*
1,1,0.2000,0.3000,0.5500*
1,1,0.2000,0.3000,-0.5500*
1,1,0.2000,-0.3000,-0.5500*
1,1,0.2000,-0.3000,0.5500*
%
%ADD24ROUNDEDRECTD24*%
%ADD25R,1.2700X0.6350*%
%ADD26C,0.2000*%
%ADD27C,0.2032*%
G36*
X108583Y163085D02*
X109493Y162478D01*
X110566Y162264D01*
X122271D01*
X122523Y160994D01*
X121809Y160698D01*
X119825Y159175D01*
X118302Y157191D01*
X117479Y155204D01*
X102361D01*
X85294Y172271D01*
X85319Y172304D01*
X86418Y174955D01*
X86792Y177800D01*
X86418Y180645D01*
X85319Y183296D01*
X83573Y185572D01*
X82740Y186211D01*
X83144Y187437D01*
X84116Y187553D01*
X108583Y163085D01*
D02*
G37*
G36*
X85156Y93916D02*
Y83884D01*
X83954Y83476D01*
X83573Y83973D01*
X81296Y85719D01*
X78645Y86818D01*
X75800Y87192D01*
X72955Y86818D01*
X70304Y85719D01*
X68028Y83973D01*
X66281Y81696D01*
X65182Y79045D01*
X64808Y76200D01*
X65182Y73355D01*
X66281Y70704D01*
X66306Y70671D01*
X63629Y67994D01*
X62456Y68480D01*
Y84290D01*
X70271Y92106D01*
X70304Y92081D01*
X72955Y90983D01*
X75800Y90608D01*
X78645Y90983D01*
X81296Y92081D01*
X83573Y93827D01*
X83954Y94324D01*
X85156Y93916D01*
D02*
G37*
G36*
X163642Y179477D02*
Y171418D01*
X163856Y170345D01*
X164463Y169435D01*
X169035Y164863D01*
X169945Y164256D01*
X171018Y164042D01*
X175351D01*
X175434Y162772D01*
X174648Y162669D01*
X172085Y161607D01*
X169883Y159917D01*
X168193Y157716D01*
X167131Y155152D01*
X166936Y153670D01*
X177400D01*
Y152400D01*
X178670D01*
Y141666D01*
X179138Y140717D01*
X150150Y111729D01*
X148780Y112002D01*
X146634Y111575D01*
X144815Y110359D01*
X143599Y108540D01*
X143173Y106394D01*
X143599Y104248D01*
X144762Y102508D01*
X144565Y101605D01*
X144454Y101238D01*
X132070D01*
X130997Y101025D01*
X130087Y100417D01*
X104265Y74595D01*
X103658Y73685D01*
X103444Y72612D01*
Y67701D01*
X102283Y66925D01*
X101067Y65106D01*
X100640Y62960D01*
X101067Y60814D01*
X102283Y58995D01*
X104102Y57779D01*
X106248Y57352D01*
X108394Y57779D01*
X110213Y58995D01*
X111429Y60814D01*
X111856Y62960D01*
X111429Y65106D01*
X110213Y66925D01*
X109052Y67701D01*
Y71451D01*
X133231Y95630D01*
X152935D01*
X154008Y95844D01*
X154917Y96452D01*
X192173Y133707D01*
X193346Y133221D01*
Y106285D01*
X128517Y41455D01*
X85223D01*
X84652Y42726D01*
X86228Y44780D01*
X87431Y47684D01*
X87674Y49530D01*
X75800D01*
Y52070D01*
X87674D01*
X87431Y53917D01*
X86228Y56821D01*
X86036Y57071D01*
X89943Y60977D01*
X90550Y61887D01*
X90764Y62960D01*
Y114840D01*
X90550Y115913D01*
X89943Y116823D01*
X86036Y120729D01*
X86228Y120979D01*
X87431Y123883D01*
X87472Y124196D01*
X152000D01*
X153073Y124410D01*
X153983Y125017D01*
X172137Y143172D01*
X174648Y142131D01*
X176130Y141936D01*
Y151130D01*
X166936D01*
X167131Y149649D01*
X168172Y147137D01*
X150839Y129804D01*
X87472D01*
X87431Y130117D01*
X86228Y133020D01*
X84314Y135514D01*
X81820Y137428D01*
X78917Y138631D01*
X77070Y138874D01*
Y127000D01*
X74530D01*
Y138874D01*
X72684Y138631D01*
X69780Y137428D01*
X67650Y135794D01*
X66380Y136292D01*
Y144799D01*
X67583Y145207D01*
X68028Y144628D01*
X70304Y142881D01*
X72955Y141783D01*
X75800Y141408D01*
X78645Y141783D01*
X81296Y142881D01*
X83573Y144628D01*
X85319Y146904D01*
X86418Y149555D01*
X86792Y152400D01*
X86418Y155245D01*
X85319Y157896D01*
X83573Y160173D01*
X81296Y161919D01*
X78645Y163018D01*
X75800Y163392D01*
X72955Y163018D01*
X70304Y161919D01*
X68028Y160173D01*
X67583Y159593D01*
X66380Y160001D01*
Y164415D01*
X70271Y168306D01*
X70304Y168281D01*
X72955Y167183D01*
X75800Y166808D01*
X78645Y167183D01*
X81296Y168281D01*
X81329Y168306D01*
X99217Y150417D01*
X100127Y149810D01*
X101200Y149596D01*
X117479D01*
X118302Y147609D01*
X119825Y145625D01*
X121809Y144102D01*
X124120Y143145D01*
X126600Y142818D01*
X129080Y143145D01*
X131391Y144102D01*
X133376Y145625D01*
X133483Y145765D01*
X134686Y145357D01*
Y143647D01*
X133525Y142871D01*
X132309Y141052D01*
X131882Y138906D01*
X132309Y136760D01*
X133525Y134941D01*
X135344Y133725D01*
X137490Y133298D01*
X139636Y133725D01*
X141455Y134941D01*
X142671Y136760D01*
X143098Y138906D01*
X142671Y141052D01*
X141455Y142871D01*
X140294Y143647D01*
Y162468D01*
X140341Y162478D01*
X141251Y163085D01*
X147533Y169368D01*
X149520Y168545D01*
X152000Y168218D01*
X154480Y168545D01*
X156791Y169502D01*
X158776Y171024D01*
X160298Y173009D01*
X161255Y175320D01*
X161582Y177800D01*
X161288Y180035D01*
X161886Y180500D01*
X162429Y180690D01*
X163642Y179477D01*
D02*
G37*
G36*
X238320Y206272D02*
X240900Y205933D01*
X241265Y205981D01*
X241725Y204760D01*
X241475Y204593D01*
X240259Y202774D01*
X239832Y200628D01*
X240105Y199258D01*
X203017Y162171D01*
X202410Y161261D01*
X202196Y160188D01*
Y120000D01*
X202410Y118927D01*
X203017Y118017D01*
X215617Y105417D01*
X216527Y104810D01*
X217600Y104596D01*
X266000D01*
X267073Y104810D01*
X267983Y105417D01*
X274487Y111921D01*
X300360D01*
Y102232D01*
X300351Y102231D01*
X299442Y101623D01*
X297102Y99283D01*
X295732Y99556D01*
X293586Y99129D01*
X291767Y97913D01*
X290551Y96094D01*
X290124Y93948D01*
X290551Y91802D01*
X291005Y91122D01*
X290407Y90002D01*
X231798D01*
X230725Y89789D01*
X229816Y89181D01*
X163090Y22455D01*
X162120Y22328D01*
X159716Y21332D01*
X157652Y19748D01*
X156068Y17684D01*
X155072Y15280D01*
X154733Y12700D01*
X155072Y10120D01*
X156068Y7716D01*
X157652Y5652D01*
X159682Y4094D01*
X159695Y3983D01*
X159401Y2824D01*
X146457D01*
X146026Y4094D01*
X147090Y4910D01*
X148840Y7192D01*
X149941Y9849D01*
X150149Y11430D01*
X139300D01*
X128451D01*
X128659Y9849D01*
X129760Y7192D01*
X131510Y4910D01*
X132574Y4094D01*
X132143Y2824D01*
X119199D01*
X118905Y3983D01*
X118918Y4094D01*
X120948Y5652D01*
X122532Y7716D01*
X123528Y10120D01*
X123867Y12700D01*
X123528Y15280D01*
X122532Y17684D01*
X120948Y19748D01*
X118884Y21332D01*
X116480Y22328D01*
X113900Y22667D01*
X111320Y22328D01*
X108916Y21332D01*
X106852Y19748D01*
X105268Y17684D01*
X104272Y15280D01*
X103933Y12700D01*
X104272Y10120D01*
X105268Y7716D01*
X106852Y5652D01*
X108882Y4094D01*
X108895Y3983D01*
X108601Y2824D01*
X93799D01*
X93505Y3983D01*
X93518Y4094D01*
X95548Y5652D01*
X97132Y7716D01*
X98128Y10120D01*
X98467Y12700D01*
X98128Y15280D01*
X97132Y17684D01*
X95548Y19748D01*
X93484Y21332D01*
X91080Y22328D01*
X88500Y22667D01*
X85920Y22328D01*
X83741Y21425D01*
X70491Y34674D01*
X70977Y35848D01*
X129678D01*
X130751Y36061D01*
X131661Y36669D01*
X198133Y103141D01*
X198741Y104051D01*
X198954Y105124D01*
Y169989D01*
X236140Y207175D01*
X238320Y206272D01*
D02*
G37*
G36*
X326230Y108292D02*
X326988Y107284D01*
X326951Y107100D01*
Y96100D01*
X327145Y95125D01*
X327698Y94298D01*
X328525Y93745D01*
X329500Y93551D01*
X329696D01*
Y84249D01*
X329500D01*
X328525Y84055D01*
X327698Y83502D01*
X327145Y82675D01*
X326951Y81700D01*
Y81289D01*
X316060D01*
Y83415D01*
X316060D01*
Y84225D01*
X316060D01*
Y93575D01*
X302640D01*
X302584Y93695D01*
X303388Y94965D01*
X316060D01*
Y105908D01*
X321312D01*
X321845Y106014D01*
X322385Y106122D01*
X322385Y106122D01*
X322385Y106122D01*
X322872Y106447D01*
X323294Y106729D01*
X324931Y108365D01*
X326230Y108292D01*
D02*
G37*
G36*
X300360Y83415D02*
Y74065D01*
X316060D01*
Y76191D01*
X326951D01*
Y70700D01*
X327145Y69725D01*
X327698Y68898D01*
X328525Y68345D01*
X329500Y68151D01*
X335500D01*
X336475Y68345D01*
X336553Y68397D01*
X337250Y67700D01*
X347618D01*
X348119Y67365D01*
X349500Y67091D01*
X349696D01*
Y47550D01*
X349910Y46477D01*
X350517Y45567D01*
X374037Y22048D01*
X373198Y21091D01*
X372884Y21332D01*
X370480Y22328D01*
X367900Y22667D01*
X365320Y22328D01*
X362916Y21332D01*
X360852Y19748D01*
X359268Y17684D01*
X358272Y15280D01*
X357933Y12700D01*
X358272Y10120D01*
X359268Y7716D01*
X360852Y5652D01*
X362882Y4094D01*
X362895Y3983D01*
X362601Y2824D01*
X347799D01*
X347505Y3983D01*
X347518Y4094D01*
X349548Y5652D01*
X351132Y7716D01*
X352128Y10120D01*
X352467Y12700D01*
X352128Y15280D01*
X351132Y17684D01*
X349548Y19748D01*
X347484Y21332D01*
X345080Y22328D01*
X342500Y22667D01*
X339920Y22328D01*
X337516Y21332D01*
X335452Y19748D01*
X333868Y17684D01*
X332872Y15280D01*
X332533Y12700D01*
X332872Y10120D01*
X333868Y7716D01*
X335452Y5652D01*
X337482Y4094D01*
X337495Y3983D01*
X337201Y2824D01*
X322399D01*
X322105Y3983D01*
X322118Y4094D01*
X324148Y5652D01*
X325732Y7716D01*
X326728Y10120D01*
X327067Y12700D01*
X326728Y15280D01*
X325732Y17684D01*
X324148Y19748D01*
X322084Y21332D01*
X319680Y22328D01*
X317100Y22667D01*
X314520Y22328D01*
X312116Y21332D01*
X310052Y19748D01*
X308468Y17684D01*
X307472Y15280D01*
X307133Y12700D01*
X307472Y10120D01*
X308468Y7716D01*
X310052Y5652D01*
X312082Y4094D01*
X312095Y3983D01*
X311800Y2824D01*
X296999D01*
X296705Y3983D01*
X296718Y4094D01*
X298748Y5652D01*
X300332Y7716D01*
X301328Y10120D01*
X301667Y12700D01*
X301328Y15280D01*
X300332Y17684D01*
X298748Y19748D01*
X296684Y21332D01*
X294280Y22328D01*
X291700Y22667D01*
X289120Y22328D01*
X286716Y21332D01*
X284652Y19748D01*
X283068Y17684D01*
X282072Y15280D01*
X281733Y12700D01*
X282072Y10120D01*
X283068Y7716D01*
X284652Y5652D01*
X286682Y4094D01*
X286695Y3983D01*
X286401Y2824D01*
X271600D01*
X271305Y3983D01*
X271318Y4094D01*
X273348Y5652D01*
X274932Y7716D01*
X275928Y10120D01*
X276267Y12700D01*
X275928Y15280D01*
X274932Y17684D01*
X273348Y19748D01*
X271284Y21332D01*
X268880Y22328D01*
X266300Y22667D01*
X263720Y22328D01*
X261316Y21332D01*
X259252Y19748D01*
X257668Y17684D01*
X256672Y15280D01*
X256333Y12700D01*
X256672Y10120D01*
X257668Y7716D01*
X259252Y5652D01*
X261282Y4094D01*
X261295Y3983D01*
X261000Y2824D01*
X246199D01*
X245905Y3983D01*
X245918Y4094D01*
X247948Y5652D01*
X249532Y7716D01*
X250528Y10120D01*
X250867Y12700D01*
X250528Y15280D01*
X249532Y17684D01*
X247948Y19748D01*
X245884Y21332D01*
X243480Y22328D01*
X240900Y22667D01*
X238320Y22328D01*
X235916Y21332D01*
X233852Y19748D01*
X232268Y17684D01*
X231272Y15280D01*
X230933Y12700D01*
X231272Y10120D01*
X232268Y7716D01*
X233852Y5652D01*
X235882Y4094D01*
X235895Y3983D01*
X235600Y2824D01*
X220800D01*
X220505Y3983D01*
X220518Y4094D01*
X222548Y5652D01*
X224132Y7716D01*
X225128Y10120D01*
X225467Y12700D01*
X225128Y15280D01*
X224132Y17684D01*
X222548Y19748D01*
X220484Y21332D01*
X218080Y22328D01*
X215500Y22667D01*
X212920Y22328D01*
X210516Y21332D01*
X208452Y19748D01*
X206868Y17684D01*
X205872Y15280D01*
X205533Y12700D01*
X205872Y10120D01*
X206868Y7716D01*
X208452Y5652D01*
X210482Y4094D01*
X210495Y3983D01*
X210201Y2824D01*
X195399D01*
X195105Y3983D01*
X195118Y4094D01*
X197148Y5652D01*
X198732Y7716D01*
X199728Y10120D01*
X200067Y12700D01*
X199728Y15280D01*
X198732Y17684D01*
X197148Y19748D01*
X195084Y21332D01*
X192680Y22328D01*
X190100Y22667D01*
X187520Y22328D01*
X185116Y21332D01*
X183052Y19748D01*
X181468Y17684D01*
X180472Y15280D01*
X180133Y12700D01*
X180472Y10120D01*
X181468Y7716D01*
X183052Y5652D01*
X185082Y4094D01*
X185095Y3983D01*
X184800Y2824D01*
X170000D01*
X169705Y3983D01*
X169718Y4094D01*
X171748Y5652D01*
X173332Y7716D01*
X174328Y10120D01*
X174667Y12700D01*
X174328Y15280D01*
X173332Y17684D01*
X171748Y19748D01*
X170569Y20653D01*
X170485Y21920D01*
X232960Y84394D01*
X299658D01*
X300360Y83415D01*
D02*
G37*
G36*
X64925Y178690D02*
X64808Y177800D01*
X65182Y174955D01*
X66281Y172304D01*
X66306Y172271D01*
X61593Y167559D01*
X60986Y166649D01*
X60772Y165576D01*
Y113824D01*
X60986Y112751D01*
X61593Y111841D01*
X66306Y107129D01*
X66281Y107096D01*
X65182Y104445D01*
X64808Y101600D01*
X65182Y98755D01*
X66281Y96104D01*
X66306Y96071D01*
X59425Y89190D01*
X58252Y89677D01*
Y173813D01*
X63722Y179283D01*
X64925Y178690D01*
D02*
G37*
G36*
X210495Y224617D02*
X210482Y224506D01*
X208452Y222948D01*
X206868Y220884D01*
X205872Y218480D01*
X205533Y215900D01*
X205872Y213320D01*
X206775Y211140D01*
X189669Y194034D01*
X173981D01*
X173205Y195195D01*
X171386Y196411D01*
X169240Y196838D01*
X167094Y196411D01*
X165275Y195195D01*
X164059Y193376D01*
X163632Y191230D01*
X164059Y189084D01*
X164659Y188187D01*
X163672Y187377D01*
X154535Y196515D01*
X153625Y197122D01*
X152552Y197336D01*
X151761D01*
X151274Y198509D01*
X154653Y201888D01*
X178892D01*
X179965Y202102D01*
X180875Y202709D01*
X185340Y207175D01*
X187520Y206272D01*
X190100Y205933D01*
X192680Y206272D01*
X195084Y207268D01*
X197148Y208852D01*
X198732Y210916D01*
X199728Y213320D01*
X200067Y215900D01*
X199728Y218480D01*
X198732Y220884D01*
X197148Y222948D01*
X195118Y224506D01*
X195105Y224617D01*
X195399Y225776D01*
X210201D01*
X210495Y224617D01*
D02*
G37*
G36*
X253417Y199417D02*
X254327Y198810D01*
X255400Y198596D01*
X256300D01*
Y175900D01*
X280457D01*
X281000Y175792D01*
X281543Y175900D01*
X282700D01*
Y176130D01*
X283146Y176219D01*
X284965Y177435D01*
X286181Y179254D01*
X286608Y181400D01*
X286224Y183326D01*
X286890Y184596D01*
X296308D01*
X297114Y183615D01*
X296892Y182500D01*
X297165Y181130D01*
X286339Y170304D01*
X232500D01*
X231427Y170090D01*
X230517Y169483D01*
X220517Y159483D01*
X219910Y158573D01*
X219696Y157500D01*
Y157241D01*
X218535Y156465D01*
X217319Y154646D01*
X216892Y152500D01*
X217319Y150354D01*
X218535Y148535D01*
X220354Y147319D01*
X222500Y146892D01*
X224646Y147319D01*
X226465Y148535D01*
X227681Y150354D01*
X228108Y152500D01*
X227681Y154646D01*
X226465Y156465D01*
X226373Y157407D01*
X233661Y164696D01*
X287500D01*
X288573Y164910D01*
X289483Y165517D01*
X301130Y177165D01*
X302500Y176892D01*
X304646Y177319D01*
X306465Y178535D01*
X307681Y180354D01*
X308108Y182500D01*
X307827Y183912D01*
X308997Y184537D01*
X319696Y173839D01*
Y162335D01*
X318541Y161857D01*
X316901Y160599D01*
X315643Y158959D01*
X314852Y157049D01*
X314825Y156845D01*
X299320D01*
Y151949D01*
X261760D01*
Y155210D01*
X247990D01*
Y133940D01*
X261760D01*
Y146851D01*
X299320D01*
Y145415D01*
X299320D01*
X299178Y144204D01*
X296000D01*
X294927Y143990D01*
X294018Y143382D01*
X291370Y140735D01*
X290000Y141007D01*
X287854Y140581D01*
X286035Y139365D01*
X284819Y137546D01*
X284393Y135400D01*
X284819Y133254D01*
X286035Y131434D01*
X287854Y130219D01*
X290000Y129792D01*
X292146Y130219D01*
X293965Y131434D01*
X295181Y133254D01*
X295608Y135400D01*
X295336Y136770D01*
X297162Y138596D01*
X300360D01*
Y136295D01*
X300360D01*
Y135485D01*
X300360D01*
Y126135D01*
X300360D01*
Y125325D01*
X300360D01*
Y117529D01*
X273325D01*
X272252Y117316D01*
X271343Y116708D01*
X264839Y110204D01*
X261760D01*
Y131400D01*
X231680D01*
Y110204D01*
X218761D01*
X207804Y121161D01*
Y159027D01*
X244070Y195293D01*
X245440Y195020D01*
X247586Y195447D01*
X249405Y196663D01*
X250621Y198482D01*
X250942Y200097D01*
X252253Y200581D01*
X253417Y199417D01*
D02*
G37*
G36*
X489022Y225764D02*
X489022Y225764D01*
Y225764D01*
X490231Y225621D01*
X491163Y225499D01*
X493099Y224697D01*
X494762Y223421D01*
X496037Y221758D01*
X496839Y219822D01*
X497097Y217869D01*
X497097Y217869D01*
X497097D01*
X497116Y217850D01*
X497119Y207607D01*
X495849Y207355D01*
X494604Y210361D01*
X492328Y213328D01*
X489361Y215604D01*
X485907Y217034D01*
X482200Y217523D01*
X478493Y217034D01*
X475039Y215604D01*
X472072Y213328D01*
X469796Y210361D01*
X468366Y206907D01*
X467878Y203200D01*
X468366Y199493D01*
X469796Y196039D01*
X472072Y193072D01*
X475039Y190796D01*
X478493Y189366D01*
X482200Y188878D01*
X485907Y189366D01*
X489361Y190796D01*
X492328Y193072D01*
X494604Y196039D01*
X495852Y199051D01*
X497122Y198799D01*
X497142Y133976D01*
X495872Y133545D01*
X494514Y135314D01*
X492020Y137228D01*
X489116Y138431D01*
X487270Y138674D01*
Y126800D01*
Y114926D01*
X489116Y115169D01*
X492020Y116372D01*
X494514Y118286D01*
X495876Y120061D01*
X497146Y119630D01*
X497150Y106276D01*
X495881Y106023D01*
X495519Y106896D01*
X493772Y109172D01*
X491496Y110919D01*
X488845Y112017D01*
X486000Y112392D01*
X483155Y112017D01*
X480504Y110919D01*
X478227Y109172D01*
X476480Y106896D01*
X475382Y104245D01*
X475008Y101400D01*
X475382Y98555D01*
X476480Y95904D01*
X478227Y93627D01*
X480504Y91881D01*
X483155Y90782D01*
X486000Y90408D01*
X488845Y90782D01*
X491496Y91881D01*
X493772Y93627D01*
X495519Y95904D01*
X495883Y96783D01*
X497154Y96531D01*
X497174Y32410D01*
X495904Y32092D01*
X494933Y33908D01*
X493028Y36228D01*
X490708Y38133D01*
X488060Y39548D01*
X485188Y40420D01*
X483470Y40589D01*
Y25400D01*
Y10211D01*
X485188Y10381D01*
X488060Y11252D01*
X490708Y12667D01*
X493028Y14571D01*
X494933Y16892D01*
X495908Y18716D01*
X497178Y18398D01*
X497180Y11985D01*
X497097Y10731D01*
X497097D01*
X497097Y10731D01*
X496839Y8778D01*
X496037Y6842D01*
X494762Y5179D01*
X493099Y3904D01*
X491163Y3101D01*
X490231Y2979D01*
X489022Y2836D01*
Y2836D01*
X489022Y2836D01*
X487761Y2824D01*
X451257D01*
X450826Y4094D01*
X451890Y4910D01*
X453640Y7192D01*
X454741Y9849D01*
X454949Y11430D01*
X444100D01*
Y12700D01*
X442830D01*
Y23549D01*
X441249Y23341D01*
X438592Y22240D01*
X438554Y22211D01*
X419302Y41463D01*
X420141Y42420D01*
X420467Y42170D01*
X422871Y41174D01*
X425450Y40835D01*
X428029Y41174D01*
X430433Y42170D01*
X432496Y43753D01*
X434080Y45817D01*
X435076Y48221D01*
X435415Y50800D01*
X435076Y53379D01*
X434080Y55783D01*
X432496Y57846D01*
X430433Y59430D01*
X428029Y60426D01*
X425450Y60765D01*
X422871Y60426D01*
X420467Y59430D01*
X418404Y57846D01*
X416820Y55783D01*
X415554Y56045D01*
Y70955D01*
X416820Y71217D01*
X418404Y69153D01*
X420467Y67570D01*
X422871Y66574D01*
X425450Y66235D01*
X428029Y66574D01*
X430433Y67570D01*
X432496Y69153D01*
X434080Y71217D01*
X435076Y73621D01*
X435415Y76200D01*
X435076Y78779D01*
X434080Y81183D01*
X432496Y83246D01*
X432396Y83324D01*
X432804Y84526D01*
X433930D01*
X435003Y84740D01*
X435913Y85347D01*
X445161Y94596D01*
X460000D01*
X461073Y94810D01*
X461983Y95417D01*
X482071Y115506D01*
X482883Y115169D01*
X484730Y114926D01*
Y125530D01*
X474126D01*
X474369Y123683D01*
X475572Y120779D01*
X477240Y118605D01*
X458839Y100204D01*
X444000D01*
X442927Y99990D01*
X442017Y99383D01*
X432769Y90134D01*
X420840D01*
X419767Y89920D01*
X418857Y89313D01*
X410767Y81223D01*
X410317Y80549D01*
X409422Y80475D01*
X408929Y80583D01*
X408680Y81183D01*
X407096Y83246D01*
X405033Y84830D01*
X402629Y85826D01*
X400050Y86165D01*
X397471Y85826D01*
X395067Y84830D01*
X393004Y83246D01*
X391420Y81183D01*
X390424Y78779D01*
X390085Y76200D01*
X390424Y73621D01*
X391420Y71217D01*
X393004Y69153D01*
X395067Y67570D01*
X397471Y66574D01*
X400050Y66235D01*
X402629Y66574D01*
X405033Y67570D01*
X407096Y69153D01*
X408680Y71217D01*
X409946Y70955D01*
Y56045D01*
X408680Y55783D01*
X407096Y57846D01*
X405033Y59430D01*
X402629Y60426D01*
X400050Y60765D01*
X397471Y60426D01*
X395067Y59430D01*
X393004Y57846D01*
X391420Y55783D01*
X390424Y53379D01*
X390085Y50800D01*
X390424Y48221D01*
X391420Y45817D01*
X393004Y43753D01*
X395067Y42170D01*
X397471Y41174D01*
X400050Y40835D01*
X402629Y41174D01*
X405033Y42170D01*
X407096Y43753D01*
X408680Y45817D01*
X409946Y45555D01*
Y44050D01*
X410160Y42977D01*
X410767Y42067D01*
X425894Y26941D01*
X425084Y25955D01*
X424384Y26422D01*
X423311Y26636D01*
X377379D01*
X355304Y48711D01*
Y67091D01*
X355500D01*
X356881Y67365D01*
X358052Y68148D01*
X358835Y69319D01*
X359109Y70700D01*
Y74930D01*
X352500D01*
Y76200D01*
X351230D01*
Y85309D01*
X349500D01*
X348119Y85035D01*
X347618Y84700D01*
X337250D01*
X336553Y84003D01*
X336475Y84055D01*
X335500Y84249D01*
X335304D01*
Y93551D01*
X335500D01*
X336475Y93745D01*
X336553Y93797D01*
X337250Y93100D01*
X341335D01*
X346017Y88418D01*
X346927Y87810D01*
X348000Y87596D01*
X360000D01*
X361073Y87810D01*
X361983Y88418D01*
X364982Y91417D01*
X365590Y92327D01*
X365804Y93400D01*
Y94813D01*
X367074Y95244D01*
X367603Y94553D01*
X369667Y92970D01*
X372071Y91974D01*
X374650Y91635D01*
X377229Y91974D01*
X379633Y92970D01*
X381697Y94553D01*
X383280Y96617D01*
X384276Y99021D01*
X384615Y101600D01*
X384276Y104179D01*
X383280Y106583D01*
X381697Y108646D01*
X379633Y110230D01*
X377229Y111226D01*
X374650Y111565D01*
X372071Y111226D01*
X369667Y110230D01*
X367603Y108646D01*
X367074Y107956D01*
X365804Y108387D01*
Y114400D01*
X365590Y115473D01*
X364982Y116383D01*
X351399Y129967D01*
X350489Y130574D01*
X349416Y130788D01*
X346701D01*
X345925Y131949D01*
X344106Y133165D01*
X341960Y133592D01*
X339814Y133165D01*
X337995Y131949D01*
X336779Y130130D01*
X336352Y127984D01*
X336625Y126614D01*
X333465Y123454D01*
X316060D01*
Y125325D01*
X316060D01*
Y126135D01*
X316060D01*
Y128006D01*
X321653D01*
X322035Y127435D01*
X323854Y126219D01*
X326000Y125792D01*
X328146Y126219D01*
X329965Y127435D01*
X331181Y129254D01*
X331608Y131400D01*
X331181Y133546D01*
X329965Y135365D01*
X328146Y136581D01*
X326000Y137008D01*
X323854Y136581D01*
X322035Y135365D01*
X320865Y133614D01*
X316060D01*
Y135485D01*
X316060D01*
Y136295D01*
X316060D01*
Y145415D01*
X317100D01*
Y147813D01*
X318239Y148375D01*
X318541Y148143D01*
X320451Y147352D01*
X322500Y147082D01*
X324549Y147352D01*
X326459Y148143D01*
X328099Y149401D01*
X329357Y151041D01*
X330148Y152951D01*
X330418Y155000D01*
X330148Y157049D01*
X329357Y158959D01*
X328099Y160599D01*
X326459Y161857D01*
X325304Y162335D01*
Y175000D01*
X325090Y176073D01*
X324483Y176983D01*
X310233Y191233D01*
X309323Y191840D01*
X308250Y192054D01*
X299704D01*
X298631Y191840D01*
X297722Y191233D01*
X296693Y190204D01*
X282700D01*
Y198596D01*
X308277D01*
X350087Y156786D01*
X349814Y155416D01*
X350241Y153270D01*
X351457Y151451D01*
X353276Y150235D01*
X355422Y149808D01*
X357568Y150235D01*
X359387Y151451D01*
X360603Y153270D01*
X361030Y155416D01*
X360603Y157562D01*
X359387Y159381D01*
X357568Y160597D01*
X355422Y161024D01*
X354052Y160751D01*
X311421Y203383D01*
X310511Y203990D01*
X309438Y204204D01*
X256561D01*
X249625Y211140D01*
X250528Y213320D01*
X250867Y215900D01*
X250528Y218480D01*
X249532Y220884D01*
X247948Y222948D01*
X245918Y224506D01*
X245905Y224617D01*
X246199Y225776D01*
X261000D01*
X261295Y224617D01*
X261282Y224506D01*
X259252Y222948D01*
X257668Y220884D01*
X256672Y218480D01*
X256333Y215900D01*
X256672Y213320D01*
X257668Y210916D01*
X259252Y208852D01*
X261316Y207268D01*
X263720Y206272D01*
X266300Y205933D01*
X268880Y206272D01*
X271284Y207268D01*
X273348Y208852D01*
X274932Y210916D01*
X275928Y213320D01*
X276267Y215900D01*
X275928Y218480D01*
X274932Y220884D01*
X273348Y222948D01*
X271318Y224506D01*
X271305Y224617D01*
X271600Y225776D01*
X286401D01*
X286695Y224617D01*
X286682Y224506D01*
X284652Y222948D01*
X283068Y220884D01*
X282072Y218480D01*
X281733Y215900D01*
X282072Y213320D01*
X283068Y210916D01*
X284652Y208852D01*
X286716Y207268D01*
X289120Y206272D01*
X291700Y205933D01*
X294280Y206272D01*
X296684Y207268D01*
X298748Y208852D01*
X300332Y210916D01*
X301328Y213320D01*
X301667Y215900D01*
X301328Y218480D01*
X300332Y220884D01*
X298748Y222948D01*
X296718Y224506D01*
X296705Y224617D01*
X296999Y225776D01*
X311800D01*
X312095Y224617D01*
X312082Y224506D01*
X310052Y222948D01*
X308468Y220884D01*
X307472Y218480D01*
X307133Y215900D01*
X307472Y213320D01*
X308468Y210916D01*
X310052Y208852D01*
X312116Y207268D01*
X314520Y206272D01*
X317100Y205933D01*
X319680Y206272D01*
X322084Y207268D01*
X324148Y208852D01*
X325732Y210916D01*
X326728Y213320D01*
X327067Y215900D01*
X326728Y218480D01*
X325732Y220884D01*
X324148Y222948D01*
X322118Y224506D01*
X322105Y224617D01*
X322399Y225776D01*
X337201D01*
X337495Y224617D01*
X337482Y224506D01*
X335452Y222948D01*
X333868Y220884D01*
X332872Y218480D01*
X332533Y215900D01*
X332872Y213320D01*
X333868Y210916D01*
X335452Y208852D01*
X337516Y207268D01*
X339920Y206272D01*
X342500Y205933D01*
X345080Y206272D01*
X347484Y207268D01*
X349548Y208852D01*
X351132Y210916D01*
X352128Y213320D01*
X352467Y215900D01*
X352128Y218480D01*
X351132Y220884D01*
X349548Y222948D01*
X347518Y224506D01*
X347505Y224617D01*
X347799Y225776D01*
X362601D01*
X362895Y224617D01*
X362882Y224506D01*
X360852Y222948D01*
X359268Y220884D01*
X358272Y218480D01*
X357933Y215900D01*
X358272Y213320D01*
X359268Y210916D01*
X360852Y208852D01*
X362916Y207268D01*
X365320Y206272D01*
X367900Y205933D01*
X370480Y206272D01*
X372884Y207268D01*
X374948Y208852D01*
X376532Y210916D01*
X377528Y213320D01*
X377867Y215900D01*
X377528Y218480D01*
X376532Y220884D01*
X374948Y222948D01*
X372918Y224506D01*
X372905Y224617D01*
X373200Y225776D01*
X388000D01*
X388295Y224617D01*
X388282Y224506D01*
X386252Y222948D01*
X384668Y220884D01*
X383672Y218480D01*
X383333Y215900D01*
X383672Y213320D01*
X384668Y210916D01*
X386252Y208852D01*
X388316Y207268D01*
X390720Y206272D01*
X393300Y205933D01*
X395880Y206272D01*
X398284Y207268D01*
X400348Y208852D01*
X401932Y210916D01*
X402928Y213320D01*
X403267Y215900D01*
X402928Y218480D01*
X401932Y220884D01*
X400348Y222948D01*
X398318Y224506D01*
X398305Y224617D01*
X398600Y225776D01*
X413400D01*
X413695Y224617D01*
X413682Y224506D01*
X411652Y222948D01*
X410068Y220884D01*
X409072Y218480D01*
X408733Y215900D01*
X409072Y213320D01*
X410068Y210916D01*
X411652Y208852D01*
X413716Y207268D01*
X416120Y206272D01*
X418700Y205933D01*
X421280Y206272D01*
X423684Y207268D01*
X425748Y208852D01*
X427332Y210916D01*
X428328Y213320D01*
X428667Y215900D01*
X428328Y218480D01*
X427332Y220884D01*
X425748Y222948D01*
X423718Y224506D01*
X423705Y224617D01*
X423999Y225776D01*
X438801D01*
X439095Y224617D01*
X439082Y224506D01*
X437052Y222948D01*
X435468Y220884D01*
X434472Y218480D01*
X434133Y215900D01*
X434472Y213320D01*
X435468Y210916D01*
X437052Y208852D01*
X439116Y207268D01*
X441520Y206272D01*
X444100Y205933D01*
X446680Y206272D01*
X449084Y207268D01*
X451148Y208852D01*
X452732Y210916D01*
X453728Y213320D01*
X454067Y215900D01*
X453728Y218480D01*
X452732Y220884D01*
X451148Y222948D01*
X449118Y224506D01*
X449105Y224617D01*
X449399Y225776D01*
X487761D01*
X489022Y225764D01*
D02*
G37*
G36*
X235895Y224617D02*
X235882Y224506D01*
X233852Y222948D01*
X232268Y220884D01*
X231272Y218480D01*
X230933Y215900D01*
X231272Y213320D01*
X232175Y211140D01*
X202565Y181530D01*
X201201Y181962D01*
X200901Y183470D01*
X199685Y185289D01*
X197866Y186505D01*
X195720Y186932D01*
X193574Y186505D01*
X191755Y185289D01*
X190539Y183470D01*
X190112Y181324D01*
X189521Y180604D01*
X186521D01*
X185698Y182591D01*
X184175Y184575D01*
X182191Y186098D01*
X179880Y187055D01*
X179115Y187156D01*
X179198Y188426D01*
X190830D01*
X191903Y188640D01*
X192813Y189247D01*
X210741Y207175D01*
X212920Y206272D01*
X215500Y205933D01*
X218080Y206272D01*
X220484Y207268D01*
X222548Y208852D01*
X224132Y210916D01*
X225128Y213320D01*
X225467Y215900D01*
X225128Y218480D01*
X224132Y220884D01*
X222548Y222948D01*
X220518Y224506D01*
X220505Y224617D01*
X220800Y225776D01*
X235600D01*
X235895Y224617D01*
D02*
G37*
G36*
X79775Y17459D02*
X78872Y15280D01*
X78533Y12700D01*
X78872Y10120D01*
X79868Y7716D01*
X81452Y5652D01*
X83482Y4094D01*
X83495Y3983D01*
X83201Y2824D01*
X68400D01*
X68105Y3983D01*
X68118Y4094D01*
X70148Y5652D01*
X71732Y7716D01*
X72728Y10120D01*
X73067Y12700D01*
X72728Y15280D01*
X71732Y17684D01*
X70148Y19748D01*
X68084Y21332D01*
X65680Y22328D01*
X63100Y22667D01*
X60520Y22328D01*
X59522Y21914D01*
X58252Y22763D01*
Y37324D01*
X59425Y37810D01*
X79775Y17459D01*
D02*
G37*
G36*
X159695Y224617D02*
X159682Y224506D01*
X157652Y222948D01*
X156068Y220884D01*
X155072Y218480D01*
X154733Y215900D01*
X155072Y213320D01*
X156068Y210916D01*
X157652Y208852D01*
X157852Y208699D01*
X157444Y207496D01*
X153492D01*
X152419Y207282D01*
X151509Y206675D01*
X141349Y196515D01*
X131067Y186232D01*
X129080Y187055D01*
X126600Y187382D01*
X124120Y187055D01*
X121809Y186098D01*
X119825Y184575D01*
X118302Y182591D01*
X117345Y180280D01*
X117018Y177800D01*
X117345Y175320D01*
X118302Y173009D01*
X119825Y171024D01*
X121809Y169502D01*
X122678Y169142D01*
X122425Y167872D01*
X111727D01*
X87149Y192451D01*
X86239Y193058D01*
X85166Y193272D01*
X70942D01*
X69869Y193058D01*
X68959Y192451D01*
X53465Y176957D01*
X52858Y176047D01*
X52644Y174974D01*
Y20352D01*
X52858Y19279D01*
X53465Y18369D01*
X54375Y17459D01*
X53472Y15280D01*
X53133Y12700D01*
X53472Y10120D01*
X54468Y7716D01*
X56052Y5652D01*
X58082Y4094D01*
X58095Y3983D01*
X57800Y2824D01*
X30120D01*
X29932Y4094D01*
X33391Y5143D01*
X37181Y7169D01*
X40504Y9896D01*
X43231Y13219D01*
X45257Y17009D01*
X46504Y21123D01*
X46926Y25400D01*
X46504Y29678D01*
X45257Y33791D01*
X43231Y37581D01*
X40504Y40904D01*
X37181Y43630D01*
X33391Y45657D01*
X29278Y46904D01*
X25000Y47326D01*
X20722Y46904D01*
X16609Y45657D01*
X12819Y43630D01*
X9496Y40904D01*
X6769Y37581D01*
X4743Y33791D01*
X3696Y30339D01*
X2426Y30527D01*
Y87828D01*
X6597Y91998D01*
X6597Y91998D01*
X6902Y92455D01*
X7210Y92914D01*
X7210Y92914D01*
X7210Y92914D01*
X7267Y93205D01*
X7424Y93995D01*
X7424Y93995D01*
Y135000D01*
X7210Y136081D01*
X6597Y136997D01*
X2424Y141170D01*
Y198079D01*
X3694Y198268D01*
X4743Y194809D01*
X6769Y191019D01*
X9496Y187696D01*
X12819Y184970D01*
X16609Y182943D01*
X20722Y181696D01*
X25000Y181274D01*
X29278Y181696D01*
X33391Y182943D01*
X37181Y184970D01*
X40504Y187696D01*
X43231Y191019D01*
X45257Y194809D01*
X46504Y198923D01*
X46926Y203200D01*
X46504Y207477D01*
X45257Y211591D01*
X43231Y215381D01*
X40504Y218704D01*
X37181Y221430D01*
X33391Y223457D01*
X29932Y224506D01*
X30120Y225776D01*
X159401D01*
X159695Y224617D01*
D02*
G37*
G36*
X154890Y188229D02*
X154700Y187686D01*
X154235Y187088D01*
X152000Y187382D01*
X149520Y187055D01*
X147209Y186098D01*
X145225Y184575D01*
X143702Y182591D01*
X142745Y180280D01*
X142418Y177800D01*
X142745Y175320D01*
X143325Y173918D01*
X136434Y167872D01*
X130775D01*
X130522Y169142D01*
X131391Y169502D01*
X133376Y171024D01*
X134898Y173009D01*
X135856Y175320D01*
X136182Y177800D01*
X135856Y180280D01*
X135032Y182267D01*
X144493Y191728D01*
X151391D01*
X154890Y188229D01*
D02*
G37*
%LPC*%
G36*
X374650Y86165D02*
X372071Y85826D01*
X369667Y84830D01*
X367603Y83246D01*
X366020Y81183D01*
X365024Y78779D01*
X364685Y76200D01*
X365024Y73621D01*
X366020Y71217D01*
X367603Y69153D01*
X369667Y67570D01*
X372071Y66574D01*
X374650Y66235D01*
X377229Y66574D01*
X379633Y67570D01*
X381697Y69153D01*
X383280Y71217D01*
X384276Y73621D01*
X384615Y76200D01*
X384276Y78779D01*
X383280Y81183D01*
X381697Y83246D01*
X379633Y84830D01*
X377229Y85826D01*
X374650Y86165D01*
D02*
G37*
G36*
X25400Y87194D02*
X22555Y86819D01*
X19903Y85721D01*
X17626Y83974D01*
X15879Y81697D01*
X14781Y79046D01*
X14406Y76200D01*
X14781Y73355D01*
X15879Y70703D01*
X17626Y68426D01*
X19903Y66679D01*
X22555Y65581D01*
X25400Y65206D01*
X28245Y65581D01*
X30897Y66679D01*
X33174Y68426D01*
X34921Y70703D01*
X36019Y73355D01*
X36394Y76200D01*
X36019Y79046D01*
X34921Y81697D01*
X33174Y83974D01*
X30897Y85721D01*
X28245Y86819D01*
X25400Y87194D01*
D02*
G37*
G36*
Y112594D02*
X22555Y112219D01*
X19903Y111121D01*
X17626Y109374D01*
X15879Y107097D01*
X14781Y104445D01*
X14406Y101600D01*
X14781Y98755D01*
X15879Y96103D01*
X17626Y93826D01*
X19903Y92079D01*
X22555Y90981D01*
X25400Y90606D01*
X28245Y90981D01*
X30897Y92079D01*
X33174Y93826D01*
X34921Y96103D01*
X36019Y98755D01*
X36394Y101600D01*
X36019Y104445D01*
X34921Y107097D01*
X33174Y109374D01*
X30897Y111121D01*
X28245Y112219D01*
X25400Y112594D01*
D02*
G37*
G36*
X355500Y85309D02*
X353770D01*
Y77470D01*
X359109D01*
Y81700D01*
X358835Y83081D01*
X358052Y84252D01*
X356881Y85035D01*
X355500Y85309D01*
D02*
G37*
G36*
X140570Y23549D02*
Y13970D01*
X150149D01*
X149941Y15551D01*
X148840Y18208D01*
X147090Y20490D01*
X144808Y22240D01*
X142151Y23341D01*
X140570Y23549D01*
D02*
G37*
G36*
X445370D02*
Y13970D01*
X454949D01*
X454741Y15551D01*
X453640Y18208D01*
X451890Y20490D01*
X449608Y22240D01*
X446951Y23341D01*
X445370Y23549D01*
D02*
G37*
G36*
X480930Y24130D02*
X467011D01*
X467180Y22412D01*
X468052Y19540D01*
X469467Y16892D01*
X471371Y14571D01*
X473692Y12667D01*
X476340Y11252D01*
X479212Y10381D01*
X480930Y10211D01*
Y24130D01*
D02*
G37*
G36*
X138030Y23549D02*
X136449Y23341D01*
X133792Y22240D01*
X131510Y20490D01*
X129760Y18208D01*
X128659Y15551D01*
X128451Y13970D01*
X138030D01*
Y23549D01*
D02*
G37*
G36*
X465720Y81430D02*
X437720D01*
Y38430D01*
X465720D01*
Y81430D01*
D02*
G37*
G36*
X374650Y60765D02*
X372071Y60426D01*
X369667Y59430D01*
X367603Y57846D01*
X366020Y55783D01*
X365024Y53379D01*
X364685Y50800D01*
X365024Y48221D01*
X366020Y45817D01*
X367603Y43753D01*
X369667Y42170D01*
X372071Y41174D01*
X374650Y40835D01*
X377229Y41174D01*
X379633Y42170D01*
X381697Y43753D01*
X383280Y45817D01*
X384276Y48221D01*
X384615Y50800D01*
X384276Y53379D01*
X383280Y55783D01*
X381697Y57846D01*
X379633Y59430D01*
X377229Y60426D01*
X374650Y60765D01*
D02*
G37*
G36*
X480930Y40589D02*
X479212Y40420D01*
X476340Y39548D01*
X473692Y38133D01*
X471371Y36228D01*
X469467Y33908D01*
X468052Y31260D01*
X467180Y28388D01*
X467011Y26670D01*
X480930D01*
Y40589D01*
D02*
G37*
G36*
X260720Y81430D02*
X232720D01*
Y38430D01*
X260720D01*
Y81430D01*
D02*
G37*
G36*
X400050Y162365D02*
X397471Y162026D01*
X395067Y161030D01*
X393004Y159446D01*
X391420Y157383D01*
X390424Y154979D01*
X390085Y152400D01*
X390424Y149821D01*
X391420Y147417D01*
X393004Y145353D01*
X395067Y143770D01*
X397471Y142774D01*
X400050Y142435D01*
X402629Y142774D01*
X405033Y143770D01*
X407096Y145353D01*
X408680Y147417D01*
X409676Y149821D01*
X410015Y152400D01*
X409676Y154979D01*
X408680Y157383D01*
X407096Y159446D01*
X405033Y161030D01*
X402629Y162026D01*
X400050Y162365D01*
D02*
G37*
G36*
X425450D02*
X422871Y162026D01*
X420467Y161030D01*
X418404Y159446D01*
X416820Y157383D01*
X415824Y154979D01*
X415485Y152400D01*
X415824Y149821D01*
X416820Y147417D01*
X418404Y145353D01*
X420467Y143770D01*
X422871Y142774D01*
X425450Y142435D01*
X428029Y142774D01*
X430433Y143770D01*
X432496Y145353D01*
X434080Y147417D01*
X435076Y149821D01*
X435415Y152400D01*
X435076Y154979D01*
X434080Y157383D01*
X432496Y159446D01*
X430433Y161030D01*
X428029Y162026D01*
X425450Y162365D01*
D02*
G37*
G36*
X25400Y163394D02*
X22555Y163019D01*
X19903Y161921D01*
X17626Y160174D01*
X15879Y157897D01*
X14781Y155246D01*
X14406Y152400D01*
X14781Y149555D01*
X15879Y146903D01*
X17626Y144626D01*
X19903Y142879D01*
X22555Y141781D01*
X25400Y141406D01*
X28245Y141781D01*
X30897Y142879D01*
X33174Y144626D01*
X34921Y146903D01*
X36019Y149555D01*
X36394Y152400D01*
X36019Y155246D01*
X34921Y157897D01*
X33174Y160174D01*
X30897Y161921D01*
X28245Y163019D01*
X25400Y163394D01*
D02*
G37*
G36*
X374650Y162365D02*
X372071Y162026D01*
X369667Y161030D01*
X367603Y159446D01*
X366020Y157383D01*
X365024Y154979D01*
X364685Y152400D01*
X365024Y149821D01*
X366020Y147417D01*
X367603Y145353D01*
X369667Y143770D01*
X372071Y142774D01*
X374650Y142435D01*
X377229Y142774D01*
X379633Y143770D01*
X381697Y145353D01*
X383280Y147417D01*
X384276Y149821D01*
X384615Y152400D01*
X384276Y154979D01*
X383280Y157383D01*
X381697Y159446D01*
X379633Y161030D01*
X377229Y162026D01*
X374650Y162365D01*
D02*
G37*
G36*
X400050Y187765D02*
X397471Y187426D01*
X395067Y186430D01*
X393004Y184846D01*
X391420Y182783D01*
X390424Y180379D01*
X390085Y177800D01*
X390424Y175221D01*
X391420Y172817D01*
X393004Y170753D01*
X395067Y169170D01*
X397471Y168174D01*
X400050Y167835D01*
X402629Y168174D01*
X405033Y169170D01*
X407096Y170753D01*
X408680Y172817D01*
X409676Y175221D01*
X410015Y177800D01*
X409676Y180379D01*
X408680Y182783D01*
X407096Y184846D01*
X405033Y186430D01*
X402629Y187426D01*
X400050Y187765D01*
D02*
G37*
G36*
X465200Y198900D02*
X438800D01*
Y184545D01*
X437035Y183365D01*
X435910Y181683D01*
X435284Y181593D01*
X434546Y181657D01*
X434080Y182783D01*
X432496Y184846D01*
X430433Y186430D01*
X428029Y187426D01*
X425450Y187765D01*
X422871Y187426D01*
X420467Y186430D01*
X418404Y184846D01*
X416820Y182783D01*
X415824Y180379D01*
X415485Y177800D01*
X415824Y175221D01*
X416820Y172817D01*
X418404Y170753D01*
X420467Y169170D01*
X422871Y168174D01*
X425450Y167835D01*
X428029Y168174D01*
X430433Y169170D01*
X432496Y170753D01*
X434080Y172817D01*
X435076Y175221D01*
X435170Y175939D01*
X436492Y176247D01*
X437035Y175435D01*
X438854Y174219D01*
X441000Y173792D01*
X443146Y174219D01*
X444965Y175435D01*
X445276Y175900D01*
X465200D01*
Y198900D01*
D02*
G37*
G36*
X152000Y161982D02*
X149520Y161656D01*
X147209Y160698D01*
X145225Y159175D01*
X143702Y157191D01*
X142745Y154880D01*
X142418Y152400D01*
X142745Y149920D01*
X143702Y147609D01*
X145225Y145625D01*
X147209Y144102D01*
X149520Y143145D01*
X152000Y142818D01*
X154480Y143145D01*
X156791Y144102D01*
X158776Y145625D01*
X160298Y147609D01*
X161255Y149920D01*
X161582Y152400D01*
X161255Y154880D01*
X160298Y157191D01*
X158776Y159175D01*
X156791Y160698D01*
X154480Y161656D01*
X152000Y161982D01*
D02*
G37*
G36*
X374650Y187765D02*
X372071Y187426D01*
X369667Y186430D01*
X367603Y184846D01*
X366020Y182783D01*
X365024Y180379D01*
X364685Y177800D01*
X365024Y175221D01*
X366020Y172817D01*
X367603Y170753D01*
X369667Y169170D01*
X372071Y168174D01*
X374650Y167835D01*
X377229Y168174D01*
X379633Y169170D01*
X381697Y170753D01*
X383280Y172817D01*
X384276Y175221D01*
X384615Y177800D01*
X384276Y180379D01*
X383280Y182783D01*
X381697Y184846D01*
X379633Y186430D01*
X377229Y187426D01*
X374650Y187765D01*
D02*
G37*
G36*
X245450Y155210D02*
X231680D01*
Y133940D01*
X245450D01*
Y155210D01*
D02*
G37*
G36*
X465720Y154170D02*
X437720D01*
Y111170D01*
X465720D01*
Y154170D01*
D02*
G37*
G36*
X25400Y137994D02*
X22555Y137619D01*
X19903Y136521D01*
X17626Y134774D01*
X15879Y132497D01*
X14781Y129846D01*
X14406Y127000D01*
X14781Y124155D01*
X15879Y121503D01*
X17626Y119226D01*
X19903Y117479D01*
X22555Y116381D01*
X25400Y116006D01*
X28245Y116381D01*
X30897Y117479D01*
X33174Y119226D01*
X34921Y121503D01*
X36019Y124155D01*
X36394Y127000D01*
X36019Y129846D01*
X34921Y132497D01*
X33174Y134774D01*
X30897Y136521D01*
X28245Y137619D01*
X25400Y137994D01*
D02*
G37*
G36*
X400050Y111565D02*
X397471Y111226D01*
X395067Y110230D01*
X393004Y108646D01*
X391420Y106583D01*
X390424Y104179D01*
X390085Y101600D01*
X390424Y99021D01*
X391420Y96617D01*
X393004Y94553D01*
X395067Y92970D01*
X397471Y91974D01*
X400050Y91635D01*
X402629Y91974D01*
X405033Y92970D01*
X407096Y94553D01*
X408680Y96617D01*
X409676Y99021D01*
X410015Y101600D01*
X409676Y104179D01*
X408680Y106583D01*
X407096Y108646D01*
X405033Y110230D01*
X402629Y111226D01*
X400050Y111565D01*
D02*
G37*
G36*
X425450D02*
X422871Y111226D01*
X420467Y110230D01*
X418404Y108646D01*
X416820Y106583D01*
X415824Y104179D01*
X415485Y101600D01*
X415824Y99021D01*
X416820Y96617D01*
X418404Y94553D01*
X420467Y92970D01*
X422871Y91974D01*
X425450Y91635D01*
X428029Y91974D01*
X430433Y92970D01*
X432496Y94553D01*
X434080Y96617D01*
X435076Y99021D01*
X435415Y101600D01*
X435076Y104179D01*
X434080Y106583D01*
X432496Y108646D01*
X430433Y110230D01*
X428029Y111226D01*
X425450Y111565D01*
D02*
G37*
G36*
Y136965D02*
X422871Y136626D01*
X420467Y135630D01*
X418404Y134046D01*
X416820Y131983D01*
X415824Y129579D01*
X415485Y127000D01*
X415824Y124421D01*
X416820Y122017D01*
X418404Y119953D01*
X420467Y118370D01*
X422871Y117374D01*
X425450Y117035D01*
X428029Y117374D01*
X430433Y118370D01*
X432496Y119953D01*
X434080Y122017D01*
X435076Y124421D01*
X435415Y127000D01*
X435076Y129579D01*
X434080Y131983D01*
X432496Y134046D01*
X430433Y135630D01*
X428029Y136626D01*
X425450Y136965D01*
D02*
G37*
G36*
X484730Y138674D02*
X482883Y138431D01*
X479979Y137228D01*
X477486Y135314D01*
X475572Y132820D01*
X474369Y129916D01*
X474126Y128070D01*
X484730D01*
Y138674D01*
D02*
G37*
G36*
X374650Y136965D02*
X372071Y136626D01*
X369667Y135630D01*
X367603Y134046D01*
X366020Y131983D01*
X365024Y129579D01*
X364685Y127000D01*
X365024Y124421D01*
X366020Y122017D01*
X367603Y119953D01*
X369667Y118370D01*
X372071Y117374D01*
X374650Y117035D01*
X377229Y117374D01*
X379633Y118370D01*
X381697Y119953D01*
X383280Y122017D01*
X384276Y124421D01*
X384615Y127000D01*
X384276Y129579D01*
X383280Y131983D01*
X381697Y134046D01*
X379633Y135630D01*
X377229Y136626D01*
X374650Y136965D01*
D02*
G37*
G36*
X400050D02*
X397471Y136626D01*
X395067Y135630D01*
X393004Y134046D01*
X391420Y131983D01*
X390424Y129579D01*
X390085Y127000D01*
X390424Y124421D01*
X391420Y122017D01*
X393004Y119953D01*
X395067Y118370D01*
X397471Y117374D01*
X400050Y117035D01*
X402629Y117374D01*
X405033Y118370D01*
X407096Y119953D01*
X408680Y122017D01*
X409676Y124421D01*
X410015Y127000D01*
X409676Y129579D01*
X408680Y131983D01*
X407096Y134046D01*
X405033Y135630D01*
X402629Y136626D01*
X400050Y136965D01*
D02*
G37*
%LPD*%
D10*
X269500Y187400D02*
D03*
X452000D02*
D03*
D13*
X246720Y59930D02*
D03*
X451720D02*
D03*
Y132670D02*
D03*
X246720D02*
D03*
D14*
X269500Y187400D02*
X297854D01*
X299704Y189250D01*
X308250D01*
X322500Y175000D01*
Y155000D02*
Y175000D01*
X287500Y167500D02*
X302500Y182500D01*
X232500Y167500D02*
X287500D01*
X222500Y157500D02*
X232500Y167500D01*
X222500Y152500D02*
Y157500D01*
X217600Y107400D02*
X266000D01*
X205000Y120000D02*
X217600Y107400D01*
X205000Y120000D02*
Y160188D01*
X245440Y200628D01*
X137490Y138906D02*
Y165068D01*
X188150Y145764D02*
Y159366D01*
X192150Y137650D02*
Y163050D01*
X196150Y105124D02*
Y171150D01*
X309438Y201400D02*
X355422Y155416D01*
X255400Y201400D02*
X309438D01*
X240900Y215900D02*
X255400Y201400D01*
X171018Y166846D02*
X180670D01*
X166446Y171418D02*
X171018Y166846D01*
X166446Y171418D02*
Y180638D01*
X192196Y177800D02*
X195720Y181324D01*
X196150Y171150D02*
X240900Y215900D01*
X169240Y191230D02*
X190830D01*
X152552Y194532D02*
X166446Y180638D01*
X152000Y127000D02*
X177400Y152400D01*
X307370Y141400D02*
X308210Y142240D01*
X177337Y204692D02*
X178892D01*
X143332Y194532D02*
X153492Y204692D01*
X126600Y177800D02*
X143332Y194532D01*
X308210Y87630D02*
Y88900D01*
Y87198D02*
Y87630D01*
Y130810D02*
X325410D01*
X190830Y191230D02*
X215500Y215900D01*
X148780Y106394D02*
X188150Y145764D01*
X180670Y166846D02*
X188150Y159366D01*
X143332Y194532D02*
X152552D01*
X315699Y114725D02*
X317374Y116400D01*
X345288D01*
X352500Y109188D01*
Y101600D02*
Y109188D01*
X296000Y141400D02*
X307370D01*
X295732Y93948D02*
X301424Y99640D01*
X308210D01*
Y120650D02*
Y121920D01*
X321312Y108712D02*
X324000Y111400D01*
X339000D01*
X342500Y107900D01*
Y95900D02*
Y107900D01*
Y95900D02*
X348000Y90400D01*
X360000D01*
X363000Y93400D01*
Y114400D01*
X349416Y127984D02*
X363000Y114400D01*
X341960Y127984D02*
X349416D01*
X308210Y120650D02*
X334626D01*
X341960Y127984D01*
X332500Y76200D02*
Y101600D01*
X55448Y20352D02*
X63100Y12700D01*
X55448Y20352D02*
Y174974D01*
X70942Y190468D01*
X85166D01*
X110566Y165068D01*
X137490D01*
X139268D02*
X152000Y177800D01*
X137490Y165068D02*
X139268D01*
X137490D02*
X152000Y177800D01*
X178892Y204692D02*
X190100Y215900D01*
X177337Y204692D02*
X190100Y215900D01*
X153492Y204692D02*
X177337D01*
X63652Y64052D02*
X75800Y76200D01*
X63652Y44164D02*
Y64052D01*
Y44164D02*
X69164Y38652D01*
X129678D01*
X196150Y105124D01*
X106248Y62960D02*
Y72612D01*
X132070Y98434D01*
X152935D01*
X192150Y137650D01*
X177400Y177800D02*
X192150Y163050D01*
X177400Y177800D02*
X192196D01*
X59652Y85452D02*
X75800Y101600D01*
X59652Y41548D02*
Y85452D01*
Y41548D02*
X88500Y12700D01*
X63576Y113824D02*
X75800Y101600D01*
X63576Y113824D02*
Y165576D01*
X75800Y177800D01*
X101200Y152400D01*
X126600D01*
X75800Y50800D02*
X87960Y62960D01*
Y114840D01*
X75800Y127000D02*
X87960Y114840D01*
X75800Y127000D02*
X152000D01*
X352500Y47550D02*
Y76200D01*
X308210Y108712D02*
X321312D01*
X290000Y135400D02*
X296000Y141400D01*
X273325Y114725D02*
X315699D01*
X266000Y107400D02*
X273325Y114725D01*
X444000Y97400D02*
X460000D01*
X486000Y123400D02*
Y126800D01*
X460000Y97400D02*
X486000Y123400D01*
X164700Y12700D02*
Y20100D01*
X231798Y87198D01*
X308210D01*
X412750Y44050D02*
X444100Y12700D01*
X433930Y87330D02*
X444000Y97400D01*
X420840Y87330D02*
X433930D01*
X412750Y79240D02*
X420840Y87330D01*
X412750Y44050D02*
Y79240D01*
X434443Y12700D02*
X444100D01*
X352500Y47550D02*
X376218Y23832D01*
X423311D02*
X434443Y12700D01*
X376218Y23832D02*
X423311D01*
D15*
X126600Y177800D02*
D03*
Y152400D02*
D03*
X177400Y177800D02*
D03*
X152000Y152400D02*
D03*
X177400D02*
D03*
X152000Y177800D02*
D03*
D16*
X25400Y76200D02*
D03*
Y101600D02*
D03*
Y127000D02*
D03*
Y152400D02*
D03*
D17*
X482200Y25400D02*
D03*
Y203200D02*
D03*
D18*
X75800Y50800D02*
D03*
Y76200D02*
D03*
Y101600D02*
D03*
Y127000D02*
D03*
Y152400D02*
D03*
Y177800D02*
D03*
X486000Y101400D02*
D03*
Y126800D02*
D03*
D19*
X164700Y215900D02*
D03*
X190100D02*
D03*
X215500D02*
D03*
X240900D02*
D03*
X266300D02*
D03*
X291700D02*
D03*
X317100D02*
D03*
X342500D02*
D03*
X367900D02*
D03*
X393300D02*
D03*
X418700D02*
D03*
X444100D02*
D03*
Y12700D02*
D03*
X418700D02*
D03*
X393300D02*
D03*
X367900D02*
D03*
X342500D02*
D03*
X317100D02*
D03*
X291700D02*
D03*
X266300D02*
D03*
X240900D02*
D03*
X215500D02*
D03*
X190100D02*
D03*
X164700D02*
D03*
X139300D02*
D03*
X113900D02*
D03*
X88500D02*
D03*
X63100D02*
D03*
D20*
X25000Y25400D02*
D03*
Y203200D02*
D03*
D21*
X400050Y177800D02*
D03*
Y152400D02*
D03*
Y127000D02*
D03*
Y101600D02*
D03*
Y76200D02*
D03*
Y50800D02*
D03*
X374650D02*
D03*
Y76200D02*
D03*
Y101600D02*
D03*
Y127000D02*
D03*
Y152400D02*
D03*
Y177800D02*
D03*
X425450Y50800D02*
D03*
Y76200D02*
D03*
Y101600D02*
D03*
Y127000D02*
D03*
Y152400D02*
D03*
Y177800D02*
D03*
D22*
X322500Y155000D02*
D03*
D23*
X302500Y182500D02*
D03*
X222500Y152500D02*
D03*
X137490Y138906D02*
D03*
X195720Y181324D02*
D03*
X169240Y191230D02*
D03*
X326000Y131400D02*
D03*
X148780Y106394D02*
D03*
X245440Y200628D02*
D03*
X355422Y155416D02*
D03*
X295732Y93948D02*
D03*
X341960Y127984D02*
D03*
X106248Y62960D02*
D03*
X290000Y135400D02*
D03*
X254220Y74930D02*
D03*
Y44930D02*
D03*
X444220Y74930D02*
D03*
Y44930D02*
D03*
Y117670D02*
D03*
Y147670D02*
D03*
X254220Y117670D02*
D03*
Y147670D02*
D03*
X281000Y181400D02*
D03*
X441000Y179400D02*
D03*
D24*
X352500Y101600D02*
D03*
X332500D02*
D03*
Y76200D02*
D03*
X352500D02*
D03*
D25*
X308210Y88900D02*
D03*
Y78740D02*
D03*
Y99640D02*
D03*
Y108712D02*
D03*
Y120650D02*
D03*
Y130810D02*
D03*
Y140970D02*
D03*
Y151130D02*
D03*
D26*
X304694Y153376D02*
X308210D01*
X304694Y149860D02*
Y153376D01*
X304234Y149400D02*
X304694Y149860D01*
X308210Y78740D02*
X329960D01*
X332500Y76200D01*
X256000Y149400D02*
X304234D01*
D27*
X308210Y80010D02*
Y87198D01*
Y87630D01*
Y121920D02*
Y129540D01*
Y142240D02*
Y149860D01*
M02*
