G04 Layer_Physical_Order=1*
G04 Layer_Color=255*
%FSLAX44Y44*%
%MOMM*%
G71*
G01*
G75*
%ADD10R,2.5000X4.0000*%
%ADD11R,2.3400X2.0000*%
%ADD12R,0.7620X1.6002*%
G04:AMPARAMS|DCode=13|XSize=1mm|YSize=0.9mm|CornerRadius=0.1125mm|HoleSize=0mm|Usage=FLASHONLY|Rotation=270.000|XOffset=0mm|YOffset=0mm|HoleType=Round|Shape=RoundedRectangle|*
%AMROUNDEDRECTD13*
21,1,1.0000,0.6750,0,0,270.0*
21,1,0.7750,0.9000,0,0,270.0*
1,1,0.2250,-0.3375,-0.3875*
1,1,0.2250,-0.3375,0.3875*
1,1,0.2250,0.3375,0.3875*
1,1,0.2250,0.3375,-0.3875*
%
%ADD13ROUNDEDRECTD13*%
%ADD14R,0.6350X1.2700*%
%ADD15O,2.2000X0.6000*%
%ADD16C,0.2200*%
%ADD17C,0.2500*%
%ADD18C,0.2032*%
%ADD19C,1.6760*%
%ADD20C,3.2004*%
%ADD21C,1.6764*%
%ADD22C,1.8796*%
%ADD23C,1.6000*%
%ADD24C,0.8000*%
G36*
X464025Y111161D02*
X464025Y111161D01*
Y111161D01*
X465233Y111018D01*
X466085Y110906D01*
X467948Y110134D01*
X469548Y108907D01*
X470775Y107307D01*
X471547Y105444D01*
X471795Y103564D01*
X471795Y103564D01*
X471795D01*
X471810Y103549D01*
X471829Y41105D01*
X470560Y40170D01*
X463118D01*
X462294Y41440D01*
X462634Y43148D01*
X462184Y45411D01*
X462130Y45492D01*
X462157Y45627D01*
Y93948D01*
X461932Y95079D01*
X461291Y96039D01*
X452909Y104421D01*
X451950Y105062D01*
X450818Y105287D01*
X442690D01*
X441558Y105062D01*
X440599Y104421D01*
X416573Y80395D01*
X403736D01*
X403250Y81568D01*
X414264Y92582D01*
X416442Y91680D01*
X419100Y91330D01*
X421758Y91680D01*
X424235Y92706D01*
X426362Y94338D01*
X427994Y96465D01*
X429020Y98942D01*
X429370Y101600D01*
X429020Y104258D01*
X427994Y106735D01*
X426362Y108862D01*
X425009Y109900D01*
X425440Y111170D01*
X462762D01*
X464025Y111161D01*
D02*
G37*
G36*
X346493Y73211D02*
X344516Y72392D01*
X342389Y70760D01*
X340758Y68634D01*
X339732Y66157D01*
X339382Y63500D01*
X339732Y60842D01*
X340758Y58366D01*
X342389Y56240D01*
X344221Y54834D01*
X344093Y53659D01*
X344022Y53500D01*
X343063Y52859D01*
X331887Y41683D01*
X331246Y40724D01*
X331021Y39592D01*
Y25938D01*
X329751Y25813D01*
X329463Y27263D01*
X328181Y29181D01*
X326262Y30463D01*
X323999Y30914D01*
X321736Y30463D01*
X319818Y29181D01*
X318999Y27957D01*
X294951D01*
X293820Y27732D01*
X292860Y27091D01*
X267933Y2164D01*
X266760Y2650D01*
Y17100D01*
X236680D01*
Y9604D01*
X235507Y9118D01*
X217534Y27091D01*
X216575Y27732D01*
X215443Y27957D01*
X213225D01*
X203091Y38091D01*
X202132Y38732D01*
X201000Y38957D01*
X190000D01*
X188869Y38732D01*
X187909Y38091D01*
X180927Y31108D01*
X180182Y31182D01*
X178263Y32464D01*
X176000Y32914D01*
X173737Y32464D01*
X171818Y31182D01*
X171144Y30173D01*
X169819Y30475D01*
X169464Y32263D01*
X168182Y34182D01*
X167009Y34965D01*
Y42999D01*
X168279Y43404D01*
X170058Y42040D01*
X172442Y41052D01*
X175000Y40715D01*
X177558Y41052D01*
X179942Y42040D01*
X181989Y43610D01*
X183560Y45658D01*
X184548Y48042D01*
X184884Y50600D01*
X184548Y53158D01*
X183725Y55144D01*
X185283Y56701D01*
X189452D01*
X190583Y56926D01*
X191543Y57567D01*
X196011Y62035D01*
X222546D01*
X222799Y60765D01*
X220484Y59806D01*
X218283Y58117D01*
X216593Y55915D01*
X215531Y53351D01*
X215336Y51870D01*
X225800D01*
Y49330D01*
X215336D01*
X215531Y47848D01*
X216593Y45284D01*
X218172Y43227D01*
X217886Y41957D01*
X213225D01*
X209125Y46056D01*
X209948Y48042D01*
X210284Y50600D01*
X209948Y53158D01*
X208960Y55542D01*
X207389Y57589D01*
X205342Y59160D01*
X202958Y60148D01*
X200400Y60484D01*
X197842Y60148D01*
X195458Y59160D01*
X193410Y57589D01*
X191840Y55542D01*
X190852Y53158D01*
X190515Y50600D01*
X190852Y48042D01*
X191840Y45658D01*
X193410Y43610D01*
X195458Y42040D01*
X197842Y41052D01*
X200400Y40715D01*
X202958Y41052D01*
X204944Y41874D01*
X209909Y36909D01*
X210868Y36268D01*
X212000Y36043D01*
X234072D01*
X235203Y36268D01*
X235410Y36406D01*
X236680Y35727D01*
Y19640D01*
X266760D01*
Y40618D01*
X278779D01*
X279911Y40844D01*
X280870Y41484D01*
X285015Y45629D01*
X285656Y46589D01*
X285881Y47720D01*
Y56824D01*
X287001Y57422D01*
X287650Y56989D01*
X289913Y56538D01*
X292176Y56989D01*
X294095Y58270D01*
X294913Y59495D01*
X304395D01*
X305526Y59720D01*
X306485Y60361D01*
X320605Y74481D01*
X346241D01*
X346493Y73211D01*
D02*
G37*
G36*
X208964Y23854D02*
X208155Y22868D01*
X207263Y23463D01*
X205000Y23914D01*
X202737Y23463D01*
X200818Y22182D01*
X199536Y20263D01*
X199086Y18000D01*
X199411Y16368D01*
X198478Y14973D01*
X198331Y14234D01*
X196953Y13816D01*
X189661Y21109D01*
X188701Y21750D01*
X187570Y21975D01*
X181299D01*
X180716Y23114D01*
X181273Y24097D01*
X182132Y24268D01*
X183091Y24909D01*
X191225Y33043D01*
X199775D01*
X208964Y23854D01*
D02*
G37*
G36*
X456243Y48967D02*
X454457Y48611D01*
X452539Y47330D01*
X451257Y45411D01*
X450807Y43148D01*
X451147Y41440D01*
X450323Y40170D01*
X442421D01*
Y-3430D01*
X471020D01*
X471844Y-4359D01*
X471852Y-31645D01*
X470582Y-32570D01*
X442421D01*
Y-76170D01*
X452450D01*
X452836Y-77440D01*
X452539Y-77638D01*
X451257Y-79557D01*
X450807Y-81820D01*
X451257Y-84083D01*
X452539Y-86002D01*
X454457Y-87283D01*
X456720Y-87734D01*
X458983Y-87283D01*
X460902Y-86002D01*
X462184Y-84083D01*
X462634Y-81820D01*
X462184Y-79557D01*
X460902Y-77638D01*
X460605Y-77440D01*
X460991Y-76170D01*
X470596D01*
X471020Y-76170D01*
X471866Y-77090D01*
X471874Y-102310D01*
X471795Y-103564D01*
X471795D01*
X471795Y-103564D01*
X471547Y-105444D01*
X470775Y-107307D01*
X469548Y-108907D01*
X467948Y-110134D01*
X466085Y-110906D01*
X465233Y-111018D01*
X464025Y-111161D01*
X464025Y-111161D01*
X462762Y-111170D01*
X425440D01*
X425009Y-109900D01*
X426362Y-108862D01*
X427994Y-106735D01*
X429020Y-104258D01*
X429370Y-101600D01*
X429020Y-98942D01*
X427994Y-96465D01*
X426362Y-94338D01*
X424235Y-92706D01*
X421758Y-91680D01*
X419100Y-91330D01*
X416442Y-91680D01*
X414264Y-92582D01*
X402173Y-80491D01*
X401213Y-79850D01*
X400082Y-79625D01*
X344220D01*
X343893Y-79189D01*
X344527Y-77919D01*
X412411D01*
X412741Y-78140D01*
X415004Y-78590D01*
X417267Y-78140D01*
X419186Y-76858D01*
X420467Y-74939D01*
X420918Y-72676D01*
X420467Y-70413D01*
X419186Y-68494D01*
X417267Y-67213D01*
X415004Y-66762D01*
X412741Y-67213D01*
X410822Y-68494D01*
X410696Y-68684D01*
X409571Y-68082D01*
X410368Y-66157D01*
X410718Y-63500D01*
X410368Y-60842D01*
X409342Y-58366D01*
X407710Y-56240D01*
X405584Y-54608D01*
X403107Y-53582D01*
X400450Y-53232D01*
X397792Y-53582D01*
X395316Y-54608D01*
X393189Y-56240D01*
X391558Y-58366D01*
X390532Y-60842D01*
X390182Y-63500D01*
X390532Y-66157D01*
X391558Y-68634D01*
X393170Y-70735D01*
X393106Y-71210D01*
X392836Y-72005D01*
X382663D01*
X382394Y-71210D01*
X382330Y-70735D01*
X383942Y-68634D01*
X384968Y-66157D01*
X385318Y-63500D01*
X384968Y-60842D01*
X383942Y-58366D01*
X382310Y-56240D01*
X380184Y-54608D01*
X377707Y-53582D01*
X375050Y-53232D01*
X372392Y-53582D01*
X369916Y-54608D01*
X367789Y-56240D01*
X366158Y-58366D01*
X365132Y-60842D01*
X364782Y-63500D01*
X365132Y-66157D01*
X366158Y-68634D01*
X367770Y-70735D01*
X367706Y-71210D01*
X367436Y-72005D01*
X357263D01*
X356994Y-71210D01*
X356930Y-70735D01*
X358542Y-68634D01*
X359568Y-66157D01*
X359918Y-63500D01*
X359568Y-60842D01*
X358542Y-58366D01*
X356910Y-56240D01*
X354784Y-54608D01*
X352307Y-53582D01*
X349650Y-53232D01*
X346992Y-53582D01*
X344516Y-54608D01*
X342389Y-56240D01*
X340758Y-58366D01*
X339732Y-60842D01*
X339382Y-63500D01*
X339732Y-66157D01*
X340758Y-68634D01*
X341655Y-69803D01*
X340698Y-70643D01*
X319051Y-48995D01*
X318092Y-48354D01*
X316960Y-48129D01*
X312308D01*
X311490Y-46904D01*
X309571Y-45623D01*
X307308Y-45172D01*
X305045Y-45623D01*
X303661Y-46547D01*
X302391Y-45893D01*
Y-39322D01*
X303616Y-38504D01*
X304897Y-36585D01*
X305348Y-34322D01*
X304897Y-32059D01*
X303616Y-30140D01*
X302744Y-29558D01*
X302649Y-28177D01*
X318906Y-11919D01*
X320175Y-12447D01*
X320536Y-14263D01*
X321818Y-16182D01*
X323737Y-17464D01*
X326000Y-17914D01*
X328263Y-17464D01*
X330182Y-16182D01*
X331464Y-14263D01*
X331914Y-12000D01*
X331464Y-9737D01*
X331055Y-9126D01*
X336225Y-3957D01*
X342346D01*
X342754Y-5159D01*
X342389Y-5440D01*
X340758Y-7566D01*
X339732Y-10043D01*
X339382Y-12700D01*
X339732Y-15358D01*
X340758Y-17834D01*
X342389Y-19960D01*
X344516Y-21592D01*
X346992Y-22618D01*
X349650Y-22968D01*
X352307Y-22618D01*
X354784Y-21592D01*
X356910Y-19960D01*
X358542Y-17834D01*
X359568Y-15358D01*
X359918Y-12700D01*
X359568Y-10043D01*
X358542Y-7566D01*
X356910Y-5440D01*
X356545Y-5159D01*
X356953Y-3957D01*
X367746D01*
X368154Y-5159D01*
X367789Y-5440D01*
X366158Y-7566D01*
X365132Y-10043D01*
X364782Y-12700D01*
X365132Y-15358D01*
X366158Y-17834D01*
X367789Y-19960D01*
X369916Y-21592D01*
X372392Y-22618D01*
X375050Y-22968D01*
X377707Y-22618D01*
X380184Y-21592D01*
X382310Y-19960D01*
X383942Y-17834D01*
X384968Y-15358D01*
X385318Y-12700D01*
X384968Y-10043D01*
X383942Y-7566D01*
X383774Y-7348D01*
X384654Y-6408D01*
X384737Y-6464D01*
X387000Y-6914D01*
X389263Y-6464D01*
X391182Y-5182D01*
X392463Y-3263D01*
X392914Y-1000D01*
X392463Y1263D01*
X391182Y3182D01*
X389263Y4464D01*
X387000Y4914D01*
X384737Y4464D01*
X382818Y3182D01*
X382000Y1957D01*
X379034D01*
X378781Y3227D01*
X380184Y3808D01*
X382310Y5440D01*
X383942Y7566D01*
X384968Y10043D01*
X385318Y12700D01*
X384968Y15358D01*
X383942Y17834D01*
X382310Y19960D01*
X380184Y21592D01*
X377707Y22618D01*
X375050Y22968D01*
X372392Y22618D01*
X369916Y21592D01*
X367789Y19960D01*
X366158Y17834D01*
X365132Y15358D01*
X364782Y12700D01*
X365132Y10043D01*
X366158Y7566D01*
X367789Y5440D01*
X369916Y3808D01*
X371319Y3227D01*
X371066Y1957D01*
X353634D01*
X353381Y3227D01*
X354784Y3808D01*
X356910Y5440D01*
X358542Y7566D01*
X359568Y10043D01*
X359918Y12700D01*
X359568Y15358D01*
X358542Y17834D01*
X356910Y19960D01*
X354784Y21592D01*
X352307Y22618D01*
X349650Y22968D01*
X346992Y22618D01*
X344516Y21592D01*
X342389Y19960D01*
X340758Y17834D01*
X339732Y15358D01*
X339382Y12700D01*
X339732Y10043D01*
X340758Y7566D01*
X342389Y5440D01*
X344516Y3808D01*
X345919Y3227D01*
X345666Y1957D01*
X335000D01*
X334474Y1852D01*
X333848Y3023D01*
X336069Y5243D01*
X336710Y6202D01*
X336935Y7334D01*
Y38367D01*
X338318Y39751D01*
X339521Y39158D01*
X339382Y38100D01*
X339732Y35443D01*
X340758Y32966D01*
X342389Y30840D01*
X344516Y29208D01*
X346992Y28182D01*
X349650Y27832D01*
X352307Y28182D01*
X354784Y29208D01*
X356910Y30840D01*
X358542Y32966D01*
X359568Y35443D01*
X359918Y38100D01*
X359568Y40757D01*
X358542Y43234D01*
X356910Y45360D01*
X355372Y46541D01*
X355803Y47811D01*
X368897D01*
X369328Y46541D01*
X367789Y45360D01*
X366158Y43234D01*
X365132Y40757D01*
X364782Y38100D01*
X365132Y35443D01*
X366158Y32966D01*
X367789Y30840D01*
X369916Y29208D01*
X372392Y28182D01*
X375050Y27832D01*
X377707Y28182D01*
X380184Y29208D01*
X382310Y30840D01*
X383942Y32966D01*
X384968Y35443D01*
X385318Y38100D01*
X384968Y40757D01*
X383942Y43234D01*
X382310Y45360D01*
X380771Y46541D01*
X381203Y47811D01*
X394297D01*
X394728Y46541D01*
X393189Y45360D01*
X391558Y43234D01*
X390532Y40757D01*
X390182Y38100D01*
X390532Y35443D01*
X391558Y32966D01*
X393189Y30840D01*
X395316Y29208D01*
X397792Y28182D01*
X400450Y27832D01*
X403107Y28182D01*
X405584Y29208D01*
X407710Y30840D01*
X409342Y32966D01*
X410368Y35443D01*
X410718Y38100D01*
X410368Y40757D01*
X409342Y43234D01*
X407710Y45360D01*
X406171Y46541D01*
X406603Y47811D01*
X434562D01*
X435694Y48036D01*
X436653Y48677D01*
X446591Y58615D01*
X447232Y59574D01*
X447457Y60706D01*
Y61300D01*
X456243D01*
Y48967D01*
D02*
G37*
G36*
X397293Y73211D02*
X395316Y72392D01*
X393189Y70760D01*
X391558Y68634D01*
X390532Y66157D01*
X390182Y63500D01*
X390532Y60842D01*
X391558Y58366D01*
X393189Y56240D01*
X394812Y54995D01*
X394380Y53725D01*
X381119D01*
X380688Y54995D01*
X382310Y56240D01*
X383942Y58366D01*
X384968Y60842D01*
X385318Y63500D01*
X384968Y66157D01*
X383942Y68634D01*
X382310Y70760D01*
X380184Y72392D01*
X378206Y73211D01*
X378459Y74481D01*
X397040D01*
X397293Y73211D01*
D02*
G37*
G36*
X431000Y84662D02*
Y61300D01*
X439253D01*
X439739Y60127D01*
X433337Y53725D01*
X406519D01*
X406088Y54995D01*
X407710Y56240D01*
X409342Y58366D01*
X410368Y60842D01*
X410718Y63500D01*
X410368Y66157D01*
X409342Y68634D01*
X407710Y70760D01*
X405584Y72392D01*
X403606Y73211D01*
X403859Y74481D01*
X417798D01*
X418929Y74706D01*
X419889Y75347D01*
X429934Y85392D01*
X431000Y84662D01*
D02*
G37*
G36*
X153308Y58489D02*
X149051Y54233D01*
X123158D01*
X122027Y54008D01*
X121067Y53367D01*
X120539Y52838D01*
X119094Y53126D01*
X116831Y52675D01*
X114912Y51394D01*
X113631Y49475D01*
X113180Y47212D01*
X111966Y47121D01*
X88199D01*
X87713Y48294D01*
X99081Y59662D01*
X152822D01*
X153308Y58489D01*
D02*
G37*
G36*
X371893Y73211D02*
X369916Y72392D01*
X367789Y70760D01*
X366158Y68634D01*
X365132Y66157D01*
X364782Y63500D01*
X365132Y60842D01*
X366158Y58366D01*
X367789Y56240D01*
X369412Y54995D01*
X368980Y53725D01*
X355719D01*
X355288Y54995D01*
X356910Y56240D01*
X358542Y58366D01*
X359568Y60842D01*
X359918Y63500D01*
X359568Y66157D01*
X358542Y68634D01*
X356910Y70760D01*
X354784Y72392D01*
X352807Y73211D01*
X353059Y74481D01*
X371641D01*
X371893Y73211D01*
D02*
G37*
G36*
X161095Y56118D02*
Y35035D01*
X159818Y34182D01*
X158537Y32263D01*
X158086Y30000D01*
X158537Y27737D01*
X159818Y25818D01*
X161737Y24536D01*
X164000Y24086D01*
X166263Y24536D01*
X168182Y25818D01*
X168856Y26827D01*
X170181Y26525D01*
X170536Y24737D01*
X171534Y23245D01*
X170969Y21975D01*
X152368D01*
X151631Y21828D01*
X150850Y22213D01*
X150708Y22318D01*
X150360Y22692D01*
Y39401D01*
X147707D01*
Y39592D01*
X147482Y40724D01*
X146841Y41683D01*
X142269Y46255D01*
X141310Y46896D01*
X140539Y47049D01*
X140664Y48319D01*
X150276D01*
X151408Y48544D01*
X152367Y49185D01*
X159825Y56644D01*
X161095Y56118D01*
D02*
G37*
G36*
X76961Y-31677D02*
X76475Y-32850D01*
X76147D01*
Y-34821D01*
X75914Y-35012D01*
X73651Y-35463D01*
X71732Y-36744D01*
X70451Y-38663D01*
X70000Y-40926D01*
X70451Y-43189D01*
X71732Y-45108D01*
X73651Y-46389D01*
X74322Y-46523D01*
X74197Y-47793D01*
X60114D01*
X59906Y-47178D01*
X59784Y-46523D01*
X61628Y-44120D01*
X62831Y-41217D01*
X63074Y-39370D01*
X51200D01*
Y-36830D01*
X63074D01*
X62831Y-34983D01*
X61628Y-32080D01*
X59965Y-29913D01*
X60428Y-28643D01*
X73927D01*
X76961Y-31677D01*
D02*
G37*
G36*
X194115Y-47307D02*
Y-53880D01*
X194340Y-55012D01*
X194981Y-55971D01*
X197521Y-58511D01*
X198039Y-58857D01*
X197771Y-60205D01*
X197660Y-60227D01*
X196651Y-60901D01*
X194301Y-63251D01*
X193627Y-64260D01*
X193390Y-65450D01*
Y-71858D01*
X192120Y-72120D01*
X192000Y-72000D01*
X184795D01*
X184305Y-71673D01*
X182875Y-71388D01*
X180770D01*
Y-79000D01*
X179500D01*
Y-80270D01*
X172388D01*
Y-82875D01*
X172673Y-84305D01*
X172986Y-84773D01*
X172307Y-86043D01*
X162225D01*
X144998Y-68817D01*
X145210Y-67232D01*
X146390Y-66444D01*
X147671Y-64525D01*
X148122Y-62262D01*
X147671Y-59999D01*
X146390Y-58080D01*
X144471Y-56799D01*
X142208Y-56348D01*
X140763Y-56636D01*
X125954Y-41826D01*
X126579Y-40656D01*
X126586Y-40657D01*
X151203D01*
X151539Y-41161D01*
X153127Y-42222D01*
X155000Y-42594D01*
X171000D01*
X172873Y-42222D01*
X173183Y-42014D01*
X174303Y-42613D01*
Y-45307D01*
X173033Y-45986D01*
X172873Y-45879D01*
X171000Y-45506D01*
X155000D01*
X153127Y-45879D01*
X151539Y-46940D01*
X150478Y-48527D01*
X150106Y-50400D01*
X150478Y-52273D01*
X151539Y-53861D01*
X153127Y-54922D01*
X155000Y-55294D01*
X171000D01*
X172873Y-54922D01*
X174461Y-53861D01*
X174821Y-53322D01*
X175775Y-53132D01*
X176735Y-52491D01*
X178773Y-50452D01*
X179850Y-51171D01*
X179628Y-51707D01*
X179571Y-52144D01*
X184730D01*
Y-46985D01*
X184293Y-47042D01*
X182702Y-47702D01*
X181336Y-48750D01*
X181314Y-48778D01*
X180126Y-48240D01*
X180217Y-47784D01*
Y-35205D01*
X181487Y-34679D01*
X194115Y-47307D01*
D02*
G37*
G36*
X290616Y-16963D02*
X290090Y-18362D01*
X289837Y-18412D01*
X287918Y-19694D01*
X286637Y-21613D01*
X286186Y-23876D01*
X286637Y-26139D01*
X287918Y-28058D01*
X289143Y-28876D01*
Y-91804D01*
X286965Y-92706D01*
X284838Y-94338D01*
X283206Y-96465D01*
X282180Y-98942D01*
X281830Y-101600D01*
X282180Y-104258D01*
X283206Y-106735D01*
X284838Y-108862D01*
X286191Y-109900D01*
X285760Y-111170D01*
X273040D01*
X272609Y-109900D01*
X273962Y-108862D01*
X275594Y-106735D01*
X276620Y-104258D01*
X276970Y-101600D01*
X276620Y-98942D01*
X275594Y-96465D01*
X273962Y-94338D01*
X271835Y-92706D01*
X269358Y-91680D01*
X266700Y-91330D01*
X264042Y-91680D01*
X261565Y-92706D01*
X259438Y-94338D01*
X257806Y-96465D01*
X256780Y-98942D01*
X256430Y-101600D01*
X256780Y-104258D01*
X257806Y-106735D01*
X259438Y-108862D01*
X260791Y-109900D01*
X260360Y-111170D01*
X247640D01*
X247209Y-109900D01*
X248562Y-108862D01*
X250194Y-106735D01*
X251220Y-104258D01*
X251570Y-101600D01*
X251220Y-98942D01*
X250194Y-96465D01*
X248562Y-94338D01*
X246435Y-92706D01*
X243958Y-91680D01*
X241300Y-91330D01*
X238642Y-91680D01*
X236165Y-92706D01*
X234038Y-94338D01*
X232406Y-96465D01*
X231380Y-98942D01*
X231030Y-101600D01*
X231380Y-104258D01*
X232406Y-106735D01*
X234038Y-108862D01*
X235391Y-109900D01*
X234960Y-111170D01*
X222240D01*
X221809Y-109900D01*
X223162Y-108862D01*
X224794Y-106735D01*
X225820Y-104258D01*
X226170Y-101600D01*
X225820Y-98942D01*
X224794Y-96465D01*
X223162Y-94338D01*
X221035Y-92706D01*
X218558Y-91680D01*
X215900Y-91330D01*
X213242Y-91680D01*
X210765Y-92706D01*
X208638Y-94338D01*
X207006Y-96465D01*
X205980Y-98942D01*
X205630Y-101600D01*
X205980Y-104258D01*
X207006Y-106735D01*
X208638Y-108862D01*
X209991Y-109900D01*
X209560Y-111170D01*
X196840D01*
X196409Y-109900D01*
X197762Y-108862D01*
X199394Y-106735D01*
X200420Y-104258D01*
X200770Y-101600D01*
X200420Y-98942D01*
X199394Y-96465D01*
X197762Y-94338D01*
X195635Y-92706D01*
X193158Y-91680D01*
X190500Y-91330D01*
X190094Y-91384D01*
X189501Y-90181D01*
X193824Y-85857D01*
X199875D01*
X201016Y-85630D01*
X201984Y-84984D01*
X202630Y-84016D01*
X202857Y-82875D01*
Y-75125D01*
X202630Y-73984D01*
X201984Y-73016D01*
X201016Y-72370D01*
X199875Y-72143D01*
X199610D01*
Y-68135D01*
X200880Y-67456D01*
X201127Y-67622D01*
X203000Y-67994D01*
X219000D01*
X220873Y-67622D01*
X221744Y-67039D01*
X222192Y-66741D01*
X223071Y-67680D01*
X222777Y-68063D01*
X222287Y-68702D01*
X221628Y-70293D01*
X221571Y-70730D01*
X226730D01*
Y-65571D01*
X226293Y-65628D01*
X224702Y-66287D01*
X224003Y-66824D01*
X223612Y-67124D01*
X222672Y-66244D01*
X222966Y-65804D01*
X223521Y-64973D01*
X223894Y-63100D01*
X223521Y-61227D01*
X223133Y-60647D01*
X223812Y-59377D01*
X231362D01*
X232493Y-59152D01*
X233453Y-58511D01*
X236247Y-55717D01*
X237420Y-56203D01*
Y-76170D01*
X266020D01*
Y-62933D01*
X273098D01*
X273916Y-64158D01*
X275835Y-65440D01*
X278098Y-65890D01*
X280361Y-65440D01*
X282280Y-64158D01*
X283561Y-62239D01*
X284012Y-59976D01*
X283561Y-57713D01*
X282280Y-55794D01*
X280361Y-54513D01*
X278098Y-54062D01*
X275835Y-54513D01*
X273916Y-55794D01*
X273098Y-57019D01*
X266020D01*
Y-32570D01*
X238383D01*
Y-18783D01*
X240715Y-16451D01*
X290222D01*
X290616Y-16963D01*
D02*
G37*
G36*
X136582Y-60817D02*
X136294Y-62262D01*
X136744Y-64525D01*
X137669Y-65909D01*
X137015Y-67179D01*
X120864D01*
X119733Y-67404D01*
X118773Y-68045D01*
X115775Y-71043D01*
X102729D01*
X102050Y-69773D01*
X102842Y-68589D01*
X103292Y-66326D01*
X102842Y-64063D01*
X102353Y-63332D01*
Y-53583D01*
X103577D01*
X104708Y-53358D01*
X105667Y-52717D01*
X106920Y-51465D01*
X107687Y-51978D01*
X109950Y-52428D01*
X112213Y-51978D01*
X114132Y-50696D01*
X115414Y-48777D01*
X115864Y-46514D01*
X115414Y-44251D01*
X114132Y-42332D01*
X112213Y-41051D01*
X109950Y-40600D01*
X107687Y-41051D01*
X105768Y-42332D01*
X104487Y-44251D01*
X104230Y-45539D01*
X103623Y-45935D01*
X102353Y-45259D01*
Y-38549D01*
X114313D01*
X136582Y-60817D01*
D02*
G37*
G36*
X331021Y24061D02*
Y8559D01*
X303300Y-19162D01*
X301776Y-18891D01*
X301525Y-18515D01*
X294413Y-11403D01*
X293454Y-10762D01*
X292322Y-10537D01*
X239490D01*
X238358Y-10762D01*
X237399Y-11403D01*
X233335Y-15467D01*
X232694Y-16427D01*
X232469Y-17558D01*
Y-51131D01*
X230137Y-53463D01*
X225248D01*
X225174Y-53369D01*
X224784Y-52193D01*
X227103Y-49875D01*
X227744Y-48916D01*
X227969Y-47784D01*
Y-21368D01*
X227744Y-20236D01*
X227103Y-19277D01*
X224353Y-16527D01*
X224742Y-15351D01*
X224816Y-15257D01*
X225012D01*
X226143Y-15032D01*
X227103Y-14391D01*
X227744Y-13432D01*
X227969Y-12300D01*
Y3016D01*
X227744Y4148D01*
X227103Y5107D01*
X223039Y9171D01*
X222854Y9294D01*
X222460Y9639D01*
X223408Y11058D01*
X224726Y11536D01*
X233363Y2899D01*
Y-2831D01*
X233588Y-3963D01*
X234229Y-4922D01*
X235928Y-6621D01*
X236887Y-7261D01*
X238019Y-7487D01*
X265421D01*
X266553Y-7261D01*
X267512Y-6621D01*
X296176Y22043D01*
X318999D01*
X319818Y20818D01*
X321736Y19536D01*
X323999Y19086D01*
X326262Y19536D01*
X328181Y20818D01*
X329463Y22737D01*
X329751Y24186D01*
X331021Y24061D01*
D02*
G37*
G36*
X113955Y38221D02*
X114915Y37580D01*
X116046Y37355D01*
X125994D01*
X126440Y36989D01*
Y20697D01*
X125170Y20171D01*
X122688Y22653D01*
X122976Y24098D01*
X122526Y26361D01*
X121244Y28280D01*
X119325Y29562D01*
X117062Y30012D01*
X114799Y29562D01*
X112880Y28280D01*
X111599Y26361D01*
X111148Y24098D01*
X111452Y22572D01*
X110543Y21302D01*
X105610D01*
Y39401D01*
X94390D01*
Y23133D01*
X93120Y22454D01*
X92910Y22594D01*
Y39401D01*
X86886D01*
X86262Y40671D01*
X86677Y41207D01*
X110969D01*
X113955Y38221D01*
D02*
G37*
G36*
X19984Y-17630D02*
X21125Y-17858D01*
X27875D01*
X28695Y-17694D01*
X29000Y-18000D01*
X37000D01*
X37306Y-17694D01*
X38125Y-17858D01*
X38543D01*
Y-21175D01*
X31414Y-28305D01*
X28723Y-27190D01*
X25800Y-26805D01*
X22877Y-27190D01*
X20152Y-28319D01*
X17813Y-30113D01*
X16018Y-32453D01*
X14890Y-35177D01*
X14505Y-38100D01*
X14890Y-41023D01*
X16018Y-43747D01*
X17813Y-46087D01*
X18470Y-46590D01*
X18062Y-47793D01*
X14274D01*
X10195Y-43714D01*
X11310Y-41023D01*
X11694Y-38100D01*
X11310Y-35177D01*
X10181Y-32453D01*
X8386Y-30113D01*
X6047Y-28319D01*
X3323Y-27190D01*
X400Y-26805D01*
X-2524Y-27190D01*
X-4115Y-27850D01*
X-5171Y-27144D01*
Y-19150D01*
X-2871D01*
Y-20000D01*
X-2653Y-21099D01*
X-2030Y-22030D01*
X-1864Y-22197D01*
X-932Y-22819D01*
X166Y-23037D01*
X10451D01*
X10520Y-23084D01*
X11652Y-23309D01*
X12783Y-23084D01*
X13743Y-22443D01*
X19127Y-17058D01*
X19984Y-17630D01*
D02*
G37*
G36*
X64043Y-1225D02*
Y-9000D01*
X64268Y-10131D01*
X64909Y-11091D01*
X68868Y-15049D01*
X68895Y-15091D01*
X69854Y-15732D01*
X70986Y-15956D01*
X80319D01*
X80704Y-17227D01*
X79818Y-17818D01*
X78537Y-19737D01*
X78086Y-22000D01*
X78246Y-22802D01*
X77607Y-23308D01*
X77088Y-23492D01*
X76283Y-22954D01*
X75152Y-22729D01*
X44727D01*
X44457Y-22400D01*
Y-17858D01*
X44875D01*
X46016Y-17630D01*
X46984Y-16984D01*
X47630Y-16016D01*
X47857Y-14875D01*
Y-7125D01*
X47630Y-5984D01*
X46984Y-5016D01*
X46016Y-4370D01*
X44875Y-4143D01*
X38125D01*
X37306Y-4306D01*
X37000Y-4000D01*
X29000D01*
X28694Y-4306D01*
X27875Y-4143D01*
X21125D01*
X19984Y-4370D01*
X19016Y-5016D01*
X18370Y-5984D01*
X18142Y-7125D01*
Y-9680D01*
X15016Y-12806D01*
X13843Y-12320D01*
Y-12270D01*
X8128D01*
Y-9730D01*
X13843D01*
Y-3293D01*
X14500Y-1707D01*
X14657Y-513D01*
X15939Y0D01*
X16970Y-1030D01*
X17901Y-1653D01*
X19000Y-1871D01*
X31500D01*
X32599Y-1653D01*
X33530Y-1030D01*
X38703Y4143D01*
X44875D01*
X46016Y4370D01*
X46984Y5016D01*
X47630Y5984D01*
X47857Y7125D01*
Y13165D01*
X49127Y13691D01*
X64043Y-1225D01*
D02*
G37*
G36*
X285604Y76169D02*
X285381Y74596D01*
X285131Y74429D01*
X280833Y70131D01*
X280192Y69172D01*
X279967Y68040D01*
Y57855D01*
X278697Y57229D01*
X278348Y57497D01*
X276757Y58156D01*
X276320Y58213D01*
Y51784D01*
X273780D01*
Y58213D01*
X273343Y58156D01*
X271752Y57497D01*
X270386Y56448D01*
X269337Y55082D01*
X269196Y54741D01*
X235493D01*
X235007Y55915D01*
X233317Y58117D01*
X231115Y59806D01*
X228801Y60765D01*
X229054Y62035D01*
X237224D01*
X238355Y62260D01*
X239315Y62901D01*
X243887Y67474D01*
X245332Y67187D01*
X247230Y67564D01*
X248500Y66830D01*
Y61300D01*
X275500D01*
Y84641D01*
X277132D01*
X285604Y76169D01*
D02*
G37*
G36*
X235391Y109900D02*
X234038Y108862D01*
X232406Y106735D01*
X231380Y104258D01*
X231030Y101600D01*
X231380Y98942D01*
X232406Y96465D01*
X234038Y94338D01*
X236165Y92706D01*
X238293Y91825D01*
X238040Y90555D01*
X219160D01*
X218908Y91825D01*
X221035Y92706D01*
X223162Y94338D01*
X224794Y96465D01*
X225820Y98942D01*
X226170Y101600D01*
X225820Y104258D01*
X224794Y106735D01*
X223162Y108862D01*
X221809Y109900D01*
X222240Y111170D01*
X234960D01*
X235391Y109900D01*
D02*
G37*
G36*
X260791D02*
X259438Y108862D01*
X257806Y106735D01*
X256780Y104258D01*
X256430Y101600D01*
X256780Y98942D01*
X257806Y96465D01*
X259438Y94338D01*
X261565Y92706D01*
X263692Y91825D01*
X263440Y90555D01*
X244560D01*
X244307Y91825D01*
X246435Y92706D01*
X248562Y94338D01*
X250194Y96465D01*
X251220Y98942D01*
X251570Y101600D01*
X251220Y104258D01*
X250194Y106735D01*
X248562Y108862D01*
X247209Y109900D01*
X247640Y111170D01*
X260360D01*
X260791Y109900D01*
D02*
G37*
G36*
X86518Y-69236D02*
X87159Y-70195D01*
X93055Y-76091D01*
X94015Y-76732D01*
X95146Y-76957D01*
X117000D01*
X118132Y-76732D01*
X119091Y-76091D01*
X122089Y-73093D01*
X126115D01*
X126500Y-74363D01*
X125818Y-74818D01*
X124537Y-76737D01*
X124086Y-79000D01*
X124537Y-81263D01*
X125818Y-83182D01*
X126890Y-83898D01*
Y-91900D01*
X127127Y-93090D01*
X127801Y-94099D01*
X130619Y-96917D01*
X129780Y-98942D01*
X129430Y-101600D01*
X129780Y-104258D01*
X130806Y-106735D01*
X132438Y-108862D01*
X133791Y-109900D01*
X133360Y-111170D01*
X121856D01*
X121425Y-109900D01*
X122090Y-109390D01*
X123840Y-107108D01*
X124941Y-104451D01*
X125149Y-102870D01*
X114300D01*
X103451D01*
X103659Y-104451D01*
X104760Y-107108D01*
X106510Y-109390D01*
X107175Y-109900D01*
X106744Y-111170D01*
X95240D01*
X94809Y-109900D01*
X96162Y-108862D01*
X97794Y-106735D01*
X98820Y-104258D01*
X99170Y-101600D01*
X98820Y-98942D01*
X97794Y-96465D01*
X96162Y-94338D01*
X94035Y-92706D01*
X91558Y-91680D01*
X88900Y-91330D01*
X86242Y-91680D01*
X83765Y-92706D01*
X81638Y-94338D01*
X80006Y-96465D01*
X78980Y-98942D01*
X78630Y-101600D01*
X78980Y-104258D01*
X80006Y-106735D01*
X81638Y-108862D01*
X82991Y-109900D01*
X82560Y-111170D01*
X69840D01*
X69409Y-109900D01*
X70762Y-108862D01*
X72394Y-106735D01*
X73420Y-104258D01*
X73770Y-101600D01*
X73420Y-98942D01*
X72518Y-96764D01*
X83213Y-86069D01*
X83854Y-85110D01*
X84079Y-83978D01*
Y-68150D01*
X86302D01*
X86518Y-69236D01*
D02*
G37*
G36*
X456243Y92723D02*
Y84900D01*
X446013D01*
X444252Y86661D01*
X444540Y88106D01*
X444090Y90369D01*
X442808Y92288D01*
X440889Y93569D01*
X440070Y93732D01*
X439652Y95110D01*
X443915Y99373D01*
X449593D01*
X456243Y92723D01*
D02*
G37*
G36*
X336991Y109900D02*
X335638Y108862D01*
X334006Y106735D01*
X332980Y104258D01*
X332630Y101600D01*
X332980Y98942D01*
X334006Y96465D01*
X335638Y94338D01*
X337765Y92706D01*
X339893Y91825D01*
X339640Y90555D01*
X320760D01*
X320508Y91825D01*
X322635Y92706D01*
X324762Y94338D01*
X326394Y96465D01*
X327420Y98942D01*
X327770Y101600D01*
X327420Y104258D01*
X326394Y106735D01*
X324762Y108862D01*
X323409Y109900D01*
X323840Y111170D01*
X336560D01*
X336991Y109900D01*
D02*
G37*
G36*
X184591D02*
X183238Y108862D01*
X181606Y106735D01*
X180580Y104258D01*
X180230Y101600D01*
X180580Y98942D01*
X181606Y96465D01*
X183238Y94338D01*
X184858Y93095D01*
X184427Y91825D01*
X171173D01*
X170742Y93095D01*
X172362Y94338D01*
X173994Y96465D01*
X175020Y98942D01*
X175370Y101600D01*
X175020Y104258D01*
X173994Y106735D01*
X172362Y108862D01*
X171009Y109900D01*
X171440Y111170D01*
X184160D01*
X184591Y109900D01*
D02*
G37*
G36*
X133791D02*
X132438Y108862D01*
X130806Y106735D01*
X129904Y104557D01*
X94234D01*
X93103Y104332D01*
X92143Y103691D01*
X88281Y99828D01*
X86836Y100116D01*
X84573Y99665D01*
X82654Y98384D01*
X81372Y96465D01*
X80922Y94202D01*
X81318Y92211D01*
X80950Y90941D01*
X80950D01*
Y81670D01*
X87300D01*
Y80400D01*
X88570D01*
Y69859D01*
X98730D01*
Y80400D01*
Y90941D01*
X93044D01*
X92354Y92211D01*
X92750Y94202D01*
X92462Y95647D01*
X95459Y98643D01*
X129904D01*
X130806Y96465D01*
X132438Y94338D01*
X134565Y92706D01*
X135760Y92211D01*
X135507Y90941D01*
X133321D01*
Y80400D01*
X132051D01*
Y79130D01*
X125701D01*
Y73807D01*
X116328D01*
X116187Y74149D01*
X115139Y75515D01*
X113772Y76563D01*
X112182Y77222D01*
X111744Y77280D01*
Y70850D01*
X109204D01*
Y77280D01*
X108767Y77222D01*
X107531Y76710D01*
X106577Y77265D01*
X106350Y77530D01*
Y79130D01*
X101270D01*
Y69859D01*
X103990D01*
X104086Y69127D01*
X104745Y67536D01*
X105275Y66846D01*
X104648Y65576D01*
X97856D01*
X96725Y65351D01*
X95765Y64710D01*
X74331Y43276D01*
X73690Y42317D01*
X73465Y41185D01*
Y13684D01*
X73690Y12552D01*
X74331Y11593D01*
X76954Y8970D01*
X76536Y7592D01*
X76164Y7518D01*
X57223Y26458D01*
X57551Y27926D01*
X59714Y29586D01*
X61628Y32080D01*
X62831Y34983D01*
X63074Y36830D01*
X51200D01*
X39326D01*
X39569Y34983D01*
X40772Y32080D01*
X42685Y29586D01*
X45179Y27672D01*
X48083Y26469D01*
X49018Y26346D01*
X49109Y26209D01*
X73138Y2180D01*
Y520D01*
X80250D01*
Y-2020D01*
X73138D01*
Y-4625D01*
X73422Y-6055D01*
X74233Y-7267D01*
X75445Y-8077D01*
X76875Y-8362D01*
X78755D01*
X79394Y-9632D01*
X79098Y-10029D01*
X72211D01*
X69957Y-7775D01*
Y0D01*
X69732Y1132D01*
X69091Y2091D01*
X46091Y25091D01*
X45132Y25732D01*
X44000Y25957D01*
X28757D01*
Y27204D01*
X31447Y28319D01*
X33786Y30113D01*
X35581Y32453D01*
X36710Y35177D01*
X37094Y38100D01*
X36710Y41023D01*
X35581Y43747D01*
X33786Y46087D01*
X31447Y47881D01*
X28723Y49010D01*
X25800Y49395D01*
X22877Y49010D01*
X20152Y47881D01*
X17813Y46087D01*
X16018Y43747D01*
X14890Y41023D01*
X14505Y38100D01*
X14890Y35177D01*
X16018Y32453D01*
X17813Y30113D01*
X20152Y28319D01*
X22843Y27204D01*
Y17858D01*
X21125D01*
X20141Y17662D01*
X19783Y17772D01*
X18871Y18415D01*
Y22000D01*
X18653Y23099D01*
X18030Y24030D01*
X17099Y24653D01*
X16000Y24871D01*
X0D01*
X-1099Y24653D01*
X-2030Y24030D01*
X-2653Y23099D01*
X-2871Y22000D01*
Y19150D01*
X-5171D01*
Y27144D01*
X-4115Y27850D01*
X-2524Y27190D01*
X400Y26805D01*
X3323Y27190D01*
X6047Y28319D01*
X8386Y30113D01*
X10181Y32453D01*
X11310Y35177D01*
X11694Y38100D01*
X11310Y41023D01*
X10181Y43747D01*
X8386Y46087D01*
X6047Y47881D01*
X3323Y49010D01*
X400Y49395D01*
X-2524Y49010D01*
X-5247Y47881D01*
X-7587Y46087D01*
X-9382Y43747D01*
X-10510Y41023D01*
X-10895Y38100D01*
X-10510Y35177D01*
X-9395Y32486D01*
X-10219Y31663D01*
X-10860Y30704D01*
X-11085Y29572D01*
Y19150D01*
X-13103D01*
Y2850D01*
X-11085D01*
Y-2850D01*
X-13103D01*
Y-19150D01*
X-11085D01*
Y-29572D01*
X-10860Y-30704D01*
X-10219Y-31663D01*
X-9395Y-32486D01*
X-10510Y-35177D01*
X-10895Y-38100D01*
X-10510Y-41023D01*
X-9382Y-43747D01*
X-7587Y-46087D01*
X-5247Y-47881D01*
X-2524Y-49010D01*
X400Y-49395D01*
X3323Y-49010D01*
X6014Y-47895D01*
X10959Y-52840D01*
X11918Y-53481D01*
X13049Y-53706D01*
X76147D01*
Y-68150D01*
X78165D01*
Y-82753D01*
X68336Y-92582D01*
X66158Y-91680D01*
X63500Y-91330D01*
X60842Y-91680D01*
X58365Y-92706D01*
X56238Y-94338D01*
X54606Y-96465D01*
X53580Y-98942D01*
X53230Y-101600D01*
X53580Y-104258D01*
X54606Y-106735D01*
X56238Y-108862D01*
X57591Y-109900D01*
X57160Y-111170D01*
X44440D01*
X44009Y-109900D01*
X45362Y-108862D01*
X46994Y-106735D01*
X48020Y-104258D01*
X48370Y-101600D01*
X48020Y-98942D01*
X46994Y-96465D01*
X45362Y-94338D01*
X43235Y-92706D01*
X40758Y-91680D01*
X38100Y-91330D01*
X35442Y-91680D01*
X32965Y-92706D01*
X30838Y-94338D01*
X29206Y-96465D01*
X28180Y-98942D01*
X27830Y-101600D01*
X28180Y-104258D01*
X29206Y-106735D01*
X30838Y-108862D01*
X32191Y-109900D01*
X31760Y-111170D01*
X7162D01*
X6974Y-109900D01*
X8506Y-109435D01*
X12349Y-107381D01*
X15717Y-104617D01*
X18481Y-101249D01*
X20535Y-97406D01*
X21800Y-93236D01*
X22227Y-88900D01*
X21800Y-84564D01*
X20535Y-80394D01*
X18481Y-76551D01*
X15717Y-73183D01*
X12349Y-70419D01*
X8506Y-68365D01*
X4336Y-67100D01*
X0Y-66673D01*
X-4336Y-67100D01*
X-8506Y-68365D01*
X-12349Y-70419D01*
X-15717Y-73183D01*
X-18481Y-76551D01*
X-20535Y-80394D01*
X-20998Y-81919D01*
X-22268Y-81731D01*
Y-26599D01*
X-18187Y-22518D01*
X-18186Y-22518D01*
X-17756Y-21874D01*
X-17508Y-21503D01*
X-17508Y-21503D01*
X-17508Y-21503D01*
X-17433Y-21126D01*
X-17270Y-20305D01*
X-17270Y-20305D01*
Y20700D01*
X-17270Y20700D01*
X-17508Y21898D01*
X-18186Y22913D01*
X-22270Y26997D01*
Y81738D01*
X-21000Y81926D01*
X-20535Y80394D01*
X-18481Y76551D01*
X-15717Y73183D01*
X-12349Y70419D01*
X-8506Y68365D01*
X-4336Y67100D01*
X0Y66673D01*
X4336Y67100D01*
X8506Y68365D01*
X12349Y70419D01*
X15717Y73183D01*
X18481Y76551D01*
X20535Y80394D01*
X21800Y84564D01*
X22227Y88900D01*
X21800Y93236D01*
X20535Y97406D01*
X18481Y101249D01*
X15717Y104617D01*
X12349Y107381D01*
X8506Y109435D01*
X6974Y109900D01*
X7162Y111170D01*
X133360D01*
X133791Y109900D01*
D02*
G37*
G36*
X362391D02*
X361038Y108862D01*
X359406Y106735D01*
X358380Y104258D01*
X358030Y101600D01*
X358380Y98942D01*
X359406Y96465D01*
X361038Y94338D01*
X363165Y92706D01*
X365293Y91825D01*
X365040Y90555D01*
X346160D01*
X345908Y91825D01*
X348035Y92706D01*
X350162Y94338D01*
X351794Y96465D01*
X352820Y98942D01*
X353170Y101600D01*
X352820Y104258D01*
X351794Y106735D01*
X350162Y108862D01*
X348809Y109900D01*
X349240Y111170D01*
X361960D01*
X362391Y109900D01*
D02*
G37*
G36*
X413191D02*
X411838Y108862D01*
X410206Y106735D01*
X409180Y104258D01*
X408830Y101600D01*
X409180Y98942D01*
X410082Y96764D01*
X398539Y85221D01*
X383298D01*
X382772Y86491D01*
X388864Y92582D01*
X391042Y91680D01*
X393700Y91330D01*
X396358Y91680D01*
X398835Y92706D01*
X400962Y94338D01*
X402594Y96465D01*
X403620Y98942D01*
X403970Y101600D01*
X403620Y104258D01*
X402594Y106735D01*
X400962Y108862D01*
X399609Y109900D01*
X400040Y111170D01*
X412760D01*
X413191Y109900D01*
D02*
G37*
G36*
X158909Y-91091D02*
X159536Y-91509D01*
X159654Y-91840D01*
X159697Y-92576D01*
X159616Y-92974D01*
X157838Y-94338D01*
X156206Y-96465D01*
X155180Y-98942D01*
X154830Y-101600D01*
X155180Y-104258D01*
X156206Y-106735D01*
X157838Y-108862D01*
X159191Y-109900D01*
X158760Y-111170D01*
X146040D01*
X145609Y-109900D01*
X146962Y-108862D01*
X148594Y-106735D01*
X149620Y-104258D01*
X149970Y-101600D01*
X149620Y-98942D01*
X148594Y-96465D01*
X146962Y-94338D01*
X144835Y-92706D01*
X142358Y-91680D01*
X139700Y-91330D01*
X137042Y-91680D01*
X135017Y-92519D01*
X133110Y-90612D01*
Y-83898D01*
X134182Y-83182D01*
X135463Y-81263D01*
X135914Y-79000D01*
X135463Y-76737D01*
X134182Y-74818D01*
X133500Y-74363D01*
X133885Y-73093D01*
X140911D01*
X158909Y-91091D01*
D02*
G37*
G36*
X159191Y109900D02*
X157838Y108862D01*
X156206Y106735D01*
X155180Y104258D01*
X154830Y101600D01*
X155180Y98942D01*
X156206Y96465D01*
X157838Y94338D01*
X159965Y92706D01*
X162442Y91680D01*
X163088Y91595D01*
X163543Y90254D01*
X155865Y82577D01*
X155224Y81617D01*
X154999Y80486D01*
Y65838D01*
X154737Y65576D01*
X116271D01*
X115645Y66846D01*
X116187Y67552D01*
X116328Y67893D01*
X132051D01*
X133182Y68119D01*
X134141Y68759D01*
X134782Y69719D01*
X134810Y69859D01*
X143481D01*
Y80400D01*
X144750D01*
Y81670D01*
X151101D01*
Y90941D01*
X143893D01*
X143640Y92211D01*
X144835Y92706D01*
X146962Y94338D01*
X148594Y96465D01*
X149620Y98942D01*
X149970Y101600D01*
X149620Y104258D01*
X148594Y106735D01*
X146962Y108862D01*
X145609Y109900D01*
X146040Y111170D01*
X158760D01*
X159191Y109900D01*
D02*
G37*
G36*
X304071Y-70731D02*
X306334Y-71182D01*
X308597Y-70731D01*
X309031Y-70441D01*
X309947Y-71357D01*
X309750Y-71651D01*
X309300Y-73914D01*
X309750Y-76177D01*
X311032Y-78096D01*
X312951Y-79377D01*
X315214Y-79828D01*
X316659Y-79540D01*
X333882Y-96764D01*
X332980Y-98942D01*
X332630Y-101600D01*
X332980Y-104258D01*
X334006Y-106735D01*
X335638Y-108862D01*
X336991Y-109900D01*
X336560Y-111170D01*
X323840D01*
X323409Y-109900D01*
X324762Y-108862D01*
X326394Y-106735D01*
X327420Y-104258D01*
X327770Y-101600D01*
X327420Y-98942D01*
X326394Y-96465D01*
X324762Y-94338D01*
X322635Y-92706D01*
X320158Y-91680D01*
X317500Y-91330D01*
X314842Y-91680D01*
X312664Y-92582D01*
X302391Y-82309D01*
Y-70956D01*
X303511Y-70357D01*
X304071Y-70731D01*
D02*
G37*
G36*
X296477Y-40581D02*
Y-83534D01*
X296702Y-84665D01*
X297343Y-85625D01*
X308482Y-96764D01*
X307580Y-98942D01*
X307230Y-101600D01*
X307580Y-104258D01*
X308606Y-106735D01*
X310238Y-108862D01*
X311591Y-109900D01*
X311160Y-111170D01*
X298440D01*
X298009Y-109900D01*
X299362Y-108862D01*
X300994Y-106735D01*
X302020Y-104258D01*
X302370Y-101600D01*
X302020Y-98942D01*
X300994Y-96465D01*
X299362Y-94338D01*
X297235Y-92706D01*
X295057Y-91804D01*
Y-41210D01*
X296327Y-40491D01*
X296477Y-40581D01*
D02*
G37*
G36*
X311591Y109900D02*
X310238Y108862D01*
X308606Y106735D01*
X307580Y104258D01*
X307230Y101600D01*
X307580Y98942D01*
X308606Y96465D01*
X310238Y94338D01*
X312365Y92706D01*
X314492Y91825D01*
X314240Y90555D01*
X313541D01*
X312409Y90330D01*
X311450Y89689D01*
X301210Y79448D01*
X300245Y79537D01*
X299651Y80720D01*
X299849Y81017D01*
X300300Y83280D01*
X299849Y85543D01*
X298568Y87462D01*
X296649Y88743D01*
X294386Y89194D01*
X292941Y88906D01*
X291597Y90250D01*
X292289Y91355D01*
X294758Y91680D01*
X297235Y92706D01*
X299362Y94338D01*
X300994Y96465D01*
X302020Y98942D01*
X302370Y101600D01*
X302020Y104258D01*
X300994Y106735D01*
X299362Y108862D01*
X298009Y109900D01*
X298440Y111170D01*
X311160D01*
X311591Y109900D01*
D02*
G37*
G36*
X340311Y-84673D02*
X341271Y-85314D01*
X342402Y-85539D01*
X398857D01*
X410082Y-96764D01*
X409180Y-98942D01*
X408830Y-101600D01*
X409180Y-104258D01*
X410206Y-106735D01*
X411838Y-108862D01*
X413191Y-109900D01*
X412760Y-111170D01*
X400040D01*
X399609Y-109900D01*
X400962Y-108862D01*
X402594Y-106735D01*
X403620Y-104258D01*
X403970Y-101600D01*
X403620Y-98942D01*
X402594Y-96465D01*
X400962Y-94338D01*
X398835Y-92706D01*
X396358Y-91680D01*
X393700Y-91330D01*
X391042Y-91680D01*
X388565Y-92706D01*
X386438Y-94338D01*
X384806Y-96465D01*
X383780Y-98942D01*
X383430Y-101600D01*
X383780Y-104258D01*
X384806Y-106735D01*
X386438Y-108862D01*
X387791Y-109900D01*
X387360Y-111170D01*
X374640D01*
X374209Y-109900D01*
X375562Y-108862D01*
X377194Y-106735D01*
X378220Y-104258D01*
X378570Y-101600D01*
X378220Y-98942D01*
X377194Y-96465D01*
X375562Y-94338D01*
X373435Y-92706D01*
X370958Y-91680D01*
X368300Y-91330D01*
X365642Y-91680D01*
X363165Y-92706D01*
X361038Y-94338D01*
X359406Y-96465D01*
X358380Y-98942D01*
X358030Y-101600D01*
X358380Y-104258D01*
X359406Y-106735D01*
X361038Y-108862D01*
X362391Y-109900D01*
X361960Y-111170D01*
X349240D01*
X348809Y-109900D01*
X350162Y-108862D01*
X351794Y-106735D01*
X352820Y-104258D01*
X353170Y-101600D01*
X352820Y-98942D01*
X351794Y-96465D01*
X350162Y-94338D01*
X348035Y-92706D01*
X345558Y-91680D01*
X342900Y-91330D01*
X340242Y-91680D01*
X338064Y-92582D01*
X320840Y-75359D01*
X321128Y-73914D01*
X320677Y-71651D01*
X319396Y-69732D01*
X319040Y-69495D01*
X319425Y-68225D01*
X323863D01*
X340311Y-84673D01*
D02*
G37*
%LPC*%
G36*
X31429Y-72270D02*
X26270D01*
Y-77429D01*
X26707Y-77372D01*
X28298Y-76713D01*
X29664Y-75664D01*
X30713Y-74298D01*
X31372Y-72707D01*
X31429Y-72270D01*
D02*
G37*
G36*
X23730D02*
X18571D01*
X18628Y-72707D01*
X19287Y-74298D01*
X20336Y-75664D01*
X21702Y-76713D01*
X23293Y-77372D01*
X23730Y-77429D01*
Y-72270D01*
D02*
G37*
G36*
X113030Y-90751D02*
X111449Y-90959D01*
X108792Y-92060D01*
X106510Y-93810D01*
X104760Y-96092D01*
X103659Y-98749D01*
X103451Y-100330D01*
X113030D01*
Y-90751D01*
D02*
G37*
G36*
X26270Y-64571D02*
Y-69730D01*
X31429D01*
X31372Y-69293D01*
X30713Y-67702D01*
X29664Y-66336D01*
X28298Y-65287D01*
X26707Y-64628D01*
X26270Y-64571D01*
D02*
G37*
G36*
X115570Y-90751D02*
Y-100330D01*
X125149D01*
X124941Y-98749D01*
X123840Y-96092D01*
X122090Y-93810D01*
X119808Y-92060D01*
X117151Y-90959D01*
X115570Y-90751D01*
D02*
G37*
G36*
X229270Y-65571D02*
Y-70730D01*
X234429D01*
X234372Y-70293D01*
X233713Y-68702D01*
X232664Y-67336D01*
X231298Y-66287D01*
X229707Y-65628D01*
X229270Y-65571D01*
D02*
G37*
G36*
X23730Y-64571D02*
X23293Y-64628D01*
X21702Y-65287D01*
X20336Y-66336D01*
X19287Y-67702D01*
X18628Y-69293D01*
X18571Y-69730D01*
X23730D01*
Y-64571D01*
D02*
G37*
G36*
X53270Y-78571D02*
Y-83730D01*
X58429D01*
X58372Y-83293D01*
X57713Y-81702D01*
X56664Y-80336D01*
X55298Y-79287D01*
X53707Y-78628D01*
X53270Y-78571D01*
D02*
G37*
G36*
X50730D02*
X50293Y-78628D01*
X48702Y-79287D01*
X47336Y-80336D01*
X46287Y-81702D01*
X45628Y-83293D01*
X45571Y-83730D01*
X50730D01*
Y-78571D01*
D02*
G37*
G36*
X58429Y-86270D02*
X53270D01*
Y-91429D01*
X53707Y-91372D01*
X55298Y-90713D01*
X56664Y-89664D01*
X57713Y-88298D01*
X58372Y-86707D01*
X58429Y-86270D01*
D02*
G37*
G36*
X50730D02*
X45571D01*
X45628Y-86707D01*
X46287Y-88298D01*
X47336Y-89664D01*
X48702Y-90713D01*
X50293Y-91372D01*
X50730Y-91429D01*
Y-86270D01*
D02*
G37*
G36*
X176396Y-64370D02*
X164270D01*
Y-68749D01*
X164851D01*
X172388Y-76286D01*
Y-77730D01*
X178230D01*
Y-71388D01*
X176286D01*
X173902Y-69004D01*
X174027Y-67741D01*
X174994Y-67094D01*
X176218Y-65262D01*
X176396Y-64370D01*
D02*
G37*
G36*
X234429Y-73270D02*
X229270D01*
Y-78429D01*
X229707Y-78372D01*
X231298Y-77713D01*
X232664Y-76664D01*
X233713Y-75298D01*
X234372Y-73707D01*
X234429Y-73270D01*
D02*
G37*
G36*
X226730D02*
X221571D01*
X221628Y-73707D01*
X222287Y-75298D01*
X223336Y-76664D01*
X224702Y-77713D01*
X226293Y-78372D01*
X226730Y-78429D01*
Y-73270D01*
D02*
G37*
G36*
X161730Y-64370D02*
X149604D01*
X149781Y-65262D01*
X151006Y-67094D01*
X152838Y-68319D01*
X155000Y-68749D01*
X161730D01*
Y-64370D01*
D02*
G37*
G36*
X52730Y66730D02*
X47571D01*
X47628Y66293D01*
X48287Y64702D01*
X49336Y63336D01*
X50702Y62287D01*
X52293Y61628D01*
X52730Y61571D01*
Y66730D01*
D02*
G37*
G36*
X60429D02*
X55270D01*
Y61571D01*
X55707Y61628D01*
X57298Y62287D01*
X58664Y63336D01*
X59713Y64702D01*
X60372Y66293D01*
X60429Y66730D01*
D02*
G37*
G36*
X49930Y49974D02*
X48083Y49731D01*
X45179Y48528D01*
X42685Y46614D01*
X40772Y44120D01*
X39569Y41217D01*
X39326Y39370D01*
X49930D01*
Y49974D01*
D02*
G37*
G36*
X86030Y79130D02*
X80950D01*
Y72032D01*
X57348Y48430D01*
X57220Y48528D01*
X54316Y49731D01*
X52470Y49974D01*
Y39370D01*
X63074D01*
X62831Y41217D01*
X61628Y44120D01*
X61530Y44248D01*
X86030Y68749D01*
Y79130D01*
D02*
G37*
G36*
X52730Y74429D02*
X52293Y74372D01*
X50702Y73713D01*
X49336Y72664D01*
X48287Y71298D01*
X47628Y69707D01*
X47571Y69270D01*
X52730D01*
Y74429D01*
D02*
G37*
G36*
X130780Y90941D02*
X125701D01*
Y81670D01*
X130780D01*
Y90941D01*
D02*
G37*
G36*
X106350D02*
X101270D01*
Y81670D01*
X106350D01*
Y90941D01*
D02*
G37*
G36*
X55270Y74429D02*
Y69270D01*
X60429D01*
X60372Y69707D01*
X59713Y71298D01*
X58664Y72664D01*
X57298Y73713D01*
X55707Y74372D01*
X55270Y74429D01*
D02*
G37*
G36*
X151101Y79130D02*
X146020D01*
Y69859D01*
X151101D01*
Y79130D01*
D02*
G37*
G36*
X400450Y22968D02*
X397792Y22618D01*
X395316Y21592D01*
X393189Y19960D01*
X391558Y17834D01*
X390532Y15358D01*
X390182Y12700D01*
X390532Y10043D01*
X391558Y7566D01*
X393189Y5440D01*
X395316Y3808D01*
X397792Y2782D01*
X400450Y2432D01*
X403107Y2782D01*
X405584Y3808D01*
X407710Y5440D01*
X409342Y7566D01*
X410368Y10043D01*
X410718Y12700D01*
X410368Y15358D01*
X409342Y17834D01*
X407710Y19960D01*
X405584Y21592D01*
X403107Y22618D01*
X400450Y22968D01*
D02*
G37*
G36*
X184730Y-54684D02*
X179571D01*
X179628Y-55121D01*
X180287Y-56712D01*
X181336Y-58078D01*
X182702Y-59127D01*
X184293Y-59786D01*
X184730Y-59843D01*
Y-54684D01*
D02*
G37*
G36*
X192429D02*
X187270D01*
Y-59843D01*
X187707Y-59786D01*
X189298Y-59127D01*
X190664Y-58078D01*
X191713Y-56712D01*
X192372Y-55121D01*
X192429Y-54684D01*
D02*
G37*
G36*
X161730Y-57452D02*
X155000D01*
X152838Y-57882D01*
X151006Y-59106D01*
X149781Y-60939D01*
X149604Y-61830D01*
X161730D01*
Y-57452D01*
D02*
G37*
G36*
X171000D02*
X164270D01*
Y-61830D01*
X176396D01*
X176218Y-60939D01*
X174994Y-59106D01*
X173162Y-57882D01*
X171000Y-57452D01*
D02*
G37*
G36*
X187270Y-46985D02*
Y-52144D01*
X192429D01*
X192372Y-51707D01*
X191713Y-50116D01*
X190664Y-48750D01*
X189298Y-47702D01*
X187707Y-47042D01*
X187270Y-46985D01*
D02*
G37*
G36*
X400450Y-27832D02*
X397792Y-28182D01*
X395316Y-29208D01*
X393189Y-30840D01*
X391558Y-32966D01*
X390532Y-35443D01*
X390182Y-38100D01*
X390532Y-40757D01*
X391558Y-43234D01*
X393189Y-45360D01*
X395316Y-46992D01*
X397792Y-48018D01*
X400450Y-48368D01*
X403107Y-48018D01*
X405584Y-46992D01*
X407710Y-45360D01*
X409342Y-43234D01*
X410368Y-40757D01*
X410718Y-38100D01*
X410368Y-35443D01*
X409342Y-32966D01*
X407710Y-30840D01*
X405584Y-29208D01*
X403107Y-28182D01*
X400450Y-27832D01*
D02*
G37*
G36*
Y-2432D02*
X397792Y-2782D01*
X395316Y-3808D01*
X393189Y-5440D01*
X391558Y-7566D01*
X390532Y-10043D01*
X390182Y-12700D01*
X390532Y-15358D01*
X391558Y-17834D01*
X393189Y-19960D01*
X395316Y-21592D01*
X397792Y-22618D01*
X400450Y-22968D01*
X403107Y-22618D01*
X405584Y-21592D01*
X407710Y-19960D01*
X409342Y-17834D01*
X410368Y-15358D01*
X410718Y-12700D01*
X410368Y-10043D01*
X409342Y-7566D01*
X407710Y-5440D01*
X405584Y-3808D01*
X403107Y-2782D01*
X400450Y-2432D01*
D02*
G37*
G36*
X349650Y-27832D02*
X346992Y-28182D01*
X344516Y-29208D01*
X342389Y-30840D01*
X340758Y-32966D01*
X339732Y-35443D01*
X339382Y-38100D01*
X339732Y-40757D01*
X340758Y-43234D01*
X342389Y-45360D01*
X344516Y-46992D01*
X346992Y-48018D01*
X349650Y-48368D01*
X352307Y-48018D01*
X354784Y-46992D01*
X356910Y-45360D01*
X358542Y-43234D01*
X359568Y-40757D01*
X359918Y-38100D01*
X359568Y-35443D01*
X358542Y-32966D01*
X356910Y-30840D01*
X354784Y-29208D01*
X352307Y-28182D01*
X349650Y-27832D01*
D02*
G37*
G36*
X375050D02*
X372392Y-28182D01*
X369916Y-29208D01*
X367789Y-30840D01*
X366158Y-32966D01*
X365132Y-35443D01*
X364782Y-38100D01*
X365132Y-40757D01*
X366158Y-43234D01*
X367789Y-45360D01*
X369916Y-46992D01*
X372392Y-48018D01*
X375050Y-48368D01*
X377707Y-48018D01*
X380184Y-46992D01*
X382310Y-45360D01*
X383942Y-43234D01*
X384968Y-40757D01*
X385318Y-38100D01*
X384968Y-35443D01*
X383942Y-32966D01*
X382310Y-30840D01*
X380184Y-29208D01*
X377707Y-28182D01*
X375050Y-27832D01*
D02*
G37*
%LPD*%
D10*
X456720Y-54370D02*
D03*
X251720D02*
D03*
Y18370D02*
D03*
X456720D02*
D03*
D11*
X262000Y73100D02*
D03*
X444500D02*
D03*
D12*
X100000Y80400D02*
D03*
X87300D02*
D03*
Y29600D02*
D03*
X100000D02*
D03*
X144750Y80400D02*
D03*
X132051D02*
D03*
Y29600D02*
D03*
X144750D02*
D03*
D13*
X179500Y-79000D02*
D03*
X196500D02*
D03*
X24500Y-11000D02*
D03*
X41500D02*
D03*
Y11000D02*
D03*
X24500D02*
D03*
X80250Y-750D02*
D03*
X97250D02*
D03*
D14*
X8128Y-11000D02*
D03*
X0D02*
D03*
X-8128D02*
D03*
Y11000D02*
D03*
X0D02*
D03*
X8128D02*
D03*
X97378Y-60000D02*
D03*
X89250D02*
D03*
X81122D02*
D03*
Y-41000D02*
D03*
X89250D02*
D03*
X97378D02*
D03*
X97330Y-22250D02*
D03*
X87170D02*
D03*
D15*
X163000Y13100D02*
D03*
Y400D02*
D03*
Y-12300D02*
D03*
Y-25000D02*
D03*
Y-37700D02*
D03*
Y-50400D02*
D03*
Y-63100D02*
D03*
X211000Y13100D02*
D03*
Y400D02*
D03*
Y-12300D02*
D03*
Y-25000D02*
D03*
Y-37700D02*
D03*
Y-50400D02*
D03*
Y-63100D02*
D03*
D16*
X299434Y-83534D02*
Y-27210D01*
X183000Y-89000D02*
X186500D01*
X161000D02*
X183000D01*
Y-94100D02*
X190500Y-101600D01*
X183000Y-94100D02*
Y-89000D01*
X117062Y24098D02*
X119094Y22066D01*
X181000Y27000D02*
X190000Y36000D01*
X176000Y27000D02*
X181000D01*
X190000Y36000D02*
X201000D01*
X212000Y25000D01*
X200400Y50600D02*
X212000Y39000D01*
X234072D02*
X238647Y43575D01*
X212000Y39000D02*
X234072D01*
X228784Y51784D02*
X275050D01*
X164000Y27960D02*
Y30000D01*
Y27960D02*
X164052Y27908D01*
X198600Y50600D02*
X200400D01*
X212000Y25000D02*
X215443D01*
X236320Y4123D01*
Y-2831D02*
Y4123D01*
Y-2831D02*
X238019Y-4530D01*
X265421D01*
X294951Y25000D01*
X323999D01*
X326000Y-12000D02*
Y-10000D01*
X335000Y-1000D01*
X387000D01*
X174944Y-4000D02*
X185800D01*
X173444Y-5500D02*
X174944Y-4000D01*
X152556Y-5500D02*
X173444D01*
X151056Y-4000D02*
X152556Y-5500D01*
X125463Y-4000D02*
X151056D01*
X185800D02*
X200120Y-18320D01*
X107779Y13684D02*
X125463Y-4000D01*
X176248Y-19100D02*
X194848Y-37700D01*
X152556Y-19100D02*
X176248D01*
X151656Y-20000D02*
X152556Y-19100D01*
X134156Y-20000D02*
X151656D01*
X104898Y9257D02*
X134156Y-20000D01*
X138300Y-12300D02*
X163000D01*
X97378Y-66326D02*
Y-60000D01*
X186500Y-89000D02*
X196500Y-79000D01*
X142136Y-70136D02*
X161000Y-89000D01*
X120864Y-70136D02*
X142136D01*
X163000Y-63100D02*
X163600D01*
X117000Y-74000D02*
X120864Y-70136D01*
X95146Y-74000D02*
X117000D01*
X89250Y-68104D02*
X95146Y-74000D01*
X89250Y-44916D02*
X91303Y-46969D01*
Y-48551D02*
Y-46969D01*
Y-48551D02*
X93378Y-50626D01*
X103577D01*
X107689Y-46514D01*
X109950D01*
X89250Y-60000D02*
Y-54502D01*
X85498Y-50750D02*
X89250Y-54502D01*
X13049Y-50750D02*
X85498D01*
X67000Y-9000D02*
Y0D01*
X70986Y-13000D02*
X111717D01*
X70986Y-12986D02*
X80994D01*
X67000Y-9000D02*
X70986Y-12986D01*
X25800Y23000D02*
Y38100D01*
Y11000D02*
Y23000D01*
X44000D02*
X67000Y0D01*
X25800Y23000D02*
X44000D01*
X51200Y28300D02*
X80250Y-750D01*
X51200Y28300D02*
Y38100D01*
X117062Y24098D02*
X119094Y22066D01*
X299434Y-27210D02*
X333978Y7334D01*
X299434Y-27210D02*
Y-20606D01*
Y-34322D02*
Y-27210D01*
Y-83534D02*
Y-34322D01*
Y-83534D02*
X317500Y-101600D01*
X38214Y-25686D02*
X41500Y-22400D01*
X97378Y-35592D02*
X115538D01*
X8128Y-11000D02*
Y11000D01*
X75914Y-40926D02*
X81122D01*
X97330Y-22384D02*
X107664D01*
X251720Y-59976D02*
X278098D01*
X194848Y-37700D02*
X211000D01*
X93044Y9257D02*
X104898D01*
X87068Y15233D02*
X93044Y9257D01*
X80486Y18391D02*
X87068Y15233D01*
X80486Y18391D02*
Y39592D01*
X85058Y44164D01*
X112194D01*
X116046Y40312D01*
X125994D01*
X129846Y44164D01*
X140178D01*
X144750Y39592D01*
Y29600D02*
Y39592D01*
X128060Y13100D02*
X163000D01*
X119094Y22066D02*
X128060Y13100D01*
X119094Y47212D02*
X123158Y51276D01*
X150276D01*
X175000Y76000D01*
X129374Y-25000D02*
X163000D01*
X105124Y-750D02*
X129374Y-25000D01*
X97250Y-750D02*
X105124D01*
X266700Y101600D02*
X276066D01*
X294386Y83280D01*
X315214Y-73914D02*
X342900Y-101600D01*
X238647Y43575D02*
X278779D01*
X282924Y47720D01*
Y68040D01*
X287222Y72338D01*
X306280D01*
X316207Y82264D01*
X399764D01*
X419100Y101600D01*
X97378Y-41000D02*
Y-35592D01*
X115538D02*
X142208Y-62262D01*
X306334Y-65268D02*
X325088D01*
X342402Y-82582D01*
X400082D01*
X419100Y-101600D01*
X132051Y70850D02*
Y80400D01*
X110474Y70850D02*
X132051D01*
X100000Y77438D02*
Y80400D01*
Y77438D02*
X110458Y70834D01*
X400Y-38100D02*
X13049Y-50750D01*
X81122Y-41000D02*
Y-40926D01*
X97330Y-22384D02*
Y-22250D01*
X456720Y43148D02*
X459200Y45627D01*
Y93948D01*
X450818Y102330D02*
X459200Y93948D01*
X442690Y102330D02*
X450818D01*
X417798Y77438D02*
X442690Y102330D01*
X319381Y77438D02*
X417798D01*
X304395Y62452D02*
X319381Y77438D01*
X289913Y62452D02*
X304395D01*
X307308Y-51086D02*
X316960D01*
X340836Y-74962D01*
X412718D01*
X415004Y-72676D01*
X175000Y50600D02*
X184058Y59658D01*
X189452D01*
X194786Y64992D01*
X237224D01*
X245332Y73100D01*
X111717Y-13000D02*
X130499Y-31782D01*
X174466D01*
X177260Y-34576D01*
Y-47784D02*
Y-34576D01*
X174644Y-50400D02*
X177260Y-47784D01*
X163000Y-50400D02*
X174644D01*
X87300Y23082D02*
Y29600D01*
Y23082D02*
X96698Y13684D01*
X107779D01*
X200120Y-18320D02*
X221964D01*
X225012Y-21368D01*
Y-47784D02*
Y-21368D01*
X222396Y-50400D02*
X225012Y-47784D01*
X211000Y-50400D02*
X222396D01*
X203168Y88868D02*
X215900Y101600D01*
X166338Y88868D02*
X203168D01*
X157956Y80486D02*
X166338Y88868D01*
X157956Y64613D02*
Y80486D01*
X155962Y62619D02*
X157956Y64613D01*
X97856Y62619D02*
X155962D01*
X76422Y41185D02*
X97856Y62619D01*
X76422Y13684D02*
Y41185D01*
Y13684D02*
X80994Y9112D01*
X86074D01*
X88106Y7080D01*
Y-5874D02*
Y7080D01*
X80994Y-12986D02*
X88106Y-5874D01*
X25800Y-38100D02*
X38214Y-25686D01*
X75152D01*
X80994Y-31528D01*
X120414D01*
X126586Y-37700D01*
X163000D01*
X292322Y-13494D02*
X299434Y-20606D01*
X239490Y-13494D02*
X292322D01*
X235426Y-17558D02*
X239490Y-13494D01*
X235426Y-52356D02*
Y-17558D01*
X231362Y-56420D02*
X235426Y-52356D01*
X199612Y-56420D02*
X231362D01*
X197072Y-53880D02*
X199612Y-56420D01*
X197072Y-53880D02*
Y-46082D01*
X175990Y-25000D02*
X197072Y-46082D01*
X163000Y-25000D02*
X175990D01*
X379698Y87598D02*
X393700Y101600D01*
X313541Y87598D02*
X379698D01*
X302280Y76338D02*
X313541Y87598D01*
X289617Y76338D02*
X302280D01*
X278357Y87598D02*
X289617Y76338D01*
X211998Y87598D02*
X278357D01*
X200400Y76000D02*
X211998Y87598D01*
X292100Y-101600D02*
Y-23876D01*
X163000Y400D02*
X181502D01*
X184880Y3778D01*
X164052Y27908D02*
Y56864D01*
X172288Y65100D01*
X185896D01*
X190868Y70072D01*
X194472D01*
X200400Y76000D01*
X198968Y400D02*
X211000D01*
X188690Y10678D02*
X198968Y400D01*
X177980Y10678D02*
X188690D01*
X174128Y6826D02*
X177980Y10678D01*
X123878Y6826D02*
X174128D01*
X112358Y18345D02*
X123878Y6826D01*
X102959Y18345D02*
X112358D01*
X100000Y21304D02*
X102959Y18345D01*
X100000Y21304D02*
Y29600D01*
X211000Y-12300D02*
X225012D01*
Y3016D01*
X220948Y7080D02*
X225012Y3016D01*
X199508Y7080D02*
X220948D01*
X187570Y19018D02*
X199508Y7080D01*
X152368Y19018D02*
X187570D01*
X151860Y18510D02*
X152368Y19018D01*
X135606Y18510D02*
X151860D01*
X132051Y22066D02*
X135606Y18510D01*
X132051Y22066D02*
Y29600D01*
X195878Y-25000D02*
X211000D01*
X186658Y-15780D02*
X195878Y-25000D01*
X94234Y101600D02*
X139700D01*
X86836Y94202D02*
X94234Y101600D01*
X251720Y-59976D02*
Y-54370D01*
X89250Y-68104D02*
Y-60000D01*
X87300Y74201D02*
Y80400D01*
X51200Y38100D02*
X87300Y74201D01*
X444500Y60706D02*
Y73100D01*
X434562Y50768D02*
X444500Y60706D01*
X345154Y50768D02*
X434562D01*
X333978Y39592D02*
X345154Y50768D01*
X333978Y7334D02*
Y39592D01*
X245332Y73100D02*
X262000D01*
X456720Y-81820D02*
Y-54370D01*
Y18370D02*
Y43148D01*
X438626Y88106D02*
X444500Y82232D01*
Y73100D02*
Y82232D01*
X24500Y11000D02*
X25800D01*
X41500Y-22400D02*
Y-11000D01*
X81122Y-83978D02*
Y-60000D01*
X63500Y-101600D02*
X81122Y-83978D01*
X-8128Y11000D02*
Y29572D01*
X400Y38100D01*
X-8128Y-29572D02*
Y-11000D01*
Y-29572D02*
X400Y-38100D01*
X210865Y13100D02*
X211000D01*
X132051Y80400D02*
X144750D01*
X-8128Y-11000D02*
Y11000D01*
X21004Y-11000D02*
X24500D01*
X11652Y-20352D02*
X21004Y-11000D01*
D17*
X163600Y-63100D02*
X179500Y-79000D01*
X130000Y-91900D02*
X139700Y-101600D01*
X130000Y-91900D02*
Y-79000D01*
X196500Y-79000D02*
Y-65450D01*
X198850Y-63100D01*
X211000D01*
D18*
X0Y22000D02*
X16000D01*
X11466Y-20166D02*
X11652Y-20352D01*
X166Y-20166D02*
X11466D01*
X0Y-20000D02*
X166Y-20166D01*
X0Y-20000D02*
Y-11000D01*
X31500Y1000D02*
X41500Y11000D01*
X19000Y1000D02*
X31500D01*
X16000Y4000D02*
X19000Y1000D01*
X16000Y4000D02*
Y22000D01*
X0Y11000D02*
Y22000D01*
Y-11000D02*
X6350D01*
X0Y11000D02*
X6350D01*
X89250Y-60000D02*
X95600D01*
X89250Y-41000D02*
X95600D01*
X88440Y-22250D02*
X96060D01*
D19*
X400450Y63500D02*
D03*
Y38100D02*
D03*
Y12700D02*
D03*
Y-12700D02*
D03*
Y-38100D02*
D03*
X349650Y63500D02*
D03*
Y38100D02*
D03*
Y12700D02*
D03*
Y-12700D02*
D03*
Y-38100D02*
D03*
X375050D02*
D03*
Y-12700D02*
D03*
Y12700D02*
D03*
Y38100D02*
D03*
Y63500D02*
D03*
Y-63500D02*
D03*
X349650D02*
D03*
X400450D02*
D03*
D20*
X0Y88900D02*
D03*
Y-88900D02*
D03*
D21*
X38100Y-101600D02*
D03*
X63500D02*
D03*
X88900D02*
D03*
X114300D02*
D03*
X139700D02*
D03*
X165100D02*
D03*
X190500D02*
D03*
X215900D02*
D03*
X241300D02*
D03*
X266700D02*
D03*
X292100D02*
D03*
X317500D02*
D03*
X342900D02*
D03*
X368300D02*
D03*
X393700D02*
D03*
X419100D02*
D03*
Y101600D02*
D03*
X393700D02*
D03*
X368300D02*
D03*
X342900D02*
D03*
X317500D02*
D03*
X292100D02*
D03*
X266700D02*
D03*
X241300D02*
D03*
X215900D02*
D03*
X190500D02*
D03*
X165100D02*
D03*
X139700D02*
D03*
D22*
X400Y-38100D02*
D03*
X25800D02*
D03*
X51200D02*
D03*
X400Y38100D02*
D03*
X25800D02*
D03*
X51200D02*
D03*
D23*
X225800Y50600D02*
D03*
X200400D02*
D03*
Y76000D02*
D03*
X175000Y50600D02*
D03*
Y76000D02*
D03*
X225800D02*
D03*
D24*
X326000Y-12000D02*
D03*
X323999Y25000D02*
D03*
X117062Y24098D02*
D03*
X205000Y18000D02*
D03*
X176000Y27000D02*
D03*
X164000Y30000D02*
D03*
X387000Y-1000D02*
D03*
X138300Y-12300D02*
D03*
X54000Y68000D02*
D03*
X25000Y-71000D02*
D03*
X97378Y-66326D02*
D03*
X52000Y-85000D02*
D03*
X186000Y-53414D02*
D03*
X130000Y-79000D02*
D03*
X84000Y-22000D02*
D03*
X228000Y-72000D02*
D03*
X8128Y0D02*
D03*
X109950Y-46514D02*
D03*
X119094Y47212D02*
D03*
X294386Y83280D02*
D03*
X299434Y-34322D02*
D03*
X315214Y-73914D02*
D03*
X142208Y-62262D02*
D03*
X306334Y-65268D02*
D03*
X110474Y70850D02*
D03*
X110458Y70834D02*
D03*
X275050Y51784D02*
D03*
X75914Y-40926D02*
D03*
X107664Y-22384D02*
D03*
X289913Y62452D02*
D03*
X307308Y-51086D02*
D03*
X415004Y-72676D02*
D03*
X292100Y-23876D02*
D03*
X184880Y3778D02*
D03*
X186658Y-15780D02*
D03*
X86836Y94202D02*
D03*
X278098Y-59976D02*
D03*
X245332Y73100D02*
D03*
X456720Y-81820D02*
D03*
Y43148D02*
D03*
X438626Y88106D02*
D03*
X449220Y-69370D02*
D03*
Y-39370D02*
D03*
X259220Y-69370D02*
D03*
Y-39370D02*
D03*
Y33370D02*
D03*
Y3370D02*
D03*
X449220Y33370D02*
D03*
Y3370D02*
D03*
M02*
