G04 Layer_Physical_Order=2*
G04 Layer_Color=16711680*
%FSLAX44Y44*%
%MOMM*%
G71*
G01*
G75*
%ADD15C,1.0000*%
%ADD16C,0.2500*%
%ADD17O,3.0000X1.6000*%
%ADD18C,1.6760*%
%ADD19C,1.6764*%
%ADD20C,3.2004*%
%ADD21C,4.3180*%
%ADD22C,2.0000*%
G04:AMPARAMS|DCode=23|XSize=2mm|YSize=2mm|CornerRadius=0.25mm|HoleSize=0mm|Usage=FLASHONLY|Rotation=0.000|XOffset=0mm|YOffset=0mm|HoleType=Round|Shape=RoundedRectangle|*
%AMROUNDEDRECTD23*
21,1,2.0000,1.5000,0,0,0.0*
21,1,1.5000,2.0000,0,0,0.0*
1,1,0.5000,0.7500,-0.7500*
1,1,0.5000,-0.7500,-0.7500*
1,1,0.5000,-0.7500,0.7500*
1,1,0.5000,0.7500,0.7500*
%
%ADD23ROUNDEDRECTD23*%
%ADD24R,1.8796X1.8796*%
%ADD25C,1.8796*%
%ADD26C,0.8000*%
G36*
X234797Y109696D02*
X233895Y109004D01*
X232231Y106836D01*
X231185Y104310D01*
X230828Y101600D01*
X231185Y98890D01*
X232231Y96364D01*
X233895Y94195D01*
X236064Y92531D01*
X238590Y91485D01*
X241300Y91128D01*
X244010Y91485D01*
X245932Y92281D01*
X253194Y85019D01*
Y36544D01*
X253447Y35276D01*
X254165Y34201D01*
X306026Y-17661D01*
Y-68040D01*
X306279Y-69308D01*
X306997Y-70383D01*
X333581Y-96968D01*
X332785Y-98890D01*
X332428Y-101600D01*
X332785Y-104310D01*
X333831Y-106836D01*
X335495Y-109004D01*
X336396Y-109696D01*
X335965Y-110966D01*
X324435D01*
X324003Y-109696D01*
X324905Y-109004D01*
X326569Y-106836D01*
X327615Y-104310D01*
X327972Y-101600D01*
X327615Y-98890D01*
X326569Y-96364D01*
X324905Y-94195D01*
X322736Y-92531D01*
X320210Y-91485D01*
X317500Y-91128D01*
X314790Y-91485D01*
X312264Y-92531D01*
X310096Y-94195D01*
X308431Y-96364D01*
X307385Y-98890D01*
X307028Y-101600D01*
X307385Y-104310D01*
X308431Y-106836D01*
X310096Y-109004D01*
X310996Y-109696D01*
X310565Y-110966D01*
X299035D01*
X298603Y-109696D01*
X299505Y-109004D01*
X301169Y-106836D01*
X302215Y-104310D01*
X302572Y-101600D01*
X302215Y-98890D01*
X301169Y-96364D01*
X299505Y-94195D01*
X297336Y-92531D01*
X295414Y-91735D01*
Y-23940D01*
X295161Y-22672D01*
X294443Y-21597D01*
X248469Y24377D01*
X247394Y25095D01*
X246126Y25348D01*
X244009D01*
X243383Y26618D01*
X244428Y27979D01*
X245631Y30884D01*
X245874Y32730D01*
X234000D01*
X222126D01*
X222369Y30884D01*
X223572Y27979D01*
X224617Y26618D01*
X223991Y25348D01*
X219214D01*
Y91735D01*
X221136Y92531D01*
X223305Y94195D01*
X224969Y96364D01*
X226015Y98890D01*
X226372Y101600D01*
X226015Y104310D01*
X224969Y106836D01*
X223305Y109004D01*
X222404Y109696D01*
X222835Y110966D01*
X234365D01*
X234797Y109696D01*
D02*
G37*
G36*
X260196D02*
X259296Y109004D01*
X257631Y106836D01*
X256585Y104310D01*
X256228Y101600D01*
X256585Y98890D01*
X257631Y96364D01*
X259296Y94195D01*
X261464Y92531D01*
X263386Y91735D01*
Y36011D01*
X262213Y35525D01*
X259822Y37917D01*
Y86392D01*
X259569Y87660D01*
X258851Y88735D01*
X250619Y96968D01*
X251415Y98890D01*
X251772Y101600D01*
X251415Y104310D01*
X250369Y106836D01*
X248704Y109004D01*
X247803Y109696D01*
X248235Y110966D01*
X259765D01*
X260196Y109696D01*
D02*
G37*
G36*
X464026Y110960D02*
X464026Y110960D01*
Y110960D01*
X465235Y110816D01*
X466033Y110711D01*
X467847Y109960D01*
X469405Y108764D01*
X470601Y107206D01*
X471352Y105392D01*
X471593Y103561D01*
X471593Y103561D01*
X471593D01*
X471606Y103549D01*
X471670Y-102307D01*
X471593Y-103561D01*
X471593D01*
X471593Y-103561D01*
X471352Y-105392D01*
X470601Y-107206D01*
X469405Y-108764D01*
X467847Y-109960D01*
X466033Y-110711D01*
X465240Y-110816D01*
X464352Y-110921D01*
X464026Y-110960D01*
X464026Y-110960D01*
X462762Y-110966D01*
X426035D01*
X425603Y-109696D01*
X426505Y-109004D01*
X428169Y-106836D01*
X429215Y-104310D01*
X429572Y-101600D01*
X429215Y-98890D01*
X428169Y-96364D01*
X426505Y-94195D01*
X424336Y-92531D01*
X421810Y-91485D01*
X419100Y-91128D01*
X416390Y-91485D01*
X413864Y-92531D01*
X411696Y-94195D01*
X410031Y-96364D01*
X408985Y-98890D01*
X408628Y-101600D01*
X408985Y-104310D01*
X410031Y-106836D01*
X411696Y-109004D01*
X412597Y-109696D01*
X412165Y-110966D01*
X400635D01*
X400204Y-109696D01*
X401105Y-109004D01*
X402769Y-106836D01*
X403815Y-104310D01*
X404172Y-101600D01*
X403815Y-98890D01*
X402769Y-96364D01*
X401105Y-94195D01*
X398936Y-92531D01*
X396410Y-91485D01*
X393700Y-91128D01*
X390990Y-91485D01*
X388464Y-92531D01*
X386296Y-94195D01*
X384631Y-96364D01*
X383585Y-98890D01*
X383228Y-101600D01*
X383585Y-104310D01*
X384631Y-106836D01*
X386296Y-109004D01*
X387197Y-109696D01*
X386765Y-110966D01*
X375235D01*
X374804Y-109696D01*
X375704Y-109004D01*
X377369Y-106836D01*
X378415Y-104310D01*
X378772Y-101600D01*
X378415Y-98890D01*
X377369Y-96364D01*
X375704Y-94195D01*
X373536Y-92531D01*
X371010Y-91485D01*
X368300Y-91128D01*
X365590Y-91485D01*
X363064Y-92531D01*
X360896Y-94195D01*
X359231Y-96364D01*
X358185Y-98890D01*
X357828Y-101600D01*
X358185Y-104310D01*
X359231Y-106836D01*
X360896Y-109004D01*
X361796Y-109696D01*
X361365Y-110966D01*
X349835D01*
X349403Y-109696D01*
X350304Y-109004D01*
X351969Y-106836D01*
X353015Y-104310D01*
X353372Y-101600D01*
X353015Y-98890D01*
X351969Y-96364D01*
X350304Y-94195D01*
X348136Y-92531D01*
X345610Y-91485D01*
X342900Y-91128D01*
X340190Y-91485D01*
X338268Y-92281D01*
X312654Y-66667D01*
Y-16800D01*
X313775Y-16091D01*
X313857Y-16076D01*
X316198Y-16542D01*
X318539Y-16076D01*
X320524Y-14750D01*
X321850Y-12766D01*
X322315Y-10424D01*
X321850Y-8083D01*
X320524Y-6099D01*
X318539Y-4773D01*
X316198Y-4307D01*
X313857Y-4773D01*
X311872Y-6099D01*
X311855Y-6125D01*
X310591Y-6249D01*
X270014Y34328D01*
Y91735D01*
X271936Y92531D01*
X274104Y94195D01*
X275769Y96364D01*
X276815Y98890D01*
X277172Y101600D01*
X276815Y104310D01*
X275769Y106836D01*
X274104Y109004D01*
X273204Y109696D01*
X273635Y110966D01*
X285165D01*
X285597Y109696D01*
X284695Y109004D01*
X283031Y106836D01*
X281985Y104310D01*
X281628Y101600D01*
X281985Y98890D01*
X283031Y96364D01*
X284695Y94195D01*
X286864Y92531D01*
X289390Y91485D01*
X292100Y91128D01*
X294810Y91485D01*
X297336Y92531D01*
X299505Y94195D01*
X301169Y96364D01*
X302215Y98890D01*
X302572Y101600D01*
X302215Y104310D01*
X301169Y106836D01*
X299505Y109004D01*
X298603Y109696D01*
X299035Y110966D01*
X310565D01*
X310996Y109696D01*
X310096Y109004D01*
X308431Y106836D01*
X307385Y104310D01*
X307028Y101600D01*
X307385Y98890D01*
X308431Y96364D01*
X310096Y94195D01*
X312264Y92531D01*
X314790Y91485D01*
X317500Y91128D01*
X320210Y91485D01*
X322736Y92531D01*
X324905Y94195D01*
X326569Y96364D01*
X327615Y98890D01*
X327972Y101600D01*
X327615Y104310D01*
X326569Y106836D01*
X324905Y109004D01*
X324003Y109696D01*
X324435Y110966D01*
X335965D01*
X336396Y109696D01*
X335495Y109004D01*
X333831Y106836D01*
X332785Y104310D01*
X332428Y101600D01*
X332785Y98890D01*
X333831Y96364D01*
X335495Y94195D01*
X337664Y92531D01*
X340190Y91485D01*
X342900Y91128D01*
X345610Y91485D01*
X348136Y92531D01*
X350304Y94195D01*
X351969Y96364D01*
X353015Y98890D01*
X353372Y101600D01*
X353015Y104310D01*
X351969Y106836D01*
X350304Y109004D01*
X349403Y109696D01*
X349835Y110966D01*
X361365D01*
X361796Y109696D01*
X360896Y109004D01*
X359231Y106836D01*
X358185Y104310D01*
X357828Y101600D01*
X358185Y98890D01*
X359231Y96364D01*
X360896Y94195D01*
X363064Y92531D01*
X365590Y91485D01*
X368300Y91128D01*
X371010Y91485D01*
X373536Y92531D01*
X375704Y94195D01*
X377369Y96364D01*
X378415Y98890D01*
X378772Y101600D01*
X378415Y104310D01*
X377369Y106836D01*
X375704Y109004D01*
X374804Y109696D01*
X375235Y110966D01*
X386765D01*
X387197Y109696D01*
X386296Y109004D01*
X384631Y106836D01*
X383585Y104310D01*
X383228Y101600D01*
X383585Y98890D01*
X384631Y96364D01*
X386296Y94195D01*
X388464Y92531D01*
X390990Y91485D01*
X393700Y91128D01*
X396410Y91485D01*
X398936Y92531D01*
X401105Y94195D01*
X402769Y96364D01*
X403815Y98890D01*
X404172Y101600D01*
X403815Y104310D01*
X402769Y106836D01*
X401105Y109004D01*
X400204Y109696D01*
X400635Y110966D01*
X412165D01*
X412597Y109696D01*
X411696Y109004D01*
X410031Y106836D01*
X408985Y104310D01*
X408628Y101600D01*
X408985Y98890D01*
X410031Y96364D01*
X411696Y94195D01*
X413864Y92531D01*
X416390Y91485D01*
X419100Y91128D01*
X421810Y91485D01*
X424336Y92531D01*
X426505Y94195D01*
X428169Y96364D01*
X429215Y98890D01*
X429572Y101600D01*
X429215Y104310D01*
X428169Y106836D01*
X426505Y109004D01*
X425603Y109696D01*
X426035Y110966D01*
X437569D01*
X438000Y109696D01*
X437097Y109003D01*
X435433Y106835D01*
X434387Y104310D01*
X434030Y101600D01*
X434387Y98890D01*
X435433Y96365D01*
X437097Y94197D01*
X439265Y92533D01*
X441790Y91487D01*
X444500Y91131D01*
X447210Y91487D01*
X449735Y92533D01*
X451903Y94197D01*
X453567Y96365D01*
X454613Y98890D01*
X454969Y101600D01*
X454613Y104310D01*
X453567Y106835D01*
X451903Y109003D01*
X451000Y109696D01*
X451431Y110966D01*
X462762D01*
X464026Y110960D01*
D02*
G37*
G36*
X209396Y109696D02*
X208496Y109004D01*
X206831Y106836D01*
X205785Y104310D01*
X205428Y101600D01*
X205785Y98890D01*
X206831Y96364D01*
X208496Y94195D01*
X210664Y92531D01*
X212586Y91735D01*
Y22034D01*
X212839Y20766D01*
X213557Y19691D01*
X214632Y18973D01*
X215900Y18720D01*
X222602D01*
Y7187D01*
X212792Y-2624D01*
X159316D01*
X157489Y-2864D01*
X155786Y-3570D01*
X154324Y-4692D01*
X133103Y-25912D01*
X123500D01*
X121744Y-26261D01*
X120256Y-27256D01*
X119261Y-28744D01*
X118912Y-30500D01*
Y-45500D01*
X119261Y-47256D01*
X120256Y-48744D01*
X121744Y-49739D01*
X123500Y-50088D01*
X138500D01*
X140256Y-49739D01*
X141744Y-48744D01*
X142739Y-47256D01*
X143088Y-45500D01*
Y-35897D01*
X162240Y-16744D01*
X215716D01*
X217544Y-16504D01*
X219246Y-15798D01*
X220709Y-14677D01*
X232587Y-2798D01*
X245398D01*
Y16416D01*
X246571Y16902D01*
X288786Y-25313D01*
Y-91735D01*
X286864Y-92531D01*
X284695Y-94195D01*
X283031Y-96364D01*
X281985Y-98890D01*
X281628Y-101600D01*
X281985Y-104310D01*
X283031Y-106836D01*
X284695Y-109004D01*
X285597Y-109696D01*
X285165Y-110966D01*
X273635D01*
X273204Y-109696D01*
X274104Y-109004D01*
X275769Y-106836D01*
X276815Y-104310D01*
X277172Y-101600D01*
X276815Y-98890D01*
X275769Y-96364D01*
X274104Y-94195D01*
X271936Y-92531D01*
X269410Y-91485D01*
X266700Y-91128D01*
X263990Y-91485D01*
X261464Y-92531D01*
X259296Y-94195D01*
X257631Y-96364D01*
X256585Y-98890D01*
X256228Y-101600D01*
X256585Y-104310D01*
X257631Y-106836D01*
X259296Y-109004D01*
X260196Y-109696D01*
X259765Y-110966D01*
X248235D01*
X247803Y-109696D01*
X248704Y-109004D01*
X250369Y-106836D01*
X251415Y-104310D01*
X251772Y-101600D01*
X251415Y-98890D01*
X250369Y-96364D01*
X248704Y-94195D01*
X246536Y-92531D01*
X244010Y-91485D01*
X241300Y-91128D01*
X238590Y-91485D01*
X236064Y-92531D01*
X233895Y-94195D01*
X232231Y-96364D01*
X231185Y-98890D01*
X230828Y-101600D01*
X231185Y-104310D01*
X232231Y-106836D01*
X233895Y-109004D01*
X234797Y-109696D01*
X234365Y-110966D01*
X222835D01*
X222404Y-109696D01*
X223305Y-109004D01*
X224969Y-106836D01*
X226015Y-104310D01*
X226372Y-101600D01*
X226015Y-98890D01*
X224969Y-96364D01*
X223305Y-94195D01*
X221136Y-92531D01*
X218610Y-91485D01*
X215900Y-91128D01*
X213190Y-91485D01*
X210664Y-92531D01*
X208496Y-94195D01*
X206831Y-96364D01*
X205785Y-98890D01*
X205428Y-101600D01*
X205785Y-104310D01*
X206831Y-106836D01*
X208496Y-109004D01*
X209396Y-109696D01*
X208965Y-110966D01*
X197435D01*
X197003Y-109696D01*
X197904Y-109004D01*
X199569Y-106836D01*
X200615Y-104310D01*
X200972Y-101600D01*
X200615Y-98890D01*
X199569Y-96364D01*
X197904Y-94195D01*
X195736Y-92531D01*
X193210Y-91485D01*
X190500Y-91128D01*
X187790Y-91485D01*
X185264Y-92531D01*
X183095Y-94195D01*
X181431Y-96364D01*
X180385Y-98890D01*
X180028Y-101600D01*
X180385Y-104310D01*
X181431Y-106836D01*
X183095Y-109004D01*
X183997Y-109696D01*
X183565Y-110966D01*
X172035D01*
X171604Y-109696D01*
X172505Y-109004D01*
X174169Y-106836D01*
X175215Y-104310D01*
X175572Y-101600D01*
X175215Y-98890D01*
X174169Y-96364D01*
X172505Y-94195D01*
X170336Y-92531D01*
X167810Y-91485D01*
X165100Y-91128D01*
X162390Y-91485D01*
X159864Y-92531D01*
X157696Y-94195D01*
X156031Y-96364D01*
X154985Y-98890D01*
X154628Y-101600D01*
X154985Y-104310D01*
X156031Y-106836D01*
X157696Y-109004D01*
X158596Y-109696D01*
X158165Y-110966D01*
X146635D01*
X146203Y-109696D01*
X147105Y-109004D01*
X148769Y-106836D01*
X149815Y-104310D01*
X150172Y-101600D01*
X149815Y-98890D01*
X148769Y-96364D01*
X147105Y-94195D01*
X144936Y-92531D01*
X142410Y-91485D01*
X139700Y-91128D01*
X136990Y-91485D01*
X134464Y-92531D01*
X132296Y-94195D01*
X130631Y-96364D01*
X129585Y-98890D01*
X129228Y-101600D01*
X129585Y-104310D01*
X130631Y-106836D01*
X132296Y-109004D01*
X133196Y-109696D01*
X132765Y-110966D01*
X122011D01*
X121603Y-109763D01*
X122090Y-109390D01*
X123840Y-107108D01*
X124941Y-104451D01*
X125149Y-102870D01*
X114300D01*
X103451D01*
X103659Y-104451D01*
X104760Y-107108D01*
X106510Y-109390D01*
X106997Y-109763D01*
X106589Y-110966D01*
X95835D01*
X95403Y-109696D01*
X96305Y-109004D01*
X97969Y-106836D01*
X99015Y-104310D01*
X99372Y-101600D01*
X99015Y-98890D01*
X97969Y-96364D01*
X96305Y-94195D01*
X94136Y-92531D01*
X91610Y-91485D01*
X88900Y-91128D01*
X86190Y-91485D01*
X83664Y-92531D01*
X81496Y-94195D01*
X79831Y-96364D01*
X78785Y-98890D01*
X78428Y-101600D01*
X78785Y-104310D01*
X79831Y-106836D01*
X81496Y-109004D01*
X82396Y-109696D01*
X81965Y-110966D01*
X70435D01*
X70003Y-109696D01*
X70904Y-109004D01*
X72569Y-106836D01*
X73615Y-104310D01*
X73972Y-101600D01*
X73615Y-98890D01*
X72569Y-96364D01*
X70904Y-94195D01*
X68736Y-92531D01*
X66210Y-91485D01*
X63500Y-91128D01*
X60790Y-91485D01*
X58264Y-92531D01*
X56095Y-94195D01*
X54431Y-96364D01*
X53385Y-98890D01*
X53028Y-101600D01*
X53385Y-104310D01*
X54431Y-106836D01*
X56095Y-109004D01*
X56996Y-109696D01*
X56565Y-110966D01*
X45035D01*
X44604Y-109696D01*
X45504Y-109004D01*
X47169Y-106836D01*
X48215Y-104310D01*
X48572Y-101600D01*
X48215Y-98890D01*
X47169Y-96364D01*
X45504Y-94195D01*
X43336Y-92531D01*
X40810Y-91485D01*
X38100Y-91128D01*
X35390Y-91485D01*
X32864Y-92531D01*
X30696Y-94195D01*
X29031Y-96364D01*
X27985Y-98890D01*
X27628Y-101600D01*
X27985Y-104310D01*
X29031Y-106836D01*
X30696Y-109004D01*
X31597Y-109696D01*
X31165Y-110966D01*
X8523D01*
X8335Y-109696D01*
X8583Y-109621D01*
X12460Y-107548D01*
X15859Y-104759D01*
X18648Y-101360D01*
X20721Y-97483D01*
X21997Y-93275D01*
X22428Y-88900D01*
X21997Y-84524D01*
X20721Y-80317D01*
X18648Y-76440D01*
X15859Y-73041D01*
X12460Y-70252D01*
X8583Y-68179D01*
X4376Y-66903D01*
X0Y-66472D01*
X-4376Y-66903D01*
X-8583Y-68179D01*
X-12460Y-70252D01*
X-15859Y-73041D01*
X-18648Y-76440D01*
X-20721Y-80317D01*
X-20794Y-80558D01*
X-22064Y-80370D01*
Y-26684D01*
X-18042Y-22662D01*
X-18042Y-22662D01*
X-17320Y-21581D01*
X-17320Y-21581D01*
X-17320Y-21581D01*
X-17213Y-21046D01*
X-17066Y-20305D01*
X-17066Y-20305D01*
X-17066Y-20305D01*
Y-7454D01*
X-15796Y-7265D01*
X-15185Y-9279D01*
X-12944Y-13471D01*
X-9929Y-17145D01*
X-6255Y-20160D01*
X-2063Y-22401D01*
X2486Y-23781D01*
X5946Y-24122D01*
Y0D01*
Y24122D01*
X2486Y23781D01*
X-2063Y22401D01*
X-6255Y20160D01*
X-9929Y17145D01*
X-12944Y13471D01*
X-15185Y9279D01*
X-15796Y7265D01*
X-17066Y7454D01*
Y20700D01*
X-17320Y21976D01*
X-18042Y23057D01*
X-22066Y27081D01*
Y80377D01*
X-20796Y80565D01*
X-20721Y80317D01*
X-18648Y76440D01*
X-15859Y73041D01*
X-12460Y70252D01*
X-8583Y68179D01*
X-4376Y66903D01*
X0Y66472D01*
X4376Y66903D01*
X8583Y68179D01*
X12460Y70252D01*
X15859Y73041D01*
X18648Y76440D01*
X20721Y80317D01*
X21997Y84524D01*
X22428Y88900D01*
X21997Y93275D01*
X20721Y97483D01*
X18648Y101360D01*
X15859Y104759D01*
X12460Y107548D01*
X8583Y109621D01*
X8335Y109696D01*
X8523Y110966D01*
X132765D01*
X133196Y109696D01*
X132296Y109004D01*
X130631Y106836D01*
X129585Y104310D01*
X129228Y101600D01*
X129585Y98890D01*
X130631Y96364D01*
X132296Y94195D01*
X134464Y92531D01*
X136990Y91485D01*
X139700Y91128D01*
X142410Y91485D01*
X144936Y92531D01*
X147105Y94195D01*
X148769Y96364D01*
X149815Y98890D01*
X150172Y101600D01*
X149815Y104310D01*
X148769Y106836D01*
X147105Y109004D01*
X146203Y109696D01*
X146635Y110966D01*
X158165D01*
X158596Y109696D01*
X157696Y109004D01*
X156031Y106836D01*
X154985Y104310D01*
X154628Y101600D01*
X154985Y98890D01*
X156031Y96364D01*
X157696Y94195D01*
X159864Y92531D01*
X162390Y91485D01*
X165100Y91128D01*
X167810Y91485D01*
X170336Y92531D01*
X172505Y94195D01*
X174169Y96364D01*
X175215Y98890D01*
X175572Y101600D01*
X175215Y104310D01*
X174169Y106836D01*
X172505Y109004D01*
X171604Y109696D01*
X172035Y110966D01*
X183565D01*
X183997Y109696D01*
X183095Y109004D01*
X181431Y106836D01*
X180385Y104310D01*
X180028Y101600D01*
X180385Y98890D01*
X181431Y96364D01*
X183095Y94195D01*
X185264Y92531D01*
X187790Y91485D01*
X190500Y91128D01*
X193210Y91485D01*
X195736Y92531D01*
X197904Y94195D01*
X199569Y96364D01*
X200615Y98890D01*
X200972Y101600D01*
X200615Y104310D01*
X199569Y106836D01*
X197904Y109004D01*
X197003Y109696D01*
X197435Y110966D01*
X208965D01*
X209396Y109696D01*
D02*
G37*
%LPC*%
G36*
X193481Y-39270D02*
X182270D01*
Y-50481D01*
X184273Y-50217D01*
X187324Y-48954D01*
X189944Y-46944D01*
X191954Y-44324D01*
X193217Y-41273D01*
X193481Y-39270D01*
D02*
G37*
G36*
X179730D02*
X168519D01*
X168783Y-41273D01*
X170046Y-44324D01*
X172056Y-46944D01*
X174676Y-48954D01*
X177726Y-50217D01*
X179730Y-50481D01*
Y-39270D01*
D02*
G37*
G36*
X35918Y-23122D02*
X32458Y-23463D01*
X27909Y-24843D01*
X23717Y-27084D01*
X20043Y-30099D01*
X17028Y-33773D01*
X14787Y-37965D01*
X13407Y-42514D01*
X13066Y-45974D01*
X35918D01*
Y-23122D01*
D02*
G37*
G36*
X182270Y-25519D02*
Y-36730D01*
X193481D01*
X193217Y-34726D01*
X191954Y-31676D01*
X189944Y-29056D01*
X187324Y-27046D01*
X184273Y-25783D01*
X182270Y-25519D01*
D02*
G37*
G36*
X179730D02*
X177726Y-25783D01*
X174676Y-27046D01*
X172056Y-29056D01*
X170046Y-31676D01*
X168783Y-34726D01*
X168519Y-36730D01*
X179730D01*
Y-25519D01*
D02*
G37*
G36*
X38458Y-23122D02*
Y-45974D01*
X61310D01*
X60969Y-42514D01*
X59589Y-37965D01*
X57349Y-33773D01*
X54333Y-30099D01*
X50659Y-27084D01*
X46467Y-24843D01*
X41919Y-23463D01*
X38458Y-23122D01*
D02*
G37*
G36*
X35918Y-48514D02*
X13066D01*
X13407Y-51974D01*
X14787Y-56523D01*
X17028Y-60715D01*
X20043Y-64389D01*
X23717Y-67404D01*
X27909Y-69645D01*
X32458Y-71025D01*
X35918Y-71366D01*
Y-48514D01*
D02*
G37*
G36*
X115570Y-90751D02*
Y-100330D01*
X125149D01*
X124941Y-98749D01*
X123840Y-96092D01*
X122090Y-93810D01*
X119808Y-92060D01*
X117151Y-90959D01*
X115570Y-90751D01*
D02*
G37*
G36*
X113030D02*
X111449Y-90959D01*
X108792Y-92060D01*
X106510Y-93810D01*
X104760Y-96092D01*
X103659Y-98749D01*
X103451Y-100330D01*
X113030D01*
Y-90751D01*
D02*
G37*
G36*
X318484Y77005D02*
X316657Y76765D01*
X314954Y76059D01*
X313491Y74937D01*
X312369Y73475D01*
X311664Y71772D01*
X311424Y69945D01*
Y34300D01*
X311664Y32472D01*
X312369Y30770D01*
X313491Y29307D01*
X348911Y-6112D01*
X350373Y-7235D01*
X352076Y-7940D01*
X353904Y-8180D01*
X377890D01*
X377947Y-8173D01*
X379050Y-9517D01*
X382643Y-12465D01*
X386741Y-14656D01*
X391187Y-16005D01*
X391871Y-16072D01*
X404875Y-29076D01*
X403884Y-30929D01*
X402535Y-35376D01*
X402080Y-40000D01*
X402535Y-44625D01*
X403884Y-49071D01*
X406074Y-53169D01*
X409022Y-56761D01*
X412615Y-59710D01*
X416713Y-61900D01*
X421159Y-63249D01*
X425784Y-63704D01*
X430408Y-63249D01*
X434855Y-61900D01*
X438953Y-59710D01*
X442545Y-56761D01*
X445493Y-53169D01*
X447684Y-49071D01*
X449033Y-44625D01*
X449488Y-40000D01*
X449033Y-35376D01*
X447684Y-30929D01*
X445493Y-26831D01*
X442545Y-23239D01*
X438953Y-20291D01*
X434855Y-18100D01*
X430408Y-16752D01*
X425784Y-16296D01*
X421159Y-16752D01*
X416713Y-18100D01*
X414860Y-19091D01*
X409349Y-13580D01*
X409557Y-11993D01*
X412573Y-9517D01*
X415521Y-5925D01*
X417712Y-1827D01*
X419061Y2619D01*
X419516Y7244D01*
X419061Y11868D01*
X417712Y16315D01*
X415521Y20413D01*
X412573Y24005D01*
X408981Y26953D01*
X404883Y29144D01*
X400436Y30492D01*
X395812Y30948D01*
X391187Y30492D01*
X386741Y29144D01*
X382643Y26953D01*
X379050Y24005D01*
X376102Y20413D01*
X373912Y16315D01*
X372563Y11868D01*
X372108Y7244D01*
X372143Y6881D01*
X371291Y5940D01*
X356828D01*
X325544Y37224D01*
Y69945D01*
X325304Y71772D01*
X324599Y73475D01*
X323476Y74937D01*
X322014Y76059D01*
X320311Y76765D01*
X318484Y77005D01*
D02*
G37*
G36*
X365840Y-16296D02*
X361215Y-16752D01*
X356769Y-18100D01*
X352671Y-20291D01*
X349078Y-23239D01*
X346130Y-26831D01*
X343940Y-30929D01*
X342591Y-35376D01*
X342136Y-40000D01*
X342591Y-44625D01*
X343940Y-49071D01*
X346130Y-53169D01*
X349078Y-56761D01*
X352671Y-59710D01*
X356769Y-61900D01*
X361215Y-63249D01*
X365840Y-63704D01*
X370464Y-63249D01*
X374911Y-61900D01*
X379009Y-59710D01*
X382601Y-56761D01*
X385549Y-53169D01*
X387740Y-49071D01*
X389089Y-44625D01*
X389544Y-40000D01*
X389089Y-35376D01*
X387740Y-30929D01*
X385549Y-26831D01*
X382601Y-23239D01*
X379009Y-20291D01*
X374911Y-18100D01*
X370464Y-16752D01*
X365840Y-16296D01*
D02*
G37*
G36*
X61310Y-48514D02*
X38458D01*
Y-71366D01*
X41919Y-71025D01*
X46467Y-69645D01*
X50659Y-67404D01*
X54333Y-64389D01*
X57349Y-60715D01*
X59589Y-56523D01*
X60969Y-51974D01*
X61310Y-48514D01*
D02*
G37*
G36*
X234000Y70896D02*
X231025Y70505D01*
X228252Y69356D01*
X225871Y67529D01*
X224044Y65148D01*
X222895Y62375D01*
X222504Y59400D01*
X222895Y56424D01*
X224044Y53652D01*
X225871Y51271D01*
X228252Y49444D01*
X231025Y48295D01*
X234000Y47904D01*
X236975Y48295D01*
X239748Y49444D01*
X242129Y51271D01*
X243956Y53652D01*
X245105Y56424D01*
X245496Y59400D01*
X245105Y62375D01*
X243956Y65148D01*
X242129Y67529D01*
X239748Y69356D01*
X236975Y70505D01*
X234000Y70896D01*
D02*
G37*
G36*
X106000Y61088D02*
X91000D01*
X89244Y60739D01*
X87756Y59745D01*
X86761Y58256D01*
X86412Y56500D01*
Y41500D01*
X86761Y39744D01*
X87756Y38256D01*
X89244Y37261D01*
X91000Y36912D01*
X106000D01*
X107756Y37261D01*
X109244Y38256D01*
X110239Y39744D01*
X110588Y41500D01*
Y56500D01*
X110239Y58256D01*
X109244Y59745D01*
X107756Y60739D01*
X106000Y61088D01*
D02*
G37*
G36*
X145981Y47730D02*
X134770D01*
Y36519D01*
X136774Y36783D01*
X139824Y38047D01*
X142444Y40057D01*
X144453Y42676D01*
X145717Y45727D01*
X145981Y47730D01*
D02*
G37*
G36*
X460000Y76486D02*
X446000D01*
X443389Y76143D01*
X440957Y75135D01*
X438868Y73532D01*
X437265Y71443D01*
X436257Y69011D01*
X435914Y66400D01*
X436257Y63790D01*
X437265Y61357D01*
X438868Y59268D01*
X440957Y57665D01*
X443389Y56658D01*
X446000Y56314D01*
X460000D01*
X462610Y56658D01*
X465043Y57665D01*
X467132Y59268D01*
X468735Y61357D01*
X469742Y63790D01*
X470086Y66400D01*
X469742Y69011D01*
X468735Y71443D01*
X467132Y73532D01*
X465043Y75135D01*
X462610Y76143D01*
X460000Y76486D01*
D02*
G37*
G36*
X134770Y61481D02*
Y50270D01*
X145981D01*
X145717Y52274D01*
X144453Y55324D01*
X142444Y57944D01*
X139824Y59954D01*
X136774Y61217D01*
X134770Y61481D01*
D02*
G37*
G36*
X132230D02*
X130226Y61217D01*
X127176Y59954D01*
X124556Y57944D01*
X122546Y55324D01*
X121283Y52274D01*
X121019Y50270D01*
X132230D01*
Y61481D01*
D02*
G37*
G36*
Y47730D02*
X121019D01*
X121283Y45727D01*
X122546Y42676D01*
X124556Y40057D01*
X127176Y38047D01*
X130226Y36783D01*
X132230Y36519D01*
Y47730D01*
D02*
G37*
G36*
X8486Y24122D02*
Y1270D01*
X31338D01*
X30997Y4730D01*
X29617Y9279D01*
X27377Y13471D01*
X24361Y17145D01*
X20687Y20160D01*
X16495Y22401D01*
X11947Y23781D01*
X8486Y24122D01*
D02*
G37*
G36*
X67160Y23704D02*
X62536Y23249D01*
X58089Y21900D01*
X53991Y19709D01*
X50399Y16761D01*
X47451Y13169D01*
X45260Y9071D01*
X43911Y4624D01*
X43456Y0D01*
X43911Y-4624D01*
X45260Y-9071D01*
X47451Y-13169D01*
X50399Y-16761D01*
X53991Y-19709D01*
X58089Y-21900D01*
X62536Y-23249D01*
X67160Y-23704D01*
X71785Y-23249D01*
X76231Y-21900D01*
X80330Y-19709D01*
X83921Y-16761D01*
X86869Y-13169D01*
X89060Y-9071D01*
X90409Y-4624D01*
X90864Y0D01*
X90409Y4624D01*
X89060Y9071D01*
X86869Y13169D01*
X83921Y16761D01*
X80330Y19709D01*
X76231Y21900D01*
X71785Y23249D01*
X67160Y23704D01*
D02*
G37*
G36*
X31338Y-1270D02*
X8486D01*
Y-24122D01*
X11947Y-23781D01*
X16495Y-22401D01*
X20687Y-20160D01*
X24361Y-17145D01*
X27377Y-13471D01*
X29617Y-9279D01*
X30997Y-4730D01*
X31338Y-1270D01*
D02*
G37*
G36*
X235270Y45874D02*
Y35270D01*
X245874D01*
X245631Y37116D01*
X244428Y40020D01*
X242514Y42514D01*
X240021Y44428D01*
X237117Y45631D01*
X235270Y45874D01*
D02*
G37*
G36*
X232730D02*
X230884Y45631D01*
X227980Y44428D01*
X225486Y42514D01*
X223572Y40020D01*
X222369Y37116D01*
X222126Y35270D01*
X232730D01*
Y45874D01*
D02*
G37*
G36*
X460000Y51086D02*
X446000D01*
X443389Y50743D01*
X440957Y49735D01*
X438868Y48132D01*
X438813Y48061D01*
X342900D01*
X341073Y47820D01*
X339370Y47115D01*
X337908Y45993D01*
X336786Y44530D01*
X336080Y42828D01*
X335840Y41000D01*
X336080Y39173D01*
X336786Y37470D01*
X337908Y36008D01*
X339370Y34886D01*
X341073Y34180D01*
X342900Y33940D01*
X438813D01*
X438868Y33868D01*
X440957Y32265D01*
X443389Y31258D01*
X446000Y30914D01*
X460000D01*
X462610Y31258D01*
X465043Y32265D01*
X467132Y33868D01*
X468735Y35957D01*
X469742Y38390D01*
X470086Y41000D01*
X469742Y43611D01*
X468735Y46043D01*
X467132Y48132D01*
X465043Y49735D01*
X462610Y50743D01*
X460000Y51086D01*
D02*
G37*
%LPD*%
D15*
X395812Y-10028D02*
X425784Y-40000D01*
X395812Y-10028D02*
Y7244D01*
X353904Y-1120D02*
X377890D01*
X318484Y34300D02*
X353904Y-1120D01*
X342900Y41000D02*
X453000D01*
X318484Y34300D02*
Y69945D01*
X7216Y-17272D02*
Y0D01*
Y-17272D02*
X37188Y-47244D01*
X215716Y-9684D02*
X234000Y8600D01*
X159316Y-9684D02*
X215716D01*
X131000Y-38000D02*
X159316Y-9684D01*
D16*
X239921Y22034D02*
X246126D01*
X239239Y21352D02*
X239921Y22034D01*
X228761Y21352D02*
X239239D01*
X228079Y22034D02*
X228761Y21352D01*
X215900Y22034D02*
X228079D01*
X246126D02*
X292100Y-23940D01*
X310081Y-10424D02*
X316198D01*
X266700Y32956D02*
X310081Y-10424D01*
X309340Y-68040D02*
Y-16288D01*
X256508Y36544D02*
X309340Y-16288D01*
X256508Y36544D02*
Y86392D01*
X309340Y-68040D02*
X342900Y-101600D01*
X266700Y32956D02*
Y101600D01*
X241300D02*
X256508Y86392D01*
X292100Y-101600D02*
Y-23940D01*
X215900Y22034D02*
Y101600D01*
D17*
X453000Y41000D02*
D03*
Y66400D02*
D03*
D18*
X444500Y101600D02*
D03*
D19*
X139700D02*
D03*
X165100D02*
D03*
X190500D02*
D03*
X215900D02*
D03*
X241300D02*
D03*
X266700D02*
D03*
X292100D02*
D03*
X317500D02*
D03*
X342900D02*
D03*
X368300D02*
D03*
X393700D02*
D03*
X419100D02*
D03*
Y-101600D02*
D03*
X393700D02*
D03*
X368300D02*
D03*
X342900D02*
D03*
X317500D02*
D03*
X292100D02*
D03*
X266700D02*
D03*
X241300D02*
D03*
X215900D02*
D03*
X190500D02*
D03*
X165100D02*
D03*
X139700D02*
D03*
X114300D02*
D03*
X88900D02*
D03*
X63500D02*
D03*
X38100D02*
D03*
D20*
X0Y-88900D02*
D03*
Y88900D02*
D03*
D21*
X365840Y-40000D02*
D03*
X425784D02*
D03*
X395812Y7244D02*
D03*
X67160Y0D02*
D03*
X7216D02*
D03*
X37188Y-47244D02*
D03*
D22*
X133500Y49000D02*
D03*
X181000Y-38000D02*
D03*
D23*
X98500Y49000D02*
D03*
X131000Y-38000D02*
D03*
D24*
X234000Y8600D02*
D03*
D25*
Y34000D02*
D03*
Y59400D02*
D03*
D26*
X316198Y-10424D02*
D03*
X342900Y41000D02*
D03*
X318484Y69945D02*
D03*
M02*
