G04 Layer_Color=32896*
%FSLAX44Y44*%
%MOMM*%
G71*
G01*
G75*
%ADD32C,0.1500*%
G36*
X120776Y-85093D02*
X120942Y-85102D01*
X121267Y-85143D01*
X121417Y-85177D01*
X121551Y-85210D01*
X121684Y-85243D01*
X121800Y-85285D01*
X121909Y-85318D01*
X122009Y-85360D01*
X122092Y-85393D01*
X122159Y-85418D01*
X122217Y-85452D01*
X122259Y-85468D01*
X122284Y-85477D01*
X122292Y-85485D01*
X122425Y-85560D01*
X122550Y-85652D01*
X122775Y-85835D01*
X122875Y-85935D01*
X122967Y-86035D01*
X123050Y-86135D01*
X123125Y-86235D01*
X123192Y-86326D01*
X123250Y-86410D01*
X123300Y-86485D01*
X123342Y-86551D01*
X123375Y-86610D01*
X123400Y-86651D01*
X123408Y-86676D01*
X123417Y-86685D01*
X123483Y-86834D01*
X123542Y-86993D01*
X123642Y-87301D01*
X123708Y-87593D01*
X123733Y-87734D01*
X123750Y-87859D01*
X123767Y-87984D01*
X123783Y-88093D01*
X123792Y-88193D01*
Y-88276D01*
X123800Y-88343D01*
Y-88392D01*
Y-88426D01*
Y-88434D01*
X123792Y-88609D01*
X123783Y-88776D01*
X123742Y-89101D01*
X123708Y-89251D01*
X123675Y-89384D01*
X123642Y-89517D01*
X123600Y-89642D01*
X123567Y-89750D01*
X123533Y-89850D01*
X123500Y-89934D01*
X123467Y-90009D01*
X123442Y-90067D01*
X123425Y-90109D01*
X123408Y-90134D01*
Y-90142D01*
X123334Y-90284D01*
X123250Y-90409D01*
X123159Y-90534D01*
X123059Y-90642D01*
X122967Y-90750D01*
X122867Y-90842D01*
X122775Y-90934D01*
X122684Y-91009D01*
X122592Y-91075D01*
X122517Y-91142D01*
X122442Y-91192D01*
X122375Y-91233D01*
X122325Y-91267D01*
X122284Y-91292D01*
X122259Y-91300D01*
X122250Y-91308D01*
X122100Y-91375D01*
X121951Y-91442D01*
X121659Y-91542D01*
X121367Y-91608D01*
X121234Y-91633D01*
X121101Y-91658D01*
X120984Y-91675D01*
X120876Y-91683D01*
X120776Y-91700D01*
X120693D01*
X120626Y-91708D01*
X120534D01*
X120276Y-91700D01*
X120026Y-91667D01*
X119793Y-91625D01*
X119584Y-91583D01*
X119501Y-91558D01*
X119418Y-91533D01*
X119343Y-91517D01*
X119284Y-91500D01*
X119235Y-91483D01*
X119201Y-91467D01*
X119176Y-91458D01*
X119168D01*
X118918Y-91358D01*
X118685Y-91233D01*
X118468Y-91117D01*
X118268Y-90992D01*
X118185Y-90934D01*
X118110Y-90884D01*
X118043Y-90842D01*
X117985Y-90800D01*
X117935Y-90767D01*
X117901Y-90742D01*
X117885Y-90725D01*
X117877Y-90717D01*
Y-88334D01*
X120592D01*
Y-89092D01*
X118710D01*
Y-90292D01*
X118826Y-90384D01*
X118951Y-90467D01*
X119085Y-90542D01*
X119209Y-90609D01*
X119326Y-90667D01*
X119426Y-90709D01*
X119459Y-90717D01*
X119484Y-90733D01*
X119501Y-90742D01*
X119509D01*
X119709Y-90808D01*
X119901Y-90858D01*
X120076Y-90900D01*
X120243Y-90925D01*
X120384Y-90942D01*
X120442D01*
X120492Y-90950D01*
X120584D01*
X120817Y-90942D01*
X121042Y-90908D01*
X121242Y-90867D01*
X121417Y-90808D01*
X121501Y-90784D01*
X121567Y-90758D01*
X121634Y-90742D01*
X121684Y-90717D01*
X121726Y-90700D01*
X121759Y-90684D01*
X121776Y-90675D01*
X121784D01*
X121984Y-90559D01*
X122150Y-90425D01*
X122300Y-90275D01*
X122417Y-90142D01*
X122509Y-90017D01*
X122550Y-89959D01*
X122575Y-89909D01*
X122600Y-89875D01*
X122617Y-89842D01*
X122634Y-89825D01*
Y-89817D01*
X122734Y-89592D01*
X122800Y-89351D01*
X122850Y-89109D01*
X122892Y-88884D01*
X122900Y-88784D01*
X122909Y-88684D01*
X122917Y-88601D01*
Y-88526D01*
X122925Y-88468D01*
Y-88426D01*
Y-88392D01*
Y-88384D01*
X122917Y-88126D01*
X122884Y-87884D01*
X122850Y-87668D01*
X122800Y-87476D01*
X122784Y-87393D01*
X122759Y-87318D01*
X122742Y-87251D01*
X122717Y-87193D01*
X122709Y-87151D01*
X122692Y-87118D01*
X122684Y-87101D01*
Y-87093D01*
X122625Y-86968D01*
X122559Y-86843D01*
X122492Y-86735D01*
X122434Y-86643D01*
X122375Y-86568D01*
X122325Y-86510D01*
X122292Y-86476D01*
X122284Y-86460D01*
X122184Y-86360D01*
X122067Y-86260D01*
X121951Y-86185D01*
X121842Y-86118D01*
X121750Y-86060D01*
X121667Y-86026D01*
X121617Y-86001D01*
X121609Y-85993D01*
X121601D01*
X121434Y-85935D01*
X121267Y-85885D01*
X121092Y-85851D01*
X120934Y-85835D01*
X120801Y-85818D01*
X120743D01*
X120693Y-85810D01*
X120592D01*
X120417Y-85818D01*
X120251Y-85835D01*
X120101Y-85868D01*
X119976Y-85893D01*
X119868Y-85926D01*
X119784Y-85960D01*
X119734Y-85976D01*
X119726Y-85985D01*
X119718D01*
X119576Y-86051D01*
X119451Y-86126D01*
X119343Y-86201D01*
X119260Y-86268D01*
X119193Y-86335D01*
X119143Y-86385D01*
X119109Y-86418D01*
X119101Y-86435D01*
X119026Y-86543D01*
X118951Y-86668D01*
X118893Y-86801D01*
X118843Y-86918D01*
X118801Y-87035D01*
X118768Y-87118D01*
X118760Y-87151D01*
X118751Y-87176D01*
X118743Y-87193D01*
Y-87201D01*
X117977Y-86993D01*
X118043Y-86760D01*
X118126Y-86551D01*
X118201Y-86376D01*
X118285Y-86226D01*
X118360Y-86101D01*
X118385Y-86051D01*
X118418Y-86018D01*
X118435Y-85985D01*
X118451Y-85960D01*
X118468Y-85951D01*
Y-85943D01*
X118593Y-85801D01*
X118735Y-85676D01*
X118885Y-85568D01*
X119026Y-85477D01*
X119151Y-85410D01*
X119201Y-85385D01*
X119251Y-85360D01*
X119293Y-85343D01*
X119318Y-85327D01*
X119334Y-85318D01*
X119343D01*
X119559Y-85243D01*
X119776Y-85185D01*
X119984Y-85143D01*
X120184Y-85110D01*
X120268Y-85102D01*
X120351Y-85093D01*
X120417D01*
X120484Y-85085D01*
X120601D01*
X120776Y-85093D01*
D02*
G37*
G36*
X282356Y111420D02*
X282464Y111270D01*
X282581Y111120D01*
X282689Y110995D01*
X282797Y110878D01*
X282881Y110795D01*
X282914Y110762D01*
X282939Y110737D01*
X282956Y110728D01*
X282964Y110720D01*
X283156Y110562D01*
X283347Y110420D01*
X283547Y110287D01*
X283722Y110178D01*
X283880Y110095D01*
X283947Y110054D01*
X284005Y110029D01*
X284047Y110004D01*
X284080Y109987D01*
X284105Y109970D01*
X284114D01*
Y109204D01*
X283972Y109262D01*
X283830Y109329D01*
X283689Y109395D01*
X283564Y109462D01*
X283456Y109520D01*
X283364Y109570D01*
X283330Y109587D01*
X283306Y109604D01*
X283297Y109612D01*
X283289D01*
X283122Y109712D01*
X282981Y109812D01*
X282847Y109904D01*
X282739Y109987D01*
X282656Y110054D01*
X282589Y110112D01*
X282556Y110145D01*
X282539Y110154D01*
Y105147D01*
X281756D01*
Y111578D01*
X282264D01*
X282356Y111420D01*
D02*
G37*
G36*
X110162Y-91600D02*
X107854D01*
X107646Y-91592D01*
X107446Y-91583D01*
X107271Y-91567D01*
X107121Y-91542D01*
X106996Y-91525D01*
X106946Y-91517D01*
X106904Y-91508D01*
X106871Y-91500D01*
X106846D01*
X106838Y-91492D01*
X106829D01*
X106671Y-91450D01*
X106521Y-91400D01*
X106388Y-91342D01*
X106279Y-91292D01*
X106188Y-91250D01*
X106121Y-91208D01*
X106080Y-91183D01*
X106063Y-91175D01*
X105946Y-91083D01*
X105830Y-90992D01*
X105730Y-90892D01*
X105646Y-90800D01*
X105571Y-90717D01*
X105521Y-90650D01*
X105480Y-90609D01*
X105471Y-90592D01*
X105380Y-90450D01*
X105288Y-90292D01*
X105213Y-90134D01*
X105155Y-89984D01*
X105105Y-89859D01*
X105088Y-89801D01*
X105071Y-89750D01*
X105055Y-89717D01*
X105047Y-89684D01*
X105038Y-89667D01*
Y-89659D01*
X104980Y-89442D01*
X104938Y-89217D01*
X104905Y-89001D01*
X104888Y-88801D01*
X104880Y-88709D01*
X104872Y-88626D01*
Y-88551D01*
X104863Y-88492D01*
Y-88434D01*
Y-88401D01*
Y-88376D01*
Y-88368D01*
X104872Y-88059D01*
X104905Y-87768D01*
X104922Y-87634D01*
X104946Y-87509D01*
X104972Y-87393D01*
X104988Y-87284D01*
X105013Y-87184D01*
X105038Y-87101D01*
X105063Y-87026D01*
X105080Y-86959D01*
X105097Y-86910D01*
X105113Y-86876D01*
X105121Y-86851D01*
Y-86843D01*
X105221Y-86601D01*
X105346Y-86393D01*
X105471Y-86201D01*
X105596Y-86043D01*
X105655Y-85976D01*
X105705Y-85918D01*
X105755Y-85868D01*
X105796Y-85827D01*
X105830Y-85793D01*
X105855Y-85768D01*
X105871Y-85760D01*
X105880Y-85751D01*
X106030Y-85635D01*
X106188Y-85535D01*
X106346Y-85460D01*
X106496Y-85393D01*
X106621Y-85352D01*
X106679Y-85335D01*
X106729Y-85318D01*
X106763Y-85310D01*
X106796Y-85302D01*
X106813Y-85293D01*
X106821D01*
X106979Y-85260D01*
X107163Y-85235D01*
X107354Y-85218D01*
X107537Y-85202D01*
X107696D01*
X107771Y-85193D01*
X110162D01*
Y-91600D01*
D02*
G37*
G36*
X304998Y108179D02*
X304257Y108071D01*
X304190Y108171D01*
X304115Y108254D01*
X304032Y108337D01*
X303957Y108396D01*
X303890Y108454D01*
X303840Y108487D01*
X303807Y108512D01*
X303790Y108521D01*
X303673Y108579D01*
X303549Y108629D01*
X303432Y108662D01*
X303332Y108679D01*
X303232Y108696D01*
X303165Y108704D01*
X302982D01*
X302882Y108687D01*
X302682Y108646D01*
X302516Y108579D01*
X302374Y108512D01*
X302257Y108437D01*
X302174Y108371D01*
X302149Y108346D01*
X302124Y108329D01*
X302107Y108321D01*
Y108312D01*
X302041Y108237D01*
X301982Y108154D01*
X301891Y107979D01*
X301824Y107804D01*
X301782Y107629D01*
X301749Y107479D01*
X301741Y107413D01*
Y107354D01*
X301732Y107313D01*
Y107279D01*
Y107254D01*
Y107246D01*
Y107113D01*
X301749Y106996D01*
X301791Y106771D01*
X301857Y106580D01*
X301924Y106413D01*
X301966Y106346D01*
X301999Y106288D01*
X302032Y106230D01*
X302066Y106188D01*
X302091Y106155D01*
X302107Y106130D01*
X302116Y106121D01*
X302124Y106113D01*
X302199Y106038D01*
X302274Y105971D01*
X302357Y105913D01*
X302440Y105871D01*
X302599Y105788D01*
X302757Y105738D01*
X302890Y105713D01*
X302949Y105705D01*
X302990Y105696D01*
X303032Y105688D01*
X303090D01*
X303265Y105705D01*
X303415Y105738D01*
X303557Y105780D01*
X303673Y105838D01*
X303765Y105888D01*
X303840Y105938D01*
X303882Y105971D01*
X303899Y105980D01*
X304007Y106105D01*
X304098Y106246D01*
X304173Y106396D01*
X304232Y106546D01*
X304265Y106671D01*
X304282Y106729D01*
X304298Y106779D01*
X304307Y106821D01*
Y106854D01*
X304315Y106871D01*
Y106879D01*
X305140Y106821D01*
X305123Y106671D01*
X305090Y106530D01*
X305056Y106404D01*
X305007Y106279D01*
X304965Y106163D01*
X304907Y106055D01*
X304856Y105955D01*
X304798Y105871D01*
X304748Y105788D01*
X304690Y105721D01*
X304648Y105663D01*
X304598Y105613D01*
X304565Y105571D01*
X304540Y105546D01*
X304523Y105530D01*
X304515Y105521D01*
X304407Y105438D01*
X304298Y105363D01*
X304182Y105296D01*
X304057Y105246D01*
X303940Y105197D01*
X303824Y105155D01*
X303598Y105097D01*
X303490Y105080D01*
X303399Y105063D01*
X303307Y105055D01*
X303232Y105047D01*
X303174Y105038D01*
X303090D01*
X302899Y105047D01*
X302715Y105071D01*
X302540Y105113D01*
X302374Y105163D01*
X302224Y105222D01*
X302091Y105280D01*
X301966Y105355D01*
X301849Y105430D01*
X301749Y105496D01*
X301657Y105571D01*
X301582Y105630D01*
X301524Y105696D01*
X301474Y105738D01*
X301432Y105780D01*
X301416Y105805D01*
X301407Y105813D01*
X301316Y105938D01*
X301241Y106063D01*
X301174Y106188D01*
X301116Y106313D01*
X301066Y106438D01*
X301024Y106563D01*
X300966Y106804D01*
X300941Y106904D01*
X300924Y107004D01*
X300916Y107096D01*
X300908Y107171D01*
X300899Y107229D01*
Y107271D01*
Y107304D01*
Y107313D01*
X300908Y107479D01*
X300924Y107638D01*
X300949Y107788D01*
X300991Y107937D01*
X301033Y108071D01*
X301082Y108187D01*
X301133Y108304D01*
X301191Y108404D01*
X301241Y108496D01*
X301299Y108579D01*
X301349Y108646D01*
X301391Y108704D01*
X301432Y108754D01*
X301457Y108787D01*
X301474Y108804D01*
X301482Y108812D01*
X301591Y108912D01*
X301707Y109004D01*
X301824Y109079D01*
X301941Y109154D01*
X302066Y109204D01*
X302182Y109254D01*
X302290Y109295D01*
X302399Y109320D01*
X302507Y109345D01*
X302599Y109362D01*
X302682Y109379D01*
X302749Y109387D01*
X302807Y109395D01*
X302890D01*
X303007Y109387D01*
X303124Y109379D01*
X303349Y109329D01*
X303549Y109270D01*
X303732Y109195D01*
X303815Y109154D01*
X303882Y109121D01*
X303948Y109079D01*
X303998Y109054D01*
X304040Y109029D01*
X304073Y109004D01*
X304090Y108996D01*
X304098Y108987D01*
X303757Y110720D01*
X301199D01*
Y111470D01*
X304382D01*
X304998Y108179D01*
D02*
G37*
G36*
X277882Y111570D02*
X278015Y111561D01*
X278265Y111511D01*
X278482Y111437D01*
X278573Y111395D01*
X278665Y111362D01*
X278740Y111320D01*
X278815Y111278D01*
X278873Y111237D01*
X278923Y111203D01*
X278965Y111178D01*
X278990Y111153D01*
X279007Y111145D01*
X279015Y111137D01*
X279107Y111053D01*
X279190Y110962D01*
X279332Y110762D01*
X279440Y110562D01*
X279531Y110370D01*
X279565Y110279D01*
X279590Y110195D01*
X279615Y110112D01*
X279632Y110054D01*
X279648Y109995D01*
X279657Y109954D01*
X279665Y109929D01*
Y109920D01*
X278882Y109779D01*
X278840Y109979D01*
X278790Y110154D01*
X278723Y110303D01*
X278657Y110420D01*
X278598Y110520D01*
X278548Y110587D01*
X278515Y110620D01*
X278498Y110637D01*
X278374Y110737D01*
X278249Y110803D01*
X278115Y110853D01*
X277999Y110895D01*
X277890Y110912D01*
X277799Y110920D01*
X277765Y110928D01*
X277724D01*
X277557Y110920D01*
X277415Y110887D01*
X277282Y110837D01*
X277174Y110787D01*
X277090Y110728D01*
X277024Y110687D01*
X276991Y110653D01*
X276974Y110637D01*
X276874Y110528D01*
X276799Y110403D01*
X276749Y110287D01*
X276707Y110178D01*
X276691Y110079D01*
X276682Y110004D01*
X276674Y109945D01*
Y109937D01*
Y109929D01*
X276682Y109829D01*
X276691Y109737D01*
X276741Y109570D01*
X276799Y109429D01*
X276874Y109312D01*
X276949Y109229D01*
X277015Y109162D01*
X277066Y109129D01*
X277074Y109112D01*
X277082D01*
X277232Y109029D01*
X277390Y108962D01*
X277540Y108920D01*
X277682Y108887D01*
X277799Y108870D01*
X277899Y108862D01*
X277932Y108854D01*
X278024D01*
X278065Y108862D01*
X278090Y108870D01*
X278107D01*
X278199Y108179D01*
X278082Y108204D01*
X277974Y108229D01*
X277874Y108246D01*
X277790Y108254D01*
X277732Y108262D01*
X277640D01*
X277440Y108246D01*
X277265Y108204D01*
X277115Y108154D01*
X276982Y108087D01*
X276882Y108021D01*
X276807Y107971D01*
X276757Y107929D01*
X276741Y107913D01*
X276674Y107846D01*
X276624Y107771D01*
X276532Y107629D01*
X276466Y107479D01*
X276424Y107338D01*
X276399Y107213D01*
X276391Y107154D01*
Y107113D01*
X276382Y107071D01*
Y107046D01*
Y107029D01*
Y107021D01*
Y106921D01*
X276399Y106821D01*
X276441Y106638D01*
X276507Y106471D01*
X276574Y106338D01*
X276641Y106221D01*
X276707Y106138D01*
X276732Y106113D01*
X276749Y106088D01*
X276757Y106080D01*
X276766Y106071D01*
X276840Y106005D01*
X276915Y105946D01*
X277074Y105846D01*
X277232Y105780D01*
X277382Y105738D01*
X277507Y105705D01*
X277565Y105696D01*
X277615D01*
X277649Y105688D01*
X277707D01*
X277874Y105705D01*
X278032Y105738D01*
X278165Y105780D01*
X278282Y105838D01*
X278382Y105888D01*
X278449Y105938D01*
X278490Y105971D01*
X278507Y105980D01*
X278565Y106038D01*
X278615Y106105D01*
X278707Y106263D01*
X278790Y106421D01*
X278848Y106580D01*
X278898Y106729D01*
X278915Y106788D01*
X278932Y106846D01*
X278940Y106888D01*
X278948Y106921D01*
X278957Y106946D01*
Y106954D01*
X279740Y106846D01*
X279723Y106696D01*
X279690Y106554D01*
X279657Y106430D01*
X279606Y106305D01*
X279557Y106188D01*
X279506Y106080D01*
X279448Y105980D01*
X279398Y105888D01*
X279340Y105813D01*
X279290Y105738D01*
X279240Y105680D01*
X279198Y105630D01*
X279157Y105588D01*
X279132Y105563D01*
X279115Y105546D01*
X279107Y105538D01*
X278998Y105446D01*
X278890Y105371D01*
X278773Y105305D01*
X278648Y105246D01*
X278532Y105205D01*
X278415Y105163D01*
X278199Y105105D01*
X278099Y105080D01*
X277999Y105063D01*
X277915Y105055D01*
X277849Y105047D01*
X277790Y105038D01*
X277707D01*
X277532Y105047D01*
X277374Y105063D01*
X277215Y105088D01*
X277074Y105130D01*
X276932Y105171D01*
X276807Y105222D01*
X276691Y105272D01*
X276582Y105330D01*
X276491Y105380D01*
X276407Y105430D01*
X276332Y105480D01*
X276274Y105521D01*
X276224Y105563D01*
X276191Y105588D01*
X276174Y105605D01*
X276166Y105613D01*
X276057Y105721D01*
X275966Y105838D01*
X275882Y105963D01*
X275807Y106080D01*
X275749Y106205D01*
X275699Y106321D01*
X275658Y106438D01*
X275624Y106546D01*
X275599Y106646D01*
X275583Y106738D01*
X275566Y106821D01*
X275557Y106896D01*
X275549Y106954D01*
Y107004D01*
Y107029D01*
Y107038D01*
X275566Y107263D01*
X275599Y107454D01*
X275649Y107629D01*
X275707Y107779D01*
X275766Y107904D01*
X275791Y107946D01*
X275816Y107987D01*
X275833Y108021D01*
X275849Y108046D01*
X275866Y108054D01*
Y108062D01*
X275991Y108204D01*
X276141Y108321D01*
X276282Y108421D01*
X276424Y108496D01*
X276549Y108546D01*
X276607Y108571D01*
X276657Y108587D01*
X276691Y108596D01*
X276724Y108604D01*
X276741Y108612D01*
X276749D01*
X276599Y108696D01*
X276466Y108779D01*
X276349Y108870D01*
X276257Y108962D01*
X276182Y109037D01*
X276132Y109095D01*
X276099Y109137D01*
X276091Y109154D01*
X276016Y109287D01*
X275957Y109420D01*
X275924Y109545D01*
X275891Y109662D01*
X275874Y109762D01*
X275866Y109845D01*
Y109895D01*
Y109904D01*
Y109912D01*
X275874Y110070D01*
X275899Y110220D01*
X275941Y110362D01*
X275982Y110487D01*
X276032Y110587D01*
X276066Y110670D01*
X276099Y110720D01*
X276107Y110728D01*
Y110737D01*
X276199Y110878D01*
X276307Y110995D01*
X276424Y111103D01*
X276532Y111195D01*
X276632Y111262D01*
X276707Y111312D01*
X276741Y111328D01*
X276766Y111345D01*
X276774Y111353D01*
X276782D01*
X276949Y111428D01*
X277115Y111487D01*
X277274Y111520D01*
X277424Y111553D01*
X277549Y111570D01*
X277607D01*
X277649Y111578D01*
X277740D01*
X277882Y111570D01*
D02*
G37*
G36*
X37669Y-85093D02*
X37894Y-85118D01*
X38094Y-85160D01*
X38269Y-85193D01*
X38344Y-85218D01*
X38410Y-85235D01*
X38469Y-85260D01*
X38519Y-85277D01*
X38560Y-85285D01*
X38585Y-85302D01*
X38602Y-85310D01*
X38610D01*
X38793Y-85402D01*
X38960Y-85502D01*
X39093Y-85610D01*
X39210Y-85710D01*
X39293Y-85801D01*
X39360Y-85885D01*
X39393Y-85935D01*
X39410Y-85943D01*
Y-85951D01*
X39502Y-86110D01*
X39568Y-86268D01*
X39618Y-86418D01*
X39652Y-86560D01*
X39668Y-86685D01*
X39677Y-86776D01*
X39685Y-86810D01*
Y-86834D01*
Y-86851D01*
Y-86860D01*
X39677Y-87018D01*
X39652Y-87168D01*
X39618Y-87309D01*
X39577Y-87426D01*
X39535Y-87526D01*
X39502Y-87593D01*
X39477Y-87643D01*
X39468Y-87651D01*
Y-87659D01*
X39377Y-87784D01*
X39268Y-87901D01*
X39152Y-88001D01*
X39044Y-88084D01*
X38944Y-88159D01*
X38860Y-88209D01*
X38827Y-88226D01*
X38802Y-88243D01*
X38793Y-88251D01*
X38785D01*
X38710Y-88284D01*
X38627Y-88326D01*
X38444Y-88392D01*
X38235Y-88468D01*
X38035Y-88526D01*
X37844Y-88584D01*
X37769Y-88601D01*
X37694Y-88626D01*
X37636Y-88634D01*
X37594Y-88651D01*
X37561Y-88659D01*
X37552D01*
X37394Y-88701D01*
X37252Y-88734D01*
X37119Y-88767D01*
X37002Y-88792D01*
X36894Y-88826D01*
X36802Y-88851D01*
X36719Y-88867D01*
X36652Y-88892D01*
X36586Y-88909D01*
X36536Y-88926D01*
X36494Y-88934D01*
X36461Y-88951D01*
X36428Y-88959D01*
X36411Y-88967D01*
X36269Y-89026D01*
X36153Y-89092D01*
X36053Y-89151D01*
X35969Y-89209D01*
X35911Y-89259D01*
X35869Y-89301D01*
X35844Y-89334D01*
X35836Y-89342D01*
X35778Y-89426D01*
X35728Y-89517D01*
X35694Y-89609D01*
X35678Y-89692D01*
X35661Y-89759D01*
X35653Y-89817D01*
Y-89850D01*
Y-89867D01*
X35661Y-89975D01*
X35678Y-90075D01*
X35711Y-90167D01*
X35744Y-90250D01*
X35778Y-90317D01*
X35811Y-90375D01*
X35828Y-90409D01*
X35836Y-90417D01*
X35911Y-90509D01*
X36003Y-90584D01*
X36094Y-90650D01*
X36186Y-90709D01*
X36269Y-90750D01*
X36336Y-90784D01*
X36377Y-90800D01*
X36386Y-90808D01*
X36394D01*
X36536Y-90858D01*
X36677Y-90892D01*
X36827Y-90917D01*
X36952Y-90934D01*
X37069Y-90942D01*
X37161Y-90950D01*
X37244D01*
X37444Y-90942D01*
X37627Y-90925D01*
X37794Y-90892D01*
X37935Y-90858D01*
X38060Y-90825D01*
X38110Y-90808D01*
X38152Y-90792D01*
X38185Y-90784D01*
X38210Y-90775D01*
X38219Y-90767D01*
X38227D01*
X38377Y-90692D01*
X38510Y-90609D01*
X38619Y-90525D01*
X38710Y-90442D01*
X38777Y-90375D01*
X38827Y-90317D01*
X38860Y-90284D01*
X38869Y-90267D01*
X38935Y-90142D01*
X38993Y-90009D01*
X39044Y-89875D01*
X39077Y-89750D01*
X39102Y-89634D01*
X39118Y-89551D01*
Y-89517D01*
X39127Y-89492D01*
Y-89475D01*
Y-89467D01*
X39927Y-89534D01*
X39910Y-89767D01*
X39868Y-89992D01*
X39810Y-90184D01*
X39743Y-90359D01*
X39710Y-90434D01*
X39685Y-90500D01*
X39652Y-90550D01*
X39627Y-90600D01*
X39610Y-90642D01*
X39593Y-90667D01*
X39577Y-90684D01*
Y-90692D01*
X39443Y-90867D01*
X39293Y-91025D01*
X39144Y-91158D01*
X38993Y-91267D01*
X38860Y-91350D01*
X38802Y-91383D01*
X38760Y-91408D01*
X38719Y-91433D01*
X38685Y-91450D01*
X38669Y-91458D01*
X38660D01*
X38427Y-91542D01*
X38185Y-91600D01*
X37935Y-91650D01*
X37710Y-91675D01*
X37602Y-91683D01*
X37510Y-91692D01*
X37419Y-91700D01*
X37344D01*
X37286Y-91708D01*
X37202D01*
X36952Y-91700D01*
X36719Y-91667D01*
X36511Y-91625D01*
X36336Y-91583D01*
X36253Y-91558D01*
X36186Y-91533D01*
X36128Y-91517D01*
X36069Y-91500D01*
X36036Y-91483D01*
X36003Y-91467D01*
X35986Y-91458D01*
X35978D01*
X35786Y-91358D01*
X35611Y-91242D01*
X35469Y-91125D01*
X35353Y-91017D01*
X35261Y-90917D01*
X35186Y-90834D01*
X35169Y-90800D01*
X35153Y-90775D01*
X35136Y-90767D01*
Y-90758D01*
X35036Y-90592D01*
X34961Y-90417D01*
X34911Y-90259D01*
X34870Y-90109D01*
X34853Y-89984D01*
X34845Y-89934D01*
Y-89884D01*
X34836Y-89850D01*
Y-89825D01*
Y-89809D01*
Y-89801D01*
X34845Y-89609D01*
X34878Y-89442D01*
X34920Y-89284D01*
X34969Y-89151D01*
X35028Y-89042D01*
X35069Y-88959D01*
X35086Y-88934D01*
X35103Y-88909D01*
X35111Y-88901D01*
Y-88892D01*
X35220Y-88751D01*
X35353Y-88617D01*
X35486Y-88509D01*
X35619Y-88409D01*
X35744Y-88334D01*
X35844Y-88284D01*
X35886Y-88259D01*
X35911Y-88243D01*
X35928Y-88234D01*
X35936D01*
X36011Y-88201D01*
X36103Y-88167D01*
X36211Y-88134D01*
X36319Y-88093D01*
X36553Y-88026D01*
X36786Y-87968D01*
X36902Y-87934D01*
X37002Y-87909D01*
X37102Y-87884D01*
X37186Y-87868D01*
X37252Y-87851D01*
X37311Y-87834D01*
X37344Y-87826D01*
X37352D01*
X37536Y-87784D01*
X37702Y-87743D01*
X37852Y-87701D01*
X37985Y-87659D01*
X38102Y-87618D01*
X38202Y-87584D01*
X38294Y-87543D01*
X38377Y-87509D01*
X38435Y-87484D01*
X38494Y-87459D01*
X38535Y-87434D01*
X38569Y-87409D01*
X38594Y-87401D01*
X38610Y-87384D01*
X38627Y-87376D01*
X38710Y-87284D01*
X38769Y-87193D01*
X38810Y-87101D01*
X38835Y-87009D01*
X38852Y-86926D01*
X38869Y-86868D01*
Y-86826D01*
Y-86810D01*
X38852Y-86668D01*
X38810Y-86535D01*
X38760Y-86418D01*
X38694Y-86318D01*
X38627Y-86235D01*
X38577Y-86176D01*
X38535Y-86143D01*
X38519Y-86126D01*
X38452Y-86076D01*
X38369Y-86035D01*
X38194Y-85960D01*
X38010Y-85910D01*
X37827Y-85877D01*
X37661Y-85860D01*
X37594Y-85851D01*
X37527Y-85843D01*
X37269D01*
X37144Y-85860D01*
X37027Y-85868D01*
X36919Y-85893D01*
X36819Y-85918D01*
X36727Y-85943D01*
X36644Y-85968D01*
X36569Y-85993D01*
X36511Y-86026D01*
X36453Y-86051D01*
X36402Y-86076D01*
X36361Y-86101D01*
X36336Y-86126D01*
X36311Y-86135D01*
X36294Y-86151D01*
X36161Y-86276D01*
X36061Y-86426D01*
X35986Y-86576D01*
X35928Y-86718D01*
X35886Y-86851D01*
X35869Y-86910D01*
X35861Y-86959D01*
X35853Y-87001D01*
X35844Y-87035D01*
Y-87051D01*
Y-87059D01*
X35028Y-87001D01*
X35045Y-86801D01*
X35086Y-86610D01*
X35136Y-86443D01*
X35194Y-86293D01*
X35253Y-86168D01*
X35278Y-86118D01*
X35294Y-86076D01*
X35319Y-86043D01*
X35328Y-86018D01*
X35344Y-86010D01*
Y-86001D01*
X35461Y-85843D01*
X35603Y-85702D01*
X35736Y-85585D01*
X35878Y-85493D01*
X35994Y-85418D01*
X36094Y-85360D01*
X36136Y-85343D01*
X36161Y-85327D01*
X36178Y-85318D01*
X36186D01*
X36394Y-85243D01*
X36611Y-85185D01*
X36819Y-85143D01*
X37011Y-85110D01*
X37102Y-85102D01*
X37186Y-85093D01*
X37252D01*
X37319Y-85085D01*
X37436D01*
X37669Y-85093D01*
D02*
G37*
G36*
X34161Y-85951D02*
X32054D01*
Y-91600D01*
X31204D01*
Y-85951D01*
X29096D01*
Y-85193D01*
X34161D01*
Y-85951D01*
D02*
G37*
G36*
X66542Y-85177D02*
X66675Y-85185D01*
X66925Y-85235D01*
X67142Y-85310D01*
X67234Y-85352D01*
X67325Y-85385D01*
X67400Y-85427D01*
X67475Y-85468D01*
X67533Y-85510D01*
X67583Y-85543D01*
X67625Y-85568D01*
X67650Y-85593D01*
X67667Y-85602D01*
X67675Y-85610D01*
X67767Y-85693D01*
X67850Y-85785D01*
X67992Y-85985D01*
X68100Y-86185D01*
X68192Y-86376D01*
X68225Y-86468D01*
X68250Y-86551D01*
X68275Y-86635D01*
X68292Y-86693D01*
X68308Y-86751D01*
X68317Y-86793D01*
X68325Y-86818D01*
Y-86826D01*
X67542Y-86968D01*
X67500Y-86768D01*
X67450Y-86593D01*
X67384Y-86443D01*
X67317Y-86326D01*
X67259Y-86226D01*
X67209Y-86160D01*
X67175Y-86126D01*
X67159Y-86110D01*
X67034Y-86010D01*
X66909Y-85943D01*
X66775Y-85893D01*
X66659Y-85851D01*
X66550Y-85835D01*
X66459Y-85827D01*
X66425Y-85818D01*
X66384D01*
X66217Y-85827D01*
X66076Y-85860D01*
X65942Y-85910D01*
X65834Y-85960D01*
X65751Y-86018D01*
X65684Y-86060D01*
X65651Y-86093D01*
X65634Y-86110D01*
X65534Y-86218D01*
X65459Y-86343D01*
X65409Y-86460D01*
X65367Y-86568D01*
X65351Y-86668D01*
X65342Y-86743D01*
X65334Y-86801D01*
Y-86810D01*
Y-86818D01*
X65342Y-86918D01*
X65351Y-87009D01*
X65401Y-87176D01*
X65459Y-87318D01*
X65534Y-87434D01*
X65609Y-87518D01*
X65676Y-87584D01*
X65726Y-87618D01*
X65734Y-87634D01*
X65742D01*
X65892Y-87718D01*
X66051Y-87784D01*
X66201Y-87826D01*
X66342Y-87859D01*
X66459Y-87876D01*
X66559Y-87884D01*
X66592Y-87893D01*
X66684D01*
X66725Y-87884D01*
X66750Y-87876D01*
X66767D01*
X66859Y-88567D01*
X66742Y-88542D01*
X66634Y-88518D01*
X66534Y-88501D01*
X66451Y-88492D01*
X66392Y-88484D01*
X66301D01*
X66101Y-88501D01*
X65926Y-88542D01*
X65776Y-88592D01*
X65642Y-88659D01*
X65542Y-88726D01*
X65467Y-88776D01*
X65417Y-88817D01*
X65401Y-88834D01*
X65334Y-88901D01*
X65284Y-88976D01*
X65192Y-89117D01*
X65126Y-89267D01*
X65084Y-89409D01*
X65059Y-89534D01*
X65051Y-89592D01*
Y-89634D01*
X65043Y-89676D01*
Y-89700D01*
Y-89717D01*
Y-89726D01*
Y-89825D01*
X65059Y-89925D01*
X65101Y-90109D01*
X65167Y-90275D01*
X65234Y-90409D01*
X65301Y-90525D01*
X65367Y-90609D01*
X65392Y-90634D01*
X65409Y-90659D01*
X65417Y-90667D01*
X65426Y-90675D01*
X65501Y-90742D01*
X65576Y-90800D01*
X65734Y-90900D01*
X65892Y-90967D01*
X66042Y-91009D01*
X66167Y-91042D01*
X66226Y-91050D01*
X66276D01*
X66309Y-91059D01*
X66367D01*
X66534Y-91042D01*
X66692Y-91009D01*
X66825Y-90967D01*
X66942Y-90908D01*
X67042Y-90858D01*
X67109Y-90808D01*
X67150Y-90775D01*
X67167Y-90767D01*
X67225Y-90709D01*
X67275Y-90642D01*
X67367Y-90484D01*
X67450Y-90325D01*
X67509Y-90167D01*
X67558Y-90017D01*
X67575Y-89959D01*
X67592Y-89900D01*
X67600Y-89859D01*
X67608Y-89825D01*
X67617Y-89801D01*
Y-89792D01*
X68400Y-89900D01*
X68383Y-90050D01*
X68350Y-90192D01*
X68317Y-90317D01*
X68267Y-90442D01*
X68217Y-90559D01*
X68167Y-90667D01*
X68108Y-90767D01*
X68058Y-90858D01*
X68000Y-90934D01*
X67950Y-91009D01*
X67900Y-91067D01*
X67859Y-91117D01*
X67817Y-91158D01*
X67792Y-91183D01*
X67775Y-91200D01*
X67767Y-91208D01*
X67659Y-91300D01*
X67550Y-91375D01*
X67434Y-91442D01*
X67309Y-91500D01*
X67192Y-91542D01*
X67075Y-91583D01*
X66859Y-91642D01*
X66759Y-91667D01*
X66659Y-91683D01*
X66575Y-91692D01*
X66509Y-91700D01*
X66451Y-91708D01*
X66367D01*
X66192Y-91700D01*
X66034Y-91683D01*
X65876Y-91658D01*
X65734Y-91617D01*
X65592Y-91575D01*
X65467Y-91525D01*
X65351Y-91475D01*
X65243Y-91417D01*
X65151Y-91367D01*
X65068Y-91317D01*
X64992Y-91267D01*
X64934Y-91225D01*
X64884Y-91183D01*
X64851Y-91158D01*
X64834Y-91142D01*
X64826Y-91133D01*
X64718Y-91025D01*
X64626Y-90908D01*
X64543Y-90784D01*
X64468Y-90667D01*
X64409Y-90542D01*
X64359Y-90425D01*
X64318Y-90309D01*
X64284Y-90200D01*
X64259Y-90100D01*
X64243Y-90009D01*
X64226Y-89925D01*
X64218Y-89850D01*
X64209Y-89792D01*
Y-89742D01*
Y-89717D01*
Y-89709D01*
X64226Y-89484D01*
X64259Y-89292D01*
X64309Y-89117D01*
X64368Y-88967D01*
X64426Y-88842D01*
X64451Y-88801D01*
X64476Y-88759D01*
X64493Y-88726D01*
X64509Y-88701D01*
X64526Y-88692D01*
Y-88684D01*
X64651Y-88542D01*
X64801Y-88426D01*
X64942Y-88326D01*
X65084Y-88251D01*
X65209Y-88201D01*
X65268Y-88176D01*
X65317Y-88159D01*
X65351Y-88151D01*
X65384Y-88142D01*
X65401Y-88134D01*
X65409D01*
X65259Y-88051D01*
X65126Y-87968D01*
X65009Y-87876D01*
X64917Y-87784D01*
X64843Y-87709D01*
X64793Y-87651D01*
X64759Y-87609D01*
X64751Y-87593D01*
X64676Y-87459D01*
X64618Y-87326D01*
X64584Y-87201D01*
X64551Y-87085D01*
X64534Y-86985D01*
X64526Y-86901D01*
Y-86851D01*
Y-86843D01*
Y-86834D01*
X64534Y-86676D01*
X64559Y-86526D01*
X64601Y-86385D01*
X64643Y-86260D01*
X64693Y-86160D01*
X64726Y-86076D01*
X64759Y-86026D01*
X64768Y-86018D01*
Y-86010D01*
X64859Y-85868D01*
X64967Y-85751D01*
X65084Y-85643D01*
X65192Y-85552D01*
X65293Y-85485D01*
X65367Y-85435D01*
X65401Y-85418D01*
X65426Y-85402D01*
X65434Y-85393D01*
X65442D01*
X65609Y-85318D01*
X65776Y-85260D01*
X65934Y-85227D01*
X66084Y-85193D01*
X66209Y-85177D01*
X66267D01*
X66309Y-85168D01*
X66400D01*
X66542Y-85177D01*
D02*
G37*
G36*
X116635Y-91600D02*
X115819D01*
Y-86576D01*
X112461Y-91600D01*
X111587D01*
Y-85193D01*
X112403D01*
Y-90225D01*
X115769Y-85193D01*
X116635D01*
Y-91600D01*
D02*
G37*
G36*
X61285D02*
X60402D01*
X57903Y-85193D01*
X58761D01*
X60494Y-89850D01*
X60569Y-90042D01*
X60635Y-90234D01*
X60694Y-90417D01*
X60744Y-90575D01*
X60785Y-90709D01*
X60802Y-90758D01*
X60819Y-90808D01*
X60827Y-90850D01*
X60835Y-90875D01*
X60844Y-90892D01*
Y-90900D01*
X60894Y-90717D01*
X60952Y-90525D01*
X61010Y-90350D01*
X61060Y-90192D01*
X61110Y-90050D01*
X61127Y-89992D01*
X61143Y-89942D01*
X61160Y-89909D01*
X61168Y-89875D01*
X61177Y-89859D01*
Y-89850D01*
X62843Y-85193D01*
X63768D01*
X61285Y-91600D01*
D02*
G37*
G36*
X383647Y111570D02*
X383806Y111561D01*
X383956Y111537D01*
X384089Y111503D01*
X384222Y111470D01*
X384339Y111428D01*
X384447Y111387D01*
X384547Y111345D01*
X384639Y111295D01*
X384714Y111253D01*
X384781Y111212D01*
X384839Y111178D01*
X384881Y111145D01*
X384914Y111120D01*
X384930Y111112D01*
X384939Y111103D01*
X385039Y111012D01*
X385122Y110912D01*
X385197Y110803D01*
X385264Y110687D01*
X385322Y110578D01*
X385372Y110462D01*
X385447Y110237D01*
X385480Y110137D01*
X385505Y110037D01*
X385522Y109954D01*
X385539Y109879D01*
X385547Y109812D01*
Y109770D01*
X385555Y109737D01*
Y109729D01*
X384747Y109645D01*
X384731Y109862D01*
X384697Y110045D01*
X384639Y110204D01*
X384572Y110345D01*
X384514Y110445D01*
X384456Y110528D01*
X384422Y110570D01*
X384406Y110587D01*
X384272Y110703D01*
X384122Y110787D01*
X383964Y110845D01*
X383823Y110887D01*
X383698Y110912D01*
X383639Y110920D01*
X383589D01*
X383556Y110928D01*
X383498D01*
X383306Y110912D01*
X383131Y110878D01*
X382981Y110828D01*
X382856Y110770D01*
X382756Y110703D01*
X382681Y110653D01*
X382640Y110620D01*
X382623Y110603D01*
X382506Y110478D01*
X382423Y110345D01*
X382365Y110220D01*
X382323Y110095D01*
X382298Y109987D01*
X382290Y109895D01*
X382281Y109862D01*
Y109845D01*
Y109829D01*
Y109820D01*
Y109737D01*
X382298Y109654D01*
X382340Y109479D01*
X382398Y109320D01*
X382464Y109179D01*
X382539Y109054D01*
X382573Y109004D01*
X382598Y108954D01*
X382623Y108920D01*
X382640Y108896D01*
X382648Y108879D01*
X382656Y108870D01*
X382731Y108771D01*
X382823Y108671D01*
X382923Y108562D01*
X383031Y108446D01*
X383264Y108221D01*
X383498Y108004D01*
X383606Y107904D01*
X383714Y107812D01*
X383814Y107729D01*
X383898Y107654D01*
X383964Y107596D01*
X384022Y107554D01*
X384056Y107521D01*
X384064Y107513D01*
X384306Y107313D01*
X384514Y107129D01*
X384689Y106963D01*
X384831Y106821D01*
X384947Y106704D01*
X385031Y106613D01*
X385056Y106580D01*
X385080Y106554D01*
X385089Y106546D01*
X385097Y106538D01*
X385222Y106379D01*
X385330Y106230D01*
X385414Y106088D01*
X385489Y105955D01*
X385547Y105846D01*
X385580Y105763D01*
X385597Y105730D01*
X385605Y105705D01*
X385614Y105696D01*
Y105688D01*
X385647Y105588D01*
X385672Y105496D01*
X385689Y105405D01*
X385697Y105322D01*
X385705Y105246D01*
Y105197D01*
Y105163D01*
Y105147D01*
X381465D01*
Y105905D01*
X384614D01*
X384506Y106055D01*
X384447Y106130D01*
X384397Y106188D01*
X384347Y106246D01*
X384314Y106288D01*
X384289Y106313D01*
X384281Y106321D01*
X384239Y106363D01*
X384181Y106421D01*
X384122Y106480D01*
X384056Y106538D01*
X383906Y106671D01*
X383747Y106804D01*
X383606Y106929D01*
X383539Y106988D01*
X383489Y107038D01*
X383439Y107071D01*
X383406Y107104D01*
X383381Y107121D01*
X383373Y107129D01*
X383223Y107263D01*
X383073Y107388D01*
X382948Y107496D01*
X382823Y107604D01*
X382714Y107704D01*
X382615Y107804D01*
X382523Y107887D01*
X382448Y107962D01*
X382373Y108029D01*
X382315Y108087D01*
X382265Y108137D01*
X382223Y108179D01*
X382198Y108212D01*
X382173Y108237D01*
X382156Y108246D01*
Y108254D01*
X382031Y108404D01*
X381923Y108554D01*
X381831Y108687D01*
X381756Y108804D01*
X381698Y108896D01*
X381665Y108970D01*
X381640Y109021D01*
X381631Y109037D01*
X381581Y109179D01*
X381540Y109312D01*
X381515Y109445D01*
X381490Y109554D01*
X381481Y109654D01*
X381473Y109729D01*
Y109779D01*
Y109795D01*
X381481Y109937D01*
X381498Y110070D01*
X381523Y110195D01*
X381556Y110312D01*
X381648Y110528D01*
X381690Y110628D01*
X381740Y110712D01*
X381798Y110795D01*
X381840Y110862D01*
X381890Y110920D01*
X381931Y110970D01*
X381965Y111012D01*
X381990Y111037D01*
X382006Y111053D01*
X382015Y111062D01*
X382123Y111153D01*
X382231Y111228D01*
X382348Y111303D01*
X382473Y111362D01*
X382598Y111412D01*
X382714Y111453D01*
X382948Y111511D01*
X383056Y111537D01*
X383156Y111553D01*
X383248Y111561D01*
X383331Y111570D01*
X383389Y111578D01*
X383481D01*
X383647Y111570D01*
D02*
G37*
G36*
X436514Y107404D02*
Y106679D01*
X433731D01*
Y105147D01*
X432948D01*
Y106679D01*
X432081D01*
Y107404D01*
X432948D01*
Y111553D01*
X433589D01*
X436514Y107404D01*
D02*
G37*
G36*
X358556Y111420D02*
X358664Y111270D01*
X358781Y111120D01*
X358889Y110995D01*
X358997Y110878D01*
X359081Y110795D01*
X359114Y110762D01*
X359139Y110737D01*
X359156Y110728D01*
X359164Y110720D01*
X359356Y110562D01*
X359547Y110420D01*
X359747Y110287D01*
X359922Y110178D01*
X360080Y110095D01*
X360147Y110054D01*
X360205Y110029D01*
X360247Y110004D01*
X360280Y109987D01*
X360305Y109970D01*
X360314D01*
Y109204D01*
X360172Y109262D01*
X360030Y109329D01*
X359889Y109395D01*
X359764Y109462D01*
X359655Y109520D01*
X359564Y109570D01*
X359530Y109587D01*
X359506Y109604D01*
X359497Y109612D01*
X359489D01*
X359322Y109712D01*
X359181Y109812D01*
X359047Y109904D01*
X358939Y109987D01*
X358856Y110054D01*
X358789Y110112D01*
X358756Y110145D01*
X358739Y110154D01*
Y105147D01*
X357956D01*
Y111578D01*
X358464D01*
X358556Y111420D01*
D02*
G37*
G36*
X333081Y111561D02*
X333306Y111520D01*
X333506Y111462D01*
X333672Y111395D01*
X333747Y111353D01*
X333806Y111320D01*
X333864Y111287D01*
X333906Y111262D01*
X333939Y111237D01*
X333964Y111220D01*
X333981Y111212D01*
X333989Y111203D01*
X334147Y111053D01*
X334289Y110878D01*
X334406Y110695D01*
X334506Y110528D01*
X334580Y110370D01*
X334614Y110303D01*
X334639Y110245D01*
X334655Y110195D01*
X334672Y110162D01*
X334680Y110137D01*
Y110129D01*
X334722Y109995D01*
X334755Y109854D01*
X334814Y109554D01*
X334855Y109246D01*
X334880Y108954D01*
X334897Y108821D01*
Y108696D01*
X334905Y108587D01*
X334914Y108496D01*
Y108412D01*
Y108354D01*
Y108321D01*
Y108304D01*
X334905Y107979D01*
X334889Y107671D01*
X334855Y107396D01*
X334814Y107138D01*
X334772Y106896D01*
X334714Y106688D01*
X334655Y106496D01*
X334597Y106321D01*
X334539Y106171D01*
X334489Y106046D01*
X334431Y105938D01*
X334389Y105846D01*
X334347Y105780D01*
X334314Y105738D01*
X334297Y105705D01*
X334289Y105696D01*
X334180Y105580D01*
X334072Y105480D01*
X333956Y105388D01*
X333839Y105313D01*
X333714Y105255D01*
X333589Y105197D01*
X333472Y105155D01*
X333356Y105121D01*
X333247Y105097D01*
X333148Y105071D01*
X333064Y105055D01*
X332981Y105047D01*
X332923D01*
X332873Y105038D01*
X332831D01*
X332706Y105047D01*
X332581Y105055D01*
X332356Y105097D01*
X332156Y105155D01*
X331989Y105230D01*
X331914Y105263D01*
X331856Y105296D01*
X331798Y105330D01*
X331756Y105355D01*
X331723Y105380D01*
X331689Y105396D01*
X331681Y105413D01*
X331673D01*
X331506Y105563D01*
X331365Y105738D01*
X331248Y105913D01*
X331148Y106088D01*
X331073Y106238D01*
X331040Y106305D01*
X331015Y106363D01*
X330998Y106413D01*
X330981Y106446D01*
X330973Y106471D01*
Y106480D01*
X330931Y106613D01*
X330898Y106754D01*
X330840Y107054D01*
X330798Y107363D01*
X330765Y107654D01*
X330756Y107788D01*
X330748Y107913D01*
Y108021D01*
X330740Y108112D01*
Y108196D01*
Y108254D01*
Y108287D01*
Y108304D01*
Y108479D01*
X330748Y108646D01*
X330756Y108796D01*
X330765Y108937D01*
X330773Y109079D01*
X330790Y109195D01*
X330798Y109312D01*
X330815Y109412D01*
X330831Y109504D01*
X330840Y109587D01*
X330856Y109654D01*
X330865Y109712D01*
X330873Y109754D01*
X330881Y109787D01*
X330890Y109804D01*
Y109812D01*
X330948Y110012D01*
X331006Y110204D01*
X331073Y110362D01*
X331140Y110504D01*
X331198Y110620D01*
X331240Y110703D01*
X331256Y110728D01*
X331273Y110753D01*
X331281Y110762D01*
Y110770D01*
X331381Y110912D01*
X331490Y111028D01*
X331598Y111128D01*
X331698Y111220D01*
X331790Y111287D01*
X331856Y111328D01*
X331906Y111362D01*
X331914Y111370D01*
X331923D01*
X332073Y111437D01*
X332231Y111487D01*
X332381Y111528D01*
X332523Y111553D01*
X332648Y111570D01*
X332698D01*
X332748Y111578D01*
X332956D01*
X333081Y111561D01*
D02*
G37*
G36*
X353865Y111570D02*
X354040Y111545D01*
X354207Y111511D01*
X354365Y111462D01*
X354507Y111403D01*
X354640Y111345D01*
X354765Y111278D01*
X354873Y111212D01*
X354965Y111137D01*
X355057Y111070D01*
X355132Y111012D01*
X355190Y110953D01*
X355240Y110903D01*
X355273Y110870D01*
X355290Y110845D01*
X355298Y110837D01*
X355415Y110670D01*
X355523Y110478D01*
X355615Y110279D01*
X355690Y110062D01*
X355756Y109837D01*
X355815Y109612D01*
X355857Y109387D01*
X355898Y109171D01*
X355923Y108962D01*
X355948Y108771D01*
X355956Y108596D01*
X355973Y108437D01*
Y108312D01*
X355981Y108262D01*
Y108221D01*
Y108187D01*
Y108162D01*
Y108146D01*
Y108137D01*
X355973Y107837D01*
X355956Y107563D01*
X355923Y107304D01*
X355882Y107063D01*
X355840Y106854D01*
X355790Y106654D01*
X355732Y106480D01*
X355673Y106321D01*
X355615Y106188D01*
X355557Y106071D01*
X355507Y105971D01*
X355465Y105896D01*
X355423Y105830D01*
X355390Y105788D01*
X355373Y105763D01*
X355365Y105755D01*
X355240Y105630D01*
X355115Y105521D01*
X354982Y105421D01*
X354848Y105338D01*
X354715Y105272D01*
X354582Y105213D01*
X354449Y105163D01*
X354324Y105130D01*
X354207Y105097D01*
X354099Y105080D01*
X354007Y105063D01*
X353924Y105047D01*
X353849D01*
X353799Y105038D01*
X353757D01*
X353549Y105047D01*
X353357Y105080D01*
X353182Y105121D01*
X353032Y105180D01*
X352907Y105230D01*
X352857Y105246D01*
X352807Y105272D01*
X352774Y105288D01*
X352749Y105305D01*
X352741Y105313D01*
X352732D01*
X352566Y105430D01*
X352424Y105555D01*
X352307Y105688D01*
X352199Y105813D01*
X352124Y105930D01*
X352066Y106021D01*
X352041Y106055D01*
X352024Y106080D01*
X352016Y106096D01*
Y106105D01*
X351924Y106305D01*
X351857Y106496D01*
X351816Y106688D01*
X351782Y106854D01*
X351766Y107004D01*
X351758Y107063D01*
X351749Y107121D01*
Y107163D01*
Y107196D01*
Y107213D01*
Y107221D01*
X351758Y107388D01*
X351774Y107546D01*
X351799Y107696D01*
X351833Y107846D01*
X351883Y107979D01*
X351924Y108096D01*
X351974Y108212D01*
X352024Y108312D01*
X352082Y108404D01*
X352132Y108487D01*
X352174Y108554D01*
X352216Y108612D01*
X352257Y108662D01*
X352282Y108696D01*
X352299Y108712D01*
X352307Y108721D01*
X352416Y108821D01*
X352524Y108912D01*
X352632Y108987D01*
X352749Y109062D01*
X352866Y109112D01*
X352974Y109162D01*
X353082Y109204D01*
X353182Y109229D01*
X353282Y109254D01*
X353366Y109270D01*
X353449Y109287D01*
X353515Y109295D01*
X353574Y109304D01*
X353649D01*
X353815Y109295D01*
X353974Y109270D01*
X354115Y109237D01*
X354249Y109195D01*
X354357Y109154D01*
X354432Y109121D01*
X354465Y109104D01*
X354490Y109095D01*
X354498Y109087D01*
X354507D01*
X354657Y109004D01*
X354790Y108896D01*
X354907Y108796D01*
X355007Y108687D01*
X355090Y108596D01*
X355148Y108521D01*
X355182Y108462D01*
X355198Y108454D01*
Y108621D01*
X355190Y108787D01*
X355173Y108946D01*
X355157Y109087D01*
X355140Y109221D01*
X355123Y109337D01*
X355107Y109454D01*
X355090Y109554D01*
X355065Y109637D01*
X355048Y109712D01*
X355032Y109779D01*
X355015Y109837D01*
X354998Y109879D01*
X354990Y109904D01*
X354982Y109920D01*
Y109929D01*
X354890Y110112D01*
X354798Y110270D01*
X354698Y110403D01*
X354607Y110512D01*
X354524Y110603D01*
X354457Y110662D01*
X354415Y110703D01*
X354398Y110712D01*
X354282Y110787D01*
X354174Y110837D01*
X354057Y110878D01*
X353957Y110903D01*
X353865Y110920D01*
X353799Y110928D01*
X353732D01*
X353565Y110912D01*
X353407Y110878D01*
X353274Y110820D01*
X353157Y110762D01*
X353065Y110703D01*
X352999Y110645D01*
X352957Y110612D01*
X352941Y110595D01*
X352874Y110504D01*
X352816Y110403D01*
X352757Y110295D01*
X352716Y110187D01*
X352682Y110087D01*
X352657Y110004D01*
X352649Y109970D01*
Y109945D01*
X352641Y109937D01*
Y109929D01*
X351857Y109987D01*
X351883Y110120D01*
X351908Y110253D01*
X351991Y110478D01*
X352041Y110587D01*
X352082Y110678D01*
X352132Y110770D01*
X352182Y110845D01*
X352232Y110920D01*
X352282Y110978D01*
X352324Y111028D01*
X352366Y111078D01*
X352399Y111112D01*
X352416Y111137D01*
X352432Y111145D01*
X352441Y111153D01*
X352532Y111228D01*
X352632Y111295D01*
X352732Y111353D01*
X352841Y111403D01*
X353049Y111478D01*
X353241Y111528D01*
X353332Y111545D01*
X353415Y111553D01*
X353490Y111561D01*
X353557Y111570D01*
X353607Y111578D01*
X353682D01*
X353865Y111570D01*
D02*
G37*
G36*
X148492Y-91600D02*
X147600D01*
X146900Y-89659D01*
X144218D01*
X143476Y-91600D01*
X142518D01*
X145126Y-85193D01*
X146051D01*
X148492Y-91600D01*
D02*
G37*
G36*
X132896Y-85102D02*
X133187Y-85143D01*
X133454Y-85210D01*
X133570Y-85243D01*
X133687Y-85277D01*
X133787Y-85318D01*
X133879Y-85352D01*
X133954Y-85385D01*
X134020Y-85418D01*
X134070Y-85443D01*
X134112Y-85460D01*
X134137Y-85468D01*
X134145Y-85477D01*
X134270Y-85552D01*
X134395Y-85635D01*
X134612Y-85818D01*
X134803Y-86001D01*
X134953Y-86185D01*
X135020Y-86276D01*
X135078Y-86351D01*
X135128Y-86426D01*
X135162Y-86485D01*
X135195Y-86535D01*
X135220Y-86576D01*
X135228Y-86601D01*
X135237Y-86610D01*
X135303Y-86751D01*
X135362Y-86901D01*
X135453Y-87193D01*
X135520Y-87484D01*
X135545Y-87626D01*
X135562Y-87759D01*
X135578Y-87884D01*
X135595Y-87993D01*
X135603Y-88093D01*
Y-88184D01*
X135612Y-88251D01*
Y-88309D01*
Y-88343D01*
Y-88351D01*
X135595Y-88684D01*
X135562Y-89009D01*
X135537Y-89151D01*
X135503Y-89292D01*
X135478Y-89426D01*
X135445Y-89551D01*
X135412Y-89667D01*
X135387Y-89767D01*
X135353Y-89850D01*
X135328Y-89925D01*
X135312Y-89984D01*
X135295Y-90034D01*
X135278Y-90059D01*
Y-90067D01*
X135212Y-90209D01*
X135137Y-90350D01*
X135062Y-90475D01*
X134979Y-90592D01*
X134895Y-90709D01*
X134812Y-90808D01*
X134737Y-90900D01*
X134654Y-90975D01*
X134579Y-91050D01*
X134512Y-91117D01*
X134445Y-91167D01*
X134395Y-91208D01*
X134345Y-91250D01*
X134312Y-91275D01*
X134295Y-91283D01*
X134287Y-91292D01*
X134162Y-91367D01*
X134029Y-91425D01*
X133887Y-91483D01*
X133745Y-91533D01*
X133462Y-91608D01*
X133196Y-91658D01*
X133071Y-91675D01*
X132962Y-91683D01*
X132854Y-91692D01*
X132771Y-91700D01*
X132696Y-91708D01*
X132596D01*
X132413Y-91700D01*
X132238Y-91683D01*
X132071Y-91658D01*
X131913Y-91625D01*
X131763Y-91583D01*
X131621Y-91533D01*
X131496Y-91492D01*
X131371Y-91433D01*
X131271Y-91383D01*
X131179Y-91342D01*
X131096Y-91292D01*
X131030Y-91250D01*
X130971Y-91217D01*
X130938Y-91192D01*
X130913Y-91175D01*
X130905Y-91167D01*
X130779Y-91059D01*
X130663Y-90942D01*
X130555Y-90817D01*
X130463Y-90684D01*
X130371Y-90550D01*
X130296Y-90425D01*
X130221Y-90292D01*
X130163Y-90167D01*
X130105Y-90042D01*
X130063Y-89934D01*
X130021Y-89834D01*
X129988Y-89750D01*
X129971Y-89676D01*
X129955Y-89617D01*
X129938Y-89584D01*
Y-89576D01*
X130788Y-89359D01*
X130829Y-89509D01*
X130871Y-89642D01*
X130921Y-89767D01*
X130971Y-89892D01*
X131030Y-90000D01*
X131080Y-90100D01*
X131138Y-90192D01*
X131196Y-90267D01*
X131246Y-90342D01*
X131296Y-90400D01*
X131346Y-90459D01*
X131379Y-90500D01*
X131413Y-90534D01*
X131438Y-90559D01*
X131454Y-90567D01*
X131463Y-90575D01*
X131554Y-90650D01*
X131654Y-90709D01*
X131754Y-90767D01*
X131863Y-90808D01*
X132063Y-90884D01*
X132254Y-90934D01*
X132338Y-90950D01*
X132421Y-90958D01*
X132487Y-90967D01*
X132554Y-90975D01*
X132604Y-90983D01*
X132671D01*
X132887Y-90967D01*
X133087Y-90934D01*
X133271Y-90892D01*
X133437Y-90834D01*
X133570Y-90775D01*
X133629Y-90750D01*
X133671Y-90733D01*
X133712Y-90709D01*
X133737Y-90700D01*
X133754Y-90684D01*
X133762D01*
X133937Y-90559D01*
X134087Y-90417D01*
X134212Y-90267D01*
X134320Y-90117D01*
X134404Y-89984D01*
X134429Y-89925D01*
X134454Y-89875D01*
X134479Y-89834D01*
X134495Y-89801D01*
X134504Y-89784D01*
Y-89775D01*
X134579Y-89542D01*
X134637Y-89292D01*
X134678Y-89059D01*
X134704Y-88834D01*
X134720Y-88734D01*
Y-88642D01*
X134728Y-88559D01*
X134737Y-88484D01*
Y-88426D01*
Y-88384D01*
Y-88359D01*
Y-88351D01*
X134728Y-88118D01*
X134704Y-87893D01*
X134670Y-87684D01*
X134637Y-87493D01*
X134620Y-87418D01*
X134604Y-87343D01*
X134587Y-87276D01*
X134570Y-87218D01*
X134554Y-87176D01*
X134545Y-87143D01*
X134537Y-87126D01*
Y-87118D01*
X134454Y-86901D01*
X134345Y-86718D01*
X134229Y-86551D01*
X134112Y-86418D01*
X134012Y-86310D01*
X133929Y-86235D01*
X133895Y-86201D01*
X133870Y-86185D01*
X133854Y-86168D01*
X133845D01*
X133745Y-86101D01*
X133645Y-86051D01*
X133437Y-85960D01*
X133229Y-85893D01*
X133037Y-85851D01*
X132946Y-85843D01*
X132862Y-85827D01*
X132787Y-85818D01*
X132729D01*
X132679Y-85810D01*
X132604D01*
X132371Y-85827D01*
X132163Y-85860D01*
X131979Y-85910D01*
X131821Y-85968D01*
X131696Y-86035D01*
X131646Y-86060D01*
X131604Y-86085D01*
X131571Y-86101D01*
X131546Y-86118D01*
X131538Y-86135D01*
X131529D01*
X131454Y-86201D01*
X131379Y-86268D01*
X131246Y-86426D01*
X131138Y-86593D01*
X131046Y-86760D01*
X130971Y-86910D01*
X130946Y-86976D01*
X130921Y-87035D01*
X130905Y-87085D01*
X130888Y-87118D01*
X130879Y-87143D01*
Y-87151D01*
X130046Y-86951D01*
X130096Y-86793D01*
X130163Y-86635D01*
X130230Y-86493D01*
X130305Y-86360D01*
X130380Y-86243D01*
X130455Y-86126D01*
X130530Y-86026D01*
X130605Y-85935D01*
X130680Y-85851D01*
X130746Y-85777D01*
X130813Y-85718D01*
X130863Y-85668D01*
X130905Y-85626D01*
X130946Y-85602D01*
X130963Y-85585D01*
X130971Y-85576D01*
X131096Y-85493D01*
X131229Y-85410D01*
X131363Y-85352D01*
X131496Y-85293D01*
X131638Y-85243D01*
X131771Y-85202D01*
X132021Y-85143D01*
X132137Y-85127D01*
X132246Y-85110D01*
X132346Y-85102D01*
X132429Y-85093D01*
X132496Y-85085D01*
X132746D01*
X132896Y-85102D01*
D02*
G37*
G36*
X141827Y-91600D02*
X139519D01*
X139311Y-91592D01*
X139111Y-91583D01*
X138936Y-91567D01*
X138786Y-91542D01*
X138661Y-91525D01*
X138611Y-91517D01*
X138569Y-91508D01*
X138536Y-91500D01*
X138511D01*
X138503Y-91492D01*
X138494D01*
X138336Y-91450D01*
X138186Y-91400D01*
X138053Y-91342D01*
X137944Y-91292D01*
X137853Y-91250D01*
X137786Y-91208D01*
X137744Y-91183D01*
X137728Y-91175D01*
X137611Y-91083D01*
X137494Y-90992D01*
X137395Y-90892D01*
X137311Y-90800D01*
X137236Y-90717D01*
X137186Y-90650D01*
X137145Y-90609D01*
X137136Y-90592D01*
X137045Y-90450D01*
X136953Y-90292D01*
X136878Y-90134D01*
X136820Y-89984D01*
X136770Y-89859D01*
X136753Y-89801D01*
X136736Y-89750D01*
X136720Y-89717D01*
X136711Y-89684D01*
X136703Y-89667D01*
Y-89659D01*
X136645Y-89442D01*
X136603Y-89217D01*
X136570Y-89001D01*
X136553Y-88801D01*
X136545Y-88709D01*
X136536Y-88626D01*
Y-88551D01*
X136528Y-88492D01*
Y-88434D01*
Y-88401D01*
Y-88376D01*
Y-88368D01*
X136536Y-88059D01*
X136570Y-87768D01*
X136586Y-87634D01*
X136611Y-87509D01*
X136636Y-87393D01*
X136653Y-87284D01*
X136678Y-87184D01*
X136703Y-87101D01*
X136728Y-87026D01*
X136745Y-86959D01*
X136761Y-86910D01*
X136778Y-86876D01*
X136786Y-86851D01*
Y-86843D01*
X136886Y-86601D01*
X137011Y-86393D01*
X137136Y-86201D01*
X137261Y-86043D01*
X137319Y-85976D01*
X137369Y-85918D01*
X137420Y-85868D01*
X137461Y-85827D01*
X137494Y-85793D01*
X137520Y-85768D01*
X137536Y-85760D01*
X137544Y-85751D01*
X137694Y-85635D01*
X137853Y-85535D01*
X138011Y-85460D01*
X138161Y-85393D01*
X138286Y-85352D01*
X138344Y-85335D01*
X138394Y-85318D01*
X138428Y-85310D01*
X138461Y-85302D01*
X138478Y-85293D01*
X138486D01*
X138644Y-85260D01*
X138827Y-85235D01*
X139019Y-85218D01*
X139202Y-85202D01*
X139361D01*
X139436Y-85193D01*
X141827D01*
Y-91600D01*
D02*
G37*
G36*
X307756Y111420D02*
X307864Y111270D01*
X307981Y111120D01*
X308089Y110995D01*
X308197Y110878D01*
X308281Y110795D01*
X308314Y110762D01*
X308339Y110737D01*
X308356Y110728D01*
X308364Y110720D01*
X308556Y110562D01*
X308747Y110420D01*
X308947Y110287D01*
X309122Y110178D01*
X309280Y110095D01*
X309347Y110054D01*
X309405Y110029D01*
X309447Y110004D01*
X309480Y109987D01*
X309505Y109970D01*
X309514D01*
Y109204D01*
X309372Y109262D01*
X309230Y109329D01*
X309089Y109395D01*
X308964Y109462D01*
X308855Y109520D01*
X308764Y109570D01*
X308731Y109587D01*
X308706Y109604D01*
X308697Y109612D01*
X308689D01*
X308522Y109712D01*
X308381Y109812D01*
X308247Y109904D01*
X308139Y109987D01*
X308056Y110054D01*
X307989Y110112D01*
X307956Y110145D01*
X307939Y110154D01*
Y105147D01*
X307156D01*
Y111578D01*
X307664D01*
X307756Y111420D01*
D02*
G37*
G36*
X410972Y108179D02*
X410231Y108071D01*
X410164Y108171D01*
X410089Y108254D01*
X410006Y108337D01*
X409931Y108396D01*
X409864Y108454D01*
X409814Y108487D01*
X409781Y108512D01*
X409764Y108521D01*
X409647Y108579D01*
X409522Y108629D01*
X409406Y108662D01*
X409306Y108679D01*
X409206Y108696D01*
X409139Y108704D01*
X408956D01*
X408856Y108687D01*
X408656Y108646D01*
X408489Y108579D01*
X408348Y108512D01*
X408231Y108437D01*
X408148Y108371D01*
X408123Y108346D01*
X408098Y108329D01*
X408081Y108321D01*
Y108312D01*
X408014Y108237D01*
X407956Y108154D01*
X407864Y107979D01*
X407798Y107804D01*
X407756Y107629D01*
X407723Y107479D01*
X407715Y107413D01*
Y107354D01*
X407706Y107313D01*
Y107279D01*
Y107254D01*
Y107246D01*
Y107113D01*
X407723Y106996D01*
X407765Y106771D01*
X407831Y106580D01*
X407898Y106413D01*
X407939Y106346D01*
X407973Y106288D01*
X408006Y106230D01*
X408040Y106188D01*
X408064Y106155D01*
X408081Y106130D01*
X408089Y106121D01*
X408098Y106113D01*
X408173Y106038D01*
X408248Y105971D01*
X408331Y105913D01*
X408414Y105871D01*
X408573Y105788D01*
X408731Y105738D01*
X408864Y105713D01*
X408923Y105705D01*
X408964Y105696D01*
X409006Y105688D01*
X409064D01*
X409239Y105705D01*
X409389Y105738D01*
X409531Y105780D01*
X409647Y105838D01*
X409739Y105888D01*
X409814Y105938D01*
X409856Y105971D01*
X409872Y105980D01*
X409981Y106105D01*
X410072Y106246D01*
X410147Y106396D01*
X410206Y106546D01*
X410239Y106671D01*
X410256Y106729D01*
X410272Y106779D01*
X410281Y106821D01*
Y106854D01*
X410289Y106871D01*
Y106879D01*
X411114Y106821D01*
X411097Y106671D01*
X411064Y106530D01*
X411030Y106404D01*
X410980Y106279D01*
X410939Y106163D01*
X410880Y106055D01*
X410830Y105955D01*
X410772Y105871D01*
X410722Y105788D01*
X410664Y105721D01*
X410622Y105663D01*
X410572Y105613D01*
X410539Y105571D01*
X410514Y105546D01*
X410497Y105530D01*
X410489Y105521D01*
X410381Y105438D01*
X410272Y105363D01*
X410156Y105296D01*
X410031Y105246D01*
X409914Y105197D01*
X409797Y105155D01*
X409572Y105097D01*
X409464Y105080D01*
X409372Y105063D01*
X409281Y105055D01*
X409206Y105047D01*
X409147Y105038D01*
X409064D01*
X408873Y105047D01*
X408689Y105071D01*
X408514Y105113D01*
X408348Y105163D01*
X408198Y105222D01*
X408064Y105280D01*
X407939Y105355D01*
X407823Y105430D01*
X407723Y105496D01*
X407631Y105571D01*
X407556Y105630D01*
X407498Y105696D01*
X407448Y105738D01*
X407406Y105780D01*
X407390Y105805D01*
X407381Y105813D01*
X407290Y105938D01*
X407215Y106063D01*
X407148Y106188D01*
X407090Y106313D01*
X407040Y106438D01*
X406998Y106563D01*
X406940Y106804D01*
X406915Y106904D01*
X406898Y107004D01*
X406890Y107096D01*
X406881Y107171D01*
X406873Y107229D01*
Y107271D01*
Y107304D01*
Y107313D01*
X406881Y107479D01*
X406898Y107638D01*
X406923Y107788D01*
X406965Y107937D01*
X407006Y108071D01*
X407056Y108187D01*
X407106Y108304D01*
X407165Y108404D01*
X407215Y108496D01*
X407273Y108579D01*
X407323Y108646D01*
X407365Y108704D01*
X407406Y108754D01*
X407431Y108787D01*
X407448Y108804D01*
X407456Y108812D01*
X407565Y108912D01*
X407681Y109004D01*
X407798Y109079D01*
X407915Y109154D01*
X408040Y109204D01*
X408156Y109254D01*
X408264Y109295D01*
X408373Y109320D01*
X408481Y109345D01*
X408573Y109362D01*
X408656Y109379D01*
X408723Y109387D01*
X408781Y109395D01*
X408864D01*
X408981Y109387D01*
X409098Y109379D01*
X409323Y109329D01*
X409522Y109270D01*
X409706Y109195D01*
X409789Y109154D01*
X409856Y109121D01*
X409922Y109079D01*
X409972Y109054D01*
X410014Y109029D01*
X410047Y109004D01*
X410064Y108996D01*
X410072Y108987D01*
X409731Y110720D01*
X407173D01*
Y111470D01*
X410355D01*
X410972Y108179D01*
D02*
G37*
G36*
X357316Y-105680D02*
X357424Y-105830D01*
X357541Y-105980D01*
X357649Y-106105D01*
X357757Y-106222D01*
X357841Y-106305D01*
X357874Y-106338D01*
X357899Y-106363D01*
X357916Y-106372D01*
X357924Y-106380D01*
X358116Y-106538D01*
X358307Y-106680D01*
X358507Y-106813D01*
X358682Y-106921D01*
X358840Y-107005D01*
X358907Y-107046D01*
X358965Y-107071D01*
X359007Y-107096D01*
X359040Y-107113D01*
X359065Y-107130D01*
X359074D01*
Y-107896D01*
X358932Y-107838D01*
X358791Y-107771D01*
X358649Y-107705D01*
X358524Y-107638D01*
X358416Y-107580D01*
X358324Y-107530D01*
X358291Y-107513D01*
X358266Y-107496D01*
X358257Y-107488D01*
X358249D01*
X358082Y-107388D01*
X357941Y-107288D01*
X357807Y-107196D01*
X357699Y-107113D01*
X357616Y-107046D01*
X357549Y-106988D01*
X357516Y-106955D01*
X357499Y-106946D01*
Y-111953D01*
X356716D01*
Y-105522D01*
X357224D01*
X357316Y-105680D01*
D02*
G37*
G36*
X352759Y-105530D02*
X352917Y-105538D01*
X353067Y-105563D01*
X353200Y-105597D01*
X353334Y-105630D01*
X353450Y-105672D01*
X353559Y-105713D01*
X353658Y-105755D01*
X353750Y-105805D01*
X353825Y-105847D01*
X353892Y-105888D01*
X353950Y-105922D01*
X353992Y-105955D01*
X354025Y-105980D01*
X354042Y-105988D01*
X354050Y-105997D01*
X354150Y-106088D01*
X354233Y-106188D01*
X354308Y-106297D01*
X354375Y-106413D01*
X354433Y-106522D01*
X354483Y-106638D01*
X354558Y-106863D01*
X354592Y-106963D01*
X354617Y-107063D01*
X354633Y-107146D01*
X354650Y-107221D01*
X354658Y-107288D01*
Y-107330D01*
X354666Y-107363D01*
Y-107371D01*
X353858Y-107455D01*
X353842Y-107238D01*
X353808Y-107055D01*
X353750Y-106896D01*
X353684Y-106755D01*
X353625Y-106655D01*
X353567Y-106572D01*
X353534Y-106530D01*
X353517Y-106513D01*
X353383Y-106397D01*
X353234Y-106313D01*
X353075Y-106255D01*
X352934Y-106213D01*
X352809Y-106188D01*
X352750Y-106180D01*
X352700D01*
X352667Y-106172D01*
X352609D01*
X352417Y-106188D01*
X352242Y-106222D01*
X352092Y-106272D01*
X351967Y-106330D01*
X351867Y-106397D01*
X351792Y-106447D01*
X351751Y-106480D01*
X351734Y-106496D01*
X351617Y-106622D01*
X351534Y-106755D01*
X351476Y-106880D01*
X351434Y-107005D01*
X351409Y-107113D01*
X351401Y-107205D01*
X351392Y-107238D01*
Y-107255D01*
Y-107271D01*
Y-107280D01*
Y-107363D01*
X351409Y-107446D01*
X351451Y-107621D01*
X351509Y-107780D01*
X351576Y-107921D01*
X351651Y-108046D01*
X351684Y-108096D01*
X351709Y-108146D01*
X351734Y-108179D01*
X351751Y-108204D01*
X351759Y-108221D01*
X351767Y-108229D01*
X351842Y-108329D01*
X351934Y-108429D01*
X352034Y-108538D01*
X352142Y-108654D01*
X352375Y-108879D01*
X352609Y-109096D01*
X352717Y-109196D01*
X352825Y-109288D01*
X352925Y-109371D01*
X353009Y-109446D01*
X353075Y-109504D01*
X353134Y-109546D01*
X353167Y-109579D01*
X353175Y-109587D01*
X353417Y-109787D01*
X353625Y-109971D01*
X353800Y-110137D01*
X353942Y-110279D01*
X354058Y-110395D01*
X354142Y-110487D01*
X354167Y-110520D01*
X354192Y-110546D01*
X354200Y-110554D01*
X354208Y-110562D01*
X354333Y-110721D01*
X354442Y-110870D01*
X354525Y-111012D01*
X354600Y-111145D01*
X354658Y-111254D01*
X354692Y-111337D01*
X354708Y-111370D01*
X354716Y-111395D01*
X354725Y-111404D01*
Y-111412D01*
X354758Y-111512D01*
X354783Y-111604D01*
X354800Y-111695D01*
X354808Y-111778D01*
X354817Y-111854D01*
Y-111903D01*
Y-111937D01*
Y-111953D01*
X350576D01*
Y-111195D01*
X353725D01*
X353617Y-111045D01*
X353559Y-110970D01*
X353508Y-110912D01*
X353459Y-110854D01*
X353425Y-110812D01*
X353400Y-110787D01*
X353392Y-110779D01*
X353350Y-110737D01*
X353292Y-110679D01*
X353234Y-110620D01*
X353167Y-110562D01*
X353017Y-110429D01*
X352859Y-110296D01*
X352717Y-110171D01*
X352650Y-110112D01*
X352600Y-110062D01*
X352550Y-110029D01*
X352517Y-109996D01*
X352492Y-109979D01*
X352484Y-109971D01*
X352334Y-109837D01*
X352184Y-109712D01*
X352059Y-109604D01*
X351934Y-109496D01*
X351826Y-109396D01*
X351726Y-109296D01*
X351634Y-109213D01*
X351559Y-109137D01*
X351484Y-109071D01*
X351426Y-109013D01*
X351376Y-108963D01*
X351334Y-108921D01*
X351309Y-108888D01*
X351284Y-108863D01*
X351267Y-108854D01*
Y-108846D01*
X351143Y-108696D01*
X351034Y-108546D01*
X350942Y-108413D01*
X350868Y-108296D01*
X350809Y-108204D01*
X350776Y-108130D01*
X350751Y-108080D01*
X350743Y-108063D01*
X350693Y-107921D01*
X350651Y-107788D01*
X350626Y-107655D01*
X350601Y-107546D01*
X350593Y-107446D01*
X350584Y-107371D01*
Y-107321D01*
Y-107305D01*
X350593Y-107163D01*
X350609Y-107030D01*
X350634Y-106905D01*
X350668Y-106788D01*
X350759Y-106572D01*
X350801Y-106472D01*
X350851Y-106388D01*
X350909Y-106305D01*
X350951Y-106238D01*
X351001Y-106180D01*
X351043Y-106130D01*
X351076Y-106088D01*
X351101Y-106063D01*
X351118Y-106047D01*
X351126Y-106038D01*
X351234Y-105947D01*
X351342Y-105872D01*
X351459Y-105797D01*
X351584Y-105738D01*
X351709Y-105688D01*
X351826Y-105647D01*
X352059Y-105588D01*
X352167Y-105563D01*
X352267Y-105547D01*
X352359Y-105538D01*
X352442Y-105530D01*
X352500Y-105522D01*
X352592D01*
X352759Y-105530D01*
D02*
G37*
G36*
X386474Y-111953D02*
X385624D01*
Y-109113D01*
X384524D01*
X384433Y-109121D01*
X384349D01*
X384283Y-109129D01*
X384233Y-109137D01*
X384199D01*
X384183Y-109146D01*
X384174D01*
X384033Y-109196D01*
X383966Y-109221D01*
X383908Y-109254D01*
X383858Y-109279D01*
X383824Y-109304D01*
X383799Y-109312D01*
X383791Y-109321D01*
X383716Y-109379D01*
X383641Y-109437D01*
X383566Y-109512D01*
X383499Y-109587D01*
X383441Y-109646D01*
X383400Y-109704D01*
X383366Y-109737D01*
X383358Y-109754D01*
X383258Y-109879D01*
X383158Y-110021D01*
X383058Y-110162D01*
X382958Y-110304D01*
X382875Y-110429D01*
X382833Y-110487D01*
X382800Y-110537D01*
X382775Y-110570D01*
X382758Y-110604D01*
X382741Y-110620D01*
Y-110629D01*
X381900Y-111953D01*
X380834D01*
X381942Y-110221D01*
X382066Y-110037D01*
X382192Y-109871D01*
X382308Y-109721D01*
X382416Y-109604D01*
X382516Y-109504D01*
X382583Y-109429D01*
X382633Y-109388D01*
X382641Y-109371D01*
X382650D01*
X382725Y-109312D01*
X382800Y-109254D01*
X382966Y-109146D01*
X383041Y-109104D01*
X383100Y-109071D01*
X383141Y-109054D01*
X383158Y-109046D01*
X382991Y-109021D01*
X382833Y-108988D01*
X382691Y-108946D01*
X382558Y-108904D01*
X382433Y-108854D01*
X382317Y-108804D01*
X382216Y-108754D01*
X382125Y-108704D01*
X382050Y-108654D01*
X381983Y-108604D01*
X381925Y-108563D01*
X381875Y-108529D01*
X381842Y-108496D01*
X381808Y-108471D01*
X381800Y-108463D01*
X381792Y-108454D01*
X381717Y-108363D01*
X381642Y-108271D01*
X381583Y-108171D01*
X381533Y-108080D01*
X381458Y-107888D01*
X381408Y-107705D01*
X381375Y-107546D01*
X381367Y-107480D01*
X381358Y-107421D01*
X381350Y-107371D01*
Y-107338D01*
Y-107313D01*
Y-107305D01*
X381358Y-107113D01*
X381392Y-106930D01*
X381433Y-106763D01*
X381483Y-106622D01*
X381533Y-106505D01*
X381575Y-106413D01*
X381592Y-106380D01*
X381608Y-106355D01*
X381617Y-106347D01*
Y-106338D01*
X381725Y-106188D01*
X381842Y-106055D01*
X381958Y-105947D01*
X382075Y-105863D01*
X382175Y-105797D01*
X382258Y-105755D01*
X382291Y-105738D01*
X382317Y-105730D01*
X382325Y-105722D01*
X382333D01*
X382416Y-105688D01*
X382516Y-105663D01*
X382725Y-105622D01*
X382941Y-105588D01*
X383150Y-105572D01*
X383250Y-105563D01*
X383341Y-105555D01*
X383416D01*
X383491Y-105547D01*
X386474D01*
Y-111953D01*
D02*
G37*
G36*
X378201Y-108629D02*
X380675Y-111953D01*
X379659D01*
X378034Y-109737D01*
X377993Y-109679D01*
X377951Y-109612D01*
X377851Y-109454D01*
X377801Y-109388D01*
X377768Y-109329D01*
X377743Y-109296D01*
X377734Y-109279D01*
X377634Y-109421D01*
X377593Y-109487D01*
X377551Y-109546D01*
X377518Y-109596D01*
X377493Y-109637D01*
X377476Y-109662D01*
X377468Y-109671D01*
X375852Y-111953D01*
X374810D01*
X377201Y-108596D01*
X374985Y-105547D01*
X375910D01*
X377184Y-107255D01*
X377293Y-107396D01*
X377384Y-107521D01*
X377476Y-107646D01*
X377551Y-107754D01*
X377609Y-107846D01*
X377651Y-107913D01*
X377684Y-107955D01*
X377693Y-107971D01*
X377759Y-107863D01*
X377834Y-107738D01*
X377918Y-107605D01*
X378001Y-107480D01*
X378076Y-107363D01*
X378143Y-107271D01*
X378167Y-107238D01*
X378184Y-107213D01*
X378192Y-107196D01*
X378201Y-107188D01*
X379367Y-105547D01*
X380384D01*
X378201Y-108629D01*
D02*
G37*
G36*
X331916Y-105680D02*
X332024Y-105830D01*
X332141Y-105980D01*
X332249Y-106105D01*
X332357Y-106222D01*
X332441Y-106305D01*
X332474Y-106338D01*
X332499Y-106363D01*
X332516Y-106372D01*
X332524Y-106380D01*
X332716Y-106538D01*
X332907Y-106680D01*
X333107Y-106813D01*
X333282Y-106921D01*
X333441Y-107005D01*
X333507Y-107046D01*
X333565Y-107071D01*
X333607Y-107096D01*
X333640Y-107113D01*
X333665Y-107130D01*
X333674D01*
Y-107896D01*
X333532Y-107838D01*
X333391Y-107771D01*
X333249Y-107705D01*
X333124Y-107638D01*
X333016Y-107580D01*
X332924Y-107530D01*
X332891Y-107513D01*
X332866Y-107496D01*
X332857Y-107488D01*
X332849D01*
X332682Y-107388D01*
X332541Y-107288D01*
X332407Y-107196D01*
X332299Y-107113D01*
X332216Y-107046D01*
X332149Y-106988D01*
X332116Y-106955D01*
X332099Y-106946D01*
Y-111953D01*
X331316D01*
Y-105522D01*
X331824D01*
X331916Y-105680D01*
D02*
G37*
G36*
X229206Y107404D02*
Y106679D01*
X226424D01*
Y105147D01*
X225641D01*
Y106679D01*
X224774D01*
Y107404D01*
X225641D01*
Y111553D01*
X226282D01*
X229206Y107404D01*
D02*
G37*
G36*
X306516Y-105680D02*
X306624Y-105830D01*
X306741Y-105980D01*
X306849Y-106105D01*
X306957Y-106222D01*
X307041Y-106305D01*
X307074Y-106338D01*
X307099Y-106363D01*
X307116Y-106372D01*
X307124Y-106380D01*
X307316Y-106538D01*
X307507Y-106680D01*
X307707Y-106813D01*
X307882Y-106921D01*
X308041Y-107005D01*
X308107Y-107046D01*
X308165Y-107071D01*
X308207Y-107096D01*
X308240Y-107113D01*
X308265Y-107130D01*
X308274D01*
Y-107896D01*
X308132Y-107838D01*
X307990Y-107771D01*
X307849Y-107705D01*
X307724Y-107638D01*
X307616Y-107580D01*
X307524Y-107530D01*
X307491Y-107513D01*
X307466Y-107496D01*
X307457Y-107488D01*
X307449D01*
X307282Y-107388D01*
X307141Y-107288D01*
X307007Y-107196D01*
X306899Y-107113D01*
X306816Y-107046D01*
X306749Y-106988D01*
X306716Y-106955D01*
X306699Y-106946D01*
Y-111953D01*
X305916D01*
Y-105522D01*
X306424D01*
X306516Y-105680D01*
D02*
G37*
G36*
X327442Y-105530D02*
X327575Y-105538D01*
X327825Y-105588D01*
X328042Y-105663D01*
X328134Y-105705D01*
X328225Y-105738D01*
X328300Y-105780D01*
X328375Y-105822D01*
X328433Y-105863D01*
X328483Y-105897D01*
X328525Y-105922D01*
X328550Y-105947D01*
X328567Y-105955D01*
X328575Y-105963D01*
X328667Y-106047D01*
X328750Y-106138D01*
X328892Y-106338D01*
X329000Y-106538D01*
X329092Y-106730D01*
X329125Y-106821D01*
X329150Y-106905D01*
X329175Y-106988D01*
X329192Y-107046D01*
X329208Y-107105D01*
X329217Y-107146D01*
X329225Y-107171D01*
Y-107180D01*
X328442Y-107321D01*
X328400Y-107121D01*
X328350Y-106946D01*
X328284Y-106797D01*
X328217Y-106680D01*
X328158Y-106580D01*
X328108Y-106513D01*
X328075Y-106480D01*
X328059Y-106463D01*
X327934Y-106363D01*
X327809Y-106297D01*
X327675Y-106247D01*
X327559Y-106205D01*
X327450Y-106188D01*
X327359Y-106180D01*
X327325Y-106172D01*
X327284D01*
X327117Y-106180D01*
X326976Y-106213D01*
X326842Y-106263D01*
X326734Y-106313D01*
X326651Y-106372D01*
X326584Y-106413D01*
X326551Y-106447D01*
X326534Y-106463D01*
X326434Y-106572D01*
X326359Y-106697D01*
X326309Y-106813D01*
X326267Y-106921D01*
X326251Y-107021D01*
X326242Y-107096D01*
X326234Y-107155D01*
Y-107163D01*
Y-107171D01*
X326242Y-107271D01*
X326251Y-107363D01*
X326301Y-107530D01*
X326359Y-107671D01*
X326434Y-107788D01*
X326509Y-107871D01*
X326576Y-107938D01*
X326626Y-107971D01*
X326634Y-107988D01*
X326642D01*
X326792Y-108071D01*
X326950Y-108138D01*
X327100Y-108179D01*
X327242Y-108213D01*
X327359Y-108229D01*
X327459Y-108238D01*
X327492Y-108246D01*
X327584D01*
X327625Y-108238D01*
X327650Y-108229D01*
X327667D01*
X327759Y-108921D01*
X327642Y-108896D01*
X327534Y-108871D01*
X327434Y-108854D01*
X327350Y-108846D01*
X327292Y-108838D01*
X327200D01*
X327001Y-108854D01*
X326825Y-108896D01*
X326675Y-108946D01*
X326542Y-109013D01*
X326442Y-109079D01*
X326367Y-109129D01*
X326317Y-109171D01*
X326301Y-109187D01*
X326234Y-109254D01*
X326184Y-109329D01*
X326092Y-109471D01*
X326026Y-109621D01*
X325984Y-109762D01*
X325959Y-109887D01*
X325951Y-109946D01*
Y-109987D01*
X325942Y-110029D01*
Y-110054D01*
Y-110071D01*
Y-110079D01*
Y-110179D01*
X325959Y-110279D01*
X326001Y-110462D01*
X326067Y-110629D01*
X326134Y-110762D01*
X326201Y-110879D01*
X326267Y-110962D01*
X326292Y-110987D01*
X326309Y-111012D01*
X326317Y-111020D01*
X326326Y-111029D01*
X326401Y-111095D01*
X326476Y-111154D01*
X326634Y-111254D01*
X326792Y-111320D01*
X326942Y-111362D01*
X327067Y-111395D01*
X327125Y-111404D01*
X327175D01*
X327209Y-111412D01*
X327267D01*
X327434Y-111395D01*
X327592Y-111362D01*
X327725Y-111320D01*
X327842Y-111262D01*
X327942Y-111212D01*
X328008Y-111162D01*
X328050Y-111129D01*
X328067Y-111120D01*
X328125Y-111062D01*
X328175Y-110995D01*
X328267Y-110837D01*
X328350Y-110679D01*
X328408Y-110520D01*
X328458Y-110371D01*
X328475Y-110312D01*
X328492Y-110254D01*
X328500Y-110212D01*
X328508Y-110179D01*
X328517Y-110154D01*
Y-110146D01*
X329300Y-110254D01*
X329283Y-110404D01*
X329250Y-110546D01*
X329217Y-110670D01*
X329167Y-110795D01*
X329117Y-110912D01*
X329067Y-111020D01*
X329008Y-111120D01*
X328958Y-111212D01*
X328900Y-111287D01*
X328850Y-111362D01*
X328800Y-111420D01*
X328758Y-111470D01*
X328717Y-111512D01*
X328692Y-111537D01*
X328675Y-111554D01*
X328667Y-111562D01*
X328558Y-111653D01*
X328450Y-111728D01*
X328334Y-111795D01*
X328209Y-111854D01*
X328092Y-111895D01*
X327975Y-111937D01*
X327759Y-111995D01*
X327659Y-112020D01*
X327559Y-112037D01*
X327475Y-112045D01*
X327409Y-112053D01*
X327350Y-112062D01*
X327267D01*
X327092Y-112053D01*
X326934Y-112037D01*
X326776Y-112012D01*
X326634Y-111970D01*
X326492Y-111929D01*
X326367Y-111878D01*
X326251Y-111828D01*
X326142Y-111770D01*
X326051Y-111720D01*
X325967Y-111670D01*
X325892Y-111620D01*
X325834Y-111579D01*
X325784Y-111537D01*
X325751Y-111512D01*
X325734Y-111495D01*
X325726Y-111487D01*
X325617Y-111379D01*
X325526Y-111262D01*
X325443Y-111137D01*
X325368Y-111020D01*
X325309Y-110895D01*
X325259Y-110779D01*
X325218Y-110662D01*
X325184Y-110554D01*
X325159Y-110454D01*
X325143Y-110362D01*
X325126Y-110279D01*
X325118Y-110204D01*
X325109Y-110146D01*
Y-110096D01*
Y-110071D01*
Y-110062D01*
X325126Y-109837D01*
X325159Y-109646D01*
X325209Y-109471D01*
X325268Y-109321D01*
X325326Y-109196D01*
X325351Y-109154D01*
X325376Y-109113D01*
X325392Y-109079D01*
X325409Y-109054D01*
X325426Y-109046D01*
Y-109038D01*
X325551Y-108896D01*
X325701Y-108779D01*
X325842Y-108679D01*
X325984Y-108604D01*
X326109Y-108554D01*
X326167Y-108529D01*
X326217Y-108513D01*
X326251Y-108504D01*
X326284Y-108496D01*
X326301Y-108488D01*
X326309D01*
X326159Y-108404D01*
X326026Y-108321D01*
X325909Y-108229D01*
X325817Y-108138D01*
X325742Y-108063D01*
X325692Y-108005D01*
X325659Y-107963D01*
X325651Y-107946D01*
X325576Y-107813D01*
X325518Y-107680D01*
X325484Y-107555D01*
X325451Y-107438D01*
X325434Y-107338D01*
X325426Y-107255D01*
Y-107205D01*
Y-107196D01*
Y-107188D01*
X325434Y-107030D01*
X325459Y-106880D01*
X325501Y-106738D01*
X325542Y-106613D01*
X325592Y-106513D01*
X325626Y-106430D01*
X325659Y-106380D01*
X325667Y-106372D01*
Y-106363D01*
X325759Y-106222D01*
X325867Y-106105D01*
X325984Y-105997D01*
X326092Y-105905D01*
X326192Y-105838D01*
X326267Y-105788D01*
X326301Y-105772D01*
X326326Y-105755D01*
X326334Y-105747D01*
X326342D01*
X326509Y-105672D01*
X326675Y-105613D01*
X326834Y-105580D01*
X326984Y-105547D01*
X327109Y-105530D01*
X327167D01*
X327209Y-105522D01*
X327300D01*
X327442Y-105530D01*
D02*
G37*
G36*
X304167Y-109696D02*
Y-110421D01*
X301384D01*
Y-111953D01*
X300601D01*
Y-110421D01*
X299734D01*
Y-109696D01*
X300601D01*
Y-105547D01*
X301242D01*
X304167Y-109696D01*
D02*
G37*
G36*
X444525Y-111953D02*
X443676D01*
Y-108938D01*
X440360D01*
Y-111953D01*
X439510D01*
Y-105547D01*
X440360D01*
Y-108179D01*
X443676D01*
Y-105547D01*
X444525D01*
Y-111953D01*
D02*
G37*
G36*
X404109Y-108629D02*
X406583Y-111953D01*
X405567D01*
X403942Y-109737D01*
X403901Y-109679D01*
X403859Y-109612D01*
X403759Y-109454D01*
X403709Y-109388D01*
X403676Y-109329D01*
X403651Y-109296D01*
X403643Y-109279D01*
X403543Y-109421D01*
X403501Y-109487D01*
X403459Y-109546D01*
X403426Y-109596D01*
X403401Y-109637D01*
X403384Y-109662D01*
X403376Y-109671D01*
X401760Y-111953D01*
X400718D01*
X403109Y-108596D01*
X400893Y-105547D01*
X401818D01*
X403093Y-107255D01*
X403201Y-107396D01*
X403293Y-107521D01*
X403384Y-107646D01*
X403459Y-107754D01*
X403518Y-107846D01*
X403559Y-107913D01*
X403592Y-107955D01*
X403601Y-107971D01*
X403667Y-107863D01*
X403742Y-107738D01*
X403826Y-107605D01*
X403909Y-107480D01*
X403984Y-107363D01*
X404051Y-107271D01*
X404076Y-107238D01*
X404092Y-107213D01*
X404101Y-107196D01*
X404109Y-107188D01*
X405275Y-105547D01*
X406292D01*
X404109Y-108629D01*
D02*
G37*
G36*
X432129Y-111953D02*
X429821D01*
X429613Y-111945D01*
X429413Y-111937D01*
X429238Y-111920D01*
X429088Y-111895D01*
X428963Y-111878D01*
X428913Y-111870D01*
X428871Y-111862D01*
X428838Y-111854D01*
X428813D01*
X428805Y-111845D01*
X428796D01*
X428638Y-111804D01*
X428488Y-111754D01*
X428355Y-111695D01*
X428246Y-111645D01*
X428155Y-111604D01*
X428088Y-111562D01*
X428046Y-111537D01*
X428030Y-111529D01*
X427913Y-111437D01*
X427796Y-111345D01*
X427696Y-111245D01*
X427613Y-111154D01*
X427538Y-111070D01*
X427488Y-111004D01*
X427447Y-110962D01*
X427438Y-110945D01*
X427346Y-110804D01*
X427255Y-110646D01*
X427180Y-110487D01*
X427122Y-110337D01*
X427072Y-110212D01*
X427055Y-110154D01*
X427038Y-110104D01*
X427022Y-110071D01*
X427013Y-110037D01*
X427005Y-110021D01*
Y-110012D01*
X426947Y-109796D01*
X426905Y-109571D01*
X426872Y-109354D01*
X426855Y-109154D01*
X426847Y-109062D01*
X426838Y-108979D01*
Y-108904D01*
X426830Y-108846D01*
Y-108788D01*
Y-108754D01*
Y-108729D01*
Y-108721D01*
X426838Y-108413D01*
X426872Y-108121D01*
X426888Y-107988D01*
X426913Y-107863D01*
X426938Y-107746D01*
X426955Y-107638D01*
X426980Y-107538D01*
X427005Y-107455D01*
X427030Y-107380D01*
X427047Y-107313D01*
X427063Y-107263D01*
X427080Y-107230D01*
X427088Y-107205D01*
Y-107196D01*
X427188Y-106955D01*
X427313Y-106747D01*
X427438Y-106555D01*
X427563Y-106397D01*
X427621Y-106330D01*
X427672Y-106272D01*
X427721Y-106222D01*
X427763Y-106180D01*
X427796Y-106147D01*
X427821Y-106122D01*
X427838Y-106113D01*
X427846Y-106105D01*
X427996Y-105988D01*
X428155Y-105888D01*
X428313Y-105813D01*
X428463Y-105747D01*
X428588Y-105705D01*
X428646Y-105688D01*
X428696Y-105672D01*
X428730Y-105663D01*
X428763Y-105655D01*
X428779Y-105647D01*
X428788D01*
X428946Y-105613D01*
X429129Y-105588D01*
X429321Y-105572D01*
X429504Y-105555D01*
X429663D01*
X429738Y-105547D01*
X432129D01*
Y-111953D01*
D02*
G37*
G36*
X411874Y-106305D02*
X409766D01*
Y-111953D01*
X408916D01*
Y-106305D01*
X406808D01*
Y-105547D01*
X411874D01*
Y-106305D01*
D02*
G37*
G36*
X46100Y-91600D02*
X45250D01*
Y-88759D01*
X44151D01*
X44059Y-88767D01*
X43976D01*
X43909Y-88776D01*
X43859Y-88784D01*
X43826D01*
X43809Y-88792D01*
X43801D01*
X43659Y-88842D01*
X43592Y-88867D01*
X43534Y-88901D01*
X43484Y-88926D01*
X43451Y-88951D01*
X43426Y-88959D01*
X43417Y-88967D01*
X43342Y-89026D01*
X43267Y-89084D01*
X43192Y-89159D01*
X43126Y-89234D01*
X43067Y-89292D01*
X43026Y-89351D01*
X42993Y-89384D01*
X42984Y-89401D01*
X42884Y-89525D01*
X42784Y-89667D01*
X42684Y-89809D01*
X42584Y-89950D01*
X42501Y-90075D01*
X42459Y-90134D01*
X42426Y-90184D01*
X42401Y-90217D01*
X42384Y-90250D01*
X42368Y-90267D01*
Y-90275D01*
X41526Y-91600D01*
X40460D01*
X41568Y-89867D01*
X41693Y-89684D01*
X41818Y-89517D01*
X41934Y-89367D01*
X42043Y-89251D01*
X42143Y-89151D01*
X42209Y-89076D01*
X42259Y-89034D01*
X42268Y-89017D01*
X42276D01*
X42351Y-88959D01*
X42426Y-88901D01*
X42593Y-88792D01*
X42668Y-88751D01*
X42726Y-88717D01*
X42768Y-88701D01*
X42784Y-88692D01*
X42618Y-88667D01*
X42459Y-88634D01*
X42318Y-88592D01*
X42184Y-88551D01*
X42059Y-88501D01*
X41943Y-88451D01*
X41843Y-88401D01*
X41751Y-88351D01*
X41676Y-88301D01*
X41610Y-88251D01*
X41551Y-88209D01*
X41501Y-88176D01*
X41468Y-88142D01*
X41434Y-88118D01*
X41426Y-88109D01*
X41418Y-88101D01*
X41343Y-88009D01*
X41268Y-87918D01*
X41210Y-87818D01*
X41160Y-87726D01*
X41085Y-87534D01*
X41035Y-87351D01*
X41001Y-87193D01*
X40993Y-87126D01*
X40985Y-87068D01*
X40976Y-87018D01*
Y-86985D01*
Y-86959D01*
Y-86951D01*
X40985Y-86760D01*
X41018Y-86576D01*
X41060Y-86410D01*
X41110Y-86268D01*
X41160Y-86151D01*
X41201Y-86060D01*
X41218Y-86026D01*
X41235Y-86001D01*
X41243Y-85993D01*
Y-85985D01*
X41351Y-85835D01*
X41468Y-85702D01*
X41585Y-85593D01*
X41701Y-85510D01*
X41801Y-85443D01*
X41884Y-85402D01*
X41918Y-85385D01*
X41943Y-85377D01*
X41951Y-85368D01*
X41959D01*
X42043Y-85335D01*
X42143Y-85310D01*
X42351Y-85268D01*
X42568Y-85235D01*
X42776Y-85218D01*
X42876Y-85210D01*
X42968Y-85202D01*
X43042D01*
X43117Y-85193D01*
X46100D01*
Y-91600D01*
D02*
G37*
G36*
X252399Y111570D02*
X252557Y111561D01*
X252707Y111537D01*
X252840Y111503D01*
X252973Y111470D01*
X253090Y111428D01*
X253198Y111387D01*
X253298Y111345D01*
X253390Y111295D01*
X253465Y111253D01*
X253532Y111212D01*
X253590Y111178D01*
X253632Y111145D01*
X253665Y111120D01*
X253682Y111112D01*
X253690Y111103D01*
X253790Y111012D01*
X253873Y110912D01*
X253948Y110803D01*
X254015Y110687D01*
X254073Y110578D01*
X254123Y110462D01*
X254198Y110237D01*
X254231Y110137D01*
X254256Y110037D01*
X254273Y109954D01*
X254290Y109879D01*
X254298Y109812D01*
Y109770D01*
X254307Y109737D01*
Y109729D01*
X253498Y109645D01*
X253482Y109862D01*
X253448Y110045D01*
X253390Y110204D01*
X253323Y110345D01*
X253265Y110445D01*
X253207Y110528D01*
X253173Y110570D01*
X253157Y110587D01*
X253023Y110703D01*
X252873Y110787D01*
X252715Y110845D01*
X252574Y110887D01*
X252449Y110912D01*
X252390Y110920D01*
X252340D01*
X252307Y110928D01*
X252249D01*
X252057Y110912D01*
X251882Y110878D01*
X251732Y110828D01*
X251607Y110770D01*
X251507Y110703D01*
X251432Y110653D01*
X251391Y110620D01*
X251374Y110603D01*
X251257Y110478D01*
X251174Y110345D01*
X251116Y110220D01*
X251074Y110095D01*
X251049Y109987D01*
X251041Y109895D01*
X251032Y109862D01*
Y109845D01*
Y109829D01*
Y109820D01*
Y109737D01*
X251049Y109654D01*
X251091Y109479D01*
X251149Y109320D01*
X251216Y109179D01*
X251291Y109054D01*
X251324Y109004D01*
X251349Y108954D01*
X251374Y108920D01*
X251391Y108896D01*
X251399Y108879D01*
X251407Y108870D01*
X251482Y108771D01*
X251574Y108671D01*
X251674Y108562D01*
X251782Y108446D01*
X252015Y108221D01*
X252249Y108004D01*
X252357Y107904D01*
X252465Y107812D01*
X252565Y107729D01*
X252649Y107654D01*
X252715Y107596D01*
X252773Y107554D01*
X252807Y107521D01*
X252815Y107513D01*
X253057Y107313D01*
X253265Y107129D01*
X253440Y106963D01*
X253582Y106821D01*
X253698Y106704D01*
X253782Y106613D01*
X253807Y106580D01*
X253832Y106554D01*
X253840Y106546D01*
X253848Y106538D01*
X253973Y106379D01*
X254081Y106230D01*
X254165Y106088D01*
X254240Y105955D01*
X254298Y105846D01*
X254331Y105763D01*
X254348Y105730D01*
X254356Y105705D01*
X254365Y105696D01*
Y105688D01*
X254398Y105588D01*
X254423Y105496D01*
X254440Y105405D01*
X254448Y105322D01*
X254456Y105246D01*
Y105197D01*
Y105163D01*
Y105147D01*
X250216D01*
Y105905D01*
X253365D01*
X253257Y106055D01*
X253198Y106130D01*
X253148Y106188D01*
X253099Y106246D01*
X253065Y106288D01*
X253040Y106313D01*
X253032Y106321D01*
X252990Y106363D01*
X252932Y106421D01*
X252873Y106480D01*
X252807Y106538D01*
X252657Y106671D01*
X252499Y106804D01*
X252357Y106929D01*
X252290Y106988D01*
X252240Y107038D01*
X252190Y107071D01*
X252157Y107104D01*
X252132Y107121D01*
X252124Y107129D01*
X251974Y107263D01*
X251824Y107388D01*
X251699Y107496D01*
X251574Y107604D01*
X251465Y107704D01*
X251366Y107804D01*
X251274Y107887D01*
X251199Y107962D01*
X251124Y108029D01*
X251066Y108087D01*
X251016Y108137D01*
X250974Y108179D01*
X250949Y108212D01*
X250924Y108237D01*
X250907Y108246D01*
Y108254D01*
X250782Y108404D01*
X250674Y108554D01*
X250582Y108687D01*
X250507Y108804D01*
X250449Y108896D01*
X250416Y108970D01*
X250391Y109021D01*
X250382Y109037D01*
X250333Y109179D01*
X250291Y109312D01*
X250266Y109445D01*
X250241Y109554D01*
X250233Y109654D01*
X250224Y109729D01*
Y109779D01*
Y109795D01*
X250233Y109937D01*
X250249Y110070D01*
X250274Y110195D01*
X250308Y110312D01*
X250399Y110528D01*
X250441Y110628D01*
X250491Y110712D01*
X250549Y110795D01*
X250591Y110862D01*
X250641Y110920D01*
X250682Y110970D01*
X250716Y111012D01*
X250741Y111037D01*
X250757Y111053D01*
X250766Y111062D01*
X250874Y111153D01*
X250982Y111228D01*
X251099Y111303D01*
X251224Y111362D01*
X251349Y111412D01*
X251465Y111453D01*
X251699Y111511D01*
X251807Y111537D01*
X251907Y111553D01*
X251999Y111561D01*
X252082Y111570D01*
X252140Y111578D01*
X252232D01*
X252399Y111570D01*
D02*
G37*
G36*
X256956Y111420D02*
X257064Y111270D01*
X257181Y111120D01*
X257289Y110995D01*
X257397Y110878D01*
X257481Y110795D01*
X257514Y110762D01*
X257539Y110737D01*
X257556Y110728D01*
X257564Y110720D01*
X257756Y110562D01*
X257947Y110420D01*
X258147Y110287D01*
X258322Y110178D01*
X258480Y110095D01*
X258547Y110054D01*
X258605Y110029D01*
X258647Y110004D01*
X258680Y109987D01*
X258705Y109970D01*
X258714D01*
Y109204D01*
X258572Y109262D01*
X258430Y109329D01*
X258289Y109395D01*
X258164Y109462D01*
X258055Y109520D01*
X257964Y109570D01*
X257931Y109587D01*
X257906Y109604D01*
X257897Y109612D01*
X257889D01*
X257722Y109712D01*
X257581Y109812D01*
X257447Y109904D01*
X257339Y109987D01*
X257256Y110054D01*
X257189Y110112D01*
X257156Y110145D01*
X257139Y110154D01*
Y105147D01*
X256356D01*
Y111578D01*
X256864D01*
X256956Y111420D01*
D02*
G37*
G36*
X231556D02*
X231664Y111270D01*
X231781Y111120D01*
X231889Y110995D01*
X231997Y110878D01*
X232081Y110795D01*
X232114Y110762D01*
X232139Y110737D01*
X232156Y110728D01*
X232164Y110720D01*
X232356Y110562D01*
X232547Y110420D01*
X232747Y110287D01*
X232922Y110178D01*
X233080Y110095D01*
X233147Y110054D01*
X233205Y110029D01*
X233247Y110004D01*
X233280Y109987D01*
X233305Y109970D01*
X233314D01*
Y109204D01*
X233172Y109262D01*
X233030Y109329D01*
X232889Y109395D01*
X232764Y109462D01*
X232656Y109520D01*
X232564Y109570D01*
X232530Y109587D01*
X232506Y109604D01*
X232497Y109612D01*
X232489D01*
X232322Y109712D01*
X232181Y109812D01*
X232047Y109904D01*
X231939Y109987D01*
X231856Y110054D01*
X231789Y110112D01*
X231756Y110145D01*
X231739Y110154D01*
Y105147D01*
X230956D01*
Y111578D01*
X231464D01*
X231556Y111420D01*
D02*
G37*
G36*
X438094Y-111953D02*
X437244D01*
Y-109354D01*
X435611D01*
X435369Y-109346D01*
X435145Y-109329D01*
X434936Y-109304D01*
X434745Y-109263D01*
X434578Y-109221D01*
X434420Y-109171D01*
X434286Y-109121D01*
X434161Y-109071D01*
X434062Y-109021D01*
X433970Y-108963D01*
X433895Y-108921D01*
X433837Y-108879D01*
X433795Y-108838D01*
X433762Y-108813D01*
X433745Y-108796D01*
X433737Y-108788D01*
X433645Y-108679D01*
X433562Y-108563D01*
X433495Y-108446D01*
X433437Y-108329D01*
X433378Y-108213D01*
X433337Y-108104D01*
X433278Y-107879D01*
X433253Y-107788D01*
X433237Y-107696D01*
X433228Y-107613D01*
X433220Y-107538D01*
X433212Y-107480D01*
Y-107438D01*
Y-107413D01*
Y-107405D01*
X433220Y-107230D01*
X433245Y-107071D01*
X433278Y-106921D01*
X433312Y-106788D01*
X433345Y-106680D01*
X433378Y-106596D01*
X433395Y-106572D01*
X433403Y-106546D01*
X433412Y-106538D01*
Y-106530D01*
X433487Y-106388D01*
X433570Y-106263D01*
X433662Y-106155D01*
X433745Y-106072D01*
X433812Y-106005D01*
X433878Y-105955D01*
X433912Y-105922D01*
X433928Y-105913D01*
X434053Y-105838D01*
X434187Y-105772D01*
X434311Y-105722D01*
X434436Y-105680D01*
X434545Y-105647D01*
X434636Y-105630D01*
X434670Y-105622D01*
X434686Y-105613D01*
X434711D01*
X434845Y-105588D01*
X435003Y-105572D01*
X435169Y-105563D01*
X435320Y-105555D01*
X435461Y-105547D01*
X438094D01*
Y-111953D01*
D02*
G37*
G36*
X448558Y-105455D02*
X448849Y-105497D01*
X449116Y-105563D01*
X449233Y-105597D01*
X449349Y-105630D01*
X449449Y-105672D01*
X449541Y-105705D01*
X449616Y-105738D01*
X449683Y-105772D01*
X449733Y-105797D01*
X449774Y-105813D01*
X449799Y-105822D01*
X449808Y-105830D01*
X449932Y-105905D01*
X450057Y-105988D01*
X450274Y-106172D01*
X450466Y-106355D01*
X450616Y-106538D01*
X450682Y-106630D01*
X450741Y-106705D01*
X450790Y-106780D01*
X450824Y-106838D01*
X450857Y-106888D01*
X450882Y-106930D01*
X450891Y-106955D01*
X450899Y-106963D01*
X450965Y-107105D01*
X451024Y-107255D01*
X451115Y-107546D01*
X451182Y-107838D01*
X451207Y-107979D01*
X451224Y-108113D01*
X451240Y-108238D01*
X451257Y-108346D01*
X451265Y-108446D01*
Y-108538D01*
X451274Y-108604D01*
Y-108663D01*
Y-108696D01*
Y-108704D01*
X451257Y-109038D01*
X451224Y-109362D01*
X451199Y-109504D01*
X451165Y-109646D01*
X451140Y-109779D01*
X451107Y-109904D01*
X451074Y-110021D01*
X451049Y-110121D01*
X451016Y-110204D01*
X450990Y-110279D01*
X450974Y-110337D01*
X450957Y-110387D01*
X450941Y-110412D01*
Y-110421D01*
X450874Y-110562D01*
X450799Y-110704D01*
X450724Y-110829D01*
X450641Y-110945D01*
X450557Y-111062D01*
X450474Y-111162D01*
X450399Y-111254D01*
X450316Y-111329D01*
X450241Y-111404D01*
X450174Y-111470D01*
X450107Y-111520D01*
X450057Y-111562D01*
X450007Y-111604D01*
X449974Y-111629D01*
X449957Y-111637D01*
X449949Y-111645D01*
X449824Y-111720D01*
X449691Y-111778D01*
X449549Y-111837D01*
X449408Y-111887D01*
X449124Y-111962D01*
X448858Y-112012D01*
X448733Y-112029D01*
X448624Y-112037D01*
X448516Y-112045D01*
X448433Y-112053D01*
X448358Y-112062D01*
X448258D01*
X448075Y-112053D01*
X447900Y-112037D01*
X447733Y-112012D01*
X447575Y-111979D01*
X447425Y-111937D01*
X447283Y-111887D01*
X447158Y-111845D01*
X447033Y-111787D01*
X446933Y-111737D01*
X446842Y-111695D01*
X446758Y-111645D01*
X446692Y-111604D01*
X446633Y-111570D01*
X446600Y-111545D01*
X446575Y-111529D01*
X446567Y-111520D01*
X446442Y-111412D01*
X446325Y-111295D01*
X446217Y-111170D01*
X446125Y-111037D01*
X446033Y-110904D01*
X445958Y-110779D01*
X445883Y-110646D01*
X445825Y-110520D01*
X445767Y-110395D01*
X445725Y-110287D01*
X445684Y-110187D01*
X445650Y-110104D01*
X445634Y-110029D01*
X445617Y-109971D01*
X445600Y-109937D01*
Y-109929D01*
X446450Y-109712D01*
X446492Y-109862D01*
X446533Y-109996D01*
X446583Y-110121D01*
X446633Y-110246D01*
X446692Y-110354D01*
X446742Y-110454D01*
X446800Y-110546D01*
X446858Y-110620D01*
X446908Y-110695D01*
X446958Y-110754D01*
X447008Y-110812D01*
X447042Y-110854D01*
X447075Y-110887D01*
X447100Y-110912D01*
X447117Y-110920D01*
X447125Y-110929D01*
X447216Y-111004D01*
X447316Y-111062D01*
X447416Y-111120D01*
X447525Y-111162D01*
X447725Y-111237D01*
X447916Y-111287D01*
X448000Y-111304D01*
X448083Y-111312D01*
X448149Y-111320D01*
X448216Y-111329D01*
X448266Y-111337D01*
X448333D01*
X448549Y-111320D01*
X448749Y-111287D01*
X448933Y-111245D01*
X449099Y-111187D01*
X449233Y-111129D01*
X449291Y-111104D01*
X449333Y-111087D01*
X449374Y-111062D01*
X449399Y-111054D01*
X449416Y-111037D01*
X449424D01*
X449599Y-110912D01*
X449749Y-110770D01*
X449874Y-110620D01*
X449982Y-110471D01*
X450066Y-110337D01*
X450091Y-110279D01*
X450116Y-110229D01*
X450141Y-110187D01*
X450157Y-110154D01*
X450166Y-110137D01*
Y-110129D01*
X450241Y-109896D01*
X450299Y-109646D01*
X450341Y-109412D01*
X450366Y-109187D01*
X450382Y-109087D01*
Y-108996D01*
X450391Y-108913D01*
X450399Y-108838D01*
Y-108779D01*
Y-108738D01*
Y-108713D01*
Y-108704D01*
X450391Y-108471D01*
X450366Y-108246D01*
X450332Y-108038D01*
X450299Y-107846D01*
X450282Y-107771D01*
X450266Y-107696D01*
X450249Y-107630D01*
X450232Y-107571D01*
X450216Y-107530D01*
X450207Y-107496D01*
X450199Y-107480D01*
Y-107471D01*
X450116Y-107255D01*
X450007Y-107071D01*
X449891Y-106905D01*
X449774Y-106771D01*
X449674Y-106663D01*
X449591Y-106588D01*
X449557Y-106555D01*
X449533Y-106538D01*
X449516Y-106522D01*
X449507D01*
X449408Y-106455D01*
X449308Y-106405D01*
X449099Y-106313D01*
X448891Y-106247D01*
X448699Y-106205D01*
X448608Y-106197D01*
X448525Y-106180D01*
X448450Y-106172D01*
X448391D01*
X448341Y-106163D01*
X448266D01*
X448033Y-106180D01*
X447825Y-106213D01*
X447641Y-106263D01*
X447483Y-106322D01*
X447358Y-106388D01*
X447308Y-106413D01*
X447266Y-106438D01*
X447233Y-106455D01*
X447208Y-106472D01*
X447200Y-106488D01*
X447192D01*
X447117Y-106555D01*
X447042Y-106622D01*
X446908Y-106780D01*
X446800Y-106946D01*
X446708Y-107113D01*
X446633Y-107263D01*
X446608Y-107330D01*
X446583Y-107388D01*
X446567Y-107438D01*
X446550Y-107471D01*
X446542Y-107496D01*
Y-107505D01*
X445709Y-107305D01*
X445759Y-107146D01*
X445825Y-106988D01*
X445892Y-106846D01*
X445967Y-106713D01*
X446042Y-106596D01*
X446117Y-106480D01*
X446192Y-106380D01*
X446267Y-106288D01*
X446342Y-106205D01*
X446408Y-106130D01*
X446475Y-106072D01*
X446525Y-106022D01*
X446567Y-105980D01*
X446608Y-105955D01*
X446625Y-105938D01*
X446633Y-105930D01*
X446758Y-105847D01*
X446892Y-105763D01*
X447025Y-105705D01*
X447158Y-105647D01*
X447300Y-105597D01*
X447433Y-105555D01*
X447683Y-105497D01*
X447800Y-105480D01*
X447908Y-105463D01*
X448008Y-105455D01*
X448091Y-105447D01*
X448158Y-105438D01*
X448408D01*
X448558Y-105455D01*
D02*
G37*
%LPC*%
G36*
X226424Y110295D02*
Y107404D01*
X228440D01*
X226424Y110295D01*
D02*
G37*
G36*
X332889Y110928D02*
X332839D01*
X332739Y110920D01*
X332639Y110903D01*
X332548Y110878D01*
X332464Y110845D01*
X332306Y110762D01*
X332173Y110670D01*
X332064Y110570D01*
X331989Y110487D01*
X331956Y110454D01*
X331939Y110428D01*
X331923Y110412D01*
Y110403D01*
X331856Y110295D01*
X331798Y110162D01*
X331748Y110020D01*
X331706Y109862D01*
X331673Y109687D01*
X331640Y109512D01*
X331598Y109162D01*
X331581Y108996D01*
X331564Y108829D01*
X331556Y108687D01*
Y108562D01*
X331548Y108454D01*
Y108371D01*
Y108321D01*
Y108312D01*
Y108304D01*
Y108021D01*
X331564Y107762D01*
X331581Y107529D01*
X331606Y107313D01*
X331631Y107121D01*
X331665Y106946D01*
X331698Y106796D01*
X331731Y106663D01*
X331773Y106546D01*
X331806Y106454D01*
X331839Y106371D01*
X331865Y106313D01*
X331889Y106263D01*
X331906Y106230D01*
X331914Y106213D01*
X331923Y106205D01*
X331989Y106113D01*
X332064Y106038D01*
X332139Y105963D01*
X332223Y105905D01*
X332298Y105855D01*
X332373Y105813D01*
X332514Y105755D01*
X332639Y105713D01*
X332698Y105705D01*
X332739Y105696D01*
X332781Y105688D01*
X332831D01*
X332931Y105696D01*
X333022Y105713D01*
X333114Y105738D01*
X333198Y105771D01*
X333356Y105855D01*
X333489Y105946D01*
X333597Y106038D01*
X333672Y106121D01*
X333697Y106155D01*
X333722Y106180D01*
X333731Y106196D01*
X333739Y106205D01*
X333806Y106313D01*
X333856Y106446D01*
X333906Y106588D01*
X333947Y106754D01*
X333989Y106921D01*
X334014Y107096D01*
X334056Y107446D01*
X334072Y107621D01*
X334089Y107779D01*
X334097Y107921D01*
Y108046D01*
X334106Y108154D01*
Y108237D01*
Y108287D01*
Y108296D01*
Y108304D01*
X334097Y108587D01*
X334089Y108846D01*
X334072Y109087D01*
X334039Y109304D01*
X334014Y109504D01*
X333981Y109679D01*
X333939Y109837D01*
X333906Y109970D01*
X333864Y110095D01*
X333831Y110195D01*
X333797Y110279D01*
X333764Y110345D01*
X333739Y110395D01*
X333722Y110437D01*
X333714Y110454D01*
X333706Y110462D01*
X333639Y110545D01*
X333572Y110620D01*
X333506Y110678D01*
X333431Y110728D01*
X333289Y110812D01*
X333148Y110870D01*
X333031Y110903D01*
X332931Y110920D01*
X332889Y110928D01*
D02*
G37*
G36*
X431279Y-106305D02*
X429796D01*
X429671Y-106313D01*
X429554D01*
X429446Y-106322D01*
X429346Y-106338D01*
X429254Y-106347D01*
X429171Y-106355D01*
X429104Y-106372D01*
X429038Y-106380D01*
X428988Y-106397D01*
X428938Y-106405D01*
X428904Y-106413D01*
X428871Y-106422D01*
X428854Y-106430D01*
X428838Y-106438D01*
X428755Y-106480D01*
X428671Y-106522D01*
X428513Y-106630D01*
X428380Y-106747D01*
X428263Y-106871D01*
X428171Y-106980D01*
X428096Y-107071D01*
X428071Y-107113D01*
X428055Y-107138D01*
X428038Y-107155D01*
Y-107163D01*
X427980Y-107271D01*
X427930Y-107388D01*
X427846Y-107630D01*
X427788Y-107888D01*
X427746Y-108138D01*
X427730Y-108254D01*
X427721Y-108363D01*
X427713Y-108454D01*
Y-108538D01*
X427705Y-108604D01*
Y-108663D01*
Y-108696D01*
Y-108704D01*
X427713Y-108963D01*
X427730Y-109204D01*
X427763Y-109412D01*
X427780Y-109504D01*
X427788Y-109596D01*
X427805Y-109671D01*
X427821Y-109737D01*
X427838Y-109796D01*
X427855Y-109846D01*
X427863Y-109887D01*
X427871Y-109912D01*
X427880Y-109929D01*
Y-109937D01*
X427946Y-110121D01*
X428021Y-110279D01*
X428096Y-110421D01*
X428171Y-110537D01*
X428246Y-110629D01*
X428296Y-110695D01*
X428330Y-110737D01*
X428346Y-110754D01*
X428430Y-110829D01*
X428530Y-110895D01*
X428621Y-110945D01*
X428713Y-110995D01*
X428796Y-111029D01*
X428863Y-111054D01*
X428904Y-111070D01*
X428913Y-111079D01*
X428921D01*
X429063Y-111120D01*
X429229Y-111145D01*
X429396Y-111170D01*
X429554Y-111179D01*
X429696Y-111187D01*
X429754Y-111195D01*
X431279D01*
Y-106305D01*
D02*
G37*
G36*
X45250Y-85901D02*
X43101D01*
X42976Y-85918D01*
X42867Y-85926D01*
X42768Y-85951D01*
X42668Y-85968D01*
X42584Y-85993D01*
X42509Y-86026D01*
X42443Y-86051D01*
X42326Y-86110D01*
X42251Y-86151D01*
X42201Y-86185D01*
X42184Y-86201D01*
X42076Y-86318D01*
X41993Y-86443D01*
X41934Y-86568D01*
X41893Y-86685D01*
X41868Y-86793D01*
X41859Y-86876D01*
X41851Y-86910D01*
Y-86934D01*
Y-86943D01*
Y-86951D01*
X41859Y-87068D01*
X41876Y-87168D01*
X41909Y-87268D01*
X41934Y-87351D01*
X41968Y-87426D01*
X42001Y-87476D01*
X42018Y-87518D01*
X42026Y-87526D01*
X42093Y-87618D01*
X42176Y-87701D01*
X42259Y-87768D01*
X42334Y-87818D01*
X42409Y-87859D01*
X42468Y-87884D01*
X42509Y-87901D01*
X42526Y-87909D01*
X42659Y-87951D01*
X42801Y-87976D01*
X42959Y-88001D01*
X43101Y-88009D01*
X43234Y-88018D01*
X43292Y-88026D01*
X45250D01*
Y-85901D01*
D02*
G37*
G36*
X437244Y-106305D02*
X435411D01*
X435244Y-106313D01*
X435111Y-106322D01*
X435003Y-106330D01*
X434928Y-106347D01*
X434870Y-106355D01*
X434836Y-106363D01*
X434828D01*
X434711Y-106405D01*
X434603Y-106463D01*
X434511Y-106522D01*
X434436Y-106588D01*
X434378Y-106646D01*
X434328Y-106697D01*
X434303Y-106730D01*
X434295Y-106747D01*
X434228Y-106855D01*
X434178Y-106971D01*
X434137Y-107088D01*
X434112Y-107196D01*
X434095Y-107288D01*
X434086Y-107363D01*
Y-107413D01*
Y-107421D01*
Y-107430D01*
X434103Y-107630D01*
X434145Y-107796D01*
X434195Y-107946D01*
X434261Y-108071D01*
X434328Y-108171D01*
X434378Y-108238D01*
X434420Y-108279D01*
X434436Y-108296D01*
X434503Y-108346D01*
X434586Y-108396D01*
X434761Y-108471D01*
X434953Y-108521D01*
X435145Y-108554D01*
X435320Y-108579D01*
X435395Y-108588D01*
X435461D01*
X435519Y-108596D01*
X437244D01*
Y-106305D01*
D02*
G37*
G36*
X301384Y-106805D02*
Y-109696D01*
X303400D01*
X301384Y-106805D01*
D02*
G37*
G36*
X385624Y-106255D02*
X383475D01*
X383350Y-106272D01*
X383241Y-106280D01*
X383141Y-106305D01*
X383041Y-106322D01*
X382958Y-106347D01*
X382883Y-106380D01*
X382816Y-106405D01*
X382700Y-106463D01*
X382625Y-106505D01*
X382575Y-106538D01*
X382558Y-106555D01*
X382450Y-106671D01*
X382366Y-106797D01*
X382308Y-106921D01*
X382267Y-107038D01*
X382242Y-107146D01*
X382233Y-107230D01*
X382225Y-107263D01*
Y-107288D01*
Y-107296D01*
Y-107305D01*
X382233Y-107421D01*
X382250Y-107521D01*
X382283Y-107621D01*
X382308Y-107705D01*
X382341Y-107780D01*
X382375Y-107830D01*
X382392Y-107871D01*
X382400Y-107879D01*
X382466Y-107971D01*
X382550Y-108055D01*
X382633Y-108121D01*
X382708Y-108171D01*
X382783Y-108213D01*
X382841Y-108238D01*
X382883Y-108254D01*
X382900Y-108263D01*
X383033Y-108304D01*
X383175Y-108329D01*
X383333Y-108354D01*
X383475Y-108363D01*
X383608Y-108371D01*
X383666Y-108379D01*
X385624D01*
Y-106255D01*
D02*
G37*
G36*
X433731Y110295D02*
Y107404D01*
X435747D01*
X433731Y110295D01*
D02*
G37*
G36*
X353857Y108612D02*
X353707D01*
X353615Y108596D01*
X353440Y108554D01*
X353290Y108487D01*
X353157Y108421D01*
X353057Y108354D01*
X352982Y108287D01*
X352932Y108246D01*
X352916Y108237D01*
Y108229D01*
X352849Y108154D01*
X352799Y108071D01*
X352707Y107904D01*
X352641Y107729D01*
X352599Y107563D01*
X352574Y107413D01*
X352566Y107346D01*
Y107288D01*
X352557Y107246D01*
Y107213D01*
Y107188D01*
Y107179D01*
Y107054D01*
X352574Y106938D01*
X352616Y106721D01*
X352674Y106530D01*
X352732Y106371D01*
X352766Y106313D01*
X352799Y106255D01*
X352832Y106205D01*
X352857Y106163D01*
X352882Y106130D01*
X352899Y106105D01*
X352907Y106096D01*
X352916Y106088D01*
X352982Y106021D01*
X353057Y105955D01*
X353199Y105855D01*
X353340Y105788D01*
X353482Y105738D01*
X353599Y105713D01*
X353690Y105696D01*
X353724Y105688D01*
X353774D01*
X353899Y105696D01*
X354015Y105721D01*
X354132Y105746D01*
X354224Y105788D01*
X354307Y105821D01*
X354374Y105846D01*
X354407Y105871D01*
X354423Y105880D01*
X354532Y105963D01*
X354632Y106046D01*
X354715Y106138D01*
X354782Y106230D01*
X354832Y106313D01*
X354873Y106379D01*
X354898Y106421D01*
X354907Y106438D01*
X354965Y106580D01*
X355007Y106721D01*
X355032Y106854D01*
X355048Y106971D01*
X355065Y107071D01*
X355073Y107154D01*
Y107204D01*
Y107213D01*
Y107221D01*
X355065Y107338D01*
X355057Y107446D01*
X355015Y107646D01*
X354957Y107812D01*
X354890Y107962D01*
X354823Y108079D01*
X354765Y108162D01*
X354740Y108187D01*
X354723Y108212D01*
X354707Y108221D01*
Y108229D01*
X354640Y108296D01*
X354565Y108354D01*
X354415Y108454D01*
X354257Y108521D01*
X354115Y108562D01*
X353999Y108596D01*
X353940Y108604D01*
X353899D01*
X353857Y108612D01*
D02*
G37*
G36*
X140977Y-85951D02*
X139494D01*
X139369Y-85960D01*
X139252D01*
X139144Y-85968D01*
X139044Y-85985D01*
X138953Y-85993D01*
X138869Y-86001D01*
X138802Y-86018D01*
X138736Y-86026D01*
X138686Y-86043D01*
X138636Y-86051D01*
X138603Y-86060D01*
X138569Y-86068D01*
X138553Y-86076D01*
X138536Y-86085D01*
X138453Y-86126D01*
X138369Y-86168D01*
X138211Y-86276D01*
X138078Y-86393D01*
X137961Y-86518D01*
X137869Y-86626D01*
X137794Y-86718D01*
X137769Y-86760D01*
X137753Y-86785D01*
X137736Y-86801D01*
Y-86810D01*
X137678Y-86918D01*
X137628Y-87035D01*
X137544Y-87276D01*
X137486Y-87534D01*
X137444Y-87784D01*
X137428Y-87901D01*
X137420Y-88009D01*
X137411Y-88101D01*
Y-88184D01*
X137403Y-88251D01*
Y-88309D01*
Y-88343D01*
Y-88351D01*
X137411Y-88609D01*
X137428Y-88851D01*
X137461Y-89059D01*
X137478Y-89151D01*
X137486Y-89242D01*
X137503Y-89317D01*
X137520Y-89384D01*
X137536Y-89442D01*
X137553Y-89492D01*
X137561Y-89534D01*
X137570Y-89559D01*
X137578Y-89576D01*
Y-89584D01*
X137645Y-89767D01*
X137719Y-89925D01*
X137794Y-90067D01*
X137869Y-90184D01*
X137944Y-90275D01*
X137994Y-90342D01*
X138028Y-90384D01*
X138044Y-90400D01*
X138128Y-90475D01*
X138228Y-90542D01*
X138319Y-90592D01*
X138411Y-90642D01*
X138494Y-90675D01*
X138561Y-90700D01*
X138603Y-90717D01*
X138611Y-90725D01*
X138619D01*
X138761Y-90767D01*
X138927Y-90792D01*
X139094Y-90817D01*
X139252Y-90825D01*
X139394Y-90834D01*
X139452Y-90842D01*
X140977D01*
Y-85951D01*
D02*
G37*
G36*
X109312D02*
X107829D01*
X107704Y-85960D01*
X107587D01*
X107479Y-85968D01*
X107379Y-85985D01*
X107288Y-85993D01*
X107204Y-86001D01*
X107138Y-86018D01*
X107071Y-86026D01*
X107021Y-86043D01*
X106971Y-86051D01*
X106938Y-86060D01*
X106904Y-86068D01*
X106888Y-86076D01*
X106871Y-86085D01*
X106788Y-86126D01*
X106704Y-86168D01*
X106546Y-86276D01*
X106413Y-86393D01*
X106296Y-86518D01*
X106205Y-86626D01*
X106130Y-86718D01*
X106104Y-86760D01*
X106088Y-86785D01*
X106071Y-86801D01*
Y-86810D01*
X106013Y-86918D01*
X105963Y-87035D01*
X105880Y-87276D01*
X105821Y-87534D01*
X105780Y-87784D01*
X105763Y-87901D01*
X105755Y-88009D01*
X105746Y-88101D01*
Y-88184D01*
X105738Y-88251D01*
Y-88309D01*
Y-88343D01*
Y-88351D01*
X105746Y-88609D01*
X105763Y-88851D01*
X105796Y-89059D01*
X105813Y-89151D01*
X105821Y-89242D01*
X105838Y-89317D01*
X105855Y-89384D01*
X105871Y-89442D01*
X105888Y-89492D01*
X105896Y-89534D01*
X105905Y-89559D01*
X105913Y-89576D01*
Y-89584D01*
X105980Y-89767D01*
X106055Y-89925D01*
X106130Y-90067D01*
X106205Y-90184D01*
X106279Y-90275D01*
X106329Y-90342D01*
X106363Y-90384D01*
X106379Y-90400D01*
X106463Y-90475D01*
X106563Y-90542D01*
X106654Y-90592D01*
X106746Y-90642D01*
X106829Y-90675D01*
X106896Y-90700D01*
X106938Y-90717D01*
X106946Y-90725D01*
X106954D01*
X107096Y-90767D01*
X107263Y-90792D01*
X107429Y-90817D01*
X107587Y-90825D01*
X107729Y-90834D01*
X107787Y-90842D01*
X109312D01*
Y-85951D01*
D02*
G37*
G36*
X145609Y-85860D02*
X145542Y-86068D01*
X145476Y-86293D01*
X145401Y-86518D01*
X145326Y-86726D01*
X145293Y-86826D01*
X145259Y-86918D01*
X145226Y-87001D01*
X145201Y-87068D01*
X145184Y-87126D01*
X145168Y-87168D01*
X145151Y-87193D01*
Y-87201D01*
X144484Y-88967D01*
X146659D01*
X145959Y-87093D01*
X145876Y-86868D01*
X145809Y-86643D01*
X145751Y-86435D01*
X145701Y-86251D01*
X145676Y-86168D01*
X145659Y-86093D01*
X145642Y-86026D01*
X145634Y-85968D01*
X145626Y-85918D01*
X145617Y-85885D01*
X145609Y-85868D01*
Y-85860D01*
D02*
G37*
%LPD*%
D32*
X111750Y104082D02*
X109084Y98750D01*
X106418Y104082D01*
X103753Y105414D02*
X102420Y106747D01*
X99754D01*
X98421Y105414D01*
Y100083D01*
X99754Y98750D01*
X102420D01*
X103753Y100083D01*
Y105414D01*
X95755Y98750D02*
Y100083D01*
X94422D01*
Y98750D01*
X95755D01*
X89091D02*
X86425D01*
X87758D01*
Y106747D01*
X89091Y105414D01*
M02*
