G04 Layer_Color=65535*
%FSLAX44Y44*%
%MOMM*%
G71*
G01*
G75*
%ADD16C,0.2500*%
%ADD27C,0.2032*%
%ADD28C,0.0762*%
%ADD29C,0.1270*%
%ADD30C,0.2000*%
%ADD31C,0.1524*%
%ADD32C,0.1500*%
%ADD33C,0.3500*%
G36*
X379531Y-105555D02*
X379606D01*
X379698Y-105563D01*
X379798Y-105572D01*
X380006Y-105588D01*
X380223Y-105622D01*
X380431Y-105663D01*
X380531Y-105688D01*
X380614Y-105722D01*
X380623D01*
X380631Y-105730D01*
X380656Y-105738D01*
X380689Y-105755D01*
X380773Y-105797D01*
X380873Y-105863D01*
X380989Y-105947D01*
X381106Y-106055D01*
X381222Y-106188D01*
X381331Y-106338D01*
Y-106347D01*
X381339Y-106355D01*
X381356Y-106380D01*
X381372Y-106413D01*
X381414Y-106505D01*
X381464Y-106622D01*
X381514Y-106763D01*
X381556Y-106930D01*
X381589Y-107113D01*
X381597Y-107305D01*
Y-107313D01*
Y-107338D01*
Y-107371D01*
X381589Y-107421D01*
X381581Y-107480D01*
X381572Y-107546D01*
X381539Y-107705D01*
X381489Y-107888D01*
X381414Y-108080D01*
X381364Y-108171D01*
X381306Y-108271D01*
X381231Y-108363D01*
X381156Y-108454D01*
X381147Y-108463D01*
X381139Y-108471D01*
X381106Y-108496D01*
X381073Y-108529D01*
X381023Y-108563D01*
X380964Y-108604D01*
X380898Y-108654D01*
X380823Y-108704D01*
X380731Y-108754D01*
X380631Y-108804D01*
X380514Y-108854D01*
X380389Y-108904D01*
X380256Y-108946D01*
X380115Y-108988D01*
X379956Y-109021D01*
X379790Y-109046D01*
X379806Y-109054D01*
X379848Y-109071D01*
X379906Y-109104D01*
X379981Y-109146D01*
X380148Y-109254D01*
X380223Y-109312D01*
X380298Y-109371D01*
X380306D01*
X380314Y-109388D01*
X380364Y-109429D01*
X380431Y-109504D01*
X380531Y-109604D01*
X380639Y-109721D01*
X380756Y-109871D01*
X380881Y-110037D01*
X381006Y-110221D01*
X382114Y-111953D01*
X381048D01*
X380206Y-110629D01*
Y-110620D01*
X380190Y-110604D01*
X380173Y-110570D01*
X380148Y-110537D01*
X380115Y-110487D01*
X380073Y-110429D01*
X379990Y-110304D01*
X379889Y-110162D01*
X379790Y-110021D01*
X379690Y-109879D01*
X379590Y-109754D01*
X379581Y-109737D01*
X379548Y-109704D01*
X379506Y-109646D01*
X379448Y-109587D01*
X379381Y-109512D01*
X379306Y-109437D01*
X379231Y-109379D01*
X379156Y-109321D01*
X379148Y-109312D01*
X379123Y-109304D01*
X379090Y-109279D01*
X379040Y-109254D01*
X378981Y-109221D01*
X378915Y-109196D01*
X378773Y-109146D01*
X378765D01*
X378748Y-109137D01*
X378715D01*
X378665Y-109129D01*
X378598Y-109121D01*
X378515D01*
X378423Y-109113D01*
X377323D01*
Y-111953D01*
X376474D01*
Y-105547D01*
X379456D01*
X379531Y-105555D01*
D02*
G37*
G36*
X357830Y111570D02*
X357897Y111561D01*
X357972Y111553D01*
X358055Y111545D01*
X358147Y111528D01*
X358339Y111478D01*
X358547Y111403D01*
X358655Y111353D01*
X358755Y111295D01*
X358855Y111228D01*
X358947Y111153D01*
X358955Y111145D01*
X358972Y111137D01*
X358988Y111112D01*
X359022Y111078D01*
X359063Y111028D01*
X359105Y110978D01*
X359155Y110920D01*
X359205Y110845D01*
X359255Y110770D01*
X359305Y110678D01*
X359347Y110587D01*
X359397Y110478D01*
X359480Y110253D01*
X359505Y110120D01*
X359530Y109987D01*
X358747Y109929D01*
Y109937D01*
X358738Y109945D01*
Y109970D01*
X358730Y110004D01*
X358705Y110087D01*
X358672Y110187D01*
X358630Y110295D01*
X358572Y110403D01*
X358513Y110504D01*
X358447Y110595D01*
X358430Y110612D01*
X358388Y110645D01*
X358322Y110703D01*
X358230Y110762D01*
X358114Y110820D01*
X357980Y110878D01*
X357822Y110912D01*
X357655Y110928D01*
X357589D01*
X357522Y110920D01*
X357430Y110903D01*
X357331Y110878D01*
X357214Y110837D01*
X357105Y110787D01*
X356989Y110712D01*
X356972Y110703D01*
X356931Y110662D01*
X356864Y110603D01*
X356781Y110512D01*
X356689Y110403D01*
X356589Y110270D01*
X356497Y110112D01*
X356406Y109929D01*
Y109920D01*
X356397Y109904D01*
X356389Y109879D01*
X356372Y109837D01*
X356356Y109779D01*
X356339Y109712D01*
X356322Y109637D01*
X356297Y109554D01*
X356281Y109454D01*
X356264Y109337D01*
X356247Y109221D01*
X356231Y109087D01*
X356214Y108946D01*
X356197Y108787D01*
X356189Y108621D01*
Y108454D01*
X356206Y108462D01*
X356239Y108521D01*
X356297Y108596D01*
X356381Y108687D01*
X356481Y108796D01*
X356597Y108896D01*
X356731Y109004D01*
X356881Y109087D01*
X356889D01*
X356897Y109095D01*
X356922Y109104D01*
X356956Y109121D01*
X357031Y109154D01*
X357139Y109195D01*
X357272Y109237D01*
X357414Y109270D01*
X357572Y109295D01*
X357739Y109304D01*
X357814D01*
X357872Y109295D01*
X357939Y109287D01*
X358022Y109270D01*
X358105Y109254D01*
X358205Y109229D01*
X358305Y109204D01*
X358414Y109162D01*
X358522Y109112D01*
X358638Y109062D01*
X358755Y108987D01*
X358863Y108912D01*
X358972Y108821D01*
X359080Y108721D01*
X359088Y108712D01*
X359105Y108696D01*
X359130Y108662D01*
X359172Y108612D01*
X359213Y108554D01*
X359255Y108487D01*
X359305Y108404D01*
X359363Y108312D01*
X359413Y108212D01*
X359463Y108096D01*
X359505Y107979D01*
X359555Y107846D01*
X359588Y107696D01*
X359613Y107546D01*
X359630Y107388D01*
X359638Y107221D01*
Y107213D01*
Y107196D01*
Y107163D01*
Y107121D01*
X359630Y107063D01*
X359622Y107004D01*
X359605Y106854D01*
X359572Y106688D01*
X359530Y106496D01*
X359463Y106305D01*
X359372Y106105D01*
Y106096D01*
X359363Y106080D01*
X359347Y106055D01*
X359322Y106021D01*
X359263Y105930D01*
X359188Y105813D01*
X359080Y105688D01*
X358963Y105555D01*
X358822Y105430D01*
X358655Y105313D01*
X358647D01*
X358638Y105305D01*
X358614Y105288D01*
X358580Y105272D01*
X358530Y105246D01*
X358480Y105230D01*
X358355Y105180D01*
X358205Y105121D01*
X358030Y105080D01*
X357839Y105047D01*
X357630Y105038D01*
X357589D01*
X357539Y105047D01*
X357464D01*
X357380Y105063D01*
X357289Y105080D01*
X357180Y105097D01*
X357064Y105130D01*
X356939Y105163D01*
X356806Y105213D01*
X356672Y105272D01*
X356539Y105338D01*
X356406Y105421D01*
X356272Y105521D01*
X356147Y105630D01*
X356022Y105755D01*
X356014Y105763D01*
X355998Y105788D01*
X355964Y105830D01*
X355923Y105896D01*
X355881Y105971D01*
X355831Y106071D01*
X355773Y106188D01*
X355714Y106321D01*
X355656Y106480D01*
X355598Y106654D01*
X355548Y106854D01*
X355506Y107063D01*
X355464Y107304D01*
X355431Y107563D01*
X355414Y107837D01*
X355406Y108137D01*
Y108146D01*
Y108162D01*
Y108187D01*
Y108221D01*
Y108262D01*
X355414Y108312D01*
Y108437D01*
X355431Y108596D01*
X355439Y108771D01*
X355464Y108962D01*
X355489Y109171D01*
X355531Y109387D01*
X355573Y109612D01*
X355631Y109837D01*
X355698Y110062D01*
X355773Y110279D01*
X355864Y110478D01*
X355973Y110670D01*
X356089Y110837D01*
X356097Y110845D01*
X356114Y110870D01*
X356147Y110903D01*
X356197Y110953D01*
X356256Y111012D01*
X356331Y111070D01*
X356422Y111137D01*
X356514Y111212D01*
X356622Y111278D01*
X356747Y111345D01*
X356881Y111403D01*
X357022Y111462D01*
X357180Y111511D01*
X357347Y111545D01*
X357522Y111570D01*
X357705Y111578D01*
X357780D01*
X357830Y111570D01*
D02*
G37*
G36*
X357705Y-105530D02*
X357789Y-105538D01*
X357880Y-105547D01*
X357980Y-105563D01*
X358089Y-105588D01*
X358322Y-105647D01*
X358438Y-105688D01*
X358563Y-105738D01*
X358689Y-105797D01*
X358805Y-105872D01*
X358913Y-105947D01*
X359022Y-106038D01*
X359030Y-106047D01*
X359047Y-106063D01*
X359072Y-106088D01*
X359105Y-106130D01*
X359147Y-106180D01*
X359197Y-106238D01*
X359238Y-106305D01*
X359297Y-106388D01*
X359347Y-106472D01*
X359388Y-106572D01*
X359480Y-106788D01*
X359513Y-106905D01*
X359538Y-107030D01*
X359555Y-107163D01*
X359563Y-107305D01*
Y-107321D01*
Y-107371D01*
X359555Y-107446D01*
X359547Y-107546D01*
X359522Y-107655D01*
X359497Y-107788D01*
X359455Y-107921D01*
X359405Y-108063D01*
X359397Y-108080D01*
X359372Y-108130D01*
X359338Y-108204D01*
X359280Y-108296D01*
X359205Y-108413D01*
X359113Y-108546D01*
X359005Y-108696D01*
X358880Y-108846D01*
Y-108854D01*
X358863Y-108863D01*
X358838Y-108888D01*
X358813Y-108921D01*
X358772Y-108963D01*
X358722Y-109013D01*
X358663Y-109071D01*
X358588Y-109137D01*
X358513Y-109213D01*
X358422Y-109296D01*
X358322Y-109396D01*
X358214Y-109496D01*
X358089Y-109604D01*
X357964Y-109712D01*
X357814Y-109837D01*
X357664Y-109971D01*
X357655Y-109979D01*
X357630Y-109996D01*
X357597Y-110029D01*
X357547Y-110062D01*
X357497Y-110112D01*
X357430Y-110171D01*
X357289Y-110296D01*
X357131Y-110429D01*
X356981Y-110562D01*
X356914Y-110620D01*
X356856Y-110679D01*
X356797Y-110737D01*
X356756Y-110779D01*
X356747Y-110787D01*
X356722Y-110812D01*
X356689Y-110854D01*
X356639Y-110912D01*
X356589Y-110970D01*
X356531Y-111045D01*
X356422Y-111195D01*
X359572D01*
Y-111953D01*
X355331D01*
Y-111937D01*
Y-111903D01*
Y-111854D01*
X355339Y-111778D01*
X355348Y-111695D01*
X355364Y-111604D01*
X355389Y-111512D01*
X355423Y-111412D01*
Y-111404D01*
X355431Y-111395D01*
X355439Y-111370D01*
X355456Y-111337D01*
X355489Y-111254D01*
X355548Y-111145D01*
X355623Y-111012D01*
X355706Y-110870D01*
X355814Y-110721D01*
X355939Y-110562D01*
X355947Y-110554D01*
X355956Y-110546D01*
X355981Y-110520D01*
X356006Y-110487D01*
X356089Y-110395D01*
X356206Y-110279D01*
X356347Y-110137D01*
X356522Y-109971D01*
X356731Y-109787D01*
X356972Y-109587D01*
X356981Y-109579D01*
X357014Y-109546D01*
X357072Y-109504D01*
X357139Y-109446D01*
X357222Y-109371D01*
X357322Y-109288D01*
X357430Y-109196D01*
X357539Y-109096D01*
X357772Y-108879D01*
X358005Y-108654D01*
X358114Y-108538D01*
X358214Y-108429D01*
X358305Y-108329D01*
X358380Y-108229D01*
X358388Y-108221D01*
X358397Y-108204D01*
X358414Y-108179D01*
X358438Y-108146D01*
X358464Y-108096D01*
X358497Y-108046D01*
X358572Y-107921D01*
X358638Y-107780D01*
X358697Y-107621D01*
X358738Y-107446D01*
X358755Y-107363D01*
Y-107280D01*
Y-107271D01*
Y-107255D01*
Y-107238D01*
X358747Y-107205D01*
X358738Y-107113D01*
X358713Y-107005D01*
X358672Y-106880D01*
X358614Y-106755D01*
X358530Y-106622D01*
X358414Y-106496D01*
X358397Y-106480D01*
X358355Y-106447D01*
X358280Y-106397D01*
X358180Y-106330D01*
X358055Y-106272D01*
X357905Y-106222D01*
X357730Y-106188D01*
X357539Y-106172D01*
X357480D01*
X357447Y-106180D01*
X357397D01*
X357339Y-106188D01*
X357214Y-106213D01*
X357072Y-106255D01*
X356914Y-106313D01*
X356764Y-106397D01*
X356631Y-106513D01*
X356614Y-106530D01*
X356581Y-106572D01*
X356522Y-106655D01*
X356464Y-106755D01*
X356397Y-106896D01*
X356339Y-107055D01*
X356306Y-107238D01*
X356289Y-107455D01*
X355481Y-107371D01*
Y-107363D01*
X355489Y-107330D01*
Y-107288D01*
X355498Y-107221D01*
X355514Y-107146D01*
X355531Y-107063D01*
X355556Y-106963D01*
X355589Y-106863D01*
X355664Y-106638D01*
X355714Y-106522D01*
X355773Y-106413D01*
X355839Y-106297D01*
X355914Y-106188D01*
X355998Y-106088D01*
X356097Y-105997D01*
X356106Y-105988D01*
X356123Y-105980D01*
X356156Y-105955D01*
X356197Y-105922D01*
X356256Y-105888D01*
X356322Y-105847D01*
X356397Y-105805D01*
X356489Y-105755D01*
X356589Y-105713D01*
X356697Y-105672D01*
X356814Y-105630D01*
X356947Y-105597D01*
X357080Y-105563D01*
X357230Y-105538D01*
X357389Y-105530D01*
X357555Y-105522D01*
X357647D01*
X357705Y-105530D01*
D02*
G37*
G36*
X332180D02*
X332239D01*
X332364Y-105547D01*
X332514Y-105580D01*
X332672Y-105613D01*
X332839Y-105672D01*
X333005Y-105747D01*
X333013D01*
X333022Y-105755D01*
X333047Y-105772D01*
X333080Y-105788D01*
X333155Y-105838D01*
X333255Y-105905D01*
X333363Y-105997D01*
X333480Y-106105D01*
X333588Y-106222D01*
X333680Y-106363D01*
Y-106372D01*
X333688Y-106380D01*
X333722Y-106430D01*
X333755Y-106513D01*
X333805Y-106613D01*
X333847Y-106738D01*
X333888Y-106880D01*
X333913Y-107030D01*
X333922Y-107188D01*
Y-107196D01*
Y-107205D01*
Y-107255D01*
X333913Y-107338D01*
X333897Y-107438D01*
X333863Y-107555D01*
X333830Y-107680D01*
X333772Y-107813D01*
X333697Y-107946D01*
X333688Y-107963D01*
X333655Y-108005D01*
X333605Y-108063D01*
X333530Y-108138D01*
X333438Y-108229D01*
X333322Y-108321D01*
X333189Y-108404D01*
X333038Y-108488D01*
X333047D01*
X333064Y-108496D01*
X333097Y-108504D01*
X333130Y-108513D01*
X333180Y-108529D01*
X333238Y-108554D01*
X333363Y-108604D01*
X333505Y-108679D01*
X333647Y-108779D01*
X333797Y-108896D01*
X333922Y-109038D01*
Y-109046D01*
X333938Y-109054D01*
X333955Y-109079D01*
X333972Y-109113D01*
X333997Y-109154D01*
X334022Y-109196D01*
X334080Y-109321D01*
X334138Y-109471D01*
X334188Y-109646D01*
X334222Y-109837D01*
X334238Y-110062D01*
Y-110071D01*
Y-110096D01*
Y-110146D01*
X334230Y-110204D01*
X334222Y-110279D01*
X334205Y-110362D01*
X334188Y-110454D01*
X334163Y-110554D01*
X334130Y-110662D01*
X334088Y-110779D01*
X334038Y-110895D01*
X333980Y-111020D01*
X333905Y-111137D01*
X333822Y-111262D01*
X333730Y-111379D01*
X333622Y-111487D01*
X333613Y-111495D01*
X333597Y-111512D01*
X333563Y-111537D01*
X333513Y-111579D01*
X333455Y-111620D01*
X333380Y-111670D01*
X333297Y-111720D01*
X333205Y-111770D01*
X333097Y-111828D01*
X332980Y-111878D01*
X332855Y-111929D01*
X332714Y-111970D01*
X332572Y-112012D01*
X332414Y-112037D01*
X332255Y-112053D01*
X332080Y-112062D01*
X331997D01*
X331939Y-112053D01*
X331872Y-112045D01*
X331789Y-112037D01*
X331689Y-112020D01*
X331589Y-111995D01*
X331372Y-111937D01*
X331256Y-111895D01*
X331139Y-111854D01*
X331014Y-111795D01*
X330897Y-111728D01*
X330789Y-111653D01*
X330681Y-111562D01*
X330672Y-111554D01*
X330656Y-111537D01*
X330631Y-111512D01*
X330589Y-111470D01*
X330547Y-111420D01*
X330498Y-111362D01*
X330448Y-111287D01*
X330389Y-111212D01*
X330339Y-111120D01*
X330281Y-111020D01*
X330231Y-110912D01*
X330181Y-110795D01*
X330131Y-110670D01*
X330098Y-110546D01*
X330064Y-110404D01*
X330048Y-110254D01*
X330831Y-110146D01*
Y-110154D01*
X330839Y-110179D01*
X330847Y-110212D01*
X330856Y-110254D01*
X330872Y-110312D01*
X330889Y-110371D01*
X330939Y-110520D01*
X330997Y-110679D01*
X331081Y-110837D01*
X331172Y-110995D01*
X331222Y-111062D01*
X331281Y-111120D01*
X331297Y-111129D01*
X331339Y-111162D01*
X331406Y-111212D01*
X331506Y-111262D01*
X331622Y-111320D01*
X331755Y-111362D01*
X331914Y-111395D01*
X332080Y-111412D01*
X332139D01*
X332172Y-111404D01*
X332222D01*
X332280Y-111395D01*
X332405Y-111362D01*
X332555Y-111320D01*
X332714Y-111254D01*
X332872Y-111154D01*
X332947Y-111095D01*
X333022Y-111029D01*
X333030Y-111020D01*
X333038Y-111012D01*
X333055Y-110987D01*
X333080Y-110962D01*
X333147Y-110879D01*
X333214Y-110762D01*
X333280Y-110629D01*
X333347Y-110462D01*
X333388Y-110279D01*
X333405Y-110179D01*
Y-110079D01*
Y-110071D01*
Y-110054D01*
Y-110029D01*
X333397Y-109987D01*
Y-109946D01*
X333388Y-109887D01*
X333363Y-109762D01*
X333322Y-109621D01*
X333255Y-109471D01*
X333163Y-109329D01*
X333114Y-109254D01*
X333047Y-109187D01*
X333030Y-109171D01*
X332980Y-109129D01*
X332905Y-109079D01*
X332805Y-109013D01*
X332672Y-108946D01*
X332522Y-108896D01*
X332347Y-108854D01*
X332147Y-108838D01*
X332055D01*
X331997Y-108846D01*
X331914Y-108854D01*
X331814Y-108871D01*
X331706Y-108896D01*
X331589Y-108921D01*
X331680Y-108229D01*
X331697D01*
X331722Y-108238D01*
X331764Y-108246D01*
X331856D01*
X331889Y-108238D01*
X331989Y-108229D01*
X332105Y-108213D01*
X332247Y-108179D01*
X332397Y-108138D01*
X332555Y-108071D01*
X332705Y-107988D01*
X332714D01*
X332722Y-107971D01*
X332772Y-107938D01*
X332839Y-107871D01*
X332914Y-107788D01*
X332989Y-107671D01*
X333047Y-107530D01*
X333097Y-107363D01*
X333105Y-107271D01*
X333114Y-107171D01*
Y-107163D01*
Y-107155D01*
X333105Y-107096D01*
X333097Y-107021D01*
X333080Y-106921D01*
X333038Y-106813D01*
X332989Y-106697D01*
X332914Y-106572D01*
X332814Y-106463D01*
X332797Y-106447D01*
X332764Y-106413D01*
X332697Y-106372D01*
X332614Y-106313D01*
X332505Y-106263D01*
X332372Y-106213D01*
X332230Y-106180D01*
X332064Y-106172D01*
X332022D01*
X331989Y-106180D01*
X331897Y-106188D01*
X331789Y-106205D01*
X331672Y-106247D01*
X331539Y-106297D01*
X331414Y-106363D01*
X331289Y-106463D01*
X331272Y-106480D01*
X331239Y-106513D01*
X331189Y-106580D01*
X331131Y-106680D01*
X331064Y-106797D01*
X330997Y-106946D01*
X330947Y-107121D01*
X330906Y-107321D01*
X330123Y-107180D01*
Y-107171D01*
X330131Y-107146D01*
X330139Y-107105D01*
X330156Y-107046D01*
X330173Y-106988D01*
X330198Y-106905D01*
X330223Y-106821D01*
X330256Y-106730D01*
X330348Y-106538D01*
X330456Y-106338D01*
X330597Y-106138D01*
X330681Y-106047D01*
X330772Y-105963D01*
X330781Y-105955D01*
X330797Y-105947D01*
X330822Y-105922D01*
X330864Y-105897D01*
X330914Y-105863D01*
X330972Y-105822D01*
X331047Y-105780D01*
X331122Y-105738D01*
X331214Y-105705D01*
X331306Y-105663D01*
X331522Y-105588D01*
X331772Y-105538D01*
X331906Y-105530D01*
X332047Y-105522D01*
X332139D01*
X332180Y-105530D01*
D02*
G37*
G36*
X353432Y-111953D02*
X352648D01*
Y-106946D01*
X352632Y-106955D01*
X352598Y-106988D01*
X352532Y-107046D01*
X352448Y-107113D01*
X352340Y-107196D01*
X352207Y-107288D01*
X352065Y-107388D01*
X351898Y-107488D01*
X351890D01*
X351882Y-107496D01*
X351857Y-107513D01*
X351824Y-107530D01*
X351732Y-107580D01*
X351624Y-107638D01*
X351499Y-107705D01*
X351357Y-107771D01*
X351215Y-107838D01*
X351074Y-107896D01*
Y-107130D01*
X351082D01*
X351107Y-107113D01*
X351140Y-107096D01*
X351182Y-107071D01*
X351240Y-107046D01*
X351307Y-107005D01*
X351465Y-106921D01*
X351640Y-106813D01*
X351840Y-106680D01*
X352032Y-106538D01*
X352224Y-106380D01*
X352232Y-106372D01*
X352248Y-106363D01*
X352273Y-106338D01*
X352307Y-106305D01*
X352390Y-106222D01*
X352498Y-106105D01*
X352607Y-105980D01*
X352723Y-105830D01*
X352832Y-105680D01*
X352923Y-105522D01*
X353432D01*
Y-111953D01*
D02*
G37*
G36*
X308588Y110720D02*
X306031D01*
X305689Y108987D01*
X305697Y108996D01*
X305714Y109004D01*
X305747Y109029D01*
X305789Y109054D01*
X305839Y109079D01*
X305906Y109121D01*
X305972Y109154D01*
X306056Y109195D01*
X306239Y109270D01*
X306439Y109329D01*
X306664Y109379D01*
X306780Y109387D01*
X306897Y109395D01*
X306980D01*
X307039Y109387D01*
X307105Y109379D01*
X307189Y109362D01*
X307280Y109345D01*
X307389Y109320D01*
X307497Y109295D01*
X307605Y109254D01*
X307722Y109204D01*
X307847Y109154D01*
X307963Y109079D01*
X308080Y109004D01*
X308197Y108912D01*
X308305Y108812D01*
X308313Y108804D01*
X308330Y108787D01*
X308355Y108754D01*
X308397Y108704D01*
X308438Y108646D01*
X308488Y108579D01*
X308547Y108496D01*
X308597Y108404D01*
X308655Y108304D01*
X308705Y108187D01*
X308755Y108071D01*
X308797Y107937D01*
X308838Y107788D01*
X308863Y107638D01*
X308880Y107479D01*
X308888Y107313D01*
Y107304D01*
Y107271D01*
Y107229D01*
X308880Y107171D01*
X308871Y107096D01*
X308863Y107004D01*
X308847Y106904D01*
X308822Y106804D01*
X308763Y106563D01*
X308722Y106438D01*
X308672Y106313D01*
X308613Y106188D01*
X308547Y106063D01*
X308472Y105938D01*
X308380Y105813D01*
X308372Y105805D01*
X308355Y105780D01*
X308313Y105738D01*
X308263Y105696D01*
X308205Y105630D01*
X308130Y105571D01*
X308038Y105496D01*
X307938Y105430D01*
X307822Y105355D01*
X307697Y105280D01*
X307563Y105222D01*
X307414Y105163D01*
X307247Y105113D01*
X307072Y105071D01*
X306889Y105047D01*
X306697Y105038D01*
X306614D01*
X306556Y105047D01*
X306481Y105055D01*
X306389Y105063D01*
X306297Y105080D01*
X306189Y105097D01*
X305964Y105155D01*
X305847Y105197D01*
X305731Y105246D01*
X305606Y105296D01*
X305489Y105363D01*
X305381Y105438D01*
X305273Y105521D01*
X305264Y105530D01*
X305247Y105546D01*
X305222Y105571D01*
X305189Y105613D01*
X305139Y105663D01*
X305098Y105721D01*
X305039Y105788D01*
X304989Y105871D01*
X304931Y105955D01*
X304881Y106055D01*
X304823Y106163D01*
X304781Y106279D01*
X304731Y106404D01*
X304698Y106530D01*
X304664Y106671D01*
X304648Y106821D01*
X305472Y106879D01*
Y106871D01*
X305481Y106854D01*
Y106821D01*
X305489Y106779D01*
X305506Y106729D01*
X305522Y106671D01*
X305556Y106546D01*
X305614Y106396D01*
X305689Y106246D01*
X305781Y106105D01*
X305889Y105980D01*
X305906Y105971D01*
X305947Y105938D01*
X306022Y105888D01*
X306114Y105838D01*
X306231Y105780D01*
X306372Y105738D01*
X306522Y105705D01*
X306697Y105688D01*
X306755D01*
X306797Y105696D01*
X306839Y105705D01*
X306897Y105713D01*
X307030Y105738D01*
X307189Y105788D01*
X307347Y105871D01*
X307430Y105913D01*
X307514Y105971D01*
X307589Y106038D01*
X307663Y106113D01*
X307672Y106121D01*
X307680Y106130D01*
X307697Y106155D01*
X307722Y106188D01*
X307755Y106230D01*
X307789Y106288D01*
X307822Y106346D01*
X307864Y106413D01*
X307930Y106580D01*
X307997Y106771D01*
X308038Y106996D01*
X308055Y107113D01*
Y107246D01*
Y107254D01*
Y107279D01*
Y107313D01*
X308047Y107354D01*
Y107413D01*
X308038Y107479D01*
X308005Y107629D01*
X307963Y107804D01*
X307897Y107979D01*
X307805Y108154D01*
X307747Y108237D01*
X307680Y108312D01*
Y108321D01*
X307663Y108329D01*
X307638Y108346D01*
X307614Y108371D01*
X307530Y108437D01*
X307414Y108512D01*
X307272Y108579D01*
X307105Y108646D01*
X306905Y108687D01*
X306805Y108704D01*
X306622D01*
X306556Y108696D01*
X306455Y108679D01*
X306355Y108662D01*
X306239Y108629D01*
X306114Y108579D01*
X305997Y108521D01*
X305981Y108512D01*
X305947Y108487D01*
X305897Y108454D01*
X305831Y108396D01*
X305756Y108337D01*
X305672Y108254D01*
X305597Y108171D01*
X305531Y108071D01*
X304789Y108179D01*
X305406Y111470D01*
X308588D01*
Y110720D01*
D02*
G37*
G36*
X353432Y105147D02*
X352648D01*
Y110154D01*
X352632Y110145D01*
X352598Y110112D01*
X352532Y110054D01*
X352448Y109987D01*
X352340Y109904D01*
X352207Y109812D01*
X352065Y109712D01*
X351898Y109612D01*
X351890D01*
X351882Y109604D01*
X351857Y109587D01*
X351824Y109570D01*
X351732Y109520D01*
X351624Y109462D01*
X351499Y109395D01*
X351357Y109329D01*
X351215Y109262D01*
X351074Y109204D01*
Y109970D01*
X351082D01*
X351107Y109987D01*
X351140Y110004D01*
X351182Y110029D01*
X351240Y110054D01*
X351307Y110095D01*
X351465Y110178D01*
X351640Y110287D01*
X351840Y110420D01*
X352032Y110562D01*
X352224Y110720D01*
X352232Y110728D01*
X352248Y110737D01*
X352273Y110762D01*
X352307Y110795D01*
X352390Y110878D01*
X352498Y110995D01*
X352607Y111120D01*
X352723Y111270D01*
X352832Y111420D01*
X352923Y111578D01*
X353432D01*
Y105147D01*
D02*
G37*
G36*
X448885Y-105555D02*
X449043D01*
X449226Y-105572D01*
X449418Y-105588D01*
X449601Y-105613D01*
X449760Y-105647D01*
X449768D01*
X449785Y-105655D01*
X449818Y-105663D01*
X449851Y-105672D01*
X449901Y-105688D01*
X449960Y-105705D01*
X450085Y-105747D01*
X450234Y-105813D01*
X450393Y-105888D01*
X450551Y-105988D01*
X450701Y-106105D01*
X450709Y-106113D01*
X450726Y-106122D01*
X450751Y-106147D01*
X450784Y-106180D01*
X450826Y-106222D01*
X450876Y-106272D01*
X450926Y-106330D01*
X450984Y-106397D01*
X451109Y-106555D01*
X451234Y-106747D01*
X451359Y-106955D01*
X451459Y-107196D01*
Y-107205D01*
X451468Y-107230D01*
X451484Y-107263D01*
X451501Y-107313D01*
X451517Y-107380D01*
X451543Y-107455D01*
X451567Y-107538D01*
X451592Y-107638D01*
X451609Y-107746D01*
X451634Y-107863D01*
X451659Y-107988D01*
X451676Y-108121D01*
X451709Y-108413D01*
X451717Y-108721D01*
Y-108729D01*
Y-108754D01*
Y-108788D01*
Y-108846D01*
X451709Y-108904D01*
Y-108979D01*
X451701Y-109062D01*
X451693Y-109154D01*
X451676Y-109354D01*
X451642Y-109571D01*
X451601Y-109796D01*
X451543Y-110012D01*
Y-110021D01*
X451534Y-110037D01*
X451526Y-110071D01*
X451509Y-110104D01*
X451493Y-110154D01*
X451476Y-110212D01*
X451426Y-110337D01*
X451368Y-110487D01*
X451293Y-110646D01*
X451201Y-110804D01*
X451109Y-110945D01*
X451101Y-110962D01*
X451059Y-111004D01*
X451009Y-111070D01*
X450934Y-111154D01*
X450851Y-111245D01*
X450751Y-111345D01*
X450634Y-111437D01*
X450518Y-111529D01*
X450501Y-111537D01*
X450460Y-111562D01*
X450393Y-111604D01*
X450301Y-111645D01*
X450193Y-111695D01*
X450060Y-111754D01*
X449910Y-111804D01*
X449751Y-111845D01*
X449743D01*
X449735Y-111854D01*
X449710D01*
X449676Y-111862D01*
X449635Y-111870D01*
X449585Y-111878D01*
X449460Y-111895D01*
X449310Y-111920D01*
X449135Y-111937D01*
X448935Y-111945D01*
X448727Y-111953D01*
X446419D01*
Y-105547D01*
X448810D01*
X448885Y-105555D01*
D02*
G37*
G36*
X385746Y-108596D02*
X388137Y-111953D01*
X387096D01*
X385480Y-109671D01*
X385471Y-109662D01*
X385455Y-109637D01*
X385430Y-109596D01*
X385396Y-109546D01*
X385355Y-109487D01*
X385313Y-109421D01*
X385213Y-109279D01*
X385205Y-109296D01*
X385180Y-109329D01*
X385146Y-109388D01*
X385097Y-109454D01*
X384997Y-109612D01*
X384955Y-109679D01*
X384913Y-109737D01*
X383289Y-111953D01*
X382272D01*
X384747Y-108629D01*
X382564Y-105547D01*
X383580D01*
X384747Y-107188D01*
X384755Y-107196D01*
X384763Y-107213D01*
X384780Y-107238D01*
X384805Y-107271D01*
X384872Y-107363D01*
X384947Y-107480D01*
X385030Y-107605D01*
X385113Y-107738D01*
X385188Y-107863D01*
X385255Y-107971D01*
X385263Y-107955D01*
X385297Y-107913D01*
X385338Y-107846D01*
X385396Y-107754D01*
X385471Y-107646D01*
X385563Y-107521D01*
X385655Y-107396D01*
X385763Y-107255D01*
X387038Y-105547D01*
X387962D01*
X385746Y-108596D01*
D02*
G37*
G36*
X443228Y-105555D02*
X443378Y-105563D01*
X443545Y-105572D01*
X443703Y-105588D01*
X443836Y-105613D01*
X443861D01*
X443878Y-105622D01*
X443911Y-105630D01*
X444003Y-105647D01*
X444111Y-105680D01*
X444236Y-105722D01*
X444361Y-105772D01*
X444494Y-105838D01*
X444619Y-105913D01*
X444636Y-105922D01*
X444669Y-105955D01*
X444736Y-106005D01*
X444803Y-106072D01*
X444886Y-106155D01*
X444977Y-106263D01*
X445061Y-106388D01*
X445136Y-106530D01*
Y-106538D01*
X445144Y-106546D01*
X445153Y-106572D01*
X445169Y-106596D01*
X445202Y-106680D01*
X445236Y-106788D01*
X445269Y-106921D01*
X445303Y-107071D01*
X445327Y-107230D01*
X445336Y-107405D01*
Y-107413D01*
Y-107438D01*
Y-107480D01*
X445327Y-107538D01*
X445319Y-107613D01*
X445311Y-107696D01*
X445294Y-107788D01*
X445269Y-107879D01*
X445211Y-108104D01*
X445169Y-108213D01*
X445111Y-108329D01*
X445052Y-108446D01*
X444986Y-108563D01*
X444903Y-108679D01*
X444811Y-108788D01*
X444803Y-108796D01*
X444786Y-108813D01*
X444753Y-108838D01*
X444711Y-108879D01*
X444653Y-108921D01*
X444578Y-108963D01*
X444486Y-109021D01*
X444386Y-109071D01*
X444261Y-109121D01*
X444128Y-109171D01*
X443969Y-109221D01*
X443803Y-109263D01*
X443611Y-109304D01*
X443403Y-109329D01*
X443178Y-109346D01*
X442936Y-109354D01*
X441303D01*
Y-111953D01*
X440454D01*
Y-105547D01*
X443086D01*
X443228Y-105555D01*
D02*
G37*
G36*
X226432Y105147D02*
X225648D01*
Y110154D01*
X225632Y110145D01*
X225598Y110112D01*
X225532Y110054D01*
X225448Y109987D01*
X225340Y109904D01*
X225207Y109812D01*
X225065Y109712D01*
X224898Y109612D01*
X224890D01*
X224882Y109604D01*
X224857Y109587D01*
X224824Y109570D01*
X224732Y109520D01*
X224624Y109462D01*
X224499Y109395D01*
X224357Y109329D01*
X224215Y109262D01*
X224074Y109204D01*
Y109970D01*
X224082D01*
X224107Y109987D01*
X224140Y110004D01*
X224182Y110029D01*
X224240Y110054D01*
X224307Y110095D01*
X224465Y110178D01*
X224640Y110287D01*
X224840Y110420D01*
X225032Y110562D01*
X225224Y110720D01*
X225232Y110728D01*
X225248Y110737D01*
X225273Y110762D01*
X225307Y110795D01*
X225390Y110878D01*
X225498Y110995D01*
X225607Y111120D01*
X225723Y111270D01*
X225832Y111420D01*
X225923Y111578D01*
X226432D01*
Y105147D01*
D02*
G37*
G36*
X231747Y107404D02*
X232613D01*
Y106679D01*
X231747D01*
Y105147D01*
X230964D01*
Y106679D01*
X228181D01*
Y107404D01*
X231105Y111553D01*
X231747D01*
Y107404D01*
D02*
G37*
G36*
X256105Y111570D02*
X256189Y111561D01*
X256280Y111553D01*
X256380Y111537D01*
X256489Y111511D01*
X256722Y111453D01*
X256838Y111412D01*
X256964Y111362D01*
X257089Y111303D01*
X257205Y111228D01*
X257313Y111153D01*
X257422Y111062D01*
X257430Y111053D01*
X257447Y111037D01*
X257472Y111012D01*
X257505Y110970D01*
X257547Y110920D01*
X257597Y110862D01*
X257638Y110795D01*
X257697Y110712D01*
X257747Y110628D01*
X257788Y110528D01*
X257880Y110312D01*
X257913Y110195D01*
X257938Y110070D01*
X257955Y109937D01*
X257963Y109795D01*
Y109779D01*
Y109729D01*
X257955Y109654D01*
X257947Y109554D01*
X257922Y109445D01*
X257897Y109312D01*
X257855Y109179D01*
X257805Y109037D01*
X257797Y109021D01*
X257772Y108970D01*
X257738Y108896D01*
X257680Y108804D01*
X257605Y108687D01*
X257513Y108554D01*
X257405Y108404D01*
X257280Y108254D01*
Y108246D01*
X257263Y108237D01*
X257238Y108212D01*
X257213Y108179D01*
X257172Y108137D01*
X257122Y108087D01*
X257064Y108029D01*
X256989Y107962D01*
X256914Y107887D01*
X256822Y107804D01*
X256722Y107704D01*
X256614Y107604D01*
X256489Y107496D01*
X256364Y107388D01*
X256214Y107263D01*
X256064Y107129D01*
X256055Y107121D01*
X256030Y107104D01*
X255997Y107071D01*
X255947Y107038D01*
X255897Y106988D01*
X255830Y106929D01*
X255689Y106804D01*
X255530Y106671D01*
X255381Y106538D01*
X255314Y106480D01*
X255256Y106421D01*
X255197Y106363D01*
X255156Y106321D01*
X255147Y106313D01*
X255122Y106288D01*
X255089Y106246D01*
X255039Y106188D01*
X254989Y106130D01*
X254931Y106055D01*
X254822Y105905D01*
X257972D01*
Y105147D01*
X253731D01*
Y105163D01*
Y105197D01*
Y105246D01*
X253739Y105322D01*
X253748Y105405D01*
X253764Y105496D01*
X253789Y105588D01*
X253823Y105688D01*
Y105696D01*
X253831Y105705D01*
X253839Y105730D01*
X253856Y105763D01*
X253889Y105846D01*
X253948Y105955D01*
X254023Y106088D01*
X254106Y106230D01*
X254214Y106379D01*
X254339Y106538D01*
X254347Y106546D01*
X254356Y106554D01*
X254381Y106580D01*
X254406Y106613D01*
X254489Y106704D01*
X254606Y106821D01*
X254747Y106963D01*
X254922Y107129D01*
X255131Y107313D01*
X255372Y107513D01*
X255381Y107521D01*
X255414Y107554D01*
X255472Y107596D01*
X255539Y107654D01*
X255622Y107729D01*
X255722Y107812D01*
X255830Y107904D01*
X255939Y108004D01*
X256172Y108221D01*
X256405Y108446D01*
X256514Y108562D01*
X256614Y108671D01*
X256705Y108771D01*
X256780Y108870D01*
X256789Y108879D01*
X256797Y108896D01*
X256814Y108920D01*
X256838Y108954D01*
X256863Y109004D01*
X256897Y109054D01*
X256972Y109179D01*
X257038Y109320D01*
X257097Y109479D01*
X257138Y109654D01*
X257155Y109737D01*
Y109820D01*
Y109829D01*
Y109845D01*
Y109862D01*
X257147Y109895D01*
X257138Y109987D01*
X257113Y110095D01*
X257072Y110220D01*
X257013Y110345D01*
X256930Y110478D01*
X256814Y110603D01*
X256797Y110620D01*
X256755Y110653D01*
X256680Y110703D01*
X256580Y110770D01*
X256455Y110828D01*
X256305Y110878D01*
X256130Y110912D01*
X255939Y110928D01*
X255880D01*
X255847Y110920D01*
X255797D01*
X255739Y110912D01*
X255614Y110887D01*
X255472Y110845D01*
X255314Y110787D01*
X255164Y110703D01*
X255031Y110587D01*
X255014Y110570D01*
X254981Y110528D01*
X254922Y110445D01*
X254864Y110345D01*
X254797Y110204D01*
X254739Y110045D01*
X254706Y109862D01*
X254689Y109645D01*
X253881Y109729D01*
Y109737D01*
X253889Y109770D01*
Y109812D01*
X253898Y109879D01*
X253914Y109954D01*
X253931Y110037D01*
X253956Y110137D01*
X253989Y110237D01*
X254064Y110462D01*
X254114Y110578D01*
X254172Y110687D01*
X254239Y110803D01*
X254314Y110912D01*
X254398Y111012D01*
X254498Y111103D01*
X254506Y111112D01*
X254522Y111120D01*
X254556Y111145D01*
X254597Y111178D01*
X254656Y111212D01*
X254722Y111253D01*
X254797Y111295D01*
X254889Y111345D01*
X254989Y111387D01*
X255097Y111428D01*
X255214Y111470D01*
X255347Y111503D01*
X255480Y111537D01*
X255630Y111561D01*
X255789Y111570D01*
X255955Y111578D01*
X256047D01*
X256105Y111570D01*
D02*
G37*
G36*
X281380D02*
X281439D01*
X281564Y111553D01*
X281714Y111520D01*
X281872Y111487D01*
X282039Y111428D01*
X282205Y111353D01*
X282213D01*
X282222Y111345D01*
X282247Y111328D01*
X282280Y111312D01*
X282355Y111262D01*
X282455Y111195D01*
X282563Y111103D01*
X282680Y110995D01*
X282788Y110878D01*
X282880Y110737D01*
Y110728D01*
X282888Y110720D01*
X282922Y110670D01*
X282955Y110587D01*
X283005Y110487D01*
X283047Y110362D01*
X283088Y110220D01*
X283113Y110070D01*
X283122Y109912D01*
Y109904D01*
Y109895D01*
Y109845D01*
X283113Y109762D01*
X283097Y109662D01*
X283063Y109545D01*
X283030Y109420D01*
X282972Y109287D01*
X282897Y109154D01*
X282888Y109137D01*
X282855Y109095D01*
X282805Y109037D01*
X282730Y108962D01*
X282638Y108870D01*
X282522Y108779D01*
X282388Y108696D01*
X282239Y108612D01*
X282247D01*
X282264Y108604D01*
X282297Y108596D01*
X282330Y108587D01*
X282380Y108571D01*
X282439Y108546D01*
X282563Y108496D01*
X282705Y108421D01*
X282847Y108321D01*
X282997Y108204D01*
X283122Y108062D01*
Y108054D01*
X283138Y108046D01*
X283155Y108021D01*
X283172Y107987D01*
X283197Y107946D01*
X283222Y107904D01*
X283280Y107779D01*
X283338Y107629D01*
X283388Y107454D01*
X283422Y107263D01*
X283438Y107038D01*
Y107029D01*
Y107004D01*
Y106954D01*
X283430Y106896D01*
X283422Y106821D01*
X283405Y106738D01*
X283388Y106646D01*
X283363Y106546D01*
X283330Y106438D01*
X283288Y106321D01*
X283238Y106205D01*
X283180Y106080D01*
X283105Y105963D01*
X283022Y105838D01*
X282930Y105721D01*
X282822Y105613D01*
X282813Y105605D01*
X282797Y105588D01*
X282763Y105563D01*
X282713Y105521D01*
X282655Y105480D01*
X282580Y105430D01*
X282497Y105380D01*
X282405Y105330D01*
X282297Y105272D01*
X282180Y105222D01*
X282055Y105171D01*
X281914Y105130D01*
X281772Y105088D01*
X281614Y105063D01*
X281455Y105047D01*
X281280Y105038D01*
X281197D01*
X281139Y105047D01*
X281072Y105055D01*
X280989Y105063D01*
X280889Y105080D01*
X280789Y105105D01*
X280572Y105163D01*
X280456Y105205D01*
X280339Y105246D01*
X280214Y105305D01*
X280097Y105371D01*
X279989Y105446D01*
X279881Y105538D01*
X279872Y105546D01*
X279856Y105563D01*
X279831Y105588D01*
X279789Y105630D01*
X279748Y105680D01*
X279697Y105738D01*
X279648Y105813D01*
X279589Y105888D01*
X279539Y105980D01*
X279481Y106080D01*
X279431Y106188D01*
X279381Y106305D01*
X279331Y106430D01*
X279298Y106554D01*
X279264Y106696D01*
X279248Y106846D01*
X280031Y106954D01*
Y106946D01*
X280039Y106921D01*
X280047Y106888D01*
X280056Y106846D01*
X280072Y106788D01*
X280089Y106729D01*
X280139Y106580D01*
X280197Y106421D01*
X280281Y106263D01*
X280372Y106105D01*
X280422Y106038D01*
X280481Y105980D01*
X280497Y105971D01*
X280539Y105938D01*
X280606Y105888D01*
X280706Y105838D01*
X280822Y105780D01*
X280956Y105738D01*
X281114Y105705D01*
X281280Y105688D01*
X281339D01*
X281372Y105696D01*
X281422D01*
X281480Y105705D01*
X281605Y105738D01*
X281755Y105780D01*
X281914Y105846D01*
X282072Y105946D01*
X282147Y106005D01*
X282222Y106071D01*
X282230Y106080D01*
X282239Y106088D01*
X282255Y106113D01*
X282280Y106138D01*
X282347Y106221D01*
X282414Y106338D01*
X282480Y106471D01*
X282547Y106638D01*
X282588Y106821D01*
X282605Y106921D01*
Y107021D01*
Y107029D01*
Y107046D01*
Y107071D01*
X282597Y107113D01*
Y107154D01*
X282588Y107213D01*
X282563Y107338D01*
X282522Y107479D01*
X282455Y107629D01*
X282363Y107771D01*
X282313Y107846D01*
X282247Y107913D01*
X282230Y107929D01*
X282180Y107971D01*
X282105Y108021D01*
X282005Y108087D01*
X281872Y108154D01*
X281722Y108204D01*
X281547Y108246D01*
X281347Y108262D01*
X281255D01*
X281197Y108254D01*
X281114Y108246D01*
X281014Y108229D01*
X280905Y108204D01*
X280789Y108179D01*
X280881Y108870D01*
X280897D01*
X280922Y108862D01*
X280964Y108854D01*
X281056D01*
X281089Y108862D01*
X281189Y108870D01*
X281305Y108887D01*
X281447Y108920D01*
X281597Y108962D01*
X281755Y109029D01*
X281905Y109112D01*
X281914D01*
X281922Y109129D01*
X281972Y109162D01*
X282039Y109229D01*
X282114Y109312D01*
X282188Y109429D01*
X282247Y109570D01*
X282297Y109737D01*
X282305Y109829D01*
X282313Y109929D01*
Y109937D01*
Y109945D01*
X282305Y110004D01*
X282297Y110079D01*
X282280Y110178D01*
X282239Y110287D01*
X282188Y110403D01*
X282114Y110528D01*
X282014Y110637D01*
X281997Y110653D01*
X281964Y110687D01*
X281897Y110728D01*
X281814Y110787D01*
X281705Y110837D01*
X281572Y110887D01*
X281430Y110920D01*
X281264Y110928D01*
X281222D01*
X281189Y110920D01*
X281097Y110912D01*
X280989Y110895D01*
X280872Y110853D01*
X280739Y110803D01*
X280614Y110737D01*
X280489Y110637D01*
X280472Y110620D01*
X280439Y110587D01*
X280389Y110520D01*
X280331Y110420D01*
X280264Y110303D01*
X280197Y110154D01*
X280147Y109979D01*
X280106Y109779D01*
X279323Y109920D01*
Y109929D01*
X279331Y109954D01*
X279339Y109995D01*
X279356Y110054D01*
X279373Y110112D01*
X279398Y110195D01*
X279423Y110279D01*
X279456Y110370D01*
X279548Y110562D01*
X279656Y110762D01*
X279797Y110962D01*
X279881Y111053D01*
X279972Y111137D01*
X279981Y111145D01*
X279997Y111153D01*
X280022Y111178D01*
X280064Y111203D01*
X280114Y111237D01*
X280172Y111278D01*
X280247Y111320D01*
X280322Y111362D01*
X280414Y111395D01*
X280506Y111437D01*
X280722Y111511D01*
X280972Y111561D01*
X281105Y111570D01*
X281247Y111578D01*
X281339D01*
X281380Y111570D01*
D02*
G37*
G36*
X251831Y105147D02*
X251048D01*
Y110154D01*
X251032Y110145D01*
X250998Y110112D01*
X250932Y110054D01*
X250848Y109987D01*
X250740Y109904D01*
X250607Y109812D01*
X250465Y109712D01*
X250299Y109612D01*
X250290D01*
X250282Y109604D01*
X250257Y109587D01*
X250224Y109570D01*
X250132Y109520D01*
X250024Y109462D01*
X249899Y109395D01*
X249757Y109329D01*
X249615Y109262D01*
X249474Y109204D01*
Y109970D01*
X249482D01*
X249507Y109987D01*
X249540Y110004D01*
X249582Y110029D01*
X249640Y110054D01*
X249707Y110095D01*
X249865Y110178D01*
X250040Y110287D01*
X250240Y110420D01*
X250432Y110562D01*
X250623Y110720D01*
X250632Y110728D01*
X250648Y110737D01*
X250673Y110762D01*
X250707Y110795D01*
X250790Y110878D01*
X250898Y110995D01*
X251007Y111120D01*
X251123Y111270D01*
X251232Y111420D01*
X251323Y111578D01*
X251831D01*
Y105147D01*
D02*
G37*
G36*
X327890Y111570D02*
X327940D01*
X328065Y111553D01*
X328206Y111528D01*
X328356Y111487D01*
X328515Y111437D01*
X328665Y111370D01*
X328673D01*
X328681Y111362D01*
X328731Y111328D01*
X328798Y111287D01*
X328890Y111220D01*
X328990Y111128D01*
X329098Y111028D01*
X329206Y110912D01*
X329306Y110770D01*
Y110762D01*
X329314Y110753D01*
X329331Y110728D01*
X329348Y110703D01*
X329389Y110620D01*
X329448Y110504D01*
X329514Y110362D01*
X329581Y110204D01*
X329639Y110012D01*
X329698Y109812D01*
Y109804D01*
X329706Y109787D01*
X329714Y109754D01*
X329723Y109712D01*
X329731Y109654D01*
X329748Y109587D01*
X329756Y109504D01*
X329773Y109412D01*
X329789Y109312D01*
X329798Y109195D01*
X329814Y109079D01*
X329823Y108937D01*
X329831Y108796D01*
X329839Y108646D01*
X329848Y108479D01*
Y108304D01*
Y108287D01*
Y108254D01*
Y108196D01*
Y108112D01*
X329839Y108021D01*
Y107913D01*
X329831Y107788D01*
X329823Y107654D01*
X329789Y107363D01*
X329748Y107054D01*
X329689Y106754D01*
X329656Y106613D01*
X329614Y106480D01*
Y106471D01*
X329606Y106446D01*
X329589Y106413D01*
X329573Y106363D01*
X329548Y106305D01*
X329514Y106238D01*
X329439Y106088D01*
X329339Y105913D01*
X329223Y105738D01*
X329081Y105563D01*
X328915Y105413D01*
X328906D01*
X328898Y105396D01*
X328865Y105380D01*
X328831Y105355D01*
X328790Y105330D01*
X328731Y105296D01*
X328673Y105263D01*
X328598Y105230D01*
X328431Y105155D01*
X328231Y105097D01*
X328007Y105055D01*
X327882Y105047D01*
X327757Y105038D01*
X327715D01*
X327665Y105047D01*
X327607D01*
X327523Y105055D01*
X327440Y105071D01*
X327340Y105097D01*
X327232Y105121D01*
X327115Y105155D01*
X326998Y105197D01*
X326873Y105255D01*
X326749Y105313D01*
X326632Y105388D01*
X326515Y105480D01*
X326407Y105580D01*
X326299Y105696D01*
X326290Y105705D01*
X326274Y105738D01*
X326240Y105780D01*
X326199Y105846D01*
X326157Y105938D01*
X326099Y106046D01*
X326049Y106171D01*
X325990Y106321D01*
X325932Y106496D01*
X325874Y106688D01*
X325815Y106896D01*
X325774Y107138D01*
X325732Y107396D01*
X325699Y107671D01*
X325682Y107979D01*
X325674Y108304D01*
Y108321D01*
Y108354D01*
Y108412D01*
Y108496D01*
X325682Y108587D01*
X325690Y108696D01*
Y108821D01*
X325707Y108954D01*
X325732Y109246D01*
X325774Y109554D01*
X325832Y109854D01*
X325865Y109995D01*
X325907Y110129D01*
Y110137D01*
X325915Y110162D01*
X325932Y110195D01*
X325949Y110245D01*
X325974Y110303D01*
X326007Y110370D01*
X326082Y110528D01*
X326182Y110695D01*
X326299Y110878D01*
X326440Y111053D01*
X326599Y111203D01*
X326607Y111212D01*
X326623Y111220D01*
X326648Y111237D01*
X326682Y111262D01*
X326724Y111287D01*
X326782Y111320D01*
X326840Y111353D01*
X326915Y111395D01*
X327082Y111462D01*
X327282Y111520D01*
X327507Y111561D01*
X327632Y111578D01*
X327840D01*
X327890Y111570D01*
D02*
G37*
G36*
X328032Y-111953D02*
X327248D01*
Y-106946D01*
X327232Y-106955D01*
X327198Y-106988D01*
X327132Y-107046D01*
X327048Y-107113D01*
X326940Y-107196D01*
X326807Y-107288D01*
X326665Y-107388D01*
X326498Y-107488D01*
X326490D01*
X326482Y-107496D01*
X326457Y-107513D01*
X326424Y-107530D01*
X326332Y-107580D01*
X326224Y-107638D01*
X326099Y-107705D01*
X325957Y-107771D01*
X325815Y-107838D01*
X325674Y-107896D01*
Y-107130D01*
X325682D01*
X325707Y-107113D01*
X325740Y-107096D01*
X325782Y-107071D01*
X325840Y-107046D01*
X325907Y-107005D01*
X326065Y-106921D01*
X326240Y-106813D01*
X326440Y-106680D01*
X326632Y-106538D01*
X326824Y-106380D01*
X326832Y-106372D01*
X326848Y-106363D01*
X326873Y-106338D01*
X326907Y-106305D01*
X326990Y-106222D01*
X327098Y-106105D01*
X327207Y-105980D01*
X327323Y-105830D01*
X327432Y-105680D01*
X327523Y-105522D01*
X328032D01*
Y-111953D01*
D02*
G37*
G36*
X307947Y-109696D02*
X308813D01*
Y-110421D01*
X307947D01*
Y-111953D01*
X307164D01*
Y-110421D01*
X304381D01*
Y-109696D01*
X307305Y-105547D01*
X307947D01*
Y-109696D01*
D02*
G37*
G36*
X277232Y105147D02*
X276448D01*
Y110154D01*
X276432Y110145D01*
X276398Y110112D01*
X276332Y110054D01*
X276248Y109987D01*
X276140Y109904D01*
X276007Y109812D01*
X275865Y109712D01*
X275699Y109612D01*
X275690D01*
X275682Y109604D01*
X275657Y109587D01*
X275624Y109570D01*
X275532Y109520D01*
X275424Y109462D01*
X275299Y109395D01*
X275157Y109329D01*
X275015Y109262D01*
X274874Y109204D01*
Y109970D01*
X274882D01*
X274907Y109987D01*
X274940Y110004D01*
X274982Y110029D01*
X275040Y110054D01*
X275107Y110095D01*
X275265Y110178D01*
X275440Y110287D01*
X275640Y110420D01*
X275832Y110562D01*
X276024Y110720D01*
X276032Y110728D01*
X276048Y110737D01*
X276073Y110762D01*
X276107Y110795D01*
X276190Y110878D01*
X276298Y110995D01*
X276407Y111120D01*
X276523Y111270D01*
X276632Y111420D01*
X276723Y111578D01*
X277232D01*
Y105147D01*
D02*
G37*
G36*
X302631Y-111953D02*
X301848D01*
Y-106946D01*
X301832Y-106955D01*
X301798Y-106988D01*
X301732Y-107046D01*
X301648Y-107113D01*
X301540Y-107196D01*
X301407Y-107288D01*
X301265Y-107388D01*
X301098Y-107488D01*
X301090D01*
X301082Y-107496D01*
X301057Y-107513D01*
X301024Y-107530D01*
X300932Y-107580D01*
X300824Y-107638D01*
X300699Y-107705D01*
X300557Y-107771D01*
X300415Y-107838D01*
X300274Y-107896D01*
Y-107130D01*
X300282D01*
X300307Y-107113D01*
X300340Y-107096D01*
X300382Y-107071D01*
X300440Y-107046D01*
X300507Y-107005D01*
X300665Y-106921D01*
X300840Y-106813D01*
X301040Y-106680D01*
X301232Y-106538D01*
X301423Y-106380D01*
X301432Y-106372D01*
X301448Y-106363D01*
X301473Y-106338D01*
X301507Y-106305D01*
X301590Y-106222D01*
X301698Y-106105D01*
X301807Y-105980D01*
X301923Y-105830D01*
X302032Y-105680D01*
X302123Y-105522D01*
X302631D01*
Y-111953D01*
D02*
G37*
G36*
X108182Y-85093D02*
X108249D01*
X108332Y-85102D01*
X108416Y-85110D01*
X108616Y-85143D01*
X108824Y-85185D01*
X109041Y-85243D01*
X109257Y-85318D01*
X109265D01*
X109282Y-85327D01*
X109307Y-85343D01*
X109349Y-85360D01*
X109399Y-85385D01*
X109449Y-85410D01*
X109574Y-85477D01*
X109715Y-85568D01*
X109865Y-85676D01*
X110007Y-85801D01*
X110132Y-85943D01*
Y-85951D01*
X110149Y-85960D01*
X110165Y-85985D01*
X110182Y-86018D01*
X110215Y-86051D01*
X110240Y-86101D01*
X110315Y-86226D01*
X110399Y-86376D01*
X110473Y-86551D01*
X110557Y-86760D01*
X110624Y-86993D01*
X109857Y-87201D01*
Y-87193D01*
X109849Y-87176D01*
X109840Y-87151D01*
X109832Y-87118D01*
X109799Y-87035D01*
X109757Y-86918D01*
X109707Y-86801D01*
X109649Y-86668D01*
X109574Y-86543D01*
X109499Y-86435D01*
X109490Y-86418D01*
X109457Y-86385D01*
X109407Y-86335D01*
X109340Y-86268D01*
X109257Y-86201D01*
X109149Y-86126D01*
X109024Y-86051D01*
X108882Y-85985D01*
X108874D01*
X108866Y-85976D01*
X108816Y-85960D01*
X108732Y-85926D01*
X108624Y-85893D01*
X108499Y-85868D01*
X108349Y-85835D01*
X108182Y-85818D01*
X108007Y-85810D01*
X107907D01*
X107858Y-85818D01*
X107799D01*
X107666Y-85835D01*
X107508Y-85851D01*
X107333Y-85885D01*
X107166Y-85935D01*
X106999Y-85993D01*
X106991D01*
X106983Y-86001D01*
X106933Y-86026D01*
X106849Y-86060D01*
X106758Y-86118D01*
X106650Y-86185D01*
X106533Y-86260D01*
X106416Y-86360D01*
X106316Y-86460D01*
X106308Y-86476D01*
X106275Y-86510D01*
X106225Y-86568D01*
X106166Y-86643D01*
X106108Y-86735D01*
X106041Y-86843D01*
X105975Y-86968D01*
X105916Y-87093D01*
Y-87101D01*
X105908Y-87118D01*
X105891Y-87151D01*
X105883Y-87193D01*
X105858Y-87251D01*
X105841Y-87318D01*
X105816Y-87393D01*
X105800Y-87476D01*
X105750Y-87668D01*
X105716Y-87884D01*
X105683Y-88126D01*
X105675Y-88384D01*
Y-88392D01*
Y-88426D01*
Y-88468D01*
X105683Y-88526D01*
Y-88601D01*
X105691Y-88684D01*
X105700Y-88784D01*
X105708Y-88884D01*
X105750Y-89109D01*
X105800Y-89351D01*
X105866Y-89592D01*
X105966Y-89817D01*
Y-89825D01*
X105983Y-89842D01*
X106000Y-89875D01*
X106025Y-89909D01*
X106050Y-89959D01*
X106091Y-90017D01*
X106183Y-90142D01*
X106300Y-90275D01*
X106450Y-90425D01*
X106616Y-90559D01*
X106816Y-90675D01*
X106825D01*
X106841Y-90684D01*
X106875Y-90700D01*
X106916Y-90717D01*
X106966Y-90742D01*
X107033Y-90758D01*
X107099Y-90784D01*
X107183Y-90808D01*
X107358Y-90867D01*
X107558Y-90908D01*
X107783Y-90942D01*
X108016Y-90950D01*
X108108D01*
X108158Y-90942D01*
X108216D01*
X108357Y-90925D01*
X108524Y-90900D01*
X108699Y-90858D01*
X108891Y-90808D01*
X109091Y-90742D01*
X109099D01*
X109116Y-90733D01*
X109141Y-90717D01*
X109174Y-90709D01*
X109274Y-90667D01*
X109390Y-90609D01*
X109515Y-90542D01*
X109649Y-90467D01*
X109774Y-90384D01*
X109890Y-90292D01*
Y-89092D01*
X108007D01*
Y-88334D01*
X110723D01*
Y-90717D01*
X110715Y-90725D01*
X110698Y-90742D01*
X110665Y-90767D01*
X110615Y-90800D01*
X110557Y-90842D01*
X110490Y-90884D01*
X110415Y-90934D01*
X110332Y-90992D01*
X110132Y-91117D01*
X109915Y-91233D01*
X109682Y-91358D01*
X109432Y-91458D01*
X109424D01*
X109399Y-91467D01*
X109366Y-91483D01*
X109316Y-91500D01*
X109257Y-91517D01*
X109182Y-91533D01*
X109099Y-91558D01*
X109016Y-91583D01*
X108807Y-91625D01*
X108574Y-91667D01*
X108324Y-91700D01*
X108066Y-91708D01*
X107974D01*
X107907Y-91700D01*
X107824D01*
X107724Y-91683D01*
X107616Y-91675D01*
X107499Y-91658D01*
X107366Y-91633D01*
X107233Y-91608D01*
X106941Y-91542D01*
X106650Y-91442D01*
X106500Y-91375D01*
X106350Y-91308D01*
X106341Y-91300D01*
X106316Y-91292D01*
X106275Y-91267D01*
X106225Y-91233D01*
X106158Y-91192D01*
X106083Y-91142D01*
X106008Y-91075D01*
X105916Y-91009D01*
X105825Y-90934D01*
X105733Y-90842D01*
X105633Y-90750D01*
X105541Y-90642D01*
X105442Y-90534D01*
X105350Y-90409D01*
X105267Y-90284D01*
X105192Y-90142D01*
Y-90134D01*
X105175Y-90109D01*
X105158Y-90067D01*
X105133Y-90009D01*
X105100Y-89934D01*
X105067Y-89850D01*
X105033Y-89750D01*
X105000Y-89642D01*
X104958Y-89517D01*
X104925Y-89384D01*
X104892Y-89251D01*
X104858Y-89101D01*
X104817Y-88776D01*
X104808Y-88609D01*
X104800Y-88434D01*
Y-88426D01*
Y-88392D01*
Y-88343D01*
X104808Y-88276D01*
Y-88193D01*
X104817Y-88093D01*
X104833Y-87984D01*
X104850Y-87859D01*
X104867Y-87734D01*
X104892Y-87593D01*
X104958Y-87301D01*
X105058Y-86993D01*
X105117Y-86834D01*
X105183Y-86685D01*
X105192Y-86676D01*
X105200Y-86651D01*
X105225Y-86610D01*
X105258Y-86551D01*
X105300Y-86485D01*
X105350Y-86410D01*
X105408Y-86326D01*
X105475Y-86235D01*
X105550Y-86135D01*
X105633Y-86035D01*
X105725Y-85935D01*
X105825Y-85835D01*
X106050Y-85652D01*
X106175Y-85560D01*
X106308Y-85485D01*
X106316Y-85477D01*
X106341Y-85468D01*
X106383Y-85452D01*
X106441Y-85418D01*
X106508Y-85393D01*
X106591Y-85360D01*
X106691Y-85318D01*
X106799Y-85285D01*
X106916Y-85243D01*
X107049Y-85210D01*
X107183Y-85177D01*
X107333Y-85143D01*
X107658Y-85102D01*
X107824Y-85093D01*
X107999Y-85085D01*
X108116D01*
X108182Y-85093D01*
D02*
G37*
G36*
X136482Y-91600D02*
X135524D01*
X134782Y-89659D01*
X132100D01*
X131400Y-91600D01*
X130508D01*
X132949Y-85193D01*
X133874D01*
X136482Y-91600D01*
D02*
G37*
G36*
X117014D02*
X116139D01*
X112781Y-86576D01*
Y-91600D01*
X111965D01*
Y-85193D01*
X112831D01*
X116197Y-90225D01*
Y-85193D01*
X117014D01*
Y-91600D01*
D02*
G37*
G36*
X120904Y-85202D02*
X121062D01*
X121246Y-85218D01*
X121437Y-85235D01*
X121621Y-85260D01*
X121779Y-85293D01*
X121787D01*
X121804Y-85302D01*
X121837Y-85310D01*
X121871Y-85318D01*
X121921Y-85335D01*
X121979Y-85352D01*
X122104Y-85393D01*
X122254Y-85460D01*
X122412Y-85535D01*
X122570Y-85635D01*
X122720Y-85751D01*
X122729Y-85760D01*
X122745Y-85768D01*
X122770Y-85793D01*
X122804Y-85827D01*
X122845Y-85868D01*
X122895Y-85918D01*
X122945Y-85976D01*
X123004Y-86043D01*
X123129Y-86201D01*
X123254Y-86393D01*
X123379Y-86601D01*
X123478Y-86843D01*
Y-86851D01*
X123487Y-86876D01*
X123504Y-86910D01*
X123520Y-86959D01*
X123537Y-87026D01*
X123562Y-87101D01*
X123587Y-87184D01*
X123612Y-87284D01*
X123629Y-87393D01*
X123653Y-87509D01*
X123679Y-87634D01*
X123695Y-87768D01*
X123729Y-88059D01*
X123737Y-88368D01*
Y-88376D01*
Y-88401D01*
Y-88434D01*
Y-88492D01*
X123729Y-88551D01*
Y-88626D01*
X123720Y-88709D01*
X123712Y-88801D01*
X123695Y-89001D01*
X123662Y-89217D01*
X123620Y-89442D01*
X123562Y-89659D01*
Y-89667D01*
X123553Y-89684D01*
X123545Y-89717D01*
X123528Y-89750D01*
X123512Y-89801D01*
X123495Y-89859D01*
X123445Y-89984D01*
X123387Y-90134D01*
X123312Y-90292D01*
X123220Y-90450D01*
X123129Y-90592D01*
X123120Y-90609D01*
X123079Y-90650D01*
X123029Y-90717D01*
X122954Y-90800D01*
X122870Y-90892D01*
X122770Y-90992D01*
X122654Y-91083D01*
X122537Y-91175D01*
X122521Y-91183D01*
X122479Y-91208D01*
X122412Y-91250D01*
X122320Y-91292D01*
X122212Y-91342D01*
X122079Y-91400D01*
X121929Y-91450D01*
X121771Y-91492D01*
X121762D01*
X121754Y-91500D01*
X121729D01*
X121696Y-91508D01*
X121654Y-91517D01*
X121604Y-91525D01*
X121479Y-91542D01*
X121329Y-91567D01*
X121154Y-91583D01*
X120954Y-91592D01*
X120746Y-91600D01*
X118438D01*
Y-85193D01*
X120829D01*
X120904Y-85202D01*
D02*
G37*
G36*
X302631Y105147D02*
X301848D01*
Y110154D01*
X301832Y110145D01*
X301798Y110112D01*
X301732Y110054D01*
X301648Y109987D01*
X301540Y109904D01*
X301407Y109812D01*
X301265Y109712D01*
X301098Y109612D01*
X301090D01*
X301082Y109604D01*
X301057Y109587D01*
X301024Y109570D01*
X300932Y109520D01*
X300824Y109462D01*
X300699Y109395D01*
X300557Y109329D01*
X300415Y109262D01*
X300274Y109204D01*
Y109970D01*
X300282D01*
X300307Y109987D01*
X300340Y110004D01*
X300382Y110029D01*
X300440Y110054D01*
X300507Y110095D01*
X300665Y110178D01*
X300840Y110287D01*
X301040Y110420D01*
X301232Y110562D01*
X301423Y110720D01*
X301432Y110728D01*
X301448Y110737D01*
X301473Y110762D01*
X301507Y110795D01*
X301590Y110878D01*
X301698Y110995D01*
X301807Y111120D01*
X301923Y111270D01*
X302032Y111420D01*
X302123Y111578D01*
X302631D01*
Y105147D01*
D02*
G37*
G36*
X146571Y-85093D02*
X146654Y-85102D01*
X146754Y-85110D01*
X146862Y-85127D01*
X146979Y-85143D01*
X147229Y-85202D01*
X147362Y-85243D01*
X147504Y-85293D01*
X147637Y-85352D01*
X147771Y-85410D01*
X147904Y-85493D01*
X148029Y-85576D01*
X148037Y-85585D01*
X148054Y-85602D01*
X148096Y-85626D01*
X148137Y-85668D01*
X148187Y-85718D01*
X148254Y-85777D01*
X148320Y-85851D01*
X148395Y-85935D01*
X148470Y-86026D01*
X148545Y-86126D01*
X148620Y-86243D01*
X148695Y-86360D01*
X148770Y-86493D01*
X148837Y-86635D01*
X148904Y-86793D01*
X148954Y-86951D01*
X148120Y-87151D01*
Y-87143D01*
X148112Y-87118D01*
X148096Y-87085D01*
X148079Y-87035D01*
X148054Y-86976D01*
X148029Y-86910D01*
X147954Y-86760D01*
X147862Y-86593D01*
X147754Y-86426D01*
X147621Y-86268D01*
X147546Y-86201D01*
X147471Y-86135D01*
X147462D01*
X147454Y-86118D01*
X147429Y-86101D01*
X147396Y-86085D01*
X147354Y-86060D01*
X147304Y-86035D01*
X147179Y-85968D01*
X147021Y-85910D01*
X146838Y-85860D01*
X146629Y-85827D01*
X146396Y-85810D01*
X146321D01*
X146271Y-85818D01*
X146213D01*
X146138Y-85827D01*
X146054Y-85843D01*
X145963Y-85851D01*
X145771Y-85893D01*
X145563Y-85960D01*
X145354Y-86051D01*
X145254Y-86101D01*
X145155Y-86168D01*
X145146D01*
X145130Y-86185D01*
X145105Y-86201D01*
X145071Y-86235D01*
X144988Y-86310D01*
X144888Y-86418D01*
X144771Y-86551D01*
X144655Y-86718D01*
X144546Y-86901D01*
X144463Y-87118D01*
Y-87126D01*
X144455Y-87143D01*
X144446Y-87176D01*
X144430Y-87218D01*
X144413Y-87276D01*
X144396Y-87343D01*
X144380Y-87418D01*
X144363Y-87493D01*
X144330Y-87684D01*
X144297Y-87893D01*
X144271Y-88118D01*
X144263Y-88351D01*
Y-88359D01*
Y-88384D01*
Y-88426D01*
Y-88484D01*
X144271Y-88559D01*
X144280Y-88642D01*
Y-88734D01*
X144297Y-88834D01*
X144321Y-89059D01*
X144363Y-89292D01*
X144421Y-89542D01*
X144496Y-89775D01*
Y-89784D01*
X144505Y-89801D01*
X144521Y-89834D01*
X144546Y-89875D01*
X144571Y-89925D01*
X144596Y-89984D01*
X144680Y-90117D01*
X144788Y-90267D01*
X144913Y-90417D01*
X145063Y-90559D01*
X145238Y-90684D01*
X145246D01*
X145263Y-90700D01*
X145288Y-90709D01*
X145330Y-90733D01*
X145371Y-90750D01*
X145429Y-90775D01*
X145563Y-90834D01*
X145729Y-90892D01*
X145913Y-90934D01*
X146113Y-90967D01*
X146329Y-90983D01*
X146396D01*
X146446Y-90975D01*
X146513Y-90967D01*
X146579Y-90958D01*
X146663Y-90950D01*
X146746Y-90934D01*
X146938Y-90884D01*
X147137Y-90808D01*
X147246Y-90767D01*
X147346Y-90709D01*
X147446Y-90650D01*
X147537Y-90575D01*
X147546Y-90567D01*
X147562Y-90559D01*
X147587Y-90534D01*
X147621Y-90500D01*
X147654Y-90459D01*
X147704Y-90400D01*
X147754Y-90342D01*
X147804Y-90267D01*
X147862Y-90192D01*
X147921Y-90100D01*
X147971Y-90000D01*
X148029Y-89892D01*
X148079Y-89767D01*
X148129Y-89642D01*
X148170Y-89509D01*
X148212Y-89359D01*
X149062Y-89576D01*
Y-89584D01*
X149045Y-89617D01*
X149029Y-89676D01*
X149012Y-89750D01*
X148979Y-89834D01*
X148937Y-89934D01*
X148895Y-90042D01*
X148837Y-90167D01*
X148779Y-90292D01*
X148704Y-90425D01*
X148629Y-90550D01*
X148537Y-90684D01*
X148445Y-90817D01*
X148337Y-90942D01*
X148221Y-91059D01*
X148096Y-91167D01*
X148087Y-91175D01*
X148062Y-91192D01*
X148029Y-91217D01*
X147971Y-91250D01*
X147904Y-91292D01*
X147821Y-91342D01*
X147729Y-91383D01*
X147629Y-91433D01*
X147504Y-91492D01*
X147379Y-91533D01*
X147237Y-91583D01*
X147087Y-91625D01*
X146929Y-91658D01*
X146763Y-91683D01*
X146587Y-91700D01*
X146404Y-91708D01*
X146304D01*
X146229Y-91700D01*
X146146Y-91692D01*
X146038Y-91683D01*
X145929Y-91675D01*
X145804Y-91658D01*
X145538Y-91608D01*
X145254Y-91533D01*
X145113Y-91483D01*
X144971Y-91425D01*
X144838Y-91367D01*
X144713Y-91292D01*
X144705Y-91283D01*
X144688Y-91275D01*
X144655Y-91250D01*
X144605Y-91208D01*
X144555Y-91167D01*
X144488Y-91117D01*
X144421Y-91050D01*
X144346Y-90975D01*
X144263Y-90900D01*
X144188Y-90808D01*
X144105Y-90709D01*
X144022Y-90592D01*
X143938Y-90475D01*
X143863Y-90350D01*
X143788Y-90209D01*
X143722Y-90067D01*
Y-90059D01*
X143705Y-90034D01*
X143688Y-89984D01*
X143672Y-89925D01*
X143647Y-89850D01*
X143613Y-89767D01*
X143588Y-89667D01*
X143555Y-89551D01*
X143522Y-89426D01*
X143497Y-89292D01*
X143463Y-89151D01*
X143438Y-89009D01*
X143405Y-88684D01*
X143388Y-88351D01*
Y-88343D01*
Y-88309D01*
Y-88251D01*
X143397Y-88184D01*
Y-88093D01*
X143405Y-87993D01*
X143422Y-87884D01*
X143438Y-87759D01*
X143455Y-87626D01*
X143480Y-87484D01*
X143547Y-87193D01*
X143638Y-86901D01*
X143697Y-86751D01*
X143763Y-86610D01*
X143772Y-86601D01*
X143780Y-86576D01*
X143805Y-86535D01*
X143838Y-86485D01*
X143872Y-86426D01*
X143922Y-86351D01*
X143980Y-86276D01*
X144046Y-86185D01*
X144197Y-86001D01*
X144388Y-85818D01*
X144605Y-85635D01*
X144730Y-85552D01*
X144855Y-85477D01*
X144863Y-85468D01*
X144888Y-85460D01*
X144930Y-85443D01*
X144980Y-85418D01*
X145046Y-85385D01*
X145121Y-85352D01*
X145213Y-85318D01*
X145313Y-85277D01*
X145429Y-85243D01*
X145546Y-85210D01*
X145813Y-85143D01*
X146104Y-85102D01*
X146254Y-85085D01*
X146504D01*
X146571Y-85093D01*
D02*
G37*
G36*
X246000Y-38000D02*
Y-28000D01*
X256000D01*
X246000Y-38000D01*
D02*
G37*
G36*
X405814Y110720D02*
X403257D01*
X402915Y108987D01*
X402924Y108996D01*
X402940Y109004D01*
X402974Y109029D01*
X403015Y109054D01*
X403065Y109079D01*
X403132Y109121D01*
X403198Y109154D01*
X403282Y109195D01*
X403465Y109270D01*
X403665Y109329D01*
X403890Y109379D01*
X404007Y109387D01*
X404123Y109395D01*
X404207D01*
X404265Y109387D01*
X404331Y109379D01*
X404415Y109362D01*
X404506Y109345D01*
X404615Y109320D01*
X404723Y109295D01*
X404831Y109254D01*
X404948Y109204D01*
X405073Y109154D01*
X405190Y109079D01*
X405306Y109004D01*
X405423Y108912D01*
X405531Y108812D01*
X405540Y108804D01*
X405556Y108787D01*
X405581Y108754D01*
X405623Y108704D01*
X405664Y108646D01*
X405714Y108579D01*
X405773Y108496D01*
X405823Y108404D01*
X405881Y108304D01*
X405931Y108187D01*
X405981Y108071D01*
X406023Y107937D01*
X406064Y107788D01*
X406089Y107638D01*
X406106Y107479D01*
X406114Y107313D01*
Y107304D01*
Y107271D01*
Y107229D01*
X406106Y107171D01*
X406098Y107096D01*
X406089Y107004D01*
X406073Y106904D01*
X406048Y106804D01*
X405989Y106563D01*
X405948Y106438D01*
X405898Y106313D01*
X405839Y106188D01*
X405773Y106063D01*
X405698Y105938D01*
X405606Y105813D01*
X405598Y105805D01*
X405581Y105780D01*
X405540Y105738D01*
X405490Y105696D01*
X405431Y105630D01*
X405356Y105571D01*
X405265Y105496D01*
X405165Y105430D01*
X405048Y105355D01*
X404923Y105280D01*
X404790Y105222D01*
X404640Y105163D01*
X404473Y105113D01*
X404298Y105071D01*
X404115Y105047D01*
X403923Y105038D01*
X403840D01*
X403782Y105047D01*
X403707Y105055D01*
X403615Y105063D01*
X403523Y105080D01*
X403415Y105097D01*
X403190Y105155D01*
X403073Y105197D01*
X402957Y105246D01*
X402832Y105296D01*
X402715Y105363D01*
X402607Y105438D01*
X402499Y105521D01*
X402490Y105530D01*
X402474Y105546D01*
X402449Y105571D01*
X402415Y105613D01*
X402365Y105663D01*
X402324Y105721D01*
X402265Y105788D01*
X402215Y105871D01*
X402157Y105955D01*
X402107Y106055D01*
X402049Y106163D01*
X402007Y106279D01*
X401957Y106404D01*
X401924Y106530D01*
X401890Y106671D01*
X401874Y106821D01*
X402699Y106879D01*
Y106871D01*
X402707Y106854D01*
Y106821D01*
X402715Y106779D01*
X402732Y106729D01*
X402748Y106671D01*
X402782Y106546D01*
X402840Y106396D01*
X402915Y106246D01*
X403007Y106105D01*
X403115Y105980D01*
X403132Y105971D01*
X403173Y105938D01*
X403248Y105888D01*
X403340Y105838D01*
X403457Y105780D01*
X403598Y105738D01*
X403748Y105705D01*
X403923Y105688D01*
X403982D01*
X404023Y105696D01*
X404065Y105705D01*
X404123Y105713D01*
X404257Y105738D01*
X404415Y105788D01*
X404573Y105871D01*
X404656Y105913D01*
X404740Y105971D01*
X404815Y106038D01*
X404890Y106113D01*
X404898Y106121D01*
X404906Y106130D01*
X404923Y106155D01*
X404948Y106188D01*
X404981Y106230D01*
X405015Y106288D01*
X405048Y106346D01*
X405090Y106413D01*
X405156Y106580D01*
X405223Y106771D01*
X405265Y106996D01*
X405281Y107113D01*
Y107246D01*
Y107254D01*
Y107279D01*
Y107313D01*
X405273Y107354D01*
Y107413D01*
X405265Y107479D01*
X405231Y107629D01*
X405190Y107804D01*
X405123Y107979D01*
X405031Y108154D01*
X404973Y108237D01*
X404906Y108312D01*
Y108321D01*
X404890Y108329D01*
X404865Y108346D01*
X404840Y108371D01*
X404756Y108437D01*
X404640Y108512D01*
X404498Y108579D01*
X404331Y108646D01*
X404132Y108687D01*
X404031Y108704D01*
X403848D01*
X403782Y108696D01*
X403682Y108679D01*
X403582Y108662D01*
X403465Y108629D01*
X403340Y108579D01*
X403223Y108521D01*
X403207Y108512D01*
X403173Y108487D01*
X403123Y108454D01*
X403057Y108396D01*
X402982Y108337D01*
X402898Y108254D01*
X402823Y108171D01*
X402757Y108071D01*
X402015Y108179D01*
X402632Y111470D01*
X405814D01*
Y110720D01*
D02*
G37*
G36*
X139639Y-85202D02*
X139798D01*
X139981Y-85218D01*
X140173Y-85235D01*
X140356Y-85260D01*
X140514Y-85293D01*
X140522D01*
X140539Y-85302D01*
X140572Y-85310D01*
X140606Y-85318D01*
X140656Y-85335D01*
X140714Y-85352D01*
X140839Y-85393D01*
X140989Y-85460D01*
X141147Y-85535D01*
X141306Y-85635D01*
X141455Y-85751D01*
X141464Y-85760D01*
X141481Y-85768D01*
X141505Y-85793D01*
X141539Y-85827D01*
X141580Y-85868D01*
X141630Y-85918D01*
X141680Y-85976D01*
X141739Y-86043D01*
X141864Y-86201D01*
X141989Y-86393D01*
X142114Y-86601D01*
X142214Y-86843D01*
Y-86851D01*
X142222Y-86876D01*
X142239Y-86910D01*
X142255Y-86959D01*
X142272Y-87026D01*
X142297Y-87101D01*
X142322Y-87184D01*
X142347Y-87284D01*
X142364Y-87393D01*
X142389Y-87509D01*
X142414Y-87634D01*
X142430Y-87768D01*
X142464Y-88059D01*
X142472Y-88368D01*
Y-88376D01*
Y-88401D01*
Y-88434D01*
Y-88492D01*
X142464Y-88551D01*
Y-88626D01*
X142455Y-88709D01*
X142447Y-88801D01*
X142430Y-89001D01*
X142397Y-89217D01*
X142355Y-89442D01*
X142297Y-89659D01*
Y-89667D01*
X142289Y-89684D01*
X142280Y-89717D01*
X142264Y-89750D01*
X142247Y-89801D01*
X142230Y-89859D01*
X142180Y-89984D01*
X142122Y-90134D01*
X142047Y-90292D01*
X141955Y-90450D01*
X141864Y-90592D01*
X141855Y-90609D01*
X141814Y-90650D01*
X141764Y-90717D01*
X141689Y-90800D01*
X141606Y-90892D01*
X141505Y-90992D01*
X141389Y-91083D01*
X141272Y-91175D01*
X141256Y-91183D01*
X141214Y-91208D01*
X141147Y-91250D01*
X141056Y-91292D01*
X140947Y-91342D01*
X140814Y-91400D01*
X140664Y-91450D01*
X140506Y-91492D01*
X140497D01*
X140489Y-91500D01*
X140464D01*
X140431Y-91508D01*
X140389Y-91517D01*
X140339Y-91525D01*
X140214Y-91542D01*
X140064Y-91567D01*
X139889Y-91583D01*
X139689Y-91592D01*
X139481Y-91600D01*
X137173D01*
Y-85193D01*
X139564D01*
X139639Y-85202D01*
D02*
G37*
G36*
X430840Y107404D02*
X431706D01*
Y106679D01*
X430840D01*
Y105147D01*
X430056D01*
Y106679D01*
X427274D01*
Y107404D01*
X430198Y111553D01*
X430840D01*
Y107404D01*
D02*
G37*
G36*
X410638Y-108596D02*
X413029Y-111953D01*
X411988D01*
X410372Y-109671D01*
X410363Y-109662D01*
X410347Y-109637D01*
X410322Y-109596D01*
X410288Y-109546D01*
X410247Y-109487D01*
X410205Y-109421D01*
X410105Y-109279D01*
X410097Y-109296D01*
X410072Y-109329D01*
X410038Y-109388D01*
X409988Y-109454D01*
X409888Y-109612D01*
X409847Y-109679D01*
X409805Y-109737D01*
X408181Y-111953D01*
X407164D01*
X409638Y-108629D01*
X407456Y-105547D01*
X408472D01*
X409638Y-107188D01*
X409647Y-107196D01*
X409655Y-107213D01*
X409672Y-107238D01*
X409697Y-107271D01*
X409763Y-107363D01*
X409838Y-107480D01*
X409922Y-107605D01*
X410005Y-107738D01*
X410080Y-107863D01*
X410147Y-107971D01*
X410155Y-107955D01*
X410188Y-107913D01*
X410230Y-107846D01*
X410288Y-107754D01*
X410363Y-107646D01*
X410455Y-107521D01*
X410546Y-107396D01*
X410655Y-107255D01*
X411930Y-105547D01*
X412854D01*
X410638Y-108596D01*
D02*
G37*
G36*
X32157Y-85202D02*
X32232D01*
X32324Y-85210D01*
X32424Y-85218D01*
X32632Y-85235D01*
X32849Y-85268D01*
X33057Y-85310D01*
X33157Y-85335D01*
X33241Y-85368D01*
X33249D01*
X33257Y-85377D01*
X33282Y-85385D01*
X33316Y-85402D01*
X33399Y-85443D01*
X33499Y-85510D01*
X33616Y-85593D01*
X33732Y-85702D01*
X33849Y-85835D01*
X33957Y-85985D01*
Y-85993D01*
X33965Y-86001D01*
X33982Y-86026D01*
X33999Y-86060D01*
X34040Y-86151D01*
X34090Y-86268D01*
X34140Y-86410D01*
X34182Y-86576D01*
X34215Y-86760D01*
X34224Y-86951D01*
Y-86959D01*
Y-86985D01*
Y-87018D01*
X34215Y-87068D01*
X34207Y-87126D01*
X34199Y-87193D01*
X34165Y-87351D01*
X34115Y-87534D01*
X34040Y-87726D01*
X33990Y-87818D01*
X33932Y-87918D01*
X33857Y-88009D01*
X33782Y-88101D01*
X33774Y-88109D01*
X33765Y-88118D01*
X33732Y-88142D01*
X33699Y-88176D01*
X33649Y-88209D01*
X33591Y-88251D01*
X33524Y-88301D01*
X33449Y-88351D01*
X33357Y-88401D01*
X33257Y-88451D01*
X33141Y-88501D01*
X33016Y-88551D01*
X32882Y-88592D01*
X32741Y-88634D01*
X32582Y-88667D01*
X32416Y-88692D01*
X32432Y-88701D01*
X32474Y-88717D01*
X32532Y-88751D01*
X32607Y-88792D01*
X32774Y-88901D01*
X32849Y-88959D01*
X32924Y-89017D01*
X32932D01*
X32941Y-89034D01*
X32991Y-89076D01*
X33057Y-89151D01*
X33157Y-89251D01*
X33266Y-89367D01*
X33382Y-89517D01*
X33507Y-89684D01*
X33632Y-89867D01*
X34740Y-91600D01*
X33674D01*
X32832Y-90275D01*
Y-90267D01*
X32816Y-90250D01*
X32799Y-90217D01*
X32774Y-90184D01*
X32741Y-90134D01*
X32699Y-90075D01*
X32616Y-89950D01*
X32516Y-89809D01*
X32416Y-89667D01*
X32316Y-89525D01*
X32216Y-89401D01*
X32208Y-89384D01*
X32174Y-89351D01*
X32132Y-89292D01*
X32074Y-89234D01*
X32008Y-89159D01*
X31933Y-89084D01*
X31858Y-89026D01*
X31783Y-88967D01*
X31774Y-88959D01*
X31749Y-88951D01*
X31716Y-88926D01*
X31666Y-88901D01*
X31608Y-88867D01*
X31541Y-88842D01*
X31399Y-88792D01*
X31391D01*
X31374Y-88784D01*
X31341D01*
X31291Y-88776D01*
X31224Y-88767D01*
X31141D01*
X31049Y-88759D01*
X29950D01*
Y-91600D01*
X29100D01*
Y-85193D01*
X32083D01*
X32157Y-85202D01*
D02*
G37*
G36*
X406939Y-106305D02*
X404831D01*
Y-111953D01*
X403982D01*
Y-106305D01*
X401874D01*
Y-105547D01*
X406939D01*
Y-106305D01*
D02*
G37*
G36*
X439037Y-111953D02*
X438188D01*
Y-108938D01*
X434872D01*
Y-111953D01*
X434022D01*
Y-105547D01*
X434872D01*
Y-108179D01*
X438188D01*
Y-105547D01*
X439037D01*
Y-111953D01*
D02*
G37*
G36*
X430456Y-105447D02*
X430540Y-105455D01*
X430640Y-105463D01*
X430748Y-105480D01*
X430864Y-105497D01*
X431114Y-105555D01*
X431248Y-105597D01*
X431389Y-105647D01*
X431523Y-105705D01*
X431656Y-105763D01*
X431789Y-105847D01*
X431914Y-105930D01*
X431923Y-105938D01*
X431939Y-105955D01*
X431981Y-105980D01*
X432023Y-106022D01*
X432072Y-106072D01*
X432139Y-106130D01*
X432206Y-106205D01*
X432281Y-106288D01*
X432356Y-106380D01*
X432431Y-106480D01*
X432506Y-106596D01*
X432581Y-106713D01*
X432656Y-106846D01*
X432722Y-106988D01*
X432789Y-107146D01*
X432839Y-107305D01*
X432006Y-107505D01*
Y-107496D01*
X431997Y-107471D01*
X431981Y-107438D01*
X431964Y-107388D01*
X431939Y-107330D01*
X431914Y-107263D01*
X431839Y-107113D01*
X431748Y-106946D01*
X431639Y-106780D01*
X431506Y-106622D01*
X431431Y-106555D01*
X431356Y-106488D01*
X431348D01*
X431339Y-106472D01*
X431314Y-106455D01*
X431281Y-106438D01*
X431239Y-106413D01*
X431189Y-106388D01*
X431064Y-106322D01*
X430906Y-106263D01*
X430723Y-106213D01*
X430515Y-106180D01*
X430281Y-106163D01*
X430206D01*
X430156Y-106172D01*
X430098D01*
X430023Y-106180D01*
X429940Y-106197D01*
X429848Y-106205D01*
X429656Y-106247D01*
X429448Y-106313D01*
X429240Y-106405D01*
X429140Y-106455D01*
X429040Y-106522D01*
X429032D01*
X429015Y-106538D01*
X428990Y-106555D01*
X428957Y-106588D01*
X428873Y-106663D01*
X428773Y-106771D01*
X428657Y-106905D01*
X428540Y-107071D01*
X428432Y-107255D01*
X428349Y-107471D01*
Y-107480D01*
X428340Y-107496D01*
X428332Y-107530D01*
X428315Y-107571D01*
X428298Y-107630D01*
X428282Y-107696D01*
X428265Y-107771D01*
X428248Y-107846D01*
X428215Y-108038D01*
X428182Y-108246D01*
X428157Y-108471D01*
X428148Y-108704D01*
Y-108713D01*
Y-108738D01*
Y-108779D01*
Y-108838D01*
X428157Y-108913D01*
X428165Y-108996D01*
Y-109087D01*
X428182Y-109187D01*
X428207Y-109412D01*
X428248Y-109646D01*
X428307Y-109896D01*
X428382Y-110129D01*
Y-110137D01*
X428390Y-110154D01*
X428407Y-110187D01*
X428432Y-110229D01*
X428457Y-110279D01*
X428482Y-110337D01*
X428565Y-110471D01*
X428673Y-110620D01*
X428798Y-110770D01*
X428948Y-110912D01*
X429123Y-111037D01*
X429132D01*
X429148Y-111054D01*
X429173Y-111062D01*
X429215Y-111087D01*
X429257Y-111104D01*
X429315Y-111129D01*
X429448Y-111187D01*
X429615Y-111245D01*
X429798Y-111287D01*
X429998Y-111320D01*
X430215Y-111337D01*
X430281D01*
X430331Y-111329D01*
X430398Y-111320D01*
X430465Y-111312D01*
X430548Y-111304D01*
X430631Y-111287D01*
X430823Y-111237D01*
X431023Y-111162D01*
X431131Y-111120D01*
X431231Y-111062D01*
X431331Y-111004D01*
X431423Y-110929D01*
X431431Y-110920D01*
X431448Y-110912D01*
X431473Y-110887D01*
X431506Y-110854D01*
X431539Y-110812D01*
X431589Y-110754D01*
X431639Y-110695D01*
X431689Y-110620D01*
X431748Y-110546D01*
X431806Y-110454D01*
X431856Y-110354D01*
X431914Y-110246D01*
X431964Y-110121D01*
X432014Y-109996D01*
X432056Y-109862D01*
X432098Y-109712D01*
X432947Y-109929D01*
Y-109937D01*
X432931Y-109971D01*
X432914Y-110029D01*
X432897Y-110104D01*
X432864Y-110187D01*
X432822Y-110287D01*
X432781Y-110395D01*
X432722Y-110520D01*
X432664Y-110646D01*
X432589Y-110779D01*
X432514Y-110904D01*
X432422Y-111037D01*
X432331Y-111170D01*
X432223Y-111295D01*
X432106Y-111412D01*
X431981Y-111520D01*
X431973Y-111529D01*
X431948Y-111545D01*
X431914Y-111570D01*
X431856Y-111604D01*
X431789Y-111645D01*
X431706Y-111695D01*
X431614Y-111737D01*
X431514Y-111787D01*
X431389Y-111845D01*
X431264Y-111887D01*
X431123Y-111937D01*
X430973Y-111979D01*
X430815Y-112012D01*
X430648Y-112037D01*
X430473Y-112053D01*
X430290Y-112062D01*
X430190D01*
X430115Y-112053D01*
X430031Y-112045D01*
X429923Y-112037D01*
X429815Y-112029D01*
X429690Y-112012D01*
X429423Y-111962D01*
X429140Y-111887D01*
X428998Y-111837D01*
X428857Y-111778D01*
X428723Y-111720D01*
X428598Y-111645D01*
X428590Y-111637D01*
X428573Y-111629D01*
X428540Y-111604D01*
X428490Y-111562D01*
X428440Y-111520D01*
X428373Y-111470D01*
X428307Y-111404D01*
X428232Y-111329D01*
X428148Y-111254D01*
X428074Y-111162D01*
X427990Y-111062D01*
X427907Y-110945D01*
X427824Y-110829D01*
X427749Y-110704D01*
X427674Y-110562D01*
X427607Y-110421D01*
Y-110412D01*
X427590Y-110387D01*
X427574Y-110337D01*
X427557Y-110279D01*
X427532Y-110204D01*
X427499Y-110121D01*
X427474Y-110021D01*
X427440Y-109904D01*
X427407Y-109779D01*
X427382Y-109646D01*
X427349Y-109504D01*
X427324Y-109362D01*
X427290Y-109038D01*
X427274Y-108704D01*
Y-108696D01*
Y-108663D01*
Y-108604D01*
X427282Y-108538D01*
Y-108446D01*
X427290Y-108346D01*
X427307Y-108238D01*
X427324Y-108113D01*
X427340Y-107979D01*
X427365Y-107838D01*
X427432Y-107546D01*
X427524Y-107255D01*
X427582Y-107105D01*
X427649Y-106963D01*
X427657Y-106955D01*
X427665Y-106930D01*
X427690Y-106888D01*
X427724Y-106838D01*
X427757Y-106780D01*
X427807Y-106705D01*
X427865Y-106630D01*
X427932Y-106538D01*
X428082Y-106355D01*
X428274Y-106172D01*
X428490Y-105988D01*
X428615Y-105905D01*
X428740Y-105830D01*
X428748Y-105822D01*
X428773Y-105813D01*
X428815Y-105797D01*
X428865Y-105772D01*
X428932Y-105738D01*
X429007Y-105705D01*
X429098Y-105672D01*
X429198Y-105630D01*
X429315Y-105597D01*
X429431Y-105563D01*
X429698Y-105497D01*
X429990Y-105455D01*
X430140Y-105438D01*
X430390D01*
X430456Y-105447D01*
D02*
G37*
G36*
X66398Y-91600D02*
X65515D01*
X63032Y-85193D01*
X63957D01*
X65623Y-89850D01*
Y-89859D01*
X65631Y-89875D01*
X65640Y-89909D01*
X65656Y-89942D01*
X65673Y-89992D01*
X65690Y-90050D01*
X65740Y-90192D01*
X65790Y-90350D01*
X65848Y-90525D01*
X65906Y-90717D01*
X65956Y-90900D01*
Y-90892D01*
X65965Y-90875D01*
X65973Y-90850D01*
X65981Y-90808D01*
X65998Y-90758D01*
X66015Y-90709D01*
X66056Y-90575D01*
X66106Y-90417D01*
X66165Y-90234D01*
X66231Y-90042D01*
X66306Y-89850D01*
X68039Y-85193D01*
X68897D01*
X66398Y-91600D01*
D02*
G37*
G36*
X60533Y-85177D02*
X60591D01*
X60716Y-85193D01*
X60866Y-85227D01*
X61024Y-85260D01*
X61191Y-85318D01*
X61358Y-85393D01*
X61366D01*
X61374Y-85402D01*
X61399Y-85418D01*
X61432Y-85435D01*
X61508Y-85485D01*
X61607Y-85552D01*
X61716Y-85643D01*
X61832Y-85751D01*
X61941Y-85868D01*
X62032Y-86010D01*
Y-86018D01*
X62041Y-86026D01*
X62074Y-86076D01*
X62107Y-86160D01*
X62157Y-86260D01*
X62199Y-86385D01*
X62241Y-86526D01*
X62266Y-86676D01*
X62274Y-86834D01*
Y-86843D01*
Y-86851D01*
Y-86901D01*
X62266Y-86985D01*
X62249Y-87085D01*
X62216Y-87201D01*
X62182Y-87326D01*
X62124Y-87459D01*
X62049Y-87593D01*
X62041Y-87609D01*
X62007Y-87651D01*
X61957Y-87709D01*
X61882Y-87784D01*
X61791Y-87876D01*
X61674Y-87968D01*
X61541Y-88051D01*
X61391Y-88134D01*
X61399D01*
X61416Y-88142D01*
X61449Y-88151D01*
X61483Y-88159D01*
X61533Y-88176D01*
X61591Y-88201D01*
X61716Y-88251D01*
X61857Y-88326D01*
X61999Y-88426D01*
X62149Y-88542D01*
X62274Y-88684D01*
Y-88692D01*
X62291Y-88701D01*
X62307Y-88726D01*
X62324Y-88759D01*
X62349Y-88801D01*
X62374Y-88842D01*
X62432Y-88967D01*
X62491Y-89117D01*
X62541Y-89292D01*
X62574Y-89484D01*
X62591Y-89709D01*
Y-89717D01*
Y-89742D01*
Y-89792D01*
X62582Y-89850D01*
X62574Y-89925D01*
X62557Y-90009D01*
X62541Y-90100D01*
X62516Y-90200D01*
X62482Y-90309D01*
X62441Y-90425D01*
X62391Y-90542D01*
X62332Y-90667D01*
X62257Y-90784D01*
X62174Y-90908D01*
X62082Y-91025D01*
X61974Y-91133D01*
X61966Y-91142D01*
X61949Y-91158D01*
X61916Y-91183D01*
X61866Y-91225D01*
X61807Y-91267D01*
X61733Y-91317D01*
X61649Y-91367D01*
X61557Y-91417D01*
X61449Y-91475D01*
X61333Y-91525D01*
X61208Y-91575D01*
X61066Y-91617D01*
X60924Y-91658D01*
X60766Y-91683D01*
X60608Y-91700D01*
X60433Y-91708D01*
X60349D01*
X60291Y-91700D01*
X60224Y-91692D01*
X60141Y-91683D01*
X60041Y-91667D01*
X59941Y-91642D01*
X59725Y-91583D01*
X59608Y-91542D01*
X59491Y-91500D01*
X59366Y-91442D01*
X59250Y-91375D01*
X59142Y-91300D01*
X59033Y-91208D01*
X59025Y-91200D01*
X59008Y-91183D01*
X58983Y-91158D01*
X58941Y-91117D01*
X58900Y-91067D01*
X58850Y-91009D01*
X58800Y-90934D01*
X58742Y-90858D01*
X58692Y-90767D01*
X58633Y-90667D01*
X58583Y-90559D01*
X58533Y-90442D01*
X58483Y-90317D01*
X58450Y-90192D01*
X58417Y-90050D01*
X58400Y-89900D01*
X59183Y-89792D01*
Y-89801D01*
X59191Y-89825D01*
X59200Y-89859D01*
X59208Y-89900D01*
X59225Y-89959D01*
X59241Y-90017D01*
X59291Y-90167D01*
X59350Y-90325D01*
X59433Y-90484D01*
X59525Y-90642D01*
X59575Y-90709D01*
X59633Y-90767D01*
X59650Y-90775D01*
X59691Y-90808D01*
X59758Y-90858D01*
X59858Y-90908D01*
X59975Y-90967D01*
X60108Y-91009D01*
X60266Y-91042D01*
X60433Y-91059D01*
X60491D01*
X60524Y-91050D01*
X60574D01*
X60633Y-91042D01*
X60758Y-91009D01*
X60908Y-90967D01*
X61066Y-90900D01*
X61224Y-90800D01*
X61299Y-90742D01*
X61374Y-90675D01*
X61383Y-90667D01*
X61391Y-90659D01*
X61407Y-90634D01*
X61432Y-90609D01*
X61499Y-90525D01*
X61566Y-90409D01*
X61632Y-90275D01*
X61699Y-90109D01*
X61741Y-89925D01*
X61757Y-89825D01*
Y-89726D01*
Y-89717D01*
Y-89700D01*
Y-89676D01*
X61749Y-89634D01*
Y-89592D01*
X61741Y-89534D01*
X61716Y-89409D01*
X61674Y-89267D01*
X61607Y-89117D01*
X61516Y-88976D01*
X61466Y-88901D01*
X61399Y-88834D01*
X61383Y-88817D01*
X61333Y-88776D01*
X61258Y-88726D01*
X61158Y-88659D01*
X61024Y-88592D01*
X60874Y-88542D01*
X60699Y-88501D01*
X60499Y-88484D01*
X60408D01*
X60349Y-88492D01*
X60266Y-88501D01*
X60166Y-88518D01*
X60058Y-88542D01*
X59941Y-88567D01*
X60033Y-87876D01*
X60050D01*
X60075Y-87884D01*
X60116Y-87893D01*
X60208D01*
X60241Y-87884D01*
X60341Y-87876D01*
X60458Y-87859D01*
X60599Y-87826D01*
X60749Y-87784D01*
X60908Y-87718D01*
X61058Y-87634D01*
X61066D01*
X61074Y-87618D01*
X61124Y-87584D01*
X61191Y-87518D01*
X61266Y-87434D01*
X61341Y-87318D01*
X61399Y-87176D01*
X61449Y-87009D01*
X61458Y-86918D01*
X61466Y-86818D01*
Y-86810D01*
Y-86801D01*
X61458Y-86743D01*
X61449Y-86668D01*
X61432Y-86568D01*
X61391Y-86460D01*
X61341Y-86343D01*
X61266Y-86218D01*
X61166Y-86110D01*
X61149Y-86093D01*
X61116Y-86060D01*
X61049Y-86018D01*
X60966Y-85960D01*
X60858Y-85910D01*
X60724Y-85860D01*
X60583Y-85827D01*
X60416Y-85818D01*
X60374D01*
X60341Y-85827D01*
X60250Y-85835D01*
X60141Y-85851D01*
X60025Y-85893D01*
X59891Y-85943D01*
X59766Y-86010D01*
X59641Y-86110D01*
X59625Y-86126D01*
X59591Y-86160D01*
X59541Y-86226D01*
X59483Y-86326D01*
X59416Y-86443D01*
X59350Y-86593D01*
X59300Y-86768D01*
X59258Y-86968D01*
X58475Y-86826D01*
Y-86818D01*
X58483Y-86793D01*
X58492Y-86751D01*
X58508Y-86693D01*
X58525Y-86635D01*
X58550Y-86551D01*
X58575Y-86468D01*
X58608Y-86376D01*
X58700Y-86185D01*
X58808Y-85985D01*
X58950Y-85785D01*
X59033Y-85693D01*
X59125Y-85610D01*
X59133Y-85602D01*
X59150Y-85593D01*
X59175Y-85568D01*
X59216Y-85543D01*
X59266Y-85510D01*
X59325Y-85468D01*
X59400Y-85427D01*
X59475Y-85385D01*
X59566Y-85352D01*
X59658Y-85310D01*
X59875Y-85235D01*
X60125Y-85185D01*
X60258Y-85177D01*
X60399Y-85168D01*
X60491D01*
X60533Y-85177D01*
D02*
G37*
G36*
X37948Y-85093D02*
X38014D01*
X38098Y-85102D01*
X38189Y-85110D01*
X38381Y-85143D01*
X38589Y-85185D01*
X38806Y-85243D01*
X39014Y-85318D01*
X39023D01*
X39039Y-85327D01*
X39064Y-85343D01*
X39106Y-85360D01*
X39206Y-85418D01*
X39322Y-85493D01*
X39464Y-85585D01*
X39597Y-85702D01*
X39739Y-85843D01*
X39856Y-86001D01*
Y-86010D01*
X39872Y-86018D01*
X39881Y-86043D01*
X39906Y-86076D01*
X39922Y-86118D01*
X39947Y-86168D01*
X40005Y-86293D01*
X40064Y-86443D01*
X40114Y-86610D01*
X40156Y-86801D01*
X40172Y-87001D01*
X39356Y-87059D01*
Y-87051D01*
Y-87035D01*
X39347Y-87001D01*
X39339Y-86959D01*
X39331Y-86910D01*
X39314Y-86851D01*
X39272Y-86718D01*
X39214Y-86576D01*
X39139Y-86426D01*
X39039Y-86276D01*
X38906Y-86151D01*
X38889Y-86135D01*
X38864Y-86126D01*
X38839Y-86101D01*
X38798Y-86076D01*
X38747Y-86051D01*
X38689Y-86026D01*
X38631Y-85993D01*
X38556Y-85968D01*
X38473Y-85943D01*
X38381Y-85918D01*
X38281Y-85893D01*
X38173Y-85868D01*
X38056Y-85860D01*
X37931Y-85843D01*
X37673D01*
X37606Y-85851D01*
X37540Y-85860D01*
X37373Y-85877D01*
X37190Y-85910D01*
X37006Y-85960D01*
X36831Y-86035D01*
X36748Y-86076D01*
X36681Y-86126D01*
X36665Y-86143D01*
X36623Y-86176D01*
X36573Y-86235D01*
X36506Y-86318D01*
X36440Y-86418D01*
X36390Y-86535D01*
X36348Y-86668D01*
X36332Y-86810D01*
Y-86826D01*
Y-86868D01*
X36348Y-86926D01*
X36365Y-87009D01*
X36390Y-87101D01*
X36431Y-87193D01*
X36490Y-87284D01*
X36573Y-87376D01*
X36590Y-87384D01*
X36606Y-87401D01*
X36631Y-87409D01*
X36665Y-87434D01*
X36706Y-87459D01*
X36765Y-87484D01*
X36823Y-87509D01*
X36906Y-87543D01*
X36998Y-87584D01*
X37098Y-87618D01*
X37215Y-87659D01*
X37348Y-87701D01*
X37498Y-87743D01*
X37664Y-87784D01*
X37848Y-87826D01*
X37856D01*
X37889Y-87834D01*
X37948Y-87851D01*
X38014Y-87868D01*
X38098Y-87884D01*
X38198Y-87909D01*
X38298Y-87934D01*
X38414Y-87968D01*
X38647Y-88026D01*
X38881Y-88093D01*
X38989Y-88134D01*
X39097Y-88167D01*
X39189Y-88201D01*
X39264Y-88234D01*
X39272D01*
X39289Y-88243D01*
X39314Y-88259D01*
X39356Y-88284D01*
X39456Y-88334D01*
X39581Y-88409D01*
X39714Y-88509D01*
X39847Y-88617D01*
X39980Y-88751D01*
X40089Y-88892D01*
Y-88901D01*
X40097Y-88909D01*
X40114Y-88934D01*
X40131Y-88959D01*
X40172Y-89042D01*
X40230Y-89151D01*
X40280Y-89284D01*
X40322Y-89442D01*
X40355Y-89609D01*
X40364Y-89801D01*
Y-89809D01*
Y-89825D01*
Y-89850D01*
X40355Y-89884D01*
Y-89934D01*
X40347Y-89984D01*
X40331Y-90109D01*
X40289Y-90259D01*
X40239Y-90417D01*
X40164Y-90592D01*
X40064Y-90758D01*
Y-90767D01*
X40047Y-90775D01*
X40030Y-90800D01*
X40014Y-90834D01*
X39939Y-90917D01*
X39847Y-91017D01*
X39731Y-91125D01*
X39589Y-91242D01*
X39414Y-91358D01*
X39222Y-91458D01*
X39214D01*
X39197Y-91467D01*
X39164Y-91483D01*
X39131Y-91500D01*
X39072Y-91517D01*
X39014Y-91533D01*
X38948Y-91558D01*
X38864Y-91583D01*
X38689Y-91625D01*
X38481Y-91667D01*
X38248Y-91700D01*
X37998Y-91708D01*
X37914D01*
X37856Y-91700D01*
X37781D01*
X37689Y-91692D01*
X37598Y-91683D01*
X37490Y-91675D01*
X37265Y-91650D01*
X37015Y-91600D01*
X36773Y-91542D01*
X36540Y-91458D01*
X36531D01*
X36515Y-91450D01*
X36481Y-91433D01*
X36440Y-91408D01*
X36398Y-91383D01*
X36340Y-91350D01*
X36207Y-91267D01*
X36056Y-91158D01*
X35907Y-91025D01*
X35757Y-90867D01*
X35623Y-90692D01*
Y-90684D01*
X35607Y-90667D01*
X35590Y-90642D01*
X35573Y-90600D01*
X35548Y-90550D01*
X35515Y-90500D01*
X35490Y-90434D01*
X35457Y-90359D01*
X35390Y-90184D01*
X35332Y-89992D01*
X35290Y-89767D01*
X35273Y-89534D01*
X36073Y-89467D01*
Y-89475D01*
Y-89492D01*
X36082Y-89517D01*
Y-89551D01*
X36098Y-89634D01*
X36123Y-89750D01*
X36156Y-89875D01*
X36207Y-90009D01*
X36265Y-90142D01*
X36332Y-90267D01*
X36340Y-90284D01*
X36373Y-90317D01*
X36423Y-90375D01*
X36490Y-90442D01*
X36581Y-90525D01*
X36690Y-90609D01*
X36823Y-90692D01*
X36973Y-90767D01*
X36981D01*
X36990Y-90775D01*
X37015Y-90784D01*
X37048Y-90792D01*
X37090Y-90808D01*
X37140Y-90825D01*
X37265Y-90858D01*
X37406Y-90892D01*
X37573Y-90925D01*
X37756Y-90942D01*
X37956Y-90950D01*
X38039D01*
X38131Y-90942D01*
X38248Y-90934D01*
X38373Y-90917D01*
X38523Y-90892D01*
X38664Y-90858D01*
X38806Y-90808D01*
X38814D01*
X38823Y-90800D01*
X38864Y-90784D01*
X38931Y-90750D01*
X39014Y-90709D01*
X39106Y-90650D01*
X39197Y-90584D01*
X39289Y-90509D01*
X39364Y-90417D01*
X39372Y-90409D01*
X39389Y-90375D01*
X39422Y-90317D01*
X39456Y-90250D01*
X39489Y-90167D01*
X39522Y-90075D01*
X39539Y-89975D01*
X39547Y-89867D01*
Y-89850D01*
Y-89817D01*
X39539Y-89759D01*
X39522Y-89692D01*
X39506Y-89609D01*
X39472Y-89517D01*
X39422Y-89426D01*
X39364Y-89342D01*
X39356Y-89334D01*
X39331Y-89301D01*
X39289Y-89259D01*
X39231Y-89209D01*
X39147Y-89151D01*
X39047Y-89092D01*
X38931Y-89026D01*
X38789Y-88967D01*
X38772Y-88959D01*
X38739Y-88951D01*
X38706Y-88934D01*
X38664Y-88926D01*
X38614Y-88909D01*
X38548Y-88892D01*
X38481Y-88867D01*
X38398Y-88851D01*
X38306Y-88826D01*
X38198Y-88792D01*
X38081Y-88767D01*
X37948Y-88734D01*
X37806Y-88701D01*
X37648Y-88659D01*
X37640D01*
X37606Y-88651D01*
X37564Y-88634D01*
X37506Y-88626D01*
X37431Y-88601D01*
X37356Y-88584D01*
X37165Y-88526D01*
X36965Y-88468D01*
X36756Y-88392D01*
X36573Y-88326D01*
X36490Y-88284D01*
X36415Y-88251D01*
X36407D01*
X36398Y-88243D01*
X36373Y-88226D01*
X36340Y-88209D01*
X36256Y-88159D01*
X36156Y-88084D01*
X36048Y-88001D01*
X35932Y-87901D01*
X35823Y-87784D01*
X35732Y-87659D01*
Y-87651D01*
X35723Y-87643D01*
X35698Y-87593D01*
X35665Y-87526D01*
X35623Y-87426D01*
X35582Y-87309D01*
X35548Y-87168D01*
X35523Y-87018D01*
X35515Y-86860D01*
Y-86851D01*
Y-86834D01*
Y-86810D01*
X35523Y-86776D01*
X35532Y-86685D01*
X35548Y-86560D01*
X35582Y-86418D01*
X35632Y-86268D01*
X35698Y-86110D01*
X35790Y-85951D01*
Y-85943D01*
X35807Y-85935D01*
X35840Y-85885D01*
X35907Y-85801D01*
X35990Y-85710D01*
X36107Y-85610D01*
X36240Y-85502D01*
X36407Y-85402D01*
X36590Y-85310D01*
X36598D01*
X36615Y-85302D01*
X36640Y-85285D01*
X36681Y-85277D01*
X36731Y-85260D01*
X36790Y-85235D01*
X36856Y-85218D01*
X36931Y-85193D01*
X37106Y-85160D01*
X37306Y-85118D01*
X37531Y-85093D01*
X37764Y-85085D01*
X37881D01*
X37948Y-85093D01*
D02*
G37*
G36*
X46104Y-85951D02*
X43996D01*
Y-91600D01*
X43146D01*
Y-85951D01*
X41039D01*
Y-85193D01*
X46104D01*
Y-85951D01*
D02*
G37*
G36*
X378857Y111570D02*
X378940Y111561D01*
X379031Y111553D01*
X379131Y111537D01*
X379240Y111511D01*
X379473Y111453D01*
X379590Y111412D01*
X379715Y111362D01*
X379840Y111303D01*
X379956Y111228D01*
X380065Y111153D01*
X380173Y111062D01*
X380181Y111053D01*
X380198Y111037D01*
X380223Y111012D01*
X380256Y110970D01*
X380298Y110920D01*
X380348Y110862D01*
X380389Y110795D01*
X380448Y110712D01*
X380498Y110628D01*
X380539Y110528D01*
X380631Y110312D01*
X380664Y110195D01*
X380689Y110070D01*
X380706Y109937D01*
X380714Y109795D01*
Y109779D01*
Y109729D01*
X380706Y109654D01*
X380698Y109554D01*
X380673Y109445D01*
X380648Y109312D01*
X380606Y109179D01*
X380556Y109037D01*
X380548Y109021D01*
X380523Y108970D01*
X380489Y108896D01*
X380431Y108804D01*
X380356Y108687D01*
X380264Y108554D01*
X380156Y108404D01*
X380031Y108254D01*
Y108246D01*
X380014Y108237D01*
X379990Y108212D01*
X379964Y108179D01*
X379923Y108137D01*
X379873Y108087D01*
X379815Y108029D01*
X379740Y107962D01*
X379665Y107887D01*
X379573Y107804D01*
X379473Y107704D01*
X379365Y107604D01*
X379240Y107496D01*
X379115Y107388D01*
X378965Y107263D01*
X378815Y107129D01*
X378806Y107121D01*
X378782Y107104D01*
X378748Y107071D01*
X378698Y107038D01*
X378648Y106988D01*
X378582Y106929D01*
X378440Y106804D01*
X378282Y106671D01*
X378132Y106538D01*
X378065Y106480D01*
X378007Y106421D01*
X377948Y106363D01*
X377907Y106321D01*
X377898Y106313D01*
X377873Y106288D01*
X377840Y106246D01*
X377790Y106188D01*
X377740Y106130D01*
X377682Y106055D01*
X377574Y105905D01*
X380723D01*
Y105147D01*
X376482D01*
Y105163D01*
Y105197D01*
Y105246D01*
X376490Y105322D01*
X376499Y105405D01*
X376515Y105496D01*
X376540Y105588D01*
X376574Y105688D01*
Y105696D01*
X376582Y105705D01*
X376590Y105730D01*
X376607Y105763D01*
X376640Y105846D01*
X376699Y105955D01*
X376774Y106088D01*
X376857Y106230D01*
X376965Y106379D01*
X377090Y106538D01*
X377099Y106546D01*
X377107Y106554D01*
X377132Y106580D01*
X377157Y106613D01*
X377240Y106704D01*
X377357Y106821D01*
X377499Y106963D01*
X377673Y107129D01*
X377882Y107313D01*
X378123Y107513D01*
X378132Y107521D01*
X378165Y107554D01*
X378223Y107596D01*
X378290Y107654D01*
X378373Y107729D01*
X378473Y107812D01*
X378582Y107904D01*
X378690Y108004D01*
X378923Y108221D01*
X379156Y108446D01*
X379265Y108562D01*
X379365Y108671D01*
X379456Y108771D01*
X379531Y108870D01*
X379540Y108879D01*
X379548Y108896D01*
X379565Y108920D01*
X379590Y108954D01*
X379615Y109004D01*
X379648Y109054D01*
X379723Y109179D01*
X379790Y109320D01*
X379848Y109479D01*
X379889Y109654D01*
X379906Y109737D01*
Y109820D01*
Y109829D01*
Y109845D01*
Y109862D01*
X379898Y109895D01*
X379889Y109987D01*
X379865Y110095D01*
X379823Y110220D01*
X379765Y110345D01*
X379681Y110478D01*
X379565Y110603D01*
X379548Y110620D01*
X379506Y110653D01*
X379431Y110703D01*
X379331Y110770D01*
X379206Y110828D01*
X379056Y110878D01*
X378881Y110912D01*
X378690Y110928D01*
X378632D01*
X378598Y110920D01*
X378548D01*
X378490Y110912D01*
X378365Y110887D01*
X378223Y110845D01*
X378065Y110787D01*
X377915Y110703D01*
X377782Y110587D01*
X377765Y110570D01*
X377732Y110528D01*
X377673Y110445D01*
X377615Y110345D01*
X377548Y110204D01*
X377490Y110045D01*
X377457Y109862D01*
X377440Y109645D01*
X376632Y109729D01*
Y109737D01*
X376640Y109770D01*
Y109812D01*
X376649Y109879D01*
X376665Y109954D01*
X376682Y110037D01*
X376707Y110137D01*
X376740Y110237D01*
X376815Y110462D01*
X376865Y110578D01*
X376924Y110687D01*
X376990Y110803D01*
X377065Y110912D01*
X377149Y111012D01*
X377248Y111103D01*
X377257Y111112D01*
X377273Y111120D01*
X377307Y111145D01*
X377349Y111178D01*
X377407Y111212D01*
X377473Y111253D01*
X377548Y111295D01*
X377640Y111345D01*
X377740Y111387D01*
X377848Y111428D01*
X377965Y111470D01*
X378098Y111503D01*
X378232Y111537D01*
X378382Y111561D01*
X378540Y111570D01*
X378707Y111578D01*
X378798D01*
X378857Y111570D01*
D02*
G37*
%LPC*%
G36*
X430056Y110295D02*
X428040Y107404D01*
X430056D01*
Y110295D01*
D02*
G37*
G36*
X357680Y108612D02*
X357530D01*
X357489Y108604D01*
X357447D01*
X357389Y108596D01*
X357272Y108562D01*
X357131Y108521D01*
X356972Y108454D01*
X356822Y108354D01*
X356747Y108296D01*
X356681Y108229D01*
Y108221D01*
X356664Y108212D01*
X356647Y108187D01*
X356622Y108162D01*
X356564Y108079D01*
X356497Y107962D01*
X356431Y107812D01*
X356372Y107646D01*
X356331Y107446D01*
X356322Y107338D01*
X356314Y107221D01*
Y107213D01*
Y107204D01*
Y107154D01*
X356322Y107071D01*
X356339Y106971D01*
X356356Y106854D01*
X356381Y106721D01*
X356422Y106580D01*
X356481Y106438D01*
X356489Y106421D01*
X356514Y106379D01*
X356556Y106313D01*
X356606Y106230D01*
X356672Y106138D01*
X356756Y106046D01*
X356856Y105963D01*
X356964Y105880D01*
X356981Y105871D01*
X357014Y105846D01*
X357080Y105821D01*
X357164Y105788D01*
X357256Y105746D01*
X357372Y105721D01*
X357489Y105696D01*
X357614Y105688D01*
X357664D01*
X357697Y105696D01*
X357789Y105713D01*
X357905Y105738D01*
X358047Y105788D01*
X358189Y105855D01*
X358330Y105955D01*
X358405Y106021D01*
X358472Y106088D01*
X358480Y106096D01*
X358489Y106105D01*
X358505Y106130D01*
X358530Y106163D01*
X358555Y106205D01*
X358588Y106255D01*
X358622Y106313D01*
X358655Y106371D01*
X358713Y106530D01*
X358772Y106721D01*
X358813Y106938D01*
X358830Y107054D01*
Y107179D01*
Y107188D01*
Y107213D01*
Y107246D01*
X358822Y107288D01*
Y107346D01*
X358813Y107413D01*
X358788Y107563D01*
X358747Y107729D01*
X358680Y107904D01*
X358588Y108071D01*
X358539Y108154D01*
X358472Y108229D01*
Y108237D01*
X358455Y108246D01*
X358405Y108287D01*
X358330Y108354D01*
X358230Y108421D01*
X358097Y108487D01*
X357947Y108554D01*
X357772Y108596D01*
X357680Y108612D01*
D02*
G37*
G36*
X327748Y110928D02*
X327698D01*
X327657Y110920D01*
X327557Y110903D01*
X327440Y110870D01*
X327298Y110812D01*
X327157Y110728D01*
X327082Y110678D01*
X327015Y110620D01*
X326948Y110545D01*
X326882Y110462D01*
X326873Y110454D01*
X326865Y110437D01*
X326848Y110395D01*
X326824Y110345D01*
X326790Y110279D01*
X326757Y110195D01*
X326724Y110095D01*
X326682Y109970D01*
X326648Y109837D01*
X326607Y109679D01*
X326573Y109504D01*
X326549Y109304D01*
X326515Y109087D01*
X326498Y108846D01*
X326490Y108587D01*
X326482Y108304D01*
Y108296D01*
Y108287D01*
Y108237D01*
Y108154D01*
X326490Y108046D01*
Y107921D01*
X326498Y107779D01*
X326515Y107621D01*
X326532Y107446D01*
X326573Y107096D01*
X326599Y106921D01*
X326640Y106754D01*
X326682Y106588D01*
X326732Y106446D01*
X326782Y106313D01*
X326848Y106205D01*
X326857Y106196D01*
X326865Y106180D01*
X326890Y106155D01*
X326915Y106121D01*
X326990Y106038D01*
X327098Y105946D01*
X327232Y105855D01*
X327390Y105771D01*
X327473Y105738D01*
X327565Y105713D01*
X327657Y105696D01*
X327757Y105688D01*
X327807D01*
X327848Y105696D01*
X327890Y105705D01*
X327948Y105713D01*
X328073Y105755D01*
X328215Y105813D01*
X328290Y105855D01*
X328365Y105905D01*
X328448Y105963D01*
X328523Y106038D01*
X328598Y106113D01*
X328665Y106205D01*
X328673Y106213D01*
X328681Y106230D01*
X328698Y106263D01*
X328723Y106313D01*
X328748Y106371D01*
X328781Y106454D01*
X328815Y106546D01*
X328856Y106663D01*
X328890Y106796D01*
X328923Y106946D01*
X328956Y107121D01*
X328981Y107313D01*
X329006Y107529D01*
X329023Y107762D01*
X329040Y108021D01*
Y108304D01*
Y108312D01*
Y108321D01*
Y108371D01*
Y108454D01*
X329031Y108562D01*
Y108687D01*
X329023Y108829D01*
X329006Y108996D01*
X328990Y109162D01*
X328948Y109512D01*
X328915Y109687D01*
X328881Y109862D01*
X328840Y110020D01*
X328790Y110162D01*
X328731Y110295D01*
X328665Y110403D01*
Y110412D01*
X328648Y110428D01*
X328631Y110454D01*
X328598Y110487D01*
X328523Y110570D01*
X328415Y110670D01*
X328281Y110762D01*
X328123Y110845D01*
X328040Y110878D01*
X327948Y110903D01*
X327848Y110920D01*
X327748Y110928D01*
D02*
G37*
G36*
X120771Y-85951D02*
X119288D01*
Y-90842D01*
X120813D01*
X120871Y-90834D01*
X121012Y-90825D01*
X121171Y-90817D01*
X121337Y-90792D01*
X121504Y-90767D01*
X121646Y-90725D01*
X121654D01*
X121662Y-90717D01*
X121704Y-90700D01*
X121771Y-90675D01*
X121854Y-90642D01*
X121946Y-90592D01*
X122037Y-90542D01*
X122137Y-90475D01*
X122220Y-90400D01*
X122237Y-90384D01*
X122270Y-90342D01*
X122320Y-90275D01*
X122395Y-90184D01*
X122471Y-90067D01*
X122545Y-89925D01*
X122620Y-89767D01*
X122687Y-89584D01*
Y-89576D01*
X122695Y-89559D01*
X122704Y-89534D01*
X122712Y-89492D01*
X122729Y-89442D01*
X122745Y-89384D01*
X122762Y-89317D01*
X122779Y-89242D01*
X122787Y-89151D01*
X122804Y-89059D01*
X122837Y-88851D01*
X122854Y-88609D01*
X122862Y-88351D01*
Y-88343D01*
Y-88309D01*
Y-88251D01*
X122854Y-88184D01*
Y-88101D01*
X122845Y-88009D01*
X122837Y-87901D01*
X122820Y-87784D01*
X122779Y-87534D01*
X122720Y-87276D01*
X122637Y-87035D01*
X122587Y-86918D01*
X122529Y-86810D01*
Y-86801D01*
X122512Y-86785D01*
X122495Y-86760D01*
X122471Y-86718D01*
X122395Y-86626D01*
X122304Y-86518D01*
X122187Y-86393D01*
X122054Y-86276D01*
X121896Y-86168D01*
X121812Y-86126D01*
X121729Y-86085D01*
X121712Y-86076D01*
X121696Y-86068D01*
X121662Y-86060D01*
X121629Y-86051D01*
X121579Y-86043D01*
X121529Y-86026D01*
X121462Y-86018D01*
X121396Y-86001D01*
X121312Y-85993D01*
X121221Y-85985D01*
X121121Y-85968D01*
X121012Y-85960D01*
X120896D01*
X120771Y-85951D01*
D02*
G37*
G36*
X32099Y-85901D02*
X29950D01*
Y-88026D01*
X31908D01*
X31966Y-88018D01*
X32099Y-88009D01*
X32241Y-88001D01*
X32399Y-87976D01*
X32541Y-87951D01*
X32674Y-87909D01*
X32691Y-87901D01*
X32732Y-87884D01*
X32791Y-87859D01*
X32866Y-87818D01*
X32941Y-87768D01*
X33024Y-87701D01*
X33107Y-87618D01*
X33174Y-87526D01*
X33182Y-87518D01*
X33199Y-87476D01*
X33232Y-87426D01*
X33266Y-87351D01*
X33291Y-87268D01*
X33324Y-87168D01*
X33341Y-87068D01*
X33349Y-86951D01*
Y-86943D01*
Y-86934D01*
Y-86910D01*
X33341Y-86876D01*
X33332Y-86793D01*
X33307Y-86685D01*
X33266Y-86568D01*
X33207Y-86443D01*
X33124Y-86318D01*
X33016Y-86201D01*
X32999Y-86185D01*
X32949Y-86151D01*
X32874Y-86110D01*
X32757Y-86051D01*
X32691Y-86026D01*
X32616Y-85993D01*
X32532Y-85968D01*
X32432Y-85951D01*
X32332Y-85926D01*
X32224Y-85918D01*
X32099Y-85901D01*
D02*
G37*
G36*
X133391Y-85860D02*
Y-85868D01*
X133383Y-85885D01*
X133374Y-85918D01*
X133366Y-85968D01*
X133358Y-86026D01*
X133341Y-86093D01*
X133324Y-86168D01*
X133299Y-86251D01*
X133249Y-86435D01*
X133191Y-86643D01*
X133124Y-86868D01*
X133041Y-87093D01*
X132341Y-88967D01*
X134516D01*
X133849Y-87201D01*
Y-87193D01*
X133833Y-87168D01*
X133816Y-87126D01*
X133799Y-87068D01*
X133774Y-87001D01*
X133741Y-86918D01*
X133708Y-86826D01*
X133674Y-86726D01*
X133599Y-86518D01*
X133524Y-86293D01*
X133458Y-86068D01*
X133391Y-85860D01*
D02*
G37*
G36*
X139506Y-85951D02*
X138023D01*
Y-90842D01*
X139548D01*
X139606Y-90834D01*
X139748Y-90825D01*
X139906Y-90817D01*
X140072Y-90792D01*
X140239Y-90767D01*
X140381Y-90725D01*
X140389D01*
X140398Y-90717D01*
X140439Y-90700D01*
X140506Y-90675D01*
X140589Y-90642D01*
X140681Y-90592D01*
X140772Y-90542D01*
X140872Y-90475D01*
X140956Y-90400D01*
X140972Y-90384D01*
X141006Y-90342D01*
X141056Y-90275D01*
X141131Y-90184D01*
X141206Y-90067D01*
X141281Y-89925D01*
X141355Y-89767D01*
X141422Y-89584D01*
Y-89576D01*
X141431Y-89559D01*
X141439Y-89534D01*
X141447Y-89492D01*
X141464Y-89442D01*
X141481Y-89384D01*
X141497Y-89317D01*
X141514Y-89242D01*
X141522Y-89151D01*
X141539Y-89059D01*
X141572Y-88851D01*
X141589Y-88609D01*
X141597Y-88351D01*
Y-88343D01*
Y-88309D01*
Y-88251D01*
X141589Y-88184D01*
Y-88101D01*
X141580Y-88009D01*
X141572Y-87901D01*
X141556Y-87784D01*
X141514Y-87534D01*
X141455Y-87276D01*
X141372Y-87035D01*
X141322Y-86918D01*
X141264Y-86810D01*
Y-86801D01*
X141247Y-86785D01*
X141231Y-86760D01*
X141206Y-86718D01*
X141131Y-86626D01*
X141039Y-86518D01*
X140922Y-86393D01*
X140789Y-86276D01*
X140631Y-86168D01*
X140547Y-86126D01*
X140464Y-86085D01*
X140447Y-86076D01*
X140431Y-86068D01*
X140398Y-86060D01*
X140364Y-86051D01*
X140314Y-86043D01*
X140264Y-86026D01*
X140197Y-86018D01*
X140131Y-86001D01*
X140048Y-85993D01*
X139956Y-85985D01*
X139856Y-85968D01*
X139748Y-85960D01*
X139631D01*
X139506Y-85951D01*
D02*
G37*
G36*
X443136Y-106305D02*
X441303D01*
Y-108596D01*
X443028D01*
X443086Y-108588D01*
X443153D01*
X443228Y-108579D01*
X443403Y-108554D01*
X443595Y-108521D01*
X443786Y-108471D01*
X443961Y-108396D01*
X444044Y-108346D01*
X444111Y-108296D01*
X444128Y-108279D01*
X444169Y-108238D01*
X444219Y-108171D01*
X444286Y-108071D01*
X444353Y-107946D01*
X444403Y-107796D01*
X444444Y-107630D01*
X444461Y-107430D01*
Y-107421D01*
Y-107413D01*
Y-107363D01*
X444453Y-107288D01*
X444436Y-107196D01*
X444411Y-107088D01*
X444369Y-106971D01*
X444319Y-106855D01*
X444253Y-106747D01*
X444244Y-106730D01*
X444219Y-106697D01*
X444169Y-106646D01*
X444111Y-106588D01*
X444036Y-106522D01*
X443945Y-106463D01*
X443836Y-106405D01*
X443719Y-106363D01*
X443711D01*
X443678Y-106355D01*
X443620Y-106347D01*
X443545Y-106330D01*
X443436Y-106322D01*
X443303Y-106313D01*
X443136Y-106305D01*
D02*
G37*
G36*
X307164Y-106805D02*
X305147Y-109696D01*
X307164D01*
Y-106805D01*
D02*
G37*
G36*
X230964Y110295D02*
X228948Y107404D01*
X230964D01*
Y110295D01*
D02*
G37*
G36*
X448752Y-106305D02*
X447269D01*
Y-111195D01*
X448793D01*
X448852Y-111187D01*
X448993Y-111179D01*
X449151Y-111170D01*
X449318Y-111145D01*
X449485Y-111120D01*
X449626Y-111079D01*
X449635D01*
X449643Y-111070D01*
X449685Y-111054D01*
X449751Y-111029D01*
X449835Y-110995D01*
X449926Y-110945D01*
X450018Y-110895D01*
X450118Y-110829D01*
X450201Y-110754D01*
X450218Y-110737D01*
X450251Y-110695D01*
X450301Y-110629D01*
X450376Y-110537D01*
X450451Y-110421D01*
X450526Y-110279D01*
X450601Y-110121D01*
X450668Y-109937D01*
Y-109929D01*
X450676Y-109912D01*
X450684Y-109887D01*
X450693Y-109846D01*
X450709Y-109796D01*
X450726Y-109737D01*
X450743Y-109671D01*
X450759Y-109596D01*
X450768Y-109504D01*
X450784Y-109412D01*
X450818Y-109204D01*
X450834Y-108963D01*
X450843Y-108704D01*
Y-108696D01*
Y-108663D01*
Y-108604D01*
X450834Y-108538D01*
Y-108454D01*
X450826Y-108363D01*
X450818Y-108254D01*
X450801Y-108138D01*
X450759Y-107888D01*
X450701Y-107630D01*
X450618Y-107388D01*
X450568Y-107271D01*
X450509Y-107163D01*
Y-107155D01*
X450493Y-107138D01*
X450476Y-107113D01*
X450451Y-107071D01*
X450376Y-106980D01*
X450285Y-106871D01*
X450168Y-106747D01*
X450035Y-106630D01*
X449876Y-106522D01*
X449793Y-106480D01*
X449710Y-106438D01*
X449693Y-106430D01*
X449676Y-106422D01*
X449643Y-106413D01*
X449610Y-106405D01*
X449560Y-106397D01*
X449510Y-106380D01*
X449443Y-106372D01*
X449376Y-106355D01*
X449293Y-106347D01*
X449202Y-106338D01*
X449101Y-106322D01*
X448993Y-106313D01*
X448876D01*
X448752Y-106305D01*
D02*
G37*
G36*
X379473Y-106255D02*
X377323D01*
Y-108379D01*
X379281D01*
X379340Y-108371D01*
X379473Y-108363D01*
X379615Y-108354D01*
X379773Y-108329D01*
X379915Y-108304D01*
X380048Y-108263D01*
X380065Y-108254D01*
X380106Y-108238D01*
X380164Y-108213D01*
X380239Y-108171D01*
X380314Y-108121D01*
X380398Y-108055D01*
X380481Y-107971D01*
X380548Y-107879D01*
X380556Y-107871D01*
X380573Y-107830D01*
X380606Y-107780D01*
X380639Y-107705D01*
X380664Y-107621D01*
X380698Y-107521D01*
X380714Y-107421D01*
X380723Y-107305D01*
Y-107296D01*
Y-107288D01*
Y-107263D01*
X380714Y-107230D01*
X380706Y-107146D01*
X380681Y-107038D01*
X380639Y-106921D01*
X380581Y-106797D01*
X380498Y-106671D01*
X380389Y-106555D01*
X380373Y-106538D01*
X380323Y-106505D01*
X380248Y-106463D01*
X380131Y-106405D01*
X380065Y-106380D01*
X379990Y-106347D01*
X379906Y-106322D01*
X379806Y-106305D01*
X379706Y-106280D01*
X379598Y-106272D01*
X379473Y-106255D01*
D02*
G37*
%LPD*%
D16*
X236250Y-26000D02*
G03*
X236250Y-26000I-1250J0D01*
G01*
D27*
X20066Y-88900D02*
G03*
X20066Y-88900I-20066J0D01*
G01*
Y88900D02*
G03*
X20066Y88900I-20066J0D01*
G01*
X365840Y-15870D02*
Y5212D01*
X419942D02*
X472774D01*
X365840D02*
X372952D01*
X365840Y-85000D02*
X472774D01*
X365840D02*
Y-64000D01*
X472774Y-85000D02*
Y5212D01*
X253050Y-16800D02*
Y84800D01*
X214950Y-16800D02*
X253050D01*
X208600D02*
X214950D01*
X208600D02*
Y84800D01*
X214950D01*
X253050D01*
X214950Y-16800D02*
Y84800D01*
X67160Y-45212D02*
Y-24130D01*
X-39774Y-45212D02*
X13058D01*
X60048D02*
X67160D01*
X-39774Y45000D02*
X67160D01*
Y24000D02*
Y45000D01*
X-39774Y-45212D02*
Y45000D01*
D28*
X158500Y49000D02*
G03*
X158500Y49000I-42500J0D01*
G01*
D29*
X206000Y-38000D02*
G03*
X206000Y-38000I-50000J0D01*
G01*
X102660D02*
G03*
X102660Y-38000I-10160J0D01*
G01*
X246000Y-78000D02*
Y-28000D01*
X278000Y-78000D02*
Y-28000D01*
X246000D02*
X278000D01*
X246000Y-78000D02*
X278000D01*
X301244Y69342D02*
X313436D01*
X316230Y60325D02*
Y66548D01*
X298450Y32385D02*
X316230D01*
Y42545D01*
X298450Y60325D02*
Y66548D01*
Y32385D02*
Y42545D01*
Y66548D02*
X302260Y70358D01*
X312420D01*
X316230Y66548D01*
X379984Y69342D02*
X392176D01*
X394970Y60325D02*
Y66548D01*
X377190Y32385D02*
X394970D01*
Y42545D01*
X377190Y60325D02*
Y66548D01*
Y32385D02*
Y42545D01*
Y66548D02*
X381000Y70358D01*
X391160D01*
X394970Y66548D01*
X259080Y55880D02*
Y62920D01*
X269240Y55880D02*
Y62920D01*
X347980Y53920D02*
Y60960D01*
X337820Y53920D02*
Y60960D01*
X63500Y41000D02*
Y57000D01*
X55500Y49000D02*
X71500D01*
X290830Y52070D02*
Y59690D01*
X278130Y52070D02*
Y59690D01*
X356870Y52070D02*
Y59690D01*
X369570Y52070D02*
Y59690D01*
X92500Y-45620D02*
Y-30380D01*
X84880Y-38000D02*
X100120D01*
D30*
X440300Y79100D02*
X465700D01*
Y28300D02*
Y79100D01*
X440300Y28300D02*
X465700D01*
X440300D02*
Y79100D01*
X259080Y55880D02*
X269240D01*
X337820Y60960D02*
X347980D01*
X39664Y82100D02*
X33000D01*
X39664Y88764D01*
Y90431D01*
X37998Y92097D01*
X34666D01*
X33000Y90431D01*
X42997D02*
X44663Y92097D01*
X47995D01*
X49661Y90431D01*
Y83766D01*
X47995Y82100D01*
X44663D01*
X42997Y83766D01*
Y90431D01*
X52993Y82100D02*
X56326D01*
X54660D01*
Y92097D01*
X52993Y90431D01*
X67989Y92097D02*
X64656Y90431D01*
X61324Y87098D01*
Y83766D01*
X62990Y82100D01*
X66323D01*
X67989Y83766D01*
Y85432D01*
X66323Y87098D01*
X61324D01*
X39664Y107227D02*
X37998Y108893D01*
X34666D01*
X33000Y107227D01*
Y100562D01*
X34666Y98896D01*
X37998D01*
X39664Y100562D01*
X42997Y108893D02*
Y98896D01*
Y103895D01*
X44663Y105561D01*
X47995D01*
X49661Y103895D01*
Y98896D01*
X52993Y105561D02*
Y98896D01*
Y102228D01*
X54660Y103895D01*
X56326Y105561D01*
X57992D01*
X62990Y98896D02*
X66323D01*
X64657D01*
Y105561D01*
X62990D01*
X71321Y98896D02*
X76319D01*
X77986Y100562D01*
X76319Y102228D01*
X72987D01*
X71321Y103895D01*
X72987Y105561D01*
X77986D01*
X91314Y108893D02*
Y98896D01*
X96313D01*
X97979Y100562D01*
Y102228D01*
X96313Y103895D01*
X91314D01*
X96313D01*
X97979Y105561D01*
Y107227D01*
X96313Y108893D01*
X91314D01*
X102977Y105561D02*
X106310D01*
X107976Y103895D01*
Y98896D01*
X102977D01*
X101311Y100562D01*
X102977Y102228D01*
X107976D01*
X111308Y105561D02*
Y98896D01*
Y102228D01*
X112974Y103895D01*
X114640Y105561D01*
X116306D01*
X121305D02*
Y98896D01*
Y102228D01*
X122971Y103895D01*
X124637Y105561D01*
X126303D01*
X423000Y67498D02*
X432997D01*
X427998Y72496D02*
Y62499D01*
X423000Y42098D02*
X432997D01*
D31*
X143000Y-37967D02*
X151000D01*
X161000D02*
X169000D01*
X161000Y-67967D02*
Y-7966D01*
X151000Y-67967D02*
Y-7966D01*
D32*
X320514Y-52741D02*
X317848D01*
X319181D01*
Y-59405D01*
X317848Y-60738D01*
X316515D01*
X315182Y-59405D01*
X323179Y-60738D02*
X325845D01*
X324512D01*
Y-52741D01*
X323179Y-54074D01*
X64332Y69665D02*
X62999Y70997D01*
X60333D01*
X59000Y69665D01*
Y64333D01*
X60333Y63000D01*
X62999D01*
X64332Y64333D01*
X72329Y63000D02*
X66997D01*
X72329Y68332D01*
Y69665D01*
X70996Y70997D01*
X68330D01*
X66997Y69665D01*
X483332Y15664D02*
X481999Y16997D01*
X479333D01*
X478000Y15664D01*
Y10333D01*
X479333Y9000D01*
X481999D01*
X483332Y10333D01*
X485997Y16997D02*
Y9000D01*
Y12999D01*
X491329D01*
Y16997D01*
Y9000D01*
X493995D02*
X496661D01*
X495328D01*
Y16997D01*
X493995Y15664D01*
X258794Y87467D02*
Y79470D01*
X262793D01*
X264126Y80803D01*
Y86135D01*
X262793Y87467D01*
X258794D01*
X266791Y79470D02*
X269457D01*
X268124D01*
Y87467D01*
X266791Y86135D01*
X334740Y87467D02*
Y79470D01*
X338739D01*
X340072Y80803D01*
Y86135D01*
X338739Y87467D01*
X334740D01*
X348069Y79470D02*
X342737D01*
X348069Y84802D01*
Y86135D01*
X346736Y87467D01*
X344070D01*
X342737Y86135D01*
X298196Y86737D02*
Y78740D01*
X303528D01*
X311525Y86737D02*
X306193D01*
Y78740D01*
X311525D01*
X306193Y82739D02*
X308859D01*
X314191Y86737D02*
Y78740D01*
X318190D01*
X319522Y80073D01*
Y85405D01*
X318190Y86737D01*
X314191D01*
X322188Y78740D02*
X324854D01*
X323521D01*
Y86737D01*
X322188Y85405D01*
X376936Y86737D02*
Y78740D01*
X382268D01*
X390265Y86737D02*
X384933D01*
Y78740D01*
X390265D01*
X384933Y82739D02*
X387599D01*
X392931Y86737D02*
Y78740D01*
X396930D01*
X398262Y80073D01*
Y85405D01*
X396930Y86737D01*
X392931D01*
X406260Y78740D02*
X400928D01*
X406260Y84072D01*
Y85405D01*
X404927Y86737D01*
X402261D01*
X400928Y85405D01*
X231486Y-15631D02*
Y-10300D01*
X230153Y-8967D01*
X227487D01*
X226154Y-10300D01*
Y-15631D01*
X227487Y-16964D01*
X230153D01*
X228820Y-14298D02*
X231486Y-16964D01*
X230153D02*
X231486Y-15631D01*
X234151Y-16964D02*
X236817D01*
X235484D01*
Y-8967D01*
X234151Y-10300D01*
X-4096Y61813D02*
Y56482D01*
X-1430Y53816D01*
X1236Y56482D01*
Y61813D01*
X3901Y52483D02*
X9233D01*
X11899Y61813D02*
X14565D01*
X13232D01*
Y53816D01*
X11899D01*
X14565D01*
X18563D02*
Y61813D01*
X23895Y53816D01*
Y61813D01*
X277082Y78835D02*
Y86832D01*
X281081D01*
X282414Y85499D01*
Y82834D01*
X281081Y81501D01*
X277082D01*
X279748D02*
X282414Y78835D01*
X285079D02*
X287745D01*
X286412D01*
Y86832D01*
X285079Y85499D01*
X355822Y78962D02*
Y86959D01*
X359821D01*
X361154Y85626D01*
Y82961D01*
X359821Y81628D01*
X355822D01*
X358488D02*
X361154Y78962D01*
X369151D02*
X363819D01*
X369151Y84294D01*
Y85626D01*
X367818Y86959D01*
X365152D01*
X363819Y85626D01*
X105332Y-3336D02*
X103999Y-2003D01*
X101333D01*
X100000Y-3336D01*
Y-8667D01*
X101333Y-10000D01*
X103999D01*
X105332Y-8667D01*
X107997Y-10000D02*
X110663D01*
X109330D01*
Y-2003D01*
X107997Y-3336D01*
X448332Y89664D02*
X446999Y90997D01*
X444333D01*
X443000Y89664D01*
Y84333D01*
X444333Y83000D01*
X446999D01*
X448332Y84333D01*
X450997Y90997D02*
Y83000D01*
Y86999D01*
X456329D01*
Y90997D01*
Y83000D01*
X464327D02*
X458995D01*
X464327Y88332D01*
Y89664D01*
X462994Y90997D01*
X460328D01*
X458995Y89664D01*
D33*
X270362Y49444D02*
X270386Y49420D01*
X270410Y49444D01*
X270386Y49468D01*
X270362Y49444D01*
X336698Y67396D02*
X336674Y67420D01*
X336650Y67396D01*
X336674Y67372D01*
X336698Y67396D01*
M02*
