M48
;Layer_Color=9474304
;FILE_FORMAT=4:4
METRIC
;TYPE=PLATED
T1F00S00C0.4000
T2F00S00C0.9000
T3F00S00C0.9652
T4F00S00C1.0160
T5F00S00C1.2000
T6F00S00C2.5146
T7F00S00C2.9972
%
T01
X00316198Y-00010424
X00342900Y00041000
X00318484Y00069945
T02
X00098500Y00049000
X00133500
T03
X00131000Y-00038000
X00181000
T04
X00038100Y-00101600
X00063500
X00088900
X00114300
X00139700
X00165100
X00190500
X00215900
X00241300
X00266700
X00292100
X00317500
X00342900
X00368300
X00393700
X00419100
Y00101600
X00444500
X00393700
X00368300
X00342900
X00317500
X00292100
X00266700
X00241300
X00215900
X00234000Y00059400
Y00034000
Y00008600
X00190500Y00101600
X00165100
X00139700
T05
X00453000Y00041000
Y00066400
T06
X00000000Y-00088900
Y00088900
T07
X00037188Y-00047244
X00365840Y-00040000
X00425784
X00395812Y00007244
X00067160Y00000000
X00007216
M30
